<svg id="pcbsvg" xmlns="http://www.w3.org/2000/svg" width="550.3279903502183" height="708" viewBox="0 0 550.3279903502183 708" style="background:#0d0d0d;font-family:system-ui,sans-serif"><defs><marker id="arr" viewBox="0 0 8 8" refX="7" refY="4" markerWidth="5" markerHeight="5" orient="auto"><path d="M0,0L8,4L0,8z" fill="#3987e5"/></marker></defs><clipPath id="bclip"><circle cx="56.44684473006109" cy="930.4775959519918" r="1125.862625437438"/></clipPath><path d="M56.4,41.1L75.8,41.3L95.2,42.0L114.6,43.0L134.0,44.5L153.3,46.4L172.5,48.7L191.7,51.5L210.9,54.6L230.0,58.2L248.9,62.2L267.8,66.6L286.6,71.4L305.3,76.6L323.9,82.3L342.3,88.3L360.6,94.8L378.8,101.6L396.8,108.8L414.6,116.4L432.3,124.4L449.8,132.8L467.1,141.6L484.2,150.8L501.1,160.3L204.7,673.7L199.0,670.6L193.3,667.5L187.6,664.6L181.7,661.8L175.8,659.1L169.9,656.6L163.9,654.2L157.8,651.9L151.7,649.8L145.6,647.7L139.4,645.9L133.2,644.1L126.9,642.5L120.6,641.1L114.3,639.7L107.9,638.5L101.5,637.5L95.1,636.6L88.7,635.8L82.3,635.2L75.8,634.7L69.4,634.3L62.9,634.1L56.4,634.0Z" fill="#14231a" fill-opacity="0.35" stroke="#199e70" stroke-width="1.5"/><text x="60" y="22" fill="#d95926" font-size="10">V+ / GND: radial spokes from outer edge + arc pours between LED rings (wire side)</text><circle cx="56.44684473006109" cy="930.4775959519918" r="1125.862625437438" fill="none" stroke="#383835" stroke-dasharray="4 4"/><path d="M77.1,614.9L118.1,620.3L158.1,631.0L196.3,646.9L213.8,611.4L170.8,593.6L125.8,581.6L79.7,575.5L77.1,535.7L118.3,540.1L158.8,548.7L198.1,561.5L235.9,578.3L253.8,543.1L212.3,524.6L169.0,510.5L124.5,501.0L79.2,496.3L77.1,456.6L118.4,460.2L159.1,467.4L199.1,478.1L238.0,492.3L275.5,509.7L293.7,474.7L253.1,455.7L211.0,440.4L167.7,428.8L123.5,421.0L78.9,417.1L77.1,377.5L118.4,380.6L159.3,386.7L199.7,396.0L239.2,408.2L277.7,423.3L315.0,441.2L333.5,406.3L293.5,387.0L252.3,370.8L209.9,357.8L166.7,347.9L122.8,341.3L78.6,338.0L77.1,298.4L118.4,301.1L159.5,306.5L200.1,314.6L240.0,325.3L279.2,338.6L317.5,354.4L354.6,372.7L373.2,337.9L333.8,318.4L293.1,301.6L251.5,287.5L209.0,276.1L165.9,267.5L122.3,261.8L78.4,258.9L77.1,219.3L118.5,221.7L159.6,226.5L200.3,233.7L240.6,243.2L280.2,255.1L319.1,269.3L357.1,285.7L394.1,304.2L412.9,269.4L373.8,249.8L333.7,232.5L292.7,217.6L250.8,205.1L208.3,195.0L165.3,187.4L121.9,182.3L78.3,179.8L77.1,140.2L118.5,142.4L159.6,146.7L200.5,153.2L241.0,161.8L281.0,172.5L320.3,185.3L359.0,200.1L396.8,216.9L433.7,235.7L452.5,201.0L413.8,181.3L374.1,163.6L333.5,148.0L292.2,134.6L250.2,123.3L207.7,114.3L164.8,107.5L121.6,103.0L78.2,100.7L77.1,61.1L118.5,63.1L159.7,67.0L200.7,72.9L241.3,80.8L281.5,90.5L321.2,102.2L360.3,115.7L398.8,131.1L436.4,148.3L473.2,167.3" fill="none" stroke="#3987e5" stroke-width="1.4" marker-end="url(#arr)" opacity="0.9"/><polygon points="80.2,618.4 80.6,611.9 74.1,611.4 73.6,618.0" fill="#2b2b29" stroke="#9a9891" stroke-width="0.9"/><circle cx="77.1" cy="614.9" r="2.0" fill="#199e70"/><text x="77.1" y="617.9" fill="#ffffff" font-size="3.2939222511335227" text-anchor="middle" font-weight="600">1</text><polygon points="120.7,624.2 122.0,617.7 115.5,616.5 114.3,622.9" fill="#2b2b29" stroke="#9a9891" stroke-width="0.9"/><circle cx="118.1" cy="620.3" r="2.0" fill="#199e70"/><text x="118.1" y="623.3" fill="#ffffff" font-size="3.2939222511335227" text-anchor="middle" font-weight="600">2</text><polygon points="160.2,635.2 162.3,629.0 156.0,626.9 153.9,633.1" fill="#2b2b29" stroke="#9a9891" stroke-width="0.9"/><circle cx="158.1" cy="631.0" r="2.0" fill="#199e70"/><text x="158.1" y="634.0" fill="#ffffff" font-size="3.2939222511335227" text-anchor="middle" font-weight="600">3</text><polygon points="197.8,651.3 200.7,645.4 194.8,642.5 191.9,648.4" fill="#2b2b29" stroke="#9a9891" stroke-width="0.9"/><circle cx="196.3" cy="646.9" r="2.0" fill="#199e70"/><text x="196.3" y="649.9" fill="#ffffff" font-size="3.2939222511335227" text-anchor="middle" font-weight="600">4</text><polygon points="215.3,615.8 218.2,609.9 212.3,607.0 209.4,612.9" fill="#2b2b29" stroke="#9a9891" stroke-width="0.9"/><circle cx="213.8" cy="611.4" r="2.0" fill="#199e70"/><text x="213.8" y="614.4" fill="#ffffff" font-size="3.2939222511335227" text-anchor="middle" font-weight="600">5</text><polygon points="172.9,597.8 175.0,591.6 168.7,589.4 166.6,595.7" fill="#2b2b29" stroke="#9a9891" stroke-width="0.9"/><circle cx="170.8" cy="593.6" r="2.0" fill="#199e70"/><text x="170.8" y="596.6" fill="#ffffff" font-size="3.2939222511335227" text-anchor="middle" font-weight="600">6</text><polygon points="128.4,585.4 129.7,579.0 123.3,577.7 122.0,584.2" fill="#2b2b29" stroke="#9a9891" stroke-width="0.9"/><circle cx="125.8" cy="581.6" r="2.0" fill="#199e70"/><text x="125.8" y="584.6" fill="#ffffff" font-size="3.2939222511335227" text-anchor="middle" font-weight="600">7</text><polygon points="82.8,579.0 83.2,572.4 76.6,572.0 76.2,578.6" fill="#2b2b29" stroke="#9a9891" stroke-width="0.9"/><circle cx="79.7" cy="575.5" r="2.0" fill="#199e70"/><text x="79.7" y="578.5" fill="#ffffff" font-size="3.2939222511335227" text-anchor="middle" font-weight="600">8</text><polygon points="80.3,539.2 80.6,532.6 74.0,532.3 73.7,538.9" fill="#2b2b29" stroke="#9a9891" stroke-width="0.9"/><circle cx="77.1" cy="535.7" r="2.0" fill="#199e70"/><text x="77.1" y="538.7" fill="#ffffff" font-size="3.2939222511335227" text-anchor="middle" font-weight="600">9</text><polygon points="121.0,543.8 122.0,537.3 115.5,536.3 114.5,542.8" fill="#2b2b29" stroke="#9a9891" stroke-width="0.9"/><circle cx="118.3" cy="540.1" r="2.0" fill="#199e70"/><text x="118.3" y="543.1" fill="#ffffff" font-size="3.2939222511335227" text-anchor="middle" font-weight="600">10</text><polygon points="161.1,552.7 162.8,546.3 156.4,544.6 154.7,551.0" fill="#2b2b29" stroke="#9a9891" stroke-width="0.9"/><circle cx="158.8" cy="548.7" r="2.0" fill="#199e70"/><text x="158.8" y="551.7" fill="#ffffff" font-size="3.2939222511335227" text-anchor="middle" font-weight="600">11</text><polygon points="200.0,565.7 202.4,559.6 196.2,557.2 193.8,563.4" fill="#2b2b29" stroke="#9a9891" stroke-width="0.9"/><circle cx="198.1" cy="561.5" r="2.0" fill="#199e70"/><text x="198.1" y="564.5" fill="#ffffff" font-size="3.2939222511335227" text-anchor="middle" font-weight="600">12</text><polygon points="237.3,582.7 240.3,576.8 234.5,573.9 231.5,579.7" fill="#2b2b29" stroke="#9a9891" stroke-width="0.9"/><circle cx="235.9" cy="578.3" r="2.0" fill="#199e70"/><text x="235.9" y="581.3" fill="#ffffff" font-size="3.2939222511335227" text-anchor="middle" font-weight="600">13</text><polygon points="255.3,547.5 258.3,541.6 252.4,538.6 249.4,544.5" fill="#2b2b29" stroke="#9a9891" stroke-width="0.9"/><circle cx="253.8" cy="543.1" r="2.0" fill="#199e70"/><text x="253.8" y="546.1" fill="#ffffff" font-size="3.2939222511335227" text-anchor="middle" font-weight="600">14</text><polygon points="214.2,528.8 216.5,522.7 210.4,520.3 208.0,526.5" fill="#2b2b29" stroke="#9a9891" stroke-width="0.9"/><circle cx="212.3" cy="524.6" r="2.0" fill="#199e70"/><text x="212.3" y="527.6" fill="#ffffff" font-size="3.2939222511335227" text-anchor="middle" font-weight="600">15</text><polygon points="171.3,514.5 173.0,508.2 166.7,506.5 164.9,512.8" fill="#2b2b29" stroke="#9a9891" stroke-width="0.9"/><circle cx="169.0" cy="510.5" r="2.0" fill="#199e70"/><text x="169.0" y="513.5" fill="#ffffff" font-size="3.2939222511335227" text-anchor="middle" font-weight="600">16</text><polygon points="127.2,504.8 128.2,498.3 121.7,497.3 120.7,503.8" fill="#2b2b29" stroke="#9a9891" stroke-width="0.9"/><circle cx="124.5" cy="501.0" r="2.0" fill="#199e70"/><text x="124.5" y="504.0" fill="#ffffff" font-size="3.2939222511335227" text-anchor="middle" font-weight="600">17</text><polygon points="82.3,499.7 82.7,493.2 76.1,492.8 75.7,499.4" fill="#2b2b29" stroke="#9a9891" stroke-width="0.9"/><circle cx="79.2" cy="496.3" r="2.0" fill="#199e70"/><text x="79.2" y="499.3" fill="#ffffff" font-size="3.2939222511335227" text-anchor="middle" font-weight="600">18</text><polygon points="80.3,460.0 80.6,453.5 74.0,453.2 73.7,459.8" fill="#2b2b29" stroke="#9a9891" stroke-width="0.9"/><circle cx="77.1" cy="456.6" r="2.0" fill="#199e70"/><text x="77.1" y="459.6" fill="#ffffff" font-size="3.2939222511335227" text-anchor="middle" font-weight="600">19</text><polygon points="121.2,463.9 122.1,457.4 115.5,456.5 114.7,463.0" fill="#2b2b29" stroke="#9a9891" stroke-width="0.9"/><circle cx="118.4" cy="460.2" r="2.0" fill="#199e70"/><text x="118.4" y="463.2" fill="#ffffff" font-size="3.2939222511335227" text-anchor="middle" font-weight="600">20</text><polygon points="161.6,471.3 163.0,464.9 156.6,463.5 155.2,469.9" fill="#2b2b29" stroke="#9a9891" stroke-width="0.9"/><circle cx="159.1" cy="467.4" r="2.0" fill="#199e70"/><text x="159.1" y="470.4" fill="#ffffff" font-size="3.2939222511335227" text-anchor="middle" font-weight="600">21</text><polygon points="201.2,482.2 203.2,476.0 196.9,474.0 194.9,480.3" fill="#2b2b29" stroke="#9a9891" stroke-width="0.9"/><circle cx="199.1" cy="478.1" r="2.0" fill="#199e70"/><text x="199.1" y="481.1" fill="#ffffff" font-size="3.2939222511335227" text-anchor="middle" font-weight="600">22</text><polygon points="239.7,496.6 242.3,490.5 236.2,488.0 233.7,494.0" fill="#2b2b29" stroke="#9a9891" stroke-width="0.9"/><circle cx="238.0" cy="492.3" r="2.0" fill="#199e70"/><text x="238.0" y="495.3" fill="#ffffff" font-size="3.2939222511335227" text-anchor="middle" font-weight="600">23</text><polygon points="276.9,514.2 279.9,508.3 274.1,505.3 271.0,511.1" fill="#2b2b29" stroke="#9a9891" stroke-width="0.9"/><circle cx="275.5" cy="509.7" r="2.0" fill="#199e70"/><text x="275.5" y="512.7" fill="#ffffff" font-size="3.2939222511335227" text-anchor="middle" font-weight="600">24</text><polygon points="295.1,479.1 298.2,473.3 292.3,470.2 289.3,476.1" fill="#2b2b29" stroke="#9a9891" stroke-width="0.9"/><circle cx="293.7" cy="474.7" r="2.0" fill="#199e70"/><text x="293.7" y="477.7" fill="#ffffff" font-size="3.2939222511335227" text-anchor="middle" font-weight="600">25</text><polygon points="254.9,460.0 257.4,454.0 251.3,451.4 248.8,457.5" fill="#2b2b29" stroke="#9a9891" stroke-width="0.9"/><circle cx="253.1" cy="455.7" r="2.0" fill="#199e70"/><text x="253.1" y="458.7" fill="#ffffff" font-size="3.2939222511335227" text-anchor="middle" font-weight="600">26</text><polygon points="213.1,444.5 215.1,438.3 208.8,436.3 206.8,442.6" fill="#2b2b29" stroke="#9a9891" stroke-width="0.9"/><circle cx="211.0" cy="440.4" r="2.0" fill="#199e70"/><text x="211.0" y="443.4" fill="#ffffff" font-size="3.2939222511335227" text-anchor="middle" font-weight="600">27</text><polygon points="170.2,432.7 171.6,426.3 165.2,424.9 163.7,431.3" fill="#2b2b29" stroke="#9a9891" stroke-width="0.9"/><circle cx="167.7" cy="428.8" r="2.0" fill="#199e70"/><text x="167.7" y="431.8" fill="#ffffff" font-size="3.2939222511335227" text-anchor="middle" font-weight="600">28</text><polygon points="126.4,424.7 127.2,418.2 120.7,417.3 119.8,423.9" fill="#2b2b29" stroke="#9a9891" stroke-width="0.9"/><circle cx="123.5" cy="421.0" r="2.0" fill="#199e70"/><text x="123.5" y="424.0" fill="#ffffff" font-size="3.2939222511335227" text-anchor="middle" font-weight="600">29</text><polygon points="82.0,420.5 82.3,414.0 75.7,413.7 75.4,420.3" fill="#2b2b29" stroke="#9a9891" stroke-width="0.9"/><circle cx="78.9" cy="417.1" r="2.0" fill="#199e70"/><text x="78.9" y="420.1" fill="#ffffff" font-size="3.2939222511335227" text-anchor="middle" font-weight="600">30</text><polygon points="80.3,380.9 80.6,374.3 74.0,374.1 73.7,380.7" fill="#2b2b29" stroke="#9a9891" stroke-width="0.9"/><circle cx="77.1" cy="377.5" r="2.0" fill="#199e70"/><text x="77.1" y="380.5" fill="#ffffff" font-size="3.2939222511335227" text-anchor="middle" font-weight="600">31</text><polygon points="121.3,384.2 122.0,377.7 115.5,376.9 114.8,383.5" fill="#2b2b29" stroke="#9a9891" stroke-width="0.9"/><circle cx="118.4" cy="380.6" r="2.0" fill="#199e70"/><text x="118.4" y="383.6" fill="#ffffff" font-size="3.2939222511335227" text-anchor="middle" font-weight="600">32</text><polygon points="162.0,390.6 163.2,384.1 156.7,382.9 155.5,389.4" fill="#2b2b29" stroke="#9a9891" stroke-width="0.9"/><circle cx="159.3" cy="386.7" r="2.0" fill="#199e70"/><text x="159.3" y="389.7" fill="#ffffff" font-size="3.2939222511335227" text-anchor="middle" font-weight="600">33</text><polygon points="202.0,400.0 203.7,393.6 197.3,391.9 195.6,398.3" fill="#2b2b29" stroke="#9a9891" stroke-width="0.9"/><circle cx="199.7" cy="396.0" r="2.0" fill="#199e70"/><text x="199.7" y="399.0" fill="#ffffff" font-size="3.2939222511335227" text-anchor="middle" font-weight="600">34</text><polygon points="241.2,412.3 243.4,406.1 237.2,404.0 235.0,410.2" fill="#2b2b29" stroke="#9a9891" stroke-width="0.9"/><circle cx="239.2" cy="408.2" r="2.0" fill="#199e70"/><text x="239.2" y="411.2" fill="#ffffff" font-size="3.2939222511335227" text-anchor="middle" font-weight="600">35</text><polygon points="279.4,427.6 282.1,421.6 276.0,418.9 273.4,425.0" fill="#2b2b29" stroke="#9a9891" stroke-width="0.9"/><circle cx="277.7" cy="423.3" r="2.0" fill="#199e70"/><text x="277.7" y="426.3" fill="#ffffff" font-size="3.2939222511335227" text-anchor="middle" font-weight="600">36</text><polygon points="316.4,445.7 319.5,439.9 313.7,436.8 310.6,442.6" fill="#2b2b29" stroke="#9a9891" stroke-width="0.9"/><circle cx="315.0" cy="441.2" r="2.0" fill="#199e70"/><text x="315.0" y="444.2" fill="#ffffff" font-size="3.2939222511335227" text-anchor="middle" font-weight="600">37</text><polygon points="334.9,410.7 337.9,404.9 332.1,401.8 329.0,407.7" fill="#2b2b29" stroke="#9a9891" stroke-width="0.9"/><circle cx="333.5" cy="406.3" r="2.0" fill="#199e70"/><text x="333.5" y="409.3" fill="#ffffff" font-size="3.2939222511335227" text-anchor="middle" font-weight="600">38</text><polygon points="295.2,391.4 297.9,385.3 291.8,382.7 289.2,388.7" fill="#2b2b29" stroke="#9a9891" stroke-width="0.9"/><circle cx="293.5" cy="387.0" r="2.0" fill="#199e70"/><text x="293.5" y="390.0" fill="#ffffff" font-size="3.2939222511335227" text-anchor="middle" font-weight="600">39</text><polygon points="254.3,375.0 256.5,368.8 250.3,366.6 248.1,372.9" fill="#2b2b29" stroke="#9a9891" stroke-width="0.9"/><circle cx="252.3" cy="370.8" r="2.0" fill="#199e70"/><text x="252.3" y="373.8" fill="#ffffff" font-size="3.2939222511335227" text-anchor="middle" font-weight="600">40</text><polygon points="212.2,361.8 213.9,355.4 207.6,353.7 205.9,360.1" fill="#2b2b29" stroke="#9a9891" stroke-width="0.9"/><circle cx="209.9" cy="357.8" r="2.0" fill="#199e70"/><text x="209.9" y="360.8" fill="#ffffff" font-size="3.2939222511335227" text-anchor="middle" font-weight="600">41</text><polygon points="169.3,351.8 170.5,345.3 164.1,344.1 162.8,350.5" fill="#2b2b29" stroke="#9a9891" stroke-width="0.9"/><circle cx="166.7" cy="347.9" r="2.0" fill="#199e70"/><text x="166.7" y="350.9" fill="#ffffff" font-size="3.2939222511335227" text-anchor="middle" font-weight="600">42</text><polygon points="125.7,344.9 126.5,338.4 119.9,337.7 119.2,344.2" fill="#2b2b29" stroke="#9a9891" stroke-width="0.9"/><circle cx="122.8" cy="341.3" r="2.0" fill="#199e70"/><text x="122.8" y="344.3" fill="#ffffff" font-size="3.2939222511335227" text-anchor="middle" font-weight="600">43</text><polygon points="81.8,341.4 82.0,334.8 75.4,334.6 75.2,341.2" fill="#2b2b29" stroke="#9a9891" stroke-width="0.9"/><circle cx="78.6" cy="338.0" r="2.0" fill="#199e70"/><text x="78.6" y="341.0" fill="#ffffff" font-size="3.2939222511335227" text-anchor="middle" font-weight="600">44</text><polygon points="80.3,301.8 80.5,295.2 74.0,295.0 73.7,301.6" fill="#2b2b29" stroke="#9a9891" stroke-width="0.9"/><circle cx="77.1" cy="298.4" r="2.0" fill="#199e70"/><text x="77.1" y="301.4" fill="#ffffff" font-size="3.2939222511335227" text-anchor="middle" font-weight="600">45</text><polygon points="121.4,304.7 122.0,298.1 115.5,297.5 114.8,304.0" fill="#2b2b29" stroke="#9a9891" stroke-width="0.9"/><circle cx="118.4" cy="301.1" r="2.0" fill="#199e70"/><text x="118.4" y="304.1" fill="#ffffff" font-size="3.2939222511335227" text-anchor="middle" font-weight="600">46</text><polygon points="162.2,310.3 163.3,303.8 156.8,302.7 155.7,309.2" fill="#2b2b29" stroke="#9a9891" stroke-width="0.9"/><circle cx="159.5" cy="306.5" r="2.0" fill="#199e70"/><text x="159.5" y="309.5" fill="#ffffff" font-size="3.2939222511335227" text-anchor="middle" font-weight="600">47</text><polygon points="202.5,318.5 204.0,312.1 197.6,310.6 196.1,317.0" fill="#2b2b29" stroke="#9a9891" stroke-width="0.9"/><circle cx="200.1" cy="314.6" r="2.0" fill="#199e70"/><text x="200.1" y="317.6" fill="#ffffff" font-size="3.2939222511335227" text-anchor="middle" font-weight="600">48</text><polygon points="242.2,329.4 244.1,323.1 237.8,321.2 235.9,327.5" fill="#2b2b29" stroke="#9a9891" stroke-width="0.9"/><circle cx="240.0" cy="325.3" r="2.0" fill="#199e70"/><text x="240.0" y="328.3" fill="#ffffff" font-size="3.2939222511335227" text-anchor="middle" font-weight="600">49</text><polygon points="281.1,342.8 283.5,336.7 277.3,334.3 275.0,340.5" fill="#2b2b29" stroke="#9a9891" stroke-width="0.9"/><circle cx="279.2" cy="338.6" r="2.0" fill="#199e70"/><text x="279.2" y="341.6" fill="#ffffff" font-size="3.2939222511335227" text-anchor="middle" font-weight="600">50</text><polygon points="319.1,358.8 321.8,352.8 315.8,350.1 313.1,356.1" fill="#2b2b29" stroke="#9a9891" stroke-width="0.9"/><circle cx="317.5" cy="354.4" r="2.0" fill="#199e70"/><text x="317.5" y="357.4" fill="#ffffff" font-size="3.2939222511335227" text-anchor="middle" font-weight="600">51</text><polygon points="355.9,377.2 359.0,371.4 353.2,368.3 350.1,374.1" fill="#2b2b29" stroke="#9a9891" stroke-width="0.9"/><circle cx="354.6" cy="372.7" r="2.0" fill="#199e70"/><text x="354.6" y="375.7" fill="#ffffff" font-size="3.2939222511335227" text-anchor="middle" font-weight="600">52</text><polygon points="374.6,342.3 377.7,336.5 371.9,333.4 368.7,339.2" fill="#2b2b29" stroke="#9a9891" stroke-width="0.9"/><circle cx="373.2" cy="337.9" r="2.0" fill="#199e70"/><text x="373.2" y="340.9" fill="#ffffff" font-size="3.2939222511335227" text-anchor="middle" font-weight="600">53</text><polygon points="335.4,322.8 338.1,316.8 332.1,314.1 329.4,320.1" fill="#2b2b29" stroke="#9a9891" stroke-width="0.9"/><circle cx="333.8" cy="318.4" r="2.0" fill="#199e70"/><text x="333.8" y="321.4" fill="#ffffff" font-size="3.2939222511335227" text-anchor="middle" font-weight="600">54</text><polygon points="295.1,305.8 297.4,299.7 291.2,297.3 288.9,303.5" fill="#2b2b29" stroke="#9a9891" stroke-width="0.9"/><circle cx="293.1" cy="301.6" r="2.0" fill="#199e70"/><text x="293.1" y="304.6" fill="#ffffff" font-size="3.2939222511335227" text-anchor="middle" font-weight="600">55</text><polygon points="253.7,291.6 255.6,285.3 249.3,283.3 247.4,289.6" fill="#2b2b29" stroke="#9a9891" stroke-width="0.9"/><circle cx="251.5" cy="287.5" r="2.0" fill="#199e70"/><text x="251.5" y="290.5" fill="#ffffff" font-size="3.2939222511335227" text-anchor="middle" font-weight="600">56</text><polygon points="211.5,280.0 213.0,273.6 206.6,272.1 205.1,278.5" fill="#2b2b29" stroke="#9a9891" stroke-width="0.9"/><circle cx="209.0" cy="276.1" r="2.0" fill="#199e70"/><text x="209.0" y="279.1" fill="#ffffff" font-size="3.2939222511335227" text-anchor="middle" font-weight="600">57</text><polygon points="168.6,271.3 169.7,264.8 163.2,263.7 162.1,270.2" fill="#2b2b29" stroke="#9a9891" stroke-width="0.9"/><circle cx="165.9" cy="267.5" r="2.0" fill="#199e70"/><text x="165.9" y="270.5" fill="#ffffff" font-size="3.2939222511335227" text-anchor="middle" font-weight="600">58</text><polygon points="125.3,265.4 125.9,258.8 119.4,258.2 118.7,264.7" fill="#2b2b29" stroke="#9a9891" stroke-width="0.9"/><circle cx="122.3" cy="261.8" r="2.0" fill="#199e70"/><text x="122.3" y="264.8" fill="#ffffff" font-size="3.2939222511335227" text-anchor="middle" font-weight="600">59</text><polygon points="81.6,262.3 81.8,255.7 75.2,255.5 75.0,262.1" fill="#2b2b29" stroke="#9a9891" stroke-width="0.9"/><circle cx="78.4" cy="258.9" r="2.0" fill="#199e70"/><text x="78.4" y="261.9" fill="#ffffff" font-size="3.2939222511335227" text-anchor="middle" font-weight="600">60</text><polygon points="80.3,222.7 80.5,216.1 73.9,215.9 73.8,222.5" fill="#2b2b29" stroke="#9a9891" stroke-width="0.9"/><circle cx="77.1" cy="219.3" r="2.0" fill="#199e70"/><text x="77.1" y="222.3" fill="#ffffff" font-size="3.2939222511335227" text-anchor="middle" font-weight="600">61</text><polygon points="121.5,225.3 122.0,218.7 115.5,218.1 114.9,224.7" fill="#2b2b29" stroke="#9a9891" stroke-width="0.9"/><circle cx="118.5" cy="221.7" r="2.0" fill="#199e70"/><text x="118.5" y="224.7" fill="#ffffff" font-size="3.2939222511335227" text-anchor="middle" font-weight="600">62</text><polygon points="162.3,230.2 163.3,223.7 156.8,222.8 155.8,229.3" fill="#2b2b29" stroke="#9a9891" stroke-width="0.9"/><circle cx="159.6" cy="226.5" r="2.0" fill="#199e70"/><text x="159.6" y="229.5" fill="#ffffff" font-size="3.2939222511335227" text-anchor="middle" font-weight="600">63</text><polygon points="202.9,237.6 204.2,231.1 197.8,229.8 196.4,236.2" fill="#2b2b29" stroke="#9a9891" stroke-width="0.9"/><circle cx="200.3" cy="233.7" r="2.0" fill="#199e70"/><text x="200.3" y="236.7" fill="#ffffff" font-size="3.2939222511335227" text-anchor="middle" font-weight="600">64</text><polygon points="242.9,247.3 244.6,240.9 238.3,239.2 236.6,245.6" fill="#2b2b29" stroke="#9a9891" stroke-width="0.9"/><circle cx="240.6" cy="243.2" r="2.0" fill="#199e70"/><text x="240.6" y="246.2" fill="#ffffff" font-size="3.2939222511335227" text-anchor="middle" font-weight="600">65</text><polygon points="282.3,259.3 284.4,253.0 278.2,250.9 276.1,257.2" fill="#2b2b29" stroke="#9a9891" stroke-width="0.9"/><circle cx="280.2" cy="255.1" r="2.0" fill="#199e70"/><text x="280.2" y="258.1" fill="#ffffff" font-size="3.2939222511335227" text-anchor="middle" font-weight="600">66</text><polygon points="321.0,273.5 323.4,267.4 317.3,265.0 314.9,271.1" fill="#2b2b29" stroke="#9a9891" stroke-width="0.9"/><circle cx="319.1" cy="269.3" r="2.0" fill="#199e70"/><text x="319.1" y="272.3" fill="#ffffff" font-size="3.2939222511335227" text-anchor="middle" font-weight="600">67</text><polygon points="358.7,290.0 361.5,284.1 355.5,281.3 352.8,287.2" fill="#2b2b29" stroke="#9a9891" stroke-width="0.9"/><circle cx="357.1" cy="285.7" r="2.0" fill="#199e70"/><text x="357.1" y="288.7" fill="#ffffff" font-size="3.2939222511335227" text-anchor="middle" font-weight="600">68</text><polygon points="395.5,308.7 398.6,302.9 392.8,299.8 389.7,305.6" fill="#2b2b29" stroke="#9a9891" stroke-width="0.9"/><circle cx="394.1" cy="304.2" r="2.0" fill="#199e70"/><text x="394.1" y="307.2" fill="#ffffff" font-size="3.2939222511335227" text-anchor="middle" font-weight="600">69</text><polygon points="414.2,273.9 417.3,268.1 411.5,265.0 408.4,270.8" fill="#2b2b29" stroke="#9a9891" stroke-width="0.9"/><circle cx="412.9" cy="269.4" r="2.0" fill="#199e70"/><text x="412.9" y="272.4" fill="#ffffff" font-size="3.2939222511335227" text-anchor="middle" font-weight="600">70</text><polygon points="375.4,254.2 378.2,248.2 372.2,245.5 369.5,251.4" fill="#2b2b29" stroke="#9a9891" stroke-width="0.9"/><circle cx="373.8" cy="249.8" r="2.0" fill="#199e70"/><text x="373.8" y="252.8" fill="#ffffff" font-size="3.2939222511335227" text-anchor="middle" font-weight="600">71</text><polygon points="335.6,236.8 338.0,230.7 331.9,228.2 329.4,234.4" fill="#2b2b29" stroke="#9a9891" stroke-width="0.9"/><circle cx="333.7" cy="232.5" r="2.0" fill="#199e70"/><text x="333.7" y="235.5" fill="#ffffff" font-size="3.2939222511335227" text-anchor="middle" font-weight="600">72</text><polygon points="294.8,221.7 296.8,215.5 290.6,213.4 288.5,219.7" fill="#2b2b29" stroke="#9a9891" stroke-width="0.9"/><circle cx="292.7" cy="217.6" r="2.0" fill="#199e70"/><text x="292.7" y="220.6" fill="#ffffff" font-size="3.2939222511335227" text-anchor="middle" font-weight="600">73</text><polygon points="253.2,209.1 254.9,202.7 248.5,201.0 246.8,207.4" fill="#2b2b29" stroke="#9a9891" stroke-width="0.9"/><circle cx="250.8" cy="205.1" r="2.0" fill="#199e70"/><text x="250.8" y="208.1" fill="#ffffff" font-size="3.2939222511335227" text-anchor="middle" font-weight="600">74</text><polygon points="210.9,198.9 212.2,192.4 205.8,191.1 204.4,197.5" fill="#2b2b29" stroke="#9a9891" stroke-width="0.9"/><circle cx="208.3" cy="195.0" r="2.0" fill="#199e70"/><text x="208.3" y="198.0" fill="#ffffff" font-size="3.2939222511335227" text-anchor="middle" font-weight="600">75</text><polygon points="168.1,191.1 169.0,184.6 162.5,183.7 161.6,190.2" fill="#2b2b29" stroke="#9a9891" stroke-width="0.9"/><circle cx="165.3" cy="187.4" r="2.0" fill="#199e70"/><text x="165.3" y="190.4" fill="#ffffff" font-size="3.2939222511335227" text-anchor="middle" font-weight="600">76</text><polygon points="124.9,185.9 125.5,179.3 118.9,178.8 118.3,185.3" fill="#2b2b29" stroke="#9a9891" stroke-width="0.9"/><circle cx="121.9" cy="182.3" r="2.0" fill="#199e70"/><text x="121.9" y="185.3" fill="#ffffff" font-size="3.2939222511335227" text-anchor="middle" font-weight="600">77</text><polygon points="81.5,183.2 81.7,176.6 75.1,176.4 74.9,183.0" fill="#2b2b29" stroke="#9a9891" stroke-width="0.9"/><circle cx="78.3" cy="179.8" r="2.0" fill="#199e70"/><text x="78.3" y="182.8" fill="#ffffff" font-size="3.2939222511335227" text-anchor="middle" font-weight="600">78</text><polygon points="80.3,143.6 80.5,137.0 73.9,136.8 73.8,143.4" fill="#2b2b29" stroke="#9a9891" stroke-width="0.9"/><circle cx="77.1" cy="140.2" r="2.0" fill="#199e70"/><text x="77.1" y="143.2" fill="#ffffff" font-size="3.2939222511335227" text-anchor="middle" font-weight="600">79</text><polygon points="121.5,145.9 122.0,139.3 115.4,138.8 114.9,145.4" fill="#2b2b29" stroke="#9a9891" stroke-width="0.9"/><circle cx="118.5" cy="142.4" r="2.0" fill="#199e70"/><text x="118.5" y="145.4" fill="#ffffff" font-size="3.2939222511335227" text-anchor="middle" font-weight="600">80</text><polygon points="162.5,150.4 163.3,143.9 156.8,143.0 155.9,149.5" fill="#2b2b29" stroke="#9a9891" stroke-width="0.9"/><circle cx="159.6" cy="146.7" r="2.0" fill="#199e70"/><text x="159.6" y="149.7" fill="#ffffff" font-size="3.2939222511335227" text-anchor="middle" font-weight="600">81</text><polygon points="203.2,157.0 204.4,150.5 197.9,149.3 196.7,155.8" fill="#2b2b29" stroke="#9a9891" stroke-width="0.9"/><circle cx="200.5" cy="153.2" r="2.0" fill="#199e70"/><text x="200.5" y="156.2" fill="#ffffff" font-size="3.2939222511335227" text-anchor="middle" font-weight="600">82</text><polygon points="243.4,165.8 245.0,159.3 238.6,157.8 237.0,164.2" fill="#2b2b29" stroke="#9a9891" stroke-width="0.9"/><circle cx="241.0" cy="161.8" r="2.0" fill="#199e70"/><text x="241.0" y="164.8" fill="#ffffff" font-size="3.2939222511335227" text-anchor="middle" font-weight="600">83</text><polygon points="283.2,176.6 285.1,170.3 278.7,168.4 276.9,174.7" fill="#2b2b29" stroke="#9a9891" stroke-width="0.9"/><circle cx="281.0" cy="172.5" r="2.0" fill="#199e70"/><text x="281.0" y="175.5" fill="#ffffff" font-size="3.2939222511335227" text-anchor="middle" font-weight="600">84</text><polygon points="322.3,189.5 324.5,183.3 318.3,181.1 316.1,187.3" fill="#2b2b29" stroke="#9a9891" stroke-width="0.9"/><circle cx="320.3" cy="185.3" r="2.0" fill="#d55181"/><text x="320.3" y="188.3" fill="#ffffff" font-size="3.2939222511335227" text-anchor="middle" font-weight="600">85</text><polygon points="360.8,204.4 363.3,198.3 357.2,195.8 354.7,201.9" fill="#2b2b29" stroke="#9a9891" stroke-width="0.9"/><circle cx="359.0" cy="200.1" r="2.0" fill="#d55181"/><text x="359.0" y="203.1" fill="#ffffff" font-size="3.2939222511335227" text-anchor="middle" font-weight="600">86</text><polygon points="398.3,221.3 401.2,215.4 395.2,212.6 392.4,218.5" fill="#2b2b29" stroke="#9a9891" stroke-width="0.9"/><circle cx="396.8" cy="216.9" r="2.0" fill="#d55181"/><text x="396.8" y="219.9" fill="#ffffff" font-size="3.2939222511335227" text-anchor="middle" font-weight="600">87</text><polygon points="435.0,240.2 438.1,234.4 432.3,231.3 429.2,237.1" fill="#2b2b29" stroke="#9a9891" stroke-width="0.9"/><circle cx="433.7" cy="235.7" r="2.0" fill="#d55181"/><text x="433.7" y="238.7" fill="#ffffff" font-size="3.2939222511335227" text-anchor="middle" font-weight="600">88</text><polygon points="453.8,205.5 457.0,199.7 451.2,196.5 448.1,202.3" fill="#2b2b29" stroke="#9a9891" stroke-width="0.9"/><circle cx="452.5" cy="201.0" r="2.0" fill="#d55181"/><text x="452.5" y="204.0" fill="#ffffff" font-size="3.2939222511335227" text-anchor="middle" font-weight="600">89</text><polygon points="415.4,185.7 418.2,179.7 412.2,176.9 409.4,182.8" fill="#2b2b29" stroke="#9a9891" stroke-width="0.9"/><circle cx="413.8" cy="181.3" r="2.0" fill="#d55181"/><text x="413.8" y="184.3" fill="#ffffff" font-size="3.2939222511335227" text-anchor="middle" font-weight="600">90</text><polygon points="375.9,167.9 378.4,161.8 372.3,159.3 369.8,165.4" fill="#2b2b29" stroke="#9a9891" stroke-width="0.9"/><circle cx="374.1" cy="163.6" r="2.0" fill="#d55181"/><text x="374.1" y="166.6" fill="#ffffff" font-size="3.2939222511335227" text-anchor="middle" font-weight="600">91</text><polygon points="335.5,152.2 337.7,146.0 331.5,143.8 329.3,150.0" fill="#2b2b29" stroke="#9a9891" stroke-width="0.9"/><circle cx="333.5" cy="148.0" r="2.0" fill="#d55181"/><text x="333.5" y="151.0" fill="#ffffff" font-size="3.2939222511335227" text-anchor="middle" font-weight="600">92</text><polygon points="294.4,138.7 296.3,132.4 290.0,130.5 288.1,136.8" fill="#2b2b29" stroke="#9a9891" stroke-width="0.9"/><circle cx="292.2" cy="134.6" r="2.0" fill="#d55181"/><text x="292.2" y="137.6" fill="#ffffff" font-size="3.2939222511335227" text-anchor="middle" font-weight="600">93</text><polygon points="252.7,127.3 254.2,120.9 247.8,119.4 246.3,125.8" fill="#2b2b29" stroke="#9a9891" stroke-width="0.9"/><circle cx="250.2" cy="123.3" r="2.0" fill="#d55181"/><text x="250.2" y="126.3" fill="#ffffff" font-size="3.2939222511335227" text-anchor="middle" font-weight="600">94</text><polygon points="210.4,118.1 211.6,111.7 205.1,110.5 203.9,116.9" fill="#2b2b29" stroke="#9a9891" stroke-width="0.9"/><circle cx="207.7" cy="114.3" r="2.0" fill="#d55181"/><text x="207.7" y="117.3" fill="#ffffff" font-size="3.2939222511335227" text-anchor="middle" font-weight="600">95</text><polygon points="167.6,111.2 168.5,104.7 162.0,103.8 161.1,110.3" fill="#2b2b29" stroke="#9a9891" stroke-width="0.9"/><circle cx="164.8" cy="107.5" r="2.0" fill="#d55181"/><text x="164.8" y="110.5" fill="#ffffff" font-size="3.2939222511335227" text-anchor="middle" font-weight="600">96</text><polygon points="124.6,106.5 125.1,99.9 118.5,99.4 118.0,106.0" fill="#2b2b29" stroke="#9a9891" stroke-width="0.9"/><circle cx="121.6" cy="103.0" r="2.0" fill="#d55181"/><text x="121.6" y="106.0" fill="#ffffff" font-size="3.2939222511335227" text-anchor="middle" font-weight="600">97</text><polygon points="81.4,104.1 81.6,97.5 75.0,97.3 74.8,103.9" fill="#2b2b29" stroke="#9a9891" stroke-width="0.9"/><circle cx="78.2" cy="100.7" r="2.0" fill="#d55181"/><text x="78.2" y="103.7" fill="#ffffff" font-size="3.2939222511335227" text-anchor="middle" font-weight="600">98</text><polygon points="80.4,64.5 80.5,57.9 73.9,57.8 73.8,64.3" fill="#2b2b29" stroke="#9a9891" stroke-width="0.9"/><circle cx="77.1" cy="61.1" r="2.0" fill="#d55181"/><text x="77.1" y="64.1" fill="#ffffff" font-size="3.2939222511335227" text-anchor="middle" font-weight="600">99</text><polygon points="121.5,66.6 122.0,60.0 115.4,59.6 115.0,66.1" fill="#2b2b29" stroke="#9a9891" stroke-width="0.9"/><circle cx="118.5" cy="63.1" r="2.0" fill="#d55181"/><text x="118.5" y="66.1" fill="#ffffff" font-size="3.2939222511335227" text-anchor="middle" font-weight="600">100</text><polygon points="162.6,70.7 163.3,64.2 156.8,63.4 156.0,69.9" fill="#2b2b29" stroke="#9a9891" stroke-width="0.9"/><circle cx="159.7" cy="67.0" r="2.0" fill="#d55181"/><text x="159.7" y="70.0" fill="#ffffff" font-size="3.2939222511335227" text-anchor="middle" font-weight="600">101</text><polygon points="203.4,76.7 204.4,70.2 197.9,69.1 196.9,75.6" fill="#2b2b29" stroke="#9a9891" stroke-width="0.9"/><circle cx="200.7" cy="72.9" r="2.0" fill="#d55181"/><text x="200.7" y="75.9" fill="#ffffff" font-size="3.2939222511335227" text-anchor="middle" font-weight="600">102</text><polygon points="243.8,84.7 245.2,78.2 238.8,76.8 237.4,83.3" fill="#2b2b29" stroke="#9a9891" stroke-width="0.9"/><circle cx="241.3" cy="80.8" r="2.0" fill="#d55181"/><text x="241.3" y="83.8" fill="#ffffff" font-size="3.2939222511335227" text-anchor="middle" font-weight="600">103</text><polygon points="283.8,94.5 285.5,88.2 279.2,86.5 277.5,92.8" fill="#2b2b29" stroke="#9a9891" stroke-width="0.9"/><circle cx="281.5" cy="90.5" r="2.0" fill="#d55181"/><text x="281.5" y="93.5" fill="#ffffff" font-size="3.2939222511335227" text-anchor="middle" font-weight="600">104</text><polygon points="323.4,106.3 325.4,100.0 319.1,98.0 317.1,104.3" fill="#2b2b29" stroke="#9a9891" stroke-width="0.9"/><circle cx="321.2" cy="102.2" r="2.0" fill="#d55181"/><text x="321.2" y="105.2" fill="#ffffff" font-size="3.2939222511335227" text-anchor="middle" font-weight="600">105</text><polygon points="362.3,119.9 364.6,113.8 358.4,111.5 356.1,117.6" fill="#2b2b29" stroke="#9a9891" stroke-width="0.9"/><circle cx="360.3" cy="115.7" r="2.0" fill="#d55181"/><text x="360.3" y="118.7" fill="#ffffff" font-size="3.2939222511335227" text-anchor="middle" font-weight="600">106</text><polygon points="400.5,135.4 403.1,129.4 397.0,126.8 394.4,132.8" fill="#2b2b29" stroke="#9a9891" stroke-width="0.9"/><circle cx="398.8" cy="131.1" r="2.0" fill="#d55181"/><text x="398.8" y="134.1" fill="#ffffff" font-size="3.2939222511335227" text-anchor="middle" font-weight="600">107</text><polygon points="437.9,152.7 440.8,146.8 434.9,143.9 432.0,149.8" fill="#2b2b29" stroke="#9a9891" stroke-width="0.9"/><circle cx="436.4" cy="148.3" r="2.0" fill="#d55181"/><text x="436.4" y="151.3" fill="#ffffff" font-size="3.2939222511335227" text-anchor="middle" font-weight="600">108</text><polygon points="474.5,171.7 477.7,165.9 471.9,162.8 468.7,168.6" fill="#2b2b29" stroke="#9a9891" stroke-width="0.9"/><circle cx="473.2" cy="167.3" r="2.0" fill="#d55181"/><text x="473.2" y="170.3" fill="#ffffff" font-size="3.2939222511335227" text-anchor="middle" font-weight="600">109</text><polygon points="83.8,616.2 84.0,614.5 81.2,614.3 81.1,616.1" fill="#d55181" fill-opacity="0.85"/><polygon points="124.6,622.5 125.0,620.8 122.2,620.3 121.9,622.0" fill="#d55181" fill-opacity="0.85"/><polygon points="164.2,634.0 164.8,632.4 162.2,631.5 161.6,633.1" fill="#d55181" fill-opacity="0.85"/><polygon points="202.0,650.6 202.8,649.1 200.3,647.9 199.5,649.4" fill="#d55181" fill-opacity="0.85"/><polygon points="209.8,610.4 210.6,608.9 208.1,607.7 207.3,609.2" fill="#d55181" fill-opacity="0.85"/><polygon points="166.7,593.1 167.3,591.5 164.6,590.6 164.1,592.2" fill="#d55181" fill-opacity="0.85"/><polygon points="121.7,581.6 122.1,579.9 119.4,579.4 119.0,581.1" fill="#d55181" fill-opacity="0.85"/><polygon points="75.6,576.1 75.8,574.4 73.0,574.2 72.9,575.9" fill="#d55181" fill-opacity="0.85"/><polygon points="83.9,537.0 84.0,535.2 81.2,535.1 81.1,536.8" fill="#d55181" fill-opacity="0.85"/><polygon points="124.8,542.0 125.1,540.3 122.4,539.9 122.1,541.5" fill="#d55181" fill-opacity="0.85"/><polygon points="165.1,551.3 165.5,549.6 162.9,548.9 162.4,550.5" fill="#d55181" fill-opacity="0.85"/><polygon points="204.1,564.7 204.7,563.1 202.2,562.1 201.5,563.7" fill="#d55181" fill-opacity="0.85"/><polygon points="241.6,582.1 242.3,580.6 239.9,579.4 239.1,580.9" fill="#d55181" fill-opacity="0.85"/><polygon points="249.9,542.0 250.6,540.5 248.2,539.2 247.4,540.8" fill="#d55181" fill-opacity="0.85"/><polygon points="208.2,523.9 208.8,522.3 206.2,521.3 205.6,522.9" fill="#d55181" fill-opacity="0.85"/><polygon points="164.9,510.3 165.3,508.6 162.6,507.9 162.2,509.6" fill="#d55181" fill-opacity="0.85"/><polygon points="120.4,501.3 120.6,499.6 117.9,499.1 117.6,500.8" fill="#d55181" fill-opacity="0.85"/><polygon points="75.1,496.9 75.2,495.2 72.5,495.1 72.4,496.8" fill="#d55181" fill-opacity="0.85"/><polygon points="83.9,457.8 84.0,456.0 81.2,455.9 81.1,457.6" fill="#d55181" fill-opacity="0.85"/><polygon points="125.0,461.9 125.2,460.2 122.5,459.9 122.2,461.6" fill="#d55181" fill-opacity="0.85"/><polygon points="165.5,469.7 165.9,468.0 163.2,467.4 162.8,469.1" fill="#d55181" fill-opacity="0.85"/><polygon points="205.3,481.0 205.8,479.3 203.2,478.5 202.7,480.1" fill="#d55181" fill-opacity="0.85"/><polygon points="243.9,495.6 244.6,494.1 242.0,493.0 241.3,494.6" fill="#d55181" fill-opacity="0.85"/><polygon points="281.1,513.6 281.9,512.1 279.4,510.8 278.6,512.4" fill="#d55181" fill-opacity="0.85"/><polygon points="289.8,473.6 290.5,472.1 288.1,470.8 287.3,472.3" fill="#d55181" fill-opacity="0.85"/><polygon points="249.0,455.0 249.7,453.4 247.1,452.4 246.5,453.9" fill="#d55181" fill-opacity="0.85"/><polygon points="206.9,440.0 207.4,438.4 204.8,437.6 204.2,439.2" fill="#d55181" fill-opacity="0.85"/><polygon points="163.6,428.8 163.9,427.1 161.2,426.5 160.9,428.2" fill="#d55181" fill-opacity="0.85"/><polygon points="119.4,421.3 119.6,419.6 116.9,419.3 116.7,421.0" fill="#d55181" fill-opacity="0.85"/><polygon points="74.8,417.8 74.9,416.1 72.1,416.0 72.0,417.7" fill="#d55181" fill-opacity="0.85"/><polygon points="83.9,378.6 84.0,376.9 81.2,376.8 81.1,378.5" fill="#d55181" fill-opacity="0.85"/><polygon points="125.1,382.2 125.2,380.5 122.5,380.2 122.3,381.9" fill="#d55181" fill-opacity="0.85"/><polygon points="165.8,388.8 166.2,387.2 163.4,386.7 163.1,388.3" fill="#d55181" fill-opacity="0.85"/><polygon points="206.0,398.5 206.4,396.9 203.8,396.2 203.3,397.8" fill="#d55181" fill-opacity="0.85"/><polygon points="245.3,411.2 245.9,409.6 243.3,408.7 242.7,410.3" fill="#d55181" fill-opacity="0.85"/><polygon points="283.6,426.8 284.3,425.2 281.8,424.1 281.1,425.7" fill="#d55181" fill-opacity="0.85"/><polygon points="320.6,445.2 321.4,443.6 319.0,442.3 318.2,443.9" fill="#d55181" fill-opacity="0.85"/><polygon points="329.5,405.2 330.3,403.6 327.9,402.4 327.1,403.9" fill="#d55181" fill-opacity="0.85"/><polygon points="289.5,386.2 290.2,384.7 287.7,383.5 287.0,385.1" fill="#d55181" fill-opacity="0.85"/><polygon points="248.2,370.3 248.8,368.7 246.1,367.8 245.6,369.4" fill="#d55181" fill-opacity="0.85"/><polygon points="205.8,357.6 206.2,355.9 203.6,355.2 203.1,356.8" fill="#d55181" fill-opacity="0.85"/><polygon points="162.6,348.0 162.9,346.3 160.2,345.8 159.8,347.5" fill="#d55181" fill-opacity="0.85"/><polygon points="118.7,341.7 118.9,340.0 116.2,339.7 116.0,341.4" fill="#d55181" fill-opacity="0.85"/><polygon points="74.6,338.7 74.6,337.0 71.9,336.9 71.8,338.6" fill="#d55181" fill-opacity="0.85"/><polygon points="83.9,299.5 83.9,297.7 81.2,297.7 81.1,299.4" fill="#d55181" fill-opacity="0.85"/><polygon points="125.1,302.6 125.3,300.9 122.5,300.6 122.4,302.3" fill="#d55181" fill-opacity="0.85"/><polygon points="166.0,308.4 166.3,306.8 163.6,306.3 163.3,308.0" fill="#d55181" fill-opacity="0.85"/><polygon points="206.5,316.9 206.9,315.3 204.2,314.6 203.8,316.3" fill="#d55181" fill-opacity="0.85"/><polygon points="246.3,328.1 246.8,326.4 244.1,325.6 243.6,327.3" fill="#d55181" fill-opacity="0.85"/><polygon points="285.3,341.8 285.9,340.2 283.3,339.2 282.7,340.8" fill="#d55181" fill-opacity="0.85"/><polygon points="323.3,358.0 324.0,356.4 321.5,355.3 320.8,356.9" fill="#d55181" fill-opacity="0.85"/><polygon points="360.2,376.7 361.0,375.2 358.5,373.9 357.7,375.4" fill="#d55181" fill-opacity="0.85"/><polygon points="369.3,336.7 370.1,335.2 367.6,333.9 366.8,335.4" fill="#d55181" fill-opacity="0.85"/><polygon points="329.8,317.5 330.5,316.0 327.9,314.8 327.2,316.4" fill="#d55181" fill-opacity="0.85"/><polygon points="289.1,301.0 289.7,299.4 287.1,298.4 286.5,300.0" fill="#d55181" fill-opacity="0.85"/><polygon points="247.4,287.1 247.9,285.5 245.3,284.7 244.8,286.3" fill="#d55181" fill-opacity="0.85"/><polygon points="204.9,276.0 205.3,274.3 202.6,273.7 202.2,275.4" fill="#d55181" fill-opacity="0.85"/><polygon points="161.8,267.7 162.1,266.0 159.4,265.5 159.1,267.2" fill="#d55181" fill-opacity="0.85"/><polygon points="118.2,262.2 118.4,260.5 115.6,260.2 115.5,261.9" fill="#d55181" fill-opacity="0.85"/><polygon points="74.4,259.6 74.4,257.9 71.7,257.8 71.6,259.5" fill="#d55181" fill-opacity="0.85"/><polygon points="83.9,220.3 83.9,218.6 81.2,218.6 81.1,220.3" fill="#d55181" fill-opacity="0.85"/><polygon points="125.1,223.1 125.3,221.4 122.5,221.2 122.4,222.9" fill="#d55181" fill-opacity="0.85"/><polygon points="166.2,228.3 166.4,226.6 163.7,226.2 163.4,227.9" fill="#d55181" fill-opacity="0.85"/><polygon points="206.8,235.9 207.1,234.2 204.4,233.7 204.1,235.3" fill="#d55181" fill-opacity="0.85"/><polygon points="246.9,245.8 247.4,244.2 244.7,243.4 244.3,245.1" fill="#d55181" fill-opacity="0.85"/><polygon points="286.4,258.1 287.0,256.4 284.3,255.6 283.8,257.2" fill="#d55181" fill-opacity="0.85"/><polygon points="325.1,272.6 325.8,271.0 323.2,269.9 322.6,271.5" fill="#d55181" fill-opacity="0.85"/><polygon points="362.9,289.3 363.6,287.7 361.1,286.6 360.4,288.1" fill="#d55181" fill-opacity="0.85"/><polygon points="399.7,308.2 400.5,306.7 398.1,305.4 397.2,306.9" fill="#d55181" fill-opacity="0.85"/><polygon points="408.9,268.3 409.7,266.8 407.3,265.5 406.5,267.0" fill="#d55181" fill-opacity="0.85"/><polygon points="369.8,248.9 370.6,247.4 368.1,246.2 367.3,247.7" fill="#d55181" fill-opacity="0.85"/><polygon points="329.7,231.8 330.3,230.2 327.7,229.2 327.1,230.8" fill="#d55181" fill-opacity="0.85"/><polygon points="288.6,217.1 289.1,215.5 286.5,214.6 286.0,216.3" fill="#d55181" fill-opacity="0.85"/><polygon points="246.7,204.8 247.2,203.2 244.5,202.5 244.0,204.1" fill="#d55181" fill-opacity="0.85"/><polygon points="204.2,195.0 204.6,193.3 201.8,192.8 201.5,194.4" fill="#d55181" fill-opacity="0.85"/><polygon points="161.2,187.7 161.4,186.0 158.7,185.6 158.5,187.3" fill="#d55181" fill-opacity="0.85"/><polygon points="117.8,182.8 118.0,181.1 115.2,180.9 115.1,182.6" fill="#d55181" fill-opacity="0.85"/><polygon points="74.2,180.5 74.3,178.8 71.5,178.7 71.5,180.4" fill="#d55181" fill-opacity="0.85"/><polygon points="83.9,141.2 83.9,139.5 81.2,139.5 81.1,141.2" fill="#d55181" fill-opacity="0.85"/><polygon points="125.2,143.8 125.3,142.1 122.5,141.8 122.4,143.5" fill="#d55181" fill-opacity="0.85"/><polygon points="166.2,148.4 166.5,146.7 163.7,146.4 163.5,148.1" fill="#d55181" fill-opacity="0.85"/><polygon points="207.0,155.3 207.3,153.6 204.6,153.1 204.3,154.7" fill="#d55181" fill-opacity="0.85"/><polygon points="247.4,164.2 247.8,162.5 245.1,161.9 244.7,163.5" fill="#d55181" fill-opacity="0.85"/><polygon points="287.2,175.2 287.7,173.6 285.1,172.8 284.6,174.5" fill="#d55181" fill-opacity="0.85"/><polygon points="326.4,188.4 327.0,186.7 324.4,185.8 323.8,187.4" fill="#d55181" fill-opacity="0.85"/><polygon points="364.9,203.5 365.6,201.9 363.0,200.9 362.4,202.4" fill="#d55181" fill-opacity="0.85"/><polygon points="402.5,220.6 403.3,219.1 400.8,217.9 400.0,219.4" fill="#d55181" fill-opacity="0.85"/><polygon points="439.2,239.7 440.0,238.2 437.6,236.9 436.8,238.4" fill="#d55181" fill-opacity="0.85"/><polygon points="448.6,199.8 449.4,198.3 447.0,197.0 446.1,198.5" fill="#d55181" fill-opacity="0.85"/><polygon points="409.8,180.3 410.5,178.8 408.0,177.6 407.3,179.1" fill="#d55181" fill-opacity="0.85"/><polygon points="370.1,162.8 370.7,161.3 368.2,160.2 367.5,161.8" fill="#d55181" fill-opacity="0.85"/><polygon points="329.5,147.5 330.0,145.9 327.4,144.9 326.8,146.6" fill="#d55181" fill-opacity="0.85"/><polygon points="288.1,134.3 288.6,132.6 285.9,131.8 285.4,133.5" fill="#d55181" fill-opacity="0.85"/><polygon points="246.1,123.2 246.5,121.6 243.8,120.9 243.4,122.6" fill="#d55181" fill-opacity="0.85"/><polygon points="203.6,114.4 203.9,112.7 201.2,112.2 200.9,113.9" fill="#d55181" fill-opacity="0.85"/><polygon points="160.7,107.8 160.9,106.1 158.2,105.8 158.0,107.5" fill="#d55181" fill-opacity="0.85"/><polygon points="117.5,103.5 117.6,101.8 114.9,101.6 114.7,103.3" fill="#d55181" fill-opacity="0.85"/><polygon points="74.1,101.4 74.2,99.7 71.4,99.7 71.4,101.4" fill="#d55181" fill-opacity="0.85"/><polygon points="83.9,62.1 83.9,60.4 81.2,60.4 81.1,62.1" fill="#d55181" fill-opacity="0.85"/><polygon points="125.2,64.4 125.3,62.7 122.6,62.5 122.4,64.2" fill="#d55181" fill-opacity="0.85"/><polygon points="166.3,68.7 166.5,67.0 163.8,66.7 163.6,68.4" fill="#d55181" fill-opacity="0.85"/><polygon points="207.2,74.9 207.5,73.2 204.8,72.7 204.5,74.4" fill="#d55181" fill-opacity="0.85"/><polygon points="247.7,83.0 248.1,81.4 245.4,80.8 245.0,82.4" fill="#d55181" fill-opacity="0.85"/><polygon points="287.8,93.1 288.3,91.4 285.6,90.7 285.2,92.4" fill="#d55181" fill-opacity="0.85"/><polygon points="327.4,105.1 328.0,103.4 325.3,102.6 324.8,104.2" fill="#d55181" fill-opacity="0.85"/><polygon points="366.4,118.9 367.0,117.3 364.4,116.3 363.8,117.9" fill="#d55181" fill-opacity="0.85"/><polygon points="404.7,134.6 405.3,133.0 402.8,131.9 402.1,133.5" fill="#d55181" fill-opacity="0.85"/><polygon points="442.1,152.0 442.9,150.5 440.4,149.3 439.7,150.8" fill="#d55181" fill-opacity="0.85"/><polygon points="478.7,171.3 479.6,169.8 477.1,168.4 476.3,169.9" fill="#d55181" fill-opacity="0.85"/><text x="77.12839570589432" y="607.644181469072" fill="#ffffff" font-size="11" font-weight="700" text-anchor="middle">DIN</text><text x="473.199594644324" y="159.9579964856342" fill="#ffffff" font-size="11" font-weight="700" text-anchor="middle">DOUT</text><line x1="60" y1="690" x2="490.32799035021833" y2="690" stroke="#898781" stroke-width="1"/><text x="275.16399517510916" y="684" fill="#c3c2b7" font-size="11" text-anchor="middle">327 mm</text><line x1="532.3279903502183" y1="44" x2="532.3279903502183" y2="664" stroke="#898781" stroke-width="1"/><text x="524.3279903502183" y="354" fill="#c3c2b7" font-size="11" text-anchor="middle" transform="rotate(-90 524.3279903502183 354)">471 mm</text></svg>