0
SECTION
2
HEADER
9
$ACADVER
1
AC1009
9
$INSUNITS
70
4
0
ENDSEC
0
SECTION
2
TABLES
0
TABLE
2
LAYER
70
2
0
LAYER
2
CUT
70
0
62
1
6
CONTINUOUS
0
LAYER
2
REF
70
0
62
3
6
CONTINUOUS
0
ENDTAB
0
ENDSEC
0
SECTION
2
ENTITIES
0
POLYLINE
8
CUT
66
1
70
1
0
VERTEX
8
CUT
10
-13.697
20
457.748
42
-0.130141
0
VERTEX
8
CUT
10
319.070
20
368.583
42
0.000000
0
VERTEX
8
CUT
10
96.067
20
-17.669
42
0.127173
0
VERTEX
8
CUT
10
-13.697
20
11.742
42
0.000000
0
SEQEND
0
CIRCLE
8
REF
10
0.000
20
24.237
40
1.500
0
CIRCLE
8
REF
10
300.608
20
364.019
40
3.000
0
ENDSEC
0
EOF
