  0
SECTION
  2
HEADER
  9
$ACADVER
  1
AC1024
  9
$ACADMAINTVER
 70
6
  9
$DWGCODEPAGE
  3
ANSI_1252
  9
$LASTSAVEDBY
  1
ezdxf
  9
$INSBASE
 10
0.0
 20
0.0
 30
0.0
  9
$EXTMIN
 10
1e+20
 20
1e+20
 30
1e+20
  9
$EXTMAX
 10
-1e+20
 20
-1e+20
 30
-1e+20
  9
$LIMMIN
 10
0.0
 20
0.0
  9
$LIMMAX
 10
420.0
 20
297.0
  9
$ORTHOMODE
 70
0
  9
$REGENMODE
 70
1
  9
$FILLMODE
 70
1
  9
$QTEXTMODE
 70
0
  9
$MIRRTEXT
 70
1
  9
$LTSCALE
 40
1.0
  9
$ATTMODE
 70
1
  9
$TEXTSIZE
 40
2.5
  9
$TRACEWID
 40
1.0
  9
$TEXTSTYLE
  7
Standard
  9
$CLAYER
  8
0
  9
$CELTYPE
  6
ByLayer
  9
$CECOLOR
 62
256
  9
$CELTSCALE
 40
1.0
  9
$DISPSILH
 70
0
  9
$DIMSCALE
 40
1.0
  9
$DIMASZ
 40
2.5
  9
$DIMEXO
 40
0.625
  9
$DIMDLI
 40
3.75
  9
$DIMRND
 40
0.0
  9
$DIMDLE
 40
0.0
  9
$DIMEXE
 40
1.25
  9
$DIMTP
 40
0.0
  9
$DIMTM
 40
0.0
  9
$DIMTXT
 40
2.5
  9
$DIMCEN
 40
2.5
  9
$DIMTSZ
 40
0.0
  9
$DIMTOL
 70
0
  9
$DIMLIM
 70
0
  9
$DIMTIH
 70
0
  9
$DIMTOH
 70
0
  9
$DIMSE1
 70
0
  9
$DIMSE2
 70
0
  9
$DIMTAD
 70
1
  9
$DIMZIN
 70
8
  9
$DIMBLK
  1

  9
$DIMASO
 70
1
  9
$DIMSHO
 70
1
  9
$DIMPOST
  1

  9
$DIMAPOST
  1

  9
$DIMALT
 70
0
  9
$DIMALTD
 70
3
  9
$DIMALTF
 40
0.03937007874
  9
$DIMLFAC
 40
1.0
  9
$DIMTOFL
 70
1
  9
$DIMTVP
 40
0.0
  9
$DIMTIX
 70
0
  9
$DIMSOXD
 70
0
  9
$DIMSAH
 70
0
  9
$DIMBLK1
  1

  9
$DIMBLK2
  1

  9
$DIMSTYLE
  2
ISO-25
  9
$DIMCLRD
 70
0
  9
$DIMCLRE
 70
0
  9
$DIMCLRT
 70
0
  9
$DIMTFAC
 40
1.0
  9
$DIMGAP
 40
0.625
  9
$DIMJUST
 70
0
  9
$DIMSD1
 70
0
  9
$DIMSD2
 70
0
  9
$DIMTOLJ
 70
0
  9
$DIMTZIN
 70
8
  9
$DIMALTZ
 70
0
  9
$DIMALTTZ
 70
0
  9
$DIMUPT
 70
0
  9
$DIMDEC
 70
2
  9
$DIMTDEC
 70
2
  9
$DIMALTU
 70
2
  9
$DIMALTTD
 70
3
  9
$DIMTXSTY
  7
Standard
  9
$DIMAUNIT
 70
0
  9
$DIMADEC
 70
0
  9
$DIMALTRND
 40
0.0
  9
$DIMAZIN
 70
0
  9
$DIMDSEP
 70
44
  9
$DIMATFIT
 70
3
  9
$DIMFRAC
 70
0
  9
$DIMLDRBLK
  1

  9
$DIMLUNIT
 70
2
  9
$DIMLWD
 70
-2
  9
$DIMLWE
 70
-2
  9
$DIMTMOVE
 70
0
  9
$DIMFXL
 40
1.0
  9
$DIMFXLON
 70
0
  9
$DIMJOGANG
 40
0.785398163397
  9
$DIMTFILL
 70
0
  9
$DIMTFILLCLR
 70
0
  9
$DIMARCSYM
 70
0
  9
$DIMLTYPE
  6

  9
$DIMLTEX1
  6

  9
$DIMLTEX2
  6

  9
$DIMTXTDIRECTION
 70
0
  9
$LUNITS
 70
2
  9
$LUPREC
 70
4
  9
$SKETCHINC
 40
1.0
  9
$FILLETRAD
 40
10.0
  9
$AUNITS
 70
0
  9
$AUPREC
 70
2
  9
$MENU
  1
.
  9
$ELEVATION
 40
0.0
  9
$PELEVATION
 40
0.0
  9
$THICKNESS
 40
0.0
  9
$LIMCHECK
 70
0
  9
$CHAMFERA
 40
0.0
  9
$CHAMFERB
 40
0.0
  9
$CHAMFERC
 40
0.0
  9
$CHAMFERD
 40
0.0
  9
$SKPOLY
 70
0
  9
$TDCREATE
 40
2461283.6974768518
  9
$TDUCREATE
 40
2458532.153996898
  9
$TDUPDATE
 40
2461283.6974768518
  9
$TDUUPDATE
 40
2458532.1544311
  9
$TDINDWG
 40
0.0
  9
$TDUSRTIMER
 40
0.0
  9
$USRTIMER
 70
1
  9
$ANGBASE
 50
0.0
  9
$ANGDIR
 70
0
  9
$PDMODE
 70
0
  9
$PDSIZE
 40
0.0
  9
$PLINEWID
 40
0.0
  9
$SPLFRAME
 70
0
  9
$SPLINETYPE
 70
6
  9
$SPLINESEGS
 70
8
  9
$HANDSEED
  5
323
  9
$SURFTAB1
 70
6
  9
$SURFTAB2
 70
6
  9
$SURFTYPE
 70
6
  9
$SURFU
 70
6
  9
$SURFV
 70
6
  9
$UCSBASE
  2

  9
$UCSNAME
  2

  9
$UCSORG
 10
0.0
 20
0.0
 30
0.0
  9
$UCSXDIR
 10
1.0
 20
0.0
 30
0.0
  9
$UCSYDIR
 10
0.0
 20
1.0
 30
0.0
  9
$UCSORTHOREF
  2

  9
$UCSORTHOVIEW
 70
0
  9
$UCSORGTOP
 10
0.0
 20
0.0
 30
0.0
  9
$UCSORGBOTTOM
 10
0.0
 20
0.0
 30
0.0
  9
$UCSORGLEFT
 10
0.0
 20
0.0
 30
0.0
  9
$UCSORGRIGHT
 10
0.0
 20
0.0
 30
0.0
  9
$UCSORGFRONT
 10
0.0
 20
0.0
 30
0.0
  9
$UCSORGBACK
 10
0.0
 20
0.0
 30
0.0
  9
$PUCSBASE
  2

  9
$PUCSNAME
  2

  9
$PUCSORG
 10
0.0
 20
0.0
 30
0.0
  9
$PUCSXDIR
 10
1.0
 20
0.0
 30
0.0
  9
$PUCSYDIR
 10
0.0
 20
1.0
 30
0.0
  9
$PUCSORTHOREF
  2

  9
$PUCSORTHOVIEW
 70
0
  9
$PUCSORGTOP
 10
0.0
 20
0.0
 30
0.0
  9
$PUCSORGBOTTOM
 10
0.0
 20
0.0
 30
0.0
  9
$PUCSORGLEFT
 10
0.0
 20
0.0
 30
0.0
  9
$PUCSORGRIGHT
 10
0.0
 20
0.0
 30
0.0
  9
$PUCSORGFRONT
 10
0.0
 20
0.0
 30
0.0
  9
$PUCSORGBACK
 10
0.0
 20
0.0
 30
0.0
  9
$USERI1
 70
0
  9
$USERI2
 70
0
  9
$USERI3
 70
0
  9
$USERI4
 70
0
  9
$USERI5
 70
0
  9
$USERR1
 40
0.0
  9
$USERR2
 40
0.0
  9
$USERR3
 40
0.0
  9
$USERR4
 40
0.0
  9
$USERR5
 40
0.0
  9
$WORLDVIEW
 70
1
  9
$SHADEDGE
 70
3
  9
$SHADEDIF
 70
70
  9
$TILEMODE
 70
1
  9
$MAXACTVP
 70
64
  9
$PINSBASE
 10
0.0
 20
0.0
 30
0.0
  9
$PLIMCHECK
 70
0
  9
$PEXTMIN
 10
1e+20
 20
1e+20
 30
1e+20
  9
$PEXTMAX
 10
-1e+20
 20
-1e+20
 30
-1e+20
  9
$PLIMMIN
 10
0.0
 20
0.0
  9
$PLIMMAX
 10
420.0
 20
297.0
  9
$UNITMODE
 70
0
  9
$VISRETAIN
 70
1
  9
$PLINEGEN
 70
0
  9
$PSLTSCALE
 70
1
  9
$TREEDEPTH
 70
3020
  9
$CMLSTYLE
  2
Standard
  9
$CMLJUST
 70
0
  9
$CMLSCALE
 40
20.0
  9
$PROXYGRAPHICS
 70
1
  9
$MEASUREMENT
 70
1
  9
$CELWEIGHT
370
-1
  9
$ENDCAPS
280
0
  9
$JOINSTYLE
280
0
  9
$LWDISPLAY
290
0
  9
$INSUNITS
 70
4
  9
$HYPERLINKBASE
  1

  9
$STYLESHEET
  1

  9
$XEDIT
290
1
  9
$CEPSNTYPE
380
0
  9
$PSTYLEMODE
290
1
  9
$FINGERPRINTGUID
  2
{F270B7C0-8894-47F5-9E12-D92D2543A294}
  9
$VERSIONGUID
  2
{50212273-07CE-4D8E-AC59-25F707793174}
  9
$EXTNAMES
290
1
  9
$PSVPSCALE
 40
0.0
  9
$OLESTARTUP
290
0
  9
$SORTENTS
280
127
  9
$INDEXCTL
280
0
  9
$HIDETEXT
280
1
  9
$XCLIPFRAME
280
1
  9
$HALOGAP
280
0
  9
$OBSCOLOR
 70
257
  9
$OBSLTYPE
280
0
  9
$INTERSECTIONDISPLAY
280
0
  9
$INTERSECTIONCOLOR
 70
257
  9
$DIMASSOC
280
2
  9
$PROJECTNAME
  1

  9
$CAMERADISPLAY
290
0
  9
$LENSLENGTH
 40
50.0
  9
$CAMERAHEIGHT
 40
0.0
  9
$STEPSPERSEC
 40
24.0
  9
$STEPSIZE
 40
100.0
  9
$3DDWFPREC
 40
2.0
  9
$PSOLWIDTH
 40
0.005
  9
$PSOLHEIGHT
 40
0.08
  9
$LOFTANG1
 40
1.570796326795
  9
$LOFTANG2
 40
1.570796326795
  9
$LOFTMAG1
 40
0.0
  9
$LOFTMAG2
 40
0.0
  9
$LOFTPARAM
 70
7
  9
$LOFTNORMALS
280
1
  9
$LATITUDE
 40
37.795
  9
$LONGITUDE
 40
-122.394
  9
$NORTHDIRECTION
 40
0.0
  9
$TIMEZONE
 70
-8000
  9
$LIGHTGLYPHDISPLAY
280
1
  9
$TILEMODELIGHTSYNCH
280
1
  9
$CMATERIAL
347
20
  9
$SOLIDHIST
280
0
  9
$SHOWHIST
280
1
  9
$DWFFRAME
280
2
  9
$DGNFRAME
280
2
  9
$REALWORLDSCALE
290
1
  9
$INTERFERECOLOR
 62
256
  9
$CSHADOW
280
0
  9
$SHADOWPLANELOCATION
 40
0.0
  0
ENDSEC
  0
SECTION
  2
CLASSES
  0
CLASS
  1
ACDBDICTIONARYWDFLT
  2
AcDbDictionaryWithDefault
  3
ObjectDBX Classes
 90
0
 91
0
280
0
281
0
  0
CLASS
  1
SUN
  2
AcDbSun
  3
SCENEOE
 90
1153
 91
0
280
0
281
0
  0
CLASS
  1
VISUALSTYLE
  2
AcDbVisualStyle
  3
ObjectDBX Classes
 90
4095
 91
0
280
0
281
0
  0
CLASS
  1
MATERIAL
  2
AcDbMaterial
  3
ObjectDBX Classes
 90
1153
 91
0
280
0
281
0
  0
CLASS
  1
SCALE
  2
AcDbScale
  3
ObjectDBX Classes
 90
1153
 91
0
280
0
281
0
  0
CLASS
  1
TABLESTYLE
  2
AcDbTableStyle
  3
ObjectDBX Classes
 90
4095
 91
0
280
0
281
0
  0
CLASS
  1
MLEADERSTYLE
  2
AcDbMLeaderStyle
  3
ACDB_MLEADERSTYLE_CLASS
 90
4095
 91
0
280
0
281
0
  0
CLASS
  1
DICTIONARYVAR
  2
AcDbDictionaryVar
  3
ObjectDBX Classes
 90
0
 91
0
280
0
281
0
  0
CLASS
  1
CELLSTYLEMAP
  2
AcDbCellStyleMap
  3
ObjectDBX Classes
 90
1152
 91
0
280
0
281
0
  0
CLASS
  1
MENTALRAYRENDERSETTINGS
  2
AcDbMentalRayRenderSettings
  3
SCENEOE
 90
1024
 91
0
280
0
281
0
  0
CLASS
  1
ACDBDETAILVIEWSTYLE
  2
AcDbDetailViewStyle
  3
ObjectDBX Classes
 90
1025
 91
0
280
0
281
0
  0
CLASS
  1
ACDBSECTIONVIEWSTYLE
  2
AcDbSectionViewStyle
  3
ObjectDBX Classes
 90
1025
 91
0
280
0
281
0
  0
CLASS
  1
RASTERVARIABLES
  2
AcDbRasterVariables
  3
ISM
 90
0
 91
0
280
0
281
0
  0
CLASS
  1
LAYOUT
  2
AcDbLayout
  3
ObjectDBX Classes
 90
0
 91
0
280
0
281
0
  0
CLASS
  1
ACDBPLACEHOLDER
  2
AcDbPlaceHolder
  3
ObjectDBX Classes
 90
0
 91
0
280
0
281
0
  0
ENDSEC
  0
SECTION
  2
TABLES
  0
TABLE
  2
VPORT
  5
8
330
0
100
AcDbSymbolTable
 70
1
  0
VPORT
  5
23
330
8
100
AcDbSymbolTableRecord
100
AcDbViewportTableRecord
  2
*Active
 70
0
 10
0.0
 20
0.0
 11
1.0
 21
1.0
 12
0.0
 22
0.0
 13
0.0
 23
0.0
 14
0.5
 24
0.5
 15
0.5
 25
0.5
 16
0.0
 26
0.0
 36
1.0
 17
0.0
 27
0.0
 37
0.0
 40
1000.0
 41
1.34
 42
50.0
 43
0.0
 44
0.0
 50
0.0
 51
0.0
 71
0
 72
1000
 73
1
 74
3
 75
0
 76
0
 77
0
 78
0
281
0
 65
0
146
0.0
  0
ENDTAB
  0
TABLE
  2
LTYPE
  5
2
330
0
100
AcDbSymbolTable
 70
3
  0
LTYPE
  5
24
330
2
100
AcDbSymbolTableRecord
100
AcDbLinetypeTableRecord
  2
ByBlock
 70
0
  3

 72
65
 73
0
 40
0.0
  0
LTYPE
  5
25
330
2
100
AcDbSymbolTableRecord
100
AcDbLinetypeTableRecord
  2
ByLayer
 70
0
  3

 72
65
 73
0
 40
0.0
  0
LTYPE
  5
26
330
2
100
AcDbSymbolTableRecord
100
AcDbLinetypeTableRecord
  2
Continuous
 70
0
  3

 72
65
 73
0
 40
0.0
  0
ENDTAB
  0
TABLE
  2
LAYER
  5
1
330
0
100
AcDbSymbolTable
 70
8
  0
LAYER
  5
27
330
1
100
AcDbSymbolTableRecord
100
AcDbLayerTableRecord
  2
0
 70
0
 62
7
  6
Continuous
370
-3
390
13
347
21
  0
LAYER
  5
28
330
1
100
AcDbSymbolTableRecord
100
AcDbLayerTableRecord
  2
Defpoints
 70
0
 62
7
  6
Continuous
290
0
370
-3
390
13
347
21
  0
LAYER
  5
2F
330
1
100
AcDbSymbolTableRecord
100
AcDbLayerTableRecord
  2
OUTLINE
 70
0
 62
2
  6
Continuous
370
-3
390
13
347
21
  0
LAYER
  5
30
330
1
100
AcDbSymbolTableRecord
100
AcDbLayerTableRecord
  2
LED
 70
0
 62
7
  6
Continuous
370
-3
390
13
347
21
  0
LAYER
  5
31
330
1
100
AcDbSymbolTableRecord
100
AcDbLayerTableRecord
  2
LED-REF
 70
0
 62
8
  6
Continuous
370
-3
390
13
347
21
  0
LAYER
  5
32
330
1
100
AcDbSymbolTableRecord
100
AcDbLayerTableRecord
  2
CAP
 70
0
 62
30
  6
Continuous
370
-3
390
13
347
21
  0
LAYER
  5
33
330
1
100
AcDbSymbolTableRecord
100
AcDbLayerTableRecord
  2
WAGO
 70
0
 62
3
  6
Continuous
370
-3
390
13
347
21
  0
LAYER
  5
34
330
1
100
AcDbSymbolTableRecord
100
AcDbLayerTableRecord
  2
MOUNT
 70
0
 62
1
  6
Continuous
370
-3
390
13
347
21
  0
ENDTAB
  0
TABLE
  2
STYLE
  5
5
330
0
100
AcDbSymbolTable
 70
1
  0
STYLE
  5
29
330
5
100
AcDbSymbolTableRecord
100
AcDbTextStyleTableRecord
  2
Standard
 70
0
 40
0.0
 41
1.0
 50
0.0
 71
0
 42
2.5
  3
txt
  4

  0
ENDTAB
  0
TABLE
  2
VIEW
  5
7
330
0
100
AcDbSymbolTable
 70
0
  0
ENDTAB
  0
TABLE
  2
UCS
  5
6
330
0
100
AcDbSymbolTable
 70
0
  0
ENDTAB
  0
TABLE
  2
APPID
  5
3
330
0
100
AcDbSymbolTable
 70
3
  0
APPID
  5
2A
330
3
100
AcDbSymbolTableRecord
100
AcDbRegAppTableRecord
  2
ACAD
 70
0
  0
APPID
  5
320
330
3
100
AcDbSymbolTableRecord
100
AcDbRegAppTableRecord
  2
HATCHBACKGROUNDCOLOR
 70
0
  0
APPID
  5
321
330
3
100
AcDbSymbolTableRecord
100
AcDbRegAppTableRecord
  2
EZDXF
 70
0
  0
ENDTAB
  0
TABLE
  2
DIMSTYLE
  5
4
330
0
100
AcDbSymbolTable
 70
1
100
AcDbDimStyleTable
  0
DIMSTYLE
105
2B
330
4
100
AcDbSymbolTableRecord
100
AcDbDimStyleTableRecord
  2
Standard
 70
0
 40
1.0
 41
2.5
 42
0.625
 43
3.75
 44
1.25
 45
0.0
 46
0.0
 47
0.0
 48
0.0
 49
2.5
140
2.5
141
2.5
142
0.0
143
0.03937007874
144
1.0
145
0.0
146
1.0
147
0.625
148
0.0
 69
0
 70
0
 71
0
 72
0
 73
0
 74
0
 75
0
 76
0
 77
1
 78
8
 79
3
170
0
171
3
172
1
173
0
174
0
175
0
176
0
177
0
178
0
179
2
271
2
272
2
273
2
274
3
275
0
276
0
277
2
278
44
279
0
280
0
281
0
282
0
283
0
284
8
285
0
286
0
288
0
289
3
290
0
371
-2
372
-2
  0
ENDTAB
  0
TABLE
  2
BLOCK_RECORD
  5
9
330
0
100
AcDbSymbolTable
 70
2
  0
BLOCK_RECORD
  5
17
330
9
100
AcDbSymbolTableRecord
100
AcDbBlockTableRecord
  2
*Model_Space
340
1A
 70
0
280
1
281
0
  0
BLOCK_RECORD
  5
1B
330
9
100
AcDbSymbolTableRecord
100
AcDbBlockTableRecord
  2
*Paper_Space
340
1E
 70
0
280
1
281
0
  0
ENDTAB
  0
ENDSEC
  0
SECTION
  2
BLOCKS
  0
BLOCK
  5
18
330
17
100
AcDbEntity
  8
0
100
AcDbBlockBegin
  2
*Model_Space
 70
0
 10
0.0
 20
0.0
 30
0.0
  3
*Model_Space
  1

  0
ENDBLK
  5
19
330
17
100
AcDbEntity
  8
0
100
AcDbBlockEnd
  0
BLOCK
  5
1C
330
1B
100
AcDbEntity
  8
0
100
AcDbBlockBegin
  2
*Paper_Space
 70
0
 10
0.0
 20
0.0
 30
0.0
  3
*Paper_Space
  1

  0
ENDBLK
  5
1D
330
1B
100
AcDbEntity
  8
0
100
AcDbBlockEnd
  0
ENDSEC
  0
SECTION
  2
ENTITIES
  0
CIRCLE
  5
35
330
17
100
AcDbEntity
  8
OUTLINE
100
AcDbCircle
 10
265.2983
 20
286.6026
 30
0.0
 40
224.0
  0
CIRCLE
  5
36
330
17
100
AcDbEntity
  8
MOUNT
100
AcDbCircle
 10
77.1664
 20
182.5287
 30
0.0
 40
2.11
  0
CIRCLE
  5
37
330
17
100
AcDbEntity
  8
MOUNT
100
AcDbCircle
 10
77.1664
 20
182.5287
 30
0.0
 40
3.1
  0
CIRCLE
  5
38
330
17
100
AcDbEntity
  8
MOUNT
100
AcDbCircle
 10
77.1664
 20
182.5287
 30
0.0
 40
5.5
  0
CIRCLE
  5
39
330
17
100
AcDbEntity
  8
MOUNT
100
AcDbCircle
 10
79.1028
 20
394.1026
 30
0.0
 40
2.11
  0
CIRCLE
  5
3A
330
17
100
AcDbEntity
  8
MOUNT
100
AcDbCircle
 10
79.1028
 20
394.1026
 30
0.0
 40
3.1
  0
CIRCLE
  5
3B
330
17
100
AcDbEntity
  8
MOUNT
100
AcDbCircle
 10
79.1028
 20
394.1026
 30
0.0
 40
5.5
  0
CIRCLE
  5
3C
330
17
100
AcDbEntity
  8
MOUNT
100
AcDbCircle
 10
265.2983
 20
501.6026
 30
0.0
 40
2.11
  0
CIRCLE
  5
3D
330
17
100
AcDbEntity
  8
MOUNT
100
AcDbCircle
 10
265.2983
 20
501.6026
 30
0.0
 40
3.1
  0
CIRCLE
  5
3E
330
17
100
AcDbEntity
  8
MOUNT
100
AcDbCircle
 10
265.2983
 20
501.6026
 30
0.0
 40
5.5
  0
CIRCLE
  5
3F
330
17
100
AcDbEntity
  8
MOUNT
100
AcDbCircle
 10
275.1278
 20
71.8274
 30
0.0
 40
2.11
  0
CIRCLE
  5
40
330
17
100
AcDbEntity
  8
MOUNT
100
AcDbCircle
 10
275.1278
 20
71.8274
 30
0.0
 40
3.1
  0
CIRCLE
  5
41
330
17
100
AcDbEntity
  8
MOUNT
100
AcDbCircle
 10
275.1278
 20
71.8274
 30
0.0
 40
5.5
  0
CIRCLE
  5
42
330
17
100
AcDbEntity
  8
MOUNT
100
AcDbCircle
 10
451.4937
 20
394.1026
 30
0.0
 40
2.11
  0
CIRCLE
  5
43
330
17
100
AcDbEntity
  8
MOUNT
100
AcDbCircle
 10
451.4937
 20
394.1026
 30
0.0
 40
3.1
  0
CIRCLE
  5
44
330
17
100
AcDbEntity
  8
MOUNT
100
AcDbCircle
 10
451.4937
 20
394.1026
 30
0.0
 40
5.5
  0
CIRCLE
  5
45
330
17
100
AcDbEntity
  8
MOUNT
100
AcDbCircle
 10
454.3744
 20
184.2541
 30
0.0
 40
2.11
  0
CIRCLE
  5
46
330
17
100
AcDbEntity
  8
MOUNT
100
AcDbCircle
 10
454.3744
 20
184.2541
 30
0.0
 40
3.1
  0
CIRCLE
  5
47
330
17
100
AcDbEntity
  8
MOUNT
100
AcDbCircle
 10
454.3744
 20
184.2541
 30
0.0
 40
5.5
  0
LWPOLYLINE
  5
48
330
17
100
AcDbEntity
  8
CAP
100
AcDbPolyline
 90
5
 70
0
 10
263.2483
 20
290.20259999999996
 10
263.2483
 20
291.8026
 10
262.4483
 20
291.8026
 10
262.4483
 20
290.20259999999996
 10
263.2483
 20
290.20259999999996
  0
LWPOLYLINE
  5
49
330
17
100
AcDbEntity
  8
CAP
100
AcDbPolyline
 90
5
 70
0
 10
326.20058695700976
 20
305.04357443340234
 10
327.74606827907223
 20
305.4576849055664
 10
327.53901304299023
 20
306.23042556659766
 10
325.99353172092776
 20
305.8163150944336
 10
326.20058695700976
 20
305.04357443340234
  0
LWPOLYLINE
  5
4A
330
17
100
AcDbEntity
  8
CAP
100
AcDbPolyline
 90
5
 70
0
 10
428.31664385677595
 20
371.090564392751
 10
429.7453221717337
 20
371.8108964497702
 10
429.3851561432241
 20
372.52523560724904
 10
427.9564778282664
 20
371.8049035502298
 10
428.31664385677595
 20
371.090564392751
  0
LWPOLYLINE
  5
4B
330
17
100
AcDbEntity
  8
CAP
100
AcDbPolyline
 90
5
 70
0
 10
440.2501954298036
 20
342.3249753946593
 10
441.78006242639043
 20
342.7934911070474
 10
441.5458045701964
 20
343.55842460534075
 10
440.0159375736096
 20
343.0899088929527
 10
440.2501954298036
 20
342.3249753946593
  0
LWPOLYLINE
  5
4C
330
17
100
AcDbEntity
  8
CAP
100
AcDbPolyline
 90
5
 70
0
 10
447.1508841937281
 20
311.9564294239084
 10
448.7379259446364
 20
312.1596497006374
 10
448.6363158062719
 20
312.95317057609157
 10
447.0492740553636
 20
312.7499502993626
 10
447.1508841937281
 20
311.9564294239084
  0
LWPOLYLINE
  5
4D
330
17
100
AcDbEntity
  8
CAP
100
AcDbPolyline
 90
5
 70
0
 10
448.8198471057532
 20
280.8586072155023
 10
450.4184059641463
 20
280.79071335530125
 10
450.4523528942468
 20
281.5899927844978
 10
448.8537940358537
 20
281.6578866446988
 10
448.8198471057532
 20
280.8586072155023
  0
LWPOLYLINE
  5
4E
330
17
100
AcDbEntity
  8
CAP
100
AcDbPolyline
 90
5
 70
0
 10
445.2092847305204
 20
249.925818868516
 10
446.773374066875
 20
249.5887364633067
 10
446.94191526947964
 20
250.37078113148402
 10
445.377825933125
 20
250.7078635366933
 10
445.2092847305204
 20
249.925818868516
  0
LWPOLYLINE
  5
4F
330
17
100
AcDbEntity
  8
CAP
100
AcDbPolyline
 90
5
 70
0
 10
436.42304604955723
 20
220.04833125333863
 10
437.90766736759474
 20
219.4517580876426
 10
438.2059539504428
 20
220.19406874666134
 10
436.7213326324053
 20
220.7906419123574
 10
436.42304604955723
 20
220.04833125333863
  0
LWPOLYLINE
  5
50
330
17
100
AcDbEntity
  8
CAP
100
AcDbPolyline
 90
5
 70
0
 10
422.7138542970267
 20
192.08544005551374
 10
424.076295377373
 20
191.2465394043131
 10
424.4957457029733
 20
191.92775994448624
 10
423.133304622627
 20
192.7666605956869
 10
422.7138542970267
 20
192.08544005551374
  0
LWPOLYLINE
  5
51
330
17
100
AcDbEntity
  8
CAP
100
AcDbPolyline
 90
5
 70
0
 10
404.4760908666468
 20
166.84156555339993
 10
405.67717303729194
 20
165.78449336127753
 10
406.20570913335314
 20
166.3850344466001
 10
405.004626962708
 20
167.4421066387225
 10
404.4760908666468
 20
166.84156555339993
  0
LWPOLYLINE
  5
52
330
17
100
AcDbEntity
  8
CAP
100
AcDbPolyline
 90
5
 70
0
 10
382.23450917522405
 20
145.04313945291557
 10
383.2396629325331
 20
143.7982836684299
 10
383.8620908247759
 20
144.30086054708443
 10
382.85693706746684
 20
145.5457163315701
 10
382.23450917522405
 20
145.04313945291557
  0
LWPOLYLINE
  5
53
330
17
100
AcDbEntity
  8
CAP
100
AcDbPolyline
 90
5
 70
0
 10
356.6287400616823
 20
127.31703575435372
 10
357.40904735950767
 20
125.9202105967336
 10
358.10745993831773
 20
126.31036424564627
 10
357.3271526404924
 20
127.7071894032664
 10
356.6287400616823
 20
127.31703575435372
  0
LWPOLYLINE
  5
54
330
17
100
AcDbEntity
  8
CAP
100
AcDbPolyline
 90
5
 70
0
 10
327.26173172092774
 20
272.1218849055664
 10
328.8072130429902
 20
271.70777443340234
 10
329.0142682790722
 20
272.4805150944336
 10
327.46878695700974
 20
272.89462556659765
 10
327.26173172092774
 20
272.1218849055664
  0
LWPOLYLINE
  5
55
330
17
100
AcDbEntity
  8
CAP
100
AcDbPolyline
 90
5
 70
0
 10
328.3956421662607
 20
114.17325120003589
 10
328.9286537402149
 20
112.66464301298701
 10
329.68295783373935
 20
112.9311487999641
 10
329.14994625978517
 20
114.43975698701298
 10
328.3956421662607
 20
114.17325120003589
  0
LWPOLYLINE
  5
56
330
17
100
AcDbEntity
  8
CAP
100
AcDbPolyline
 90
5
 70
0
 10
298.3473495790834
 20
105.98998990268363
 10
298.61775833040303
 20
104.41300572165653
 10
299.4062504209166
 20
104.54821009731636
 10
299.13584166959697
 20
106.12519427834346
 10
298.3473495790834
 20
105.98998990268363
  0
LWPOLYLINE
  5
57
330
17
100
AcDbEntity
  8
CAP
100
AcDbPolyline
 90
5
 70
0
 10
267.3483
 20
103.0026
 10
267.3483
 20
101.4026
 10
268.14829999999995
 20
101.4026
 10
268.14829999999995
 20
103.0026
 10
267.3483
 20
103.0026
  0
LWPOLYLINE
  5
58
330
17
100
AcDbEntity
  8
CAP
100
AcDbPolyline
 90
5
 70
0
 10
236.29025833040302
 20
105.29699427834346
 10
236.0198495790834
 20
103.72001009731636
 10
236.80834166959696
 20
103.58480572165654
 10
237.07875042091658
 20
105.16178990268364
 10
236.29025833040302
 20
105.29699427834346
  0
LWPOLYLINE
  5
59
330
17
100
AcDbEntity
  8
CAP
100
AcDbPolyline
 90
5
 70
0
 10
206.06675374021486
 20
112.80745698701298
 10
205.5337421662607
 20
111.2988487999641
 10
206.28804625978515
 20
111.03234301298701
 10
206.8210578337393
 20
112.54095120003589
 10
206.06675374021486
 20
112.80745698701298
  0
LWPOLYLINE
  5
5A
330
17
100
AcDbEntity
  8
CAP
100
AcDbPolyline
 90
5
 70
0
 10
177.54714735950765
 20
125.3174894032664
 10
176.7668400616823
 20
123.92066424564628
 10
177.46525264049237
 20
123.5305105967336
 10
178.2455599383177
 20
124.92733575435373
 10
177.54714735950765
 20
125.3174894032664
  0
LWPOLYLINE
  5
5B
330
17
100
AcDbEntity
  8
CAP
100
AcDbPolyline
 90
5
 70
0
 10
151.55206293253312
 20
142.46741633157012
 10
150.54690917522404
 20
141.22256054708444
 10
151.1693370674669
 20
140.7199836684299
 10
152.17449082477597
 20
141.96483945291558
 10
151.55206293253312
 20
142.46741633157012
  0
LWPOLYLINE
  5
5C
330
17
100
AcDbEntity
  8
CAP
100
AcDbPolyline
 90
5
 70
0
 10
128.82927303729196
 20
163.76380663872249
 10
127.62819086664685
 20
162.70673444660008
 10
128.15672696270803
 20
162.10619336127752
 10
129.35780913335316
 20
163.16326555339992
 10
128.82927303729196
 20
163.76380663872249
  0
LWPOLYLINE
  5
5D
330
17
100
AcDbEntity
  8
CAP
100
AcDbPolyline
 90
5
 70
0
 10
110.032495377373
 20
188.5941605956869
 10
108.67005429702671
 20
187.75525994448626
 10
109.08950462262702
 20
187.0740394043131
 10
110.4519457029733
 20
187.91294005551376
 10
110.032495377373
 20
188.5941605956869
  0
LWPOLYLINE
  5
5E
330
17
100
AcDbEntity
  8
CAP
100
AcDbPolyline
 90
5
 70
0
 10
95.70226736759473
 20
216.2439419123574
 10
94.21764604955723
 20
215.64736874666136
 10
94.51593263240527
 20
214.9050580876426
 10
96.00055395044276
 20
215.50163125333864
 10
95.70226736759473
 20
216.2439419123574
  0
LWPOLYLINE
  5
5F
330
17
100
AcDbEntity
  8
CAP
100
AcDbPolyline
 90
5
 70
0
 10
311.71987186257616
 20
243.08014271247464
 10
312.85124271247463
 20
241.94877186257614
 10
313.41692813742384
 20
242.51445728752537
 10
312.28555728752536
 20
243.64582813742388
 10
311.71987186257616
 20
243.08014271247464
  0
LWPOLYLINE
  5
60
330
17
100
AcDbEntity
  8
CAP
100
AcDbPolyline
 90
5
 70
0
 10
86.25107406687499
 20
245.91786353669335
 10
84.68698473052034
 20
245.58078113148403
 10
84.855525933125
 20
244.79873646330668
 10
86.41961526947965
 20
245.135818868516
 10
86.25107406687499
 20
245.91786353669335
  0
LWPOLYLINE
  5
61
330
17
100
AcDbEntity
  8
CAP
100
AcDbPolyline
 90
5
 70
0
 10
81.9507059641463
 20
276.7622866446988
 10
80.3521471057532
 20
276.6943927844978
 10
80.38609403585372
 20
275.89511335530125
 10
81.9846528942468
 20
275.9630072155023
 10
81.9507059641463
 20
276.7622866446988
  0
LWPOLYLINE
  5
62
330
17
100
AcDbEntity
  8
CAP
100
AcDbPolyline
 90
5
 70
0
 10
82.92502594463642
 20
307.8896502993626
 10
81.33798419372808
 20
308.09287057609157
 10
81.23637405536357
 20
307.2993497006374
 10
82.82341580627191
 20
307.0961294239084
 10
82.92502594463642
 20
307.8896502993626
  0
LWPOLYLINE
  5
63
330
17
100
AcDbEntity
  8
CAP
100
AcDbPolyline
 90
5
 70
0
 10
89.14586242639041
 20
338.40470889295267
 10
87.61599542980362
 20
338.87322460534074
 10
87.3817375736096
 20
338.10829110704736
 10
88.91160457019639
 20
337.6397753946593
 10
89.14586242639041
 20
338.40470889295267
  0
LWPOLYLINE
  5
64
330
17
100
AcDbEntity
  8
CAP
100
AcDbPolyline
 90
5
 70
0
 10
100.43412217173366
 20
367.4295035502298
 10
99.00544385677594
 20
368.14983560724903
 10
98.64527782826633
 20
367.4354964497702
 10
100.07395614322405
 20
366.715164392751
 10
100.43412217173366
 20
367.4295035502298
  0
LWPOLYLINE
  5
65
330
17
100
AcDbEntity
  8
CAP
100
AcDbPolyline
 90
5
 70
0
 10
116.46545228327969
 20
394.1290997919286
 10
115.17904879648935
 20
395.08050195146666
 10
114.70334771672032
 20
394.43730020807146
 10
115.98975120351065
 20
393.4858980485334
 10
116.46545228327969
 20
394.1290997919286
  0
LWPOLYLINE
  5
66
330
17
100
AcDbEntity
  8
CAP
100
AcDbPolyline
 90
5
 70
0
 10
136.778334667842
 20
417.7352138511308
 10
135.67122811839013
 20
418.8903394235951
 10
135.09366533215803
 20
418.3367861488692
 10
136.20077188160988
 20
417.1816605764049
 10
136.778334667842
 20
417.7352138511308
  0
LWPOLYLINE
  5
67
330
17
100
AcDbEntity
  8
CAP
100
AcDbPolyline
 90
5
 70
0
 10
160.78848327461722
 20
437.568981459773
 10
159.8925248674112
 20
438.89459774382993
 10
159.22971672538276
 20
438.44661854022695
 10
160.12567513258878
 20
437.12100225617
 10
160.78848327461722
 20
437.568981459773
  0
LWPOLYLINE
  5
68
330
17
100
AcDbEntity
  8
CAP
100
AcDbPolyline
 90
5
 70
0
 10
187.80520920094364
 20
453.05977377852
 10
187.1461754566178
 20
454.51774309364293
 10
186.41719079905636
 20
454.18822622148
 10
187.07622454338218
 20
452.7302569063571
 10
187.80520920094364
 20
453.05977377852
  0
LWPOLYLINE
  5
69
330
17
100
AcDbEntity
  8
CAP
100
AcDbPolyline
 90
5
 70
0
 10
217.0511803925812
 20
463.7618090322922
 10
216.64800453861756
 20
465.31017889468967
 10
215.87381960741882
 20
465.1085909677078
 10
216.27699546138246
 20
463.56022110531035
 10
217.0511803925812
 20
463.7618090322922
  0
LWPOLYLINE
  5
6A
330
17
100
AcDbEntity
  8
CAP
100
AcDbPolyline
 90
5
 70
0
 10
283.73927443340233
 20
225.70031304299025
 10
284.1533849055664
 20
224.15483172092775
 10
284.92612556659765
 20
224.36188695700977
 10
284.5120150944336
 20
225.90736827907227
 10
283.73927443340233
 20
225.70031304299025
  0
LWPOLYLINE
  5
6B
330
17
100
AcDbEntity
  8
CAP
100
AcDbPolyline
 90
5
 70
0
 10
247.68530553503348
 20
469.36730547899623
 10
247.5496122957829
 20
470.96154114062904
 10
246.7524944649665
 20
470.89369452100374
 10
246.88818770421707
 20
469.29945885937093
 10
247.68530553503348
 20
469.36730547899623
  0
LWPOLYLINE
  5
6C
330
17
100
AcDbEntity
  8
CAP
100
AcDbPolyline
 90
5
 70
0
 10
247.66202854120414
 20
499.4831319276826
 10
247.54523733313144
 20
501.0788636763537
 10
246.74737145879587
 20
501.0204680723174
 10
246.86416266686857
 20
499.4247363236463
 10
247.66202854120414
 20
499.4831319276826
  0
LWPOLYLINE
  5
6D
330
17
100
AcDbEntity
  8
CAP
100
AcDbPolyline
 90
5
 70
0
 10
216.854272801629
 20
494.6466099937444
 10
216.50638832402706
 20
496.2083322450566
 10
215.72552719837097
 20
496.03439000625565
 10
216.07341167597292
 20
494.4726677549434
 10
216.854272801629
 20
494.6466099937444
  0
LWPOLYLINE
  5
6E
330
17
100
AcDbEntity
  8
CAP
100
AcDbPolyline
 90
5
 70
0
 10
187.07908870244873
 20
485.37617679253316
 10
186.50752534450422
 20
486.8706048864391
 10
185.76031129755128
 20
486.58482320746685
 10
186.3318746554958
 20
485.09039511356093
 10
187.07908870244873
 20
485.37617679253316
  0
LWPOLYLINE
  5
6F
330
17
100
AcDbEntity
  8
CAP
100
AcDbPolyline
 90
5
 70
0
 10
158.971051189621
 20
471.86912340557984
 10
158.18799056176354
 20
473.26440690834886
 10
157.49034881037903
 20
472.8728765944201
 10
158.27340943823648
 20
471.4775930916511
 10
158.971051189621
 20
471.86912340557984
  0
LWPOLYLINE
  5
70
330
17
100
AcDbEntity
  8
CAP
100
AcDbPolyline
 90
5
 70
0
 10
133.12903472657243
 20
454.4133664096249
 10
132.15116603635659
 20
455.67976793548297
 10
131.51796527342756
 20
455.19083359037506
 10
132.4958339636434
 20
453.924432064517
 10
133.12903472657243
 20
454.4133664096249
  0
LWPOLYLINE
  5
71
330
17
100
AcDbEntity
  8
CAP
100
AcDbPolyline
 90
5
 70
0
 10
110.10405473543159
 20
433.3810093087623
 10
108.95219971173118
 20
434.4915182030879
 10
108.39694526456842
 20
433.9155906912377
 10
109.54880028826882
 20
432.80508179691213
 10
110.10405473543159
 20
433.3810093087623
  0
LWPOLYLINE
  5
72
330
17
100
AcDbEntity
  8
CAP
100
AcDbPolyline
 90
5
 70
0
 10
90.38687632599161
 20
409.22043485926383
 10
89.08560631699393
 20
410.15140014523496
 10
88.6201236740084
 20
409.5007651407361
 10
89.92139368300607
 20
408.569799854765
 10
90.38687632599161
 20
409.22043485926383
  0
LWPOLYLINE
  5
73
330
17
100
AcDbEntity
  8
CAP
100
AcDbPolyline
 90
5
 70
0
 10
74.39747070148195
 20
382.44644772012487
 10
72.97451940301094
 20
383.17802792911067
 10
72.60872929851806
 20
382.46655227987515
 10
74.03168059698906
 20
381.73497207088934
 10
74.39747070148195
 20
382.44644772012487
  0
LWPOLYLINE
  5
74
330
17
100
AcDbEntity
  8
CAP
100
AcDbPolyline
 90
5
 70
0
 10
62.47680354107488
 20
353.6296748231266
 10
60.962498016853814
 20
354.146277938984
 10
60.70419645892512
 20
353.38912517687345
 10
62.21850198314618
 20
352.87252206101607
 10
62.47680354107488
 20
353.6296748231266
  0
LWPOLYLINE
  5
75
330
17
100
AcDbEntity
  8
CAP
100
AcDbPolyline
 90
5
 70
0
 10
250.8175849055664
 20
224.63916827907227
 10
250.40347443340238
 20
223.09368695700977
 10
251.17621509443362
 20
222.88663172092774
 10
251.59032556659764
 20
224.43211304299024
 10
250.8175849055664
 20
224.63916827907227
  0
LWPOLYLINE
  5
76
330
17
100
AcDbEntity
  8
CAP
100
AcDbPolyline
 90
5
 70
0
 10
54.87904677847467
 20
323.38423853395227
 10
53.305661105753344
 20
323.67485430240833
 10
53.160353221525334
 20
322.8881614660477
 10
54.733738894246656
 20
322.5975456975916
 10
54.87904677847467
 20
323.38423853395227
  0
LWPOLYLINE
  5
77
330
17
100
AcDbEntity
  8
CAP
100
AcDbPolyline
 90
5
 70
0
 10
51.76597493753045
 20
292.3550158513273
 10
50.16704235641989
 20
292.41345043922803
 10
50.13782506246955
 20
291.6139841486727
 10
51.73675764358011
 20
291.555549560772
 10
51.76597493753045
 20
292.3550158513273
  0
LWPOLYLINE
  5
78
330
17
100
AcDbEntity
  8
CAP
100
AcDbPolyline
 90
5
 70
0
 10
53.20395288752951
 20
261.2031964417758
 10
51.613551114061636
 20
261.02820444495813
 10
51.70104711247049
 20
260.2330035582242
 10
53.291448885938365
 20
260.40799555504185
 10
53.20395288752951
 20
261.2031964417758
  0
LWPOLYLINE
  5
79
330
17
100
AcDbEntity
  8
CAP
100
AcDbPolyline
 90
5
 70
0
 10
59.16221527913973
 20
230.59273827311327
 10
57.61424021402555
 20
230.18804925944383
 10
57.81658472086028
 20
229.41406172688673
 10
59.36455978597446
 20
229.81875074055617
 10
59.16221527913973
 20
230.59273827311327
  0
LWPOLYLINE
  5
7A
330
17
100
AcDbEntity
  8
CAP
100
AcDbPolyline
 90
5
 70
0
 10
69.51413809927874
 20
201.17591966096788
 10
68.04158141165844
 20
200.55015868284227
 10
68.35446190072125
 20
199.81388033903212
 10
69.82701858834155
 20
200.43964131715774
 10
69.51413809927874
 20
201.17591966096788
  0
LWPOLYLINE
  5
7B
330
17
100
AcDbEntity
  8
CAP
100
AcDbPolyline
 90
5
 70
0
 10
84.03870295115496
 20
173.57988661907555
 10
82.67294893404657
 20
172.74639038947862
 10
83.08969704884504
 20
172.06351338092443
 10
84.45545106595343
 20
172.89700961052137
 10
84.03870295115496
 20
173.57988661907555
  0
LWPOLYLINE
  5
7C
330
17
100
AcDbEntity
  8
CAP
100
AcDbPolyline
 90
5
 70
0
 10
102.42655482077238
 20
148.39279450418084
 10
101.19671150419188
 20
147.36932715410938
 10
101.70844517922761
 20
146.75440549581916
 10
102.93828849580811
 20
147.7778728458906
 10
102.42655482077238
 20
148.39279450418084
  0
LWPOLYLINE
  5
7D
330
17
100
AcDbEntity
  8
CAP
100
AcDbPolyline
 90
5
 70
0
 10
124.28573917226991
 20
126.15124718602183
 10
123.2180387478206
 20
124.95960302620283
 10
123.8138608277301
 20
124.42575281397816
 10
124.88156125217941
 20
125.61739697379717
 10
124.28573917226991
 20
126.15124718602183
  0
LWPOLYLINE
  5
7E
330
17
100
AcDbEntity
  8
CAP
100
AcDbPolyline
 90
5
 70
0
 10
149.15040929918024
 20
107.32960605077916
 10
148.2675895798685
 20
105.9952038088767
 10
148.93479070081975
 20
105.55379394922083
 10
149.81761042013147
 20
106.8881961911233
 10
149.15040929918024
 20
107.32960605077916
  0
LWPOLYLINE
  5
7F
330
17
100
AcDbEntity
  8
CAP
100
AcDbPolyline
 90
5
 70
0
 10
176.49058170902205
 20
92.32874115938885
 10
175.81145804707572
 20
90.88002067158433
 10
176.53581829097797
 20
90.54045884061115
 10
177.2149419529243
 20
91.98917932841567
 10
176.49058170902205
 20
92.32874115938885
  0
LWPOLYLINE
  5
80
330
17
100
AcDbEntity
  8
CAP
100
AcDbPolyline
 90
5
 70
0
 10
221.77584271247463
 20
240.18102813742388
 10
220.64447186257613
 20
239.04965728752538
 10
221.21015728752536
 20
238.48397186257614
 10
222.34152813742386
 20
239.61534271247464
 10
221.77584271247463
 20
240.18102813742388
  0
LWPOLYLINE
  5
81
330
17
100
AcDbEntity
  8
CAP
100
AcDbPolyline
 90
5
 70
0
 10
205.72343617777375
 20
81.46851962428379
 10
205.26248259390871
 20
79.93635716764872
 10
206.02856382222626
 20
79.7058803757162
 10
206.4895174060913
 20
81.23804283235127
 10
205.72343617777375
 20
81.46851962428379
  0
LWPOLYLINE
  5
82
330
17
100
AcDbEntity
  8
CAP
100
AcDbPolyline
 90
5
 70
0
 10
236.226142207393
 20
74.98041470816285
 10
235.99318290903395
 20
73.3974649410167
 10
236.78465779260702
 20
73.28098529183715
 10
237.01761709096607
 20
74.86393505898332
 10
236.226142207393
 20
74.98041470816285
  0
LWPOLYLINE
  5
83
330
17
100
AcDbEntity
  8
CAP
100
AcDbPolyline
 90
5
 70
0
 10
267.3483
 20
73.0026
 10
267.3483
 20
71.4026
 10
268.14829999999995
 20
71.4026
 10
268.14829999999995
 20
73.0026
 10
267.3483
 20
73.0026
  0
LWPOLYLINE
  5
84
330
17
100
AcDbEntity
  8
CAP
100
AcDbPolyline
 90
5
 70
0
 10
298.42678290903393
 20
75.57733505898331
 10
298.65974220739304
 20
73.99438529183715
 10
299.4512170909661
 20
74.11086494101669
 10
299.218257792607
 20
75.69381470816285
 10
298.42678290903393
 20
75.57733505898331
  0
LWPOLYLINE
  5
85
330
17
100
AcDbEntity
  8
CAP
100
AcDbPolyline
 90
5
 70
0
 10
328.79928259390874
 20
82.64974283235128
 10
329.2602361777738
 20
81.11758037571622
 10
330.02631740609127
 20
81.34805716764873
 10
329.56536382222623
 20
82.8802196242838
 10
328.79928259390874
 20
82.64974283235128
  0
LWPOLYLINE
  5
86
330
17
100
AcDbEntity
  8
CAP
100
AcDbPolyline
 90
5
 70
0
 10
357.8183580470757
 20
94.06897932841567
 10
358.49748170902205
 20
92.62025884061114
 10
359.2218419529243
 20
92.95982067158432
 10
358.542718290978
 20
94.40854115938885
 10
357.8183580470757
 20
94.06897932841567
  0
LWPOLYLINE
  5
87
330
17
100
AcDbEntity
  8
CAP
100
AcDbPolyline
 90
5
 70
0
 10
384.8655895798685
 20
109.59179619112331
 10
385.74840929918025
 20
108.25739394922084
 10
386.4156104201315
 20
108.6988038088767
 10
385.53279070081976
 20
110.03320605077917
 10
384.8655895798685
 20
109.59179619112331
  0
LWPOLYLINE
  5
88
330
17
100
AcDbEntity
  8
CAP
100
AcDbPolyline
 90
5
 70
0
 10
409.36433874782057
 20
128.8871969737972
 10
410.4320391722699
 20
127.69555281397817
 10
411.02786125217943
 20
128.22940302620282
 10
409.9601608277301
 20
129.42104718602184
 10
409.36433874782057
 20
128.8871969737972
  0
LWPOLYLINE
  5
89
330
17
100
AcDbEntity
  8
CAP
100
AcDbPolyline
 90
5
 70
0
 10
430.7927115041919
 20
151.54427284589062
 10
432.02255482077237
 20
150.52080549581916
 10
432.5342884958081
 20
151.1357271541094
 10
431.3044451792276
 20
152.15919450418085
 10
430.7927115041919
 20
151.54427284589062
  0
LWPOLYLINE
  5
8A
330
17
100
AcDbEntity
  8
CAP
100
AcDbPolyline
 90
5
 70
0
 10
448.69364893404656
 20
177.07960961052137
 10
450.05940295115494
 20
176.24611338092444
 10
450.47615106595345
 20
176.92899038947863
 10
449.1103970488451
 20
177.76248661907556
 10
448.69364893404656
 20
177.07960961052137
  0
LWPOLYLINE
  5
8B
330
17
100
AcDbEntity
  8
CAP
100
AcDbPolyline
 90
5
 70
0
 10
204.39591304299023
 20
268.16162556659765
 10
202.85043172092773
 20
267.7475150944336
 10
203.05748695700976
 20
266.97477443340233
 10
204.60296827907226
 20
267.3888849055664
 10
204.39591304299023
 20
268.16162556659765
  0
LWPOLYLINE
  5
8C
330
17
100
AcDbEntity
  8
CAP
100
AcDbPolyline
 90
5
 70
0
 10
462.6859814116585
 20
204.94934131715775
 10
464.15853809927876
 20
204.32358033903213
 10
464.4714185883416
 20
205.05985868284228
 10
462.9988619007213
 20
205.6856196609679
 10
462.6859814116585
 20
204.94934131715775
  0
LWPOLYLINE
  5
8D
330
17
100
AcDbEntity
  8
CAP
100
AcDbPolyline
 90
5
 70
0
 10
472.47134021402553
 20
234.55935074055617
 10
474.01931527913973
 20
234.15466172688673
 10
474.22165978597445
 20
234.92864925944383
 10
472.67368472086025
 20
235.33333827311327
 10
472.47134021402553
 20
234.55935074055617
  0
LWPOLYLINE
  5
8E
330
17
100
AcDbEntity
  8
CAP
100
AcDbPolyline
 90
5
 70
0
 10
477.84115111406163
 20
265.2785955550419
 10
479.4315528875295
 20
265.1036035582242
 10
479.51904888593833
 20
265.89880444495816
 10
477.92864711247046
 20
266.0737964417758
 10
477.84115111406163
 20
265.2785955550419
  0
LWPOLYLINE
  5
8F
330
17
100
AcDbEntity
  8
CAP
100
AcDbPolyline
 90
5
 70
0
 10
478.6809423564199
 20
296.452349560772
 10
480.27987493753045
 20
296.5107841486727
 10
480.2506576435801
 20
297.310250439228
 10
478.65172506246955
 20
297.2518158513273
 10
478.6809423564199
 20
296.452349560772
  0
LWPOLYLINE
  5
90
330
17
100
AcDbEntity
  8
CAP
100
AcDbPolyline
 90
5
 70
0
 10
474.97286110575334
 20
327.41604569759164
 10
476.54624677847465
 20
327.7066614660477
 10
476.4009388942466
 20
328.49335430240836
 10
474.8275532215253
 20
328.2027385339523
 10
474.97286110575334
 20
327.41604569759164
  0
LWPOLYLINE
  5
91
330
17
100
AcDbEntity
  8
CAP
100
AcDbPolyline
 90
5
 70
0
 10
466.7959980168538
 20
357.51002206101606
 10
468.31030354107486
 20
358.02662517687344
 10
468.05200198314617
 20
358.783777938984
 10
466.5376964589251
 20
358.2671748231266
 10
466.7959980168538
 20
357.51002206101606
  0
LWPOLYLINE
  5
92
330
17
100
AcDbEntity
  8
CAP
100
AcDbPolyline
 90
5
 70
0
 10
454.32441940301095
 20
386.09267207088936
 10
455.74737070148194
 20
386.82425227987517
 10
455.38158059698907
 20
387.5357279291107
 10
453.9586292985181
 20
386.8041477201249
 10
454.32441940301095
 20
386.09267207088936
  0
LWPOLYLINE
  5
93
330
17
100
AcDbEntity
  8
CAP
100
AcDbPolyline
 90
5
 70
0
 10
437.8242063169939
 20
412.55489985476504
 10
439.1254763259916
 20
413.48586514073617
 10
438.65999368300606
 20
414.136500145235
 10
437.3587236740084
 20
413.2055348592639
 10
437.8242063169939
 20
412.55489985476504
  0
LWPOLYLINE
  5
94
330
17
100
AcDbEntity
  8
CAP
100
AcDbPolyline
 90
5
 70
0
 10
417.6467997117312
 20
436.33268179691214
 10
418.7986547354316
 20
437.4431906912377
 10
418.24340028826884
 20
438.0191182030879
 10
417.0915452645684
 20
436.9086093087623
 10
417.6467997117312
 20
436.33268179691214
  0
LWPOLYLINE
  5
95
330
17
100
AcDbEntity
  8
CAP
100
AcDbPolyline
 90
5
 70
0
 10
394.22246603635654
 20
456.919232064517
 10
395.2003347265724
 20
458.18563359037506
 10
394.5671339636434
 20
458.67456793548297
 10
393.58926527342754
 20
457.4081664096249
 10
394.22246603635654
 20
456.919232064517
  0
LWPOLYLINE
  5
96
330
17
100
AcDbEntity
  8
CAP
100
AcDbPolyline
 90
5
 70
0
 10
203.33476827907225
 20
301.0833150944336
 10
201.78928695700975
 20
301.49742556659766
 10
201.58223172092772
 20
300.7246849055664
 10
203.12771304299022
 20
300.31057443340234
 10
203.33476827907225
 20
301.0833150944336
  0
LWPOLYLINE
  5
97
330
17
100
AcDbEntity
  8
CAP
100
AcDbPolyline
 90
5
 70
0
 10
368.05019056176354
 20
473.8756930916511
 10
368.83325118962097
 20
475.2709765944201
 10
368.13560943823643
 20
475.66250690834886
 10
367.352548810379
 20
474.26722340557984
 10
368.05019056176354
 20
473.8756930916511
  0
LWPOLYLINE
  5
98
330
17
100
AcDbEntity
  8
CAP
100
AcDbPolyline
 90
5
 70
0
 10
339.6881253445042
 20
486.84079511356094
 10
340.2596887024487
 20
488.33522320746687
 10
339.5124746554958
 20
488.6210048864391
 10
338.9409112975513
 20
487.12657679253317
 10
339.6881253445042
 20
486.84079511356094
  0
LWPOLYLINE
  5
99
330
17
100
AcDbEntity
  8
CAP
100
AcDbPolyline
 90
5
 70
0
 10
309.7403883240271
 20
495.53806775494337
 10
310.08827280162905
 20
497.0997900062556
 10
309.30741167597296
 20
497.2737322450566
 10
308.959527198371
 20
495.71200999374435
 10
309.7403883240271
 20
495.53806775494337
  0
LWPOLYLINE
  5
9A
330
17
100
AcDbEntity
  8
CAP
100
AcDbPolyline
 90
5
 70
0
 10
278.8455373331314
 20
499.7824363236463
 10
278.9623285412041
 20
501.3781680723174
 10
278.1644626668686
 20
501.4365636763537
 10
278.0476714587959
 20
499.84083192768264
 10
278.8455373331314
 20
499.7824363236463
  0
LWPOLYLINE
  5
9B
330
17
100
AcDbEntity
  8
CAP
100
AcDbPolyline
 90
5
 70
0
 10
218.87672813742387
 20
330.12505728752535
 10
217.74535728752537
 20
331.2564281374238
 10
217.17967186257613
 20
330.6907427124746
 10
218.31104271247463
 20
329.55937186257614
 10
218.87672813742387
 20
330.12505728752535
  0
LWPOLYLINE
  5
9C
330
17
100
AcDbEntity
  8
CAP
100
AcDbPolyline
 90
5
 70
0
 10
246.85732556659764
 20
347.5048869570098
 10
246.4432150944336
 20
349.05036827907225
 10
245.67047443340238
 20
348.84331304299025
 10
246.0845849055664
 20
347.2978317209278
 10
246.85732556659764
 20
347.5048869570098
  0
LWPOLYLINE
  5
9D
330
17
100
AcDbEntity
  8
CAP
100
AcDbPolyline
 90
5
 70
0
 10
246.72291016151377
 20
314.67607967697245
 10
245.92291016151376
 20
316.06172032302754
 10
245.2300898384862
 20
315.66172032302757
 10
246.03008983848622
 20
314.2760796769725
 10
246.72291016151377
 20
314.67607967697245
  0
LWPOLYLINE
  5
9E
330
17
100
AcDbEntity
  8
CAP
100
AcDbPolyline
 90
5
 70
0
 10
247.02604164333843
 20
378.424613068657
 10
246.74820455907135
 20
380.0003054734765
 10
245.96035835666157
 20
379.86138693134296
 10
246.23819544092865
 20
378.28569452652346
 10
247.02604164333843
 20
378.424613068657
  0
LWPOLYLINE
  5
9F
330
17
100
AcDbEntity
  8
CAP
100
AcDbPolyline
 90
5
 70
0
 10
216.72291016151377
 20
366.63757967697245
 10
215.92291016151376
 20
368.02322032302754
 10
215.2300898384862
 20
367.62322032302757
 10
216.03008983848622
 20
366.2375796769725
 10
216.72291016151377
 20
366.63757967697245
  0
LWPOLYLINE
  5
A0
330
17
100
AcDbEntity
  8
CAP
100
AcDbPolyline
 90
5
 70
0
 10
192.2788505983698
 20
345.1971876894983
 10
191.05317948937943
 20
346.2256478649968
 10
190.5389494016302
 20
345.6128123105016
 10
191.76462051062055
 20
344.58435213500314
 10
192.2788505983698
 20
345.1971876894983
  0
LWPOLYLINE
  5
A1
330
17
100
AcDbEntity
  8
CAP
100
AcDbPolyline
 90
5
 70
0
 10
176.64196215395899
 20
316.6892609336538
 10
175.13845396070155
 20
317.2364931629749
 10
174.864837846041
 20
316.48473906634615
 10
176.36834603929844
 20
315.93750683702507
 10
176.64196215395899
 20
316.6892609336538
  0
LWPOLYLINE
  5
A2
330
17
100
AcDbEntity
  8
CAP
100
AcDbPolyline
 90
5
 70
0
 10
171.69830000000002
 20
284.5526
 10
170.0983
 20
284.5526
 10
170.0983
 20
283.75260000000003
 10
171.69830000000002
 20
283.75260000000003
 10
171.69830000000002
 20
284.5526
  0
LWPOLYLINE
  5
A3
330
17
100
AcDbEntity
  8
CAP
100
AcDbPolyline
 90
5
 70
0
 10
178.04424603929846
 20
252.6631931629749
 10
176.54073784604103
 20
252.11596093365384
 10
176.81435396070157
 20
251.3642068370251
 10
178.317862153959
 20
251.91143906634616
 10
178.04424603929846
 20
252.6631931629749
  0
LWPOLYLINE
  5
A4
330
17
100
AcDbEntity
  8
CAP
100
AcDbPolyline
 90
5
 70
0
 10
194.91422051062057
 20
224.86724786499684
 10
193.6885494016302
 20
223.83878768949836
 10
194.20277948937945
 20
223.22595213500318
 10
195.4284505983698
 20
224.25441231050166
 10
194.91422051062057
 20
224.86724786499684
  0
LWPOLYLINE
  5
A5
330
17
100
AcDbEntity
  8
CAP
100
AcDbPolyline
 90
5
 70
0
 10
220.27368983848623
 20
204.51762032302756
 10
219.47368983848622
 20
203.13197967697243
 10
220.16651016151377
 20
202.73197967697243
 10
220.96651016151378
 20
204.11762032302755
 10
220.27368983848623
 20
204.51762032302756
  0
LWPOLYLINE
  5
A6
330
17
100
AcDbEntity
  8
CAP
100
AcDbPolyline
 90
5
 70
0
 10
251.06369544092865
 20
194.06860547347654
 10
250.78585835666158
 20
192.492913068657
 10
251.57370455907136
 20
192.35399452652345
 10
251.85154164333844
 20
193.92968693134299
 10
251.06369544092865
 20
194.06860547347654
  0
LWPOLYLINE
  5
A7
330
17
100
AcDbEntity
  8
CAP
100
AcDbPolyline
 90
5
 70
0
 10
283.5705583566616
 20
194.78058693134298
 10
283.8483954409287
 20
193.20489452652345
 10
284.63624164333845
 20
193.343813068657
 10
284.35840455907135
 20
194.91950547347653
 10
283.5705583566616
 20
194.78058693134298
  0
LWPOLYLINE
  5
A8
330
17
100
AcDbEntity
  8
CAP
100
AcDbPolyline
 90
5
 70
0
 10
231.69830000000002
 20
284.5526
 10
230.0983
 20
284.5526
 10
230.0983
 20
283.75260000000003
 10
231.69830000000002
 20
283.75260000000003
 10
231.69830000000002
 20
284.5526
  0
LWPOLYLINE
  5
A9
330
17
100
AcDbEntity
  8
CAP
100
AcDbPolyline
 90
5
 70
0
 10
313.8736898384862
 20
206.56762032302757
 10
314.6736898384862
 20
205.18197967697245
 10
315.36651016151376
 20
205.58197967697245
 10
314.56651016151375
 20
206.96762032302757
 10
313.8736898384862
 20
206.56762032302757
  0
LWPOLYLINE
  5
AA
330
17
100
AcDbEntity
  8
CAP
100
AcDbPolyline
 90
5
 70
0
 10
338.3177494016302
 20
228.00801231050164
 10
339.5434205106206
 20
226.97955213500316
 10
340.05765059836983
 20
227.59238768949834
 10
338.8319794893794
 20
228.62084786499682
 10
338.3177494016302
 20
228.00801231050164
  0
LWPOLYLINE
  5
AB
330
17
100
AcDbEntity
  8
CAP
100
AcDbPolyline
 90
5
 70
0
 10
353.954637846041
 20
256.51593906634616
 10
355.45814603929847
 20
255.9687068370251
 10
355.73176215395904
 20
256.72046093365384
 10
354.2282539607016
 20
257.2676931629749
 10
353.954637846041
 20
256.51593906634616
  0
LWPOLYLINE
  5
AC
330
17
100
AcDbEntity
  8
CAP
100
AcDbPolyline
 90
5
 70
0
 10
358.8983
 20
288.6526
 10
360.49830000000003
 20
288.6526
 10
360.49830000000003
 20
289.45259999999996
 10
358.8983
 20
289.45259999999996
 10
358.8983
 20
288.6526
  0
LWPOLYLINE
  5
AD
330
17
100
AcDbEntity
  8
CAP
100
AcDbPolyline
 90
5
 70
0
 10
352.55235396070157
 20
320.5420068370251
 10
354.055862153959
 20
321.0892390663462
 10
353.78224603929846
 20
321.84099316297494
 10
352.278737846041
 20
321.29376093365386
 10
352.55235396070157
 20
320.5420068370251
  0
LWPOLYLINE
  5
AE
330
17
100
AcDbEntity
  8
CAP
100
AcDbPolyline
 90
5
 70
0
 10
335.6823794893794
 20
348.33795213500315
 10
336.9080505983698
 20
349.36641231050163
 10
336.39382051062057
 20
349.9792478649968
 10
335.16814940163016
 20
348.9507876894983
 10
335.6823794893794
 20
348.33795213500315
  0
LWPOLYLINE
  5
AF
330
17
100
AcDbEntity
  8
CAP
100
AcDbPolyline
 90
5
 70
0
 10
310.3229101615138
 20
368.68757967697246
 10
311.1229101615138
 20
370.07322032302756
 10
310.43008983848625
 20
370.47322032302753
 10
309.63008983848624
 20
369.08757967697244
 10
310.3229101615138
 20
368.68757967697246
  0
LWPOLYLINE
  5
B0
330
17
100
AcDbEntity
  8
CAP
100
AcDbPolyline
 90
5
 70
0
 10
279.5329045590713
 20
379.1365945265235
 10
279.8107416433384
 20
380.712286931343
 10
279.02289544092866
 20
380.8512054734765
 10
278.74505835666156
 20
379.275513068657
 10
279.5329045590713
 20
379.1365945265235
  0
LWPOLYLINE
  5
B1
330
17
100
AcDbEntity
  8
CAP
100
AcDbPolyline
 90
5
 70
0
 10
278.75567929367435
 20
409.4849749455227
 10
278.9562124673772
 20
411.07235846762586
 10
278.1625207063256
 20
411.1726250544773
 10
277.96198753262274
 20
409.58524153237414
 10
278.75567929367435
 20
409.4849749455227
  0
LWPOLYLINE
  5
B2
330
17
100
AcDbEntity
  8
CAP
100
AcDbPolyline
 90
5
 70
0
 10
308.89241095220757
 20
402.27762899021553
 10
309.48141023650305
 20
403.76527136763673
 10
308.7375890477924
 20
404.05977100978447
 10
308.14858976349694
 20
402.5721286323633
 10
308.89241095220757
 20
402.27762899021553
  0
LWPOLYLINE
  5
B3
330
17
100
AcDbEntity
  8
CAP
100
AcDbPolyline
 90
5
 70
0
 10
250.27368983848623
 20
256.47912032302753
 10
249.47368983848622
 20
255.09347967697244
 10
250.16651016151377
 20
254.69347967697243
 10
250.96651016151378
 20
256.07912032302755
 10
250.27368983848623
 20
256.47912032302753
  0
LWPOLYLINE
  5
B4
330
17
100
AcDbEntity
  8
CAP
100
AcDbPolyline
 90
5
 70
0
 10
336.290078595916
 20
387.80197230358306
 10
337.23053499958394
 20
389.09639949458295
 10
336.58332140408396
 20
389.56662769641696
 10
335.642865000416
 20
388.27220050541706
 10
336.290078595916
 20
387.80197230358306
  0
LWPOLYLINE
  5
B5
330
17
100
AcDbEntity
  8
CAP
100
AcDbPolyline
 90
5
 70
0
 10
359.22705900167887
 20
366.9677555110908
 10
360.45988019012015
 20
367.98763389468866
 10
359.94994099832115
 20
368.60404448890927
 10
358.7171198098799
 20
367.5841661053114
 10
359.22705900167887
 20
366.9677555110908
  0
LWPOLYLINE
  5
B6
330
17
100
AcDbEntity
  8
CAP
100
AcDbPolyline
 90
5
 70
0
 10
376.26205007465325
 20
341.08384574576155
 10
377.70977335859885
 20
341.7650926122657
 10
377.3691499253468
 20
342.4889542542385
 10
375.9214266414012
 20
341.80770738773435
 10
376.26205007465325
 20
341.08384574576155
  0
LWPOLYLINE
  5
B7
330
17
100
AcDbEntity
  8
CAP
100
AcDbPolyline
 90
5
 70
0
 10
386.3249227252513
 20
311.77668004803996
 10
387.8965823264172
 20
312.07649015137713
 10
387.74667727474866
 20
312.86231995196005
 10
386.1750176735828
 20
312.5625098486229
 10
386.3249227252513
 20
311.77668004803996
  0
LWPOLYLINE
  5
B8
330
17
100
AcDbEntity
  8
CAP
100
AcDbPolyline
 90
5
 70
0
 10
388.78316240944565
 20
280.88762172425214
 10
390.3800051749309
 20
280.78715689300526
 10
390.4302375905543
 20
281.5855782757479
 10
388.8333948250691
 20
281.68604310699476
 10
388.78316240944565
 20
280.88762172425214
  0
LWPOLYLINE
  5
B9
330
17
100
AcDbEntity
  8
CAP
100
AcDbPolyline
 90
5
 70
0
 10
383.4823479892139
 20
250.35779098898192
 10
385.0040384152862
 20
249.863363797982
 10
385.2512520107861
 20
250.6242090110181
 10
383.72956158471385
 20
251.11863620201802
 10
383.4823479892139
 20
250.35779098898192
  0
LWPOLYLINE
  5
BA
330
17
100
AcDbEntity
  8
CAP
100
AcDbPolyline
 90
5
 70
0
 10
370.7556069416068
 20
222.10533026578238
 10
372.10653162241
 20
221.24800739381598
 10
372.5351930583932
 20
221.9234697342176
 10
371.18426837759
 20
222.780792606184
 10
370.7556069416068
 20
222.10533026578238
  0
LWPOLYLINE
  5
BB
330
17
100
AcDbEntity
  8
CAP
100
AcDbPolyline
 90
5
 70
0
 10
351.4027748642885
 20
197.90545605956567
 10
352.4980502337744
 20
196.7391062556914
 10
353.0812251357115
 20
197.28674394043435
 10
351.98594976622564
 20
198.4530937443086
 10
351.4027748642885
 20
197.90545605956567
  0
LWPOLYLINE
  5
BC
330
17
100
AcDbEntity
  8
CAP
100
AcDbPolyline
 90
5
 70
0
 10
326.6394743887011
 20
179.2786438743944
 10
327.41028026726383
 20
177.8765531863242
 10
328.1113256112989
 20
178.2619561256056
 10
327.3405197327362
 20
179.66404681367578
 10
326.6394743887011
 20
179.2786438743944
  0
LWPOLYLINE
  5
BD
330
17
100
AcDbEntity
  8
CAP
100
AcDbPolyline
 90
5
 70
0
 10
298.02201482581665
 20
167.39549057403696
 10
298.41991864528046
 20
165.84575751623115
 10
299.1947851741834
 20
166.04470942596305
 10
298.7968813547196
 20
167.59444248376886
 10
298.02201482581665
 20
167.39549057403696
  0
LWPOLYLINE
  5
BE
330
17
100
AcDbEntity
  8
CAP
100
AcDbPolyline
 90
5
 70
0
 10
283.8736898384862
 20
258.52912032302754
 10
284.6736898384862
 20
257.14347967697245
 10
285.36651016151376
 20
257.5434796769724
 10
284.56651016151375
 20
258.9291203230275
 10
283.8736898384862
 20
258.52912032302754
  0
LWPOLYLINE
  5
BF
330
17
100
AcDbEntity
  8
CAP
100
AcDbPolyline
 90
5
 70
0
 10
267.3483
 20
163.0026
 10
267.3483
 20
161.40259999999998
 10
268.14829999999995
 20
161.40259999999998
 10
268.14829999999995
 20
163.0026
 10
267.3483
 20
163.0026
  0
LWPOLYLINE
  5
C0
330
17
100
AcDbEntity
  8
CAP
100
AcDbPolyline
 90
5
 70
0
 10
236.54581864528043
 20
166.37584248376885
 10
236.14791482581666
 20
164.82610942596304
 10
236.92278135471955
 20
164.62715751623114
 10
237.32068517418332
 20
166.17689057403695
 10
236.54581864528043
 20
166.37584248376885
  0
LWPOLYLINE
  5
C1
330
17
100
AcDbEntity
  8
CAP
100
AcDbPolyline
 90
5
 70
0
 10
207.5499802672638
 20
177.30354681367578
 10
206.77917438870108
 20
175.9014561256056
 10
207.48021973273617
 20
175.5160531863242
 10
208.2510256112989
 20
176.9181438743944
 10
207.5499802672638
 20
177.30354681367578
  0
LWPOLYLINE
  5
C2
330
17
100
AcDbEntity
  8
CAP
100
AcDbPolyline
 90
5
 70
0
 10
182.18265023377438
 20
195.0987937443086
 10
181.0873748642885
 20
193.93244394043435
 10
181.67054976622563
 20
193.38480625569142
 10
182.7658251357115
 20
194.55115605956567
 10
182.18265023377438
 20
195.0987937443086
  0
LWPOLYLINE
  5
C3
330
17
100
AcDbEntity
  8
CAP
100
AcDbPolyline
 90
5
 70
0
 10
162.03773162241004
 20
218.643592606184
 10
160.6868069416068
 20
217.7862697342176
 10
161.11546837759
 20
217.11080739381597
 10
162.46639305839324
 20
217.96813026578238
 10
162.03773162241004
 20
218.643592606184
  0
LWPOLYLINE
  5
C4
330
17
100
AcDbEntity
  8
CAP
100
AcDbPolyline
 90
5
 70
0
 10
148.38113841528613
 20
246.45843620201802
 10
146.8594479892139
 20
245.9640090110181
 10
147.10666158471386
 20
245.203163797982
 10
148.6283520107861
 20
245.69759098898191
 10
148.38113841528613
 20
246.45843620201802
  0
LWPOLYLINE
  5
C5
330
17
100
AcDbEntity
  8
CAP
100
AcDbPolyline
 90
5
 70
0
 10
142.07090517493089
 20
276.79574310699473
 10
140.47406240944565
 20
276.69527827574785
 10
140.5242948250691
 20
275.89685689300524
 10
142.12113759055433
 20
275.9973217242521
 10
142.07090517493089
 20
276.79574310699473
  0
LWPOLYLINE
  5
C6
330
17
100
AcDbEntity
  8
CAP
100
AcDbPolyline
 90
5
 70
0
 10
143.50348232641724
 20
307.7493098486229
 10
141.93182272525132
 20
308.04911995196005
 10
141.78191767358274
 20
307.26329015137713
 10
143.35357727474866
 20
306.96348004803997
 10
143.50348232641724
 20
307.7493098486229
  0
LWPOLYLINE
  5
C7
330
17
100
AcDbEntity
  8
CAP
100
AcDbPolyline
 90
5
 70
0
 10
152.58887335859885
 20
337.37400738773437
 10
151.1411500746532
 20
338.0552542542385
 10
150.80052664140118
 20
337.3313926122657
 10
152.2482499253468
 20
336.65014574576156
 10
152.58887335859885
 20
337.37400738773437
  0
LWPOLYLINE
  5
C8
330
17
100
AcDbEntity
  8
CAP
100
AcDbPolyline
 90
5
 70
0
 10
168.75618019012012
 20
363.8086661053114
 10
167.52335900167887
 20
364.82854448890924
 10
167.0134198098799
 20
364.21213389468863
 10
168.24624099832116
 20
363.19225551109076
 10
168.75618019012012
 20
363.8086661053114
  0
LWPOLYLINE
  5
C9
330
17
100
AcDbEntity
  8
CAP
100
AcDbPolyline
 90
5
 70
0
 10
298.8983
 20
288.6526
 10
300.49830000000003
 20
288.6526
 10
300.49830000000003
 20
289.45259999999996
 10
298.8983
 20
289.45259999999996
 10
298.8983
 20
288.6526
  0
LWPOLYLINE
  5
CA
330
17
100
AcDbEntity
  8
CAP
100
AcDbPolyline
 90
5
 70
0
 10
190.98963499958396
 20
385.39210050541703
 10
190.049178595916
 20
386.68652769641693
 10
189.40196500041603
 20
386.2162994945829
 10
190.34242140408398
 20
384.92187230358303
 10
190.98963499958396
 20
385.39210050541703
  0
LWPOLYLINE
  5
CB
330
17
100
AcDbEntity
  8
CAP
100
AcDbPolyline
 90
5
 70
0
 10
217.89211023650304
 20
400.76832863236325
 10
217.30311095220756
 20
402.25597100978445
 10
216.55928976349693
 20
401.9614713676367
 10
217.14828904779242
 20
400.4738289902155
 10
217.89211023650304
 20
400.76832863236325
  0
LWPOLYLINE
  5
CC
330
17
100
AcDbEntity
  8
CAP
100
AcDbPolyline
 90
5
 70
0
 10
247.77331246737722
 20
408.97104153237416
 10
247.57277929367433
 20
410.5584250544773
 10
246.77908753262275
 20
410.4581584676259
 10
246.97962070632565
 20
408.8707749455227
 10
247.77331246737722
 20
408.97104153237416
  0
LWPOLYLINE
  5
CD
330
17
100
AcDbEntity
  8
CAP
100
AcDbPolyline
 90
5
 70
0
 10
247.7193764325475
 20
439.2071680954907
 10
247.55751966407894
 20
440.7989602887436
 10
246.7616235674525
 20
440.7180319045093
 10
246.92348033592106
 20
439.1262397112564
 10
247.7193764325475
 20
439.2071680954907
  0
LWPOLYLINE
  5
CE
330
17
100
AcDbEntity
  8
CAP
100
AcDbPolyline
 90
5
 70
0
 10
217.3601422152548
 20
432.5447299972588
 10
216.88117067304012
 20
434.0713557738486
 10
216.1178577847452
 20
433.83187000274125
 10
216.5968293269599
 20
432.30524422615144
 10
217.3601422152548
 20
432.5447299972588
  0
LWPOLYLINE
  5
CF
330
17
100
AcDbEntity
  8
CAP
100
AcDbPolyline
 90
5
 70
0
 10
188.96347794031135
 20
419.9074401681833
 10
188.18700110126656
 20
421.3063982513391
 10
187.48752205968867
 20
420.9181598318167
 10
188.26399889873346
 20
419.5192017486609
 10
188.96347794031135
 20
419.9074401681833
  0
LWPOLYLINE
  5
D0
330
17
100
AcDbEntity
  8
CAP
100
AcDbPolyline
 90
5
 70
0
 10
163.6920002599574
 20
401.81254017364466
 10
162.64980770510985
 20
403.0265561037791
 10
162.0427997400426
 20
402.5054598263553
 10
163.08499229489016
 20
401.29144389622087
 10
163.6920002599574
 20
401.81254017364466
  0
LWPOLYLINE
  5
D1
330
17
100
AcDbEntity
  8
CAP
100
AcDbPolyline
 90
5
 70
0
 10
142.5802627873457
 20
379.0010245206972
 10
141.31502271103483
 20
379.98039551745825
 10
140.8253372126543
 20
379.3477754793028
 10
142.09057728896516
 20
378.36840448254173
 10
142.5802627873457
 20
379.0010245206972
  0
LWPOLYLINE
  5
D2
330
17
100
AcDbEntity
  8
CAP
100
AcDbPolyline
 90
5
 70
0
 10
126.49270128844738
 20
352.40660699813856
 10
125.05621362842072
 20
353.1112368318748
 10
124.70389871155261
 20
352.3929930018615
 10
126.14038637157927
 20
351.68836316812525
 10
126.49270128844738
 20
352.40660699813856
  0
LWPOLYLINE
  5
D3
330
17
100
AcDbEntity
  8
CAP
100
AcDbPolyline
 90
5
 70
0
 10
116.08782228751892
 20
323.1183107916476
 10
114.53889799417058
 20
323.5193513550266
 10
114.33837771248108
 20
322.7448892083524
 10
115.88730200582941
 20
322.34384864497343
 10
116.08782228751892
 20
323.1183107916476
  0
LWPOLYLINE
  5
D4
330
17
100
AcDbEntity
  8
CAP
100
AcDbPolyline
 90
5
 70
0
 10
280.3229101615138
 20
316.72607967697246
 10
281.1229101615138
 20
318.11172032302755
 10
280.43008983848625
 20
318.51172032302753
 10
279.63008983848624
 20
317.12607967697244
 10
280.3229101615138
 20
316.72607967697246
  0
LWPOLYLINE
  5
D5
330
17
100
AcDbEntity
  8
CAP
100
AcDbPolyline
 90
5
 70
0
 10
111.79163145855225
 20
292.3349704964455
 10
110.19368472771222
 20
292.4160028689745
 10
110.15316854144774
 20
291.6170295035545
 10
111.75111527228776
 20
291.5359971310255
 10
111.79163145855225
 20
292.3349704964455
  0
LWPOLYLINE
  5
D6
330
17
100
AcDbEntity
  8
CAP
100
AcDbPolyline
 90
5
 70
0
 10
113.78000064033897
 20
261.3168336628416
 10
112.19845268552335
 20
261.0745403145662
 10
112.31959935966104
 20
260.2837663371584
 10
113.90114731447666
 20
260.5260596854338
 10
113.78000064033897
 20
261.3168336628416
  0
LWPOLYLINE
  5
D7
330
17
100
AcDbEntity
  8
CAP
100
AcDbPolyline
 90
5
 70
0
 10
121.9715748255784
 20
231.3340495291476
 10
120.47117548133487
 20
230.77835014297415
 10
120.74902517442159
 20
230.02815047085238
 10
122.24942451866512
 20
230.58384985702583
 10
121.9715748255784
 20
231.3340495291476
  0
LWPOLYLINE
  5
D8
330
17
100
AcDbEntity
  8
CAP
100
AcDbPolyline
 90
5
 70
0
 10
136.03093624235746
 20
203.61402496456597
 10
134.67309828293278
 20
202.7676940151464
 10
135.09626375764256
 20
202.08877503543405
 10
136.45410171706723
 20
202.93510598485364
 10
136.03093624235746
 20
203.61402496456597
  0
LWPOLYLINE
  5
D9
330
17
100
AcDbEntity
  8
CAP
100
AcDbPolyline
 90
5
 70
0
 10
155.38245314464976
 20
179.2914885946027
 10
154.222777237528
 20
178.1891493589582
 10
154.77394685535026
 20
177.6093114053973
 10
155.93362276247203
 20
178.7116506410418
 10
155.38245314464976
 20
179.2914885946027
  0
LWPOLYLINE
  5
DA
330
17
100
AcDbEntity
  8
CAP
100
AcDbPolyline
 90
5
 70
0
 10
179.23411368055955
 20
159.36221738681195
 10
178.32007788221472
 20
158.04900051236046
 10
178.97668631944046
 20
157.59198261318807
 10
179.8907221177853
 20
158.90519948763955
 10
179.23411368055955
 20
159.36221738681195
  0
LWPOLYLINE
  5
DB
330
17
100
AcDbEntity
  8
CAP
100
AcDbPolyline
 90
5
 70
0
 10
206.60910457573866
 20
144.6422087673279
 10
205.9781302406945
 20
143.17187840019417
 10
206.71329542426136
 20
142.8563912326721
 10
207.34426975930552
 20
144.32672159980584
 10
206.60910457573866
 20
144.6422087673279
  0
LWPOLYLINE
  5
DC
330
17
100
AcDbEntity
  8
CAP
100
AcDbPolyline
 90
5
 70
0
 10
236.38682829913287
 20
135.73414375081865
 10
236.0647480198654
 20
134.1668963888151
 10
236.84837170086715
 20
134.00585624918136
 10
237.17045198013463
 20
135.5731036111849
 10
236.38682829913287
 20
135.73414375081865
  0
LWPOLYLINE
  5
DD
330
17
100
AcDbEntity
  8
CAP
100
AcDbPolyline
 90
5
 70
0
 10
267.3483
 20
133.0026
 10
267.3483
 20
131.40259999999998
 10
268.14829999999995
 20
131.40259999999998
 10
268.14829999999995
 20
133.0026
 10
267.3483
 20
133.0026
  0
LWPOLYLINE
  5
DE
330
17
100
AcDbEntity
  8
CAP
100
AcDbPolyline
 90
5
 70
0
 10
298.2258480198654
 20
136.5595036111849
 10
298.5479282991329
 20
134.99225624918137
 10
299.33155198013463
 20
135.1532963888151
 10
299.00947170086715
 20
136.72054375081865
 10
298.2258480198654
 20
136.5595036111849
  0
LWPOLYLINE
  5
DF
330
17
100
AcDbEntity
  8
CAP
100
AcDbPolyline
 90
5
 70
0
 10
279.7790150944336
 20
348.56603172092775
 10
280.19312556659764
 20
350.1115130429902
 10
279.4203849055664
 20
350.3185682790722
 10
279.0062744334023
 20
348.77308695700975
 10
279.7790150944336
 20
348.56603172092775
  0
LWPOLYLINE
  5
E0
330
17
100
AcDbEntity
  8
CAP
100
AcDbPolyline
 90
5
 70
0
 10
327.7552302406945
 20
146.25912159980584
 10
328.38620457573865
 20
144.7887912326721
 10
329.12136975930554
 20
145.10427840019418
 10
328.4903954242614
 20
146.5746087673279
 10
327.7552302406945
 20
146.25912159980584
  0
LWPOLYLINE
  5
E1
330
17
100
AcDbEntity
  8
CAP
100
AcDbPolyline
 90
5
 70
0
 10
354.72767788221466
 20
161.70449948763954
 10
355.6417136805595
 20
160.39128261318805
 10
356.2983221177853
 20
160.84830051236045
 10
355.38428631944043
 20
162.16151738681194
 10
354.72767788221466
 20
161.70449948763954
  0
LWPOLYLINE
  5
E2
330
17
100
AcDbEntity
  8
CAP
100
AcDbPolyline
 90
5
 70
0
 10
378.03887723752797
 20
182.26315064104182
 10
379.19855314464974
 20
181.1608114053973
 10
379.749722762472
 20
181.7406493589582
 10
378.59004685535024
 20
182.8429885946027
 10
378.03887723752797
 20
182.26315064104182
  0
LWPOLYLINE
  5
E3
330
17
100
AcDbEntity
  8
CAP
100
AcDbPolyline
 90
5
 70
0
 10
396.7343982829328
 20
207.09350598485364
 10
398.0922362423575
 20
206.24717503543405
 10
398.5154017170673
 20
206.9260940151464
 10
397.15756375764255
 20
207.77242496456597
 10
396.7343982829328
 20
207.09350598485364
  0
LWPOLYLINE
  5
E4
330
17
100
AcDbEntity
  8
CAP
100
AcDbPolyline
 90
5
 70
0
 10
410.0489754813349
 20
235.17884985702585
 10
411.5493748255784
 20
234.6231504708524
 10
411.82722451866516
 20
235.37335014297418
 10
410.32682517442163
 20
235.92904952914762
 10
410.0489754813349
 20
235.17884985702585
  0
LWPOLYLINE
  5
E5
330
17
100
AcDbEntity
  8
CAP
100
AcDbPolyline
 90
5
 70
0
 10
417.43745268552334
 20
265.3695596854338
 10
419.01900064033896
 20
265.1272663371584
 10
419.1401473144766
 20
265.9180403145662
 10
417.558599359661
 20
266.1603336628416
 10
417.43745268552334
 20
265.3695596854338
  0
LWPOLYLINE
  5
E6
330
17
100
AcDbEntity
  8
CAP
100
AcDbPolyline
 90
5
 70
0
 10
418.5973847277122
 20
296.42969713102553
 10
420.19533145855223
 20
296.5107295035545
 10
420.1548152722878
 20
297.3097028689745
 10
418.5568685414478
 20
297.22867049644555
 10
418.5973847277122
 20
296.42969713102553
  0
LWPOLYLINE
  5
E7
330
17
100
AcDbEntity
  8
CAP
100
AcDbPolyline
 90
5
 70
0
 10
413.48109799417057
 20
327.08744864497345
 10
415.03002228751893
 20
327.4884892083524
 10
414.82950200582945
 20
328.2629513550266
 10
413.2805777124811
 20
327.86191079164763
 10
413.48109799417057
 20
327.08744864497345
  0
LWPOLYLINE
  5
E8
330
17
100
AcDbEntity
  8
CAP
100
AcDbPolyline
 90
5
 70
0
 10
402.2983136284207
 20
356.08766316812523
 10
403.7348012884474
 20
356.7922930018615
 10
403.38248637157926
 20
357.5105368318748
 10
401.9459987115526
 20
356.80590699813854
 10
402.2983136284207
 20
356.08766316812523
  0
LWPOLYLINE
  5
E9
330
17
100
AcDbEntity
  8
CAP
100
AcDbPolyline
 90
5
 70
0
 10
385.5066227110348
 20
382.2432044825417
 10
386.77186278734575
 20
383.2225754793028
 10
386.2821772889652
 20
383.85519551745824
 10
385.0169372126543
 20
382.87582452069717
 10
385.5066227110348
 20
382.2432044825417
  0
LWPOLYLINE
  5
EA
330
17
100
AcDbEntity
  8
CAP
100
AcDbPolyline
 90
5
 70
0
 10
308.82075728752534
 20
333.02417186257617
 10
309.9521281374238
 20
334.15554271247464
 10
309.3864427124746
 20
334.72122813742385
 10
308.25507186257613
 20
333.5898572875254
 10
308.82075728752534
 20
333.02417186257617
  0
LWPOLYLINE
  5
EB
330
17
100
AcDbEntity
  8
CAP
100
AcDbPolyline
 90
5
 70
0
 10
363.79370770510985
 20
404.4831438962209
 10
364.8359002599574
 20
405.69715982635535
 10
364.22889229489016
 20
406.21825610377914
 10
363.1866997400426
 20
405.0042401736447
 10
363.79370770510985
 20
404.4831438962209
  0
LWPOLYLINE
  5
EC
330
17
100
AcDbEntity
  8
CAP
100
AcDbPolyline
 90
5
 70
0
 10
338.04830110126653
 20
421.89710174866093
 10
338.8247779403113
 20
423.2960598318167
 10
338.12529889873343
 20
423.6842982513391
 10
337.34882205968864
 20
422.2853401681833
 10
338.04830110126653
 20
421.89710174866093
  0
LWPOLYLINE
  5
ED
330
17
100
AcDbEntity
  8
CAP
100
AcDbPolyline
 90
5
 70
0
 10
309.32447067304014
 20
433.7720442261514
 10
309.8034422152548
 20
435.29867000274123
 10
309.04012932695986
 20
435.5381557738486
 10
308.5611577847452
 20
434.0115299972588
 10
309.32447067304014
 20
433.7720442261514
  0
LWPOLYLINE
  5
EE
330
17
100
AcDbEntity
  8
CAP
100
AcDbPolyline
 90
5
 70
0
 10
278.79821966407894
 20
439.6219397112564
 10
278.9600764325475
 20
441.2137319045093
 10
278.16418033592106
 20
441.2946602887436
 10
278.0023235674525
 20
439.7028680954907
 10
278.79821966407894
 20
439.6219397112564
  0
LWPOLYLINE
  5
EF
330
17
100
AcDbEntity
  8
CAP
100
AcDbPolyline
 90
5
 70
0
 10
278.82611229578293
 20
469.71495885937094
 10
278.9618055350335
 20
471.30919452100375
 10
278.1646877042171
 20
471.37704114062905
 10
278.02899446496656
 20
469.78280547899624
 10
278.82611229578293
 20
469.71495885937094
  0
LWPOLYLINE
  5
F0
330
17
100
AcDbEntity
  8
CAP
100
AcDbPolyline
 90
5
 70
0
 10
309.57760453861755
 20
464.7949211053103
 10
309.9807803925812
 20
466.3432909677078
 10
309.2065954613825
 20
466.54487889468965
 10
308.80341960741885
 20
464.9965090322922
 10
309.57760453861755
 20
464.7949211053103
  0
LWPOLYLINE
  5
F1
330
17
100
AcDbEntity
  8
CAP
100
AcDbPolyline
 90
5
 70
0
 10
339.05527545661784
 20
454.74855690635707
 10
339.71430920094366
 20
456.20652622148
 10
338.9853245433822
 20
456.5360430936429
 10
338.3262907990564
 20
455.07807377852
 10
339.05527545661784
 20
454.74855690635707
  0
LWPOLYLINE
  5
F2
330
17
100
AcDbEntity
  8
CAP
100
AcDbPolyline
 90
5
 70
0
 10
366.41122486741125
 20
439.86490225617007
 10
367.3071832746173
 20
441.190518540227
 10
366.6443751325888
 20
441.63849774383
 10
365.74841672538275
 20
440.31288145977305
 10
366.41122486741125
 20
439.86490225617007
  0
LWPOLYLINE
  5
F3
330
17
100
AcDbEntity
  8
CAP
100
AcDbPolyline
 90
5
 70
0
 10
390.85832811839015
 20
420.5722605764049
 10
391.96543466784203
 20
421.7273861488692
 10
391.3878718816099
 20
422.2809394235951
 10
390.280765332158
 20
421.12581385113083
 10
390.85832811839015
 20
420.5722605764049
  0
LWPOLYLINE
  5
F4
330
17
100
AcDbEntity
  8
CAP
100
AcDbPolyline
 90
5
 70
0
 10
411.69324879648934
 20
397.42549804853337
 10
412.9796522832797
 20
398.37690020807145
 10
412.5039512035106
 20
399.02010195146664
 10
411.2175477167203
 20
398.06869979192857
 10
411.69324879648934
 20
397.42549804853337
  0
LWPOLYLINE
  5
F5
330
17
100
AcDbEntity
  8
LED
100
AcDbPolyline
 90
5
 70
0
 10
262.7983
 20
284.1026
 10
267.7983
 20
284.1026
 10
267.7983
 20
289.1026
 10
262.7983
 20
289.1026
 10
262.7983
 20
284.1026
  0
CIRCLE
  5
F6
330
17
100
AcDbEntity
  8
LED
100
AcDbCircle
 10
267.7483
 20
285.0026
 30
0.0
 40
0.45
  0
TEXT
  5
F7
330
17
100
AcDbEntity
  8
LED-REF
100
AcDbText
 10
265.2983
 20
286.6026
 30
0.0
 40
1.1
  1
LED1
 72
1
 11
265.2983
 21
286.6026
 31
0.0
100
AcDbText
 73
2
  0
LWPOLYLINE
  5
F8
330
17
100
AcDbEntity
  8
LED
100
AcDbPolyline
 90
5
 70
0
 10
320.19193782152104
 20
303.8994669529664
 10
321.48603304703363
 20
299.06983782152105
 10
326.315662178479
 20
300.36393304703364
 10
325.0215669529664
 20
305.193562178479
 10
320.19193782152104
 20
303.8994669529664
  0
CIRCLE
  5
F9
330
17
100
AcDbEntity
  8
LED
100
AcDbCircle
 10
322.34242533843866
 20
299.3510712534278
 30
0.0
 40
0.45
  0
TEXT
  5
FA
330
17
100
AcDbEntity
  8
LED-REF
100
AcDbText
 10
323.2538
 20
302.1317
 30
0.0
 40
1.1
  1
LED10
 50
285.0
 72
1
 11
323.2538
 21
302.1317
 31
0.0
100
AcDbText
 73
2
  0
LWPOLYLINE
  5
FB
330
17
100
AcDbEntity
  8
LED
100
AcDbPolyline
 90
5
 70
0
 10
422.667171293786
 20
368.7460910280289
 10
424.91820897197107
 20
364.281471293786
 10
429.38282870621396
 20
366.5325089719711
 10
427.1317910280289
 20
370.99712870621397
 10
422.667171293786
 20
368.7460910280289
  0
CIRCLE
  5
FC
330
17
100
AcDbEntity
  8
LED
100
AcDbCircle
 10
425.69933014735295
 20
364.7313042732018
 30
0.0
 40
0.45
  0
TEXT
  5
FD
330
17
100
AcDbEntity
  8
LED-REF
100
AcDbText
 10
426.025
 20
367.6393
 30
0.0
 40
1.1
  1
LED100
 50
296.757
 72
1
 11
426.025
 21
367.6393
 31
0.0
100
AcDbText
 73
2
  0
LWPOLYLINE
  5
FE
330
17
100
AcDbEntity
  8
LED
100
AcDbPolyline
 90
5
 70
0
 10
434.2858270172268
 20
340.96906138156055
 10
435.74993861843944
 20
336.1882270172268
 10
440.5307729827732
 20
337.65233861843944
 10
439.06666138156055
 20
342.4331729827732
 10
434.2858270172268
 20
340.96906138156055
  0
CIRCLE
  5
FF
330
17
100
AcDbEntity
  8
LED
100
AcDbCircle
 10
436.5958476880074
 20
336.4995754490884
 30
0.0
 40
0.45
  0
TEXT
  5
100
330
17
100
AcDbEntity
  8
LED-REF
100
AcDbText
 10
437.4083
 20
339.3107
 30
0.0
 40
1.1
  1
LED101
 50
287.027
 72
1
 11
437.4083
 21
339.3107
 31
0.0
100
AcDbText
 73
2
  0
LWPOLYLINE
  5
101
330
17
100
AcDbEntity
  8
LED
100
AcDbPolyline
 90
5
 70
0
 10
441.04311558181666
 20
311.6280210534052
 10
441.6781789465948
 20
306.6685155818167
 10
446.6376844181833
 20
307.3035789465948
 10
446.00262105340516
 20
312.2630844181833
 10
441.04311558181666
 20
311.6280210534052
  0
CIRCLE
  5
102
330
17
100
AcDbEntity
  8
LED
100
AcDbCircle
 10
442.56453929783294
 20
306.8324220421926
 30
0.0
 40
0.45
  0
TEXT
  5
103
330
17
100
AcDbEntity
  8
LED-REF
100
AcDbText
 10
443.8404
 20
309.4658
 30
0.0
 40
1.1
  1
LED102
 50
277.297
 72
1
 11
443.8404
 21
309.4658
 31
0.0
100
AcDbText
 73
2
  0
LWPOLYLINE
  5
104
330
17
100
AcDbEntity
  8
LED
100
AcDbPolyline
 90
5
 70
0
 10
442.7444359403249
 20
281.5670323728033
 10
442.5322676271967
 20
276.57153594032485
 10
447.5277640596751
 20
276.35936762719666
 10
447.7399323728033
 20
281.3548640596751
 10
442.7444359403249
 20
281.5670323728033
  0
CIRCLE
  5
105
330
17
100
AcDbEntity
  8
LED
100
AcDbCircle
 10
443.4335786681741
 20
276.5833006082866
 30
0.0
 40
0.45
  0
TEXT
  5
106
330
17
100
AcDbEntity
  8
LED-REF
100
AcDbText
 10
445.1361
 20
278.9632
 30
0.0
 40
1.1
  1
LED103
 50
267.568
 72
1
 11
445.1361
 21
278.9632
 31
0.0
100
AcDbText
 73
2
  0
LWPOLYLINE
  5
107
330
17
100
AcDbEntity
  8
LED
100
AcDbPolyline
 90
5
 70
0
 10
439.3410016700854
 20
251.65088084619367
 10
438.2876191538063
 20
246.7631016700854
 10
443.1753983299146
 20
245.7097191538063
 10
444.2287808461937
 20
250.59749832991457
 10
439.3410016700854
 20
251.65088084619367
  0
CIRCLE
  5
108
330
17
100
AcDbEntity
  8
LED
100
AcDbCircle
 10
439.1779532306686
 20
246.62237060891627
 30
0.0
 40
0.45
  0
TEXT
  5
109
330
17
100
AcDbEntity
  8
LED-REF
100
AcDbText
 10
441.2582
 20
248.6803
 30
0.0
 40
1.1
  1
LED104
 50
257.83799999999997
 72
1
 11
441.2582
 21
248.6803
 31
0.0
100
AcDbText
 73
2
  0
LWPOLYLINE
  5
10A
330
17
100
AcDbEntity
  8
LED
100
AcDbPolyline
 90
5
 70
0
 10
430.93072476196653
 20
222.74026638083367
 10
429.06643361916633
 20
218.10082476196652
 10
433.7058752380335
 20
216.23653361916635
 10
435.5701663808337
 20
220.8759752380335
 10
430.93072476196653
 20
222.74026638083367
  0
CIRCLE
  5
10B
330
17
100
AcDbEntity
  8
LED
100
AcDbCircle
 10
429.9201760219904
 20
217.81164677245116
 30
0.0
 40
0.45
  0
TEXT
  5
10C
330
17
100
AcDbEntity
  8
LED-REF
100
AcDbText
 10
432.3183
 20
219.4884
 30
0.0
 40
1.1
  1
LED105
 50
248.108
 72
1
 11
432.3183
 21
219.4884
 31
0.0
100
AcDbText
 73
2
  0
LWPOLYLINE
  5
10D
330
17
100
AcDbEntity
  8
LED
100
AcDbPolyline
 90
5
 70
0
 10
417.7554680794599
 20
195.66689645554206
 10
415.13390354445795
 20
191.4092680794599
 10
419.39153192054016
 20
188.78770354445797
 10
422.0130964555421
 20
193.04533192054012
 10
417.7554680794599
 20
195.66689645554206
  0
CIRCLE
  5
10E
330
17
100
AcDbEntity
  8
LED
100
AcDbCircle
 10
415.92649229750276
 20
190.97996274692036
 30
0.0
 40
0.45
  0
TEXT
  5
10F
330
17
100
AcDbEntity
  8
LED-REF
100
AcDbText
 10
418.5735
 20
192.2273
 30
0.0
 40
1.1
  1
LED106
 50
238.378
 72
1
 11
418.5735
 21
192.2273
 31
0.0
100
AcDbText
 73
2
  0
LWPOLYLINE
  5
110
330
17
100
AcDbEntity
  8
LED
100
AcDbPolyline
 90
5
 70
0
 10
400.19428440855825
 20
171.2094661918242
 10
396.8909338081758
 20
167.4560844085582
 10
400.6443155914418
 20
164.15273380817578
 10
403.9476661918242
 20
167.90611559144176
 10
400.19428440855825
 20
171.2094661918242
  0
CIRCLE
  5
111
330
17
100
AcDbEntity
  8
LED
100
AcDbCircle
 10
397.5995760351675
 20
166.89901511832204
 30
0.0
 40
0.45
  0
TEXT
  5
112
330
17
100
AcDbEntity
  8
LED-REF
100
AcDbText
 10
400.4193
 20
167.6811
 30
0.0
 40
1.1
  1
LED107
 50
228.649
 72
1
 11
400.4193
 21
167.6811
 31
0.0
100
AcDbText
 73
2
  0
LWPOLYLINE
  5
113
330
17
100
AcDbEntity
  8
LED
100
AcDbPolyline
 90
5
 70
0
 10
378.75243441746346
 20
150.0718399090543
 10
374.8622600909457
 20
146.93073441746344
 10
378.00336558253656
 20
143.0405600909457
 10
381.8935399090543
 20
146.18166558253654
 10
378.75243441746346
 20
150.0718399090543
  0
CIRCLE
  5
114
330
17
100
AcDbEntity
  8
LED
100
AcDbCircle
 10
375.46656082269726
 20
146.26191409360615
 30
0.0
 40
0.45
  0
TEXT
  5
115
330
17
100
AcDbEntity
  8
LED-REF
100
AcDbText
 10
378.3779
 20
146.5562
 30
0.0
 40
1.1
  1
LED108
 50
218.919
 72
1
 11
378.3779
 21
146.5562
 31
0.0
100
AcDbText
 73
2
  0
LWPOLYLINE
  5
116
330
17
100
AcDbEntity
  8
LED
100
AcDbPolyline
 90
5
 70
0
 10
354.0467091559293
 20
132.86186946163357
 10
349.6816305383664
 20
130.42340915592936
 10
352.12009084407066
 20
126.05833053836645
 10
356.4851694616336
 20
128.49679084407066
 10
354.0467091559293
 20
132.86186946163357
  0
CIRCLE
  5
117
330
17
100
AcDbEntity
  8
LED
100
AcDbCircle
 10
350.1642041795688
 20
129.66207960782506
 30
0.0
 40
0.45
  0
TEXT
  5
118
330
17
100
AcDbEntity
  8
LED-REF
100
AcDbText
 10
353.0834
 20
129.4601
 30
0.0
 40
1.1
  1
LED109
 50
209.189
 72
1
 11
353.0834
 21
129.4601
 31
0.0
100
AcDbText
 73
2
  0
LWPOLYLINE
  5
119
330
17
100
AcDbEntity
  8
LED
100
AcDbPolyline
 90
5
 70
0
 10
321.48603304703363
 20
274.135362178479
 10
320.19193782152104
 20
269.30573304703364
 10
325.0215669529664
 20
268.01163782152105
 10
326.315662178479
 20
272.8412669529664
 10
321.48603304703363
 20
274.135362178479
  0
CIRCLE
  5
11A
330
17
100
AcDbEntity
  8
LED
100
AcDbCircle
 10
321.0742120174363
 20
269.12109219775584
 30
0.0
 40
0.45
  0
TEXT
  5
11B
330
17
100
AcDbEntity
  8
LED-REF
100
AcDbText
 10
323.2538
 20
271.0735
 30
0.0
 40
1.1
  1
LED11
 50
255.0
 72
1
 11
323.2538
 21
271.0735
 31
0.0
100
AcDbText
 73
2
  0
LWPOLYLINE
  5
11C
330
17
100
AcDbEntity
  8
LED
100
AcDbPolyline
 90
5
 70
0
 10
326.7878697079605
 20
120.07473087656726
 10
322.07346912343274
 20
118.40906970796048
 10
323.73913029203953
 20
113.69466912343273
 10
328.4535308765673
 20
115.3603302920395
 10
326.7878697079605
 20
120.07473087656726
  0
CIRCLE
  5
11D
330
17
100
AcDbEntity
  8
LED
100
AcDbCircle
 10
322.4204321396273
 20
117.57713421443155
 30
0.0
 40
0.45
  0
TEXT
  5
11E
330
17
100
AcDbEntity
  8
LED-REF
100
AcDbText
 10
325.2635
 20
116.8847
 30
0.0
 40
1.1
  1
LED110
 50
199.459
 72
1
 11
325.2635
 21
116.8847
 31
0.0
100
AcDbText
 73
2
  0
LWPOLYLINE
  5
11F
330
17
100
AcDbEntity
  8
LED
100
AcDbPolyline
 90
5
 70
0
 10
297.7599241089179
 20
112.0782514567918
 10
292.83184854320814
 20
111.23322410891791
 10
293.67687589108203
 20
106.30514854320819
 10
298.6049514567918
 20
107.15017589108209
 10
297.7599241089179
 20
112.0782514567918
  0
CIRCLE
  5
120
330
17
100
AcDbEntity
  8
LED
100
AcDbCircle
 10
293.0332342214826
 20
110.35462078056891
 30
0.0
 40
0.45
  0
TEXT
  5
121
330
17
100
AcDbEntity
  8
LED-REF
100
AcDbText
 10
295.7184
 20
109.1917
 30
0.0
 40
1.1
  1
LED111
 50
189.73
 72
1
 11
295.7184
 21
109.1917
 31
0.0
100
AcDbText
 73
2
  0
LWPOLYLINE
  5
122
330
17
100
AcDbEntity
  8
LED
100
AcDbPolyline
 90
5
 70
0
 10
267.7983
 20
109.1026
 10
262.7983
 20
109.1026
 10
262.7983
 20
104.1026
 10
267.7983
 20
104.1026
 10
267.7983
 20
109.1026
  0
CIRCLE
  5
123
330
17
100
AcDbEntity
  8
LED
100
AcDbCircle
 10
262.8483
 20
108.20259999999999
 30
0.0
 40
0.45
  0
TEXT
  5
124
330
17
100
AcDbEntity
  8
LED-REF
100
AcDbText
 10
265.2983
 20
106.6026
 30
0.0
 40
1.1
  1
LED112
 50
180.0
 72
1
 11
265.2983
 21
106.6026
 31
0.0
100
AcDbText
 73
2
  0
LWPOLYLINE
  5
125
330
17
100
AcDbEntity
  8
LED
100
AcDbPolyline
 90
5
 70
0
 10
237.7647514567918
 20
111.23322410891791
 10
232.83667589108208
 20
112.0782514567918
 10
231.99164854320819
 20
107.15017589108209
 10
236.9197241089179
 20
106.30514854320819
 10
237.7647514567918
 20
111.23322410891791
  0
CIRCLE
  5
126
330
17
100
AcDbEntity
  8
LED
100
AcDbCircle
 10
232.73385172412188
 20
111.18274758148532
 30
0.0
 40
0.45
  0
TEXT
  5
127
330
17
100
AcDbEntity
  8
LED-REF
100
AcDbText
 10
234.8782
 20
109.1917
 30
0.0
 40
1.1
  1
LED113
 50
170.27
 72
1
 11
234.8782
 21
109.1917
 31
0.0
100
AcDbText
 73
2
  0
LWPOLYLINE
  5
128
330
17
100
AcDbEntity
  8
LED
100
AcDbPolyline
 90
5
 70
0
 10
208.52313087656725
 20
118.40906970796048
 10
203.8087302920395
 20
120.07473087656726
 10
202.14306912343275
 20
115.3603302920395
 10
206.8574697079605
 20
113.69466912343273
 10
208.52313087656725
 20
118.40906970796048
  0
CIRCLE
  5
129
330
17
100
AcDbEntity
  8
LED
100
AcDbCircle
 10
203.55605528753557
 20
119.2094821596662
 30
0.0
 40
0.45
  0
TEXT
  5
12A
330
17
100
AcDbEntity
  8
LED-REF
100
AcDbText
 10
205.3331
 20
116.8847
 30
0.0
 40
1.1
  1
LED114
 50
160.541
 72
1
 11
205.3331
 21
116.8847
 31
0.0
100
AcDbText
 73
2
  0
LWPOLYLINE
  5
12B
330
17
100
AcDbEntity
  8
LED
100
AcDbPolyline
 90
5
 70
0
 10
180.91496946163358
 20
130.42340915592936
 10
176.54989084407066
 20
132.86186946163357
 10
174.11143053836645
 20
128.49679084407066
 10
178.47650915592936
 20
126.05833053836645
 10
180.91496946163358
 20
130.42340915592936
  0
CIRCLE
  5
12C
330
17
100
AcDbEntity
  8
LED
100
AcDbCircle
 10
176.15461877521955
 20
132.05177070741522
 30
0.0
 40
0.45
  0
TEXT
  5
12D
330
17
100
AcDbEntity
  8
LED-REF
100
AcDbText
 10
177.5132
 20
129.4601
 30
0.0
 40
1.1
  1
LED115
 50
150.811
 72
1
 11
177.5132
 21
129.4601
 31
0.0
100
AcDbText
 73
2
  0
LWPOLYLINE
  5
12E
330
17
100
AcDbEntity
  8
LED
100
AcDbPolyline
 90
5
 70
0
 10
155.7343399090543
 20
146.93073441746344
 10
151.84416558253656
 20
150.0718399090543
 10
148.7030600909457
 20
146.18166558253654
 10
152.59323441746346
 20
143.0405600909457
 10
155.7343399090543
 20
146.93073441746344
  0
CIRCLE
  5
12F
330
17
100
AcDbEntity
  8
LED
100
AcDbCircle
 10
151.31766833731538
 20
149.3401974753652
 30
0.0
 40
0.45
  0
TEXT
  5
130
330
17
100
AcDbEntity
  8
LED-REF
100
AcDbText
 10
152.2187
 20
146.5562
 30
0.0
 40
1.1
  1
LED116
 50
141.081
 72
1
 11
152.2187
 21
146.5562
 31
0.0
100
AcDbText
 73
2
  0
LWPOLYLINE
  5
131
330
17
100
AcDbEntity
  8
LED
100
AcDbPolyline
 90
5
 70
0
 10
133.7056661918242
 20
167.4560844085582
 10
130.40231559144178
 20
171.2094661918242
 10
126.64893380817578
 20
167.90611559144176
 10
129.95228440855823
 20
164.15273380817578
 10
133.7056661918242
 20
167.4560844085582
  0
CIRCLE
  5
132
330
17
100
AcDbEntity
  8
LED
100
AcDbCircle
 10
129.75974037645773
 20
170.5773292659227
 30
0.0
 40
0.45
  0
TEXT
  5
133
330
17
100
AcDbEntity
  8
LED-REF
100
AcDbText
 10
130.1773
 20
167.6811
 30
0.0
 40
1.1
  1
LED117
 50
131.351
 72
1
 11
130.1773
 21
167.6811
 31
0.0
100
AcDbText
 73
2
  0
LWPOLYLINE
  5
134
330
17
100
AcDbEntity
  8
LED
100
AcDbPolyline
 90
5
 70
0
 10
115.46269645554206
 20
191.4092680794599
 10
112.8411319205401
 20
195.66689645554206
 10
108.58350354445794
 20
193.04533192054012
 10
111.20506807945989
 20
188.78770354445797
 10
115.46269645554206
 20
191.4092680794599
  0
CIRCLE
  5
135
330
17
100
AcDbEntity
  8
LED
100
AcDbCircle
 10
112.10097445819534
 20
195.1524385554809
 30
0.0
 40
0.45
  0
TEXT
  5
136
330
17
100
AcDbEntity
  8
LED-REF
100
AcDbText
 10
112.0231
 20
192.2273
 30
0.0
 40
1.1
  1
LED118
 50
121.622
 72
1
 11
112.0231
 21
192.2273
 31
0.0
100
AcDbText
 73
2
  0
LWPOLYLINE
  5
137
330
17
100
AcDbEntity
  8
LED
100
AcDbPolyline
 90
5
 70
0
 10
101.53016638083368
 20
218.10082476196652
 10
99.6658752380335
 20
222.74026638083367
 10
95.02643361916633
 20
220.8759752380335
 10
96.89072476196651
 20
216.23653361916635
 10
101.53016638083368
 20
218.10082476196652
  0
CIRCLE
  5
138
330
17
100
AcDbEntity
  8
LED
100
AcDbCircle
 10
98.8494186580654
 20
222.35829955894098
 30
0.0
 40
0.45
  0
TEXT
  5
139
330
17
100
AcDbEntity
  8
LED-REF
100
AcDbText
 10
98.2783
 20
219.4884
 30
0.0
 40
1.1
  1
LED119
 50
111.892
 72
1
 11
98.2783
 21
219.4884
 31
0.0
100
AcDbText
 73
2
  0
LWPOLYLINE
  5
13A
330
17
100
AcDbEntity
  8
LED
100
AcDbPolyline
 90
5
 70
0
 10
307.7247
 20
247.71173390593273
 10
304.1891660940672
 20
244.1762
 10
307.7247
 20
240.64066609406726
 10
311.26023390593275
 20
244.1762
 10
307.7247
 20
247.71173390593273
  0
CIRCLE
  5
13B
330
17
100
AcDbEntity
  8
LED
100
AcDbCircle
 10
304.86091753619445
 20
243.57515923599144
 30
0.0
 40
0.45
  0
TEXT
  5
13C
330
17
100
AcDbEntity
  8
LED-REF
100
AcDbText
 10
307.7247
 20
244.1762
 30
0.0
 40
1.1
  1
LED12
 50
225.0
 72
1
 11
307.7247
 21
244.1762
 31
0.0
100
AcDbText
 73
2
  0
LWPOLYLINE
  5
13D
330
17
100
AcDbEntity
  8
LED
100
AcDbPolyline
 90
5
 70
0
 10
92.30898084619368
 20
246.7631016700854
 10
91.25559832991456
 20
251.65088084619367
 10
86.36781915380631
 20
250.59749832991457
 10
87.42120167008542
 20
245.7097191538063
 10
92.30898084619368
 20
246.7631016700854
  0
CIRCLE
  5
13E
330
17
100
AcDbEntity
  8
LED
100
AcDbCircle
 10
90.38633190337787
 20
251.41239420150234
 30
0.0
 40
0.45
  0
TEXT
  5
13F
330
17
100
AcDbEntity
  8
LED-REF
100
AcDbText
 10
89.3384
 20
248.6803
 30
0.0
 40
1.1
  1
LED120
 50
102.162
 72
1
 11
89.3384
 21
248.6803
 31
0.0
100
AcDbText
 73
2
  0
LWPOLYLINE
  5
140
330
17
100
AcDbEntity
  8
LED
100
AcDbPolyline
 90
5
 70
0
 10
88.06433237280328
 20
276.57153594032485
 10
87.8521640596751
 20
281.5670323728033
 10
82.85666762719671
 20
281.3548640596751
 10
83.06883594032489
 20
276.35936762719666
 10
88.06433237280328
 20
276.57153594032485
  0
CIRCLE
  5
141
330
17
100
AcDbEntity
  8
LED
100
AcDbCircle
 10
86.95509638496027
 20
281.4788871121154
 30
0.0
 40
0.45
  0
TEXT
  5
142
330
17
100
AcDbEntity
  8
LED-REF
100
AcDbText
 10
85.4605
 20
278.9632
 30
0.0
 40
1.1
  1
LED121
 50
92.432
 72
1
 11
85.4605
 21
278.9632
 31
0.0
100
AcDbText
 73
2
  0
LWPOLYLINE
  5
143
330
17
100
AcDbEntity
  8
LED
100
AcDbPolyline
 90
5
 70
0
 10
88.9184210534052
 20
306.6685155818167
 10
89.55348441818336
 20
311.6280210534052
 10
84.59397894659482
 20
312.2630844181833
 10
83.95891558181665
 20
307.3035789465948
 10
88.9184210534052
 20
306.6685155818167
  0
CIRCLE
  5
144
330
17
100
AcDbEntity
  8
LED
100
AcDbCircle
 10
88.65442279964964
 20
311.6927374043494
 30
0.0
 40
0.45
  0
TEXT
  5
145
330
17
100
AcDbEntity
  8
LED-REF
100
AcDbText
 10
86.7562
 20
309.4658
 30
0.0
 40
1.1
  1
LED122
 50
82.703
 72
1
 11
86.7562
 21
309.4658
 31
0.0
100
AcDbText
 73
2
  0
LWPOLYLINE
  5
146
330
17
100
AcDbEntity
  8
LED
100
AcDbPolyline
 90
5
 70
0
 10
94.84666138156057
 20
336.1882270172268
 10
96.31077298277319
 20
340.96906138156055
 10
91.52993861843943
 20
342.4331729827732
 10
90.06582701722681
 20
337.65233861843944
 10
94.84666138156057
 20
336.1882270172268
  0
CIRCLE
  5
147
330
17
100
AcDbEntity
  8
LED
100
AcDbCircle
 10
95.43558168118099
 20
341.1847931261355
 30
0.0
 40
0.45
  0
TEXT
  5
148
330
17
100
AcDbEntity
  8
LED-REF
100
AcDbText
 10
93.1883
 20
339.3107
 30
0.0
 40
1.1
  1
LED123
 50
72.973
 72
1
 11
93.1883
 21
339.3107
 31
0.0
100
AcDbText
 73
2
  0
LWPOLYLINE
  5
149
330
17
100
AcDbEntity
  8
LED
100
AcDbPolyline
 90
5
 70
0
 10
105.67839102802891
 20
364.281471293786
 10
107.929428706214
 20
368.7460910280289
 10
103.4648089719711
 20
370.99712870621397
 10
101.21377129378601
 20
366.5325089719711
 10
105.67839102802891
 20
364.281471293786
  0
CIRCLE
  5
14A
330
17
100
AcDbEntity
  8
LED
100
AcDbCircle
 10
107.10328677726842
 20
369.10663161275977
 30
0.0
 40
0.45
  0
TEXT
  5
14B
330
17
100
AcDbEntity
  8
LED-REF
100
AcDbText
 10
104.5716
 20
367.6393
 30
0.0
 40
1.1
  1
LED124
 50
63.243
 72
1
 11
104.5716
 21
367.6393
 31
0.0
100
AcDbText
 73
2
  0
LWPOLYLINE
  5
14C
330
17
100
AcDbEntity
  8
LED
100
AcDbPolyline
 90
5
 70
0
 10
121.10223957383167
 20
390.1400286776119
 10
124.07537132238811
 20
394.1600395738316
 10
120.05536042616833
 20
397.1331713223881
 10
117.0822286776119
 20
393.11316042616835
 10
121.10223957383167
 20
390.1400286776119
  0
CIRCLE
  5
14D
330
17
100
AcDbEntity
  8
LED
100
AcDbCircle
 10
123.32203804358299
 20
394.6550031796096
 30
0.0
 40
0.45
  0
TEXT
  5
14E
330
17
100
AcDbEntity
  8
LED-REF
100
AcDbText
 10
120.5788
 20
393.6366
 30
0.0
 40
1.1
  1
LED125
 50
53.514
 72
1
 11
120.5788
 21
393.6366
 31
0.0
100
AcDbText
 73
2
  0
LWPOLYLINE
  5
14F
330
17
100
AcDbEntity
  8
LED
100
AcDbPolyline
 90
5
 70
0
 10
140.67427027654315
 20
413.0199623095061
 10
144.28403769049388
 20
416.4796702765432
 10
140.82432972345686
 20
420.0894376904939
 10
137.21456230950614
 20
416.6297297234569
 10
140.67427027654315
 20
413.0199623095061
  0
CIRCLE
  5
150
330
17
100
AcDbEntity
  8
LED
100
AcDbCircle
 10
143.6251925822877
 20
417.09483133138394
 30
0.0
 40
0.45
  0
TEXT
  5
151
330
17
100
AcDbEntity
  8
LED-REF
100
AcDbText
 10
140.7493
 20
416.5547
 30
0.0
 40
1.1
  1
LED126
 50
43.784
 72
1
 11
140.7493
 21
416.5547
 31
0.0
100
AcDbText
 73
2
  0
LWPOLYLINE
  5
152
330
17
100
AcDbEntity
  8
LED
100
AcDbPolyline
 90
5
 70
0
 10
163.8314595674205
 20
432.2630895449017
 10
167.97401045509835
 20
435.06295956742053
 10
165.17414043257952
 20
439.20551045509836
 10
161.03158954490166
 20
436.4056404325795
 10
163.8314595674205
 20
432.2630895449017
  0
CIRCLE
  5
153
330
17
100
AcDbEntity
  8
LED
100
AcDbCircle
 10
167.42860834216816
 20
435.7806200269773
 30
0.0
 40
0.45
  0
TEXT
  5
154
330
17
100
AcDbEntity
  8
LED-REF
100
AcDbText
 10
164.5028
 20
435.7343
 30
0.0
 40
1.1
  1
LED127
 50
34.054
 72
1
 11
164.5028
 21
435.7343
 31
0.0
100
AcDbText
 73
2
  0
LWPOLYLINE
  5
155
330
17
100
AcDbEntity
  8
LED
100
AcDbPolyline
 90
5
 70
0
 10
189.9077631706296
 20
447.31588271961135
 10
194.4639172803886
 20
449.3753631706296
 10
192.4044368293704
 20
453.9315172803886
 10
187.8482827196114
 20
451.87203682937036
 10
189.9077631706296
 20
447.31588271961135
  0
CIRCLE
  5
156
330
17
100
AcDbEntity
  8
LED
100
AcDbCircle
 10
194.04764925810775
 20
450.174876105876
 30
0.0
 40
0.45
  0
TEXT
  5
157
330
17
100
AcDbEntity
  8
LED-REF
100
AcDbText
 10
191.1561
 20
450.6237
 30
0.0
 40
1.1
  1
LED128
 50
24.324
 72
1
 11
191.1561
 21
450.6237
 31
0.0
100
AcDbText
 73
2
  0
LWPOLYLINE
  5
158
330
17
100
AcDbEntity
  8
LED
100
AcDbPolyline
 90
5
 70
0
 10
218.15283436182222
 20
457.7452098181858
 10
222.9914901818142
 20
459.00513436182223
 10
221.7315656381778
 20
463.84379018181426
 10
216.8929098181858
 20
462.5838656381778
 10
218.15283436182222
 20
457.7452098181858
  0
CIRCLE
  5
159
330
17
100
AcDbEntity
  8
LED
100
AcDbCircle
 10
222.71631720575974
 20
459.8634931639844
 30
0.0
 40
0.45
  0
TEXT
  5
15A
330
17
100
AcDbEntity
  8
LED-REF
100
AcDbText
 10
219.9422
 20
460.7945
 30
0.0
 40
1.1
  1
LED129
 50
14.595
 72
1
 11
219.9422
 21
460.7945
 31
0.0
100
AcDbText
 73
2
  0
LWPOLYLINE
  5
15B
330
17
100
AcDbEntity
  8
LED
100
AcDbPolyline
 90
5
 70
0
 10
282.5951669529664
 20
231.70896217847897
 10
277.76553782152104
 20
230.41486695296635
 10
279.0596330470336
 20
225.58523782152102
 10
283.889262178479
 20
226.87933304703364
 10
282.5951669529664
 20
231.70896217847897
  0
CIRCLE
  5
15C
330
17
100
AcDbEntity
  8
LED
100
AcDbCircle
 10
278.0467712534278
 20
229.55847466156132
 30
0.0
 40
0.45
  0
TEXT
  5
15D
330
17
100
AcDbEntity
  8
LED-REF
100
AcDbText
 10
280.8274
 20
228.6471
 30
0.0
 40
1.1
  1
LED13
 50
195.0
 72
1
 11
280.8274
 21
228.6471
 31
0.0
100
AcDbText
 73
2
  0
LWPOLYLINE
  5
15E
330
17
100
AcDbEntity
  8
LED
100
AcDbPolyline
 90
5
 70
0
 10
247.75422746502778
 20
463.25108609236975
 10
252.7362139076302
 20
463.6751274650278
 10
252.3121725349722
 20
468.6571139076302
 10
247.3301860923698
 20
468.23307253497217
 10
247.75422746502778
 20
463.25108609236975
  0
CIRCLE
  5
15F
330
17
100
AcDbEntity
  8
LED
100
AcDbCircle
 10
252.61006659612573
 20
464.56764461096964
 30
0.0
 40
0.45
  0
TEXT
  5
160
330
17
100
AcDbEntity
  8
LED-REF
100
AcDbText
 10
250.0332
 20
465.9541
 30
0.0
 40
1.1
  1
LED130
 50
4.865
 72
1
 11
250.0332
 21
465.9541
 31
0.0
100
AcDbText
 73
2
  0
LWPOLYLINE
  5
161
330
17
100
AcDbEntity
  8
LED
100
AcDbPolyline
 90
5
 70
0
 10
247.658455405315
 20
493.3665828800878
 10
252.6451171199122
 20
493.73155540531496
 10
252.280144594685
 20
498.7182171199122
 10
247.29348288008782
 20
498.353244594685
 10
247.658455405315
 20
493.3665828800878
  0
CIRCLE
  5
162
330
17
100
AcDbEntity
  8
LED
100
AcDbCircle
 10
252.52955544822532
 20
494.6255047886902
 30
0.0
 40
0.45
  0
TEXT
  5
163
330
17
100
AcDbEntity
  8
LED-REF
100
AcDbText
 10
249.9693
 20
496.0424
 30
0.0
 40
1.1
  1
LED131
 50
4.186
 72
1
 11
249.9693
 21
496.0424
 31
0.0
100
AcDbText
 73
2
  0
LWPOLYLINE
  5
164
330
17
100
AcDbEntity
  8
LED
100
AcDbPolyline
 90
5
 70
0
 10
217.74137847857776
 20
488.59473948607166
 10
222.62176051392834
 20
489.68187847857774
 10
221.53462152142225
 20
494.5622605139284
 10
216.65423948607167
 20
493.4751215214223
 10
217.74137847857776
 20
488.59473948607166
  0
CIRCLE
  5
165
330
17
100
AcDbEntity
  8
LED
100
AcDbCircle
 10
222.37727167492375
 20
490.5494758550158
 30
0.0
 40
0.45
  0
TEXT
  5
166
330
17
100
AcDbEntity
  8
LED-REF
100
AcDbText
 10
219.638
 20
491.5785
 30
0.0
 40
1.1
  1
LED132
 50
12.558
 72
1
 11
219.638
 21
491.5785
 31
0.0
100
AcDbText
 73
2
  0
LWPOLYLINE
  5
167
330
17
100
AcDbEntity
  8
LED
100
AcDbPolyline
 90
5
 70
0
 10
188.83782385006032
 20
479.51788835648375
 10
193.50791164351625
 20
481.30402385006033
 10
191.72177614993967
 20
485.9741116435162
 10
187.05168835648374
 20
484.18797614993963
 10
188.83782385006032
 20
479.51788835648375
  0
CIRCLE
  5
168
330
17
100
AcDbEntity
  8
LED
100
AcDbCircle
 10
193.1397063767379
 20
482.1267782979466
 30
0.0
 40
0.45
  0
TEXT
  5
169
330
17
100
AcDbEntity
  8
LED-REF
100
AcDbText
 10
190.2798
 20
482.746
 30
0.0
 40
1.1
  1
LED133
 50
20.93
 72
1
 11
190.2798
 21
482.746
 31
0.0
100
AcDbText
 73
2
  0
LWPOLYLINE
  5
16A
330
17
100
AcDbEntity
  8
LED
100
AcDbPolyline
 90
5
 70
0
 10
161.56400175795062
 20
466.3293372958961
 10
165.92426270410394
 20
468.7764017579506
 10
163.47719824204938
 20
473.1366627041039
 10
159.11693729589607
 20
470.6895982420494
 10
161.56400175795062
 20
466.3293372958961
  0
CIRCLE
  5
16B
330
17
100
AcDbEntity
  8
LED
100
AcDbCircle
 10
165.44018849147258
 20
469.53677808363767
 30
0.0
 40
0.45
  0
TEXT
  5
16C
330
17
100
AcDbEntity
  8
LED-REF
100
AcDbText
 10
162.5206
 20
469.733
 30
0.0
 40
1.1
  1
LED134
 50
29.302
 72
1
 11
162.5206
 21
469.733
 31
0.0
100
AcDbText
 73
2
  0
LWPOLYLINE
  5
16D
330
17
100
AcDbEntity
  8
LED
100
AcDbPolyline
 90
5
 70
0
 10
136.50096744430908
 20
449.3102277873845
 10
140.45847221261542
 20
452.36606744430907
 10
137.4026325556909
 20
456.32357221261543
 10
133.44512778738456
 20
453.2677325556909
 10
136.50096744430908
 20
449.3102277873845
  0
CIRCLE
  5
16E
330
17
100
AcDbEntity
  8
LED
100
AcDbCircle
 10
139.86884602668596
 20
453.04785990603494
 30
0.0
 40
0.45
  0
TEXT
  5
16F
330
17
100
AcDbEntity
  8
LED-REF
100
AcDbText
 10
136.9518
 20
452.8169
 30
0.0
 40
1.1
  1
LED135
 50
37.674
 72
1
 11
136.9518
 21
452.8169
 31
0.0
100
AcDbText
 73
2
  0
LWPOLYLINE
  5
170
330
17
100
AcDbEntity
  8
LED
100
AcDbPolyline
 90
5
 70
0
 10
114.18320332714823
 20
428.82325637808447
 10
117.65354362191555
 20
432.42280332714824
 10
114.05399667285177
 20
435.89314362191556
 10
110.58365637808446
 20
432.2935966728518
 10
114.18320332714823
 20
428.82325637808447
  0
CIRCLE
  5
171
330
17
100
AcDbEntity
  8
LED
100
AcDbCircle
 10
116.97092176813639
 20
433.0114691107157
 30
0.0
 40
0.45
  0
TEXT
  5
172
330
17
100
AcDbEntity
  8
LED-REF
100
AcDbText
 10
114.1186
 20
432.3582
 30
0.0
 40
1.1
  1
LED136
 50
46.047
 72
1
 11
114.1186
 21
432.3582
 31
0.0
100
AcDbText
 73
2
  0
LWPOLYLINE
  5
173
330
17
100
AcDbEntity
  8
LED
100
AcDbPolyline
 90
5
 70
0
 10
95.08610112972904
 20
405.30513235161135
 10
97.99536764838865
 20
409.3716011297291
 10
93.92889887027094
 20
412.28086764838866
 10
91.01963235161134
 20
408.21439887027094
 10
95.08610112972904
 20
405.30513235161135
  0
CIRCLE
  5
174
330
17
100
AcDbEntity
  8
LED
100
AcDbCircle
 10
97.23431060314087
 20
409.8546044153066
 30
0.0
 40
0.45
  0
TEXT
  5
175
330
17
100
AcDbEntity
  8
LED-REF
100
AcDbText
 10
94.5075
 20
408.793
 30
0.0
 40
1.1
  1
LED137
 50
54.419
 72
1
 11
94.5075
 21
408.793
 31
0.0
100
AcDbText
 73
2
  0
LWPOLYLINE
  5
176
330
17
100
AcDbEntity
  8
LED
100
AcDbPolyline
 90
5
 70
0
 10
79.61666732732066
 20
379.25704451959876
 10
81.90285548040123
 20
383.70376732732063
 10
77.45613267267935
 20
385.9899554804012
 10
75.16994451959877
 20
381.5432326726793
 10
79.61666732732066
 20
379.25704451959876
  0
CIRCLE
  5
177
330
17
100
AcDbEntity
  8
LED
100
AcDbCircle
 10
81.07958349348048
 20
384.0708139667979
 30
0.0
 40
0.45
  0
TEXT
  5
178
330
17
100
AcDbEntity
  8
LED-REF
100
AcDbText
 10
78.5364
 20
382.6235
 30
0.0
 40
1.1
  1
LED138
 50
62.791
 72
1
 11
78.5364
 21
382.6235
 31
0.0
100
AcDbText
 73
2
  0
LWPOLYLINE
  5
179
330
17
100
AcDbEntity
  8
LED
100
AcDbPolyline
 90
5
 70
0
 10
68.10481001306823
 20
351.23420524987745
 10
69.7191947501226
 20
355.96641001306824
 10
64.98698998693177
 20
357.5807947501226
 10
63.37260524987741
 20
352.8485899869318
 10
68.10481001306823
 20
351.23420524987745
  0
CIRCLE
  5
17A
330
17
100
AcDbEntity
  8
LED
100
AcDbCircle
 10
68.85125404537771
 20
356.20967721810615
 30
0.0
 40
0.45
  0
TEXT
  5
17B
330
17
100
AcDbEntity
  8
LED-REF
100
AcDbText
 10
66.5459
 20
354.4075
 30
0.0
 40
1.1
  1
LED139
 50
71.163
 72
1
 11
66.5459
 21
354.4075
 31
0.0
100
AcDbText
 73
2
  0
LWPOLYLINE
  5
17C
330
17
100
AcDbEntity
  8
LED
100
AcDbPolyline
 90
5
 70
0
 10
252.831062178479
 20
230.41486695296635
 10
248.00143304703366
 20
231.70896217847897
 10
246.70733782152104
 20
226.87933304703364
 10
251.53696695296637
 20
225.58523782152102
 10
252.831062178479
 20
230.41486695296635
  0
CIRCLE
  5
17D
330
17
100
AcDbEntity
  8
LED
100
AcDbCircle
 10
247.81679219775583
 20
230.82668798256367
 30
0.0
 40
0.45
  0
TEXT
  5
17E
330
17
100
AcDbEntity
  8
LED-REF
100
AcDbText
 10
249.7692
 20
228.6471
 30
0.0
 40
1.1
  1
LED14
 50
165.0
 72
1
 11
249.7692
 21
228.6471
 31
0.0
100
AcDbText
 73
2
  0
LWPOLYLINE
  5
17F
330
17
100
AcDbEntity
  8
LED
100
AcDbPolyline
 90
5
 70
0
 10
60.795827975414525
 20
321.8337977481604
 10
61.7040022518396
 20
326.75062797541455
 10
56.78717202458547
 20
327.65880225183963
 10
55.8789977481604
 20
322.7419720245855
 10
60.795827975414525
 20
321.8337977481604
  0
CIRCLE
  5
180
330
17
100
AcDbEntity
  8
LED
100
AcDbCircle
 10
60.809891068169605
 20
326.8649310428985
 30
0.0
 40
0.45
  0
TEXT
  5
181
330
17
100
AcDbEntity
  8
LED-REF
100
AcDbText
 10
58.7915
 20
324.7463
 30
0.0
 40
1.1
  1
LED140
 50
79.535
 72
1
 11
58.7915
 21
324.7463
 31
0.0
100
AcDbText
 73
2
  0
LWPOLYLINE
  5
182
330
17
100
AcDbEntity
  8
LED
100
AcDbPolyline
 90
5
 70
0
 10
57.845428114390444
 20
291.68256379841995
 10
58.02803620158006
 20
296.67922811439047
 10
53.03137188560956
 20
296.86183620158005
 10
52.848763798419945
 20
291.8651718856095
 10
57.845428114390444
 20
291.68256379841995
  0
CIRCLE
  5
183
330
17
100
AcDbEntity
  8
LED
100
AcDbCircle
 10
57.12681054383347
 20
296.6621309269249
 30
0.0
 40
0.45
  0
TEXT
  5
184
330
17
100
AcDbEntity
  8
LED-REF
100
AcDbText
 10
55.4384
 20
294.2722
 30
0.0
 40
1.1
  1
LED141
 50
87.907
 72
1
 11
55.4384
 21
294.2722
 31
0.0
100
AcDbText
 73
2
  0
LWPOLYLINE
  5
185
330
17
100
AcDbEntity
  8
LED
100
AcDbPolyline
 90
5
 70
0
 10
59.31652776607121
 20
261.4230222239841
 10
58.7696777760159
 20
266.3930277660712
 10
53.799672233928796
 20
265.84617777601585
 10
54.34652222398411
 20
260.87617223392874
 10
59.31652776607121
 20
261.4230222239841
  0
CIRCLE
  5
186
330
17
100
AcDbEntity
  8
LED
100
AcDbCircle
 10
57.88054527834077
 20
266.2448947124404
 30
0.0
 40
0.45
  0
TEXT
  5
187
330
17
100
AcDbEntity
  8
LED-REF
100
AcDbText
 10
56.5581
 20
263.6346
 30
0.0
 40
1.1
  1
LED142
 50
96.279
 72
1
 11
56.5581
 21
263.6346
 31
0.0
100
AcDbText
 73
2
  0
LWPOLYLINE
  5
188
330
17
100
AcDbEntity
  8
LED
100
AcDbPolyline
 90
5
 70
0
 10
65.17773762309942
 20
231.70021554461763
 10
63.91308445538238
 20
236.53763762309944
 10
59.075662376900574
 20
235.27298445538239
 10
60.34031554461762
 20
230.43556237690058
 10
65.17773762309942
 20
231.70021554461763
  0
CIRCLE
  5
189
330
17
100
AcDbEntity
  8
LED
100
AcDbCircle
 10
63.05499501293283
 20
236.26162583212556
 30
0.0
 40
0.45
  0
TEXT
  5
18A
330
17
100
AcDbEntity
  8
LED-REF
100
AcDbText
 10
62.1267
 20
233.4866
 30
0.0
 40
1.1
  1
LED143
 50
104.651
 72
1
 11
62.1267
 21
233.4866
 31
0.0
100
AcDbText
 73
2
  0
LWPOLYLINE
  5
18B
330
17
100
AcDbEntity
  8
LED
100
AcDbPolyline
 90
5
 70
0
 10
75.304221352728
 20
203.14748170391456
 10
73.34871829608541
 20
207.749221352728
 10
68.74697864727199
 20
205.79371829608542
 10
70.70248170391459
 20
201.19197864727198
 10
75.304221352728
 20
203.14748170391456
  0
CIRCLE
  5
18C
330
17
100
AcDbEntity
  8
LED
100
AcDbCircle
 10
72.53996018986543
 20
207.3512134060442
 30
0.0
 40
0.45
  0
TEXT
  5
18D
330
17
100
AcDbEntity
  8
LED-REF
100
AcDbText
 10
72.0256
 20
204.4706
 30
0.0
 40
1.1
  1
LED144
 50
113.023
 72
1
 11
72.0256
 21
204.4706
 31
0.0
100
AcDbText
 73
2
  0
LWPOLYLINE
  5
18E
330
17
100
AcDbEntity
  8
LED
100
AcDbPolyline
 90
5
 70
0
 10
89.48002851047707
 20
176.37344720701336
 10
86.87535279298663
 20
180.64142851047706
 10
82.60737148952293
 20
178.03675279298662
 10
85.21204720701337
 20
173.76877148952292
 10
89.48002851047707
 20
176.37344720701336
  0
CIRCLE
  5
18F
330
17
100
AcDbEntity
  8
LED
100
AcDbCircle
 10
86.13316291553808
 20
180.12990706829413
 30
0.0
 40
0.45
  0
TEXT
  5
190
330
17
100
AcDbEntity
  8
LED-REF
100
AcDbText
 10
86.0437
 20
177.2051
 30
0.0
 40
1.1
  1
LED145
 50
121.395
 72
1
 11
86.0437
 21
177.2051
 31
0.0
100
AcDbText
 73
2
  0
LWPOLYLINE
  5
191
330
17
100
AcDbEntity
  8
LED
100
AcDbPolyline
 90
5
 70
0
 10
107.40319791664368
 20
151.94883755232962
 10
104.2048624476704
 20
155.79209791664366
 10
100.36160208335633
 20
152.59376244767037
 10
103.55993755232961
 20
148.75050208335634
 10
107.40319791664368
 20
151.94883755232962
  0
CIRCLE
  5
192
330
17
100
AcDbEntity
  8
LED
100
AcDbCircle
 10
103.54505893678359
 20
155.17796492858534
 30
0.0
 40
0.45
  0
TEXT
  5
193
330
17
100
AcDbEntity
  8
LED-REF
100
AcDbText
 10
103.8824
 20
152.2713
 30
0.0
 40
1.1
  1
LED146
 50
129.767
 72
1
 11
103.8824
 21
152.2713
 31
0.0
100
AcDbText
 73
2
  0
LWPOLYLINE
  5
194
330
17
100
AcDbEntity
  8
LED
100
AcDbPolyline
 90
5
 70
0
 10
128.69152591291925
 20
130.39406208651513
 10
124.96763791348486
 20
133.73062591291927
 10
121.63107408708073
 20
130.00673791348487
 10
125.35496208651513
 20
126.67017408708074
 10
128.69152591291925
 20
130.39406208651513
  0
CIRCLE
  5
195
330
17
100
AcDbEntity
  8
LED
100
AcDbCircle
 10
124.40429530472647
 20
133.02696043475703
 30
0.0
 40
0.45
  0
TEXT
  5
196
330
17
100
AcDbEntity
  8
LED-REF
100
AcDbText
 10
125.1613
 20
130.2004
 30
0.0
 40
1.1
  1
LED147
 50
138.14
 72
1
 11
125.1613
 21
130.2004
 31
0.0
100
AcDbText
 73
2
  0
LWPOLYLINE
  5
197
330
17
100
AcDbEntity
  8
LED
100
AcDbPolyline
 90
5
 70
0
 10
152.89150931439718
 20
112.16869769154803
 10
148.72150230845196
 20
114.9275093143972
 10
145.9626906856028
 20
110.75750230845196
 10
150.13269769154803
 20
107.9986906856028
 10
152.89150931439718
 20
112.16869769154803
  0
CIRCLE
  5
198
330
17
100
AcDbEntity
  8
LED
100
AcDbCircle
 10
148.26661628639857
 20
114.14931993709857
 30
0.0
 40
0.45
  0
TEXT
  5
199
330
17
100
AcDbEntity
  8
LED-REF
100
AcDbText
 10
149.4271
 20
111.4631
 30
0.0
 40
1.1
  1
LED148
 50
146.512
 72
1
 11
149.4271
 21
111.4631
 31
0.0
100
AcDbText
 73
2
  0
LWPOLYLINE
  5
19A
330
17
100
AcDbEntity
  8
LED
100
AcDbPolyline
 90
5
 70
0
 10
179.48715648398573
 20
97.66099504040339
 10
174.9599049595966
 20
99.78325648398574
 10
172.83764351601425
 20
95.25600495959661
 10
177.36489504040338
 20
93.13374351601426
 10
179.48715648398573
 20
97.66099504040339
  0
CIRCLE
  5
19B
330
17
100
AcDbEntity
  8
LED
100
AcDbCircle
 10
174.62317041499566
 20
98.94712859515987
 30
0.0
 40
0.45
  0
TEXT
  5
19C
330
17
100
AcDbEntity
  8
LED-REF
100
AcDbText
 10
176.1624
 20
96.4585
 30
0.0
 40
1.1
  1
LED149
 50
154.884
 72
1
 11
176.1624
 21
96.4585
 31
0.0
100
AcDbText
 73
2
  0
LWPOLYLINE
  5
19D
330
17
100
AcDbEntity
  8
LED
100
AcDbPolyline
 90
5
 70
0
 10
226.40743390593275
 20
244.1762
 10
222.8719
 20
247.71173390593273
 10
219.33636609406727
 20
244.1762
 10
222.8719
 20
240.64066609406726
 10
226.40743390593275
 20
244.1762
  0
CIRCLE
  5
19E
330
17
100
AcDbEntity
  8
LED
100
AcDbCircle
 10
222.27085923599145
 20
247.0399824638055
 30
0.0
 40
0.45
  0
TEXT
  5
19F
330
17
100
AcDbEntity
  8
LED-REF
100
AcDbText
 10
222.8719
 20
244.1762
 30
0.0
 40
1.1
  1
LED15
 50
135.0
 72
1
 11
222.8719
 21
244.1762
 31
0.0
100
AcDbText
 73
2
  0
LWPOLYLINE
  5
1A0
330
17
100
AcDbEntity
  8
LED
100
AcDbPolyline
 90
5
 70
0
 10
207.91174381328142
 20
87.18026386370316
 10
203.12373613629686
 20
88.6207438132814
 10
201.6832561867186
 20
83.83273613629684
 10
206.47126386370317
 20
82.39225618671861
 10
207.91174381328142
 20
87.18026386370316
  0
CIRCLE
  5
1A1
330
17
100
AcDbEntity
  8
LED
100
AcDbCircle
 10
202.91232982214262
 20
87.7444976319284
 30
0.0
 40
0.45
  0
TEXT
  5
1A2
330
17
100
AcDbEntity
  8
LED-REF
100
AcDbText
 10
204.7975
 20
85.5065
 30
0.0
 40
1.1
  1
LED150
 50
163.256
 72
1
 11
204.7975
 21
85.5065
 31
0.0
100
AcDbText
 73
2
  0
LWPOLYLINE
  5
1A3
330
17
100
AcDbEntity
  8
LED
100
AcDbPolyline
 90
5
 70
0
 10
237.55945791485192
 20
80.94986010747981
 10
232.6127398925202
 20
81.67785791485191
 10
231.8847420851481
 20
76.7311398925202
 10
236.8314601074798
 20
76.0031420851481
 10
237.55945791485192
 20
80.94986010747981
  0
CIRCLE
  5
1A4
330
17
100
AcDbEntity
  8
LED
100
AcDbCircle
 10
232.53116746741654
 20
80.7801686927585
 30
0.0
 40
0.45
  0
TEXT
  5
1A5
330
17
100
AcDbEntity
  8
LED-REF
100
AcDbText
 10
234.7221
 20
78.8405
 30
0.0
 40
1.1
  1
LED151
 50
171.628
 72
1
 11
234.7221
 21
78.8405
 31
0.0
100
AcDbText
 73
2
  0
LWPOLYLINE
  5
1A6
330
17
100
AcDbEntity
  8
LED
100
AcDbPolyline
 90
5
 70
0
 10
267.7983
 20
79.1026
 10
262.7983
 20
79.1026
 10
262.7983
 20
74.1026
 10
267.7983
 20
74.1026
 10
267.7983
 20
79.1026
  0
CIRCLE
  5
1A7
330
17
100
AcDbEntity
  8
LED
100
AcDbCircle
 10
262.8483
 20
78.20259999999999
 30
0.0
 40
0.45
  0
TEXT
  5
1A8
330
17
100
AcDbEntity
  8
LED-REF
100
AcDbText
 10
265.2983
 20
76.6026
 30
0.0
 40
1.1
  1
LED152
 50
180.0
 72
1
 11
265.2983
 21
76.6026
 31
0.0
100
AcDbText
 73
2
  0
LWPOLYLINE
  5
1A9
330
17
100
AcDbEntity
  8
LED
100
AcDbPolyline
 90
5
 70
0
 10
297.9838601074798
 20
81.67785791485191
 10
293.0371420851481
 20
80.94986010747981
 10
293.7651398925202
 20
76.0031420851481
 10
298.7118579148519
 20
76.7311398925202
 10
297.9838601074798
 20
81.67785791485191
  0
CIRCLE
  5
1AA
330
17
100
AcDbEntity
  8
LED
100
AcDbCircle
 10
293.2176488706984
 20
80.06673084153383
 30
0.0
 40
0.45
  0
TEXT
  5
1AB
330
17
100
AcDbEntity
  8
LED-REF
100
AcDbText
 10
295.8745
 20
78.8405
 30
0.0
 40
1.1
  1
LED153
 50
188.372
 72
1
 11
295.8745
 21
78.8405
 31
0.0
100
AcDbText
 73
2
  0
LWPOLYLINE
  5
1AC
330
17
100
AcDbEntity
  8
LED
100
AcDbPolyline
 90
5
 70
0
 10
327.4728638637032
 20
88.6207438132814
 10
322.6848561867186
 20
87.18026386370316
 10
324.1253361362968
 20
82.39225618671861
 10
328.9133438132814
 20
83.83273613629684
 10
327.4728638637032
 20
88.6207438132814
  0
CIRCLE
  5
1AD
330
17
100
AcDbEntity
  8
LED
100
AcDbCircle
 10
322.99202265441255
 20
86.33282728134174
 30
0.0
 40
0.45
  0
TEXT
  5
1AE
330
17
100
AcDbEntity
  8
LED-REF
100
AcDbText
 10
325.7991
 20
85.5065
 30
0.0
 40
1.1
  1
LED154
 50
196.744
 72
1
 11
325.7991
 21
85.5065
 31
0.0
100
AcDbText
 73
2
  0
LWPOLYLINE
  5
1AF
330
17
100
AcDbEntity
  8
LED
100
AcDbPolyline
 90
5
 70
0
 10
355.63669504040337
 20
99.78325648398574
 10
351.1094435160142
 20
97.66099504040339
 10
353.2317049595966
 20
93.13374351601426
 10
357.75895648398574
 20
95.25600495959661
 10
355.63669504040337
 20
99.78325648398574
  0
CIRCLE
  5
1B0
330
17
100
AcDbEntity
  8
LED
100
AcDbCircle
 10
351.53672309110294
 20
96.86731238044918
 30
0.0
 40
0.45
  0
TEXT
  5
1B1
330
17
100
AcDbEntity
  8
LED-REF
100
AcDbText
 10
354.4342
 20
96.4585
 30
0.0
 40
1.1
  1
LED155
 50
205.116
 72
1
 11
354.4342
 21
96.4585
 31
0.0
100
AcDbText
 73
2
  0
LWPOLYLINE
  5
1B2
330
17
100
AcDbEntity
  8
LED
100
AcDbPolyline
 90
5
 70
0
 10
381.87509769154804
 20
114.9275093143972
 10
377.70509068560284
 20
112.16869769154803
 10
380.463902308452
 20
107.9986906856028
 10
384.6339093143972
 20
110.75750230845196
 10
381.87509769154804
 20
114.9275093143972
  0
CIRCLE
  5
1B3
330
17
100
AcDbEntity
  8
LED
100
AcDbCircle
 10
378.24337684777515
 20
111.44568454670639
 30
0.0
 40
0.45
  0
TEXT
  5
1B4
330
17
100
AcDbEntity
  8
LED-REF
100
AcDbText
 10
381.1695
 20
111.4631
 30
0.0
 40
1.1
  1
LED156
 50
213.488
 72
1
 11
381.1695
 21
111.4631
 31
0.0
100
AcDbText
 73
2
  0
LWPOLYLINE
  5
1B5
330
17
100
AcDbEntity
  8
LED
100
AcDbPolyline
 90
5
 70
0
 10
405.62886208651514
 20
133.73062591291927
 10
401.90497408708075
 20
130.39406208651513
 10
405.2415379134849
 20
126.67017408708074
 10
408.9654259129193
 20
130.00673791348487
 10
405.62886208651514
 20
133.73062591291927
  0
CIRCLE
  5
1B6
330
17
100
AcDbEntity
  8
LED
100
AcDbCircle
 10
402.54279445582785
 20
129.757127884881
 30
0.0
 40
0.45
  0
TEXT
  5
1B7
330
17
100
AcDbEntity
  8
LED-REF
100
AcDbText
 10
405.4352
 20
130.2004
 30
0.0
 40
1.1
  1
LED157
 50
221.86
 72
1
 11
405.4352
 21
130.2004
 31
0.0
100
AcDbText
 73
2
  0
LWPOLYLINE
  5
1B8
330
17
100
AcDbEntity
  8
LED
100
AcDbPolyline
 90
5
 70
0
 10
426.39173755232963
 20
155.79209791664366
 10
423.1934020833563
 20
151.94883755232962
 10
427.0366624476704
 20
148.75050208335634
 10
430.2349979166437
 20
152.59376244767037
 10
426.39173755232963
 20
155.79209791664366
  0
CIRCLE
  5
1B9
330
17
100
AcDbEntity
  8
LED
100
AcDbCircle
 10
423.9171723036226
 20
151.41156977155757
 30
0.0
 40
0.45
  0
TEXT
  5
1BA
330
17
100
AcDbEntity
  8
LED-REF
100
AcDbText
 10
426.7142
 20
152.2713
 30
0.0
 40
1.1
  1
LED158
 50
230.233
 72
1
 11
426.7142
 21
152.2713
 31
0.0
100
AcDbText
 73
2
  0
LWPOLYLINE
  5
1BB
330
17
100
AcDbEntity
  8
LED
100
AcDbPolyline
 90
5
 70
0
 10
443.72114720701336
 20
180.64142851047706
 10
441.11647148952295
 20
176.37344720701336
 10
445.3844527929866
 20
173.76877148952292
 10
447.98912851047703
 20
178.03675279298662
 10
443.72114720701336
 20
180.64142851047706
  0
CIRCLE
  5
1BC
330
17
100
AcDbEntity
  8
LED
100
AcDbCircle
 10
441.9107548813213
 20
175.9472853908997
 30
0.0
 40
0.45
  0
TEXT
  5
1BD
330
17
100
AcDbEntity
  8
LED-REF
100
AcDbText
 10
444.5528
 20
177.2051
 30
0.0
 40
1.1
  1
LED159
 50
238.60500000000002
 72
1
 11
444.5528
 21
177.2051
 31
0.0
100
AcDbText
 73
2
  0
LWPOLYLINE
  5
1BE
330
17
100
AcDbEntity
  8
LED
100
AcDbPolyline
 90
5
 70
0
 10
210.40456217847898
 20
269.30573304703364
 10
209.11046695296636
 20
274.135362178479
 10
204.28083782152103
 20
272.8412669529664
 10
205.57493304703365
 20
268.01163782152105
 10
210.40456217847898
 20
269.30573304703364
  0
CIRCLE
  5
1BF
330
17
100
AcDbEntity
  8
LED
100
AcDbCircle
 10
208.25407466156133
 20
273.85412874657226
 30
0.0
 40
0.45
  0
TEXT
  5
1C0
330
17
100
AcDbEntity
  8
LED-REF
100
AcDbText
 10
207.3427
 20
271.0735
 30
0.0
 40
1.1
  1
LED16
 50
105.0
 72
1
 11
207.3427
 21
271.0735
 31
0.0
100
AcDbText
 73
2
  0
LWPOLYLINE
  5
1C1
330
17
100
AcDbEntity
  8
LED
100
AcDbPolyline
 90
5
 70
0
 10
457.24788170391463
 20
207.749221352728
 10
455.292378647272
 20
203.14748170391456
 10
459.8941182960854
 20
201.19197864727198
 10
461.84962135272804
 20
205.79371829608542
 10
457.24788170391463
 20
207.749221352728
  0
CIRCLE
  5
1C2
330
17
100
AcDbEntity
  8
LED
100
AcDbCircle
 10
456.14024681462485
 20
202.84150855020704
 30
0.0
 40
0.45
  0
TEXT
  5
1C3
330
17
100
AcDbEntity
  8
LED-REF
100
AcDbText
 10
458.571
 20
204.4706
 30
0.0
 40
1.1
  1
LED160
 50
246.977
 72
1
 11
458.571
 21
204.4706
 31
0.0
100
AcDbText
 73
2
  0
LWPOLYLINE
  5
1C4
330
17
100
AcDbEntity
  8
LED
100
AcDbPolyline
 90
5
 70
0
 10
466.6835155446176
 20
236.53763762309944
 10
465.41886237690056
 20
231.70021554461763
 10
470.2562844553824
 20
230.43556237690058
 10
471.5209376230994
 20
235.27298445538239
 10
466.6835155446176
 20
236.53763762309944
  0
CIRCLE
  5
1C5
330
17
100
AcDbEntity
  8
LED
100
AcDbCircle
 10
466.3022448827045
 20
231.52095219521337
 30
0.0
 40
0.45
  0
TEXT
  5
1C6
330
17
100
AcDbEntity
  8
LED-REF
100
AcDbText
 10
468.4699
 20
233.4866
 30
0.0
 40
1.1
  1
LED161
 50
255.349
 72
1
 11
468.4699
 21
233.4866
 31
0.0
100
AcDbText
 73
2
  0
LWPOLYLINE
  5
1C7
330
17
100
AcDbEntity
  8
LED
100
AcDbPolyline
 90
5
 70
0
 10
471.8269222239841
 20
266.3930277660712
 10
471.28007223392876
 20
261.4230222239841
 10
476.25007777601587
 20
260.87617223392874
 10
476.79692776607124
 20
265.84617777601585
 10
471.8269222239841
 20
266.3930277660712
  0
CIRCLE
  5
1C8
330
17
100
AcDbEntity
  8
LED
100
AcDbCircle
 10
472.180141731405
 20
261.374289281195
 30
0.0
 40
0.45
  0
TEXT
  5
1C9
330
17
100
AcDbEntity
  8
LED-REF
100
AcDbText
 10
474.0385
 20
263.6346
 30
0.0
 40
1.1
  1
LED162
 50
263.721
 72
1
 11
474.0385
 21
263.6346
 31
0.0
100
AcDbText
 73
2
  0
LWPOLYLINE
  5
1CA
330
17
100
AcDbEntity
  8
LED
100
AcDbPolyline
 90
5
 70
0
 10
472.56856379842
 20
296.67922811439047
 10
472.75117188560955
 20
291.68256379841995
 10
477.74783620158007
 20
291.8651718856095
 10
477.5652281143905
 20
296.86183620158005
 10
472.56856379842
 20
296.67922811439047
  0
CIRCLE
  5
1CB
330
17
100
AcDbEntity
  8
LED
100
AcDbCircle
 10
473.6487453816124
 20
291.76539989727377
 30
0.0
 40
0.45
  0
TEXT
  5
1CC
330
17
100
AcDbEntity
  8
LED-REF
100
AcDbText
 10
475.1582
 20
294.2722
 30
0.0
 40
1.1
  1
LED163
 50
272.093
 72
1
 11
475.1582
 21
294.2722
 31
0.0
100
AcDbText
 73
2
  0
LWPOLYLINE
  5
1CD
330
17
100
AcDbEntity
  8
LED
100
AcDbPolyline
 90
5
 70
0
 10
468.89259774816037
 20
326.75062797541455
 10
469.80077202458546
 20
321.8337977481604
 10
474.7176022518396
 20
322.7419720245855
 10
473.8094279754145
 20
327.65880225183963
 10
468.89259774816037
 20
326.75062797541455
  0
CIRCLE
  5
1CE
330
17
100
AcDbEntity
  8
LED
100
AcDbCircle
 10
470.67671972272694
 20
322.0464374201895
 30
0.0
 40
0.45
  0
TEXT
  5
1CF
330
17
100
AcDbEntity
  8
LED-REF
100
AcDbText
 10
471.8051
 20
324.7463
 30
0.0
 40
1.1
  1
LED164
 50
280.46500000000003
 72
1
 11
471.8051
 21
324.7463
 31
0.0
100
AcDbText
 73
2
  0
LWPOLYLINE
  5
1D0
330
17
100
AcDbEntity
  8
LED
100
AcDbPolyline
 90
5
 70
0
 10
460.8774052498774
 20
355.96641001306824
 10
462.4917899869318
 20
351.23420524987745
 10
467.2239947501226
 20
352.8485899869318
 10
465.6096100130682
 20
357.5807947501226
 10
460.8774052498774
 20
355.96641001306824
  0
CIRCLE
  5
1D1
330
17
100
AcDbEntity
  8
LED
100
AcDbCircle
 10
463.3274429969356
 20
351.57211655017915
 30
0.0
 40
0.45
  0
TEXT
  5
1D2
330
17
100
AcDbEntity
  8
LED-REF
100
AcDbText
 10
464.0507
 20
354.4075
 30
0.0
 40
1.1
  1
LED165
 50
288.837
 72
1
 11
464.0507
 21
354.4075
 31
0.0
100
AcDbText
 73
2
  0
LWPOLYLINE
  5
1D3
330
17
100
AcDbEntity
  8
LED
100
AcDbPolyline
 90
5
 70
0
 10
448.69364451959876
 20
383.70376732732063
 10
450.9798326726793
 20
379.25704451959876
 10
455.4265554804012
 20
381.5432326726793
 10
453.14036732732063
 20
385.9899554804012
 10
448.69364451959876
 20
383.70376732732063
  0
CIRCLE
  5
1D4
330
17
100
AcDbEntity
  8
LED
100
AcDbCircle
 10
451.75738089653845
 20
379.7130256152305
 30
0.0
 40
0.45
  0
TEXT
  5
1D5
330
17
100
AcDbEntity
  8
LED-REF
100
AcDbText
 10
452.0601
 20
382.6235
 30
0.0
 40
1.1
  1
LED166
 50
297.209
 72
1
 11
452.0601
 21
382.6235
 31
0.0
100
AcDbText
 73
2
  0
LWPOLYLINE
  5
1D6
330
17
100
AcDbEntity
  8
LED
100
AcDbPolyline
 90
5
 70
0
 10
432.6012323516113
 20
409.3716011297291
 10
435.5104988702709
 20
405.30513235161135
 10
439.57696764838863
 20
408.21439887027094
 10
436.66770112972904
 20
412.28086764838866
 10
432.6012323516113
 20
409.3716011297291
  0
CIRCLE
  5
1D7
330
17
100
AcDbEntity
  8
LED
100
AcDbCircle
 10
436.2133705851455
 20
405.8694650127513
 30
0.0
 40
0.45
  0
TEXT
  5
1D8
330
17
100
AcDbEntity
  8
LED-REF
100
AcDbText
 10
436.0891
 20
408.793
 30
0.0
 40
1.1
  1
LED167
 50
305.581
 72
1
 11
436.0891
 21
408.793
 31
0.0
100
AcDbText
 73
2
  0
LWPOLYLINE
  5
1D9
330
17
100
AcDbEntity
  8
LED
100
AcDbPolyline
 90
5
 70
0
 10
412.94305637808446
 20
432.42280332714824
 10
416.4133966728518
 20
428.82325637808447
 10
420.01294362191555
 20
432.2935966728518
 10
416.54260332714824
 20
435.89314362191556
 10
412.94305637808446
 20
432.42280332714824
  0
CIRCLE
  5
1DA
330
17
100
AcDbEntity
  8
LED
100
AcDbCircle
 10
417.02661172073556
 20
429.48391310063323
 30
0.0
 40
0.45
  0
TEXT
  5
1DB
330
17
100
AcDbEntity
  8
LED-REF
100
AcDbText
 10
416.478
 20
432.3582
 30
0.0
 40
1.1
  1
LED168
 50
313.953
 72
1
 11
416.478
 21
432.3582
 31
0.0
100
AcDbText
 73
2
  0
LWPOLYLINE
  5
1DC
330
17
100
AcDbEntity
  8
LED
100
AcDbPolyline
 90
5
 70
0
 10
390.1381277873845
 20
452.36606744430907
 10
394.0956325556909
 20
449.3102277873845
 10
397.15147221261543
 20
453.2677325556909
 10
393.19396744430907
 20
456.32357221261543
 10
390.1381277873845
 20
452.36606744430907
  0
CIRCLE
  5
1DD
330
17
100
AcDbEntity
  8
LED
100
AcDbCircle
 10
394.60610864625426
 20
450.0531370422489
 30
0.0
 40
0.45
  0
TEXT
  5
1DE
330
17
100
AcDbEntity
  8
LED-REF
100
AcDbText
 10
393.6448
 20
452.8169
 30
0.0
 40
1.1
  1
LED169
 50
322.326
 72
1
 11
393.6448
 21
452.8169
 31
0.0
100
AcDbText
 73
2
  0
LWPOLYLINE
  5
1DF
330
17
100
AcDbEntity
  8
LED
100
AcDbPolyline
 90
5
 70
0
 10
209.11046695296636
 20
299.06983782152105
 10
210.40456217847898
 20
303.8994669529664
 10
205.57493304703365
 20
305.193562178479
 10
204.28083782152103
 20
300.36393304703364
 10
209.11046695296636
 20
299.06983782152105
  0
CIRCLE
  5
1E0
330
17
100
AcDbEntity
  8
LED
100
AcDbCircle
 10
209.52228798256368
 20
304.0841078022442
 30
0.0
 40
0.45
  0
TEXT
  5
1E1
330
17
100
AcDbEntity
  8
LED-REF
100
AcDbText
 10
207.3427
 20
302.1317
 30
0.0
 40
1.1
  1
LED17
 50
75.0
 72
1
 11
207.3427
 21
302.1317
 31
0.0
100
AcDbText
 73
2
  0
LWPOLYLINE
  5
1E2
330
17
100
AcDbEntity
  8
LED
100
AcDbPolyline
 90
5
 70
0
 10
364.6723372958961
 20
468.7764017579506
 10
369.0325982420494
 20
466.3293372958961
 10
371.47966270410393
 20
470.6895982420494
 10
367.11940175795064
 20
473.1366627041039
 10
364.6723372958961
 20
468.7764017579506
  0
CIRCLE
  5
1E3
330
17
100
AcDbEntity
  8
LED
100
AcDbCircle
 10
369.42946723575767
 20
467.13865491082424
 30
0.0
 40
0.45
  0
TEXT
  5
1E4
330
17
100
AcDbEntity
  8
LED-REF
100
AcDbText
 10
368.076
 20
469.733
 30
0.0
 40
1.1
  1
LED170
 50
330.698
 72
1
 11
368.076
 21
469.733
 31
0.0
100
AcDbText
 73
2
  0
LWPOLYLINE
  5
1E5
330
17
100
AcDbEntity
  8
LED
100
AcDbPolyline
 90
5
 70
0
 10
337.0886883564838
 20
481.30402385006033
 10
341.75877614993965
 20
479.51788835648375
 10
343.54491164351623
 20
484.18797614993963
 10
338.87482385006035
 20
485.9741116435162
 10
337.0886883564838
 20
481.30402385006033
  0
CIRCLE
  5
1E6
330
17
100
AcDbEntity
  8
LED
100
AcDbCircle
 10
342.0335796608489
 20
480.37636551424157
 30
0.0
 40
0.45
  0
TEXT
  5
1E7
330
17
100
AcDbEntity
  8
LED-REF
100
AcDbText
 10
340.3168
 20
482.746
 30
0.0
 40
1.1
  1
LED171
 50
339.07
 72
1
 11
340.3168
 21
482.746
 31
0.0
100
AcDbText
 73
2
  0
LWPOLYLINE
  5
1E8
330
17
100
AcDbEntity
  8
LED
100
AcDbPolyline
 90
5
 70
0
 10
307.97483948607163
 20
489.68187847857774
 10
312.85522152142227
 20
488.59473948607166
 10
313.94236051392835
 20
493.4751215214223
 10
309.0619784785777
 20
494.5622605139284
 10
307.97483948607163
 20
489.68187847857774
  0
CIRCLE
  5
1E9
330
17
100
AcDbEntity
  8
LED
100
AcDbCircle
 10
313.00210271971986
 20
489.48407964235986
 30
0.0
 40
0.45
  0
TEXT
  5
1EA
330
17
100
AcDbEntity
  8
LED-REF
100
AcDbText
 10
310.9586
 20
491.5785
 30
0.0
 40
1.1
  1
LED172
 50
347.442
 72
1
 11
310.9586
 21
491.5785
 31
0.0
100
AcDbText
 73
2
  0
LWPOLYLINE
  5
1EB
330
17
100
AcDbEntity
  8
LED
100
AcDbPolyline
 90
5
 70
0
 10
277.9514828800878
 20
493.73155540531496
 10
282.938144594685
 20
493.3665828800878
 10
283.3031171199122
 20
498.353244594685
 10
278.31645540531497
 20
498.7182171199122
 10
277.9514828800878
 20
493.73155540531496
  0
CIRCLE
  5
1EC
330
17
100
AcDbEntity
  8
LED
100
AcDbCircle
 10
282.9539730320799
 20
494.26783171396755
 30
0.0
 40
0.45
  0
TEXT
  5
1ED
330
17
100
AcDbEntity
  8
LED-REF
100
AcDbText
 10
280.6273
 20
496.0424
 30
0.0
 40
1.1
  1
LED173
 50
355.814
 72
1
 11
280.6273
 21
496.0424
 31
0.0
100
AcDbText
 73
2
  0
LWPOLYLINE
  5
1EE
330
17
100
AcDbEntity
  8
LED
100
AcDbPolyline
 90
5
 70
0
 10
222.8719
 20
325.49346609406723
 10
226.40743390593275
 20
329.029
 10
222.8719
 20
332.56453390593276
 10
219.33636609406727
 20
329.029
 10
222.8719
 20
325.49346609406723
  0
CIRCLE
  5
1EF
330
17
100
AcDbEntity
  8
LED
100
AcDbCircle
 10
225.73568246380552
 20
329.6300407640086
 30
0.0
 40
0.45
  0
TEXT
  5
1F0
330
17
100
AcDbEntity
  8
LED-REF
100
AcDbText
 10
222.8719
 20
329.029
 30
0.0
 40
1.1
  1
LED18
 50
45.0
 72
1
 11
222.8719
 21
329.029
 31
0.0
100
AcDbText
 73
2
  0
LWPOLYLINE
  5
1F1
330
17
100
AcDbEntity
  8
LED
100
AcDbPolyline
 90
5
 70
0
 10
248.00143304703363
 20
341.49623782152105
 10
252.831062178479
 20
342.79033304703364
 10
251.5369669529664
 20
347.619962178479
 10
246.70733782152104
 20
346.3258669529664
 10
248.00143304703363
 20
341.49623782152105
  0
CIRCLE
  5
1F2
330
17
100
AcDbEntity
  8
LED
100
AcDbCircle
 10
252.54982874657227
 20
343.64672533843867
 30
0.0
 40
0.45
  0
TEXT
  5
1F3
330
17
100
AcDbEntity
  8
LED-REF
100
AcDbText
 10
249.7692
 20
344.5581
 30
0.0
 40
1.1
  1
LED19
 50
15.0
 72
1
 11
249.7692
 21
344.5581
 31
0.0
100
AcDbText
 73
2
  0
LWPOLYLINE
  5
1F4
330
17
100
AcDbEntity
  8
LED
100
AcDbPolyline
 90
5
 70
0
 10
249.3832364905389
 20
309.1683364905389
 10
253.71336350946112
 20
311.6683364905389
 10
251.21336350946112
 20
315.9984635094611
 10
246.8832364905389
 20
313.4984635094611
 10
249.3832364905389
 20
309.1683364905389
  0
CIRCLE
  5
1F5
330
17
100
AcDbEntity
  8
LED
100
AcDbCircle
 10
253.2200622392719
 20
312.42275935394485
 30
0.0
 40
0.45
  0
TEXT
  5
1F6
330
17
100
AcDbEntity
  8
LED-REF
100
AcDbText
 10
250.2983
 20
312.5834
 30
0.0
 40
1.1
  1
LED2
 50
30.0
 72
1
 11
250.2983
 21
312.5834
 31
0.0
100
AcDbText
 73
2
  0
LWPOLYLINE
  5
1F7
330
17
100
AcDbEntity
  8
LED
100
AcDbPolyline
 90
5
 70
0
 10
247.6421010616368
 20
372.33916017330216
 10
252.56613982669782
 20
373.2074010616368
 10
251.69789893836318
 20
378.13143982669783
 10
246.77386017330215
 20
377.2631989383632
 10
247.6421010616368
 20
372.33916017330216
  0
CIRCLE
  5
1F8
330
17
100
AcDbEntity
  8
LED
100
AcDbCircle
 10
252.36061607914698
 20
374.08504563046444
 30
0.0
 40
0.45
  0
TEXT
  5
1F9
330
17
100
AcDbEntity
  8
LED-REF
100
AcDbText
 10
249.67
 20
375.2353
 30
0.0
 40
1.1
  1
LED20
 50
10.0
 72
1
 11
249.67
 21
375.2353
 31
0.0
100
AcDbText
 73
2
  0
LWPOLYLINE
  5
1FA
330
17
100
AcDbEntity
  8
LED
100
AcDbPolyline
 90
5
 70
0
 10
219.3832364905389
 20
361.1298364905389
 10
223.71336350946112
 20
363.6298364905389
 10
221.21336350946112
 20
367.9599635094611
 10
216.8832364905389
 20
365.4599635094611
 10
219.3832364905389
 20
361.1298364905389
  0
CIRCLE
  5
1FB
330
17
100
AcDbEntity
  8
LED
100
AcDbCircle
 10
223.2200622392719
 20
364.38425935394486
 30
0.0
 40
0.45
  0
TEXT
  5
1FC
330
17
100
AcDbEntity
  8
LED-REF
100
AcDbText
 10
220.2983
 20
364.5449
 30
0.0
 40
1.1
  1
LED21
 50
30.0
 72
1
 11
220.2983
 21
364.5449
 31
0.0
100
AcDbText
 73
2
  0
LWPOLYLINE
  5
1FD
330
17
100
AcDbEntity
  8
LED
100
AcDbPolyline
 90
5
 70
0
 10
196.66244208358108
 20
340.9314198679862
 10
199.8763801320138
 20
344.76164208358114
 10
196.0461579164189
 20
347.9755801320138
 10
192.8322198679862
 20
344.1453579164189
 10
196.66244208358108
 20
340.9314198679862
  0
CIRCLE
  5
1FE
330
17
100
AcDbEntity
  8
LED
100
AcDbCircle
 10
199.1548007527224
 20
345.3018487101431
 30
0.0
 40
0.45
  0
TEXT
  5
1FF
330
17
100
AcDbEntity
  8
LED-REF
100
AcDbText
 10
196.3543
 20
344.4535
 30
0.0
 40
1.1
  1
LED22
 50
50.0
 72
1
 11
196.3543
 21
344.4535
 31
0.0
100
AcDbText
 73
2
  0
LWPOLYLINE
  5
200
330
17
100
AcDbEntity
  8
LED
100
AcDbPolyline
 90
5
 70
0
 10
182.2201811936506
 20
314.1801180897211
 10
183.93028191027895
 20
318.87858119365063
 10
179.2318188063494
 20
320.588681910279
 10
177.52171808972105
 20
315.8902188063494
 10
182.2201811936506
 20
314.1801180897211
  0
CIRCLE
  5
201
330
17
100
AcDbEntity
  8
LED
100
AcDbCircle
 10
183.06745754440533
 20
319.13941469160443
 30
0.0
 40
0.45
  0
TEXT
  5
202
330
17
100
AcDbEntity
  8
LED-REF
100
AcDbText
 10
180.726
 20
317.3844
 30
0.0
 40
1.1
  1
LED23
 50
70.0
 72
1
 11
180.726
 21
317.3844
 31
0.0
100
AcDbText
 73
2
  0
LWPOLYLINE
  5
203
330
17
100
AcDbEntity
  8
LED
100
AcDbPolyline
 90
5
 70
0
 10
177.7983
 20
284.1026
 10
177.7983
 20
289.1026
 10
172.7983
 20
289.1026
 10
172.7983
 20
284.1026
 10
177.7983
 20
284.1026
  0
CIRCLE
  5
204
330
17
100
AcDbEntity
  8
LED
100
AcDbCircle
 10
176.8983
 20
289.0526
 30
0.0
 40
0.45
  0
TEXT
  5
205
330
17
100
AcDbEntity
  8
LED-REF
100
AcDbText
 10
175.2983
 20
286.6026
 30
0.0
 40
1.1
  1
LED24
 50
90.0
 72
1
 11
175.2983
 21
286.6026
 31
0.0
100
AcDbText
 73
2
  0
LWPOLYLINE
  5
206
330
17
100
AcDbEntity
  8
LED
100
AcDbPolyline
 90
5
 70
0
 10
183.93028191027895
 20
254.3266188063494
 10
182.2201811936506
 20
259.0250819102789
 10
177.52171808972105
 20
257.31498119365057
 10
179.2318188063494
 20
252.61651808972104
 10
183.93028191027895
 20
254.3266188063494
  0
CIRCLE
  5
207
330
17
100
AcDbEntity
  8
LED
100
AcDbCircle
 10
181.39155884210956
 20
258.67027915024653
 30
0.0
 40
0.45
  0
TEXT
  5
208
330
17
100
AcDbEntity
  8
LED-REF
100
AcDbText
 10
180.726
 20
255.8208
 30
0.0
 40
1.1
  1
LED25
 50
110.0
 72
1
 11
180.726
 21
255.8208
 31
0.0
100
AcDbText
 73
2
  0
LWPOLYLINE
  5
209
330
17
100
AcDbEntity
  8
LED
100
AcDbPolyline
 90
5
 70
0
 10
199.8763801320138
 20
228.4435579164189
 10
196.66244208358108
 20
232.2737801320138
 10
192.8322198679862
 20
229.0598420835811
 10
196.0461579164189
 20
225.2296198679862
 10
199.8763801320138
 20
228.4435579164189
  0
CIRCLE
  5
20A
330
17
100
AcDbEntity
  8
LED
100
AcDbCircle
 10
196.00514146525833
 20
231.65696906113996
 30
0.0
 40
0.45
  0
TEXT
  5
20B
330
17
100
AcDbEntity
  8
LED-REF
100
AcDbText
 10
196.3543
 20
228.7517
 30
0.0
 40
1.1
  1
LED26
 50
130.0
 72
1
 11
196.3543
 21
228.7517
 31
0.0
100
AcDbText
 73
2
  0
LWPOLYLINE
  5
20C
330
17
100
AcDbEntity
  8
LED
100
AcDbPolyline
 90
5
 70
0
 10
223.71336350946112
 20
209.5753635094611
 10
219.3832364905389
 20
212.0753635094611
 10
216.8832364905389
 20
207.7452364905389
 10
221.21336350946112
 20
205.2452364905389
 10
223.71336350946112
 20
209.5753635094611
  0
CIRCLE
  5
20D
330
17
100
AcDbEntity
  8
LED
100
AcDbCircle
 10
218.97653776072815
 20
211.2709406460551
 30
0.0
 40
0.45
  0
TEXT
  5
20E
330
17
100
AcDbEntity
  8
LED-REF
100
AcDbText
 10
220.2983
 20
208.6603
 30
0.0
 40
1.1
  1
LED27
 50
150.0
 72
1
 11
220.2983
 21
208.6603
 31
0.0
100
AcDbText
 73
2
  0
LWPOLYLINE
  5
20F
330
17
100
AcDbEntity
  8
LED
100
AcDbPolyline
 90
5
 70
0
 10
252.56613982669782
 20
199.9977989383632
 10
247.6421010616368
 20
200.86603982669783
 10
246.77386017330215
 20
195.9420010616368
 10
251.69789893836318
 20
195.07376017330216
 10
252.56613982669782
 20
199.9977989383632
  0
CIRCLE
  5
210
330
17
100
AcDbEntity
  8
LED
100
AcDbCircle
 10
247.53505808938718
 20
199.9710304401035
 30
0.0
 40
0.45
  0
TEXT
  5
211
330
17
100
AcDbEntity
  8
LED-REF
100
AcDbText
 10
249.67
 20
197.9699
 30
0.0
 40
1.1
  1
LED28
 50
170.0
 72
1
 11
249.67
 21
197.9699
 31
0.0
100
AcDbText
 73
2
  0
LWPOLYLINE
  5
212
330
17
100
AcDbEntity
  8
LED
100
AcDbPolyline
 90
5
 70
0
 10
282.9544989383632
 20
200.86603982669783
 10
278.0304601733022
 20
199.9977989383632
 10
278.8987010616368
 20
195.07376017330216
 10
283.82273982669784
 20
195.9420010616368
 10
282.9544989383632
 20
200.86603982669783
  0
CIRCLE
  5
213
330
17
100
AcDbEntity
  8
LED
100
AcDbCircle
 10
278.235983920853
 20
199.12015436953556
 30
0.0
 40
0.45
  0
TEXT
  5
214
330
17
100
AcDbEntity
  8
LED-REF
100
AcDbText
 10
280.9266
 20
197.9699
 30
0.0
 40
1.1
  1
LED29
 50
190.0
 72
1
 11
280.9266
 21
197.9699
 31
0.0
100
AcDbText
 73
2
  0
LWPOLYLINE
  5
215
330
17
100
AcDbEntity
  8
LED
100
AcDbPolyline
 90
5
 70
0
 10
237.7983
 20
284.1026
 10
237.7983
 20
289.1026
 10
232.7983
 20
289.1026
 10
232.7983
 20
284.1026
 10
237.7983
 20
284.1026
  0
CIRCLE
  5
216
330
17
100
AcDbEntity
  8
LED
100
AcDbCircle
 10
236.8983
 20
289.0526
 30
0.0
 40
0.45
  0
TEXT
  5
217
330
17
100
AcDbEntity
  8
LED-REF
100
AcDbText
 10
235.2983
 20
286.6026
 30
0.0
 40
1.1
  1
LED3
 50
90.0
 72
1
 11
235.2983
 21
286.6026
 31
0.0
100
AcDbText
 73
2
  0
LWPOLYLINE
  5
218
330
17
100
AcDbEntity
  8
LED
100
AcDbPolyline
 90
5
 70
0
 10
311.2133635094611
 20
212.0753635094611
 10
306.8832364905389
 20
209.5753635094611
 10
309.3832364905389
 20
205.2452364905389
 10
313.7133635094611
 20
207.7452364905389
 10
311.2133635094611
 20
212.0753635094611
  0
CIRCLE
  5
219
330
17
100
AcDbEntity
  8
LED
100
AcDbCircle
 10
307.3765377607281
 20
208.8209406460551
 30
0.0
 40
0.45
  0
TEXT
  5
21A
330
17
100
AcDbEntity
  8
LED-REF
100
AcDbText
 10
310.2983
 20
208.6603
 30
0.0
 40
1.1
  1
LED30
 50
210.0
 72
1
 11
310.2983
 21
208.6603
 31
0.0
100
AcDbText
 73
2
  0
LWPOLYLINE
  5
21B
330
17
100
AcDbEntity
  8
LED
100
AcDbPolyline
 90
5
 70
0
 10
333.9341579164189
 20
232.2737801320138
 10
330.7202198679862
 20
228.4435579164189
 10
334.5504420835811
 20
225.2296198679862
 10
337.7643801320138
 20
229.0598420835811
 10
333.9341579164189
 20
232.2737801320138
  0
CIRCLE
  5
21C
330
17
100
AcDbEntity
  8
LED
100
AcDbCircle
 10
331.44179924727763
 20
227.90335128985697
 30
0.0
 40
0.45
  0
TEXT
  5
21D
330
17
100
AcDbEntity
  8
LED-REF
100
AcDbText
 10
334.2423
 20
228.7517
 30
0.0
 40
1.1
  1
LED31
 50
230.0
 72
1
 11
334.2423
 21
228.7517
 31
0.0
100
AcDbText
 73
2
  0
LWPOLYLINE
  5
21E
330
17
100
AcDbEntity
  8
LED
100
AcDbPolyline
 90
5
 70
0
 10
348.3764188063494
 20
259.0250819102789
 10
346.6663180897211
 20
254.3266188063494
 10
351.36478119365063
 20
252.61651808972104
 10
353.074881910279
 20
257.31498119365057
 10
348.3764188063494
 20
259.0250819102789
  0
CIRCLE
  5
21F
330
17
100
AcDbEntity
  8
LED
100
AcDbCircle
 10
347.5291424555947
 20
254.0657853083956
 30
0.0
 40
0.45
  0
TEXT
  5
220
330
17
100
AcDbEntity
  8
LED-REF
100
AcDbText
 10
349.8706
 20
255.8208
 30
0.0
 40
1.1
  1
LED32
 50
250.0
 72
1
 11
349.8706
 21
255.8208
 31
0.0
100
AcDbText
 73
2
  0
LWPOLYLINE
  5
221
330
17
100
AcDbEntity
  8
LED
100
AcDbPolyline
 90
5
 70
0
 10
352.7983
 20
289.1026
 10
352.7983
 20
284.1026
 10
357.7983
 20
284.1026
 10
357.7983
 20
289.1026
 10
352.7983
 20
289.1026
  0
CIRCLE
  5
222
330
17
100
AcDbEntity
  8
LED
100
AcDbCircle
 10
353.69829999999996
 20
284.1526
 30
0.0
 40
0.45
  0
TEXT
  5
223
330
17
100
AcDbEntity
  8
LED-REF
100
AcDbText
 10
355.2983
 20
286.6026
 30
0.0
 40
1.1
  1
LED33
 50
270.0
 72
1
 11
355.2983
 21
286.6026
 31
0.0
100
AcDbText
 73
2
  0
LWPOLYLINE
  5
224
330
17
100
AcDbEntity
  8
LED
100
AcDbPolyline
 90
5
 70
0
 10
346.6663180897211
 20
318.87858119365063
 10
348.3764188063494
 20
314.1801180897211
 10
353.074881910279
 20
315.8902188063494
 10
351.36478119365063
 20
320.588681910279
 10
346.6663180897211
 20
318.87858119365063
  0
CIRCLE
  5
225
330
17
100
AcDbEntity
  8
LED
100
AcDbCircle
 10
349.20504115789043
 20
314.53492084975346
 30
0.0
 40
0.45
  0
TEXT
  5
226
330
17
100
AcDbEntity
  8
LED-REF
100
AcDbText
 10
349.8706
 20
317.3844
 30
0.0
 40
1.1
  1
LED34
 50
290.0
 72
1
 11
349.8706
 21
317.3844
 31
0.0
100
AcDbText
 73
2
  0
LWPOLYLINE
  5
227
330
17
100
AcDbEntity
  8
LED
100
AcDbPolyline
 90
5
 70
0
 10
330.7202198679862
 20
344.76164208358114
 10
333.9341579164189
 20
340.9314198679862
 10
337.7643801320138
 20
344.1453579164189
 10
334.5504420835811
 20
347.9755801320138
 10
330.7202198679862
 20
344.76164208358114
  0
CIRCLE
  5
228
330
17
100
AcDbEntity
  8
LED
100
AcDbCircle
 10
334.59145853474166
 20
341.54823093886006
 30
0.0
 40
0.45
  0
TEXT
  5
229
330
17
100
AcDbEntity
  8
LED-REF
100
AcDbText
 10
334.2423
 20
344.4535
 30
0.0
 40
1.1
  1
LED35
 50
310.0
 72
1
 11
334.2423
 21
344.4535
 31
0.0
100
AcDbText
 73
2
  0
LWPOLYLINE
  5
22A
330
17
100
AcDbEntity
  8
LED
100
AcDbPolyline
 90
5
 70
0
 10
306.8832364905389
 20
363.6298364905389
 10
311.2133635094611
 20
361.1298364905389
 10
313.7133635094611
 20
365.4599635094611
 10
309.3832364905389
 20
367.9599635094611
 10
306.8832364905389
 20
363.6298364905389
  0
CIRCLE
  5
22B
330
17
100
AcDbEntity
  8
LED
100
AcDbCircle
 10
311.6200622392719
 20
361.93425935394487
 30
0.0
 40
0.45
  0
TEXT
  5
22C
330
17
100
AcDbEntity
  8
LED-REF
100
AcDbText
 10
310.2983
 20
364.5449
 30
0.0
 40
1.1
  1
LED36
 50
330.0
 72
1
 11
310.2983
 21
364.5449
 31
0.0
100
AcDbText
 73
2
  0
LWPOLYLINE
  5
22D
330
17
100
AcDbEntity
  8
LED
100
AcDbPolyline
 90
5
 70
0
 10
278.0304601733022
 20
373.2074010616368
 10
282.9544989383632
 20
372.33916017330216
 10
283.82273982669784
 20
377.2631989383632
 10
278.8987010616368
 20
378.13143982669783
 10
278.0304601733022
 20
373.2074010616368
  0
CIRCLE
  5
22E
330
17
100
AcDbEntity
  8
LED
100
AcDbCircle
 10
283.06154191061285
 20
373.2341695598965
 30
0.0
 40
0.45
  0
TEXT
  5
22F
330
17
100
AcDbEntity
  8
LED-REF
100
AcDbText
 10
280.9266
 20
375.2353
 30
0.0
 40
1.1
  1
LED37
 50
350.0
 72
1
 11
280.9266
 21
375.2353
 31
0.0
100
AcDbText
 73
2
  0
LWPOLYLINE
  5
230
330
17
100
AcDbEntity
  8
LED
100
AcDbPolyline
 90
5
 70
0
 10
277.54468016280305
 20
403.48944633062456
 10
282.50525366937546
 20
402.86278016280306
 10
283.13191983719696
 20
407.8233536693755
 10
278.17134633062454
 20
408.450019837197
 10
277.54468016280305
 20
403.48944633062456
  0
CIRCLE
  5
231
330
17
100
AcDbEntity
  8
LED
100
AcDbCircle
 10
282.5684478445176
 20
403.76195005566433
 30
0.0
 40
0.45
  0
TEXT
  5
232
330
17
100
AcDbEntity
  8
LED-REF
100
AcDbText
 10
280.3383
 20
405.6564
 30
0.0
 40
1.1
  1
LED38
 50
352.8
 72
1
 11
280.3383
 21
405.6564
 31
0.0
100
AcDbText
 73
2
  0
LWPOLYLINE
  5
233
330
17
100
AcDbEntity
  8
LED
100
AcDbPolyline
 90
5
 70
0
 10
306.2284474035677
 20
396.77167016699104
 10
310.87732983300896
 20
394.9310474035677
 10
312.7179525964323
 20
399.5799298330089
 10
308.0690701669911
 20
401.4205525964323
 10
306.2284474035677
 20
396.77167016699104
  0
CIRCLE
  5
234
330
17
100
AcDbEntity
  8
LED
100
AcDbCircle
 10
311.16215310613075
 20
395.7862524685013
 30
0.0
 40
0.45
  0
TEXT
  5
235
330
17
100
AcDbEntity
  8
LED-REF
100
AcDbText
 10
309.4732
 20
398.1758
 30
0.0
 40
1.1
  1
LED39
 50
338.4
 72
1
 11
309.4732
 21
398.1758
 31
0.0
100
AcDbText
 73
2
  0
LWPOLYLINE
  5
236
330
17
100
AcDbEntity
  8
LED
100
AcDbPolyline
 90
5
 70
0
 10
253.71336350946112
 20
261.5368635094611
 10
249.3832364905389
 20
264.0368635094611
 10
246.8832364905389
 20
259.7067364905389
 10
251.21336350946112
 20
257.2067364905389
 10
253.71336350946112
 20
261.5368635094611
  0
CIRCLE
  5
237
330
17
100
AcDbEntity
  8
LED
100
AcDbCircle
 10
248.97653776072815
 20
263.2324406460551
 30
0.0
 40
0.45
  0
TEXT
  5
238
330
17
100
AcDbEntity
  8
LED-REF
100
AcDbText
 10
250.2983
 20
260.6218
 30
0.0
 40
1.1
  1
LED4
 50
150.0
 72
1
 11
250.2983
 21
260.6218
 31
0.0
100
AcDbText
 73
2
  0
LWPOLYLINE
  5
239
330
17
100
AcDbEntity
  8
LED
100
AcDbPolyline
 90
5
 70
0
 10
332.3404943833314
 20
383.1315206447938
 10
336.3855793552062
 20
380.1925943833314
 10
339.32450561666855
 20
384.2376793552062
 10
335.2794206447938
 20
387.17660561666855
 10
332.3404943833314
 20
383.1315206447938
  0
CIRCLE
  5
23A
330
17
100
AcDbEntity
  8
LED
100
AcDbCircle
 10
336.87413523255066
 20
380.9500989408835
 30
0.0
 40
0.45
  0
TEXT
  5
23B
330
17
100
AcDbEntity
  8
LED-REF
100
AcDbText
 10
335.8325
 20
383.6846
 30
0.0
 40
1.1
  1
LED40
 50
324.0
 72
1
 11
335.8325
 21
383.6846
 31
0.0
100
AcDbText
 73
2
  0
LWPOLYLINE
  5
23C
330
17
100
AcDbEntity
  8
LED
100
AcDbPolyline
 90
5
 70
0
 10
354.2400569186888
 20
363.42622313256777
 10
357.42717686743225
 20
359.5736569186888
 10
361.2797430813112
 20
362.76077686743224
 10
358.0926231325678
 20
366.6133430813112
 10
354.2400569186888
 20
363.42622313256777
  0
CIRCLE
  5
23D
330
17
100
AcDbEntity
  8
LED
100
AcDbCircle
 10
358.08876758644305
 20
360.1858641716014
 30
0.0
 40
0.45
  0
TEXT
  5
23E
330
17
100
AcDbEntity
  8
LED-REF
100
AcDbText
 10
357.7599
 20
363.0935
 30
0.0
 40
1.1
  1
LED41
 50
309.6
 72
1
 11
357.7599
 21
363.0935
 31
0.0
100
AcDbText
 73
2
  0
LWPOLYLINE
  5
23F
330
17
100
AcDbEntity
  8
LED
100
AcDbPolyline
 90
5
 70
0
 10
370.55098413992226
 20
338.8937194022524
 10
372.6798805977476
 20
334.36958413992227
 10
377.20401586007773
 20
336.49848059774763
 10
375.07511940225237
 20
341.02261586007774
 10
370.55098413992226
 20
338.8937194022524
  0
CIRCLE
  5
240
330
17
100
AcDbEntity
  8
LED
100
AcDbCircle
 10
373.4729359803888
 20
334.7980268549541
 30
0.0
 40
0.45
  0
TEXT
  5
241
330
17
100
AcDbEntity
  8
LED-REF
100
AcDbText
 10
373.8775
 20
337.6961
 30
0.0
 40
1.1
  1
LED42
 50
295.2
 72
1
 11
373.8775
 21
337.6961
 31
0.0
100
AcDbText
 73
2
  0
LWPOLYLINE
  5
242
330
17
100
AcDbEntity
  8
LED
100
AcDbPolyline
 90
5
 70
0
 10
380.24862858671395
 20
311.0756648403574
 10
381.1855351596426
 20
306.16422858671393
 10
386.09697141328604
 20
307.1011351596426
 10
385.1600648403574
 20
312.012571413286
 10
380.24862858671395
 20
311.0756648403574
  0
CIRCLE
  5
243
330
17
100
AcDbEntity
  8
LED
100
AcDbCircle
 10
382.0602246195691
 20
306.3819861323775
 30
0.0
 40
0.45
  0
TEXT
  5
244
330
17
100
AcDbEntity
  8
LED-REF
100
AcDbText
 10
383.1728
 20
309.0884
 30
0.0
 40
1.1
  1
LED43
 50
280.8
 72
1
 11
383.1728
 21
309.0884
 31
0.0
100
AcDbText
 73
2
  0
LWPOLYLINE
  5
245
330
17
100
AcDbEntity
  8
LED
100
AcDbPolyline
 90
5
 70
0
 10
382.7234094777526
 20
281.71974311989396
 10
382.40945688010606
 20
276.7296094777526
 10
387.3995905222474
 20
276.41565688010604
 10
387.713543119894
 20
281.4057905222474
 10
382.7234094777526
 20
281.71974311989396
  0
CIRCLE
  5
246
330
17
100
AcDbEntity
  8
LED
100
AcDbCircle
 10
383.31082046166796
 20
276.72299934659765
 30
0.0
 40
0.45
  0
TEXT
  5
247
330
17
100
AcDbEntity
  8
LED-REF
100
AcDbText
 10
385.0615
 20
279.0677
 30
0.0
 40
1.1
  1
LED44
 50
266.4
 72
1
 11
385.0615
 21
279.0677
 31
0.0
100
AcDbText
 73
2
  0
LWPOLYLINE
  5
248
330
17
100
AcDbEntity
  8
LED
100
AcDbPolyline
 90
5
 70
0
 10
377.8200011951995
 20
252.67078377667525
 10
376.27491622332474
 20
247.91550119519948
 10
381.0301988048005
 20
246.37041622332475
 10
382.57528377667524
 20
251.12569880480052
 10
377.8200011951995
 20
252.67078377667525
  0
CIRCLE
  5
249
330
17
100
AcDbEntity
  8
LED
100
AcDbCircle
 10
377.1463179377091
 20
247.68493872607678
 30
0.0
 40
0.45
  0
TEXT
  5
24A
330
17
100
AcDbEntity
  8
LED-REF
100
AcDbText
 10
379.4251
 20
249.5206
 30
0.0
 40
1.1
  1
LED45
 50
252.0
 72
1
 11
379.4251
 21
249.5206
 31
0.0
100
AcDbText
 73
2
  0
LWPOLYLINE
  5
24B
330
17
100
AcDbEntity
  8
LED
100
AcDbPolyline
 90
5
 70
0
 10
365.84634717369244
 20
225.75378680120255
 10
363.16721319879747
 20
221.53214717369247
 10
367.3888528263075
 20
218.85301319879747
 10
370.0679868012025
 20
223.07465282630756
 10
365.84634717369244
 20
225.75378680120255
  0
CIRCLE
  5
24C
330
17
100
AcDbEntity
  8
LED
100
AcDbCircle
 10
363.9538996714982
 20
221.09211945448646
 30
0.0
 40
0.45
  0
TEXT
  5
24D
330
17
100
AcDbEntity
  8
LED-REF
100
AcDbText
 10
366.6176
 20
222.3034
 30
0.0
 40
1.1
  1
LED46
 50
237.6
 72
1
 11
366.6176
 21
222.3034
 31
0.0
100
AcDbText
 73
2
  0
LWPOLYLINE
  5
24E
330
17
100
AcDbEntity
  8
LED
100
AcDbPolyline
 90
5
 70
0
 10
347.5550538037318
 20
202.66018933337523
 10
343.9102106666248
 20
199.2374538037318
 10
347.3329461962682
 20
195.59261066662475
 10
350.97778933337526
 20
199.01534619626818
 10
347.5550538037318
 20
202.66018933337523
  0
CIRCLE
  5
24F
330
17
100
AcDbEntity
  8
LED
100
AcDbCircle
 10
344.56275149333163
 20
198.61560939434895
 30
0.0
 40
0.45
  0
TEXT
  5
250
330
17
100
AcDbEntity
  8
LED-REF
100
AcDbText
 10
347.444
 20
199.1264
 30
0.0
 40
1.1
  1
LED47
 50
223.2
 72
1
 11
347.444
 21
199.1264
 31
0.0
100
AcDbText
 73
2
  0
LWPOLYLINE
  5
251
330
17
100
AcDbEntity
  8
LED
100
AcDbPolyline
 90
5
 70
0
 10
324.0950825148554
 20
184.84095088536395
 10
319.71354911463607
 20
182.43218251485536
 10
322.1223174851446
 20
178.05064911463603
 10
326.50385088536393
 20
180.45941748514463
 10
324.0950825148554
 20
184.84095088536395
  0
CIRCLE
  5
252
330
17
100
AcDbEntity
  8
LED
100
AcDbCircle
 10
320.1909427553298
 20
181.66759418652097
 30
0.0
 40
0.45
  0
TEXT
  5
253
330
17
100
AcDbEntity
  8
LED-REF
100
AcDbText
 10
323.1087
 20
181.4458
 30
0.0
 40
1.1
  1
LED48
 50
208.8
 72
1
 11
323.1087
 21
181.4458
 31
0.0
100
AcDbText
 73
2
  0
LWPOLYLINE
  5
254
330
17
100
AcDbEntity
  8
LED
100
AcDbPolyline
 90
5
 70
0
 10
296.9408331849094
 20
173.41578262073372
 10
292.0979173792663
 20
172.17233318490943
 10
293.34136681509057
 20
167.3294173792663
 10
298.1842826207337
 20
168.57286681509058
 10
296.9408331849094
 20
173.41578262073372
  0
CIRCLE
  5
255
330
17
100
AcDbEntity
  8
LED
100
AcDbCircle
 10
292.37016743577107
 20
171.31304283425192
 30
0.0
 40
0.45
  0
TEXT
  5
256
330
17
100
AcDbEntity
  8
LED-REF
100
AcDbText
 10
295.1411
 20
170.3726
 30
0.0
 40
1.1
  1
LED49
 50
194.4
 72
1
 11
295.1411
 21
170.3726
 31
0.0
100
AcDbText
 73
2
  0
LWPOLYLINE
  5
257
330
17
100
AcDbEntity
  8
LED
100
AcDbPolyline
 90
5
 70
0
 10
281.2133635094611
 20
264.0368635094611
 10
276.8832364905389
 20
261.5368635094611
 10
279.3832364905389
 20
257.2067364905389
 10
283.7133635094611
 20
259.7067364905389
 10
281.2133635094611
 20
264.0368635094611
  0
CIRCLE
  5
258
330
17
100
AcDbEntity
  8
LED
100
AcDbCircle
 10
277.3765377607281
 20
260.78244064605514
 30
0.0
 40
0.45
  0
TEXT
  5
259
330
17
100
AcDbEntity
  8
LED-REF
100
AcDbText
 10
280.2983
 20
260.6218
 30
0.0
 40
1.1
  1
LED5
 50
210.0
 72
1
 11
280.2983
 21
260.6218
 31
0.0
100
AcDbText
 73
2
  0
LWPOLYLINE
  5
25A
330
17
100
AcDbEntity
  8
LED
100
AcDbPolyline
 90
5
 70
0
 10
267.7983
 20
169.1026
 10
262.7983
 20
169.1026
 10
262.7983
 20
164.1026
 10
267.7983
 20
164.1026
 10
267.7983
 20
169.1026
  0
CIRCLE
  5
25B
330
17
100
AcDbEntity
  8
LED
100
AcDbCircle
 10
262.8483
 20
168.2026
 30
0.0
 40
0.45
  0
TEXT
  5
25C
330
17
100
AcDbEntity
  8
LED-REF
100
AcDbText
 10
265.2983
 20
166.6026
 30
0.0
 40
1.1
  1
LED50
 50
180.0
 72
1
 11
265.2983
 21
166.6026
 31
0.0
100
AcDbText
 73
2
  0
LWPOLYLINE
  5
25D
330
17
100
AcDbEntity
  8
LED
100
AcDbPolyline
 90
5
 70
0
 10
238.49868262073372
 20
172.17233318490943
 10
233.65576681509057
 20
173.41578262073372
 10
232.41231737926628
 20
168.57286681509058
 10
237.25523318490943
 20
167.3294173792663
 10
238.49868262073372
 20
172.17233318490943
  0
CIRCLE
  5
25E
330
17
100
AcDbEntity
  8
LED
100
AcDbCircle
 10
233.48037507469863
 20
172.5316232813597
 30
0.0
 40
0.45
  0
TEXT
  5
25F
330
17
100
AcDbEntity
  8
LED-REF
100
AcDbText
 10
235.4555
 20
170.3726
 30
0.0
 40
1.1
  1
LED51
 50
165.6
 72
1
 11
235.4555
 21
170.3726
 31
0.0
100
AcDbText
 73
2
  0
LWPOLYLINE
  5
260
330
17
100
AcDbEntity
  8
LED
100
AcDbPolyline
 90
5
 70
0
 10
210.88305088536396
 20
182.43218251485536
 10
206.50151748514463
 20
184.84095088536395
 10
204.09274911463604
 20
180.45941748514463
 10
208.47428251485536
 20
178.05064911463603
 10
210.88305088536396
 20
182.43218251485536
  0
CIRCLE
  5
261
330
17
100
AcDbEntity
  8
LED
100
AcDbCircle
 10
206.11175451245526
 20
184.0281871896194
 30
0.0
 40
0.45
  0
TEXT
  5
262
330
17
100
AcDbEntity
  8
LED-REF
100
AcDbText
 10
207.4879
 20
181.4458
 30
0.0
 40
1.1
  1
LED52
 50
151.2
 72
1
 11
207.4879
 21
181.4458
 31
0.0
100
AcDbText
 73
2
  0
LWPOLYLINE
  5
263
330
17
100
AcDbEntity
  8
LED
100
AcDbPolyline
 90
5
 70
0
 10
186.68638933337525
 20
199.2374538037318
 10
183.0415461962682
 20
202.66018933337523
 10
179.61881066662477
 20
199.01534619626818
 10
183.2636538037318
 20
195.59261066662475
 10
186.68638933337525
 20
199.2374538037318
  0
CIRCLE
  5
264
330
17
100
AcDbEntity
  8
LED
100
AcDbCircle
 10
182.46190223230346
 20
201.96989021339954
 30
0.0
 40
0.45
  0
TEXT
  5
265
330
17
100
AcDbEntity
  8
LED-REF
100
AcDbText
 10
183.1526
 20
199.1264
 30
0.0
 40
1.1
  1
LED53
 50
136.8
 72
1
 11
183.1526
 21
199.1264
 31
0.0
100
AcDbText
 73
2
  0
LWPOLYLINE
  5
266
330
17
100
AcDbEntity
  8
LED
100
AcDbPolyline
 90
5
 70
0
 10
167.42928680120255
 20
221.53214717369247
 10
164.75015282630756
 20
225.75378680120255
 10
160.52851319879747
 20
223.07465282630756
 10
163.20764717369246
 20
218.85301319879747
 10
167.42928680120255
 20
221.53214717369247
  0
CIRCLE
  5
267
330
17
100
AcDbEntity
  8
LED
100
AcDbCircle
 10
164.01704903310468
 20
225.22932628944633
 30
0.0
 40
0.45
  0
TEXT
  5
268
330
17
100
AcDbEntity
  8
LED-REF
100
AcDbText
 10
163.9789
 20
222.3034
 30
0.0
 40
1.1
  1
LED54
 50
122.4
 72
1
 11
163.9789
 21
222.3034
 31
0.0
100
AcDbText
 73
2
  0
LWPOLYLINE
  5
269
330
17
100
AcDbEntity
  8
LED
100
AcDbPolyline
 90
5
 70
0
 10
154.32168377667526
 20
247.91550119519948
 10
152.77659880480053
 20
252.67078377667525
 10
148.02131622332476
 20
251.12569880480052
 10
149.5664011951995
 20
246.37041622332475
 10
154.32168377667526
 20
247.91550119519948
  0
CIRCLE
  5
26A
330
17
100
AcDbEntity
  8
LED
100
AcDbCircle
 10
151.93609878985365
 20
252.34511565592305
 30
0.0
 40
0.45
  0
TEXT
  5
26B
330
17
100
AcDbEntity
  8
LED-REF
100
AcDbText
 10
151.1715
 20
249.5206
 30
0.0
 40
1.1
  1
LED55
 50
108.0
 72
1
 11
151.1715
 21
249.5206
 31
0.0
100
AcDbText
 73
2
  0
LWPOLYLINE
  5
26C
330
17
100
AcDbEntity
  8
LED
100
AcDbPolyline
 90
5
 70
0
 10
148.18714311989396
 20
276.7296094777526
 10
147.8731905222474
 20
281.71974311989396
 10
142.88305688010604
 20
281.4057905222474
 10
143.1970094777526
 20
276.41565688010604
 10
148.18714311989396
 20
276.7296094777526
  0
CIRCLE
  5
26D
330
17
100
AcDbEntity
  8
LED
100
AcDbCircle
 10
146.9781059926384
 20
281.6133303158962
 30
0.0
 40
0.45
  0
TEXT
  5
26E
330
17
100
AcDbEntity
  8
LED-REF
100
AcDbText
 10
145.5351
 20
279.0677
 30
0.0
 40
1.1
  1
LED56
 50
93.6
 72
1
 11
145.5351
 21
279.0677
 31
0.0
100
AcDbText
 73
2
  0
LWPOLYLINE
  5
26F
330
17
100
AcDbEntity
  8
LED
100
AcDbPolyline
 90
5
 70
0
 10
149.4110648403574
 20
306.16422858671393
 10
150.34797141328605
 20
311.0756648403574
 10
145.4365351596426
 20
312.012571413286
 10
144.49962858671395
 20
307.1011351596426
 10
149.4110648403574
 20
306.16422858671393
  0
CIRCLE
  5
270
330
17
100
AcDbEntity
  8
LED
100
AcDbCircle
 10
149.45454382190093
 20
311.1951936609481
 30
0.0
 40
0.45
  0
TEXT
  5
271
330
17
100
AcDbEntity
  8
LED-REF
100
AcDbText
 10
147.4238
 20
309.0884
 30
0.0
 40
1.1
  1
LED57
 50
79.2
 72
1
 11
147.4238
 21
309.0884
 31
0.0
100
AcDbText
 73
2
  0
LWPOLYLINE
  5
272
330
17
100
AcDbEntity
  8
LED
100
AcDbPolyline
 90
5
 70
0
 10
157.91671940225237
 20
334.36958413992227
 10
160.04561586007773
 20
338.8937194022524
 10
155.52148059774763
 20
341.02261586007774
 10
153.39258413992226
 20
336.49848059774763
 10
157.91671940225237
 20
334.36958413992227
  0
CIRCLE
  5
273
330
17
100
AcDbEntity
  8
LED
100
AcDbCircle
 10
159.20998254828007
 20
339.23167941203764
 30
0.0
 40
0.45
  0
TEXT
  5
274
330
17
100
AcDbEntity
  8
LED-REF
100
AcDbText
 10
156.7191
 20
337.6961
 30
0.0
 40
1.1
  1
LED58
 50
64.8
 72
1
 11
156.7191
 21
337.6961
 31
0.0
100
AcDbText
 73
2
  0
LWPOLYLINE
  5
275
330
17
100
AcDbEntity
  8
LED
100
AcDbPolyline
 90
5
 70
0
 10
173.16942313256774
 20
359.5736569186888
 10
176.3565430813112
 20
363.42622313256777
 10
172.50397686743227
 20
366.6133430813112
 10
169.3168569186888
 20
362.76077686743224
 10
173.16942313256774
 20
359.5736569186888
  0
CIRCLE
  5
276
330
17
100
AcDbEntity
  8
LED
100
AcDbCircle
 10
175.63120996332557
 20
363.96137906120276
 30
0.0
 40
0.45
  0
TEXT
  5
277
330
17
100
AcDbEntity
  8
LED-REF
100
AcDbText
 10
172.8367
 20
363.0935
 30
0.0
 40
1.1
  1
LED59
 50
50.4
 72
1
 11
172.8367
 21
363.0935
 31
0.0
100
AcDbText
 73
2
  0
LWPOLYLINE
  5
278
330
17
100
AcDbEntity
  8
LED
100
AcDbPolyline
 90
5
 70
0
 10
292.7983
 20
289.1026
 10
292.7983
 20
284.1026
 10
297.7983
 20
284.1026
 10
297.7983
 20
289.1026
 10
292.7983
 20
289.1026
  0
CIRCLE
  5
279
330
17
100
AcDbEntity
  8
LED
100
AcDbCircle
 10
293.69829999999996
 20
284.1526
 30
0.0
 40
0.45
  0
TEXT
  5
27A
330
17
100
AcDbEntity
  8
LED-REF
100
AcDbText
 10
295.2983
 20
286.6026
 30
0.0
 40
1.1
  1
LED6
 50
270.0
 72
1
 11
295.2983
 21
286.6026
 31
0.0
100
AcDbText
 73
2
  0
LWPOLYLINE
  5
27B
330
17
100
AcDbEntity
  8
LED
100
AcDbPolyline
 90
5
 70
0
 10
194.21102064479382
 20
380.1925943833314
 10
198.25610561666858
 20
383.1315206447938
 10
195.3171793552062
 20
387.17660561666855
 10
191.27209438333145
 20
384.2376793552062
 10
194.21102064479382
 20
380.1925943833314
  0
CIRCLE
  5
27C
330
17
100
AcDbEntity
  8
LED
100
AcDbCircle
 10
197.6866480398866
 20
383.83024667711663
 30
0.0
 40
0.45
  0
TEXT
  5
27D
330
17
100
AcDbEntity
  8
LED-REF
100
AcDbText
 10
194.7641
 20
383.6846
 30
0.0
 40
1.1
  1
LED60
 50
36.0
 72
1
 11
194.7641
 21
383.6846
 31
0.0
100
AcDbText
 73
2
  0
LWPOLYLINE
  5
27E
330
17
100
AcDbEntity
  8
LED
100
AcDbPolyline
 90
5
 70
0
 10
219.71927016699107
 20
394.9310474035677
 10
224.36815259643234
 20
396.77167016699104
 10
222.52752983300894
 20
401.4205525964323
 10
217.87864740356767
 20
399.5799298330089
 10
219.71927016699107
 20
394.9310474035677
  0
CIRCLE
  5
27F
330
17
100
AcDbEntity
  8
LED
100
AcDbCircle
 10
223.9903516747217
 20
397.5900627766562
 30
0.0
 40
0.45
  0
TEXT
  5
280
330
17
100
AcDbEntity
  8
LED-REF
100
AcDbText
 10
221.1234
 20
398.1758
 30
0.0
 40
1.1
  1
LED61
 50
21.6
 72
1
 11
221.1234
 21
398.1758
 31
0.0
100
AcDbText
 73
2
  0
LWPOLYLINE
  5
281
330
17
100
AcDbEntity
  8
LED
100
AcDbPolyline
 90
5
 70
0
 10
248.09134633062456
 20
402.86278016280306
 10
253.05191983719695
 20
403.48944633062456
 10
252.42525366937542
 20
408.450019837197
 10
247.46468016280303
 20
407.8233536693755
 10
248.09134633062456
 20
402.86278016280306
  0
CIRCLE
  5
282
330
17
100
AcDbEntity
  8
LED
100
AcDbCircle
 10
252.88951419192335
 20
404.3760829001294
 30
0.0
 40
0.45
  0
TEXT
  5
283
330
17
100
AcDbEntity
  8
LED-REF
100
AcDbText
 10
250.2583
 20
405.6564
 30
0.0
 40
1.1
  1
LED62
 50
7.2
 72
1
 11
250.2583
 21
405.6564
 31
0.0
100
AcDbText
 73
2
  0
LWPOLYLINE
  5
284
330
17
100
AcDbEntity
  8
LED
100
AcDbPolyline
 90
5
 70
0
 10
247.88872589877445
 20
433.0929234973102
 10
252.8630765026898
 20
433.5987258987745
 10
252.35727410122553
 20
438.57307650268984
 10
247.38292349731017
 20
438.06727410122556
 10
247.88872589877445
 20
433.0929234973102
  0
CIRCLE
  5
285
330
17
100
AcDbEntity
  8
LED
100
AcDbCircle
 10
252.72228856438707
 20
434.4890509834646
 30
0.0
 40
0.45
  0
TEXT
  5
286
330
17
100
AcDbEntity
  8
LED-REF
100
AcDbText
 10
250.123
 20
435.833
 30
0.0
 40
1.1
  1
LED63
 50
5.806
 72
1
 11
250.123
 21
435.833
 31
0.0
100
AcDbText
 73
2
  0
LWPOLYLINE
  5
287
330
17
100
AcDbEntity
  8
LED
100
AcDbPolyline
 90
5
 70
0
 10
218.7568402587888
 20
426.58975418936797
 10
223.52754581063203
 20
428.08654025878883
 10
222.0307597412112
 20
432.85724581063204
 10
217.26005418936796
 20
431.3604597412112
 10
218.7568402587888
 20
426.58975418936797
  0
CIRCLE
  5
288
330
17
100
AcDbEntity
  8
LED
100
AcDbCircle
 10
223.21041726261785
 20
428.9302993974264
 30
0.0
 40
0.45
  0
TEXT
  5
289
330
17
100
AcDbEntity
  8
LED-REF
100
AcDbText
 10
220.3938
 20
429.7235
 30
0.0
 40
1.1
  1
LED64
 50
17.419
 72
1
 11
220.3938
 21
429.7235
 31
0.0
100
AcDbText
 73
2
  0
LWPOLYLINE
  5
28A
330
17
100
AcDbEntity
  8
LED
100
AcDbPolyline
 90
5
 70
0
 10
191.5303730560765
 20
414.3554829340615
 10
195.90211706593846
 20
416.7819730560765
 10
193.47562694392346
 20
421.15371706593845
 10
189.10388293406152
 20
418.7272269439235
 10
191.5303730560765
 20
414.3554829340615
  0
CIRCLE
  5
28B
330
17
100
AcDbEntity
  8
LED
100
AcDbCircle
 10
195.42163140387714
 20
417.5446220766315
 30
0.0
 40
0.45
  0
TEXT
  5
28C
330
17
100
AcDbEntity
  8
LED-REF
100
AcDbText
 10
192.503
 20
417.7546
 30
0.0
 40
1.1
  1
LED65
 50
29.032
 72
1
 11
192.503
 21
417.7546
 31
0.0
100
AcDbText
 73
2
  0
LWPOLYLINE
  5
28D
330
17
100
AcDbEntity
  8
LED
100
AcDbPolyline
 90
5
 70
0
 10
167.32392597611417
 20
396.8909742422155
 10
171.11772575778446
 20
400.1478259761142
 10
167.86087402388583
 20
403.94162575778444
 10
164.06707424221554
 20
400.6847740238858
 10
167.32392597611417
 20
396.8909742422155
  0
CIRCLE
  5
28E
330
17
100
AcDbEntity
  8
LED
100
AcDbCircle
 10
170.493554447866
 20
400.7981414194758
 30
0.0
 40
0.45
  0
TEXT
  5
28F
330
17
100
AcDbEntity
  8
LED-REF
100
AcDbText
 10
167.5924
 20
400.4163
 30
0.0
 40
1.1
  1
LED66
 50
40.645
 72
1
 11
167.5924
 21
400.4163
 31
0.0
100
AcDbText
 73
2
  0
LWPOLYLINE
  5
290
330
17
100
AcDbEntity
  8
LED
100
AcDbPolyline
 90
5
 70
0
 10
147.1285704367966
 20
374.91129519832504
 10
150.18910480167497
 20
378.8651704367966
 10
146.23522956320343
 20
381.92570480167495
 10
143.17469519832505
 20
377.9718295632034
 10
147.1285704367966
 20
374.91129519832504
  0
CIRCLE
  5
291
330
17
100
AcDbEntity
  8
LED
100
AcDbCircle
 10
149.44680191510133
 20
379.37652787008994
 30
0.0
 40
0.45
  0
TEXT
  5
292
330
17
100
AcDbEntity
  8
LED-REF
100
AcDbText
 10
146.6819
 20
378.4185
 30
0.0
 40
1.1
  1
LED67
 50
52.258
 72
1
 11
146.6819
 21
378.4185
 31
0.0
100
AcDbText
 73
2
  0
LWPOLYLINE
  5
293
330
17
100
AcDbEntity
  8
LED
100
AcDbPolyline
 90
5
 70
0
 10
131.7711278535788
 20
349.3162039159955
 10
133.9730960840045
 20
353.8052278535788
 10
129.4840721464212
 20
356.0071960840045
 10
127.2821039159955
 20
351.5181721464212
 10
131.7711278535788
 20
349.3162039159955
  0
CIRCLE
  5
294
330
17
100
AcDbEntity
  8
LED
100
AcDbCircle
 10
133.14305209293525
 20
354.1566918956796
 30
0.0
 40
0.45
  0
TEXT
  5
295
330
17
100
AcDbEntity
  8
LED-REF
100
AcDbText
 10
130.6276
 20
352.6617
 30
0.0
 40
1.1
  1
LED68
 50
63.871
 72
1
 11
130.6276
 21
352.6617
 31
0.0
100
AcDbText
 73
2
  0
LWPOLYLINE
  5
296
330
17
100
AcDbEntity
  8
LED
100
AcDbPolyline
 90
5
 70
0
 10
121.8802683280771
 20
321.1536799113635
 10
123.13352008863646
 20
325.99406832807705
 10
118.2931316719229
 20
327.24732008863646
 10
117.03987991136353
 20
322.4069316719229
 10
121.8802683280771
 20
321.1536799113635
  0
CIRCLE
  5
297
330
17
100
AcDbEntity
  8
LED
100
AcDbCircle
 10
122.24971765602243
 20
326.1712497608106
 30
0.0
 40
0.45
  0
TEXT
  5
298
330
17
100
AcDbEntity
  8
LED-REF
100
AcDbText
 10
120.0867
 20
324.2005
 30
0.0
 40
1.1
  1
LED69
 50
75.484
 72
1
 11
120.0867
 21
324.2005
 31
0.0
100
AcDbText
 73
2
  0
LWPOLYLINE
  5
299
330
17
100
AcDbEntity
  8
LED
100
AcDbPolyline
 90
5
 70
0
 10
276.8832364905389
 20
311.6683364905389
 10
281.2133635094611
 20
309.1683364905389
 10
283.7133635094611
 20
313.4984635094611
 10
279.3832364905389
 20
315.9984635094611
 10
276.8832364905389
 20
311.6683364905389
  0
CIRCLE
  5
29A
330
17
100
AcDbEntity
  8
LED
100
AcDbCircle
 10
281.6200622392719
 20
309.97275935394487
 30
0.0
 40
0.45
  0
TEXT
  5
29B
330
17
100
AcDbEntity
  8
LED-REF
100
AcDbText
 10
280.2983
 20
312.5834
 30
0.0
 40
1.1
  1
LED7
 50
330.0
 72
1
 11
280.2983
 21
312.5834
 31
0.0
100
AcDbText
 73
2
  0
LWPOLYLINE
  5
29C
330
17
100
AcDbEntity
  8
LED
100
AcDbPolyline
 90
5
 70
0
 10
117.86097868486104
 20
291.57659515098595
 10
118.11420484901403
 20
296.57017868486105
 10
113.12062131513895
 20
296.823404849014
 10
112.86739515098596
 20
291.82982131513893
 10
117.86097868486104
 20
291.57659515098595
  0
CIRCLE
  5
29D
330
17
100
AcDbEntity
  8
LED
100
AcDbCircle
 10
117.21282755127498
 20
296.5658235590698
 30
0.0
 40
0.45
  0
TEXT
  5
29E
330
17
100
AcDbEntity
  8
LED-REF
100
AcDbText
 10
115.4908
 20
294.2
 30
0.0
 40
1.1
  1
LED70
 50
87.097
 72
1
 11
115.4908
 21
294.2
 31
0.0
100
AcDbText
 73
2
  0
LWPOLYLINE
  5
29F
330
17
100
AcDbEntity
  8
LED
100
AcDbPolyline
 90
5
 70
0
 10
119.87775203607971
 20
261.7958146772809
 10
119.12058532271914
 20
266.7381520360797
 10
114.1782479639203
 20
265.9809853227191
 10
114.93541467728087
 20
261.03864796392025
 10
119.87775203607971
 20
261.7958146772809
  0
CIRCLE
  5
2A0
330
17
100
AcDbEntity
  8
LED
100
AcDbCircle
 10
118.23853626526895
 20
266.5524386540868
 30
0.0
 40
0.45
  0
TEXT
  5
2A1
330
17
100
AcDbEntity
  8
LED-REF
100
AcDbText
 10
117.028
 20
263.8884
 30
0.0
 40
1.1
  1
LED71
 50
98.71
 72
1
 11
117.028
 21
263.8884
 31
0.0
100
AcDbText
 73
2
  0
LWPOLYLINE
  5
2A2
330
17
100
AcDbEntity
  8
LED
100
AcDbPolyline
 90
5
 70
0
 10
127.84815426627654
 20
233.0307063155155
 10
126.11159368448452
 20
237.71945426627656
 10
121.42284573372345
 20
235.9828936844845
 10
123.15940631551547
 20
231.29414573372344
 10
127.84815426627654
 20
233.0307063155155
  0
CIRCLE
  5
2A3
330
17
100
AcDbEntity
  8
LED
100
AcDbCircle
 10
125.28498465916545
 20
237.35998588204637
 30
0.0
 40
0.45
  0
TEXT
  5
2A4
330
17
100
AcDbEntity
  8
LED-REF
100
AcDbText
 10
124.6355
 20
234.5068
 30
0.0
 40
1.1
  1
LED72
 50
110.323
 72
1
 11
124.6355
 21
234.5068
 31
0.0
100
AcDbText
 73
2
  0
LWPOLYLINE
  5
2A5
330
17
100
AcDbEntity
  8
LED
100
AcDbPolyline
 90
5
 70
0
 10
141.44571392006912
 20
206.45877029686702
 10
138.800929703133
 20
210.70201392006913
 10
134.55768607993087
 20
208.057229703133
 10
137.202470296867
 20
203.81398607993088
 10
141.44571392006912
 20
206.45877029686702
  0
CIRCLE
  5
2A6
330
17
100
AcDbEntity
  8
LED
100
AcDbCircle
 10
138.06359369312597
 20
210.18352032478862
 30
0.0
 40
0.45
  0
TEXT
  5
2A7
330
17
100
AcDbEntity
  8
LED-REF
100
AcDbText
 10
138.0017
 20
207.258
 30
0.0
 40
1.1
  1
LED73
 50
121.935
 72
1
 11
138.0017
 21
207.258
 31
0.0
100
AcDbText
 73
2
  0
LWPOLYLINE
  5
2A8
330
17
100
AcDbEntity
  8
LED
100
AcDbPolyline
 90
5
 70
0
 10
160.1137986605723
 20
183.1680114508168
 10
156.66898854918318
 20
186.7919986605723
 10
153.0450013394277
 20
183.3471885491832
 10
156.4898114508168
 20
179.7232013394277
 10
160.1137986605723
 20
183.1680114508168
  0
CIRCLE
  5
2A9
330
17
100
AcDbEntity
  8
LED
100
AcDbCircle
 10
156.0511189525411
 20
186.1356929684247
 30
0.0
 40
0.45
  0
TEXT
  5
2AA
330
17
100
AcDbEntity
  8
LED-REF
100
AcDbText
 10
156.5794
 20
183.2576
 30
0.0
 40
1.1
  1
LED74
 50
133.548
 72
1
 11
156.5794
 21
183.2576
 31
0.0
100
AcDbText
 73
2
  0
LWPOLYLINE
  5
2AB
330
17
100
AcDbEntity
  8
LED
100
AcDbPolyline
 90
5
 70
0
 10
183.08818230124425
 20
164.11182043141665
 10
178.98437956858336
 20
166.96818230124424
 10
176.12801769875577
 20
162.86437956858336
 10
180.23182043141665
 20
160.00801769875576
 10
183.08818230124425
 20
164.11182043141665
  0
CIRCLE
  5
2AC
330
17
100
AcDbEntity
  8
LED
100
AcDbCircle
 10
178.511272459341
 20
166.200934190667
 30
0.0
 40
0.45
  0
TEXT
  5
2AD
330
17
100
AcDbEntity
  8
LED-REF
100
AcDbText
 10
179.6081
 20
163.4881
 30
0.0
 40
1.1
  1
LED75
 50
145.161
 72
1
 11
179.6081
 21
163.4881
 31
0.0
100
AcDbText
 73
2
  0
LWPOLYLINE
  5
2AE
330
17
100
AcDbEntity
  8
LED
100
AcDbPolyline
 90
5
 70
0
 10
209.4281885971529
 20
150.07039380014
 10
204.83340619986
 20
152.04218859715292
 10
202.8616114028471
 20
147.44740619986
 10
207.45639380014
 20
145.4756114028471
 10
209.4281885971529
 20
150.07039380014
  0
CIRCLE
  5
2AF
330
17
100
AcDbEntity
  8
LED
100
AcDbCircle
 10
204.5244309603706
 20
151.19540981767008
 30
0.0
 40
0.45
  0
TEXT
  5
2B0
330
17
100
AcDbEntity
  8
LED-REF
100
AcDbText
 10
206.1449
 20
148.7589
 30
0.0
 40
1.1
  1
LED76
 50
156.774
 72
1
 11
206.1449
 21
148.7589
 31
0.0
100
AcDbText
 73
2
  0
LWPOLYLINE
  5
2B1
330
17
100
AcDbEntity
  8
LED
100
AcDbPolyline
 90
5
 70
0
 10
238.05557443948592
 20
141.61867356677507
 10
233.15792643322493
 20
142.62517443948593
 10
232.15142556051407
 20
137.72752643322494
 10
237.04907356677506
 20
136.72102556051408
 10
238.05557443948592
 20
141.61867356677507
  0
CIRCLE
  5
2B2
330
17
100
AcDbEntity
  8
LED
100
AcDbCircle
 10
233.02573275619957
 20
141.73353278963185
 30
0.0
 40
0.45
  0
TEXT
  5
2B3
330
17
100
AcDbEntity
  8
LED-REF
100
AcDbText
 10
235.1035
 20
139.6731
 30
0.0
 40
1.1
  1
LED77
 50
168.387
 72
1
 11
235.1035
 21
139.6731
 31
0.0
100
AcDbText
 73
2
  0
LWPOLYLINE
  5
2B4
330
17
100
AcDbEntity
  8
LED
100
AcDbPolyline
 90
5
 70
0
 10
267.7983
 20
139.1026
 10
262.7983
 20
139.1026
 10
262.7983
 20
134.1026
 10
267.7983
 20
134.1026
 10
267.7983
 20
139.1026
  0
CIRCLE
  5
2B5
330
17
100
AcDbEntity
  8
LED
100
AcDbCircle
 10
262.8483
 20
138.2026
 30
0.0
 40
0.45
  0
TEXT
  5
2B6
330
17
100
AcDbEntity
  8
LED-REF
100
AcDbText
 10
265.2983
 20
136.6026
 30
0.0
 40
1.1
  1
LED78
 50
180.0
 72
1
 11
265.2983
 21
136.6026
 31
0.0
100
AcDbText
 73
2
  0
LWPOLYLINE
  5
2B7
330
17
100
AcDbEntity
  8
LED
100
AcDbPolyline
 90
5
 70
0
 10
297.4386735667751
 20
142.62517443948593
 10
292.5410255605141
 20
141.61867356677507
 10
293.54752643322496
 20
136.72102556051408
 10
298.445174439486
 20
137.72752643322494
 10
297.4386735667751
 20
142.62517443948593
  0
CIRCLE
  5
2B8
330
17
100
AcDbEntity
  8
LED
100
AcDbCircle
 10
292.77117219766467
 20
140.7471619343752
 30
0.0
 40
0.45
  0
TEXT
  5
2B9
330
17
100
AcDbEntity
  8
LED-REF
100
AcDbText
 10
295.4931
 20
139.6731
 30
0.0
 40
1.1
  1
LED79
 50
191.613
 72
1
 11
295.4931
 21
139.6731
 31
0.0
100
AcDbText
 73
2
  0
LWPOLYLINE
  5
2BA
330
17
100
AcDbEntity
  8
LED
100
AcDbPolyline
 90
5
 70
0
 10
277.76553782152104
 20
342.79033304703364
 10
282.5951669529664
 20
341.49623782152105
 10
283.889262178479
 20
346.3258669529664
 10
279.0596330470336
 20
347.619962178479
 10
277.76553782152104
 20
342.79033304703364
  0
CIRCLE
  5
2BB
330
17
100
AcDbEntity
  8
LED
100
AcDbCircle
 10
282.7798078022442
 20
342.3785120174363
 30
0.0
 40
0.45
  0
TEXT
  5
2BC
330
17
100
AcDbEntity
  8
LED-REF
100
AcDbText
 10
280.8274
 20
344.5581
 30
0.0
 40
1.1
  1
LED8
 50
345.0
 72
1
 11
280.8274
 21
344.5581
 31
0.0
100
AcDbText
 73
2
  0
LWPOLYLINE
  5
2BD
330
17
100
AcDbEntity
  8
LED
100
AcDbPolyline
 90
5
 70
0
 10
325.76319380014
 20
152.04218859715292
 10
321.1684114028471
 20
150.07039380014
 10
323.14020619986
 20
145.4756114028471
 10
327.73498859715295
 20
147.44740619986
 10
325.76319380014
 20
152.04218859715292
  0
CIRCLE
  5
2BE
330
17
100
AcDbEntity
  8
LED
100
AcDbCircle
 10
321.56928229028233
 20
149.26305091659742
 30
0.0
 40
0.45
  0
TEXT
  5
2BF
330
17
100
AcDbEntity
  8
LED-REF
100
AcDbText
 10
324.4517
 20
148.7589
 30
0.0
 40
1.1
  1
LED80
 50
203.226
 72
1
 11
324.4517
 21
148.7589
 31
0.0
100
AcDbText
 73
2
  0
LWPOLYLINE
  5
2C0
330
17
100
AcDbEntity
  8
LED
100
AcDbPolyline
 90
5
 70
0
 10
351.61222043141663
 20
166.96818230124424
 10
347.50841769875575
 20
164.11182043141665
 10
350.36477956858334
 20
160.00801769875576
 10
354.4685823012442
 20
162.86437956858336
 10
351.61222043141663
 20
166.96818230124424
  0
CIRCLE
  5
2C1
330
17
100
AcDbEntity
  8
LED
100
AcDbCircle
 10
348.0636008626513
 20
163.40169955823598
 30
0.0
 40
0.45
  0
TEXT
  5
2C2
330
17
100
AcDbEntity
  8
LED-REF
100
AcDbText
 10
350.9885
 20
163.4881
 30
0.0
 40
1.1
  1
LED81
 50
214.839
 72
1
 11
350.9885
 21
163.4881
 31
0.0
100
AcDbText
 73
2
  0
LWPOLYLINE
  5
2C3
330
17
100
AcDbEntity
  8
LED
100
AcDbPolyline
 90
5
 70
0
 10
373.9276114508168
 20
186.7919986605723
 10
370.4828013394277
 20
183.1680114508168
 10
374.1067885491832
 20
179.7232013394277
 10
377.5515986605723
 20
183.3471885491832
 10
373.9276114508168
 20
186.7919986605723
  0
CIRCLE
  5
2C4
330
17
100
AcDbEntity
  8
LED
100
AcDbCircle
 10
371.16956713829757
 20
182.58418550286433
 30
0.0
 40
0.45
  0
TEXT
  5
2C5
330
17
100
AcDbEntity
  8
LED-REF
100
AcDbText
 10
374.0172
 20
183.2576
 30
0.0
 40
1.1
  1
LED82
 50
226.452
 72
1
 11
374.0172
 21
183.2576
 31
0.0
100
AcDbText
 73
2
  0
LWPOLYLINE
  5
2C6
330
17
100
AcDbEntity
  8
LED
100
AcDbPolyline
 90
5
 70
0
 10
391.795670296867
 20
210.70201392006913
 10
389.15088607993084
 20
206.45877029686702
 10
393.394129703133
 20
203.81398607993088
 10
396.03891392006915
 20
208.057229703133
 10
391.795670296867
 20
210.70201392006913
  0
CIRCLE
  5
2C7
330
17
100
AcDbEntity
  8
LED
100
AcDbCircle
 10
389.9411177742766
 20
206.02514157405054
 30
0.0
 40
0.45
  0
TEXT
  5
2C8
330
17
100
AcDbEntity
  8
LED-REF
100
AcDbText
 10
392.5949
 20
207.258
 30
0.0
 40
1.1
  1
LED83
 50
238.065
 72
1
 11
392.5949
 21
207.258
 31
0.0
100
AcDbText
 73
2
  0
LWPOLYLINE
  5
2C9
330
17
100
AcDbEntity
  8
LED
100
AcDbPolyline
 90
5
 70
0
 10
404.4850063155155
 20
237.71945426627656
 10
402.74844573372343
 20
233.0307063155155
 10
407.4371936844845
 20
231.29414573372344
 10
409.17375426627655
 20
235.9828936844845
 10
404.4850063155155
 20
237.71945426627656
  0
CIRCLE
  5
2CA
330
17
100
AcDbEntity
  8
LED
100
AcDbCircle
 10
403.60978597067833
 20
232.7650128903005
 30
0.0
 40
0.45
  0
TEXT
  5
2CB
330
17
100
AcDbEntity
  8
LED-REF
100
AcDbText
 10
405.9611
 20
234.5068
 30
0.0
 40
1.1
  1
LED84
 50
249.67700000000002
 72
1
 11
405.9611
 21
234.5068
 31
0.0
100
AcDbText
 73
2
  0
LWPOLYLINE
  5
2CC
330
17
100
AcDbEntity
  8
LED
100
AcDbPolyline
 90
5
 70
0
 10
411.47591467728085
 20
266.7381520360797
 10
410.71874796392024
 20
261.7958146772809
 10
415.6610853227191
 20
261.03864796392025
 10
416.4182520360797
 20
265.9809853227191
 10
411.47591467728085
 20
266.7381520360797
  0
CIRCLE
  5
2CD
330
17
100
AcDbEntity
  8
LED
100
AcDbCircle
 10
411.61594035563763
 20
261.70894804246393
 30
0.0
 40
0.45
  0
TEXT
  5
2CE
330
17
100
AcDbEntity
  8
LED-REF
100
AcDbText
 10
413.5685
 20
263.8884
 30
0.0
 40
1.1
  1
LED85
 50
261.29
 72
1
 11
413.5685
 21
263.8884
 31
0.0
100
AcDbText
 73
2
  0
LWPOLYLINE
  5
2CF
330
17
100
AcDbEntity
  8
LED
100
AcDbPolyline
 90
5
 70
0
 10
412.48239515098595
 20
296.57017868486105
 10
412.7356213151389
 20
291.57659515098595
 10
417.729204849014
 20
291.82982131513893
 10
417.47597868486105
 20
296.823404849014
 10
412.48239515098595
 20
296.57017868486105
  0
CIRCLE
  5
2D0
330
17
100
AcDbEntity
  8
LED
100
AcDbCircle
 10
413.63193408959495
 20
291.6721116958722
 30
0.0
 40
0.45
  0
TEXT
  5
2D1
330
17
100
AcDbEntity
  8
LED-REF
100
AcDbText
 10
415.1058
 20
294.2
 30
0.0
 40
1.1
  1
LED86
 50
272.903
 72
1
 11
415.1058
 21
294.2
 31
0.0
100
AcDbText
 73
2
  0
LWPOLYLINE
  5
2D2
330
17
100
AcDbEntity
  8
LED
100
AcDbPolyline
 90
5
 70
0
 10
407.46307991136354
 20
325.99406832807705
 10
408.71633167192294
 20
321.1536799113635
 10
413.5567200886365
 20
322.4069316719229
 10
412.3034683280771
 20
327.24732008863646
 10
407.46307991136354
 20
325.99406832807705
  0
CIRCLE
  5
2D3
330
17
100
AcDbEntity
  8
LED
100
AcDbCircle
 10
409.57506906932576
 20
321.4276691124313
 30
0.0
 40
0.45
  0
TEXT
  5
2D4
330
17
100
AcDbEntity
  8
LED-REF
100
AcDbText
 10
410.5099
 20
324.2005
 30
0.0
 40
1.1
  1
LED87
 50
284.516
 72
1
 11
410.5099
 21
324.2005
 31
0.0
100
AcDbText
 73
2
  0
LWPOLYLINE
  5
2D5
330
17
100
AcDbEntity
  8
LED
100
AcDbPolyline
 90
5
 70
0
 10
396.6235039159955
 20
353.8052278535788
 10
398.8254721464212
 20
349.3162039159955
 10
403.3144960840045
 20
351.5181721464212
 10
401.1125278535788
 20
356.0071960840045
 10
396.6235039159955
 20
353.8052278535788
  0
CIRCLE
  5
2D6
330
17
100
AcDbEntity
  8
LED
100
AcDbCircle
 10
399.61147677288193
 20
349.75744843684794
 30
0.0
 40
0.45
  0
TEXT
  5
2D7
330
17
100
AcDbEntity
  8
LED-REF
100
AcDbText
 10
399.969
 20
352.6617
 30
0.0
 40
1.1
  1
LED88
 50
296.129
 72
1
 11
399.969
 21
352.6617
 31
0.0
100
AcDbText
 73
2
  0
LWPOLYLINE
  5
2D8
330
17
100
AcDbEntity
  8
LED
100
AcDbPolyline
 90
5
 70
0
 10
380.407495198325
 20
378.8651704367966
 10
383.4680295632034
 20
374.91129519832504
 10
387.42190480167494
 20
377.9718295632034
 10
384.36137043679656
 20
381.92570480167495
 10
380.407495198325
 20
378.8651704367966
  0
CIRCLE
  5
2D9
330
17
100
AcDbEntity
  8
LED
100
AcDbCircle
 10
384.1491217624795
 20
375.50173013638783
 30
0.0
 40
0.45
  0
TEXT
  5
2DA
330
17
100
AcDbEntity
  8
LED-REF
100
AcDbText
 10
383.9147
 20
378.4185
 30
0.0
 40
1.1
  1
LED89
 50
307.742
 72
1
 11
383.9147
 21
378.4185
 31
0.0
100
AcDbText
 73
2
  0
LWPOLYLINE
  5
2DB
330
17
100
AcDbEntity
  8
LED
100
AcDbPolyline
 90
5
 70
0
 10
304.1891660940672
 20
329.029
 10
307.7247
 20
325.49346609406723
 10
311.26023390593275
 20
329.029
 10
307.7247
 20
332.56453390593276
 10
304.1891660940672
 20
329.029
  0
CIRCLE
  5
2DC
330
17
100
AcDbEntity
  8
LED
100
AcDbCircle
 10
308.3257407640086
 20
326.16521753619446
 30
0.0
 40
0.45
  0
TEXT
  5
2DD
330
17
100
AcDbEntity
  8
LED-REF
100
AcDbText
 10
307.7247
 20
329.029
 30
0.0
 40
1.1
  1
LED9
 50
315.0
 72
1
 11
307.7247
 21
329.029
 31
0.0
100
AcDbText
 73
2
  0
LWPOLYLINE
  5
2DE
330
17
100
AcDbEntity
  8
LED
100
AcDbPolyline
 90
5
 70
0
 10
359.47887424221557
 20
400.1478259761142
 10
363.2726740238858
 20
396.8909742422155
 10
366.5295257577845
 20
400.6847740238858
 10
362.7357259761142
 20
403.94162575778444
 10
359.47887424221557
 20
400.1478259761142
  0
CIRCLE
  5
2DF
330
17
100
AcDbEntity
  8
LED
100
AcDbCircle
 10
363.8209693381709
 20
397.6064267202552
 30
0.0
 40
0.45
  0
TEXT
  5
2E0
330
17
100
AcDbEntity
  8
LED-REF
100
AcDbText
 10
363.0042
 20
400.4163
 30
0.0
 40
1.1
  1
LED90
 50
319.355
 72
1
 11
363.0042
 21
400.4163
 31
0.0
100
AcDbText
 73
2
  0
LWPOLYLINE
  5
2E1
330
17
100
AcDbEntity
  8
LED
100
AcDbPolyline
 90
5
 70
0
 10
334.6944829340615
 20
416.7819730560765
 10
339.0662269439235
 20
414.3554829340615
 10
341.49271706593845
 20
418.7272269439235
 10
337.1209730560765
 20
421.15371706593845
 10
334.6944829340615
 20
416.7819730560765
  0
CIRCLE
  5
2E2
330
17
100
AcDbEntity
  8
LED
100
AcDbCircle
 10
339.45927772578756
 20
415.16666175705683
 30
0.0
 40
0.45
  0
TEXT
  5
2E3
330
17
100
AcDbEntity
  8
LED-REF
100
AcDbText
 10
338.0936
 20
417.7546
 30
0.0
 40
1.1
  1
LED91
 50
330.968
 72
1
 11
338.0936
 21
417.7546
 31
0.0
100
AcDbText
 73
2
  0
LWPOLYLINE
  5
2E4
330
17
100
AcDbEntity
  8
LED
100
AcDbPolyline
 90
5
 70
0
 10
307.069054189368
 20
428.08654025878883
 10
311.8397597412112
 20
426.58975418936797
 10
313.33654581063206
 20
431.3604597412112
 10
308.56584025878885
 20
432.85724581063204
 10
307.069054189368
 20
428.08654025878883
  0
CIRCLE
  5
2E5
330
17
100
AcDbEntity
  8
LED
100
AcDbCircle
 10
312.0614741781885
 20
427.46344904939394
 30
0.0
 40
0.45
  0
TEXT
  5
2E6
330
17
100
AcDbEntity
  8
LED-REF
100
AcDbText
 10
310.2028
 20
429.7235
 30
0.0
 40
1.1
  1
LED92
 50
342.581
 72
1
 11
310.2028
 21
429.7235
 31
0.0
100
AcDbText
 73
2
  0
LWPOLYLINE
  5
2E7
330
17
100
AcDbEntity
  8
LED
100
AcDbPolyline
 90
5
 70
0
 10
277.7334234973102
 20
433.5987258987745
 10
282.70777410122554
 20
433.0929234973102
 10
283.2135765026898
 20
438.06727410122556
 10
278.23922589877446
 20
438.57307650268984
 10
277.7334234973102
 20
433.5987258987745
  0
CIRCLE
  5
2E8
330
17
100
AcDbEntity
  8
LED
100
AcDbCircle
 10
282.74907502745
 20
433.99336463002965
 30
0.0
 40
0.45
  0
TEXT
  5
2E9
330
17
100
AcDbEntity
  8
LED-REF
100
AcDbText
 10
280.4735
 20
435.833
 30
0.0
 40
1.1
  1
LED93
 50
354.194
 72
1
 11
280.4735
 21
435.833
 31
0.0
100
AcDbText
 73
2
  0
LWPOLYLINE
  5
2EA
330
17
100
AcDbEntity
  8
LED
100
AcDbPolyline
 90
5
 70
0
 10
277.86038609236977
 20
463.6751274650278
 10
282.8423725349722
 20
463.25108609236975
 10
283.26641390763024
 20
468.23307253497217
 10
278.2844274650278
 20
468.6571139076302
 10
277.86038609236977
 20
463.6751274650278
  0
CIRCLE
  5
2EB
330
17
100
AcDbEntity
  8
LED
100
AcDbCircle
 10
282.8688801176246
 20
464.15208406576477
 30
0.0
 40
0.45
  0
TEXT
  5
2EC
330
17
100
AcDbEntity
  8
LED-REF
100
AcDbText
 10
280.5634
 20
465.9541
 30
0.0
 40
1.1
  1
LED94
 50
355.135
 72
1
 11
280.5634
 21
465.9541
 31
0.0
100
AcDbText
 73
2
  0
LWPOLYLINE
  5
2ED
330
17
100
AcDbEntity
  8
LED
100
AcDbPolyline
 90
5
 70
0
 10
307.60500981818575
 20
459.00513436182223
 10
312.4436656381778
 20
457.7452098181858
 10
313.7035901818142
 20
462.5838656381778
 10
308.8649343618222
 20
463.84379018181426
 10
307.60500981818575
 20
459.00513436182223
  0
CIRCLE
  5
2EE
330
17
100
AcDbEntity
  8
LED
100
AcDbCircle
 10
312.6220654978324
 20
458.6287671112207
 30
0.0
 40
0.45
  0
TEXT
  5
2EF
330
17
100
AcDbEntity
  8
LED-REF
100
AcDbText
 10
310.6543
 20
460.7945
 30
0.0
 40
1.1
  1
LED95
 50
345.405
 72
1
 11
310.6543
 21
460.7945
 31
0.0
100
AcDbText
 73
2
  0
LWPOLYLINE
  5
2F0
330
17
100
AcDbEntity
  8
LED
100
AcDbPolyline
 90
5
 70
0
 10
336.13268271961135
 20
449.3753631706296
 10
340.68883682937036
 20
447.31588271961135
 10
342.7483172803886
 20
451.87203682937036
 10
338.1921631706296
 20
453.9315172803886
 10
336.13268271961135
 20
449.3753631706296
  0
CIRCLE
  5
2F1
330
17
100
AcDbEntity
  8
LED
100
AcDbCircle
 10
341.01398176945605
 20
448.1565852638782
 30
0.0
 40
0.45
  0
TEXT
  5
2F2
330
17
100
AcDbEntity
  8
LED-REF
100
AcDbText
 10
339.4405
 20
450.6237
 30
0.0
 40
1.1
  1
LED96
 50
335.676
 72
1
 11
339.4405
 21
450.6237
 31
0.0
100
AcDbText
 73
2
  0
LWPOLYLINE
  5
2F3
330
17
100
AcDbEntity
  8
LED
100
AcDbPolyline
 90
5
 70
0
 10
362.62258954490164
 20
435.06295956742053
 10
366.76514043257947
 20
432.2630895449017
 10
369.56501045509833
 20
436.4056404325795
 10
365.4224595674205
 20
439.20551045509836
 10
362.62258954490164
 20
435.06295956742053
  0
CIRCLE
  5
2F4
330
17
100
AcDbEntity
  8
LED
100
AcDbCircle
 10
367.2276915277561
 20
433.0367474049089
 30
0.0
 40
0.45
  0
TEXT
  5
2F5
330
17
100
AcDbEntity
  8
LED-REF
100
AcDbText
 10
366.0938
 20
435.7343
 30
0.0
 40
1.1
  1
LED97
 50
325.946
 72
1
 11
366.0938
 21
435.7343
 31
0.0
100
AcDbText
 73
2
  0
LWPOLYLINE
  5
2F6
330
17
100
AcDbEntity
  8
LED
100
AcDbPolyline
 90
5
 70
0
 10
386.3125623095061
 20
416.4796702765432
 10
389.92232972345687
 20
413.0199623095061
 10
393.3820376904939
 20
416.6297297234569
 10
389.77227027654317
 20
420.0894376904939
 10
386.3125623095061
 20
416.4796702765432
  0
CIRCLE
  5
2F7
330
17
100
AcDbEntity
  8
LED
100
AcDbCircle
 10
390.508979483384
 20
413.7043175236876
 30
0.0
 40
0.45
  0
TEXT
  5
2F8
330
17
100
AcDbEntity
  8
LED-REF
100
AcDbText
 10
389.8473
 20
416.5547
 30
0.0
 40
1.1
  1
LED98
 50
316.216
 72
1
 11
389.8473
 21
416.5547
 31
0.0
100
AcDbText
 73
2
  0
LWPOLYLINE
  5
2F9
330
17
100
AcDbEntity
  8
LED
100
AcDbPolyline
 90
5
 70
0
 10
406.52122867761193
 20
394.1600395738316
 10
409.4943604261684
 20
390.1400286776119
 10
413.5143713223881
 20
393.11316042616835
 10
410.54123957383166
 20
397.1331713223881
 10
406.52122867761193
 20
394.1600395738316
  0
CIRCLE
  5
2FA
330
17
100
AcDbEntity
  8
LED
100
AcDbCircle
 10
410.18823107000236
 20
390.7153925013142
 30
0.0
 40
0.45
  0
TEXT
  5
2FB
330
17
100
AcDbEntity
  8
LED-REF
100
AcDbText
 10
410.0178
 20
393.6366
 30
0.0
 40
1.1
  1
LED99
 50
306.486
 72
1
 11
410.0178
 21
393.6366
 31
0.0
100
AcDbText
 73
2
  0
CIRCLE
  5
2FC
330
17
100
AcDbEntity
  8
WAGO
100
AcDbCircle
 10
63.738
 20
291.853
 30
0.0
 40
0.6
  0
CIRCLE
  5
2FD
330
17
100
AcDbEntity
  8
WAGO
100
AcDbCircle
 10
63.738
 20
291.853
 30
0.0
 40
0.95
  0
CIRCLE
  5
2FE
330
17
100
AcDbEntity
  8
WAGO
100
AcDbCircle
 10
63.738
 20
288.353
 30
0.0
 40
0.6
  0
CIRCLE
  5
2FF
330
17
100
AcDbEntity
  8
WAGO
100
AcDbCircle
 10
63.738
 20
288.353
 30
0.0
 40
0.95
  0
CIRCLE
  5
300
330
17
100
AcDbEntity
  8
WAGO
100
AcDbCircle
 10
63.738
 20
284.853
 30
0.0
 40
0.6
  0
CIRCLE
  5
301
330
17
100
AcDbEntity
  8
WAGO
100
AcDbCircle
 10
63.738
 20
284.853
 30
0.0
 40
0.95
  0
CIRCLE
  5
302
330
17
100
AcDbEntity
  8
WAGO
100
AcDbCircle
 10
63.738
 20
281.353
 30
0.0
 40
0.6
  0
CIRCLE
  5
303
330
17
100
AcDbEntity
  8
WAGO
100
AcDbCircle
 10
63.738
 20
281.353
 30
0.0
 40
0.95
  0
CIRCLE
  5
304
330
17
100
AcDbEntity
  8
WAGO
100
AcDbCircle
 10
68.738
 20
291.853
 30
0.0
 40
0.6
  0
CIRCLE
  5
305
330
17
100
AcDbEntity
  8
WAGO
100
AcDbCircle
 10
68.738
 20
291.853
 30
0.0
 40
0.95
  0
CIRCLE
  5
306
330
17
100
AcDbEntity
  8
WAGO
100
AcDbCircle
 10
68.738
 20
288.353
 30
0.0
 40
0.6
  0
CIRCLE
  5
307
330
17
100
AcDbEntity
  8
WAGO
100
AcDbCircle
 10
68.738
 20
288.353
 30
0.0
 40
0.95
  0
CIRCLE
  5
308
330
17
100
AcDbEntity
  8
WAGO
100
AcDbCircle
 10
68.738
 20
284.853
 30
0.0
 40
0.6
  0
CIRCLE
  5
309
330
17
100
AcDbEntity
  8
WAGO
100
AcDbCircle
 10
68.738
 20
284.853
 30
0.0
 40
0.95
  0
CIRCLE
  5
30A
330
17
100
AcDbEntity
  8
WAGO
100
AcDbCircle
 10
68.738
 20
281.353
 30
0.0
 40
0.6
  0
CIRCLE
  5
30B
330
17
100
AcDbEntity
  8
WAGO
100
AcDbCircle
 10
68.738
 20
281.353
 30
0.0
 40
0.95
  0
LWPOLYLINE
  5
30C
330
17
100
AcDbEntity
  8
WAGO
100
AcDbPolyline
 90
5
 70
0
 10
63.938
 20
278.853
 10
63.938
 20
294.353
 10
76.638
 20
294.353
 10
76.638
 20
278.853
 10
63.938
 20
278.853
  0
LINE
  5
30D
330
17
100
AcDbEntity
  8
WAGO
100
AcDbLine
 10
76.638
 20
283.603
 30
0.0
 11
76.638
 21
289.603
 31
0.0
  0
CIRCLE
  5
30E
330
17
100
AcDbEntity
  8
WAGO
100
AcDbCircle
 10
461.858
 20
291.853
 30
0.0
 40
0.6
  0
CIRCLE
  5
30F
330
17
100
AcDbEntity
  8
WAGO
100
AcDbCircle
 10
461.858
 20
291.853
 30
0.0
 40
0.95
  0
CIRCLE
  5
310
330
17
100
AcDbEntity
  8
WAGO
100
AcDbCircle
 10
461.858
 20
288.353
 30
0.0
 40
0.6
  0
CIRCLE
  5
311
330
17
100
AcDbEntity
  8
WAGO
100
AcDbCircle
 10
461.858
 20
288.353
 30
0.0
 40
0.95
  0
CIRCLE
  5
312
330
17
100
AcDbEntity
  8
WAGO
100
AcDbCircle
 10
461.858
 20
284.853
 30
0.0
 40
0.6
  0
CIRCLE
  5
313
330
17
100
AcDbEntity
  8
WAGO
100
AcDbCircle
 10
461.858
 20
284.853
 30
0.0
 40
0.95
  0
CIRCLE
  5
314
330
17
100
AcDbEntity
  8
WAGO
100
AcDbCircle
 10
461.858
 20
281.353
 30
0.0
 40
0.6
  0
CIRCLE
  5
315
330
17
100
AcDbEntity
  8
WAGO
100
AcDbCircle
 10
461.858
 20
281.353
 30
0.0
 40
0.95
  0
CIRCLE
  5
316
330
17
100
AcDbEntity
  8
WAGO
100
AcDbCircle
 10
466.858
 20
291.853
 30
0.0
 40
0.6
  0
CIRCLE
  5
317
330
17
100
AcDbEntity
  8
WAGO
100
AcDbCircle
 10
466.858
 20
291.853
 30
0.0
 40
0.95
  0
CIRCLE
  5
318
330
17
100
AcDbEntity
  8
WAGO
100
AcDbCircle
 10
466.858
 20
288.353
 30
0.0
 40
0.6
  0
CIRCLE
  5
319
330
17
100
AcDbEntity
  8
WAGO
100
AcDbCircle
 10
466.858
 20
288.353
 30
0.0
 40
0.95
  0
CIRCLE
  5
31A
330
17
100
AcDbEntity
  8
WAGO
100
AcDbCircle
 10
466.858
 20
284.853
 30
0.0
 40
0.6
  0
CIRCLE
  5
31B
330
17
100
AcDbEntity
  8
WAGO
100
AcDbCircle
 10
466.858
 20
284.853
 30
0.0
 40
0.95
  0
CIRCLE
  5
31C
330
17
100
AcDbEntity
  8
WAGO
100
AcDbCircle
 10
466.858
 20
281.353
 30
0.0
 40
0.6
  0
CIRCLE
  5
31D
330
17
100
AcDbEntity
  8
WAGO
100
AcDbCircle
 10
466.858
 20
281.353
 30
0.0
 40
0.95
  0
LWPOLYLINE
  5
31E
330
17
100
AcDbEntity
  8
WAGO
100
AcDbPolyline
 90
5
 70
0
 10
466.6580000000001
 20
278.853
 10
466.6580000000001
 20
294.353
 10
453.9580000000001
 20
294.353
 10
453.9580000000001
 20
278.853
 10
466.6580000000001
 20
278.853
  0
LINE
  5
31F
330
17
100
AcDbEntity
  8
WAGO
100
AcDbLine
 10
453.9580000000001
 20
283.603
 30
0.0
 11
453.9580000000001
 21
289.603
 31
0.0
  0
ENDSEC
  0
SECTION
  2
OBJECTS
  0
DICTIONARY
  5
A
330
0
100
AcDbDictionary
281
1
  3
ACAD_COLOR
350
B
  3
ACAD_GROUP
350
C
  3
ACAD_LAYOUT
350
D
  3
ACAD_MATERIAL
350
E
  3
ACAD_MLEADERSTYLE
350
F
  3
ACAD_MLINESTYLE
350
10
  3
ACAD_PLOTSETTINGS
350
11
  3
ACAD_PLOTSTYLENAME
350
12
  3
ACAD_SCALELIST
350
14
  3
ACAD_TABLESTYLE
350
15
  3
ACAD_VISUALSTYLE
350
16
  3
EZDXF_META
350
2D
  0
DICTIONARY
  5
B
330
A
100
AcDbDictionary
281
1
  0
DICTIONARY
  5
C
330
A
100
AcDbDictionary
281
1
  0
DICTIONARY
  5
D
330
A
100
AcDbDictionary
281
1
  3
Model
350
1A
  3
Layout1
350
1E
  0
DICTIONARY
  5
E
330
A
100
AcDbDictionary
281
1
  3
ByBlock
350
1F
  3
ByLayer
350
20
  3
Global
350
21
  0
DICTIONARY
  5
F
330
A
100
AcDbDictionary
281
1
  3
Standard
350
2C
  0
DICTIONARY
  5
10
330
A
100
AcDbDictionary
281
1
  3
Standard
350
22
  0
DICTIONARY
  5
11
330
A
100
AcDbDictionary
281
1
  0
ACDBDICTIONARYWDFLT
  5
12
330
A
100
AcDbDictionary
281
1
  3
Normal
350
13
100
AcDbDictionaryWithDefault
340
13
  0
ACDBPLACEHOLDER
  5
13
330
12
  0
DICTIONARY
  5
14
330
A
100
AcDbDictionary
281
1
  0
DICTIONARY
  5
15
330
A
100
AcDbDictionary
281
1
  0
DICTIONARY
  5
16
330
A
100
AcDbDictionary
281
1
  0
LAYOUT
  5
1A
330
D
100
AcDbPlotSettings
  1

  4
A3
  6

 40
7.5
 41
20.0
 42
7.5
 43
20.0
 44
420.0
 45
297.0
 46
0.0
 47
0.0
 48
0.0
 49
0.0
140
0.0
141
0.0
142
1.0
143
1.0
 70
1024
 72
1
 73
0
 74
5
  7

 75
16
 76
0
 77
2
 78
300
147
1.0
148
0.0
149
0.0
100
AcDbLayout
  1
Model
 70
1
 71
0
 10
0.0
 20
0.0
 11
420.0
 21
297.0
 12
0.0
 22
0.0
 32
0.0
 14
1e+20
 24
1e+20
 34
1e+20
 15
-1e+20
 25
-1e+20
 35
-1e+20
146
0.0
 13
0.0
 23
0.0
 33
0.0
 16
1.0
 26
0.0
 36
0.0
 17
0.0
 27
1.0
 37
0.0
 76
1
330
17
  0
LAYOUT
  5
1E
330
D
100
AcDbPlotSettings
  1

  4
A3
  6

 40
7.5
 41
20.0
 42
7.5
 43
20.0
 44
420.0
 45
297.0
 46
0.0
 47
0.0
 48
0.0
 49
0.0
140
0.0
141
0.0
142
1.0
143
1.0
 70
0
 72
1
 73
0
 74
5
  7

 75
16
 76
0
 77
2
 78
300
147
1.0
148
0.0
149
0.0
100
AcDbLayout
  1
Layout1
 70
1
 71
1
 10
0.0
 20
0.0
 11
420.0
 21
297.0
 12
0.0
 22
0.0
 32
0.0
 14
1e+20
 24
1e+20
 34
1e+20
 15
-1e+20
 25
-1e+20
 35
-1e+20
146
0.0
 13
0.0
 23
0.0
 33
0.0
 16
1.0
 26
0.0
 36
0.0
 17
0.0
 27
1.0
 37
0.0
 76
1
330
1B
  0
MATERIAL
  5
1F
102
{ACAD_REACTORS
330
E
102
}
330
E
100
AcDbMaterial
  1
ByBlock
  2

 70
0
 40
1.0
 71
1
 41
1.0
 91
-1023410177
 42
1.0
 72
1
  3

 73
1
 74
1
 75
1
 44
0.5
 73
0
 45
1.0
 46
1.0
 77
1
  4

 78
1
 79
1
170
1
 48
1.0
171
1
  6

172
1
173
1
174
1
140
1.0
141
1.0
175
1
  7

176
1
177
1
178
1
143
1.0
179
1
  8

270
1
271
1
272
1
145
1.0
146
1.0
273
1
  9

274
1
275
1
276
1
 42
1.0
 72
1
  3

 73
1
 74
1
 75
1
 94
63
  0
MATERIAL
  5
20
102
{ACAD_REACTORS
330
E
102
}
330
E
100
AcDbMaterial
  1
ByLayer
  2

 70
0
 40
1.0
 71
1
 41
1.0
 91
-1023410177
 42
1.0
 72
1
  3

 73
1
 74
1
 75
1
 44
0.5
 73
0
 45
1.0
 46
1.0
 77
1
  4

 78
1
 79
1
170
1
 48
1.0
171
1
  6

172
1
173
1
174
1
140
1.0
141
1.0
175
1
  7

176
1
177
1
178
1
143
1.0
179
1
  8

270
1
271
1
272
1
145
1.0
146
1.0
273
1
  9

274
1
275
1
276
1
 42
1.0
 72
1
  3

 73
1
 74
1
 75
1
 94
63
  0
MATERIAL
  5
21
102
{ACAD_REACTORS
330
E
102
}
330
E
100
AcDbMaterial
  1
Global
  2

 70
0
 40
1.0
 71
1
 41
1.0
 91
-1023410177
 42
1.0
 72
1
  3

 73
1
 74
1
 75
1
 44
0.5
 73
0
 45
1.0
 46
1.0
 77
1
  4

 78
1
 79
1
170
1
 48
1.0
171
1
  6

172
1
173
1
174
1
140
1.0
141
1.0
175
1
  7

176
1
177
1
178
1
143
1.0
179
1
  8

270
1
271
1
272
1
145
1.0
146
1.0
273
1
  9

274
1
275
1
276
1
 42
1.0
 72
1
  3

 73
1
 74
1
 75
1
 94
63
  0
MLINESTYLE
  5
22
102
{ACAD_REACTORS
330
10
102
}
330
10
100
AcDbMlineStyle
  2
Standard
 70
0
  3

 62
256
 51
90.0
 52
90.0
 71
2
 49
0.5
 62
256
  6
BYLAYER
 49
-0.5
 62
256
  6
BYLAYER
  0
MLEADERSTYLE
  5
2C
102
{ACAD_REACTORS
330
F
102
}
330
F
100
AcDbMLeaderStyle
179
2
170
2
171
1
172
0
 90
2
 40
0.0
 41
0.0
173
1
 91
-1056964608
 92
-2
290
1
 42
2.0
291
1
 43
8.0
  3
Standard
 44
4.0
300

342
29
174
1
175
1
176
0
178
1
 93
-1056964608
 45
4.0
292
0
297
0
 46
4.0
 94
-1056964608
 47
1.0
 49
1.0
140
1.0
294
1
141
0.0
177
0
142
1.0
295
0
296
0
143
3.75
271
0
272
9
273
9
  0
DICTIONARY
  5
2D
330
A
100
AcDbDictionary
280
1
281
1
  3
CREATED_BY_EZDXF
350
2E
  3
WRITTEN_BY_EZDXF
350
322
  0
DICTIONARYVAR
  5
2E
330
2D
100
DictionaryVariables
280
0
  1
1.4.4 @ 2026-08-30T16:44:22.547146+00:00
  0
DICTIONARYVAR
  5
322
330
2D
100
DictionaryVariables
280
0
  1
1.4.4 @ 2026-08-30T16:44:22.585684+00:00
  0
ENDSEC
  0
EOF
