  0
SECTION
  2
HEADER
  9
$ACADVER
  1
AC1024
  9
$ACADMAINTVER
 70
6
  9
$DWGCODEPAGE
  3
ANSI_1252
  9
$LASTSAVEDBY
  1
ezdxf
  9
$INSBASE
 10
0.0
 20
0.0
 30
0.0
  9
$EXTMIN
 10
1e+20
 20
1e+20
 30
1e+20
  9
$EXTMAX
 10
-1e+20
 20
-1e+20
 30
-1e+20
  9
$LIMMIN
 10
0.0
 20
0.0
  9
$LIMMAX
 10
420.0
 20
297.0
  9
$ORTHOMODE
 70
0
  9
$REGENMODE
 70
1
  9
$FILLMODE
 70
1
  9
$QTEXTMODE
 70
0
  9
$MIRRTEXT
 70
1
  9
$LTSCALE
 40
1.0
  9
$ATTMODE
 70
1
  9
$TEXTSIZE
 40
2.5
  9
$TRACEWID
 40
1.0
  9
$TEXTSTYLE
  7
Standard
  9
$CLAYER
  8
0
  9
$CELTYPE
  6
ByLayer
  9
$CECOLOR
 62
256
  9
$CELTSCALE
 40
1.0
  9
$DISPSILH
 70
0
  9
$DIMSCALE
 40
1.0
  9
$DIMASZ
 40
2.5
  9
$DIMEXO
 40
0.625
  9
$DIMDLI
 40
3.75
  9
$DIMRND
 40
0.0
  9
$DIMDLE
 40
0.0
  9
$DIMEXE
 40
1.25
  9
$DIMTP
 40
0.0
  9
$DIMTM
 40
0.0
  9
$DIMTXT
 40
2.5
  9
$DIMCEN
 40
2.5
  9
$DIMTSZ
 40
0.0
  9
$DIMTOL
 70
0
  9
$DIMLIM
 70
0
  9
$DIMTIH
 70
0
  9
$DIMTOH
 70
0
  9
$DIMSE1
 70
0
  9
$DIMSE2
 70
0
  9
$DIMTAD
 70
1
  9
$DIMZIN
 70
8
  9
$DIMBLK
  1

  9
$DIMASO
 70
1
  9
$DIMSHO
 70
1
  9
$DIMPOST
  1

  9
$DIMAPOST
  1

  9
$DIMALT
 70
0
  9
$DIMALTD
 70
3
  9
$DIMALTF
 40
0.03937007874
  9
$DIMLFAC
 40
1.0
  9
$DIMTOFL
 70
1
  9
$DIMTVP
 40
0.0
  9
$DIMTIX
 70
0
  9
$DIMSOXD
 70
0
  9
$DIMSAH
 70
0
  9
$DIMBLK1
  1

  9
$DIMBLK2
  1

  9
$DIMSTYLE
  2
ISO-25
  9
$DIMCLRD
 70
0
  9
$DIMCLRE
 70
0
  9
$DIMCLRT
 70
0
  9
$DIMTFAC
 40
1.0
  9
$DIMGAP
 40
0.625
  9
$DIMJUST
 70
0
  9
$DIMSD1
 70
0
  9
$DIMSD2
 70
0
  9
$DIMTOLJ
 70
0
  9
$DIMTZIN
 70
8
  9
$DIMALTZ
 70
0
  9
$DIMALTTZ
 70
0
  9
$DIMUPT
 70
0
  9
$DIMDEC
 70
2
  9
$DIMTDEC
 70
2
  9
$DIMALTU
 70
2
  9
$DIMALTTD
 70
3
  9
$DIMTXSTY
  7
Standard
  9
$DIMAUNIT
 70
0
  9
$DIMADEC
 70
0
  9
$DIMALTRND
 40
0.0
  9
$DIMAZIN
 70
0
  9
$DIMDSEP
 70
44
  9
$DIMATFIT
 70
3
  9
$DIMFRAC
 70
0
  9
$DIMLDRBLK
  1

  9
$DIMLUNIT
 70
2
  9
$DIMLWD
 70
-2
  9
$DIMLWE
 70
-2
  9
$DIMTMOVE
 70
0
  9
$DIMFXL
 40
1.0
  9
$DIMFXLON
 70
0
  9
$DIMJOGANG
 40
0.785398163397
  9
$DIMTFILL
 70
0
  9
$DIMTFILLCLR
 70
0
  9
$DIMARCSYM
 70
0
  9
$DIMLTYPE
  6

  9
$DIMLTEX1
  6

  9
$DIMLTEX2
  6

  9
$DIMTXTDIRECTION
 70
0
  9
$LUNITS
 70
2
  9
$LUPREC
 70
4
  9
$SKETCHINC
 40
1.0
  9
$FILLETRAD
 40
10.0
  9
$AUNITS
 70
0
  9
$AUPREC
 70
2
  9
$MENU
  1
.
  9
$ELEVATION
 40
0.0
  9
$PELEVATION
 40
0.0
  9
$THICKNESS
 40
0.0
  9
$LIMCHECK
 70
0
  9
$CHAMFERA
 40
0.0
  9
$CHAMFERB
 40
0.0
  9
$CHAMFERC
 40
0.0
  9
$CHAMFERD
 40
0.0
  9
$SKPOLY
 70
0
  9
$TDCREATE
 40
2461283.6974768518
  9
$TDUCREATE
 40
2458532.153996898
  9
$TDUPDATE
 40
2461283.6974768518
  9
$TDUUPDATE
 40
2458532.1544311
  9
$TDINDWG
 40
0.0
  9
$TDUSRTIMER
 40
0.0
  9
$USRTIMER
 70
1
  9
$ANGBASE
 50
0.0
  9
$ANGDIR
 70
0
  9
$PDMODE
 70
0
  9
$PDSIZE
 40
0.0
  9
$PLINEWID
 40
0.0
  9
$SPLFRAME
 70
0
  9
$SPLINETYPE
 70
6
  9
$SPLINESEGS
 70
8
  9
$HANDSEED
  5
1A4
  9
$SURFTAB1
 70
6
  9
$SURFTAB2
 70
6
  9
$SURFTYPE
 70
6
  9
$SURFU
 70
6
  9
$SURFV
 70
6
  9
$UCSBASE
  2

  9
$UCSNAME
  2

  9
$UCSORG
 10
0.0
 20
0.0
 30
0.0
  9
$UCSXDIR
 10
1.0
 20
0.0
 30
0.0
  9
$UCSYDIR
 10
0.0
 20
1.0
 30
0.0
  9
$UCSORTHOREF
  2

  9
$UCSORTHOVIEW
 70
0
  9
$UCSORGTOP
 10
0.0
 20
0.0
 30
0.0
  9
$UCSORGBOTTOM
 10
0.0
 20
0.0
 30
0.0
  9
$UCSORGLEFT
 10
0.0
 20
0.0
 30
0.0
  9
$UCSORGRIGHT
 10
0.0
 20
0.0
 30
0.0
  9
$UCSORGFRONT
 10
0.0
 20
0.0
 30
0.0
  9
$UCSORGBACK
 10
0.0
 20
0.0
 30
0.0
  9
$PUCSBASE
  2

  9
$PUCSNAME
  2

  9
$PUCSORG
 10
0.0
 20
0.0
 30
0.0
  9
$PUCSXDIR
 10
1.0
 20
0.0
 30
0.0
  9
$PUCSYDIR
 10
0.0
 20
1.0
 30
0.0
  9
$PUCSORTHOREF
  2

  9
$PUCSORTHOVIEW
 70
0
  9
$PUCSORGTOP
 10
0.0
 20
0.0
 30
0.0
  9
$PUCSORGBOTTOM
 10
0.0
 20
0.0
 30
0.0
  9
$PUCSORGLEFT
 10
0.0
 20
0.0
 30
0.0
  9
$PUCSORGRIGHT
 10
0.0
 20
0.0
 30
0.0
  9
$PUCSORGFRONT
 10
0.0
 20
0.0
 30
0.0
  9
$PUCSORGBACK
 10
0.0
 20
0.0
 30
0.0
  9
$USERI1
 70
0
  9
$USERI2
 70
0
  9
$USERI3
 70
0
  9
$USERI4
 70
0
  9
$USERI5
 70
0
  9
$USERR1
 40
0.0
  9
$USERR2
 40
0.0
  9
$USERR3
 40
0.0
  9
$USERR4
 40
0.0
  9
$USERR5
 40
0.0
  9
$WORLDVIEW
 70
1
  9
$SHADEDGE
 70
3
  9
$SHADEDIF
 70
70
  9
$TILEMODE
 70
1
  9
$MAXACTVP
 70
64
  9
$PINSBASE
 10
0.0
 20
0.0
 30
0.0
  9
$PLIMCHECK
 70
0
  9
$PEXTMIN
 10
1e+20
 20
1e+20
 30
1e+20
  9
$PEXTMAX
 10
-1e+20
 20
-1e+20
 30
-1e+20
  9
$PLIMMIN
 10
0.0
 20
0.0
  9
$PLIMMAX
 10
420.0
 20
297.0
  9
$UNITMODE
 70
0
  9
$VISRETAIN
 70
1
  9
$PLINEGEN
 70
0
  9
$PSLTSCALE
 70
1
  9
$TREEDEPTH
 70
3020
  9
$CMLSTYLE
  2
Standard
  9
$CMLJUST
 70
0
  9
$CMLSCALE
 40
20.0
  9
$PROXYGRAPHICS
 70
1
  9
$MEASUREMENT
 70
1
  9
$CELWEIGHT
370
-1
  9
$ENDCAPS
280
0
  9
$JOINSTYLE
280
0
  9
$LWDISPLAY
290
0
  9
$INSUNITS
 70
4
  9
$HYPERLINKBASE
  1

  9
$STYLESHEET
  1

  9
$XEDIT
290
1
  9
$CEPSNTYPE
380
0
  9
$PSTYLEMODE
290
1
  9
$FINGERPRINTGUID
  2
{66C990BD-D6D1-4D9A-A0E1-6DFE6E67D2C4}
  9
$VERSIONGUID
  2
{9E5601B3-FFAD-4CE2-B11F-0EACF6195D2B}
  9
$EXTNAMES
290
1
  9
$PSVPSCALE
 40
0.0
  9
$OLESTARTUP
290
0
  9
$SORTENTS
280
127
  9
$INDEXCTL
280
0
  9
$HIDETEXT
280
1
  9
$XCLIPFRAME
280
1
  9
$HALOGAP
280
0
  9
$OBSCOLOR
 70
257
  9
$OBSLTYPE
280
0
  9
$INTERSECTIONDISPLAY
280
0
  9
$INTERSECTIONCOLOR
 70
257
  9
$DIMASSOC
280
2
  9
$PROJECTNAME
  1

  9
$CAMERADISPLAY
290
0
  9
$LENSLENGTH
 40
50.0
  9
$CAMERAHEIGHT
 40
0.0
  9
$STEPSPERSEC
 40
24.0
  9
$STEPSIZE
 40
100.0
  9
$3DDWFPREC
 40
2.0
  9
$PSOLWIDTH
 40
0.005
  9
$PSOLHEIGHT
 40
0.08
  9
$LOFTANG1
 40
1.570796326795
  9
$LOFTANG2
 40
1.570796326795
  9
$LOFTMAG1
 40
0.0
  9
$LOFTMAG2
 40
0.0
  9
$LOFTPARAM
 70
7
  9
$LOFTNORMALS
280
1
  9
$LATITUDE
 40
37.795
  9
$LONGITUDE
 40
-122.394
  9
$NORTHDIRECTION
 40
0.0
  9
$TIMEZONE
 70
-8000
  9
$LIGHTGLYPHDISPLAY
280
1
  9
$TILEMODELIGHTSYNCH
280
1
  9
$CMATERIAL
347
20
  9
$SOLIDHIST
280
0
  9
$SHOWHIST
280
1
  9
$DWFFRAME
280
2
  9
$DGNFRAME
280
2
  9
$REALWORLDSCALE
290
1
  9
$INTERFERECOLOR
 62
256
  9
$CSHADOW
280
0
  9
$SHADOWPLANELOCATION
 40
0.0
  0
ENDSEC
  0
SECTION
  2
CLASSES
  0
CLASS
  1
ACDBDICTIONARYWDFLT
  2
AcDbDictionaryWithDefault
  3
ObjectDBX Classes
 90
0
 91
0
280
0
281
0
  0
CLASS
  1
SUN
  2
AcDbSun
  3
SCENEOE
 90
1153
 91
0
280
0
281
0
  0
CLASS
  1
VISUALSTYLE
  2
AcDbVisualStyle
  3
ObjectDBX Classes
 90
4095
 91
0
280
0
281
0
  0
CLASS
  1
MATERIAL
  2
AcDbMaterial
  3
ObjectDBX Classes
 90
1153
 91
0
280
0
281
0
  0
CLASS
  1
SCALE
  2
AcDbScale
  3
ObjectDBX Classes
 90
1153
 91
0
280
0
281
0
  0
CLASS
  1
TABLESTYLE
  2
AcDbTableStyle
  3
ObjectDBX Classes
 90
4095
 91
0
280
0
281
0
  0
CLASS
  1
MLEADERSTYLE
  2
AcDbMLeaderStyle
  3
ACDB_MLEADERSTYLE_CLASS
 90
4095
 91
0
280
0
281
0
  0
CLASS
  1
DICTIONARYVAR
  2
AcDbDictionaryVar
  3
ObjectDBX Classes
 90
0
 91
0
280
0
281
0
  0
CLASS
  1
CELLSTYLEMAP
  2
AcDbCellStyleMap
  3
ObjectDBX Classes
 90
1152
 91
0
280
0
281
0
  0
CLASS
  1
MENTALRAYRENDERSETTINGS
  2
AcDbMentalRayRenderSettings
  3
SCENEOE
 90
1024
 91
0
280
0
281
0
  0
CLASS
  1
ACDBDETAILVIEWSTYLE
  2
AcDbDetailViewStyle
  3
ObjectDBX Classes
 90
1025
 91
0
280
0
281
0
  0
CLASS
  1
ACDBSECTIONVIEWSTYLE
  2
AcDbSectionViewStyle
  3
ObjectDBX Classes
 90
1025
 91
0
280
0
281
0
  0
CLASS
  1
RASTERVARIABLES
  2
AcDbRasterVariables
  3
ISM
 90
0
 91
0
280
0
281
0
  0
CLASS
  1
LAYOUT
  2
AcDbLayout
  3
ObjectDBX Classes
 90
0
 91
0
280
0
281
0
  0
CLASS
  1
ACDBPLACEHOLDER
  2
AcDbPlaceHolder
  3
ObjectDBX Classes
 90
0
 91
0
280
0
281
0
  0
ENDSEC
  0
SECTION
  2
TABLES
  0
TABLE
  2
VPORT
  5
8
330
0
100
AcDbSymbolTable
 70
1
  0
VPORT
  5
23
330
8
100
AcDbSymbolTableRecord
100
AcDbViewportTableRecord
  2
*Active
 70
0
 10
0.0
 20
0.0
 11
1.0
 21
1.0
 12
0.0
 22
0.0
 13
0.0
 23
0.0
 14
0.5
 24
0.5
 15
0.5
 25
0.5
 16
0.0
 26
0.0
 36
1.0
 17
0.0
 27
0.0
 37
0.0
 40
1000.0
 41
1.34
 42
50.0
 43
0.0
 44
0.0
 50
0.0
 51
0.0
 71
0
 72
1000
 73
1
 74
3
 75
0
 76
0
 77
0
 78
0
281
0
 65
0
146
0.0
  0
ENDTAB
  0
TABLE
  2
LTYPE
  5
2
330
0
100
AcDbSymbolTable
 70
3
  0
LTYPE
  5
24
330
2
100
AcDbSymbolTableRecord
100
AcDbLinetypeTableRecord
  2
ByBlock
 70
0
  3

 72
65
 73
0
 40
0.0
  0
LTYPE
  5
25
330
2
100
AcDbSymbolTableRecord
100
AcDbLinetypeTableRecord
  2
ByLayer
 70
0
  3

 72
65
 73
0
 40
0.0
  0
LTYPE
  5
26
330
2
100
AcDbSymbolTableRecord
100
AcDbLinetypeTableRecord
  2
Continuous
 70
0
  3

 72
65
 73
0
 40
0.0
  0
ENDTAB
  0
TABLE
  2
LAYER
  5
1
330
0
100
AcDbSymbolTable
 70
8
  0
LAYER
  5
27
330
1
100
AcDbSymbolTableRecord
100
AcDbLayerTableRecord
  2
0
 70
0
 62
7
  6
Continuous
370
-3
390
13
347
21
  0
LAYER
  5
28
330
1
100
AcDbSymbolTableRecord
100
AcDbLayerTableRecord
  2
Defpoints
 70
0
 62
7
  6
Continuous
290
0
370
-3
390
13
347
21
  0
LAYER
  5
2F
330
1
100
AcDbSymbolTableRecord
100
AcDbLayerTableRecord
  2
OUTLINE
 70
0
 62
2
  6
Continuous
370
-3
390
13
347
21
  0
LAYER
  5
30
330
1
100
AcDbSymbolTableRecord
100
AcDbLayerTableRecord
  2
LED
 70
0
 62
7
  6
Continuous
370
-3
390
13
347
21
  0
LAYER
  5
31
330
1
100
AcDbSymbolTableRecord
100
AcDbLayerTableRecord
  2
LED-REF
 70
0
 62
8
  6
Continuous
370
-3
390
13
347
21
  0
LAYER
  5
32
330
1
100
AcDbSymbolTableRecord
100
AcDbLayerTableRecord
  2
CAP
 70
0
 62
30
  6
Continuous
370
-3
390
13
347
21
  0
LAYER
  5
33
330
1
100
AcDbSymbolTableRecord
100
AcDbLayerTableRecord
  2
WAGO
 70
0
 62
3
  6
Continuous
370
-3
390
13
347
21
  0
LAYER
  5
34
330
1
100
AcDbSymbolTableRecord
100
AcDbLayerTableRecord
  2
MOUNT
 70
0
 62
1
  6
Continuous
370
-3
390
13
347
21
  0
ENDTAB
  0
TABLE
  2
STYLE
  5
5
330
0
100
AcDbSymbolTable
 70
1
  0
STYLE
  5
29
330
5
100
AcDbSymbolTableRecord
100
AcDbTextStyleTableRecord
  2
Standard
 70
0
 40
0.0
 41
1.0
 50
0.0
 71
0
 42
2.5
  3
txt
  4

  0
ENDTAB
  0
TABLE
  2
VIEW
  5
7
330
0
100
AcDbSymbolTable
 70
0
  0
ENDTAB
  0
TABLE
  2
UCS
  5
6
330
0
100
AcDbSymbolTable
 70
0
  0
ENDTAB
  0
TABLE
  2
APPID
  5
3
330
0
100
AcDbSymbolTable
 70
3
  0
APPID
  5
2A
330
3
100
AcDbSymbolTableRecord
100
AcDbRegAppTableRecord
  2
ACAD
 70
0
  0
APPID
  5
1A1
330
3
100
AcDbSymbolTableRecord
100
AcDbRegAppTableRecord
  2
HATCHBACKGROUNDCOLOR
 70
0
  0
APPID
  5
1A2
330
3
100
AcDbSymbolTableRecord
100
AcDbRegAppTableRecord
  2
EZDXF
 70
0
  0
ENDTAB
  0
TABLE
  2
DIMSTYLE
  5
4
330
0
100
AcDbSymbolTable
 70
1
100
AcDbDimStyleTable
  0
DIMSTYLE
105
2B
330
4
100
AcDbSymbolTableRecord
100
AcDbDimStyleTableRecord
  2
Standard
 70
0
 40
1.0
 41
2.5
 42
0.625
 43
3.75
 44
1.25
 45
0.0
 46
0.0
 47
0.0
 48
0.0
 49
2.5
140
2.5
141
2.5
142
0.0
143
0.03937007874
144
1.0
145
0.0
146
1.0
147
0.625
148
0.0
 69
0
 70
0
 71
0
 72
0
 73
0
 74
0
 75
0
 76
0
 77
1
 78
8
 79
3
170
0
171
3
172
1
173
0
174
0
175
0
176
0
177
0
178
0
179
2
271
2
272
2
273
2
274
3
275
0
276
0
277
2
278
44
279
0
280
0
281
0
282
0
283
0
284
8
285
0
286
0
288
0
289
3
290
0
371
-2
372
-2
  0
ENDTAB
  0
TABLE
  2
BLOCK_RECORD
  5
9
330
0
100
AcDbSymbolTable
 70
2
  0
BLOCK_RECORD
  5
17
330
9
100
AcDbSymbolTableRecord
100
AcDbBlockTableRecord
  2
*Model_Space
340
1A
 70
0
280
1
281
0
  0
BLOCK_RECORD
  5
1B
330
9
100
AcDbSymbolTableRecord
100
AcDbBlockTableRecord
  2
*Paper_Space
340
1E
 70
0
280
1
281
0
  0
ENDTAB
  0
ENDSEC
  0
SECTION
  2
BLOCKS
  0
BLOCK
  5
18
330
17
100
AcDbEntity
  8
0
100
AcDbBlockBegin
  2
*Model_Space
 70
0
 10
0.0
 20
0.0
 30
0.0
  3
*Model_Space
  1

  0
ENDBLK
  5
19
330
17
100
AcDbEntity
  8
0
100
AcDbBlockEnd
  0
BLOCK
  5
1C
330
1B
100
AcDbEntity
  8
0
100
AcDbBlockBegin
  2
*Paper_Space
 70
0
 10
0.0
 20
0.0
 30
0.0
  3
*Paper_Space
  1

  0
ENDBLK
  5
1D
330
1B
100
AcDbEntity
  8
0
100
AcDbBlockEnd
  0
ENDSEC
  0
SECTION
  2
ENTITIES
  0
ARC
  5
35
330
17
100
AcDbEntity
  8
OUTLINE
100
AcDbCircle
 10
-15.0523
 20
-604.9415
 30
0.0
 40
854.0
100
AcDbArc
 50
60.0671
 51
89.9329
  0
ARC
  5
36
330
17
100
AcDbEntity
  8
OUTLINE
100
AcDbCircle
 10
-15.0523
 20
-604.9415
 30
0.0
 40
676.0
100
AcDbArc
 50
60.0848
 51
89.9152
  0
LINE
  5
37
330
17
100
AcDbEntity
  8
OUTLINE
100
AcDbLine
 10
411.0814
 20
135.1437
 30
0.0
 11
322.0813
 21
-19.0089
 31
0.0
  0
LINE
  5
38
330
17
100
AcDbEntity
  8
OUTLINE
100
AcDbLine
 10
-14.0523
 20
71.0578
 30
0.0
 11
-14.0523
 21
249.058
 31
0.0
  0
CIRCLE
  5
39
330
17
100
AcDbEntity
  8
MOUNT
100
AcDbCircle
 10
-8.8023
 20
76.0585
 30
0.0
 40
2.11
  0
CIRCLE
  5
3A
330
17
100
AcDbEntity
  8
MOUNT
100
AcDbCircle
 10
-8.8023
 20
76.0585
 30
0.0
 40
3.1
  0
CIRCLE
  5
3B
330
17
100
AcDbEntity
  8
MOUNT
100
AcDbCircle
 10
-8.8023
 20
76.0585
 30
0.0
 40
5.5
  0
CIRCLE
  5
3C
330
17
100
AcDbEntity
  8
MOUNT
100
AcDbCircle
 10
-8.8023
 20
243.0585
 30
0.0
 40
2.11
  0
CIRCLE
  5
3D
330
17
100
AcDbEntity
  8
MOUNT
100
AcDbCircle
 10
-8.8023
 20
243.0585
 30
0.0
 40
3.1
  0
CIRCLE
  5
3E
330
17
100
AcDbEntity
  8
MOUNT
100
AcDbCircle
 10
-8.8023
 20
243.0585
 30
0.0
 40
5.5
  0
CIRCLE
  5
3F
330
17
100
AcDbEntity
  8
MOUNT
100
AcDbCircle
 10
320.0351
 20
-12.0532
 30
0.0
 40
2.11
  0
CIRCLE
  5
40
330
17
100
AcDbEntity
  8
MOUNT
100
AcDbCircle
 10
320.0351
 20
-12.0532
 30
0.0
 40
3.1
  0
CIRCLE
  5
41
330
17
100
AcDbEntity
  8
MOUNT
100
AcDbCircle
 10
320.0351
 20
-12.0532
 30
0.0
 40
5.5
  0
CIRCLE
  5
42
330
17
100
AcDbEntity
  8
MOUNT
100
AcDbCircle
 10
403.5351
 20
132.5731
 30
0.0
 40
2.11
  0
CIRCLE
  5
43
330
17
100
AcDbEntity
  8
MOUNT
100
AcDbCircle
 10
403.5351
 20
132.5731
 30
0.0
 40
3.1
  0
CIRCLE
  5
44
330
17
100
AcDbEntity
  8
MOUNT
100
AcDbCircle
 10
403.5351
 20
132.5731
 30
0.0
 40
5.5
  0
LWPOLYLINE
  5
45
330
17
100
AcDbEntity
  8
CAP
100
AcDbPolyline
 90
5
 70
0
 10
-1.9709470971956855
 20
88.53816442432225
 10
-1.9360432811403876
 20
90.1377836676501
 10
-2.735852902804315
 20
90.15523557567775
 10
-2.7707567188596127
 20
88.5556163323499
 10
-1.9709470971956855
 20
88.53816442432225
  0
LWPOLYLINE
  5
46
330
17
100
AcDbEntity
  8
CAP
100
AcDbPolyline
 90
5
 70
0
 10
262.41642723976076
 20
30.744252140760945
 10
263.0608219435348
 20
32.208750507352065
 10
262.32857276023924
 20
32.53094785923905
 10
261.6841780564652
 20
31.066449492647937
 10
262.41642723976076
 20
30.744252140760945
  0
LWPOLYLINE
  5
47
330
17
100
AcDbEntity
  8
CAP
100
AcDbPolyline
 90
5
 70
0
 10
289.8805181444379
 20
18.036086330686246
 10
290.5881800487883
 20
19.47108271713855
 10
289.87068185556217
 20
19.82491366931375
 10
289.16301995121177
 20
18.389917282861447
 10
289.8805181444379
 20
18.036086330686246
  0
LWPOLYLINE
  5
48
330
17
100
AcDbEntity
  8
CAP
100
AcDbPolyline
 90
5
 70
0
 10
316.7642996871475
 20
4.142223087866238
 10
317.5338817174185
 20
5.54498589699825
 10
316.8325003128525
 20
5.929776912133761
 10
316.0629182825815
 20
4.527014103001749
 10
316.7642996871475
 20
4.142223087866238
  0
LWPOLYLINE
  5
49
330
17
100
AcDbEntity
  8
CAP
100
AcDbPolyline
 90
5
 70
0
 10
331.1938996871475
 20
30.444023087866242
 10
331.9634817174185
 20
31.846785896998252
 10
331.2621003128525
 20
32.23157691213376
 10
330.4925182825815
 20
30.82881410300175
 10
331.1938996871475
 20
30.444023087866242
  0
LWPOLYLINE
  5
4A
330
17
100
AcDbEntity
  8
CAP
100
AcDbPolyline
 90
5
 70
0
 10
303.14921814443784
 20
44.94228633068625
 10
303.85688004878824
 20
46.37728271713855
 10
303.13938185556214
 20
46.73111366931375
 10
302.43171995121173
 20
45.29611728286145
 10
303.14921814443784
 20
44.94228633068625
  0
LWPOLYLINE
  5
4B
330
17
100
AcDbEntity
  8
CAP
100
AcDbPolyline
 90
5
 70
0
 10
274.4988272397608
 20
58.20355214076095
 10
275.1432219435348
 20
59.66805050735206
 10
274.41097276023925
 20
59.99024785923905
 10
273.7665780564652
 20
58.52574949264793
 10
274.4988272397608
 20
58.20355214076095
  0
LWPOLYLINE
  5
4C
330
17
100
AcDbEntity
  8
CAP
100
AcDbPolyline
 90
5
 70
0
 10
245.29725271708617
 20
70.20241848926028
 10
245.87715357834009
 20
71.69363108011277
 10
245.13154728291386
 20
71.98358151073973
 10
244.55164642165994
 20
70.49236891988724
 10
245.29725271708617
 20
70.20241848926028
  0
LWPOLYLINE
  5
4D
330
17
100
AcDbEntity
  8
CAP
100
AcDbPolyline
 90
5
 70
0
 10
215.6001204795555
 20
80.91608011028265
 10
216.11442362404057
 20
82.43116831747481
 10
215.3568795204445
 20
82.68831988971735
 10
214.84257637595942
 20
81.17323168252518
 10
215.6001204795555
 20
80.91608011028265
  0
LWPOLYLINE
  5
4E
330
17
100
AcDbEntity
  8
CAP
100
AcDbPolyline
 90
5
 70
0
 10
185.46385673052956
 20
90.32422851087885
 10
185.91158315297915
 20
91.86030827789635
 10
185.14354326947043
 20
92.08417148912115
 10
184.69581684702084
 20
90.54809172210365
 10
185.46385673052956
 20
90.32422851087885
  0
LWPOLYLINE
  5
4F
330
17
100
AcDbEntity
  8
CAP
100
AcDbPolyline
 90
5
 70
0
 10
154.94598811406436
 20
98.40885198721892
 10
155.32628554178626
 20
99.96299929892015
 10
154.54921188593565
 20
100.15314801278109
 10
154.16891445821375
 20
98.59900070107986
 10
154.94598811406436
 20
98.40885198721892
  0
LWPOLYLINE
  5
50
330
17
100
AcDbEntity
  8
CAP
100
AcDbPolyline
 90
5
 70
0
 10
28.26572106591133
 20
87.30755160971707
 10
28.370366072679555
 20
88.90412588689883
 10
27.572078934088672
 20
88.95644839028294
 10
27.467433927320446
 20
87.35987411310118
 10
28.26572106591133
 20
87.30755160971707
  0
LWPOLYLINE
  5
51
330
17
100
AcDbEntity
  8
CAP
100
AcDbPolyline
 90
5
 70
0
 10
124.1045418545484
 20
105.15463564687097
 10
124.4166863697742
 20
106.72389209551613
 10
123.63205814545161
 20
106.87996435312904
 10
123.31991363022581
 20
105.31070790448388
 10
124.1045418545484
 20
105.15463564687097
  0
LWPOLYLINE
  5
52
330
17
100
AcDbEntity
  8
CAP
100
AcDbPolyline
 90
5
 70
0
 10
92.99814589523518
 20
110.54876143714982
 10
93.24154331313905
 20
112.13013985389824
 10
92.45085410476483
 20
112.25183856285018
 10
92.20745668686097
 20
110.67046014610176
 10
92.99814589523518
 20
110.54876143714982
  0
LWPOLYLINE
  5
53
330
17
100
AcDbEntity
  8
CAP
100
AcDbPolyline
 90
5
 70
0
 10
61.68602903540736
 20
114.58090817948137
 10
61.8602160351705
 20
116.17139832063708
 10
61.064970964592646
 20
116.25849182051864
 10
60.8907839648295
 20
114.66800167936293
 10
61.68602903540736
 20
114.58090817948137
  0
LWPOLYLINE
  5
54
330
17
100
AcDbEntity
  8
CAP
100
AcDbPolyline
 90
5
 70
0
 10
30.22782106591133
 20
117.24335160971707
 10
30.332466072679555
 20
118.83992588689883
 10
29.534178934088672
 20
118.89224839028294
 10
29.429533927320445
 20
117.29567411310119
 10
30.22782106591133
 20
117.24335160971707
  0
LWPOLYLINE
  5
55
330
17
100
AcDbEntity
  8
CAP
100
AcDbPolyline
 90
5
 70
0
 10
-1.3165470971956852
 20
118.53106442432225
 10
-1.2816432811403875
 20
120.1306836676501
 10
-2.081452902804315
 20
120.14813557567776
 10
-2.1163567188596124
 20
118.5485163323499
 10
-1.3165470971956852
 20
118.53106442432225
  0
LWPOLYLINE
  5
56
330
17
100
AcDbEntity
  8
CAP
100
AcDbPolyline
 90
5
 70
0
 10
-1.9265929203099421
 20
148.54700636493422
 10
-1.8943693397614156
 20
150.1466818447915
 10
-2.6942070796900577
 20
150.16279363506575
 10
-2.7264306602385844
 20
148.56311815520849
 10
-1.9265929203099421
 20
148.54700636493422
  0
LWPOLYLINE
  5
57
330
17
100
AcDbEntity
  8
CAP
100
AcDbPolyline
 90
5
 70
0
 10
28.4027607966564
 20
147.40740533050814
 10
28.499379257599642
 20
149.00448543902021
 10
27.7008392033436
 20
149.05279466949185
 10
27.604220742400358
 20
147.45571456097977
 10
28.4027607966564
 20
147.40740533050814
  0
LWPOLYLINE
  5
58
330
17
100
AcDbEntity
  8
CAP
100
AcDbPolyline
 90
5
 70
0
 10
58.66145969584798
 20
145.04754460799865
 10
58.82228849609229
 20
146.6394409918792
 10
58.026340304152015
 20
146.71985539200136
 10
57.865511503907705
 20
145.1279590081208
 10
58.66145969584798
 20
145.04754460799865
  0
LWPOLYLINE
  5
59
330
17
100
AcDbEntity
  8
CAP
100
AcDbPolyline
 90
5
 70
0
 10
88.80072901602833
 20
141.47113436868702
 10
89.02553509543338
 20
143.05526259161044
 10
88.23347098397167
 20
143.16766563131299
 10
88.00866490456661
 20
141.58353740838956
 10
88.80072901602833
 20
141.47113436868702
  0
LWPOLYLINE
  5
5A
330
17
100
AcDbEntity
  8
CAP
100
AcDbPolyline
 90
5
 70
0
 10
118.77153816623661
 20
136.68410038621022
 10
119.05995679128988
 20
138.25789030126316
 10
118.27306183376339
 20
138.4020996137898
 10
117.98464320871012
 20
136.82830969873686
 10
118.77153816623661
 20
136.68410038621022
  0
LWPOLYLINE
  5
5B
330
17
100
AcDbEntity
  8
CAP
100
AcDbPolyline
 90
5
 70
0
 10
58.42002903540735
 20
84.75920817948136
 10
58.5942160351705
 20
86.34969832063707
 10
57.79897096459264
 20
86.43679182051864
 10
57.6247839648295
 20
84.84630167936292
 10
58.42002903540735
 20
84.75920817948136
  0
LWPOLYLINE
  5
5C
330
17
100
AcDbEntity
  8
CAP
100
AcDbPolyline
 90
5
 70
0
 10
148.5252580987892
 20
130.6940638186372
 10
148.87679408581673
 20
132.25496818784904
 10
148.0963419012108
 20
132.4307361813628
 10
147.74480591418327
 20
130.86983181215095
 10
148.5252580987892
 20
130.6940638186372
  0
LWPOLYLINE
  5
5D
330
17
100
AcDbEntity
  8
CAP
100
AcDbPolyline
 90
5
 70
0
 10
178.01361509443362
 20
123.51083172092774
 10
178.42772556659764
 20
125.05631304299025
 10
177.6549849055664
 20
125.26336827907227
 10
177.24087443340238
 20
123.71788695700975
 10
178.01361509443362
 20
123.51083172092774
  0
LWPOLYLINE
  5
5E
330
17
100
AcDbEntity
  8
CAP
100
AcDbPolyline
 90
5
 70
0
 10
207.1888811627845
 20
115.14612131256142
 10
207.66489425228013
 20
116.67367214269075
 10
206.90111883721548
 20
116.91167868743857
 10
206.42510574771984
 20
115.38412785730924
 10
207.1888811627845
 20
115.14612131256142
  0
LWPOLYLINE
  5
5F
330
17
100
AcDbEntity
  8
CAP
100
AcDbPolyline
 90
5
 70
0
 10
236.00352928914268
 20
105.61324504508242
 10
236.54064639044844
 20
107.12039640426468
 10
235.7870707108573
 20
107.38895495491757
 10
235.24995360955154
 20
105.8818035957353
 10
236.00352928914268
 20
105.61324504508242
  0
LWPOLYLINE
  5
60
330
17
100
AcDbEntity
  8
CAP
100
AcDbPolyline
 90
5
 70
0
 10
264.4111864130156
 20
94.928106754254
 10
265.00856274878737
 20
96.41240507786011
 10
264.26641358698436
 20
96.71109324574599
 10
263.6690372512126
 20
95.22679492213987
 10
264.4111864130156
 20
94.928106754254
  0
LWPOLYLINE
  5
61
330
17
100
AcDbEntity
  8
CAP
100
AcDbPolyline
 90
5
 70
0
 10
292.36542609455455
 20
83.10761485430523
 10
293.0220924598231
 20
84.56665196306051
 10
292.29257390544547
 20
84.89498514569478
 10
291.6359075401769
 20
83.4359480369395
 10
292.36542609455455
 20
83.10761485430523
  0
LWPOLYLINE
  5
62
330
17
100
AcDbEntity
  8
CAP
100
AcDbPolyline
 90
5
 70
0
 10
319.8210222877782
 20
70.17107290868789
 10
320.5358883003828
 20
71.60249408500978
 10
319.82017771222183
 20
71.95992709131211
 10
319.10531169961723
 20
70.52850591499022
 10
319.8210222877782
 20
70.17107290868789
  0
LWPOLYLINE
  5
63
330
17
100
AcDbEntity
  8
CAP
100
AcDbPolyline
 90
5
 70
0
 10
346.73350219812403
 20
56.13968147803595
 10
347.5054334986968
 20
57.54115287167769
 10
346.80469780187593
 20
57.92711852196405
 10
346.0327665013032
 20
56.52564712832231
 10
346.73350219812403
 20
56.13968147803595
  0
LWPOLYLINE
  5
64
330
17
100
AcDbEntity
  8
CAP
100
AcDbPolyline
 90
5
 70
0
 10
361.20730219812407
 20
82.41718147803596
 10
361.97923349869683
 20
83.81865287167768
 10
361.278497801876
 20
84.20461852196405
 10
360.5065665013032
 20
82.80314712832232
 10
361.20730219812407
 20
82.41718147803596
  0
LWPOLYLINE
  5
65
330
17
100
AcDbEntity
  8
CAP
100
AcDbPolyline
 90
5
 70
0
 10
333.22492228777816
 20
97.01017290868789
 10
333.93978830038276
 20
98.44159408500978
 10
333.2240777122218
 20
98.79902709131211
 10
332.5092116996172
 20
97.36760591499022
 10
333.22492228777816
 20
97.01017290868789
  0
LWPOLYLINE
  5
66
330
17
100
AcDbEntity
  8
CAP
100
AcDbPolyline
 90
5
 70
0
 10
88.43444589523517
 20
80.89796143714982
 10
88.67784331313904
 20
82.47933985389824
 10
87.88715410476482
 20
82.60103856285018
 10
87.64375668686095
 20
81.01966014610176
 10
88.43444589523517
 20
80.89796143714982
  0
LWPOLYLINE
  5
67
330
17
100
AcDbEntity
  8
CAP
100
AcDbPolyline
 90
5
 70
0
 10
304.6778260945545
 20
110.46461485430522
 10
305.3344924598231
 20
111.92365196306051
 10
304.60497390544543
 20
112.25198514569477
 10
303.94830754017687
 20
110.79294803693949
 10
304.6778260945545
 20
110.46461485430522
  0
LWPOLYLINE
  5
68
330
17
100
AcDbEntity
  8
CAP
100
AcDbPolyline
 90
5
 70
0
 10
275.6120864130156
 20
122.758706754254
 10
276.20946274878736
 20
124.24300507786012
 10
275.46731358698435
 20
124.54169324574599
 10
274.8699372512126
 20
123.05739492213988
 10
275.6120864130156
 20
122.758706754254
  0
LWPOLYLINE
  5
69
330
17
100
AcDbEntity
  8
CAP
100
AcDbPolyline
 90
5
 70
0
 10
246.07462928914268
 20
133.87234504508243
 10
246.61174639044845
 20
135.37949640426467
 10
245.8581707108573
 20
135.64805495491757
 10
245.32105360955154
 20
134.14090359573532
 10
246.07462928914268
 20
133.87234504508243
  0
LWPOLYLINE
  5
6A
330
17
100
AcDbEntity
  8
CAP
100
AcDbPolyline
 90
5
 70
0
 10
216.1139811627845
 20
143.78772131256142
 10
216.58999425228015
 20
145.31527214269076
 10
215.8262188372155
 20
145.5532786874386
 10
215.35020574771985
 20
144.02572785730925
 10
216.1139811627845
 20
143.78772131256142
  0
LWPOLYLINE
  5
6B
330
17
100
AcDbEntity
  8
CAP
100
AcDbPolyline
 90
5
 70
0
 10
185.7782150944336
 20
152.48863172092774
 10
186.19232556659762
 20
154.03411304299024
 10
185.41958490556638
 20
154.24116827907227
 10
185.00547443340236
 20
152.69568695700977
 10
185.7782150944336
 20
152.48863172092774
  0
LWPOLYLINE
  5
6C
330
17
100
AcDbEntity
  8
CAP
100
AcDbPolyline
 90
5
 70
0
 10
155.1166580987892
 20
159.9609638186372
 10
155.46819408581672
 20
161.52186818784904
 10
154.68774190121079
 20
161.69763618136278
 10
154.33620591418327
 20
160.13673181215094
 10
155.1166580987892
 20
159.9609638186372
  0
LWPOLYLINE
  5
6D
330
17
100
AcDbEntity
  8
CAP
100
AcDbPolyline
 90
5
 70
0
 10
124.17923816623662
 20
166.19270038621022
 10
124.46765679128988
 20
167.76649030126316
 10
123.6807618337634
 20
167.9106996137898
 10
123.39234320871013
 20
166.33690969873686
 10
124.17923816623662
 20
166.19270038621022
  0
LWPOLYLINE
  5
6E
330
17
100
AcDbEntity
  8
CAP
100
AcDbPolyline
 90
5
 70
0
 10
93.01582901602833
 20
171.17353436868703
 10
93.24063509543339
 20
172.75766259161045
 10
92.44857098397168
 20
172.870065631313
 10
92.22376490456662
 20
171.28593740838957
 10
93.01582901602833
 20
171.17353436868703
  0
LWPOLYLINE
  5
6F
330
17
100
AcDbEntity
  8
CAP
100
AcDbPolyline
 90
5
 70
0
 10
61.67715969584798
 20
174.89554460799863
 10
61.837988496092294
 20
176.4874409918792
 10
61.04204030415202
 20
176.56785539200135
 10
60.88121150390771
 20
174.97595900812078
 10
61.67715969584798
 20
174.89554460799863
  0
LWPOLYLINE
  5
70
330
17
100
AcDbEntity
  8
CAP
100
AcDbPolyline
 90
5
 70
0
 10
30.214160796656397
 20
177.35270533050814
 10
30.31077925759964
 20
178.94978543902022
 10
29.5122392033436
 20
178.99809466949185
 10
29.415620742400357
 20
177.40101456097977
 10
30.214160796656397
 20
177.35270533050814
  0
LWPOLYLINE
  5
71
330
17
100
AcDbEntity
  8
CAP
100
AcDbPolyline
 90
5
 70
0
 10
118.2518418545484
 20
75.73113564687097
 10
118.5639863697742
 20
77.30039209551613
 10
117.77935814545161
 20
77.45646435312904
 10
117.46721363022581
 20
75.88720790448387
 10
118.2518418545484
 20
75.73113564687097
  0
LWPOLYLINE
  5
72
330
17
100
AcDbEntity
  8
CAP
100
AcDbPolyline
 90
5
 70
0
 10
-1.322492920309942
 20
178.54090636493424
 10
-1.2902693397614158
 20
180.1405818447915
 10
-2.090107079690058
 20
180.15669363506578
 10
-2.122330660238584
 20
178.5570181552085
 10
-1.322492920309942
 20
178.54090636493424
  0
LWPOLYLINE
  5
73
330
17
100
AcDbEntity
  8
CAP
100
AcDbPolyline
 90
5
 70
0
 10
-1.888522989903743
 20
208.55456320429616
 10
-1.8586167694946807
 20
210.1542836854993
 10
-2.6584770100962567
 20
210.16923679570382
 10
-2.6883832305053192
 20
208.56951631450067
 10
-1.888522989903743
 20
208.55456320429616
  0
LWPOLYLINE
  5
74
330
17
100
AcDbEntity
  8
CAP
100
AcDbPolyline
 90
5
 70
0
 10
28.519818463102613
 20
207.49353213694192
 10
28.609523212584886
 20
209.0910154883169
 10
27.810781536897384
 20
209.13586786305805
 10
27.72107678741511
 20
207.53838451168306
 10
28.519818463102613
 20
207.49353213694192
  0
LWPOLYLINE
  5
75
330
17
100
AcDbEntity
  8
CAP
100
AcDbPolyline
 90
5
 70
0
 10
58.86736402387698
 20
205.2961497002144
 10
59.01674182550229
 20
206.88916139897293
 10
58.220235976123014
 20
206.9638502997856
 10
58.07085817449771
 20
205.37083860102706
 10
58.86736402387698
 20
205.2961497002144
  0
LWPOLYLINE
  5
76
330
17
100
AcDbEntity
  8
CAP
100
AcDbPolyline
 90
5
 70
0
 10
89.11135699077347
 20
201.96563363401293
 10
89.32019889832556
 20
203.55194541221104
 10
88.52704300922652
 20
203.65636636598708
 10
88.31820110167443
 20
202.07005458778897
 10
89.11135699077347
 20
201.96563363401293
  0
LWPOLYLINE
  5
77
330
17
100
AcDbEntity
  8
CAP
100
AcDbPolyline
 90
5
 70
0
 10
119.20984129522408
 20
197.50660004674475
 10
119.47785518546975
 20
199.08399300813244
 10
118.68915870477592
 20
199.21799995325526
 10
118.42114481453025
 20
197.64060699186757
 10
119.20984129522408
 20
197.50660004674475
  0
LWPOLYLINE
  5
78
330
17
100
AcDbEntity
  8
CAP
100
AcDbPolyline
 90
5
 70
0
 10
149.12036144028835
 20
191.92526339279286
 10
149.44717242159268
 20
193.49153111655497
 10
148.66403855971166
 20
193.65493660720713
 10
148.33722757840732
 20
192.08866888344502
 10
149.12036144028835
 20
191.92526339279286
  0
LWPOLYLINE
  5
79
330
17
100
AcDbEntity
  8
CAP
100
AcDbPolyline
 90
5
 70
0
 10
178.8013624384036
 20
185.22943645229768
 10
179.18651337511974
 20
186.7823880793443
 10
178.41003756159643
 20
186.97496354770234
 10
178.02488662488028
 20
185.42201192065573
 10
178.8013624384036
 20
185.22943645229768
  0
LWPOLYLINE
  5
7A
330
17
100
AcDbEntity
  8
CAP
100
AcDbPolyline
 90
5
 70
0
 10
208.21120509803933
 20
177.42843315637666
 10
208.65413041607508
 20
178.96590418460545
 10
207.8853949019607
 20
179.18736684362332
 10
207.44246958392495
 20
177.64989581539453
 10
208.21120509803933
 20
177.42843315637666
  0
LWPOLYLINE
  5
7B
330
17
100
AcDbEntity
  8
CAP
100
AcDbPolyline
 90
5
 70
0
 10
237.30890465722155
 20
168.5331566232622
 10
237.80901190705734
 20
170.05298975181995
 10
237.04909534277846
 20
170.30304337673783
 10
236.54898809294266
 20
168.78321024818007
 10
237.30890465722155
 20
168.5331566232622
  0
LWPOLYLINE
  5
7C
330
17
100
AcDbEntity
  8
CAP
100
AcDbPolyline
 90
5
 70
0
 10
147.81538811406435
 20
69.26865198721892
 10
148.19568554178625
 20
70.82279929892015
 10
147.41861188593563
 20
71.01294801278108
 10
147.03831445821373
 20
69.45880070107985
 10
147.81538811406435
 20
69.26865198721892
  0
LWPOLYLINE
  5
7D
330
17
100
AcDbEntity
  8
CAP
100
AcDbPolyline
 90
5
 70
0
 10
266.05342250877186
 20
158.55621792848885
 10
266.61001215194585
 20
160.05628724992417
 10
265.85997749122816
 20
160.33458207151116
 10
265.3033878480542
 20
158.83451275007585
 10
266.05342250877186
 20
158.55621792848885
  0
LWPOLYLINE
  5
7E
330
17
100
AcDbEntity
  8
CAP
100
AcDbPolyline
 90
5
 70
0
 10
294.4050050671125
 20
147.51142300104493
 10
295.01729855889664
 20
148.989630253063
 10
294.2781949328876
 20
149.2957769989551
 10
293.6659014411034
 20
147.817569746937
 10
294.4050050671125
 20
147.51142300104493
  0
LWPOLYLINE
  5
7F
330
17
100
AcDbEntity
  8
CAP
100
AcDbPolyline
 90
5
 70
0
 10
322.32379893591065
 20
135.41427603016575
 10
322.99093981432094
 20
136.8685535306291
 10
322.2638010640893
 20
137.20212396983425
 10
321.596660185679
 20
135.7478464693709
 10
322.32379893591065
 20
135.41427603016575
  0
LWPOLYLINE
  5
80
330
17
100
AcDbEntity
  8
CAP
100
AcDbPolyline
 90
5
 70
0
 10
349.77065084289075
 20
122.28167945947378
 10
350.4917059266865
 20
123.70999299862837
 10
349.7775491571092
 20
124.07052054052623
 10
349.05649407331344
 20
122.64220700137164
 10
349.77065084289075
 20
122.28167945947378
  0
LWPOLYLINE
  5
81
330
17
100
AcDbEntity
  8
CAP
100
AcDbPolyline
 90
5
 70
0
 10
376.70720757447214
 20
108.1319339835606
 10
377.48116826846825
 20
109.53228566944132
 10
376.78099242552787
 20
109.9192660164394
 10
376.00703173153175
 20
108.51891433055867
 10
376.70720757447214
 20
108.1319339835606
  0
LWPOLYLINE
  5
82
330
17
100
AcDbEntity
  8
CAP
100
AcDbPolyline
 90
5
 70
0
 10
391.2188075744721
 20
134.3886339835606
 10
391.99276826846824
 20
135.78898566944133
 10
391.29259242552786
 20
136.1759660164394
 10
390.51863173153174
 20
134.77561433055865
 10
391.2188075744721
 20
134.3886339835606
  0
LWPOLYLINE
  5
83
330
17
100
AcDbEntity
  8
CAP
100
AcDbPolyline
 90
5
 70
0
 10
363.29025084289077
 20
149.06257945947377
 10
364.01130592668653
 20
150.49089299862837
 10
363.29714915710923
 20
150.85142054052622
 10
362.57609407331347
 20
149.42310700137162
 10
363.29025084289077
 20
149.06257945947377
  0
LWPOLYLINE
  5
84
330
17
100
AcDbEntity
  8
CAP
100
AcDbPolyline
 90
5
 70
0
 10
334.83259893591065
 20
162.68197603016574
 10
335.49973981432095
 20
164.1362535306291
 10
334.7726010640893
 20
164.46982396983424
 10
334.105460185679
 20
163.0155464693709
 10
334.83259893591065
 20
162.68197603016574
  0
LWPOLYLINE
  5
85
330
17
100
AcDbEntity
  8
CAP
100
AcDbPolyline
 90
5
 70
0
 10
305.88550506711243
 20
175.22772300104492
 10
306.4977985588966
 20
176.705930253063
 10
305.7586949328875
 20
177.01207699895508
 10
305.14640144110336
 20
175.533869746937
 10
305.88550506711243
 20
175.22772300104492
  0
LWPOLYLINE
  5
86
330
17
100
AcDbEntity
  8
CAP
100
AcDbPolyline
 90
5
 70
0
 10
276.48962250877184
 20
186.68251792848883
 10
277.04621215194584
 20
188.18258724992415
 10
276.29617749122815
 20
188.46088207151115
 10
275.73958784805416
 20
186.96081275007583
 10
276.48962250877184
 20
186.68251792848883
  0
LWPOLYLINE
  5
87
330
17
100
AcDbEntity
  8
CAP
100
AcDbPolyline
 90
5
 70
0
 10
177.06895673052958
 20
61.52272851087886
 10
177.51668315297917
 20
63.05880827789635
 10
176.74864326947045
 20
63.28267148912114
 10
176.30091684702086
 20
61.74659172210366
 10
177.06895673052958
 20
61.52272851087886
  0
LWPOLYLINE
  5
88
330
17
100
AcDbEntity
  8
CAP
100
AcDbPolyline
 90
5
 70
0
 10
246.68600465722153
 20
197.02995662326217
 10
247.18611190705732
 20
198.54978975181993
 10
246.42619534277844
 20
198.7998433767378
 10
245.92608809294265
 20
197.28001024818005
 10
246.68600465722153
 20
197.02995662326217
  0
LWPOLYLINE
  5
89
330
17
100
AcDbEntity
  8
CAP
100
AcDbPolyline
 90
5
 70
0
 10
216.5163050980393
 20
206.25593315637667
 10
216.95923041607506
 20
207.79340418460546
 10
216.19049490196068
 20
208.01486684362334
 10
215.74756958392493
 20
206.47739581539454
 10
216.5163050980393
 20
206.25593315637667
  0
LWPOLYLINE
  5
8A
330
17
100
AcDbEntity
  8
CAP
100
AcDbPolyline
 90
5
 70
0
 10
186.0227624384036
 20
214.34733645229767
 10
186.40791337511973
 20
215.90028807934428
 10
185.6314375615964
 20
216.09286354770234
 10
185.24628662488027
 20
214.53991192065573
 10
186.0227624384036
 20
214.34733645229767
  0
LWPOLYLINE
  5
8B
330
17
100
AcDbEntity
  8
CAP
100
AcDbPolyline
 90
5
 70
0
 10
155.24796144028835
 20
221.29276339279286
 10
155.57477242159268
 20
222.85903111655497
 10
154.79163855971166
 20
223.02243660720714
 10
154.46482757840732
 20
221.45616888344503
 10
155.24796144028835
 20
221.29276339279286
  0
LWPOLYLINE
  5
8C
330
17
100
AcDbEntity
  8
CAP
100
AcDbPolyline
 90
5
 70
0
 10
124.23504129522408
 20
227.08270004674475
 10
124.50305518546975
 20
228.66009300813243
 10
123.71435870477592
 20
228.79409995325526
 10
123.44634481453025
 20
227.21670699186757
 10
124.23504129522408
 20
227.08270004674475
  0
LWPOLYLINE
  5
8D
330
17
100
AcDbEntity
  8
CAP
100
AcDbPolyline
 90
5
 70
0
 10
93.02715699077348
 20
231.70893363401294
 10
93.23599889832556
 20
233.29524541221105
 10
92.44284300922652
 20
233.3996663659871
 10
92.23400110167444
 20
231.81335458778898
 10
93.02715699077348
 20
231.70893363401294
  0
LWPOLYLINE
  5
8E
330
17
100
AcDbEntity
  8
CAP
100
AcDbPolyline
 90
5
 70
0
 10
61.668264023876986
 20
235.16514970021439
 10
61.81764182550229
 20
236.75816139897293
 10
61.02113597612302
 20
236.8328502997856
 10
60.871758174497714
 20
235.23983860102706
 10
61.668264023876986
 20
235.16514970021439
  0
LWPOLYLINE
  5
8F
330
17
100
AcDbEntity
  8
CAP
100
AcDbPolyline
 90
5
 70
0
 10
30.201918463102615
 20
237.44633213694195
 10
30.291623212584888
 20
239.04381548831694
 10
29.492881536897386
 20
239.08866786305808
 10
29.403176787415113
 20
237.4911845116831
 10
30.201918463102615
 20
237.44633213694195
  0
LWPOLYLINE
  5
90
330
17
100
AcDbEntity
  8
CAP
100
AcDbPolyline
 90
5
 70
0
 10
-1.327522989903743
 20
238.54936320429616
 10
-1.2976167694946807
 20
240.1490836854993
 10
-2.0974770100962568
 20
240.16403679570382
 10
-2.1273832305053193
 20
238.56431631450067
 10
-1.327522989903743
 20
238.54936320429616
  0
LWPOLYLINE
  5
91
330
17
100
AcDbEntity
  8
CAP
100
AcDbPolyline
 90
5
 70
0
 10
205.9570204795555
 20
52.50818011028265
 10
206.47132362404056
 20
54.02326831747482
 10
205.7137795204445
 20
54.28041988971735
 10
205.19947637595942
 20
52.76533168252518
 10
205.9570204795555
 20
52.50818011028265
  0
LWPOLYLINE
  5
92
330
17
100
AcDbEntity
  8
CAP
100
AcDbPolyline
 90
5
 70
0
 10
234.42415271708614
 20
42.24221848926028
 10
235.00405357834006
 20
43.73343108011276
 10
234.25844728291383
 20
44.023381510739725
 10
233.67854642165992
 20
42.53216891988725
 10
234.42415271708614
 20
42.24221848926028
  0
LWPOLYLINE
  5
93
330
17
100
AcDbEntity
  8
LED
100
AcDbPolyline
 90
5
 70
0
 10
-2.553942280286175
 20
82.44943214488663
 10
2.4448678551133707
 20
82.34035771971382
 10
2.553942280286175
 20
87.33916785511337
 10
-2.4448678551133707
 20
87.44824228028618
 10
-2.553942280286175
 20
82.44943214488663
  0
CIRCLE
  5
94
330
17
100
AcDbEntity
  8
LED
100
AcDbCircle
 10
2.41451315029048
 20
83.24123428833747
 30
0.0
 40
0.45
  0
TEXT
  5
95
330
17
100
AcDbEntity
  8
LED-REF
100
AcDbText
 10
0.0
 20
84.8943
 30
0.0
 40
1.1
  1
LED1
 50
358.75
 72
1
 11
0.0
 21
84.8943
 31
0.0
100
AcDbText
 73
2
  0
LWPOLYLINE
  5
96
330
17
100
AcDbEntity
  8
LED
100
AcDbPolyline
 90
5
 70
0
 10
259.54775457755454
 20
25.342088026848227
 10
264.12431197315175
 20
23.32835457755454
 10
266.13804542244543
 20
27.904911973151773
 10
261.5614880268482
 20
29.91864542244546
 10
259.54775457755454
 20
25.342088026848227
  0
CIRCLE
  5
97
330
17
100
AcDbEntity
  8
LED
100
AcDbCircle
 10
264.44101842006864
 20
24.172272243254977
 30
0.0
 40
0.45
  0
TEXT
  5
98
330
17
100
AcDbEntity
  8
LED-REF
100
AcDbText
 10
262.8429
 20
26.6235
 30
0.0
 40
1.1
  1
LED10
 50
336.25
 72
1
 11
262.8429
 21
26.6235
 31
0.0
100
AcDbText
 73
2
  0
LWPOLYLINE
  5
99
330
17
100
AcDbEntity
  8
LED
100
AcDbPolyline
 90
5
 70
0
 10
286.77899642062073
 20
12.764239871715784
 10
291.2633601282842
 20
10.552796420620776
 10
293.4748035793792
 20
15.037160128284217
 10
288.99043987171575
 20
17.248603579379225
 10
286.77899642062073
 20
12.764239871715784
  0
CIRCLE
  5
9A
330
17
100
AcDbEntity
  8
LED
100
AcDbCircle
 10
291.6165763124047
 20
11.382096322511146
 30
0.0
 40
0.45
  0
TEXT
  5
9B
330
17
100
AcDbEntity
  8
LED-REF
100
AcDbText
 10
290.1269
 20
13.9007
 30
0.0
 40
1.1
  1
LED11
 50
333.75
 72
1
 11
290.1269
 21
13.9007
 31
0.0
100
AcDbText
 73
2
  0
LWPOLYLINE
  5
9C
330
17
100
AcDbEntity
  8
LED
100
AcDbPolyline
 90
5
 70
0
 10
313.4357111884327
 20
-0.9893449669702996
 10
317.8193449669703
 20
-3.3942888115672387
 10
320.22428881156725
 20
0.9893449669702996
 10
315.8406550330297
 20
3.3942888115672387
 10
313.4357111884327
 20
-0.9893449669702996
  0
CIRCLE
  5
9D
330
17
100
AcDbEntity
  8
LED
100
AcDbCircle
 10
318.20839852121236
 20
-2.5811852929845127
 30
0.0
 40
0.45
  0
TEXT
  5
9E
330
17
100
AcDbEntity
  8
LED-REF
100
AcDbText
 10
316.83
 20
0.0
 30
0.0
 40
1.1
  1
LED12
 50
331.25
 72
1
 11
316.83
 21
0.0
 31
0.0
100
AcDbText
 73
2
  0
LWPOLYLINE
  5
9F
330
17
100
AcDbEntity
  8
LED
100
AcDbPolyline
 90
5
 70
0
 10
327.8653111884327
 20
25.3124550330297
 10
332.24894496697027
 20
22.90751118843276
 10
334.65388881156724
 20
27.2911449669703
 10
330.2702550330297
 20
29.69608881156724
 10
327.8653111884327
 20
25.3124550330297
  0
CIRCLE
  5
A0
330
17
100
AcDbEntity
  8
LED
100
AcDbCircle
 10
332.63799852121235
 20
23.720614707015486
 30
0.0
 40
0.45
  0
TEXT
  5
A1
330
17
100
AcDbEntity
  8
LED-REF
100
AcDbText
 10
331.2596
 20
26.3018
 30
0.0
 40
1.1
  1
LED13
 50
331.25
 72
1
 11
331.2596
 21
26.3018
 31
0.0
100
AcDbText
 73
2
  0
LWPOLYLINE
  5
A2
330
17
100
AcDbEntity
  8
LED
100
AcDbPolyline
 90
5
 70
0
 10
300.04769642062075
 20
39.67043987171578
 10
304.53206012828423
 20
37.45899642062078
 10
306.74350357937925
 20
41.94336012828422
 10
302.2591398717158
 20
44.15480357937922
 10
300.04769642062075
 20
39.67043987171578
  0
CIRCLE
  5
A3
330
17
100
AcDbEntity
  8
LED
100
AcDbCircle
 10
304.8852763124047
 20
38.288296322511144
 30
0.0
 40
0.45
  0
TEXT
  5
A4
330
17
100
AcDbEntity
  8
LED-REF
100
AcDbText
 10
303.3956
 20
40.8069
 30
0.0
 40
1.1
  1
LED14
 50
333.75
 72
1
 11
303.3956
 21
40.8069
 31
0.0
100
AcDbText
 73
2
  0
LWPOLYLINE
  5
A5
330
17
100
AcDbEntity
  8
LED
100
AcDbPolyline
 90
5
 70
0
 10
271.63015457755455
 20
52.80138802684822
 10
276.20671197315176
 20
50.78765457755454
 10
278.22044542244544
 20
55.364211973151775
 10
273.64388802684823
 20
57.37794542244546
 10
271.63015457755455
 20
52.80138802684822
  0
CIRCLE
  5
A6
330
17
100
AcDbEntity
  8
LED
100
AcDbCircle
 10
276.52341842006865
 20
51.63157224325498
 30
0.0
 40
0.45
  0
TEXT
  5
A7
330
17
100
AcDbEntity
  8
LED-REF
100
AcDbText
 10
274.9253
 20
54.0828
 30
0.0
 40
1.1
  1
LED15
 50
336.25
 72
1
 11
274.9253
 21
54.0828
 31
0.0
100
AcDbText
 73
2
  0
LWPOLYLINE
  5
A8
330
17
100
AcDbEntity
  8
LED
100
AcDbPolyline
 90
5
 70
0
 10
242.66698523108374
 20
64.68027542250226
 10
247.32702457749772
 20
62.868085231083754
 10
249.13921476891625
 20
67.52812457749775
 10
244.47917542250227
 20
69.34031476891626
 10
242.66698523108374
 20
64.68027542250226
  0
CIRCLE
  5
A9
330
17
100
AcDbEntity
  8
LED
100
AcDbCircle
 10
247.60661841848892
 20
63.72501421535246
 30
0.0
 40
0.45
  0
TEXT
  5
AA
330
17
100
AcDbEntity
  8
LED-REF
100
AcDbText
 10
245.9031
 20
66.1042
 30
0.0
 40
1.1
  1
LED16
 50
338.75
 72
1
 11
245.9031
 21
66.1042
 31
0.0
100
AcDbText
 73
2
  0
LWPOLYLINE
  5
AB
330
17
100
AcDbEntity
  8
LED
100
AcDbPolyline
 90
5
 70
0
 10
213.21317601300433
 20
75.28447333952015
 10
217.94782666047985
 20
73.67727601300433
 10
219.55502398699565
 20
78.41192666047986
 10
214.82037333952013
 20
80.01912398699568
 10
213.21317601300433
 20
75.28447333952015
  0
CIRCLE
  5
AC
330
17
100
AcDbEntity
  8
LED
100
AcDbCircle
 10
218.18977567277793
 20
74.5455851028151
 30
0.0
 40
0.45
  0
TEXT
  5
AD
330
17
100
AcDbEntity
  8
LED-REF
100
AcDbText
 10
216.3841
 20
76.8482
 30
0.0
 40
1.1
  1
LED17
 50
341.25
 72
1
 11
216.3841
 21
76.8482
 31
0.0
100
AcDbText
 73
2
  0
LWPOLYLINE
  5
AE
330
17
100
AcDbEntity
  8
LED
100
AcDbPolyline
 90
5
 70
0
 10
183.3249028289577
 20
84.59384789911266
 10
188.12515210088733
 20
83.19470282895769
 10
189.5242971710423
 20
87.99495210088733
 10
184.72404789911266
 20
89.3940971710423
 10
183.3249028289577
 20
84.59384789911266
  0
CIRCLE
  5
AF
330
17
100
AcDbEntity
  8
LED
100
AcDbCircle
 10
188.32899572079594
 20
84.07273914860657
 30
0.0
 40
0.45
  0
TEXT
  5
B0
330
17
100
AcDbEntity
  8
LED-REF
100
AcDbText
 10
186.4246
 20
86.2944
 30
0.0
 40
1.1
  1
LED18
 50
343.75
 72
1
 11
186.4246
 21
86.2944
 31
0.0
100
AcDbText
 73
2
  0
LWPOLYLINE
  5
B1
330
17
100
AcDbEntity
  8
LED
100
AcDbPolyline
 90
5
 70
0
 10
153.05903009465143
 20
92.59065955628229
 10
157.91574044371774
 20
91.40223009465142
 10
159.10416990534858
 20
96.25894044371772
 10
154.24745955628228
 20
97.4473699053486
 10
153.05903009465143
 20
92.59065955628229
  0
CIRCLE
  5
B2
330
17
100
AcDbEntity
  8
LED
100
AcDbCircle
 10
158.08109064332064
 20
92.28832225209966
 30
0.0
 40
0.45
  0
TEXT
  5
B3
330
17
100
AcDbEntity
  8
LED-REF
100
AcDbText
 10
156.0816
 20
94.4248
 30
0.0
 40
1.1
  1
LED19
 50
346.25
 72
1
 11
156.0816
 21
94.4248
 31
0.0
100
AcDbText
 73
2
  0
LWPOLYLINE
  5
B4
330
17
100
AcDbEntity
  8
LED
100
AcDbPolyline
 90
5
 70
0
 10
27.417744868828134
 20
81.25006051497884
 10
32.40703948502115
 20
80.92304486882813
 10
32.734055131171864
 20
85.91233948502115
 10
27.74476051497885
 20
86.23935513117186
 10
27.417744868828134
 20
81.25006051497884
  0
CIRCLE
  5
B5
330
17
100
AcDbEntity
  8
LED
100
AcDbCircle
 10
32.41600935516635
 20
81.82438805620438
 30
0.0
 40
0.45
  0
TEXT
  5
B6
330
17
100
AcDbEntity
  8
LED-REF
100
AcDbText
 10
30.0759
 20
83.5812
 30
0.0
 40
1.1
  1
LED2
 50
356.25
 72
1
 11
30.0759
 21
83.5812
 31
0.0
100
AcDbText
 73
2
  0
LWPOLYLINE
  5
B7
330
17
100
AcDbEntity
  8
LED
100
AcDbPolyline
 90
5
 70
0
 10
122.47311099395161
 20
99.25966260403224
 10
127.37703739596776
 20
98.2842109939516
 10
128.35248900604842
 20
103.18813739596776
 10
123.44856260403225
 20
104.1635890060484
 10
122.47311099395161
 20
99.25966260403224
  0
CIRCLE
  5
B8
330
17
100
AcDbEntity
  8
LED
100
AcDbCircle
 10
127.50357942176211
 20
99.17667226241532
 30
0.0
 40
0.45
  0
TEXT
  5
B9
330
17
100
AcDbEntity
  8
LED-REF
100
AcDbText
 10
125.4128
 20
101.2239
 30
0.0
 40
1.1
  1
LED20
 50
348.75
 72
1
 11
125.4128
 21
101.2239
 31
0.0
100
AcDbText
 73
2
  0
LWPOLYLINE
  5
BA
330
17
100
AcDbEntity
  8
LED
100
AcDbPolyline
 90
5
 70
0
 10
91.62538775835581
 20
104.58820468930539
 10
96.56719531069461
 20
103.8275877583558
 10
97.3278122416442
 20
108.7693953106946
 10
92.3860046893054
 20
109.53001224164419
 10
91.62538775835581
 20
104.58820468930539
  0
CIRCLE
  5
BB
330
17
100
AcDbEntity
  8
LED
100
AcDbCircle
 10
96.65468828274216
 20
104.72471928708629
 30
0.0
 40
0.45
  0
TEXT
  5
BC
330
17
100
AcDbEntity
  8
LED-REF
100
AcDbText
 10
94.4766
 20
106.6788
 30
0.0
 40
1.1
  1
LED21
 50
351.25
 72
1
 11
94.4766
 21
106.6788
 31
0.0
100
AcDbText
 73
2
  0
LWPOLYLINE
  5
BD
330
17
100
AcDbEntity
  8
LED
100
AcDbPolyline
 90
5
 70
0
 10
60.57459196731429
 20
108.5661263415741
 10
65.54487365842589
 20
108.02179196731429
 10
66.0892080326857
 20
112.9920736584259
 10
61.11892634157411
 20
113.53640803268571
 10
60.57459196731429
 20
108.5661263415741
  0
CIRCLE
  5
BE
330
17
100
AcDbEntity
  8
LED
100
AcDbCircle
 10
65.59315102888154
 20
108.92188601545698
 30
0.0
 40
0.45
  0
TEXT
  5
BF
330
17
100
AcDbEntity
  8
LED-REF
100
AcDbText
 10
63.3319
 20
110.7791
 30
0.0
 40
1.1
  1
LED22
 50
353.75
 72
1
 11
63.3319
 21
110.7791
 31
0.0
100
AcDbText
 73
2
  0
LWPOLYLINE
  5
C0
330
17
100
AcDbEntity
  8
LED
100
AcDbPolyline
 90
5
 70
0
 10
29.37984486882813
 20
111.18586051497884
 10
34.36913948502115
 20
110.85884486882813
 10
34.696155131171864
 20
115.84813948502115
 10
29.706860514978846
 20
116.17515513117186
 10
29.37984486882813
 20
111.18586051497884
  0
CIRCLE
  5
C1
330
17
100
AcDbEntity
  8
LED
100
AcDbCircle
 10
34.378109355166345
 20
111.76018805620438
 30
0.0
 40
0.45
  0
TEXT
  5
C2
330
17
100
AcDbEntity
  8
LED-REF
100
AcDbText
 10
32.038
 20
113.517
 30
0.0
 40
1.1
  1
LED23
 50
356.25
 72
1
 11
32.038
 21
113.517
 31
0.0
100
AcDbText
 73
2
  0
LWPOLYLINE
  5
C3
330
17
100
AcDbEntity
  8
LED
100
AcDbPolyline
 90
5
 70
0
 10
-1.899542280286175
 20
112.44233214488663
 10
3.0992678551133706
 20
112.33325771971383
 10
3.2083422802861747
 20
117.33206785511338
 10
-1.7904678551133708
 20
117.44114228028619
 10
-1.899542280286175
 20
112.44233214488663
  0
CIRCLE
  5
C4
330
17
100
AcDbEntity
  8
LED
100
AcDbCircle
 10
3.06891315029048
 20
113.23413428833747
 30
0.0
 40
0.45
  0
TEXT
  5
C5
330
17
100
AcDbEntity
  8
LED-REF
100
AcDbText
 10
0.6544
 20
114.8872
 30
0.0
 40
1.1
  1
LED24
 50
358.75
 72
1
 11
0.6544
 21
114.8872
 31
0.0
100
AcDbText
 73
2
  0
LWPOLYLINE
  5
C6
330
17
100
AcDbEntity
  8
LED
100
AcDbPolyline
 90
5
 70
0
 10
-2.4993422818840783
 20
142.45735640733005
 10
2.499643592669935
 20
142.3566577181159
 10
2.6003422818840782
 20
147.35564359266994
 10
-2.398643592669935
 20
147.45634228188408
 10
-2.4993422818840783
 20
142.45735640733005
  0
CIRCLE
  5
C7
330
17
100
AcDbEntity
  8
LED
100
AcDbCircle
 10
2.467779497982941
 20
143.25748216242778
 30
0.0
 40
0.45
  0
TEXT
  5
C8
330
17
100
AcDbEntity
  8
LED-REF
100
AcDbText
 10
0.0505
 20
144.9065
 30
0.0
 40
1.1
  1
LED25
 50
358.846
 72
1
 11
0.0505
 21
144.9065
 31
0.0
100
AcDbText
 73
2
  0
LWPOLYLINE
  5
C9
330
17
100
AcDbEntity
  8
LED
100
AcDbPolyline
 90
5
 70
0
 10
27.585195985226058
 20
141.34572867567368
 10
32.57607132432631
 20
141.04379598522607
 10
32.87800401477394
 20
146.03467132432633
 10
27.88712867567369
 20
146.33660401477394
 10
27.585195985226058
 20
141.34572867567368
  0
CIRCLE
  5
CA
330
17
100
AcDbEntity
  8
LED
100
AcDbCircle
 10
32.58051045521588
 20
141.9451728731686
 30
0.0
 40
0.45
  0
TEXT
  5
CB
330
17
100
AcDbEntity
  8
LED-REF
100
AcDbText
 10
30.2316
 20
143.6902
 30
0.0
 40
1.1
  1
LED26
 50
356.538
 72
1
 11
30.2316
 21
143.6902
 31
0.0
100
AcDbText
 73
2
  0
LWPOLYLINE
  5
CC
330
17
100
AcDbEntity
  8
LED
100
AcDbPolyline
 90
5
 70
0
 10
57.60056689980491
 20
139.02365690056837
 10
62.57524309943163
 20
138.5210668998049
 10
63.077833100195086
 20
143.49574309943165
 10
58.103156900568365
 20
143.9983331001951
 10
57.60056689980491
 20
139.02365690056837
  0
CIRCLE
  5
CD
330
17
100
AcDbEntity
  8
LED
100
AcDbCircle
 10
62.615962537572784
 20
139.42153451574538
 30
0.0
 40
0.45
  0
TEXT
  5
CE
330
17
100
AcDbEntity
  8
LED-REF
100
AcDbText
 10
60.3392
 20
141.2597
 30
0.0
 40
1.1
  1
LED27
 50
354.231
 72
1
 11
60.3392
 21
141.2597
 31
0.0
100
AcDbText
 73
2
  0
LWPOLYLINE
  5
CF
330
17
100
AcDbEntity
  8
LED
100
AcDbPolyline
 90
5
 70
0
 10
87.49814015261174
 20
135.49485915075255
 10
92.44854084924744
 20
134.79234015261173
 10
93.15105984738827
 20
139.74274084924744
 10
88.20065915075257
 20
140.44525984738826
 10
87.49814015261174
 20
135.49485915075255
  0
CIRCLE
  5
D0
330
17
100
AcDbEntity
  8
LED
100
AcDbCircle
 10
92.52549026194643
 20
135.69043746798758
 30
0.0
 40
0.45
  0
TEXT
  5
D1
330
17
100
AcDbEntity
  8
LED-REF
100
AcDbText
 10
90.3246
 20
137.6188
 30
0.0
 40
1.1
  1
LED28
 50
351.923
 72
1
 11
90.3246
 21
137.6188
 31
0.0
100
AcDbText
 73
2
  0
LWPOLYLINE
  5
D2
330
17
100
AcDbEntity
  8
LED
100
AcDbPolyline
 90
5
 70
0
 10
117.22929915608402
 20
130.7651073593755
 10
122.1473926406245
 20
129.86379915608404
 10
123.04870084391597
 20
134.78189264062453
 10
118.13060735937549
 20
135.68320084391598
 10
117.22929915608402
 20
130.7651073593755
  0
CIRCLE
  5
D3
330
17
100
AcDbEntity
  8
LED
100
AcDbCircle
 10
122.26044718237156
 20
130.75806906533424
 30
0.0
 40
0.45
  0
TEXT
  5
D4
330
17
100
AcDbEntity
  8
LED-REF
100
AcDbText
 10
120.139
 20
132.7735
 30
0.0
 40
1.1
  1
LED29
 50
349.615
 72
1
 11
120.139
 21
132.7735
 31
0.0
100
AcDbText
 73
2
  0
LWPOLYLINE
  5
D5
330
17
100
AcDbEntity
  8
LED
100
AcDbPolyline
 90
5
 70
0
 10
57.30859196731429
 20
78.74442634157411
 10
62.27887365842589
 20
78.2000919673143
 10
62.823208032685706
 20
83.1703736584259
 10
57.85292634157411
 20
83.71470803268572
 10
57.30859196731429
 20
78.74442634157411
  0
CIRCLE
  5
D6
330
17
100
AcDbEntity
  8
LED
100
AcDbCircle
 10
62.32715102888154
 20
79.10018601545698
 30
0.0
 40
0.45
  0
TEXT
  5
D7
330
17
100
AcDbEntity
  8
LED-REF
100
AcDbText
 10
60.0659
 20
80.9574
 30
0.0
 40
1.1
  1
LED3
 50
353.75
 72
1
 11
60.0659
 21
80.9574
 31
0.0
100
AcDbText
 73
2
  0
LWPOLYLINE
  5
D8
330
17
100
AcDbEntity
  8
LED
100
AcDbPolyline
 90
5
 70
0
 10
146.746011943376
 20
124.84196190283701
 10
151.62383809716297
 20
123.743411943376
 10
152.72238805662397
 20
128.62123809716297
 10
147.844561902837
 20
129.719788056624
 10
146.746011943376
 20
124.84196190283701
  0
CIRCLE
  5
D9
330
17
100
AcDbEntity
  8
LED
100
AcDbCircle
 10
151.7727988283281
 20
124.63240615065227
 30
0.0
 40
0.45
  0
TEXT
  5
DA
330
17
100
AcDbEntity
  8
LED-REF
100
AcDbText
 10
149.7342
 20
126.7316
 30
0.0
 40
1.1
  1
LED30
 50
347.308
 72
1
 11
149.7342
 21
126.7316
 31
0.0
100
AcDbText
 73
2
  0
LWPOLYLINE
  5
DB
330
17
100
AcDbEntity
  8
LED
100
AcDbPolyline
 90
5
 70
0
 10
176.00013782152104
 20
117.73513304703363
 10
180.8297669529664
 20
116.44103782152102
 10
182.123862178479
 20
121.27066695296637
 10
177.29423304703363
 20
122.56476217847897
 10
176.00013782152104
 20
117.73513304703363
  0
CIRCLE
  5
DC
330
17
100
AcDbEntity
  8
LED
100
AcDbCircle
 10
181.0144078022442
 20
117.32331201743631
 30
0.0
 40
0.45
  0
TEXT
  5
DD
330
17
100
AcDbEntity
  8
LED-REF
100
AcDbText
 10
179.062
 20
119.5029
 30
0.0
 40
1.1
  1
LED31
 50
345.0
 72
1
 11
179.062
 21
119.5029
 31
0.0
100
AcDbText
 73
2
  0
LWPOLYLINE
  5
DE
330
17
100
AcDbEntity
  8
LED
100
AcDbPolyline
 90
5
 70
0
 10
204.94443137558596
 20
109.45617228025985
 10
209.71802771974012
 20
107.96863137558597
 10
211.205568624414
 20
112.74222771974014
 10
206.43197228025986
 20
114.22976862441402
 10
204.94443137558596
 20
109.45617228025985
  0
CIRCLE
  5
DF
330
17
100
AcDbEntity
  8
LED
100
AcDbCircle
 10
209.9380491191399
 20
108.84275412658046
 30
0.0
 40
0.45
  0
TEXT
  5
E0
330
17
100
AcDbEntity
  8
LED-REF
100
AcDbText
 10
208.075
 20
111.0992
 30
0.0
 40
1.1
  1
LED32
 50
342.692
 72
1
 11
208.075
 21
111.0992
 31
0.0
100
AcDbText
 73
2
  0
LWPOLYLINE
  5
E1
330
17
100
AcDbEntity
  8
LED
100
AcDbPolyline
 90
5
 70
0
 10
233.53193053048747
 20
100.01832147206801
 10
238.24177852793198
 20
98.33983053048749
 10
239.92026946951253
 20
103.049678527932
 10
235.21042147206802
 20
104.72816946951252
 10
233.53193053048747
 20
100.01832147206801
  0
CIRCLE
  5
E2
330
17
100
AcDbEntity
  8
LED
100
AcDbCircle
 10
238.49680841744205
 20
99.2043880794433
 30
0.0
 40
0.45
  0
TEXT
  5
E3
330
17
100
AcDbEntity
  8
LED-REF
100
AcDbText
 10
236.7261
 20
101.534
 30
0.0
 40
1.1
  1
LED33
 50
340.385
 72
1
 11
236.7261
 21
101.534
 31
0.0
100
AcDbText
 73
2
  0
LWPOLYLINE
  5
E4
330
17
100
AcDbEntity
  8
LED
100
AcDbPolyline
 90
5
 70
0
 10
261.7161833447221
 20
89.4371843940088
 10
266.35461560599117
 20
87.57038334472209
 10
268.2214166552779
 20
92.20881560599119
 10
263.5829843940088
 20
94.0756166552779
 10
261.7161833447221
 20
89.4371843940088
  0
CIRCLE
  5
E5
330
17
100
AcDbEntity
  8
LED
100
AcDbCircle
 10
266.6442554722501
 20
88.4239691622434
 30
0.0
 40
0.45
  0
TEXT
  5
E6
330
17
100
AcDbEntity
  8
LED-REF
100
AcDbText
 10
264.9688
 20
90.823
 30
0.0
 40
1.1
  1
LED34
 50
338.077
 72
1
 11
264.9688
 21
90.823
 31
0.0
100
AcDbText
 73
2
  0
LWPOLYLINE
  5
E7
330
17
100
AcDbEntity
  8
LED
100
AcDbPolyline
 90
5
 70
0
 10
289.45151332183775
 20
77.72969571330194
 10
294.01100428669804
 20
75.67761332183777
 10
296.0630866781622
 20
80.23710428669807
 10
291.50359571330193
 20
82.28918667816224
 10
289.45151332183775
 20
77.72969571330194
  0
CIRCLE
  5
E8
330
17
100
AcDbEntity
  8
LED
100
AcDbCircle
 10
294.334784207513
 20
76.51884251942727
 30
0.0
 40
0.45
  0
TEXT
  5
E9
330
17
100
AcDbEntity
  8
LED-REF
100
AcDbText
 10
292.7573
 20
78.9834
 30
0.0
 40
1.1
  1
LED35
 50
335.769
 72
1
 11
292.7573
 21
78.9834
 31
0.0
100
AcDbText
 73
2
  0
LWPOLYLINE
  5
EA
330
17
100
AcDbEntity
  8
LED
100
AcDbPolyline
 90
5
 70
0
 10
316.6930262673023
 20
64.91488255669178
 10
321.1662174433082
 20
62.6809262673023
 10
323.40017373269774
 20
67.15411744330821
 10
318.9269825566918
 20
69.38807373269769
 10
316.6930262673023
 20
64.91488255669178
  0
CIRCLE
  5
EB
330
17
100
AcDbEntity
  8
LED
100
AcDbCircle
 10
321.52359766363827
 20
63.50844024187725
 30
0.0
 40
0.45
  0
TEXT
  5
EC
330
17
100
AcDbEntity
  8
LED-REF
100
AcDbText
 10
320.0466
 20
66.0345
 30
0.0
 40
1.1
  1
LED36
 50
333.462
 72
1
 11
320.0466
 21
66.0345
 31
0.0
100
AcDbText
 73
2
  0
LWPOLYLINE
  5
ED
330
17
100
AcDbEntity
  8
LED
100
AcDbPolyline
 90
5
 70
0
 10
343.3963582902899
 20
51.01364360457968
 10
347.77595639542034
 20
48.60135829028991
 10
350.1882417097101
 20
52.98095639542033
 10
345.8086436045797
 20
55.3932417097101
 10
343.3963582902899
 20
51.01364360457968
  0
CIRCLE
  5
EE
330
17
100
AcDbEntity
  8
LED
100
AcDbCircle
 10
348.16637177094117
 20
49.413808802356286
 30
0.0
 40
0.45
  0
TEXT
  5
EF
330
17
100
AcDbEntity
  8
LED-REF
100
AcDbText
 10
346.7923
 20
51.9973
 30
0.0
 40
1.1
  1
LED37
 50
331.154
 72
1
 11
346.7923
 21
51.9973
 31
0.0
100
AcDbText
 73
2
  0
LWPOLYLINE
  5
F0
330
17
100
AcDbEntity
  8
LED
100
AcDbPolyline
 90
5
 70
0
 10
357.8701582902899
 20
77.29114360457967
 10
362.2497563954203
 20
74.87885829028991
 10
364.6620417097101
 20
79.25845639542032
 10
360.28244360457967
 20
81.67074170971009
 10
357.8701582902899
 20
77.29114360457967
  0
CIRCLE
  5
F1
330
17
100
AcDbEntity
  8
LED
100
AcDbCircle
 10
362.64017177094115
 20
75.69130880235628
 30
0.0
 40
0.45
  0
TEXT
  5
F2
330
17
100
AcDbEntity
  8
LED-REF
100
AcDbText
 10
361.2661
 20
78.2748
 30
0.0
 40
1.1
  1
LED38
 50
331.154
 72
1
 11
361.2661
 21
78.2748
 31
0.0
100
AcDbText
 73
2
  0
LWPOLYLINE
  5
F3
330
17
100
AcDbEntity
  8
LED
100
AcDbPolyline
 90
5
 70
0
 10
330.09692626730225
 20
91.75398255669178
 10
334.57011744330816
 20
89.5200262673023
 10
336.8040737326977
 20
93.99321744330821
 10
332.3308825566918
 20
96.2271737326977
 10
330.09692626730225
 20
91.75398255669178
  0
CIRCLE
  5
F4
330
17
100
AcDbEntity
  8
LED
100
AcDbCircle
 10
334.92749766363823
 20
90.34754024187725
 30
0.0
 40
0.45
  0
TEXT
  5
F5
330
17
100
AcDbEntity
  8
LED-REF
100
AcDbText
 10
333.4505
 20
92.8736
 30
0.0
 40
1.1
  1
LED39
 50
333.462
 72
1
 11
333.4505
 21
92.8736
 31
0.0
100
AcDbText
 73
2
  0
LWPOLYLINE
  5
F6
330
17
100
AcDbEntity
  8
LED
100
AcDbPolyline
 90
5
 70
0
 10
87.0616877583558
 20
74.9374046893054
 10
92.0034953106946
 20
74.17678775835581
 10
92.76411224164418
 20
79.11859531069462
 10
87.82230468930538
 20
79.8792122416442
 10
87.0616877583558
 20
74.9374046893054
  0
CIRCLE
  5
F7
330
17
100
AcDbEntity
  8
LED
100
AcDbCircle
 10
92.09098828274215
 20
75.0739192870863
 30
0.0
 40
0.45
  0
TEXT
  5
F8
330
17
100
AcDbEntity
  8
LED-REF
100
AcDbText
 10
89.9129
 20
77.028
 30
0.0
 40
1.1
  1
LED4
 50
351.25
 72
1
 11
89.9129
 21
77.028
 31
0.0
100
AcDbText
 73
2
  0
LWPOLYLINE
  5
F9
330
17
100
AcDbEntity
  8
LED
100
AcDbPolyline
 90
5
 70
0
 10
301.7639133218378
 20
105.08669571330194
 10
306.32340428669806
 20
103.03461332183777
 10
308.37548667816225
 20
107.59410428669807
 10
303.81599571330196
 20
109.64618667816224
 10
301.7639133218378
 20
105.08669571330194
  0
CIRCLE
  5
FA
330
17
100
AcDbEntity
  8
LED
100
AcDbCircle
 10
306.647184207513
 20
103.87584251942727
 30
0.0
 40
0.45
  0
TEXT
  5
FB
330
17
100
AcDbEntity
  8
LED-REF
100
AcDbText
 10
305.0697
 20
106.3404
 30
0.0
 40
1.1
  1
LED40
 50
335.769
 72
1
 11
305.0697
 21
106.3404
 31
0.0
100
AcDbText
 73
2
  0
LWPOLYLINE
  5
FC
330
17
100
AcDbEntity
  8
LED
100
AcDbPolyline
 90
5
 70
0
 10
272.9170833447221
 20
117.2677843940088
 10
277.55551560599116
 20
115.40098334472209
 10
279.4223166552779
 20
120.0394156059912
 10
274.7838843940088
 20
121.9062166552779
 10
272.9170833447221
 20
117.2677843940088
  0
CIRCLE
  5
FD
330
17
100
AcDbEntity
  8
LED
100
AcDbCircle
 10
277.8451554722501
 20
116.2545691622434
 30
0.0
 40
0.45
  0
TEXT
  5
FE
330
17
100
AcDbEntity
  8
LED-REF
100
AcDbText
 10
276.1697
 20
118.6536
 30
0.0
 40
1.1
  1
LED41
 50
338.077
 72
1
 11
276.1697
 21
118.6536
 31
0.0
100
AcDbText
 73
2
  0
LWPOLYLINE
  5
FF
330
17
100
AcDbEntity
  8
LED
100
AcDbPolyline
 90
5
 70
0
 10
243.60303053048747
 20
128.27742147206803
 10
248.31287852793199
 20
126.5989305304875
 10
249.99136946951253
 20
131.308778527932
 10
245.28152147206802
 20
132.98726946951254
 10
243.60303053048747
 20
128.27742147206803
  0
CIRCLE
  5
100
330
17
100
AcDbEntity
  8
LED
100
AcDbCircle
 10
248.56790841744206
 20
127.46348807944331
 30
0.0
 40
0.45
  0
TEXT
  5
101
330
17
100
AcDbEntity
  8
LED-REF
100
AcDbText
 10
246.7972
 20
129.7931
 30
0.0
 40
1.1
  1
LED42
 50
340.385
 72
1
 11
246.7972
 21
129.7931
 31
0.0
100
AcDbText
 73
2
  0
LWPOLYLINE
  5
102
330
17
100
AcDbEntity
  8
LED
100
AcDbPolyline
 90
5
 70
0
 10
213.86953137558598
 20
138.09777228025987
 10
218.64312771974014
 20
136.61023137558598
 10
220.13066862441403
 20
141.38382771974014
 10
215.35707228025987
 20
142.87136862441403
 10
213.86953137558598
 20
138.09777228025987
  0
CIRCLE
  5
103
330
17
100
AcDbEntity
  8
LED
100
AcDbCircle
 10
218.8631491191399
 20
137.48435412658048
 30
0.0
 40
0.45
  0
TEXT
  5
104
330
17
100
AcDbEntity
  8
LED-REF
100
AcDbText
 10
217.0001
 20
139.7408
 30
0.0
 40
1.1
  1
LED43
 50
342.692
 72
1
 11
217.0001
 21
139.7408
 31
0.0
100
AcDbText
 73
2
  0
LWPOLYLINE
  5
105
330
17
100
AcDbEntity
  8
LED
100
AcDbPolyline
 90
5
 70
0
 10
183.76473782152104
 20
146.71293304703363
 10
188.59436695296637
 20
145.41883782152104
 10
189.888462178479
 20
150.2484669529664
 10
185.05883304703366
 20
151.542562178479
 10
183.76473782152104
 20
146.71293304703363
  0
CIRCLE
  5
106
330
17
100
AcDbEntity
  8
LED
100
AcDbCircle
 10
188.7790078022442
 20
146.30111201743634
 30
0.0
 40
0.45
  0
TEXT
  5
107
330
17
100
AcDbEntity
  8
LED-REF
100
AcDbText
 10
186.8266
 20
148.4807
 30
0.0
 40
1.1
  1
LED44
 50
345.0
 72
1
 11
186.8266
 21
148.4807
 31
0.0
100
AcDbText
 73
2
  0
LWPOLYLINE
  5
108
330
17
100
AcDbEntity
  8
LED
100
AcDbPolyline
 90
5
 70
0
 10
153.33741194337603
 20
154.10886190283702
 10
158.215238097163
 20
153.01031194337602
 10
159.313788056624
 20
157.888138097163
 10
154.43596190283702
 20
158.986688056624
 10
153.33741194337603
 20
154.10886190283702
  0
CIRCLE
  5
109
330
17
100
AcDbEntity
  8
LED
100
AcDbCircle
 10
158.3641988283281
 20
153.89930615065228
 30
0.0
 40
0.45
  0
TEXT
  5
10A
330
17
100
AcDbEntity
  8
LED-REF
100
AcDbText
 10
156.3256
 20
155.9985
 30
0.0
 40
1.1
  1
LED45
 50
347.308
 72
1
 11
156.3256
 21
155.9985
 31
0.0
100
AcDbText
 73
2
  0
LWPOLYLINE
  5
10B
330
17
100
AcDbEntity
  8
LED
100
AcDbPolyline
 90
5
 70
0
 10
122.63699915608403
 20
160.2737073593755
 10
127.55509264062451
 20
159.37239915608404
 10
128.45640084391596
 20
164.29049264062454
 10
123.5383073593755
 20
165.19180084391598
 10
122.63699915608403
 20
160.2737073593755
  0
CIRCLE
  5
10C
330
17
100
AcDbEntity
  8
LED
100
AcDbCircle
 10
127.66814718237157
 20
160.26666906533424
 30
0.0
 40
0.45
  0
TEXT
  5
10D
330
17
100
AcDbEntity
  8
LED-REF
100
AcDbText
 10
125.5467
 20
162.2821
 30
0.0
 40
1.1
  1
LED46
 50
349.615
 72
1
 11
125.5467
 21
162.2821
 31
0.0
100
AcDbText
 73
2
  0
LWPOLYLINE
  5
10E
330
17
100
AcDbEntity
  8
LED
100
AcDbPolyline
 90
5
 70
0
 10
91.71324015261173
 20
165.19725915075256
 10
96.66364084924743
 20
164.49474015261174
 10
97.36615984738826
 20
169.44514084924745
 10
92.41575915075256
 20
170.14765984738827
 10
91.71324015261173
 20
165.19725915075256
  0
CIRCLE
  5
10F
330
17
100
AcDbEntity
  8
LED
100
AcDbCircle
 10
96.74059026194642
 20
165.3928374679876
 30
0.0
 40
0.45
  0
TEXT
  5
110
330
17
100
AcDbEntity
  8
LED-REF
100
AcDbText
 10
94.5397
 20
167.3212
 30
0.0
 40
1.1
  1
LED47
 50
351.923
 72
1
 11
94.5397
 21
167.3212
 31
0.0
100
AcDbText
 73
2
  0
LWPOLYLINE
  5
111
330
17
100
AcDbEntity
  8
LED
100
AcDbPolyline
 90
5
 70
0
 10
60.61626689980491
 20
168.87165690056835
 10
65.59094309943164
 20
168.3690668998049
 10
66.09353310019509
 20
173.34374309943163
 10
61.11885690056837
 20
173.8463331001951
 10
60.61626689980491
 20
168.87165690056835
  0
CIRCLE
  5
112
330
17
100
AcDbEntity
  8
LED
100
AcDbCircle
 10
65.6316625375728
 20
169.26953451574536
 30
0.0
 40
0.45
  0
TEXT
  5
113
330
17
100
AcDbEntity
  8
LED-REF
100
AcDbText
 10
63.3549
 20
171.1077
 30
0.0
 40
1.1
  1
LED48
 50
354.231
 72
1
 11
63.3549
 21
171.1077
 31
0.0
100
AcDbText
 73
2
  0
LWPOLYLINE
  5
114
330
17
100
AcDbEntity
  8
LED
100
AcDbPolyline
 90
5
 70
0
 10
29.396595985226057
 20
171.2910286756737
 10
34.387471324326306
 20
170.98909598522607
 10
34.68940401477394
 20
175.97997132432633
 10
29.69852867567369
 20
176.28190401477394
 10
29.396595985226057
 20
171.2910286756737
  0
CIRCLE
  5
115
330
17
100
AcDbEntity
  8
LED
100
AcDbCircle
 10
34.39191045521588
 20
171.8904728731686
 30
0.0
 40
0.45
  0
TEXT
  5
116
330
17
100
AcDbEntity
  8
LED-REF
100
AcDbText
 10
32.043
 20
173.6355
 30
0.0
 40
1.1
  1
LED49
 50
356.538
 72
1
 11
32.043
 21
173.6355
 31
0.0
100
AcDbText
 73
2
  0
LWPOLYLINE
  5
117
330
17
100
AcDbEntity
  8
LED
100
AcDbPolyline
 90
5
 70
0
 10
116.62041099395161
 20
69.83616260403224
 10
121.52433739596776
 20
68.8607109939516
 10
122.4997890060484
 20
73.76463739596775
 10
117.59586260403225
 20
74.7400890060484
 10
116.62041099395161
 20
69.83616260403224
  0
CIRCLE
  5
118
330
17
100
AcDbEntity
  8
LED
100
AcDbCircle
 10
121.65087942176211
 20
69.75317226241532
 30
0.0
 40
0.45
  0
TEXT
  5
119
330
17
100
AcDbEntity
  8
LED-REF
100
AcDbText
 10
119.5601
 20
71.8004
 30
0.0
 40
1.1
  1
LED5
 50
348.75
 72
1
 11
119.5601
 21
71.8004
 31
0.0
100
AcDbText
 73
2
  0
LWPOLYLINE
  5
11A
330
17
100
AcDbEntity
  8
LED
100
AcDbPolyline
 90
5
 70
0
 10
-1.8952422818840784
 20
172.45125640733005
 10
3.103743592669935
 20
172.3505577181159
 10
3.204442281884078
 20
177.34954359266993
 10
-1.7945435926699354
 20
177.45024228188407
 10
-1.8952422818840784
 20
172.45125640733005
  0
CIRCLE
  5
11B
330
17
100
AcDbEntity
  8
LED
100
AcDbCircle
 10
3.0718794979829407
 20
173.25138216242777
 30
0.0
 40
0.45
  0
TEXT
  5
11C
330
17
100
AcDbEntity
  8
LED-REF
100
AcDbText
 10
0.6546
 20
174.9004
 30
0.0
 40
1.1
  1
LED50
 50
358.846
 72
1
 11
0.6546
 21
174.9004
 31
0.0
100
AcDbText
 73
2
  0
LWPOLYLINE
  5
11D
330
17
100
AcDbEntity
  8
LED
100
AcDbPolyline
 90
5
 70
0
 10
-2.452491721269087
 20
202.46406521750924
 10
2.5466347824907634
 20
202.3706082787309
 10
2.6400917212690866
 20
207.36973478249075
 10
-2.3590347824907636
 20
207.46319172126908
 10
-2.452491721269087
 20
202.46406521750924
  0
CIRCLE
  5
11E
330
17
100
AcDbEntity
  8
LED
100
AcDbCircle
 10
2.513465766433263
 20
203.27138561879548
 30
0.0
 40
0.45
  0
TEXT
  5
11F
330
17
100
AcDbEntity
  8
LED-REF
100
AcDbText
 10
0.0938
 20
204.9169
 30
0.0
 40
1.1
  1
LED51
 50
358.929
 72
1
 11
0.0938
 21
204.9169
 31
0.0
100
AcDbText
 73
2
  0
LWPOLYLINE
  5
120
330
17
100
AcDbEntity
  8
LED
100
AcDbPolyline
 90
5
 70
0
 10
27.7285685924105
 20
201.4283959345426
 10
32.7207040654574
 20
201.1480685924105
 10
33.001031407589494
 20
206.1402040654574
 10
28.0088959345426
 20
206.4205314075895
 10
27.7285685924105
 20
201.4283959345426
  0
CIRCLE
  5
121
330
17
100
AcDbEntity
  8
LED
100
AcDbCircle
 10
32.72124163231071
 20
202.04945625098026
 30
0.0
 40
0.45
  0
TEXT
  5
122
330
17
100
AcDbEntity
  8
LED-REF
100
AcDbText
 10
30.3648
 20
203.7843
 30
0.0
 40
1.1
  1
LED52
 50
356.786
 72
1
 11
30.3648
 21
203.7843
 31
0.0
100
AcDbText
 73
2
  0
LWPOLYLINE
  5
123
330
17
100
AcDbEntity
  8
LED
100
AcDbPolyline
 90
5
 70
0
 10
57.84981640565023
 20
199.2648220357293
 10
62.82797796427069
 20
198.79801640565023
 10
63.29478359434977
 20
203.7761779642707
 10
58.31662203572931
 20
204.24298359434977
 10
57.84981640565023
 20
199.2648220357293
  0
CIRCLE
  5
124
330
17
100
AcDbEntity
  8
LED
100
AcDbCircle
 10
62.862221362098715
 20
199.69875354250271
 30
0.0
 40
0.45
  0
TEXT
  5
125
330
17
100
AcDbEntity
  8
LED-REF
100
AcDbText
 10
60.5723
 20
201.5205
 30
0.0
 40
1.1
  1
LED53
 50
354.643
 72
1
 11
60.5723
 21
201.5205
 31
0.0
100
AcDbText
 73
2
  0
LWPOLYLINE
  5
126
330
17
100
AcDbEntity
  8
LED
100
AcDbPolyline
 90
5
 70
0
 10
87.86897236601534
 20
195.97660332711558
 10
92.82619667288441
 20
195.32397236601534
 10
93.47882763398466
 20
200.2811966728844
 10
88.5216033271156
 20
200.93382763398463
 10
87.86897236601534
 20
195.97660332711558
  0
CIRCLE
  5
127
330
17
100
AcDbEntity
  8
LED
100
AcDbCircle
 10
92.89409800281376
 20
196.22279905086276
 30
0.0
 40
0.45
  0
TEXT
  5
128
330
17
100
AcDbEntity
  8
LED-REF
100
AcDbText
 10
90.6739
 20
198.1289
 30
0.0
 40
1.1
  1
LED54
 50
352.5
 72
1
 11
90.6739
 21
198.1289
 31
0.0
100
AcDbText
 73
2
  0
LWPOLYLINE
  5
129
330
17
100
AcDbEntity
  8
LED
100
AcDbPolyline
 90
5
 70
0
 10
117.7443517943229
 20
191.56819520134061
 10
122.67370479865939
 20
190.7306517943229
 10
123.51124820567709
 20
195.6600047986594
 10
118.5818952013406
 20
196.4975482056771
 10
117.7443517943229
 20
191.56819520134061
  0
CIRCLE
  5
12A
330
17
100
AcDbEntity
  8
LED
100
AcDbCircle
 10
122.77516908187921
 20
191.62631076917364
 30
0.0
 40
0.45
  0
TEXT
  5
12B
330
17
100
AcDbEntity
  8
LED-REF
100
AcDbText
 10
120.6278
 20
193.6141
 30
0.0
 40
1.1
  1
LED55
 50
350.35699999999997
 72
1
 11
120.6278
 21
193.6141
 31
0.0
100
AcDbText
 73
2
  0
LWPOLYLINE
  5
12C
330
17
100
AcDbEntity
  8
LED
100
AcDbPolyline
 90
5
 70
0
 10
147.43386452333368
 20
186.04574883990978
 10
152.32845116009022
 20
185.0244645233337
 10
153.3497354766663
 20
189.91905116009025
 10
148.45514883990975
 20
190.94033547666632
 10
147.43386452333368
 20
186.04574883990978
  0
CIRCLE
  5
12D
330
17
100
AcDbEntity
  8
LED
100
AcDbCircle
 10
152.46333647070637
 20
185.91570296111564
 30
0.0
 40
0.45
  0
TEXT
  5
12E
330
17
100
AcDbEntity
  8
LED-REF
100
AcDbText
 10
150.3918
 20
187.9824
 30
0.0
 40
1.1
  1
LED56
 50
348.214
 72
1
 11
150.3918
 21
187.9824
 31
0.0
100
AcDbText
 73
2
  0
LWPOLYLINE
  5
12F
330
17
100
AcDbEntity
  8
LED
100
AcDbPolyline
 90
5
 70
0
 10
176.89621474412073
 20
179.41711142135867
 10
181.74918857864134
 20
178.21351474412074
 10
182.95278525587926
 20
183.06648857864135
 10
178.09981142135865
 20
184.27008525587928
 10
176.89621474412073
 20
179.41711142135867
  0
CIRCLE
  5
130
330
17
100
AcDbEntity
  8
LED
100
AcDbCircle
 10
181.91730624219898
 20
179.09908600110683
 30
0.0
 40
0.45
  0
TEXT
  5
131
330
17
100
AcDbEntity
  8
LED-REF
100
AcDbText
 10
179.9245
 20
181.2418
 30
0.0
 40
1.1
  1
LED57
 50
346.071
 72
1
 11
179.9245
 21
181.2418
 31
0.0
100
AcDbText
 73
2
  0
LWPOLYLINE
  5
132
330
17
100
AcDbEntity
  8
LED
100
AcDbPolyline
 90
5
 70
0
 10
206.09013070896165
 20
171.69137232782336
 10
210.89472767217666
 20
170.30723070896164
 10
212.27886929103838
 20
175.11182767217664
 10
207.47427232782337
 20
176.49596929103836
 10
206.09013070896165
 20
171.69137232782336
  0
CIRCLE
  5
133
330
17
100
AcDbEntity
  8
LED
100
AcDbCircle
 10
211.0958271939396
 20
171.18589957852896
 30
0.0
 40
0.45
  0
TEXT
  5
134
330
17
100
AcDbEntity
  8
LED-REF
100
AcDbText
 10
209.1845
 20
173.4016
 30
0.0
 40
1.1
  1
LED58
 50
343.929
 72
1
 11
209.1845
 21
173.4016
 31
0.0
100
AcDbText
 73
2
  0
LWPOLYLINE
  5
135
330
17
100
AcDbEntity
  8
LED
100
AcDbPolyline
 90
5
 70
0
 10
234.97474315876008
 20
162.87947831449688
 10
239.72422168550312
 20
161.3166431587601
 10
241.28705684123992
 20
166.06612168550313
 10
236.53757831449687
 20
167.62895684123993
 10
234.97474315876008
 20
162.87947831449688
  0
CIRCLE
  5
136
330
17
100
AcDbEntity
  8
LED
100
AcDbCircle
 10
239.95803722826832
 20
162.18717764513121
 30
0.0
 40
0.45
  0
TEXT
  5
137
330
17
100
AcDbEntity
  8
LED-REF
100
AcDbText
 10
238.1309
 20
164.4728
 30
0.0
 40
1.1
  1
LED59
 50
341.786
 72
1
 11
238.1309
 21
164.4728
 31
0.0
100
AcDbText
 73
2
  0
LWPOLYLINE
  5
138
330
17
100
AcDbEntity
  8
LED
100
AcDbPolyline
 90
5
 70
0
 10
145.92843009465142
 20
63.450459556282276
 10
150.78514044371772
 20
62.26203009465141
 10
151.97356990534857
 20
67.11874044371771
 10
147.11685955628226
 20
68.30716990534859
 10
145.92843009465142
 20
63.450459556282276
  0
CIRCLE
  5
139
330
17
100
AcDbEntity
  8
LED
100
AcDbCircle
 10
150.95049064332062
 20
63.148122252099654
 30
0.0
 40
0.45
  0
TEXT
  5
13A
330
17
100
AcDbEntity
  8
LED-REF
100
AcDbText
 10
148.951
 20
65.2846
 30
0.0
 40
1.1
  1
LED6
 50
346.25
 72
1
 11
148.951
 21
65.2846
 31
0.0
100
AcDbText
 73
2
  0
LWPOLYLINE
  5
13B
330
17
100
AcDbEntity
  8
LED
100
AcDbPolyline
 90
5
 70
0
 10
263.5095703677979
 20
152.99371300271665
 10
268.1972869972833
 20
151.25437036779792
 10
269.9366296322021
 20
155.94208699728333
 10
265.2489130027167
 20
157.68142963220205
 10
263.5095703677979
 20
152.99371300271665
  0
CIRCLE
  5
13C
330
17
100
AcDbEntity
  8
LED
100
AcDbCircle
 10
268.46349150527385
 20
152.11555278745448
 30
0.0
 40
0.45
  0
TEXT
  5
13D
330
17
100
AcDbEntity
  8
LED-REF
100
AcDbText
 10
266.7231
 20
154.4679
 30
0.0
 40
1.1
  1
LED60
 50
339.64300000000003
 72
1
 11
266.7231
 21
154.4679
 31
0.0
100
AcDbText
 73
2
  0
LWPOLYLINE
  5
13E
330
17
100
AcDbEntity
  8
LED
100
AcDbPolyline
 90
5
 70
0
 10
291.65489258780906
 20
142.04800974963453
 10
296.2742902503655
 20
140.13459258780907
 10
298.1877074121909
 20
144.7539902503655
 10
293.56830974963447
 20
146.66740741219095
 10
291.65489258780906
 20
142.04800974963453
  0
CIRCLE
  5
13F
330
17
100
AcDbEntity
  8
LED
100
AcDbCircle
 10
296.5725113628685
 20
140.98521833868747
 30
0.0
 40
0.45
  0
TEXT
  5
140
330
17
100
AcDbEntity
  8
LED-REF
100
AcDbText
 10
294.9213
 20
143.401
 30
0.0
 40
1.1
  1
LED61
 50
337.5
 72
1
 11
294.9213
 21
143.401
 31
0.0
100
AcDbText
 73
2
  0
LWPOLYLINE
  5
141
330
17
100
AcDbEntity
  8
LED
100
AcDbPolyline
 90
5
 70
0
 10
319.3712837830099
 20
130.05749902804206
 10
323.9159009719579
 20
127.97268378300993
 10
326.00071621699004
 20
132.51730097195792
 10
321.45609902804205
 20
134.60211621699005
 10
319.3712837830099
 20
130.05749902804206
  0
CIRCLE
  5
142
330
17
100
AcDbEntity
  8
LED
100
AcDbCircle
 10
324.2457215441742
 20
128.81156302947088
 30
0.0
 40
0.45
  0
TEXT
  5
143
330
17
100
AcDbEntity
  8
LED-REF
100
AcDbText
 10
322.686
 20
131.2874
 30
0.0
 40
1.1
  1
LED62
 50
335.35699999999997
 72
1
 11
322.686
 21
131.2874
 31
0.0
100
AcDbText
 73
2
  0
LWPOLYLINE
  5
144
330
17
100
AcDbEntity
  8
LED
100
AcDbPolyline
 90
5
 70
0
 10
346.6199115266401
 20
117.03900866350178
 10
351.0833913364982
 20
114.7857115266401
 10
353.33668847335986
 20
119.24919133649821
 10
348.87320866350177
 20
121.50248847335989
 10
346.6199115266401
 20
117.03900866350178
  0
CIRCLE
  5
145
330
17
100
AcDbEntity
  8
LED
100
AcDbCircle
 10
351.4443500230347
 20
115.61167086378317
 30
0.0
 40
0.45
  0
TEXT
  5
146
330
17
100
AcDbEntity
  8
LED-REF
100
AcDbText
 10
349.9783
 20
118.1441
 30
0.0
 40
1.1
  1
LED63
 50
333.214
 72
1
 11
349.9783
 21
118.1441
 31
0.0
100
AcDbText
 73
2
  0
LWPOLYLINE
  5
147
330
17
100
AcDbEntity
  8
LED
100
AcDbPolyline
 90
5
 70
0
 10
373.3626369064424
 20
103.01076407518035
 10
377.73873592481965
 20
100.59213690644239
 10
380.1573630935576
 20
104.96823592481967
 10
375.78126407518033
 20
107.38686309355762
 10
373.3626369064424
 20
103.01076407518035
  0
CIRCLE
  5
148
330
17
100
AcDbEntity
  8
LED
100
AcDbCircle
 10
378.1303278250087
 20
101.40402100143767
 30
0.0
 40
0.45
  0
TEXT
  5
149
330
17
100
AcDbEntity
  8
LED-REF
100
AcDbText
 10
376.76
 20
103.9895
 30
0.0
 40
1.1
  1
LED64
 50
331.071
 72
1
 11
376.76
 21
103.9895
 31
0.0
100
AcDbText
 73
2
  0
LWPOLYLINE
  5
14A
330
17
100
AcDbEntity
  8
LED
100
AcDbPolyline
 90
5
 70
0
 10
387.8742369064424
 20
129.26746407518033
 10
392.25033592481964
 20
126.84883690644236
 10
394.6689630935576
 20
131.22493592481965
 10
390.2928640751803
 20
133.64356309355762
 10
387.8742369064424
 20
129.26746407518033
  0
CIRCLE
  5
14B
330
17
100
AcDbEntity
  8
LED
100
AcDbCircle
 10
392.6419278250087
 20
127.66072100143765
 30
0.0
 40
0.45
  0
TEXT
  5
14C
330
17
100
AcDbEntity
  8
LED-REF
100
AcDbText
 10
391.2716
 20
130.2462
 30
0.0
 40
1.1
  1
LED65
 50
331.071
 72
1
 11
391.2716
 21
130.2462
 31
0.0
100
AcDbText
 73
2
  0
LWPOLYLINE
  5
14D
330
17
100
AcDbEntity
  8
LED
100
AcDbPolyline
 90
5
 70
0
 10
360.13951152664015
 20
143.8199086635018
 10
364.60299133649823
 20
141.56661152664012
 10
366.8562884733599
 20
146.03009133649823
 10
362.3928086635018
 20
148.2833884733599
 10
360.13951152664015
 20
143.8199086635018
  0
CIRCLE
  5
14E
330
17
100
AcDbEntity
  8
LED
100
AcDbCircle
 10
364.9639500230347
 20
142.3925708637832
 30
0.0
 40
0.45
  0
TEXT
  5
14F
330
17
100
AcDbEntity
  8
LED-REF
100
AcDbText
 10
363.4979
 20
144.925
 30
0.0
 40
1.1
  1
LED66
 50
333.214
 72
1
 11
363.4979
 21
144.925
 31
0.0
100
AcDbText
 73
2
  0
LWPOLYLINE
  5
150
330
17
100
AcDbEntity
  8
LED
100
AcDbPolyline
 90
5
 70
0
 10
331.8800837830099
 20
157.32519902804208
 10
336.4247009719579
 20
155.24038378300995
 10
338.50951621699005
 20
159.78500097195794
 10
333.96489902804205
 20
161.86981621699007
 10
331.8800837830099
 20
157.32519902804208
  0
CIRCLE
  5
151
330
17
100
AcDbEntity
  8
LED
100
AcDbCircle
 10
336.7545215441742
 20
156.0792630294709
 30
0.0
 40
0.45
  0
TEXT
  5
152
330
17
100
AcDbEntity
  8
LED-REF
100
AcDbText
 10
335.1948
 20
158.5551
 30
0.0
 40
1.1
  1
LED67
 50
335.35699999999997
 72
1
 11
335.1948
 21
158.5551
 31
0.0
100
AcDbText
 73
2
  0
LWPOLYLINE
  5
153
330
17
100
AcDbEntity
  8
LED
100
AcDbPolyline
 90
5
 70
0
 10
303.13539258780906
 20
169.76430974963452
 10
307.7547902503655
 20
167.85089258780906
 10
309.6682074121909
 20
172.47029025036548
 10
305.0488097496345
 20
174.38370741219094
 10
303.13539258780906
 20
169.76430974963452
  0
CIRCLE
  5
154
330
17
100
AcDbEntity
  8
LED
100
AcDbCircle
 10
308.0530113628685
 20
168.70151833868746
 30
0.0
 40
0.45
  0
TEXT
  5
155
330
17
100
AcDbEntity
  8
LED-REF
100
AcDbText
 10
306.4018
 20
171.1173
 30
0.0
 40
1.1
  1
LED68
 50
337.5
 72
1
 11
306.4018
 21
171.1173
 31
0.0
100
AcDbText
 73
2
  0
LWPOLYLINE
  5
156
330
17
100
AcDbEntity
  8
LED
100
AcDbPolyline
 90
5
 70
0
 10
273.9457703677979
 20
181.12001300271666
 10
278.6334869972833
 20
179.38067036779793
 10
280.37282963220207
 20
184.06838699728334
 10
275.68511300271666
 20
185.80772963220207
 10
273.9457703677979
 20
181.12001300271666
  0
CIRCLE
  5
157
330
17
100
AcDbEntity
  8
LED
100
AcDbCircle
 10
278.89969150527384
 20
180.2418527874545
 30
0.0
 40
0.45
  0
TEXT
  5
158
330
17
100
AcDbEntity
  8
LED-REF
100
AcDbText
 10
277.1593
 20
182.5942
 30
0.0
 40
1.1
  1
LED69
 50
339.64300000000003
 72
1
 11
277.1593
 21
182.5942
 31
0.0
100
AcDbText
 73
2
  0
LWPOLYLINE
  5
159
330
17
100
AcDbEntity
  8
LED
100
AcDbPolyline
 90
5
 70
0
 10
174.9300028289577
 20
55.792347899112656
 10
179.73025210088733
 20
54.3932028289577
 10
181.12939717104229
 20
59.19345210088734
 10
176.32914789911266
 20
60.5925971710423
 10
174.9300028289577
 20
55.792347899112656
  0
CIRCLE
  5
15A
330
17
100
AcDbEntity
  8
LED
100
AcDbCircle
 10
179.93409572079594
 20
55.27123914860658
 30
0.0
 40
0.45
  0
TEXT
  5
15B
330
17
100
AcDbEntity
  8
LED-REF
100
AcDbText
 10
178.0297
 20
57.4929
 30
0.0
 40
1.1
  1
LED7
 50
343.75
 72
1
 11
178.0297
 21
57.4929
 31
0.0
100
AcDbText
 73
2
  0
LWPOLYLINE
  5
15C
330
17
100
AcDbEntity
  8
LED
100
AcDbPolyline
 90
5
 70
0
 10
244.3518431587601
 20
191.3762783144969
 10
249.10132168550314
 20
189.8134431587601
 10
250.66415684123993
 20
194.56292168550314
 10
245.91467831449688
 20
196.12575684123993
 10
244.3518431587601
 20
191.3762783144969
  0
CIRCLE
  5
15D
330
17
100
AcDbEntity
  8
LED
100
AcDbCircle
 10
249.33513722826834
 20
190.68397764513122
 30
0.0
 40
0.45
  0
TEXT
  5
15E
330
17
100
AcDbEntity
  8
LED-REF
100
AcDbText
 10
247.508
 20
192.9696
 30
0.0
 40
1.1
  1
LED70
 50
341.786
 72
1
 11
247.508
 21
192.9696
 31
0.0
100
AcDbText
 73
2
  0
LWPOLYLINE
  5
15F
330
17
100
AcDbEntity
  8
LED
100
AcDbPolyline
 90
5
 70
0
 10
214.39523070896163
 20
200.51887232782335
 10
219.19982767217664
 20
199.13473070896163
 10
220.58396929103836
 20
203.93932767217663
 10
215.77937232782335
 20
205.32346929103835
 10
214.39523070896163
 20
200.51887232782335
  0
CIRCLE
  5
160
330
17
100
AcDbEntity
  8
LED
100
AcDbCircle
 10
219.4009271939396
 20
200.01339957852895
 30
0.0
 40
0.45
  0
TEXT
  5
161
330
17
100
AcDbEntity
  8
LED-REF
100
AcDbText
 10
217.4896
 20
202.2291
 30
0.0
 40
1.1
  1
LED71
 50
343.929
 72
1
 11
217.4896
 21
202.2291
 31
0.0
100
AcDbText
 73
2
  0
LWPOLYLINE
  5
162
330
17
100
AcDbEntity
  8
LED
100
AcDbPolyline
 90
5
 70
0
 10
184.11761474412074
 20
208.53501142135866
 10
188.97058857864135
 20
207.33141474412074
 10
190.17418525587928
 20
212.18438857864135
 10
185.32121142135867
 20
213.38798525587927
 10
184.11761474412074
 20
208.53501142135866
  0
CIRCLE
  5
163
330
17
100
AcDbEntity
  8
LED
100
AcDbCircle
 10
189.138706242199
 20
208.21698600110682
 30
0.0
 40
0.45
  0
TEXT
  5
164
330
17
100
AcDbEntity
  8
LED-REF
100
AcDbText
 10
187.1459
 20
210.3597
 30
0.0
 40
1.1
  1
LED72
 50
346.071
 72
1
 11
187.1459
 21
210.3597
 31
0.0
100
AcDbText
 73
2
  0
LWPOLYLINE
  5
165
330
17
100
AcDbEntity
  8
LED
100
AcDbPolyline
 90
5
 70
0
 10
153.56146452333368
 20
215.41324883990976
 10
158.45605116009023
 20
214.39196452333368
 10
159.4773354766663
 20
219.28655116009023
 10
154.58274883990975
 20
220.3078354766663
 10
153.56146452333368
 20
215.41324883990976
  0
CIRCLE
  5
166
330
17
100
AcDbEntity
  8
LED
100
AcDbCircle
 10
158.59093647070637
 20
215.28320296111562
 30
0.0
 40
0.45
  0
TEXT
  5
167
330
17
100
AcDbEntity
  8
LED-REF
100
AcDbText
 10
156.5194
 20
217.3499
 30
0.0
 40
1.1
  1
LED73
 50
348.214
 72
1
 11
156.5194
 21
217.3499
 31
0.0
100
AcDbText
 73
2
  0
LWPOLYLINE
  5
168
330
17
100
AcDbEntity
  8
LED
100
AcDbPolyline
 90
5
 70
0
 10
122.76955179432291
 20
221.1442952013406
 10
127.6989047986594
 20
220.3067517943229
 10
128.5364482056771
 20
225.2361047986594
 10
123.60709520134061
 20
226.0736482056771
 10
122.76955179432291
 20
221.1442952013406
  0
CIRCLE
  5
169
330
17
100
AcDbEntity
  8
LED
100
AcDbCircle
 10
127.80036908187923
 20
221.20241076917364
 30
0.0
 40
0.45
  0
TEXT
  5
16A
330
17
100
AcDbEntity
  8
LED-REF
100
AcDbText
 10
125.653
 20
223.1902
 30
0.0
 40
1.1
  1
LED74
 50
350.35699999999997
 72
1
 11
125.653
 21
223.1902
 31
0.0
100
AcDbText
 73
2
  0
LWPOLYLINE
  5
16B
330
17
100
AcDbEntity
  8
LED
100
AcDbPolyline
 90
5
 70
0
 10
91.78477236601533
 20
225.7199033271156
 10
96.7419966728844
 20
225.06727236601535
 10
97.39462763398465
 20
230.0244966728844
 10
92.43740332711559
 20
230.67712763398464
 10
91.78477236601533
 20
225.7199033271156
  0
CIRCLE
  5
16C
330
17
100
AcDbEntity
  8
LED
100
AcDbCircle
 10
96.80989800281375
 20
225.96609905086277
 30
0.0
 40
0.45
  0
TEXT
  5
16D
330
17
100
AcDbEntity
  8
LED-REF
100
AcDbText
 10
94.5897
 20
227.8722
 30
0.0
 40
1.1
  1
LED75
 50
352.5
 72
1
 11
94.5897
 21
227.8722
 31
0.0
100
AcDbText
 73
2
  0
LWPOLYLINE
  5
16E
330
17
100
AcDbEntity
  8
LED
100
AcDbPolyline
 90
5
 70
0
 10
60.65071640565023
 20
229.1338220357293
 10
65.62887796427069
 20
228.66701640565023
 10
66.09568359434977
 20
233.6451779642707
 10
61.11752203572931
 20
234.11198359434977
 10
60.65071640565023
 20
229.1338220357293
  0
CIRCLE
  5
16F
330
17
100
AcDbEntity
  8
LED
100
AcDbCircle
 10
65.66312136209872
 20
229.56775354250271
 30
0.0
 40
0.45
  0
TEXT
  5
170
330
17
100
AcDbEntity
  8
LED-REF
100
AcDbText
 10
63.3732
 20
231.3895
 30
0.0
 40
1.1
  1
LED76
 50
354.643
 72
1
 11
63.3732
 21
231.3895
 31
0.0
100
AcDbText
 73
2
  0
LWPOLYLINE
  5
171
330
17
100
AcDbEntity
  8
LED
100
AcDbPolyline
 90
5
 70
0
 10
29.410668592410502
 20
231.3811959345426
 10
34.4028040654574
 20
231.1008685924105
 10
34.6831314075895
 20
236.0930040654574
 10
29.690995934542602
 20
236.3733314075895
 10
29.410668592410502
 20
231.3811959345426
  0
CIRCLE
  5
172
330
17
100
AcDbEntity
  8
LED
100
AcDbCircle
 10
34.403341632310706
 20
232.00225625098025
 30
0.0
 40
0.45
  0
TEXT
  5
173
330
17
100
AcDbEntity
  8
LED-REF
100
AcDbText
 10
32.0469
 20
233.7371
 30
0.0
 40
1.1
  1
LED77
 50
356.786
 72
1
 11
32.0469
 21
233.7371
 31
0.0
100
AcDbText
 73
2
  0
LWPOLYLINE
  5
174
330
17
100
AcDbEntity
  8
LED
100
AcDbPolyline
 90
5
 70
0
 10
-1.8914917212690867
 20
232.45886521750924
 10
3.1076347824907637
 20
232.3654082787309
 10
3.201091721269087
 20
237.36453478249075
 10
-1.7980347824907634
 20
237.45799172126908
 10
-1.8914917212690867
 20
232.45886521750924
  0
CIRCLE
  5
175
330
17
100
AcDbEntity
  8
LED
100
AcDbCircle
 10
3.0744657664332635
 20
233.26618561879548
 30
0.0
 40
0.45
  0
TEXT
  5
176
330
17
100
AcDbEntity
  8
LED-REF
100
AcDbText
 10
0.6548
 20
234.9117
 30
0.0
 40
1.1
  1
LED78
 50
358.929
 72
1
 11
0.6548
 21
234.9117
 31
0.0
100
AcDbText
 73
2
  0
LWPOLYLINE
  5
177
330
17
100
AcDbEntity
  8
LED
100
AcDbPolyline
 90
5
 70
0
 10
203.57007601300435
 20
46.87657333952014
 10
208.30472666047987
 20
45.26937601300433
 10
209.91192398699567
 20
50.00402666047986
 10
205.17727333952016
 20
51.61122398699567
 10
203.57007601300435
 20
46.87657333952014
  0
CIRCLE
  5
178
330
17
100
AcDbEntity
  8
LED
100
AcDbCircle
 10
208.54667567277795
 20
46.137685102815084
 30
0.0
 40
0.45
  0
TEXT
  5
179
330
17
100
AcDbEntity
  8
LED-REF
100
AcDbText
 10
206.741
 20
48.4403
 30
0.0
 40
1.1
  1
LED8
 50
341.25
 72
1
 11
206.741
 21
48.4403
 31
0.0
100
AcDbText
 73
2
  0
LWPOLYLINE
  5
17A
330
17
100
AcDbEntity
  8
LED
100
AcDbPolyline
 90
5
 70
0
 10
231.79388523108375
 20
36.720075422502255
 10
236.45392457749773
 20
34.907885231083746
 10
238.26611476891625
 20
39.56792457749774
 10
233.60607542250227
 20
41.38011476891625
 10
231.79388523108375
 20
36.720075422502255
  0
CIRCLE
  5
17B
330
17
100
AcDbEntity
  8
LED
100
AcDbCircle
 10
236.73351841848893
 20
35.76481421535245
 30
0.0
 40
0.45
  0
TEXT
  5
17C
330
17
100
AcDbEntity
  8
LED-REF
100
AcDbText
 10
235.03
 20
38.144
 30
0.0
 40
1.1
  1
LED9
 50
338.75
 72
1
 11
235.03
 21
38.144
 31
0.0
100
AcDbText
 73
2
  0
CIRCLE
  5
17D
330
17
100
AcDbEntity
  8
WAGO
100
AcDbCircle
 10
4.948
 20
105.141
 30
0.0
 40
0.6
  0
CIRCLE
  5
17E
330
17
100
AcDbEntity
  8
WAGO
100
AcDbCircle
 10
4.948
 20
105.141
 30
0.0
 40
0.95
  0
CIRCLE
  5
17F
330
17
100
AcDbEntity
  8
WAGO
100
AcDbCircle
 10
4.948
 20
101.641
 30
0.0
 40
0.6
  0
CIRCLE
  5
180
330
17
100
AcDbEntity
  8
WAGO
100
AcDbCircle
 10
4.948
 20
101.641
 30
0.0
 40
0.95
  0
CIRCLE
  5
181
330
17
100
AcDbEntity
  8
WAGO
100
AcDbCircle
 10
4.948
 20
98.141
 30
0.0
 40
0.6
  0
CIRCLE
  5
182
330
17
100
AcDbEntity
  8
WAGO
100
AcDbCircle
 10
4.948
 20
98.141
 30
0.0
 40
0.95
  0
CIRCLE
  5
183
330
17
100
AcDbEntity
  8
WAGO
100
AcDbCircle
 10
4.948
 20
94.641
 30
0.0
 40
0.6
  0
CIRCLE
  5
184
330
17
100
AcDbEntity
  8
WAGO
100
AcDbCircle
 10
4.948
 20
94.641
 30
0.0
 40
0.95
  0
CIRCLE
  5
185
330
17
100
AcDbEntity
  8
WAGO
100
AcDbCircle
 10
9.948
 20
105.141
 30
0.0
 40
0.6
  0
CIRCLE
  5
186
330
17
100
AcDbEntity
  8
WAGO
100
AcDbCircle
 10
9.948
 20
105.141
 30
0.0
 40
0.95
  0
CIRCLE
  5
187
330
17
100
AcDbEntity
  8
WAGO
100
AcDbCircle
 10
9.948
 20
101.641
 30
0.0
 40
0.6
  0
CIRCLE
  5
188
330
17
100
AcDbEntity
  8
WAGO
100
AcDbCircle
 10
9.948
 20
101.641
 30
0.0
 40
0.95
  0
CIRCLE
  5
189
330
17
100
AcDbEntity
  8
WAGO
100
AcDbCircle
 10
9.948
 20
98.141
 30
0.0
 40
0.6
  0
CIRCLE
  5
18A
330
17
100
AcDbEntity
  8
WAGO
100
AcDbCircle
 10
9.948
 20
98.141
 30
0.0
 40
0.95
  0
CIRCLE
  5
18B
330
17
100
AcDbEntity
  8
WAGO
100
AcDbCircle
 10
9.948
 20
94.641
 30
0.0
 40
0.6
  0
CIRCLE
  5
18C
330
17
100
AcDbEntity
  8
WAGO
100
AcDbCircle
 10
9.948
 20
94.641
 30
0.0
 40
0.95
  0
LWPOLYLINE
  5
18D
330
17
100
AcDbEntity
  8
WAGO
100
AcDbPolyline
 90
5
 70
0
 10
9.748
 20
92.14099999999999
 10
9.748000000000001
 20
107.64099999999999
 10
-2.951999999999999
 20
107.64099999999999
 10
-2.952000000000001
 20
92.14099999999999
 10
9.748
 20
92.14099999999999
  0
LINE
  5
18E
330
17
100
AcDbEntity
  8
WAGO
100
AcDbLine
 10
-2.952
 20
96.89099999999999
 30
0.0
 11
-2.952
 21
102.89099999999999
 31
0.0
  0
CIRCLE
  5
18F
330
17
100
AcDbEntity
  8
WAGO
100
AcDbCircle
 10
374.21
 20
119.28
 30
0.0
 40
0.6
  0
CIRCLE
  5
190
330
17
100
AcDbEntity
  8
WAGO
100
AcDbCircle
 10
374.21
 20
119.28
 30
0.0
 40
0.95
  0
CIRCLE
  5
191
330
17
100
AcDbEntity
  8
WAGO
100
AcDbCircle
 10
375.96
 20
122.311
 30
0.0
 40
0.6
  0
CIRCLE
  5
192
330
17
100
AcDbEntity
  8
WAGO
100
AcDbCircle
 10
375.96
 20
122.311
 30
0.0
 40
0.95
  0
CIRCLE
  5
193
330
17
100
AcDbEntity
  8
WAGO
100
AcDbCircle
 10
377.71
 20
125.342
 30
0.0
 40
0.6
  0
CIRCLE
  5
194
330
17
100
AcDbEntity
  8
WAGO
100
AcDbCircle
 10
377.71
 20
125.342
 30
0.0
 40
0.95
  0
CIRCLE
  5
195
330
17
100
AcDbEntity
  8
WAGO
100
AcDbCircle
 10
378.54
 20
116.78
 30
0.0
 40
0.6
  0
CIRCLE
  5
196
330
17
100
AcDbEntity
  8
WAGO
100
AcDbCircle
 10
378.54
 20
116.78
 30
0.0
 40
0.95
  0
CIRCLE
  5
197
330
17
100
AcDbEntity
  8
WAGO
100
AcDbCircle
 10
379.46
 20
128.373
 30
0.0
 40
0.6
  0
CIRCLE
  5
198
330
17
100
AcDbEntity
  8
WAGO
100
AcDbCircle
 10
379.46
 20
128.373
 30
0.0
 40
0.95
  0
CIRCLE
  5
199
330
17
100
AcDbEntity
  8
WAGO
100
AcDbCircle
 10
380.29
 20
119.811
 30
0.0
 40
0.6
  0
CIRCLE
  5
19A
330
17
100
AcDbEntity
  8
WAGO
100
AcDbCircle
 10
380.29
 20
119.811
 30
0.0
 40
0.95
  0
CIRCLE
  5
19B
330
17
100
AcDbEntity
  8
WAGO
100
AcDbCircle
 10
382.04
 20
122.842
 30
0.0
 40
0.6
  0
CIRCLE
  5
19C
330
17
100
AcDbEntity
  8
WAGO
100
AcDbCircle
 10
382.04
 20
122.842
 30
0.0
 40
0.95
  0
CIRCLE
  5
19D
330
17
100
AcDbEntity
  8
WAGO
100
AcDbCircle
 10
383.79
 20
125.873
 30
0.0
 40
0.6
  0
CIRCLE
  5
19E
330
17
100
AcDbEntity
  8
WAGO
100
AcDbCircle
 10
383.79
 20
125.873
 30
0.0
 40
0.95
  0
LWPOLYLINE
  5
19F
330
17
100
AcDbEntity
  8
WAGO
100
AcDbPolyline
 90
5
 70
0
 10
373.13307092614053
 20
117.01487764296223
 10
380.8832414317673
 20
130.43817295870764
 10
391.88168340015227
 20
124.08803325409734
 10
384.1315128945255
 20
110.66473793835192
 10
373.13307092614053
 20
117.01487764296223
  0
LINE
  5
1A0
330
17
100
AcDbEntity
  8
WAGO
100
AcDbLine
 10
386.50656514624984
 20
114.77832843833842
 30
0.0
 11
389.5066311484279
 21
119.97444275411085
 31
0.0
  0
ENDSEC
  0
SECTION
  2
OBJECTS
  0
DICTIONARY
  5
A
330
0
100
AcDbDictionary
281
1
  3
ACAD_COLOR
350
B
  3
ACAD_GROUP
350
C
  3
ACAD_LAYOUT
350
D
  3
ACAD_MATERIAL
350
E
  3
ACAD_MLEADERSTYLE
350
F
  3
ACAD_MLINESTYLE
350
10
  3
ACAD_PLOTSETTINGS
350
11
  3
ACAD_PLOTSTYLENAME
350
12
  3
ACAD_SCALELIST
350
14
  3
ACAD_TABLESTYLE
350
15
  3
ACAD_VISUALSTYLE
350
16
  3
EZDXF_META
350
2D
  0
DICTIONARY
  5
B
330
A
100
AcDbDictionary
281
1
  0
DICTIONARY
  5
C
330
A
100
AcDbDictionary
281
1
  0
DICTIONARY
  5
D
330
A
100
AcDbDictionary
281
1
  3
Model
350
1A
  3
Layout1
350
1E
  0
DICTIONARY
  5
E
330
A
100
AcDbDictionary
281
1
  3
ByBlock
350
1F
  3
ByLayer
350
20
  3
Global
350
21
  0
DICTIONARY
  5
F
330
A
100
AcDbDictionary
281
1
  3
Standard
350
2C
  0
DICTIONARY
  5
10
330
A
100
AcDbDictionary
281
1
  3
Standard
350
22
  0
DICTIONARY
  5
11
330
A
100
AcDbDictionary
281
1
  0
ACDBDICTIONARYWDFLT
  5
12
330
A
100
AcDbDictionary
281
1
  3
Normal
350
13
100
AcDbDictionaryWithDefault
340
13
  0
ACDBPLACEHOLDER
  5
13
330
12
  0
DICTIONARY
  5
14
330
A
100
AcDbDictionary
281
1
  0
DICTIONARY
  5
15
330
A
100
AcDbDictionary
281
1
  0
DICTIONARY
  5
16
330
A
100
AcDbDictionary
281
1
  0
LAYOUT
  5
1A
330
D
100
AcDbPlotSettings
  1

  4
A3
  6

 40
7.5
 41
20.0
 42
7.5
 43
20.0
 44
420.0
 45
297.0
 46
0.0
 47
0.0
 48
0.0
 49
0.0
140
0.0
141
0.0
142
1.0
143
1.0
 70
1024
 72
1
 73
0
 74
5
  7

 75
16
 76
0
 77
2
 78
300
147
1.0
148
0.0
149
0.0
100
AcDbLayout
  1
Model
 70
1
 71
0
 10
0.0
 20
0.0
 11
420.0
 21
297.0
 12
0.0
 22
0.0
 32
0.0
 14
1e+20
 24
1e+20
 34
1e+20
 15
-1e+20
 25
-1e+20
 35
-1e+20
146
0.0
 13
0.0
 23
0.0
 33
0.0
 16
1.0
 26
0.0
 36
0.0
 17
0.0
 27
1.0
 37
0.0
 76
1
330
17
  0
LAYOUT
  5
1E
330
D
100
AcDbPlotSettings
  1

  4
A3
  6

 40
7.5
 41
20.0
 42
7.5
 43
20.0
 44
420.0
 45
297.0
 46
0.0
 47
0.0
 48
0.0
 49
0.0
140
0.0
141
0.0
142
1.0
143
1.0
 70
0
 72
1
 73
0
 74
5
  7

 75
16
 76
0
 77
2
 78
300
147
1.0
148
0.0
149
0.0
100
AcDbLayout
  1
Layout1
 70
1
 71
1
 10
0.0
 20
0.0
 11
420.0
 21
297.0
 12
0.0
 22
0.0
 32
0.0
 14
1e+20
 24
1e+20
 34
1e+20
 15
-1e+20
 25
-1e+20
 35
-1e+20
146
0.0
 13
0.0
 23
0.0
 33
0.0
 16
1.0
 26
0.0
 36
0.0
 17
0.0
 27
1.0
 37
0.0
 76
1
330
1B
  0
MATERIAL
  5
1F
102
{ACAD_REACTORS
330
E
102
}
330
E
100
AcDbMaterial
  1
ByBlock
  2

 70
0
 40
1.0
 71
1
 41
1.0
 91
-1023410177
 42
1.0
 72
1
  3

 73
1
 74
1
 75
1
 44
0.5
 73
0
 45
1.0
 46
1.0
 77
1
  4

 78
1
 79
1
170
1
 48
1.0
171
1
  6

172
1
173
1
174
1
140
1.0
141
1.0
175
1
  7

176
1
177
1
178
1
143
1.0
179
1
  8

270
1
271
1
272
1
145
1.0
146
1.0
273
1
  9

274
1
275
1
276
1
 42
1.0
 72
1
  3

 73
1
 74
1
 75
1
 94
63
  0
MATERIAL
  5
20
102
{ACAD_REACTORS
330
E
102
}
330
E
100
AcDbMaterial
  1
ByLayer
  2

 70
0
 40
1.0
 71
1
 41
1.0
 91
-1023410177
 42
1.0
 72
1
  3

 73
1
 74
1
 75
1
 44
0.5
 73
0
 45
1.0
 46
1.0
 77
1
  4

 78
1
 79
1
170
1
 48
1.0
171
1
  6

172
1
173
1
174
1
140
1.0
141
1.0
175
1
  7

176
1
177
1
178
1
143
1.0
179
1
  8

270
1
271
1
272
1
145
1.0
146
1.0
273
1
  9

274
1
275
1
276
1
 42
1.0
 72
1
  3

 73
1
 74
1
 75
1
 94
63
  0
MATERIAL
  5
21
102
{ACAD_REACTORS
330
E
102
}
330
E
100
AcDbMaterial
  1
Global
  2

 70
0
 40
1.0
 71
1
 41
1.0
 91
-1023410177
 42
1.0
 72
1
  3

 73
1
 74
1
 75
1
 44
0.5
 73
0
 45
1.0
 46
1.0
 77
1
  4

 78
1
 79
1
170
1
 48
1.0
171
1
  6

172
1
173
1
174
1
140
1.0
141
1.0
175
1
  7

176
1
177
1
178
1
143
1.0
179
1
  8

270
1
271
1
272
1
145
1.0
146
1.0
273
1
  9

274
1
275
1
276
1
 42
1.0
 72
1
  3

 73
1
 74
1
 75
1
 94
63
  0
MLINESTYLE
  5
22
102
{ACAD_REACTORS
330
10
102
}
330
10
100
AcDbMlineStyle
  2
Standard
 70
0
  3

 62
256
 51
90.0
 52
90.0
 71
2
 49
0.5
 62
256
  6
BYLAYER
 49
-0.5
 62
256
  6
BYLAYER
  0
MLEADERSTYLE
  5
2C
102
{ACAD_REACTORS
330
F
102
}
330
F
100
AcDbMLeaderStyle
179
2
170
2
171
1
172
0
 90
2
 40
0.0
 41
0.0
173
1
 91
-1056964608
 92
-2
290
1
 42
2.0
291
1
 43
8.0
  3
Standard
 44
4.0
300

342
29
174
1
175
1
176
0
178
1
 93
-1056964608
 45
4.0
292
0
297
0
 46
4.0
 94
-1056964608
 47
1.0
 49
1.0
140
1.0
294
1
141
0.0
177
0
142
1.0
295
0
296
0
143
3.75
271
0
272
9
273
9
  0
DICTIONARY
  5
2D
330
A
100
AcDbDictionary
280
1
281
1
  3
CREATED_BY_EZDXF
350
2E
  3
WRITTEN_BY_EZDXF
350
1A3
  0
DICTIONARYVAR
  5
2E
330
2D
100
DictionaryVariables
280
0
  1
1.4.4 @ 2026-08-30T16:44:22.701074+00:00
  0
DICTIONARYVAR
  5
1A3
330
2D
100
DictionaryVariables
280
0
  1
1.4.4 @ 2026-08-30T16:44:22.719018+00:00
  0
ENDSEC
  0
EOF
