  0
SECTION
  2
HEADER
  9
$ACADVER
  1
AC1024
  9
$ACADMAINTVER
 70
6
  9
$DWGCODEPAGE
  3
ANSI_1252
  9
$LASTSAVEDBY
  1
ezdxf
  9
$INSBASE
 10
0.0
 20
0.0
 30
0.0
  9
$EXTMIN
 10
1e+20
 20
1e+20
 30
1e+20
  9
$EXTMAX
 10
-1e+20
 20
-1e+20
 30
-1e+20
  9
$LIMMIN
 10
0.0
 20
0.0
  9
$LIMMAX
 10
420.0
 20
297.0
  9
$ORTHOMODE
 70
0
  9
$REGENMODE
 70
1
  9
$FILLMODE
 70
1
  9
$QTEXTMODE
 70
0
  9
$MIRRTEXT
 70
1
  9
$LTSCALE
 40
1.0
  9
$ATTMODE
 70
1
  9
$TEXTSIZE
 40
2.5
  9
$TRACEWID
 40
1.0
  9
$TEXTSTYLE
  7
Standard
  9
$CLAYER
  8
0
  9
$CELTYPE
  6
ByLayer
  9
$CECOLOR
 62
256
  9
$CELTSCALE
 40
1.0
  9
$DISPSILH
 70
0
  9
$DIMSCALE
 40
1.0
  9
$DIMASZ
 40
2.5
  9
$DIMEXO
 40
0.625
  9
$DIMDLI
 40
3.75
  9
$DIMRND
 40
0.0
  9
$DIMDLE
 40
0.0
  9
$DIMEXE
 40
1.25
  9
$DIMTP
 40
0.0
  9
$DIMTM
 40
0.0
  9
$DIMTXT
 40
2.5
  9
$DIMCEN
 40
2.5
  9
$DIMTSZ
 40
0.0
  9
$DIMTOL
 70
0
  9
$DIMLIM
 70
0
  9
$DIMTIH
 70
0
  9
$DIMTOH
 70
0
  9
$DIMSE1
 70
0
  9
$DIMSE2
 70
0
  9
$DIMTAD
 70
1
  9
$DIMZIN
 70
8
  9
$DIMBLK
  1

  9
$DIMASO
 70
1
  9
$DIMSHO
 70
1
  9
$DIMPOST
  1

  9
$DIMAPOST
  1

  9
$DIMALT
 70
0
  9
$DIMALTD
 70
3
  9
$DIMALTF
 40
0.03937007874
  9
$DIMLFAC
 40
1.0
  9
$DIMTOFL
 70
1
  9
$DIMTVP
 40
0.0
  9
$DIMTIX
 70
0
  9
$DIMSOXD
 70
0
  9
$DIMSAH
 70
0
  9
$DIMBLK1
  1

  9
$DIMBLK2
  1

  9
$DIMSTYLE
  2
ISO-25
  9
$DIMCLRD
 70
0
  9
$DIMCLRE
 70
0
  9
$DIMCLRT
 70
0
  9
$DIMTFAC
 40
1.0
  9
$DIMGAP
 40
0.625
  9
$DIMJUST
 70
0
  9
$DIMSD1
 70
0
  9
$DIMSD2
 70
0
  9
$DIMTOLJ
 70
0
  9
$DIMTZIN
 70
8
  9
$DIMALTZ
 70
0
  9
$DIMALTTZ
 70
0
  9
$DIMUPT
 70
0
  9
$DIMDEC
 70
2
  9
$DIMTDEC
 70
2
  9
$DIMALTU
 70
2
  9
$DIMALTTD
 70
3
  9
$DIMTXSTY
  7
Standard
  9
$DIMAUNIT
 70
0
  9
$DIMADEC
 70
0
  9
$DIMALTRND
 40
0.0
  9
$DIMAZIN
 70
0
  9
$DIMDSEP
 70
44
  9
$DIMATFIT
 70
3
  9
$DIMFRAC
 70
0
  9
$DIMLDRBLK
  1

  9
$DIMLUNIT
 70
2
  9
$DIMLWD
 70
-2
  9
$DIMLWE
 70
-2
  9
$DIMTMOVE
 70
0
  9
$DIMFXL
 40
1.0
  9
$DIMFXLON
 70
0
  9
$DIMJOGANG
 40
0.785398163397
  9
$DIMTFILL
 70
0
  9
$DIMTFILLCLR
 70
0
  9
$DIMARCSYM
 70
0
  9
$DIMLTYPE
  6

  9
$DIMLTEX1
  6

  9
$DIMLTEX2
  6

  9
$DIMTXTDIRECTION
 70
0
  9
$LUNITS
 70
2
  9
$LUPREC
 70
4
  9
$SKETCHINC
 40
1.0
  9
$FILLETRAD
 40
10.0
  9
$AUNITS
 70
0
  9
$AUPREC
 70
2
  9
$MENU
  1
.
  9
$ELEVATION
 40
0.0
  9
$PELEVATION
 40
0.0
  9
$THICKNESS
 40
0.0
  9
$LIMCHECK
 70
0
  9
$CHAMFERA
 40
0.0
  9
$CHAMFERB
 40
0.0
  9
$CHAMFERC
 40
0.0
  9
$CHAMFERD
 40
0.0
  9
$SKPOLY
 70
0
  9
$TDCREATE
 40
2461287.709803241
  9
$TDUCREATE
 40
2458532.153996898
  9
$TDUPDATE
 40
2461287.709803241
  9
$TDUUPDATE
 40
2458532.1544311
  9
$TDINDWG
 40
0.0
  9
$TDUSRTIMER
 40
0.0
  9
$USRTIMER
 70
1
  9
$ANGBASE
 50
0.0
  9
$ANGDIR
 70
0
  9
$PDMODE
 70
0
  9
$PDSIZE
 40
0.0
  9
$PLINEWID
 40
0.0
  9
$SPLFRAME
 70
0
  9
$SPLINETYPE
 70
6
  9
$SPLINESEGS
 70
8
  9
$HANDSEED
  5
323
  9
$SURFTAB1
 70
6
  9
$SURFTAB2
 70
6
  9
$SURFTYPE
 70
6
  9
$SURFU
 70
6
  9
$SURFV
 70
6
  9
$UCSBASE
  2

  9
$UCSNAME
  2

  9
$UCSORG
 10
0.0
 20
0.0
 30
0.0
  9
$UCSXDIR
 10
1.0
 20
0.0
 30
0.0
  9
$UCSYDIR
 10
0.0
 20
1.0
 30
0.0
  9
$UCSORTHOREF
  2

  9
$UCSORTHOVIEW
 70
0
  9
$UCSORGTOP
 10
0.0
 20
0.0
 30
0.0
  9
$UCSORGBOTTOM
 10
0.0
 20
0.0
 30
0.0
  9
$UCSORGLEFT
 10
0.0
 20
0.0
 30
0.0
  9
$UCSORGRIGHT
 10
0.0
 20
0.0
 30
0.0
  9
$UCSORGFRONT
 10
0.0
 20
0.0
 30
0.0
  9
$UCSORGBACK
 10
0.0
 20
0.0
 30
0.0
  9
$PUCSBASE
  2

  9
$PUCSNAME
  2

  9
$PUCSORG
 10
0.0
 20
0.0
 30
0.0
  9
$PUCSXDIR
 10
1.0
 20
0.0
 30
0.0
  9
$PUCSYDIR
 10
0.0
 20
1.0
 30
0.0
  9
$PUCSORTHOREF
  2

  9
$PUCSORTHOVIEW
 70
0
  9
$PUCSORGTOP
 10
0.0
 20
0.0
 30
0.0
  9
$PUCSORGBOTTOM
 10
0.0
 20
0.0
 30
0.0
  9
$PUCSORGLEFT
 10
0.0
 20
0.0
 30
0.0
  9
$PUCSORGRIGHT
 10
0.0
 20
0.0
 30
0.0
  9
$PUCSORGFRONT
 10
0.0
 20
0.0
 30
0.0
  9
$PUCSORGBACK
 10
0.0
 20
0.0
 30
0.0
  9
$USERI1
 70
0
  9
$USERI2
 70
0
  9
$USERI3
 70
0
  9
$USERI4
 70
0
  9
$USERI5
 70
0
  9
$USERR1
 40
0.0
  9
$USERR2
 40
0.0
  9
$USERR3
 40
0.0
  9
$USERR4
 40
0.0
  9
$USERR5
 40
0.0
  9
$WORLDVIEW
 70
1
  9
$SHADEDGE
 70
3
  9
$SHADEDIF
 70
70
  9
$TILEMODE
 70
1
  9
$MAXACTVP
 70
64
  9
$PINSBASE
 10
0.0
 20
0.0
 30
0.0
  9
$PLIMCHECK
 70
0
  9
$PEXTMIN
 10
1e+20
 20
1e+20
 30
1e+20
  9
$PEXTMAX
 10
-1e+20
 20
-1e+20
 30
-1e+20
  9
$PLIMMIN
 10
0.0
 20
0.0
  9
$PLIMMAX
 10
420.0
 20
297.0
  9
$UNITMODE
 70
0
  9
$VISRETAIN
 70
1
  9
$PLINEGEN
 70
0
  9
$PSLTSCALE
 70
1
  9
$TREEDEPTH
 70
3020
  9
$CMLSTYLE
  2
Standard
  9
$CMLJUST
 70
0
  9
$CMLSCALE
 40
20.0
  9
$PROXYGRAPHICS
 70
1
  9
$MEASUREMENT
 70
1
  9
$CELWEIGHT
370
-1
  9
$ENDCAPS
280
0
  9
$JOINSTYLE
280
0
  9
$LWDISPLAY
290
0
  9
$INSUNITS
 70
4
  9
$HYPERLINKBASE
  1

  9
$STYLESHEET
  1

  9
$XEDIT
290
1
  9
$CEPSNTYPE
380
0
  9
$PSTYLEMODE
290
1
  9
$FINGERPRINTGUID
  2
{9C095658-D578-4B87-B02E-6C87CEAC318A}
  9
$VERSIONGUID
  2
{038F8119-CE17-45ED-88D1-5F132DE72CEE}
  9
$EXTNAMES
290
1
  9
$PSVPSCALE
 40
0.0
  9
$OLESTARTUP
290
0
  9
$SORTENTS
280
127
  9
$INDEXCTL
280
0
  9
$HIDETEXT
280
1
  9
$XCLIPFRAME
280
1
  9
$HALOGAP
280
0
  9
$OBSCOLOR
 70
257
  9
$OBSLTYPE
280
0
  9
$INTERSECTIONDISPLAY
280
0
  9
$INTERSECTIONCOLOR
 70
257
  9
$DIMASSOC
280
2
  9
$PROJECTNAME
  1

  9
$CAMERADISPLAY
290
0
  9
$LENSLENGTH
 40
50.0
  9
$CAMERAHEIGHT
 40
0.0
  9
$STEPSPERSEC
 40
24.0
  9
$STEPSIZE
 40
100.0
  9
$3DDWFPREC
 40
2.0
  9
$PSOLWIDTH
 40
0.005
  9
$PSOLHEIGHT
 40
0.08
  9
$LOFTANG1
 40
1.570796326795
  9
$LOFTANG2
 40
1.570796326795
  9
$LOFTMAG1
 40
0.0
  9
$LOFTMAG2
 40
0.0
  9
$LOFTPARAM
 70
7
  9
$LOFTNORMALS
280
1
  9
$LATITUDE
 40
37.795
  9
$LONGITUDE
 40
-122.394
  9
$NORTHDIRECTION
 40
0.0
  9
$TIMEZONE
 70
-8000
  9
$LIGHTGLYPHDISPLAY
280
1
  9
$TILEMODELIGHTSYNCH
280
1
  9
$CMATERIAL
347
20
  9
$SOLIDHIST
280
0
  9
$SHOWHIST
280
1
  9
$DWFFRAME
280
2
  9
$DGNFRAME
280
2
  9
$REALWORLDSCALE
290
1
  9
$INTERFERECOLOR
 62
256
  9
$CSHADOW
280
0
  9
$SHADOWPLANELOCATION
 40
0.0
  0
ENDSEC
  0
SECTION
  2
CLASSES
  0
CLASS
  1
ACDBDICTIONARYWDFLT
  2
AcDbDictionaryWithDefault
  3
ObjectDBX Classes
 90
0
 91
0
280
0
281
0
  0
CLASS
  1
SUN
  2
AcDbSun
  3
SCENEOE
 90
1153
 91
0
280
0
281
0
  0
CLASS
  1
VISUALSTYLE
  2
AcDbVisualStyle
  3
ObjectDBX Classes
 90
4095
 91
0
280
0
281
0
  0
CLASS
  1
MATERIAL
  2
AcDbMaterial
  3
ObjectDBX Classes
 90
1153
 91
0
280
0
281
0
  0
CLASS
  1
SCALE
  2
AcDbScale
  3
ObjectDBX Classes
 90
1153
 91
0
280
0
281
0
  0
CLASS
  1
TABLESTYLE
  2
AcDbTableStyle
  3
ObjectDBX Classes
 90
4095
 91
0
280
0
281
0
  0
CLASS
  1
MLEADERSTYLE
  2
AcDbMLeaderStyle
  3
ACDB_MLEADERSTYLE_CLASS
 90
4095
 91
0
280
0
281
0
  0
CLASS
  1
DICTIONARYVAR
  2
AcDbDictionaryVar
  3
ObjectDBX Classes
 90
0
 91
0
280
0
281
0
  0
CLASS
  1
CELLSTYLEMAP
  2
AcDbCellStyleMap
  3
ObjectDBX Classes
 90
1152
 91
0
280
0
281
0
  0
CLASS
  1
MENTALRAYRENDERSETTINGS
  2
AcDbMentalRayRenderSettings
  3
SCENEOE
 90
1024
 91
0
280
0
281
0
  0
CLASS
  1
ACDBDETAILVIEWSTYLE
  2
AcDbDetailViewStyle
  3
ObjectDBX Classes
 90
1025
 91
0
280
0
281
0
  0
CLASS
  1
ACDBSECTIONVIEWSTYLE
  2
AcDbSectionViewStyle
  3
ObjectDBX Classes
 90
1025
 91
0
280
0
281
0
  0
CLASS
  1
RASTERVARIABLES
  2
AcDbRasterVariables
  3
ISM
 90
0
 91
0
280
0
281
0
  0
CLASS
  1
LAYOUT
  2
AcDbLayout
  3
ObjectDBX Classes
 90
0
 91
0
280
0
281
0
  0
CLASS
  1
ACDBPLACEHOLDER
  2
AcDbPlaceHolder
  3
ObjectDBX Classes
 90
0
 91
0
280
0
281
0
  0
ENDSEC
  0
SECTION
  2
TABLES
  0
TABLE
  2
VPORT
  5
8
330
0
100
AcDbSymbolTable
 70
1
  0
VPORT
  5
23
330
8
100
AcDbSymbolTableRecord
100
AcDbViewportTableRecord
  2
*Active
 70
0
 10
0.0
 20
0.0
 11
1.0
 21
1.0
 12
0.0
 22
0.0
 13
0.0
 23
0.0
 14
0.5
 24
0.5
 15
0.5
 25
0.5
 16
0.0
 26
0.0
 36
1.0
 17
0.0
 27
0.0
 37
0.0
 40
1000.0
 41
1.34
 42
50.0
 43
0.0
 44
0.0
 50
0.0
 51
0.0
 71
0
 72
1000
 73
1
 74
3
 75
0
 76
0
 77
0
 78
0
281
0
 65
0
146
0.0
  0
ENDTAB
  0
TABLE
  2
LTYPE
  5
2
330
0
100
AcDbSymbolTable
 70
3
  0
LTYPE
  5
24
330
2
100
AcDbSymbolTableRecord
100
AcDbLinetypeTableRecord
  2
ByBlock
 70
0
  3

 72
65
 73
0
 40
0.0
  0
LTYPE
  5
25
330
2
100
AcDbSymbolTableRecord
100
AcDbLinetypeTableRecord
  2
ByLayer
 70
0
  3

 72
65
 73
0
 40
0.0
  0
LTYPE
  5
26
330
2
100
AcDbSymbolTableRecord
100
AcDbLinetypeTableRecord
  2
Continuous
 70
0
  3

 72
65
 73
0
 40
0.0
  0
ENDTAB
  0
TABLE
  2
LAYER
  5
1
330
0
100
AcDbSymbolTable
 70
8
  0
LAYER
  5
27
330
1
100
AcDbSymbolTableRecord
100
AcDbLayerTableRecord
  2
0
 70
0
 62
7
  6
Continuous
370
-3
390
13
347
21
  0
LAYER
  5
28
330
1
100
AcDbSymbolTableRecord
100
AcDbLayerTableRecord
  2
Defpoints
 70
0
 62
7
  6
Continuous
290
0
370
-3
390
13
347
21
  0
LAYER
  5
2F
330
1
100
AcDbSymbolTableRecord
100
AcDbLayerTableRecord
  2
OUTLINE
 70
0
 62
2
  6
Continuous
370
-3
390
13
347
21
  0
LAYER
  5
30
330
1
100
AcDbSymbolTableRecord
100
AcDbLayerTableRecord
  2
LED
 70
0
 62
7
  6
Continuous
370
-3
390
13
347
21
  0
LAYER
  5
31
330
1
100
AcDbSymbolTableRecord
100
AcDbLayerTableRecord
  2
LED-REF
 70
0
 62
8
  6
Continuous
370
-3
390
13
347
21
  0
LAYER
  5
32
330
1
100
AcDbSymbolTableRecord
100
AcDbLayerTableRecord
  2
CAP
 70
0
 62
30
  6
Continuous
370
-3
390
13
347
21
  0
LAYER
  5
33
330
1
100
AcDbSymbolTableRecord
100
AcDbLayerTableRecord
  2
WAGO
 70
0
 62
3
  6
Continuous
370
-3
390
13
347
21
  0
LAYER
  5
34
330
1
100
AcDbSymbolTableRecord
100
AcDbLayerTableRecord
  2
MOUNT
 70
0
 62
1
  6
Continuous
370
-3
390
13
347
21
  0
ENDTAB
  0
TABLE
  2
STYLE
  5
5
330
0
100
AcDbSymbolTable
 70
1
  0
STYLE
  5
29
330
5
100
AcDbSymbolTableRecord
100
AcDbTextStyleTableRecord
  2
Standard
 70
0
 40
0.0
 41
1.0
 50
0.0
 71
0
 42
2.5
  3
txt
  4

  0
ENDTAB
  0
TABLE
  2
VIEW
  5
7
330
0
100
AcDbSymbolTable
 70
0
  0
ENDTAB
  0
TABLE
  2
UCS
  5
6
330
0
100
AcDbSymbolTable
 70
0
  0
ENDTAB
  0
TABLE
  2
APPID
  5
3
330
0
100
AcDbSymbolTable
 70
3
  0
APPID
  5
2A
330
3
100
AcDbSymbolTableRecord
100
AcDbRegAppTableRecord
  2
ACAD
 70
0
  0
APPID
  5
320
330
3
100
AcDbSymbolTableRecord
100
AcDbRegAppTableRecord
  2
HATCHBACKGROUNDCOLOR
 70
0
  0
APPID
  5
321
330
3
100
AcDbSymbolTableRecord
100
AcDbRegAppTableRecord
  2
EZDXF
 70
0
  0
ENDTAB
  0
TABLE
  2
DIMSTYLE
  5
4
330
0
100
AcDbSymbolTable
 70
1
100
AcDbDimStyleTable
  0
DIMSTYLE
105
2B
330
4
100
AcDbSymbolTableRecord
100
AcDbDimStyleTableRecord
  2
Standard
 70
0
 40
1.0
 41
2.5
 42
0.625
 43
3.75
 44
1.25
 45
0.0
 46
0.0
 47
0.0
 48
0.0
 49
2.5
140
2.5
141
2.5
142
0.0
143
0.03937007874
144
1.0
145
0.0
146
1.0
147
0.625
148
0.0
 69
0
 70
0
 71
0
 72
0
 73
0
 74
0
 75
0
 76
0
 77
1
 78
8
 79
3
170
0
171
3
172
1
173
0
174
0
175
0
176
0
177
0
178
0
179
2
271
2
272
2
273
2
274
3
275
0
276
0
277
2
278
44
279
0
280
0
281
0
282
0
283
0
284
8
285
0
286
0
288
0
289
3
290
0
371
-2
372
-2
  0
ENDTAB
  0
TABLE
  2
BLOCK_RECORD
  5
9
330
0
100
AcDbSymbolTable
 70
2
  0
BLOCK_RECORD
  5
17
330
9
100
AcDbSymbolTableRecord
100
AcDbBlockTableRecord
  2
*Model_Space
340
1A
 70
0
280
1
281
0
  0
BLOCK_RECORD
  5
1B
330
9
100
AcDbSymbolTableRecord
100
AcDbBlockTableRecord
  2
*Paper_Space
340
1E
 70
0
280
1
281
0
  0
ENDTAB
  0
ENDSEC
  0
SECTION
  2
BLOCKS
  0
BLOCK
  5
18
330
17
100
AcDbEntity
  8
0
100
AcDbBlockBegin
  2
*Model_Space
 70
0
 10
0.0
 20
0.0
 30
0.0
  3
*Model_Space
  1

  0
ENDBLK
  5
19
330
17
100
AcDbEntity
  8
0
100
AcDbBlockEnd
  0
BLOCK
  5
1C
330
1B
100
AcDbEntity
  8
0
100
AcDbBlockBegin
  2
*Paper_Space
 70
0
 10
0.0
 20
0.0
 30
0.0
  3
*Paper_Space
  1

  0
ENDBLK
  5
1D
330
1B
100
AcDbEntity
  8
0
100
AcDbBlockEnd
  0
ENDSEC
  0
SECTION
  2
ENTITIES
  0
CIRCLE
  5
35
330
17
100
AcDbEntity
  8
OUTLINE
100
AcDbCircle
 10
209.8599
 20
210.0
 30
0.0
 40
224.0
  0
CIRCLE
  5
36
330
17
100
AcDbEntity
  8
MOUNT
100
AcDbCircle
 10
21.728
 20
105.9261
 30
0.0
 40
2.11
  0
CIRCLE
  5
37
330
17
100
AcDbEntity
  8
MOUNT
100
AcDbCircle
 10
21.728
 20
105.9261
 30
0.0
 40
3.1
  0
CIRCLE
  5
38
330
17
100
AcDbEntity
  8
MOUNT
100
AcDbCircle
 10
21.728
 20
105.9261
 30
0.0
 40
5.5
  0
CIRCLE
  5
39
330
17
100
AcDbEntity
  8
MOUNT
100
AcDbCircle
 10
23.6644
 20
317.5
 30
0.0
 40
2.11
  0
CIRCLE
  5
3A
330
17
100
AcDbEntity
  8
MOUNT
100
AcDbCircle
 10
23.6644
 20
317.5
 30
0.0
 40
3.1
  0
CIRCLE
  5
3B
330
17
100
AcDbEntity
  8
MOUNT
100
AcDbCircle
 10
23.6644
 20
317.5
 30
0.0
 40
5.5
  0
CIRCLE
  5
3C
330
17
100
AcDbEntity
  8
MOUNT
100
AcDbCircle
 10
209.8599
 20
425.0
 30
0.0
 40
2.11
  0
CIRCLE
  5
3D
330
17
100
AcDbEntity
  8
MOUNT
100
AcDbCircle
 10
209.8599
 20
425.0
 30
0.0
 40
3.1
  0
CIRCLE
  5
3E
330
17
100
AcDbEntity
  8
MOUNT
100
AcDbCircle
 10
209.8599
 20
425.0
 30
0.0
 40
5.5
  0
CIRCLE
  5
3F
330
17
100
AcDbEntity
  8
MOUNT
100
AcDbCircle
 10
219.6894
 20
-4.7752
 30
0.0
 40
2.11
  0
CIRCLE
  5
40
330
17
100
AcDbEntity
  8
MOUNT
100
AcDbCircle
 10
219.6894
 20
-4.7752
 30
0.0
 40
3.1
  0
CIRCLE
  5
41
330
17
100
AcDbEntity
  8
MOUNT
100
AcDbCircle
 10
219.6894
 20
-4.7752
 30
0.0
 40
5.5
  0
CIRCLE
  5
42
330
17
100
AcDbEntity
  8
MOUNT
100
AcDbCircle
 10
396.0553
 20
317.5
 30
0.0
 40
2.11
  0
CIRCLE
  5
43
330
17
100
AcDbEntity
  8
MOUNT
100
AcDbCircle
 10
396.0553
 20
317.5
 30
0.0
 40
3.1
  0
CIRCLE
  5
44
330
17
100
AcDbEntity
  8
MOUNT
100
AcDbCircle
 10
396.0553
 20
317.5
 30
0.0
 40
5.5
  0
CIRCLE
  5
45
330
17
100
AcDbEntity
  8
MOUNT
100
AcDbCircle
 10
398.936
 20
107.6515
 30
0.0
 40
2.11
  0
CIRCLE
  5
46
330
17
100
AcDbEntity
  8
MOUNT
100
AcDbCircle
 10
398.936
 20
107.6515
 30
0.0
 40
3.1
  0
CIRCLE
  5
47
330
17
100
AcDbEntity
  8
MOUNT
100
AcDbCircle
 10
398.936
 20
107.6515
 30
0.0
 40
5.5
  0
LWPOLYLINE
  5
48
330
17
100
AcDbEntity
  8
CAP
100
AcDbPolyline
 90
5
 70
0
 10
207.8099
 20
213.6
 10
207.8099
 20
215.20000000000002
 10
207.0099
 20
215.20000000000002
 10
207.0099
 20
213.6
 10
207.8099
 20
213.6
  0
LWPOLYLINE
  5
49
330
17
100
AcDbEntity
  8
CAP
100
AcDbPolyline
 90
5
 70
0
 10
270.76218695700976
 20
228.44097443340237
 10
272.30766827907223
 20
228.8550849055664
 10
272.10061304299023
 20
229.62782556659764
 10
270.55513172092776
 20
229.2137150944336
 10
270.76218695700976
 20
228.44097443340237
  0
LWPOLYLINE
  5
4A
330
17
100
AcDbEntity
  8
CAP
100
AcDbPolyline
 90
5
 70
0
 10
372.87824385677595
 20
294.487964392751
 10
374.3069221717337
 20
295.2082964497702
 10
373.9467561432241
 20
295.92263560724905
 10
372.51807782826637
 20
295.20230355022983
 10
372.87824385677595
 20
294.487964392751
  0
LWPOLYLINE
  5
4B
330
17
100
AcDbEntity
  8
CAP
100
AcDbPolyline
 90
5
 70
0
 10
384.8117954298036
 20
265.72237539465925
 10
386.3416624263904
 20
266.1908911070473
 10
386.1074045701964
 20
266.9558246053407
 10
384.5775375736096
 20
266.4873088929526
 10
384.8117954298036
 20
265.72237539465925
  0
LWPOLYLINE
  5
4C
330
17
100
AcDbEntity
  8
CAP
100
AcDbPolyline
 90
5
 70
0
 10
391.7124841937281
 20
235.35382942390842
 10
393.2995259446364
 20
235.55704970063744
 10
393.1979158062719
 20
236.3505705760916
 10
391.6108740553636
 20
236.14735029936259
 10
391.7124841937281
 20
235.35382942390842
  0
LWPOLYLINE
  5
4D
330
17
100
AcDbEntity
  8
CAP
100
AcDbPolyline
 90
5
 70
0
 10
393.3814471057532
 20
204.25600721550225
 10
394.9800059641463
 20
204.18811335530123
 10
395.0139528942468
 20
204.98739278449776
 10
393.4153940358537
 20
205.05528664469878
 10
393.3814471057532
 20
204.25600721550225
  0
LWPOLYLINE
  5
4E
330
17
100
AcDbEntity
  8
CAP
100
AcDbPolyline
 90
5
 70
0
 10
389.7708847305204
 20
173.323218868516
 10
391.334974066875
 20
172.9861364633067
 10
391.50351526947964
 20
173.76818113148403
 10
389.939425933125
 20
174.10526353669331
 10
389.7708847305204
 20
173.323218868516
  0
LWPOLYLINE
  5
4F
330
17
100
AcDbEntity
  8
CAP
100
AcDbPolyline
 90
5
 70
0
 10
380.9846460495572
 20
143.44573125333864
 10
382.46926736759474
 20
142.8491580876426
 10
382.7675539504428
 20
143.59146874666135
 10
381.2829326324053
 20
144.1880419123574
 10
380.9846460495572
 20
143.44573125333864
  0
LWPOLYLINE
  5
50
330
17
100
AcDbEntity
  8
CAP
100
AcDbPolyline
 90
5
 70
0
 10
367.2754542970267
 20
115.48284005551373
 10
368.637895377373
 20
114.64393940431312
 10
369.0573457029733
 20
115.32515994448626
 10
367.694904622627
 20
116.16406059568688
 10
367.2754542970267
 20
115.48284005551373
  0
LWPOLYLINE
  5
51
330
17
100
AcDbEntity
  8
CAP
100
AcDbPolyline
 90
5
 70
0
 10
349.0376908666468
 20
90.23896555339991
 10
350.23877303729193
 20
89.18189336127753
 10
350.76730913335314
 20
89.78243444660009
 10
349.566226962708
 20
90.83950663872247
 10
349.0376908666468
 20
90.23896555339991
  0
LWPOLYLINE
  5
52
330
17
100
AcDbEntity
  8
CAP
100
AcDbPolyline
 90
5
 70
0
 10
326.79610917522405
 20
68.44053945291557
 10
327.8012629325331
 20
67.1956836684299
 10
328.4236908247759
 20
67.69826054708443
 10
327.41853706746684
 20
68.94311633157011
 10
326.79610917522405
 20
68.44053945291557
  0
LWPOLYLINE
  5
53
330
17
100
AcDbEntity
  8
CAP
100
AcDbPolyline
 90
5
 70
0
 10
301.1903400616823
 20
50.71443575435373
 10
301.97064735950767
 20
49.3176105967336
 10
302.66905993831773
 20
49.707764245646274
 10
301.8887526404924
 20
51.1045894032664
 10
301.1903400616823
 20
50.71443575435373
  0
LWPOLYLINE
  5
54
330
17
100
AcDbEntity
  8
CAP
100
AcDbPolyline
 90
5
 70
0
 10
271.82333172092774
 20
195.5192849055664
 10
273.3688130429902
 20
195.10517443340237
 10
273.5758682790722
 20
195.8779150944336
 10
272.03038695700974
 20
196.29202556659763
 10
271.82333172092774
 20
195.5192849055664
  0
LWPOLYLINE
  5
55
330
17
100
AcDbEntity
  8
CAP
100
AcDbPolyline
 90
5
 70
0
 10
272.9572421662607
 20
37.5706512000359
 10
273.4902537402149
 20
36.06204301298702
 10
274.24455783373935
 20
36.328548799964096
 10
273.71154625978517
 20
37.837156987012975
 10
272.9572421662607
 20
37.5706512000359
  0
LWPOLYLINE
  5
56
330
17
100
AcDbEntity
  8
CAP
100
AcDbPolyline
 90
5
 70
0
 10
242.9089495790834
 20
29.387389902683644
 10
243.17935833040303
 20
27.810405721656533
 10
243.9678504209166
 20
27.945610097316354
 10
243.69744166959697
 20
29.522594278343465
 10
242.9089495790834
 20
29.387389902683644
  0
LWPOLYLINE
  5
57
330
17
100
AcDbEntity
  8
CAP
100
AcDbPolyline
 90
5
 70
0
 10
211.9099
 20
26.400000000000002
 10
211.9099
 20
24.8
 10
212.7099
 20
24.8
 10
212.7099
 20
26.400000000000002
 10
211.9099
 20
26.400000000000002
  0
LWPOLYLINE
  5
58
330
17
100
AcDbEntity
  8
CAP
100
AcDbPolyline
 90
5
 70
0
 10
180.85185833040302
 20
28.694394278343466
 10
180.5814495790834
 20
27.117410097316355
 10
181.36994166959695
 20
26.982205721656534
 10
181.64035042091658
 20
28.559189902683645
 10
180.85185833040302
 20
28.694394278343466
  0
LWPOLYLINE
  5
59
330
17
100
AcDbEntity
  8
CAP
100
AcDbPolyline
 90
5
 70
0
 10
150.62835374021486
 20
36.20485698701298
 10
150.0953421662607
 20
34.6962487999641
 10
150.84964625978515
 20
34.429743012987025
 10
151.3826578337393
 20
35.9383512000359
 10
150.62835374021486
 20
36.20485698701298
  0
LWPOLYLINE
  5
5A
330
17
100
AcDbEntity
  8
CAP
100
AcDbPolyline
 90
5
 70
0
 10
122.10874735950765
 20
48.7148894032664
 10
121.3284400616823
 20
47.31806424564627
 10
122.02685264049236
 20
46.9279105967336
 10
122.80715993831771
 20
48.324735754353725
 10
122.10874735950765
 20
48.7148894032664
  0
LWPOLYLINE
  5
5B
330
17
100
AcDbEntity
  8
CAP
100
AcDbPolyline
 90
5
 70
0
 10
96.11366293253313
 20
65.86481633157011
 10
95.10850917522406
 20
64.61996054708443
 10
95.73093706746688
 20
64.1173836684299
 10
96.73609082477596
 20
65.36223945291557
 10
96.11366293253313
 20
65.86481633157011
  0
LWPOLYLINE
  5
5C
330
17
100
AcDbEntity
  8
CAP
100
AcDbPolyline
 90
5
 70
0
 10
73.39087303729195
 20
87.16120663872248
 10
72.18979086664685
 20
86.1041344466001
 10
72.71832696270803
 20
85.50359336127754
 10
73.91940913335314
 20
86.56066555339991
 10
73.39087303729195
 20
87.16120663872248
  0
LWPOLYLINE
  5
5D
330
17
100
AcDbEntity
  8
CAP
100
AcDbPolyline
 90
5
 70
0
 10
54.59409537737299
 20
111.99156059568688
 10
53.231654297026694
 20
111.15265994448626
 10
53.65110462262701
 20
110.47143940431312
 10
55.0135457029733
 20
111.31034005551373
 10
54.59409537737299
 20
111.99156059568688
  0
LWPOLYLINE
  5
5E
330
17
100
AcDbEntity
  8
CAP
100
AcDbPolyline
 90
5
 70
0
 10
40.26386736759473
 20
139.6413419123574
 10
38.77924604955724
 20
139.04476874666136
 10
39.077532632405266
 20
138.3024580876426
 10
40.562153950442756
 20
138.89903125333865
 10
40.26386736759473
 20
139.6413419123574
  0
LWPOLYLINE
  5
5F
330
17
100
AcDbEntity
  8
CAP
100
AcDbPolyline
 90
5
 70
0
 10
256.28147186257615
 20
166.47754271247464
 10
257.4128427124746
 20
165.34617186257614
 10
257.97852813742384
 20
165.91185728752538
 10
256.84715728752536
 20
167.04322813742388
 10
256.28147186257615
 20
166.47754271247464
  0
LWPOLYLINE
  5
60
330
17
100
AcDbEntity
  8
CAP
100
AcDbPolyline
 90
5
 70
0
 10
30.81267406687499
 20
169.3152635366933
 10
29.24858473052035
 20
168.978181131484
 10
29.417125933125007
 20
168.1961364633067
 10
30.981215269479648
 20
168.53321886851597
 10
30.81267406687499
 20
169.3152635366933
  0
LWPOLYLINE
  5
61
330
17
100
AcDbEntity
  8
CAP
100
AcDbPolyline
 90
5
 70
0
 10
26.51230596414629
 20
200.15968664469878
 10
24.913747105753203
 20
200.09179278449776
 10
24.94769403585371
 20
199.29251335530122
 10
26.5462528942468
 20
199.36040721550225
 10
26.51230596414629
 20
200.15968664469878
  0
LWPOLYLINE
  5
62
330
17
100
AcDbEntity
  8
CAP
100
AcDbPolyline
 90
5
 70
0
 10
27.486625944636415
 20
231.28705029936256
 10
25.899584193728085
 20
231.49027057609158
 10
25.797974055363582
 20
230.6967497006374
 10
27.385015806271912
 20
230.4935294239084
 10
27.486625944636415
 20
231.28705029936256
  0
LWPOLYLINE
  5
63
330
17
100
AcDbEntity
  8
CAP
100
AcDbPolyline
 90
5
 70
0
 10
33.707462426390414
 20
261.8021088929527
 10
32.17759542980361
 20
262.27062460534074
 10
31.94333757360959
 20
261.50569110704737
 10
33.473204570196394
 20
261.0371753946593
 10
33.707462426390414
 20
261.8021088929527
  0
LWPOLYLINE
  5
64
330
17
100
AcDbEntity
  8
CAP
100
AcDbPolyline
 90
5
 70
0
 10
44.995722171733675
 20
290.8269035502298
 10
43.567043856775946
 20
291.54723560724904
 10
43.20687782826633
 20
290.8328964497702
 10
44.63555614322406
 20
290.112564392751
 10
44.995722171733675
 20
290.8269035502298
  0
LWPOLYLINE
  5
65
330
17
100
AcDbEntity
  8
CAP
100
AcDbPolyline
 90
5
 70
0
 10
61.02705228327968
 20
317.5264997919286
 10
59.74064879648935
 20
318.47790195146666
 10
59.26494771672032
 20
317.83470020807147
 10
60.55135120351065
 20
316.8832980485334
 10
61.02705228327968
 20
317.5264997919286
  0
LWPOLYLINE
  5
66
330
17
100
AcDbEntity
  8
CAP
100
AcDbPolyline
 90
5
 70
0
 10
81.33993466784199
 20
341.1326138511308
 10
80.23282811839013
 20
342.2877394235951
 10
79.65526533215802
 20
341.7341861488692
 10
80.76237188160988
 20
340.5790605764049
 10
81.33993466784199
 20
341.1326138511308
  0
LWPOLYLINE
  5
67
330
17
100
AcDbEntity
  8
CAP
100
AcDbPolyline
 90
5
 70
0
 10
105.35008327461725
 20
360.966381459773
 10
104.45412486741122
 20
362.29199774382994
 10
103.79131672538276
 20
361.84401854022695
 10
104.68727513258878
 20
360.51840225617
 10
105.35008327461725
 20
360.966381459773
  0
LWPOLYLINE
  5
68
330
17
100
AcDbEntity
  8
CAP
100
AcDbPolyline
 90
5
 70
0
 10
132.36680920094364
 20
376.45717377852003
 10
131.7077754566178
 20
377.91514309364294
 10
130.97879079905636
 20
377.58562622148
 10
131.63782454338218
 20
376.1276569063571
 10
132.36680920094364
 20
376.45717377852003
  0
LWPOLYLINE
  5
69
330
17
100
AcDbEntity
  8
CAP
100
AcDbPolyline
 90
5
 70
0
 10
161.6127803925812
 20
387.1592090322922
 10
161.20960453861755
 20
388.7075788946897
 10
160.43541960741882
 20
388.5059909677078
 10
160.83859546138245
 20
386.95762110531035
 10
161.6127803925812
 20
387.1592090322922
  0
LWPOLYLINE
  5
6A
330
17
100
AcDbEntity
  8
CAP
100
AcDbPolyline
 90
5
 70
0
 10
228.30087443340236
 20
149.09771304299025
 10
228.71498490556638
 20
147.55223172092775
 10
229.48772556659762
 20
147.75928695700978
 10
229.0736150944336
 20
149.30476827907228
 10
228.30087443340236
 20
149.09771304299025
  0
LWPOLYLINE
  5
6B
330
17
100
AcDbEntity
  8
CAP
100
AcDbPolyline
 90
5
 70
0
 10
192.24690553503348
 20
392.76470547899623
 10
192.1112122957829
 20
394.35894114062904
 10
191.3140944649665
 20
394.29109452100374
 10
191.44978770421707
 20
392.69685885937093
 10
192.24690553503348
 20
392.76470547899623
  0
LWPOLYLINE
  5
6C
330
17
100
AcDbEntity
  8
CAP
100
AcDbPolyline
 90
5
 70
0
 10
192.22362854120414
 20
422.8805319276826
 10
192.10683733313144
 20
424.4762636763537
 10
191.30897145879587
 20
424.4178680723174
 10
191.42576266686856
 20
422.8221363236463
 10
192.22362854120414
 20
422.8805319276826
  0
LWPOLYLINE
  5
6D
330
17
100
AcDbEntity
  8
CAP
100
AcDbPolyline
 90
5
 70
0
 10
161.415872801629
 20
418.0440099937444
 10
161.06798832402706
 20
419.60573224505663
 10
160.28712719837097
 20
419.43179000625565
 10
160.63501167597292
 20
417.8700677549434
 10
161.415872801629
 20
418.0440099937444
  0
LWPOLYLINE
  5
6E
330
17
100
AcDbEntity
  8
CAP
100
AcDbPolyline
 90
5
 70
0
 10
131.64068870244873
 20
408.77357679253316
 10
131.06912534450422
 20
410.2680048864391
 10
130.32191129755128
 20
409.98222320746686
 10
130.8934746554958
 20
408.48779511356094
 10
131.64068870244873
 20
408.77357679253316
  0
LWPOLYLINE
  5
6F
330
17
100
AcDbEntity
  8
CAP
100
AcDbPolyline
 90
5
 70
0
 10
103.53265118962099
 20
395.26652340557985
 10
102.74959056176354
 20
396.66180690834886
 10
102.051948810379
 20
396.2702765944201
 10
102.83500943823645
 20
394.8749930916511
 10
103.53265118962099
 20
395.26652340557985
  0
LWPOLYLINE
  5
70
330
17
100
AcDbEntity
  8
CAP
100
AcDbPolyline
 90
5
 70
0
 10
77.69063472657243
 20
377.81076640962493
 10
76.71276603635658
 20
379.077167935483
 10
76.07956527342756
 20
378.58823359037507
 10
77.0574339636434
 20
377.321832064517
 10
77.69063472657243
 20
377.81076640962493
  0
LWPOLYLINE
  5
71
330
17
100
AcDbEntity
  8
CAP
100
AcDbPolyline
 90
5
 70
0
 10
54.66565473543159
 20
356.7784093087623
 10
53.51379971173118
 20
357.8889182030879
 10
52.958545264568414
 20
357.3129906912377
 10
54.11040028826882
 20
356.20248179691214
 10
54.66565473543159
 20
356.7784093087623
  0
LWPOLYLINE
  5
72
330
17
100
AcDbEntity
  8
CAP
100
AcDbPolyline
 90
5
 70
0
 10
34.94847632599161
 20
332.61783485926384
 10
33.64720631699394
 20
333.54880014523496
 10
33.181723674008396
 20
332.8981651407361
 10
34.482993683006065
 20
331.967199854765
 10
34.94847632599161
 20
332.61783485926384
  0
LWPOLYLINE
  5
73
330
17
100
AcDbEntity
  8
CAP
100
AcDbPolyline
 90
5
 70
0
 10
18.959070701481945
 20
305.84384772012487
 10
17.536119403010943
 20
306.5754279291107
 10
17.170329298518052
 20
305.86395227987515
 10
18.593280596989054
 20
305.13237207088935
 10
18.959070701481945
 20
305.84384772012487
  0
LWPOLYLINE
  5
74
330
17
100
AcDbEntity
  8
CAP
100
AcDbPolyline
 90
5
 70
0
 10
7.0384035410748815
 20
277.02707482312655
 10
5.524098016853819
 20
277.54367793898393
 10
5.265796458925118
 20
276.7865251768734
 10
6.780101983146181
 20
276.269922061016
 10
7.0384035410748815
 20
277.02707482312655
  0
LWPOLYLINE
  5
75
330
17
100
AcDbEntity
  8
CAP
100
AcDbPolyline
 90
5
 70
0
 10
195.3791849055664
 20
148.03656827907227
 10
194.96507443340238
 20
146.49108695700977
 10
195.7378150944336
 20
146.28403172092774
 10
196.15192556659764
 20
147.82951304299024
 10
195.3791849055664
 20
148.03656827907227
  0
LWPOLYLINE
  5
76
330
17
100
AcDbEntity
  8
CAP
100
AcDbPolyline
 90
5
 70
0
 10
-0.5593532215253351
 20
246.78163853395233
 10
-2.1327388942466534
 20
247.07225430240834
 10
-2.278046778474665
 20
246.28556146604768
 10
-0.7046611057533468
 20
245.99494569759167
 10
-0.5593532215253351
 20
246.78163853395233
  0
LWPOLYLINE
  5
77
330
17
100
AcDbEntity
  8
CAP
100
AcDbPolyline
 90
5
 70
0
 10
-3.6724250624695514
 20
215.7524158513273
 10
-5.271357643580112
 20
215.81085043922798
 10
-5.300574937530449
 20
215.0113841486727
 10
-3.7016423564198893
 20
214.95294956077203
 10
-3.6724250624695514
 20
215.7524158513273
  0
LWPOLYLINE
  5
78
330
17
100
AcDbEntity
  8
CAP
100
AcDbPolyline
 90
5
 70
0
 10
-2.234447112470489
 20
184.60059644177582
 10
-3.824848885938362
 20
184.4256044449581
 10
-3.737352887529511
 20
183.63040355822417
 10
-2.146951114061638
 20
183.80539555504188
 10
-2.234447112470489
 20
184.60059644177582
  0
LWPOLYLINE
  5
79
330
17
100
AcDbEntity
  8
CAP
100
AcDbPolyline
 90
5
 70
0
 10
3.7238152791397257
 20
153.99013827311327
 10
2.1758402140255475
 20
153.58544925944383
 10
2.3781847208602747
 20
152.81146172688673
 10
3.926159785974453
 20
153.21615074055617
 10
3.7238152791397257
 20
153.99013827311327
  0
LWPOLYLINE
  5
7A
330
17
100
AcDbEntity
  8
CAP
100
AcDbPolyline
 90
5
 70
0
 10
14.075738099278741
 20
124.5733196609679
 10
12.603181411658445
 20
123.94755868284227
 10
12.91606190072126
 20
123.21128033903211
 10
14.388618588341556
 20
123.83704131715774
 10
14.075738099278741
 20
124.5733196609679
  0
LWPOLYLINE
  5
7B
330
17
100
AcDbEntity
  8
CAP
100
AcDbPolyline
 90
5
 70
0
 10
28.60030295115496
 20
96.97728661907556
 10
27.234548934046575
 20
96.14379038947862
 10
27.651297048845045
 20
95.46091338092444
 10
29.017051065953428
 20
96.29440961052137
 10
28.60030295115496
 20
96.97728661907556
  0
LWPOLYLINE
  5
7C
330
17
100
AcDbEntity
  8
CAP
100
AcDbPolyline
 90
5
 70
0
 10
46.98815482077239
 20
71.79019450418086
 10
45.75831150419189
 20
70.7667271541094
 10
46.270045179227616
 20
70.15180549581915
 10
47.499888495808115
 20
71.1752728458906
 10
46.98815482077239
 20
71.79019450418086
  0
LWPOLYLINE
  5
7D
330
17
100
AcDbEntity
  8
CAP
100
AcDbPolyline
 90
5
 70
0
 10
68.84733917226991
 20
49.54864718602183
 10
67.7796387478206
 20
48.357003026202825
 10
68.3754608277301
 20
47.82315281397816
 10
69.44316125217941
 20
49.01479697379717
 10
68.84733917226991
 20
49.54864718602183
  0
LWPOLYLINE
  5
7E
330
17
100
AcDbEntity
  8
CAP
100
AcDbPolyline
 90
5
 70
0
 10
93.71200929918025
 20
30.72700605077917
 10
92.82918957986853
 20
29.392603808876693
 10
93.49639070081976
 20
28.951193949220826
 10
94.37921042013149
 20
30.285596191123304
 10
93.71200929918025
 20
30.72700605077917
  0
LWPOLYLINE
  5
7F
330
17
100
AcDbEntity
  8
CAP
100
AcDbPolyline
 90
5
 70
0
 10
121.05218170902204
 20
15.72614115938885
 10
120.37305804707569
 20
14.277420671584327
 10
121.09741829097796
 20
13.93785884061115
 10
121.7765419529243
 20
15.386579328415674
 10
121.05218170902204
 20
15.72614115938885
  0
LWPOLYLINE
  5
80
330
17
100
AcDbEntity
  8
CAP
100
AcDbPolyline
 90
5
 70
0
 10
166.33744271247463
 20
163.57842813742386
 10
165.20607186257612
 20
162.44705728752535
 10
165.77175728752536
 20
161.88137186257612
 10
166.90312813742386
 20
163.01274271247462
 10
166.33744271247463
 20
163.57842813742386
  0
LWPOLYLINE
  5
81
330
17
100
AcDbEntity
  8
CAP
100
AcDbPolyline
 90
5
 70
0
 10
150.28503617777375
 20
4.865919624283788
 10
149.8240825939087
 20
3.333757167648729
 10
150.59016382222626
 20
3.1032803757162113
 10
151.0511174060913
 20
4.635442832351271
 10
150.28503617777375
 20
4.865919624283788
  0
LWPOLYLINE
  5
82
330
17
100
AcDbEntity
  8
CAP
100
AcDbPolyline
 90
5
 70
0
 10
180.787742207393
 20
-1.6221852918371567
 10
180.55478290903395
 20
-3.205135058983306
 10
181.34625779260702
 20
-3.3216147081628438
 10
181.57921709096607
 20
-1.7386649410166943
 10
180.787742207393
 20
-1.6221852918371567
  0
LWPOLYLINE
  5
83
330
17
100
AcDbEntity
  8
CAP
100
AcDbPolyline
 90
5
 70
0
 10
211.9099
 20
-3.6
 10
211.9099
 20
-5.2
 10
212.7099
 20
-5.2
 10
212.7099
 20
-3.6000000000000005
 10
211.9099
 20
-3.6
  0
LWPOLYLINE
  5
84
330
17
100
AcDbEntity
  8
CAP
100
AcDbPolyline
 90
5
 70
0
 10
242.98838290903393
 20
-1.025264941016694
 10
243.22134220739298
 20
-2.6082147081628433
 10
244.01281709096605
 20
-2.4917350589833056
 10
243.779857792607
 20
-0.9087852918371566
 10
242.98838290903393
 20
-1.025264941016694
  0
LWPOLYLINE
  5
85
330
17
100
AcDbEntity
  8
CAP
100
AcDbPolyline
 90
5
 70
0
 10
273.36088259390874
 20
6.0471428323512715
 10
273.8218361777738
 20
4.5149803757162115
 10
274.58791740609126
 20
4.745457167648729
 10
274.12696382222623
 20
6.277619624283789
 10
273.36088259390874
 20
6.0471428323512715
  0
LWPOLYLINE
  5
86
330
17
100
AcDbEntity
  8
CAP
100
AcDbPolyline
 90
5
 70
0
 10
302.3799580470757
 20
17.466379328415677
 10
303.05908170902205
 20
16.01765884061115
 10
303.7834419529243
 20
16.357220671584322
 10
303.104318290978
 20
17.805941159388848
 10
302.3799580470757
 20
17.466379328415677
  0
LWPOLYLINE
  5
87
330
17
100
AcDbEntity
  8
CAP
100
AcDbPolyline
 90
5
 70
0
 10
329.4271895798685
 20
32.989196191123305
 10
330.31000929918025
 20
31.65479394922083
 10
330.9772104201315
 20
32.0962038088767
 10
330.09439070081976
 20
33.430606050779176
 10
329.4271895798685
 20
32.989196191123305
  0
LWPOLYLINE
  5
88
330
17
100
AcDbEntity
  8
CAP
100
AcDbPolyline
 90
5
 70
0
 10
353.92593874782057
 20
52.28459697379717
 10
354.9936391722699
 20
51.092952813978165
 10
355.58946125217943
 20
51.62680302620283
 10
354.5217608277301
 20
52.818447186021835
 10
353.92593874782057
 20
52.28459697379717
  0
LWPOLYLINE
  5
89
330
17
100
AcDbEntity
  8
CAP
100
AcDbPolyline
 90
5
 70
0
 10
375.3543115041919
 20
74.9416728458906
 10
376.58415482077237
 20
73.91820549581914
 10
377.0958884958081
 20
74.5331271541094
 10
375.8660451792276
 20
75.55659450418085
 10
375.3543115041919
 20
74.9416728458906
  0
LWPOLYLINE
  5
8A
330
17
100
AcDbEntity
  8
CAP
100
AcDbPolyline
 90
5
 70
0
 10
393.25524893404656
 20
100.47700961052138
 10
394.62100295115494
 20
99.64351338092445
 10
395.03775106595344
 20
100.32639038947863
 10
393.67199704884507
 20
101.15988661907556
 10
393.25524893404656
 20
100.47700961052138
  0
LWPOLYLINE
  5
8B
330
17
100
AcDbEntity
  8
CAP
100
AcDbPolyline
 90
5
 70
0
 10
148.95751304299023
 20
191.55902556659763
 10
147.41203172092773
 20
191.1449150944336
 10
147.61908695700976
 20
190.37217443340236
 10
149.16456827907226
 20
190.7862849055664
 10
148.95751304299023
 20
191.55902556659763
  0
LWPOLYLINE
  5
8C
330
17
100
AcDbEntity
  8
CAP
100
AcDbPolyline
 90
5
 70
0
 10
407.2475814116585
 20
128.34674131715772
 10
408.72013809927876
 20
127.7209803390321
 10
409.0330185883416
 20
128.45725868284225
 10
407.5604619007213
 20
129.08301966096786
 10
407.2475814116585
 20
128.34674131715772
  0
LWPOLYLINE
  5
8D
330
17
100
AcDbEntity
  8
CAP
100
AcDbPolyline
 90
5
 70
0
 10
417.03294021402553
 20
157.95675074055617
 10
418.58091527913973
 20
157.55206172688673
 10
418.78325978597445
 20
158.32604925944383
 10
417.23528472086025
 20
158.73073827311327
 10
417.03294021402553
 20
157.95675074055617
  0
LWPOLYLINE
  5
8E
330
17
100
AcDbEntity
  8
CAP
100
AcDbPolyline
 90
5
 70
0
 10
422.40275111406163
 20
188.67599555504188
 10
423.9931528875295
 20
188.50100355822417
 10
424.08064888593833
 20
189.2962044449581
 10
422.49024711247046
 20
189.47119644177582
 10
422.40275111406163
 20
188.67599555504188
  0
LWPOLYLINE
  5
8F
330
17
100
AcDbEntity
  8
CAP
100
AcDbPolyline
 90
5
 70
0
 10
423.2425423564199
 20
219.849749560772
 10
424.84147493753045
 20
219.9081841486727
 10
424.8122576435801
 20
220.70765043922796
 10
423.21332506246955
 20
220.64921585132728
 10
423.2425423564199
 20
219.849749560772
  0
LWPOLYLINE
  5
90
330
17
100
AcDbEntity
  8
CAP
100
AcDbPolyline
 90
5
 70
0
 10
419.53446110575334
 20
250.81344569759167
 10
421.10784677847465
 20
251.10406146604768
 10
420.9625388942466
 20
251.89075430240834
 10
419.3891532215253
 20
251.60013853395233
 10
419.53446110575334
 20
250.81344569759167
  0
LWPOLYLINE
  5
91
330
17
100
AcDbEntity
  8
CAP
100
AcDbPolyline
 90
5
 70
0
 10
411.3575980168538
 20
280.90742206101606
 10
412.87190354107486
 20
281.42402517687344
 10
412.61360198314617
 20
282.181177938984
 10
411.0992964589251
 20
281.6645748231266
 10
411.3575980168538
 20
280.90742206101606
  0
LWPOLYLINE
  5
92
330
17
100
AcDbEntity
  8
CAP
100
AcDbPolyline
 90
5
 70
0
 10
398.88601940301095
 20
309.4900720708893
 10
400.30897070148194
 20
310.2216522798751
 10
399.94318059698907
 20
310.93312792911064
 10
398.5202292985181
 20
310.20154772012484
 10
398.88601940301095
 20
309.4900720708893
  0
LWPOLYLINE
  5
93
330
17
100
AcDbEntity
  8
CAP
100
AcDbPolyline
 90
5
 70
0
 10
382.3858063169939
 20
335.95229985476504
 10
383.6870763259916
 20
336.88326514073617
 10
383.22159368300606
 20
337.533900145235
 10
381.9203236740084
 20
336.6029348592639
 10
382.3858063169939
 20
335.95229985476504
  0
LWPOLYLINE
  5
94
330
17
100
AcDbEntity
  8
CAP
100
AcDbPolyline
 90
5
 70
0
 10
362.2083997117312
 20
359.73008179691215
 10
363.3602547354316
 20
360.8405906912377
 10
362.80500028826884
 20
361.4165182030879
 10
361.6531452645684
 20
360.3060093087623
 10
362.2083997117312
 20
359.73008179691215
  0
LWPOLYLINE
  5
95
330
17
100
AcDbEntity
  8
CAP
100
AcDbPolyline
 90
5
 70
0
 10
338.78406603635653
 20
380.316632064517
 10
339.7619347265724
 20
381.58303359037507
 10
339.1287339636434
 20
382.071967935483
 10
338.15086527342754
 20
380.80556640962493
 10
338.78406603635653
 20
380.316632064517
  0
LWPOLYLINE
  5
96
330
17
100
AcDbEntity
  8
CAP
100
AcDbPolyline
 90
5
 70
0
 10
147.89636827907228
 20
224.4807150944336
 10
146.35088695700978
 20
224.89482556659763
 10
146.14383172092775
 20
224.1220849055664
 10
147.68931304299025
 20
223.70797443340237
 10
147.89636827907228
 20
224.4807150944336
  0
LWPOLYLINE
  5
97
330
17
100
AcDbEntity
  8
CAP
100
AcDbPolyline
 90
5
 70
0
 10
312.61179056176354
 20
397.2730930916511
 10
313.39485118962097
 20
398.6683765944201
 10
312.6972094382364
 20
399.05990690834886
 10
311.914148810379
 20
397.66462340557985
 10
312.61179056176354
 20
397.2730930916511
  0
LWPOLYLINE
  5
98
330
17
100
AcDbEntity
  8
CAP
100
AcDbPolyline
 90
5
 70
0
 10
284.2497253445042
 20
410.23819511356095
 10
284.8212887024487
 20
411.7326232074669
 10
284.0740746554958
 20
412.0184048864391
 10
283.5025112975513
 20
410.5239767925332
 10
284.2497253445042
 20
410.23819511356095
  0
LWPOLYLINE
  5
99
330
17
100
AcDbEntity
  8
CAP
100
AcDbPolyline
 90
5
 70
0
 10
254.30198832402706
 20
418.9354677549434
 10
254.64987280162902
 20
420.4971900062556
 10
253.86901167597293
 20
420.6711322450566
 10
253.52112719837098
 20
419.10940999374435
 10
254.30198832402706
 20
418.9354677549434
  0
LWPOLYLINE
  5
9A
330
17
100
AcDbEntity
  8
CAP
100
AcDbPolyline
 90
5
 70
0
 10
223.40713733313143
 20
423.17983632364627
 10
223.52392854120413
 20
424.77556807231736
 10
222.72606266686856
 20
424.8339636763537
 10
222.60927145879586
 20
423.2382319276826
 10
223.40713733313143
 20
423.17983632364627
  0
LWPOLYLINE
  5
9B
330
17
100
AcDbEntity
  8
CAP
100
AcDbPolyline
 90
5
 70
0
 10
163.43832813742387
 20
253.52245728752536
 10
162.30695728752536
 20
254.65382813742386
 10
161.74127186257613
 20
254.08814271247462
 10
162.87264271247463
 20
252.95677186257612
 10
163.43832813742387
 20
253.52245728752536
  0
LWPOLYLINE
  5
9C
330
17
100
AcDbEntity
  8
CAP
100
AcDbPolyline
 90
5
 70
0
 10
191.41892556659764
 20
270.9022869570098
 10
191.0048150944336
 20
272.44776827907225
 10
190.23207443340237
 20
272.24071304299025
 10
190.6461849055664
 20
270.6952317209278
 10
191.41892556659764
 20
270.9022869570098
  0
LWPOLYLINE
  5
9D
330
17
100
AcDbEntity
  8
CAP
100
AcDbPolyline
 90
5
 70
0
 10
191.28451016151377
 20
238.07347967697245
 10
190.48451016151375
 20
239.45912032302758
 10
189.7916898384862
 20
239.05912032302757
 10
190.59168983848622
 20
237.67347967697245
 10
191.28451016151377
 20
238.07347967697245
  0
LWPOLYLINE
  5
9E
330
17
100
AcDbEntity
  8
CAP
100
AcDbPolyline
 90
5
 70
0
 10
191.58764164333843
 20
301.822013068657
 10
191.30980455907135
 20
303.3977054734765
 10
190.52195835666157
 20
303.25878693134297
 10
190.79979544092865
 20
301.68309452652346
 10
191.58764164333843
 20
301.822013068657
  0
LWPOLYLINE
  5
9F
330
17
100
AcDbEntity
  8
CAP
100
AcDbPolyline
 90
5
 70
0
 10
161.28451016151377
 20
290.03497967697245
 10
160.48451016151375
 20
291.42062032302755
 10
159.7916898384862
 20
291.0206203230276
 10
160.59168983848622
 20
289.6349796769725
 10
161.28451016151377
 20
290.03497967697245
  0
LWPOLYLINE
  5
A0
330
17
100
AcDbEntity
  8
CAP
100
AcDbPolyline
 90
5
 70
0
 10
136.84045059836978
 20
268.5945876894983
 10
135.61477948937943
 20
269.6230478649968
 10
135.1005494016302
 20
269.01021231050163
 10
136.32622051062054
 20
267.98175213500315
 10
136.84045059836978
 20
268.5945876894983
  0
LWPOLYLINE
  5
A1
330
17
100
AcDbEntity
  8
CAP
100
AcDbPolyline
 90
5
 70
0
 10
121.203562153959
 20
240.08666093365383
 10
119.70005396070154
 20
240.63389316297489
 10
119.426437846041
 20
239.88213906634616
 10
120.92994603929846
 20
239.3349068370251
 10
121.203562153959
 20
240.08666093365383
  0
LWPOLYLINE
  5
A2
330
17
100
AcDbEntity
  8
CAP
100
AcDbPolyline
 90
5
 70
0
 10
116.2599
 20
207.95000000000002
 10
114.65990000000001
 20
207.95000000000002
 10
114.65990000000001
 20
207.15
 10
116.2599
 20
207.15
 10
116.2599
 20
207.95000000000002
  0
LWPOLYLINE
  5
A3
330
17
100
AcDbEntity
  8
CAP
100
AcDbPolyline
 90
5
 70
0
 10
122.60584603929846
 20
176.0605931629749
 10
121.102337846041
 20
175.51336093365384
 10
121.37595396070154
 20
174.7616068370251
 10
122.879462153959
 20
175.30883906634617
 10
122.60584603929846
 20
176.0605931629749
  0
LWPOLYLINE
  5
A4
330
17
100
AcDbEntity
  8
CAP
100
AcDbPolyline
 90
5
 70
0
 10
139.47582051062057
 20
148.26464786499682
 10
138.2501494016302
 20
147.23618768949834
 10
138.76437948937945
 20
146.62335213500316
 10
139.9900505983698
 20
147.65181231050164
 10
139.47582051062057
 20
148.26464786499682
  0
LWPOLYLINE
  5
A5
330
17
100
AcDbEntity
  8
CAP
100
AcDbPolyline
 90
5
 70
0
 10
164.83528983848623
 20
127.91502032302755
 10
164.03528983848622
 20
126.52937967697245
 10
164.72811016151377
 20
126.12937967697245
 10
165.52811016151378
 20
127.51502032302754
 10
164.83528983848623
 20
127.91502032302755
  0
LWPOLYLINE
  5
A6
330
17
100
AcDbEntity
  8
CAP
100
AcDbPolyline
 90
5
 70
0
 10
195.62529544092865
 20
117.46600547347654
 10
195.34745835666158
 20
115.89031306865701
 10
196.13530455907136
 20
115.75139452652346
 10
196.41314164333843
 20
117.32708693134299
 10
195.62529544092865
 20
117.46600547347654
  0
LWPOLYLINE
  5
A7
330
17
100
AcDbEntity
  8
CAP
100
AcDbPolyline
 90
5
 70
0
 10
228.13215835666156
 20
118.17798693134299
 10
228.40999544092864
 20
116.60229452652345
 10
229.19784164333842
 20
116.741213068657
 10
228.92000455907134
 20
118.31690547347654
 10
228.13215835666156
 20
118.17798693134299
  0
LWPOLYLINE
  5
A8
330
17
100
AcDbEntity
  8
CAP
100
AcDbPolyline
 90
5
 70
0
 10
176.25990000000002
 20
207.95000000000002
 10
174.6599
 20
207.95000000000002
 10
174.6599
 20
207.15
 10
176.25990000000002
 20
207.15
 10
176.25990000000002
 20
207.95000000000002
  0
LWPOLYLINE
  5
A9
330
17
100
AcDbEntity
  8
CAP
100
AcDbPolyline
 90
5
 70
0
 10
258.4352898384862
 20
129.96502032302755
 10
259.2352898384862
 20
128.57937967697242
 10
259.92811016151376
 20
128.97937967697243
 10
259.12811016151375
 20
130.36502032302755
 10
258.4352898384862
 20
129.96502032302755
  0
LWPOLYLINE
  5
AA
330
17
100
AcDbEntity
  8
CAP
100
AcDbPolyline
 90
5
 70
0
 10
282.8793494016302
 20
151.40541231050165
 10
284.1050205106206
 20
150.37695213500317
 10
284.61925059836983
 20
150.98978768949834
 10
283.3935794893794
 20
152.01824786499682
 10
282.8793494016302
 20
151.40541231050165
  0
LWPOLYLINE
  5
AB
330
17
100
AcDbEntity
  8
CAP
100
AcDbPolyline
 90
5
 70
0
 10
298.516237846041
 20
179.91333906634617
 10
300.01974603929847
 20
179.36610683702511
 10
300.29336215395904
 20
180.11786093365384
 10
298.7898539607016
 20
180.6650931629749
 10
298.516237846041
 20
179.91333906634617
  0
LWPOLYLINE
  5
AC
330
17
100
AcDbEntity
  8
CAP
100
AcDbPolyline
 90
5
 70
0
 10
303.4599
 20
212.04999999999998
 10
305.0599
 20
212.04999999999998
 10
305.0599
 20
212.85
 10
303.4599
 20
212.85
 10
303.4599
 20
212.04999999999998
  0
LWPOLYLINE
  5
AD
330
17
100
AcDbEntity
  8
CAP
100
AcDbPolyline
 90
5
 70
0
 10
297.11395396070156
 20
243.9394068370251
 10
298.617462153959
 20
244.48663906634616
 10
298.34384603929846
 20
245.2383931629749
 10
296.840337846041
 20
244.69116093365383
 10
297.11395396070156
 20
243.9394068370251
  0
LWPOLYLINE
  5
AE
330
17
100
AcDbEntity
  8
CAP
100
AcDbPolyline
 90
5
 70
0
 10
280.2439794893794
 20
271.73535213500315
 10
281.4696505983698
 20
272.76381231050163
 10
280.95542051062057
 20
273.3766478649968
 10
279.72974940163016
 20
272.34818768949833
 10
280.2439794893794
 20
271.73535213500315
  0
LWPOLYLINE
  5
AF
330
17
100
AcDbEntity
  8
CAP
100
AcDbPolyline
 90
5
 70
0
 10
254.88451016151376
 20
292.08497967697247
 10
255.68451016151377
 20
293.47062032302756
 10
254.99168983848622
 20
293.87062032302754
 10
254.1916898384862
 20
292.48497967697244
 10
254.88451016151376
 20
292.08497967697247
  0
LWPOLYLINE
  5
B0
330
17
100
AcDbEntity
  8
CAP
100
AcDbPolyline
 90
5
 70
0
 10
224.09450455907134
 20
302.5339945265235
 10
224.37234164333842
 20
304.109686931343
 10
223.58449544092863
 20
304.2486054734765
 10
223.30665835666156
 20
302.672913068657
 10
224.09450455907134
 20
302.5339945265235
  0
LWPOLYLINE
  5
B1
330
17
100
AcDbEntity
  8
CAP
100
AcDbPolyline
 90
5
 70
0
 10
223.31727929367435
 20
332.8823749455227
 10
223.51781246737724
 20
334.46975846762587
 10
222.72412070632566
 20
334.5700250544773
 10
222.52358753262277
 20
332.98264153237415
 10
223.31727929367435
 20
332.8823749455227
  0
LWPOLYLINE
  5
B2
330
17
100
AcDbEntity
  8
CAP
100
AcDbPolyline
 90
5
 70
0
 10
253.45401095220757
 20
325.67502899021554
 10
254.04301023650305
 20
327.16267136763673
 10
253.29918904779242
 20
327.4571710097845
 10
252.71018976349694
 20
325.9695286323633
 10
253.45401095220757
 20
325.67502899021554
  0
LWPOLYLINE
  5
B3
330
17
100
AcDbEntity
  8
CAP
100
AcDbPolyline
 90
5
 70
0
 10
194.83528983848623
 20
179.87652032302756
 10
194.03528983848622
 20
178.49087967697244
 10
194.72811016151377
 20
178.09087967697243
 10
195.52811016151378
 20
179.47652032302756
 10
194.83528983848623
 20
179.87652032302756
  0
LWPOLYLINE
  5
B4
330
17
100
AcDbEntity
  8
CAP
100
AcDbPolyline
 90
5
 70
0
 10
280.851678595916
 20
311.19937230358306
 10
281.79213499958394
 20
312.49379949458296
 10
281.14492140408396
 20
312.96402769641696
 10
280.204465000416
 20
311.66960050541707
 10
280.851678595916
 20
311.19937230358306
  0
LWPOLYLINE
  5
B5
330
17
100
AcDbEntity
  8
CAP
100
AcDbPolyline
 90
5
 70
0
 10
303.78865900167887
 20
290.36515551109073
 10
305.02148019012014
 20
291.3850338946886
 10
304.51154099832115
 20
292.0014444889092
 10
303.2787198098799
 20
290.98156610531134
 10
303.78865900167887
 20
290.36515551109073
  0
LWPOLYLINE
  5
B6
330
17
100
AcDbEntity
  8
CAP
100
AcDbPolyline
 90
5
 70
0
 10
320.82365007465324
 20
264.48124574576156
 10
322.27137335859885
 20
265.1624926122657
 10
321.9307499253468
 20
265.8863542542385
 10
320.4830266414012
 20
265.20510738773436
 10
320.82365007465324
 20
264.48124574576156
  0
LWPOLYLINE
  5
B7
330
17
100
AcDbEntity
  8
CAP
100
AcDbPolyline
 90
5
 70
0
 10
330.8865227252513
 20
235.17408004803997
 10
332.4581823264172
 20
235.4738901513771
 10
332.30827727474866
 20
236.25971995196005
 10
330.73661767358277
 20
235.9599098486229
 10
330.8865227252513
 20
235.17408004803997
  0
LWPOLYLINE
  5
B8
330
17
100
AcDbEntity
  8
CAP
100
AcDbPolyline
 90
5
 70
0
 10
333.34476240944565
 20
204.28502172425212
 10
334.9416051749309
 20
204.18455689300524
 10
334.9918375905543
 20
204.98297827574785
 10
333.3949948250691
 20
205.08344310699474
 10
333.34476240944565
 20
204.28502172425212
  0
LWPOLYLINE
  5
B9
330
17
100
AcDbEntity
  8
CAP
100
AcDbPolyline
 90
5
 70
0
 10
328.0439479892139
 20
173.7551909889819
 10
329.5656384152862
 20
173.26076379798198
 10
329.8128520107861
 20
174.02160901101809
 10
328.29116158471385
 20
174.516036202018
 10
328.0439479892139
 20
173.7551909889819
  0
LWPOLYLINE
  5
BA
330
17
100
AcDbEntity
  8
CAP
100
AcDbPolyline
 90
5
 70
0
 10
315.3172069416068
 20
145.5027302657824
 10
316.66813162241
 20
144.645407393816
 10
317.0967930583932
 20
145.3208697342176
 10
315.74586837759
 20
146.178192606184
 10
315.3172069416068
 20
145.5027302657824
  0
LWPOLYLINE
  5
BB
330
17
100
AcDbEntity
  8
CAP
100
AcDbPolyline
 90
5
 70
0
 10
295.9643748642885
 20
121.30285605956566
 10
297.0596502337744
 20
120.13650625569139
 10
297.6428251357115
 20
120.68414394043434
 10
296.54754976622564
 20
121.85049374430861
 10
295.9643748642885
 20
121.30285605956566
  0
LWPOLYLINE
  5
BC
330
17
100
AcDbEntity
  8
CAP
100
AcDbPolyline
 90
5
 70
0
 10
271.2010743887011
 20
102.6760438743944
 10
271.9718802672638
 20
101.27395318632422
 10
272.6729256112989
 20
101.6593561256056
 10
271.9021197327362
 20
103.06144681367577
 10
271.2010743887011
 20
102.6760438743944
  0
LWPOLYLINE
  5
BD
330
17
100
AcDbEntity
  8
CAP
100
AcDbPolyline
 90
5
 70
0
 10
242.58361482581665
 20
90.79289057403697
 10
242.98151864528043
 20
89.24315751623116
 10
243.75638517418332
 20
89.44210942596304
 10
243.35848135471954
 20
90.99184248376885
 10
242.58361482581665
 20
90.79289057403697
  0
LWPOLYLINE
  5
BE
330
17
100
AcDbEntity
  8
CAP
100
AcDbPolyline
 90
5
 70
0
 10
228.43528983848623
 20
181.92652032302755
 10
229.23528983848624
 20
180.54087967697242
 10
229.92811016151379
 20
180.94087967697243
 10
229.12811016151377
 20
182.32652032302755
 10
228.43528983848623
 20
181.92652032302755
  0
LWPOLYLINE
  5
BF
330
17
100
AcDbEntity
  8
CAP
100
AcDbPolyline
 90
5
 70
0
 10
211.9099
 20
86.39999999999999
 10
211.9099
 20
84.8
 10
212.7099
 20
84.8
 10
212.7099
 20
86.39999999999999
 10
211.9099
 20
86.39999999999999
  0
LWPOLYLINE
  5
C0
330
17
100
AcDbEntity
  8
CAP
100
AcDbPolyline
 90
5
 70
0
 10
181.10741864528043
 20
89.77324248376884
 10
180.70951482581665
 20
88.22350942596303
 10
181.48438135471955
 20
88.02455751623116
 10
181.88228517418332
 20
89.57429057403697
 10
181.10741864528043
 20
89.77324248376884
  0
LWPOLYLINE
  5
C1
330
17
100
AcDbEntity
  8
CAP
100
AcDbPolyline
 90
5
 70
0
 10
152.1115802672638
 20
100.70094681367577
 10
151.34077438870108
 20
99.2988561256056
 10
152.04181973273617
 20
98.91345318632422
 10
152.8126256112989
 20
100.3155438743944
 10
152.1115802672638
 20
100.70094681367577
  0
LWPOLYLINE
  5
C2
330
17
100
AcDbEntity
  8
CAP
100
AcDbPolyline
 90
5
 70
0
 10
126.7442502337744
 20
118.49619374430861
 10
125.64897486428849
 20
117.32984394043434
 10
126.23214976622562
 20
116.78220625569139
 10
127.32742513571152
 20
117.94855605956566
 10
126.7442502337744
 20
118.49619374430861
  0
LWPOLYLINE
  5
C3
330
17
100
AcDbEntity
  8
CAP
100
AcDbPolyline
 90
5
 70
0
 10
106.59933162241
 20
142.040992606184
 10
105.24840694160679
 20
141.1836697342176
 10
105.67706837758999
 20
140.50820739381598
 10
107.0279930583932
 20
141.36553026578238
 10
106.59933162241
 20
142.040992606184
  0
LWPOLYLINE
  5
C4
330
17
100
AcDbEntity
  8
CAP
100
AcDbPolyline
 90
5
 70
0
 10
92.94273841528614
 20
169.855836202018
 10
91.42104798921389
 20
169.36140901101808
 10
91.66826158471385
 20
168.60056379798198
 10
93.1899520107861
 20
169.0949909889819
 10
92.94273841528614
 20
169.855836202018
  0
LWPOLYLINE
  5
C5
330
17
100
AcDbEntity
  8
CAP
100
AcDbPolyline
 90
5
 70
0
 10
86.6325051749309
 20
200.19314310699474
 10
85.03566240944566
 20
200.09267827574786
 10
85.0858948250691
 20
199.29425689300524
 10
86.68273759055434
 20
199.39472172425212
 10
86.6325051749309
 20
200.19314310699474
  0
LWPOLYLINE
  5
C6
330
17
100
AcDbEntity
  8
CAP
100
AcDbPolyline
 90
5
 70
0
 10
88.06508232641724
 20
231.1467098486229
 10
86.49342272525135
 20
231.44651995196006
 10
86.34351767358277
 20
230.66069015137708
 10
87.91517727474866
 20
230.36088004803992
 10
88.06508232641724
 20
231.1467098486229
  0
LWPOLYLINE
  5
C7
330
17
100
AcDbEntity
  8
CAP
100
AcDbPolyline
 90
5
 70
0
 10
97.15047335859884
 20
260.7714073877343
 10
95.70275007465321
 20
261.45265425423844
 10
95.36212664140115
 20
260.72879261226564
 10
96.80984992534678
 20
260.0475457457615
 10
97.15047335859884
 20
260.7714073877343
  0
LWPOLYLINE
  5
C8
330
17
100
AcDbEntity
  8
CAP
100
AcDbPolyline
 90
5
 70
0
 10
113.3177801901201
 20
287.2060661053114
 10
112.08495900167884
 20
288.22594448890925
 10
111.57501980987989
 20
287.60953389468864
 10
112.80784099832115
 20
286.58965551109077
 10
113.3177801901201
 20
287.2060661053114
  0
LWPOLYLINE
  5
C9
330
17
100
AcDbEntity
  8
CAP
100
AcDbPolyline
 90
5
 70
0
 10
243.45989999999998
 20
212.04999999999998
 10
245.0599
 20
212.04999999999998
 10
245.0599
 20
212.85
 10
243.45989999999998
 20
212.85
 10
243.45989999999998
 20
212.04999999999998
  0
LWPOLYLINE
  5
CA
330
17
100
AcDbEntity
  8
CAP
100
AcDbPolyline
 90
5
 70
0
 10
135.55123499958395
 20
308.78950050541704
 10
134.610778595916
 20
310.08392769641694
 10
133.96356500041603
 20
309.61369949458293
 10
134.90402140408398
 20
308.31927230358303
 10
135.55123499958395
 20
308.78950050541704
  0
LWPOLYLINE
  5
CB
330
17
100
AcDbEntity
  8
CAP
100
AcDbPolyline
 90
5
 70
0
 10
162.45371023650304
 20
324.16572863236325
 10
161.86471095220756
 20
325.65337100978445
 10
161.12088976349693
 20
325.3588713676367
 10
161.70988904779242
 20
323.8712289902155
 10
162.45371023650304
 20
324.16572863236325
  0
LWPOLYLINE
  5
CC
330
17
100
AcDbEntity
  8
CAP
100
AcDbPolyline
 90
5
 70
0
 10
192.33491246737722
 20
332.36844153237416
 10
192.13437929367433
 20
333.9558250544773
 10
191.34068753262275
 20
333.8555584676259
 10
191.54122070632565
 20
332.26817494552273
 10
192.33491246737722
 20
332.36844153237416
  0
LWPOLYLINE
  5
CD
330
17
100
AcDbEntity
  8
CAP
100
AcDbPolyline
 90
5
 70
0
 10
192.2809764325475
 20
362.6045680954907
 10
192.11911966407894
 20
364.1963602887436
 10
191.3232235674525
 20
364.1154319045093
 10
191.48508033592105
 20
362.5236397112564
 10
192.2809764325475
 20
362.6045680954907
  0
LWPOLYLINE
  5
CE
330
17
100
AcDbEntity
  8
CAP
100
AcDbPolyline
 90
5
 70
0
 10
161.9217422152548
 20
355.94212999725875
 10
161.44277067304012
 20
357.46875577384856
 10
160.6794577847452
 20
357.2292700027412
 10
161.1584293269599
 20
355.7026442261514
 10
161.9217422152548
 20
355.94212999725875
  0
LWPOLYLINE
  5
CF
330
17
100
AcDbEntity
  8
CAP
100
AcDbPolyline
 90
5
 70
0
 10
133.52507794031135
 20
343.3048401681833
 10
132.74860110126656
 20
344.7037982513391
 10
132.04912205968867
 20
344.3155598318167
 10
132.82559889873346
 20
342.9166017486609
 10
133.52507794031135
 20
343.3048401681833
  0
LWPOLYLINE
  5
D0
330
17
100
AcDbEntity
  8
CAP
100
AcDbPolyline
 90
5
 70
0
 10
108.25360025995741
 20
325.20994017364467
 10
107.21140770510985
 20
326.4239561037791
 10
106.6043997400426
 20
325.9028598263553
 10
107.64659229489016
 20
324.6888438962209
 10
108.25360025995741
 20
325.20994017364467
  0
LWPOLYLINE
  5
D1
330
17
100
AcDbEntity
  8
CAP
100
AcDbPolyline
 90
5
 70
0
 10
87.14186278734572
 20
302.3984245206972
 10
85.87662271103481
 20
303.37779551745825
 10
85.38693721265427
 20
302.7451754793028
 10
86.65217728896518
 20
301.76580448254174
 10
87.14186278734572
 20
302.3984245206972
  0
LWPOLYLINE
  5
D2
330
17
100
AcDbEntity
  8
CAP
100
AcDbPolyline
 90
5
 70
0
 10
71.05430128844738
 20
275.8040069981385
 10
69.61781362842072
 20
276.50863683187475
 10
69.26549871155261
 20
275.79039300186145
 10
70.70198637157927
 20
275.0857631681252
 10
71.05430128844738
 20
275.8040069981385
  0
LWPOLYLINE
  5
D3
330
17
100
AcDbEntity
  8
CAP
100
AcDbPolyline
 90
5
 70
0
 10
60.649422287518924
 20
246.5157107916476
 10
59.10049799417058
 20
246.9167513550266
 10
58.89997771248108
 20
246.14228920835242
 10
60.448902005829424
 20
245.7412486449734
 10
60.649422287518924
 20
246.5157107916476
  0
LWPOLYLINE
  5
D4
330
17
100
AcDbEntity
  8
CAP
100
AcDbPolyline
 90
5
 70
0
 10
224.88451016151376
 20
240.12347967697244
 10
225.68451016151377
 20
241.50912032302756
 10
224.99168983848622
 20
241.90912032302757
 10
224.1916898384862
 20
240.52347967697244
 10
224.88451016151376
 20
240.12347967697244
  0
LWPOLYLINE
  5
D5
330
17
100
AcDbEntity
  8
CAP
100
AcDbPolyline
 90
5
 70
0
 10
56.35323145855225
 20
215.73237049644553
 10
54.75528472771222
 20
215.8134028689745
 10
54.71476854144775
 20
215.01442950355448
 10
56.312715272287775
 20
214.93339713102552
 10
56.35323145855225
 20
215.73237049644553
  0
LWPOLYLINE
  5
D6
330
17
100
AcDbEntity
  8
CAP
100
AcDbPolyline
 90
5
 70
0
 10
58.341600640338974
 20
184.7142336628416
 10
56.76005268552334
 20
184.4719403145662
 10
56.88119935966103
 20
183.6811663371584
 10
58.462747314476665
 20
183.92345968543378
 10
58.341600640338974
 20
184.7142336628416
  0
LWPOLYLINE
  5
D7
330
17
100
AcDbEntity
  8
CAP
100
AcDbPolyline
 90
5
 70
0
 10
66.5331748255784
 20
154.7314495291476
 10
65.03277548133487
 20
154.17575014297415
 10
65.31062517442159
 20
153.4255504708524
 10
66.81102451866512
 20
153.98124985702583
 10
66.5331748255784
 20
154.7314495291476
  0
LWPOLYLINE
  5
D8
330
17
100
AcDbEntity
  8
CAP
100
AcDbPolyline
 90
5
 70
0
 10
80.59253624235745
 20
127.01142496456595
 10
79.23469828293277
 20
126.1650940151464
 10
79.65786375764256
 20
125.48617503543406
 10
81.01570171706724
 20
126.33250598485361
 10
80.59253624235745
 20
127.01142496456595
  0
LWPOLYLINE
  5
D9
330
17
100
AcDbEntity
  8
CAP
100
AcDbPolyline
 90
5
 70
0
 10
99.94405314464974
 20
102.6888885946027
 10
98.78437723752799
 20
101.5865493589582
 10
99.33554685535024
 20
101.00671140539731
 10
100.495222762472
 20
102.10905064104182
 10
99.94405314464974
 20
102.6888885946027
  0
LWPOLYLINE
  5
DA
330
17
100
AcDbEntity
  8
CAP
100
AcDbPolyline
 90
5
 70
0
 10
123.79571368055954
 20
82.75961738681195
 10
122.88167788221472
 20
81.44640051236046
 10
123.53828631944046
 20
80.98938261318804
 10
124.45232211778529
 20
82.30259948763954
 10
123.79571368055954
 20
82.75961738681195
  0
LWPOLYLINE
  5
DB
330
17
100
AcDbEntity
  8
CAP
100
AcDbPolyline
 90
5
 70
0
 10
151.17070457573865
 20
68.03960876732789
 10
150.5397302406945
 20
66.56927840019416
 10
151.27489542426136
 20
66.2537912326721
 10
151.90586975930552
 20
67.72412159980583
 10
151.17070457573865
 20
68.03960876732789
  0
LWPOLYLINE
  5
DC
330
17
100
AcDbEntity
  8
CAP
100
AcDbPolyline
 90
5
 70
0
 10
180.94842829913287
 20
59.13154375081863
 10
180.6263480198654
 20
57.564296388815116
 10
181.40997170086715
 20
57.403256249181375
 10
181.73205198013463
 20
58.97050361118489
 10
180.94842829913287
 20
59.13154375081863
  0
LWPOLYLINE
  5
DD
330
17
100
AcDbEntity
  8
CAP
100
AcDbPolyline
 90
5
 70
0
 10
211.9099
 20
56.4
 10
211.9099
 20
54.800000000000004
 10
212.7099
 20
54.800000000000004
 10
212.7099
 20
56.4
 10
211.9099
 20
56.4
  0
LWPOLYLINE
  5
DE
330
17
100
AcDbEntity
  8
CAP
100
AcDbPolyline
 90
5
 70
0
 10
242.7874480198654
 20
59.956903611184885
 10
243.10952829913288
 20
58.38965624918137
 10
243.89315198013463
 20
58.55069638881511
 10
243.57107170086715
 20
60.117943750818625
 10
242.7874480198654
 20
59.956903611184885
  0
LWPOLYLINE
  5
DF
330
17
100
AcDbEntity
  8
CAP
100
AcDbPolyline
 90
5
 70
0
 10
224.34061509443362
 20
271.96343172092776
 10
224.75472556659764
 20
273.50891304299023
 10
223.9819849055664
 20
273.71596827907223
 10
223.56787443340238
 20
272.17048695700976
 10
224.34061509443362
 20
271.96343172092776
  0
LWPOLYLINE
  5
E0
330
17
100
AcDbEntity
  8
CAP
100
AcDbPolyline
 90
5
 70
0
 10
272.3168302406945
 20
69.65652159980583
 10
272.94780457573864
 20
68.1861912326721
 10
273.68296975930554
 20
68.50167840019417
 10
273.0519954242614
 20
69.97200876732789
 10
272.3168302406945
 20
69.65652159980583
  0
LWPOLYLINE
  5
E1
330
17
100
AcDbEntity
  8
CAP
100
AcDbPolyline
 90
5
 70
0
 10
299.28927788221466
 20
85.10189948763954
 10
300.2033136805595
 20
83.78868261318804
 10
300.8599221177853
 20
84.24570051236046
 10
299.94588631944043
 20
85.55891738681196
 10
299.28927788221466
 20
85.10189948763954
  0
LWPOLYLINE
  5
E2
330
17
100
AcDbEntity
  8
CAP
100
AcDbPolyline
 90
5
 70
0
 10
322.60047723752797
 20
105.66055064104181
 10
323.76015314464973
 20
104.5582114053973
 10
324.311322762472
 20
105.13804935895818
 10
323.15164685535024
 20
106.24038859460269
 10
322.60047723752797
 20
105.66055064104181
  0
LWPOLYLINE
  5
E3
330
17
100
AcDbEntity
  8
CAP
100
AcDbPolyline
 90
5
 70
0
 10
341.29599828293277
 20
130.4909059848536
 10
342.6538362423575
 20
129.64457503543403
 10
343.0770017170673
 20
130.32349401514637
 10
341.71916375764255
 20
131.16982496456595
 10
341.29599828293277
 20
130.4909059848536
  0
LWPOLYLINE
  5
E4
330
17
100
AcDbEntity
  8
CAP
100
AcDbPolyline
 90
5
 70
0
 10
354.6105754813349
 20
158.57624985702583
 10
356.1109748255784
 20
158.02055047085238
 10
356.38882451866516
 20
158.77075014297415
 10
354.8884251744216
 20
159.3264495291476
 10
354.6105754813349
 20
158.57624985702583
  0
LWPOLYLINE
  5
E5
330
17
100
AcDbEntity
  8
CAP
100
AcDbPolyline
 90
5
 70
0
 10
361.99905268552334
 20
188.7669596854338
 10
363.58060064033896
 20
188.5246663371584
 10
363.7017473144766
 20
189.31544031456622
 10
362.120199359661
 20
189.5577336628416
 10
361.99905268552334
 20
188.7669596854338
  0
LWPOLYLINE
  5
E6
330
17
100
AcDbEntity
  8
CAP
100
AcDbPolyline
 90
5
 70
0
 10
363.1589847277122
 20
219.8270971310255
 10
364.75693145855223
 20
219.90812950355448
 10
364.7164152722878
 20
220.7071028689745
 10
363.1184685414478
 20
220.62607049644552
 10
363.1589847277122
 20
219.8270971310255
  0
LWPOLYLINE
  5
E7
330
17
100
AcDbEntity
  8
CAP
100
AcDbPolyline
 90
5
 70
0
 10
358.04269799417057
 20
250.4848486449734
 10
359.59162228751893
 20
250.8858892083524
 10
359.39110200582945
 20
251.6603513550266
 10
357.8421777124811
 20
251.25931079164758
 10
358.04269799417057
 20
250.4848486449734
  0
LWPOLYLINE
  5
E8
330
17
100
AcDbEntity
  8
CAP
100
AcDbPolyline
 90
5
 70
0
 10
346.8599136284207
 20
279.48506316812524
 10
348.2964012884474
 20
280.1896930018615
 10
347.94408637157926
 20
280.9079368318748
 10
346.5075987115526
 20
280.20330699813854
 10
346.8599136284207
 20
279.48506316812524
  0
LWPOLYLINE
  5
E9
330
17
100
AcDbEntity
  8
CAP
100
AcDbPolyline
 90
5
 70
0
 10
330.0682227110348
 20
305.64060448254173
 10
331.33346278734575
 20
306.6199754793028
 10
330.8437772889652
 20
307.25259551745825
 10
329.5785372126543
 20
306.27322452069717
 10
330.0682227110348
 20
305.64060448254173
  0
LWPOLYLINE
  5
EA
330
17
100
AcDbEntity
  8
CAP
100
AcDbPolyline
 90
5
 70
0
 10
253.38235728752537
 20
256.4215718625762
 10
254.51372813742387
 20
257.55294271247465
 10
253.94804271247463
 20
258.11862813742385
 10
252.81667186257613
 20
256.9872572875254
 10
253.38235728752537
 20
256.4215718625762
  0
LWPOLYLINE
  5
EB
330
17
100
AcDbEntity
  8
CAP
100
AcDbPolyline
 90
5
 70
0
 10
308.35530770510985
 20
327.8805438962209
 10
309.3975002599574
 20
329.09455982635535
 10
308.79049229489016
 20
329.61565610377914
 10
307.7482997400426
 20
328.4016401736447
 10
308.35530770510985
 20
327.8805438962209
  0
LWPOLYLINE
  5
EC
330
17
100
AcDbEntity
  8
CAP
100
AcDbPolyline
 90
5
 70
0
 10
282.60990110126653
 20
345.29450174866093
 10
283.3863779403113
 20
346.6934598318167
 10
282.68689889873343
 20
347.0816982513391
 10
281.91042205968864
 20
345.68274016818333
 10
282.60990110126653
 20
345.29450174866093
  0
LWPOLYLINE
  5
ED
330
17
100
AcDbEntity
  8
CAP
100
AcDbPolyline
 90
5
 70
0
 10
253.8860706730401
 20
357.1694442261514
 10
254.3650422152548
 20
358.69607000274124
 10
253.60172932695988
 20
358.9355557738486
 10
253.1227577847452
 20
357.4089299972588
 10
253.8860706730401
 20
357.1694442261514
  0
LWPOLYLINE
  5
EE
330
17
100
AcDbEntity
  8
CAP
100
AcDbPolyline
 90
5
 70
0
 10
223.35981966407894
 20
363.0193397112564
 10
223.5216764325475
 20
364.6111319045093
 10
222.72578033592106
 20
364.6920602887436
 10
222.5639235674525
 20
363.1002680954907
 10
223.35981966407894
 20
363.0193397112564
  0
LWPOLYLINE
  5
EF
330
17
100
AcDbEntity
  8
CAP
100
AcDbPolyline
 90
5
 70
0
 10
223.3877122957829
 20
393.11235885937094
 10
223.52340553503348
 20
394.70659452100375
 10
222.72628770421707
 20
394.77444114062905
 10
222.5905944649665
 20
393.18020547899624
 10
223.3877122957829
 20
393.11235885937094
  0
LWPOLYLINE
  5
F0
330
17
100
AcDbEntity
  8
CAP
100
AcDbPolyline
 90
5
 70
0
 10
254.13920453861755
 20
388.1923211053103
 10
254.54238039258118
 20
389.7406909677078
 10
253.76819546138245
 20
389.94227889468965
 10
253.36501960741882
 20
388.3939090322922
 10
254.13920453861755
 20
388.1923211053103
  0
LWPOLYLINE
  5
F1
330
17
100
AcDbEntity
  8
CAP
100
AcDbPolyline
 90
5
 70
0
 10
283.61687545661783
 20
378.14595690635707
 10
284.27590920094366
 20
379.60392622148
 10
283.5469245433822
 20
379.9334430936429
 10
282.8878907990564
 20
378.47547377852
 10
283.61687545661783
 20
378.14595690635707
  0
LWPOLYLINE
  5
F2
330
17
100
AcDbEntity
  8
CAP
100
AcDbPolyline
 90
5
 70
0
 10
310.97282486741125
 20
363.26230225617
 10
311.8687832746173
 20
364.58791854022695
 10
311.2059751325888
 20
365.03589774382993
 10
310.31001672538275
 20
363.710281459773
 10
310.97282486741125
 20
363.26230225617
  0
LWPOLYLINE
  5
F3
330
17
100
AcDbEntity
  8
CAP
100
AcDbPolyline
 90
5
 70
0
 10
335.41992811839015
 20
343.9696605764049
 10
336.52703466784203
 20
345.1247861488692
 10
335.9494718816099
 20
345.6783394235951
 10
334.842365332158
 20
344.52321385113083
 10
335.41992811839015
 20
343.9696605764049
  0
LWPOLYLINE
  5
F4
330
17
100
AcDbEntity
  8
CAP
100
AcDbPolyline
 90
5
 70
0
 10
356.25484879648934
 20
320.8228980485334
 10
357.5412522832797
 20
321.77430020807145
 10
357.0655512035106
 20
322.41750195146665
 10
355.7791477167203
 20
321.46609979192857
 10
356.25484879648934
 20
320.8228980485334
  0
LWPOLYLINE
  5
F5
330
17
100
AcDbEntity
  8
LED
100
AcDbPolyline
 90
5
 70
0
 10
207.3599
 20
207.5
 10
212.3599
 20
207.5
 10
212.3599
 20
212.5
 10
207.3599
 20
212.5
 10
207.3599
 20
207.5
  0
CIRCLE
  5
F6
330
17
100
AcDbEntity
  8
LED
100
AcDbCircle
 10
212.3099
 20
208.4
 30
0.0
 40
0.45
  0
TEXT
  5
F7
330
17
100
AcDbEntity
  8
LED-REF
100
AcDbText
 10
209.8599
 20
210.0
 30
0.0
 40
1.1
  1
LED1
 72
1
 11
209.8599
 21
210.0
 31
0.0
100
AcDbText
 73
2
  0
LWPOLYLINE
  5
F8
330
17
100
AcDbEntity
  8
LED
100
AcDbPolyline
 90
5
 70
0
 10
264.75353782152104
 20
227.29686695296638
 10
266.0476330470336
 20
222.46723782152102
 10
270.877262178479
 20
223.76133304703362
 10
269.5831669529664
 20
228.59096217847897
 10
264.75353782152104
 20
227.29686695296638
  0
CIRCLE
  5
F9
330
17
100
AcDbEntity
  8
LED
100
AcDbCircle
 10
266.90402533843866
 20
222.74847125342774
 30
0.0
 40
0.45
  0
TEXT
  5
FA
330
17
100
AcDbEntity
  8
LED-REF
100
AcDbText
 10
267.8154
 20
225.5291
 30
0.0
 40
1.1
  1
LED10
 50
285.0
 72
1
 11
267.8154
 21
225.5291
 31
0.0
100
AcDbText
 73
2
  0
LWPOLYLINE
  5
FB
330
17
100
AcDbEntity
  8
LED
100
AcDbPolyline
 90
5
 70
0
 10
367.228771293786
 20
292.1434910280289
 10
369.47980897197107
 20
287.678871293786
 10
373.94442870621396
 20
289.9299089719711
 10
371.6933910280289
 20
294.394528706214
 10
367.228771293786
 20
292.1434910280289
  0
CIRCLE
  5
FC
330
17
100
AcDbEntity
  8
LED
100
AcDbCircle
 10
370.26093014735295
 20
288.1287042732018
 30
0.0
 40
0.45
  0
TEXT
  5
FD
330
17
100
AcDbEntity
  8
LED-REF
100
AcDbText
 10
370.5866
 20
291.0367
 30
0.0
 40
1.1
  1
LED100
 50
296.757
 72
1
 11
370.5866
 21
291.0367
 31
0.0
100
AcDbText
 73
2
  0
LWPOLYLINE
  5
FE
330
17
100
AcDbEntity
  8
LED
100
AcDbPolyline
 90
5
 70
0
 10
378.8474270172268
 20
264.36646138156055
 10
380.31153861843944
 20
259.5856270172268
 10
385.0923729827732
 20
261.04973861843945
 10
383.62826138156055
 20
265.8305729827732
 10
378.8474270172268
 20
264.36646138156055
  0
CIRCLE
  5
FF
330
17
100
AcDbEntity
  8
LED
100
AcDbCircle
 10
381.1574476880074
 20
259.8969754490884
 30
0.0
 40
0.45
  0
TEXT
  5
100
330
17
100
AcDbEntity
  8
LED-REF
100
AcDbText
 10
381.9699
 20
262.7081
 30
0.0
 40
1.1
  1
LED101
 50
287.027
 72
1
 11
381.9699
 21
262.7081
 31
0.0
100
AcDbText
 73
2
  0
LWPOLYLINE
  5
101
330
17
100
AcDbEntity
  8
LED
100
AcDbPolyline
 90
5
 70
0
 10
385.60471558181666
 20
235.0254210534052
 10
386.2397789465948
 20
230.06591558181665
 10
391.1992844181833
 20
230.7009789465948
 10
390.56422105340516
 20
235.66048441818336
 10
385.60471558181666
 20
235.0254210534052
  0
CIRCLE
  5
102
330
17
100
AcDbEntity
  8
LED
100
AcDbCircle
 10
387.12613929783294
 20
230.2298220421926
 30
0.0
 40
0.45
  0
TEXT
  5
103
330
17
100
AcDbEntity
  8
LED-REF
100
AcDbText
 10
388.402
 20
232.8632
 30
0.0
 40
1.1
  1
LED102
 50
277.297
 72
1
 11
388.402
 21
232.8632
 31
0.0
100
AcDbText
 73
2
  0
LWPOLYLINE
  5
104
330
17
100
AcDbEntity
  8
LED
100
AcDbPolyline
 90
5
 70
0
 10
387.3060359403249
 20
204.9644323728033
 10
387.0938676271967
 20
199.9689359403249
 10
392.0893640596751
 20
199.75676762719672
 10
392.3015323728033
 20
204.7522640596751
 10
387.3060359403249
 20
204.9644323728033
  0
CIRCLE
  5
105
330
17
100
AcDbEntity
  8
LED
100
AcDbCircle
 10
387.9951786681741
 20
199.9807006082866
 30
0.0
 40
0.45
  0
TEXT
  5
106
330
17
100
AcDbEntity
  8
LED-REF
100
AcDbText
 10
389.6977
 20
202.3606
 30
0.0
 40
1.1
  1
LED103
 50
267.568
 72
1
 11
389.6977
 21
202.3606
 31
0.0
100
AcDbText
 73
2
  0
LWPOLYLINE
  5
107
330
17
100
AcDbEntity
  8
LED
100
AcDbPolyline
 90
5
 70
0
 10
383.9026016700854
 20
175.04828084619368
 10
382.8492191538063
 20
170.1605016700854
 10
387.73699832991457
 20
169.1071191538063
 10
388.79038084619367
 20
173.99489832991458
 10
383.9026016700854
 20
175.04828084619368
  0
CIRCLE
  5
108
330
17
100
AcDbEntity
  8
LED
100
AcDbCircle
 10
383.7395532306686
 20
170.01977060891628
 30
0.0
 40
0.45
  0
TEXT
  5
109
330
17
100
AcDbEntity
  8
LED-REF
100
AcDbText
 10
385.8198
 20
172.0777
 30
0.0
 40
1.1
  1
LED104
 50
257.838
 72
1
 11
385.8198
 21
172.0777
 31
0.0
100
AcDbText
 73
2
  0
LWPOLYLINE
  5
10A
330
17
100
AcDbEntity
  8
LED
100
AcDbPolyline
 90
5
 70
0
 10
375.49232476196653
 20
146.13766638083365
 10
373.62803361916633
 20
141.4982247619665
 10
378.2674752380335
 20
139.63393361916633
 10
380.1317663808337
 20
144.27337523803348
 10
375.49232476196653
 20
146.13766638083365
  0
CIRCLE
  5
10B
330
17
100
AcDbEntity
  8
LED
100
AcDbCircle
 10
374.4817760219904
 20
141.20904677245113
 30
0.0
 40
0.45
  0
TEXT
  5
10C
330
17
100
AcDbEntity
  8
LED-REF
100
AcDbText
 10
376.8799
 20
142.8858
 30
0.0
 40
1.1
  1
LED105
 50
248.108
 72
1
 11
376.8799
 21
142.8858
 31
0.0
100
AcDbText
 73
2
  0
LWPOLYLINE
  5
10D
330
17
100
AcDbEntity
  8
LED
100
AcDbPolyline
 90
5
 70
0
 10
362.3170680794599
 20
119.06429645554206
 10
359.69550354445795
 20
114.8066680794599
 10
363.95313192054016
 20
112.18510354445795
 10
366.5746964555421
 20
116.44273192054011
 10
362.3170680794599
 20
119.06429645554206
  0
CIRCLE
  5
10E
330
17
100
AcDbEntity
  8
LED
100
AcDbCircle
 10
360.48809229750276
 20
114.37736274692037
 30
0.0
 40
0.45
  0
TEXT
  5
10F
330
17
100
AcDbEntity
  8
LED-REF
100
AcDbText
 10
363.1351
 20
115.6247
 30
0.0
 40
1.1
  1
LED106
 50
238.378
 72
1
 11
363.1351
 21
115.6247
 31
0.0
100
AcDbText
 73
2
  0
LWPOLYLINE
  5
110
330
17
100
AcDbEntity
  8
LED
100
AcDbPolyline
 90
5
 70
0
 10
344.75588440855825
 20
94.60686619182422
 10
341.4525338081758
 20
90.85348440855823
 10
345.2059155914418
 20
87.55013380817579
 10
348.5092661918242
 20
91.30351559144178
 10
344.75588440855825
 20
94.60686619182422
  0
CIRCLE
  5
111
330
17
100
AcDbEntity
  8
LED
100
AcDbCircle
 10
342.1611760351675
 20
90.29641511832206
 30
0.0
 40
0.45
  0
TEXT
  5
112
330
17
100
AcDbEntity
  8
LED-REF
100
AcDbText
 10
344.9809
 20
91.0785
 30
0.0
 40
1.1
  1
LED107
 50
228.649
 72
1
 11
344.9809
 21
91.0785
 31
0.0
100
AcDbText
 73
2
  0
LWPOLYLINE
  5
113
330
17
100
AcDbEntity
  8
LED
100
AcDbPolyline
 90
5
 70
0
 10
323.31403441746346
 20
73.4692399090543
 10
319.4238600909457
 20
70.32813441746345
 10
322.56496558253656
 20
66.4379600909457
 10
326.4551399090543
 20
69.57906558253654
 10
323.31403441746346
 20
73.4692399090543
  0
CIRCLE
  5
114
330
17
100
AcDbEntity
  8
LED
100
AcDbCircle
 10
320.02816082269726
 20
69.65931409360616
 30
0.0
 40
0.45
  0
TEXT
  5
115
330
17
100
AcDbEntity
  8
LED-REF
100
AcDbText
 10
322.9395
 20
69.9536
 30
0.0
 40
1.1
  1
LED108
 50
218.919
 72
1
 11
322.9395
 21
69.9536
 31
0.0
100
AcDbText
 73
2
  0
LWPOLYLINE
  5
116
330
17
100
AcDbEntity
  8
LED
100
AcDbPolyline
 90
5
 70
0
 10
298.6083091559293
 20
56.259269461633565
 10
294.2432305383664
 20
53.82080915592934
 10
296.68169084407066
 20
49.45573053836644
 10
301.0467694616336
 20
51.894190844070664
 10
298.6083091559293
 20
56.259269461633565
  0
CIRCLE
  5
117
330
17
100
AcDbEntity
  8
LED
100
AcDbCircle
 10
294.7258041795688
 20
53.05947960782506
 30
0.0
 40
0.45
  0
TEXT
  5
118
330
17
100
AcDbEntity
  8
LED-REF
100
AcDbText
 10
297.645
 20
52.8575
 30
0.0
 40
1.1
  1
LED109
 50
209.189
 72
1
 11
297.645
 21
52.8575
 31
0.0
100
AcDbText
 73
2
  0
LWPOLYLINE
  5
119
330
17
100
AcDbEntity
  8
LED
100
AcDbPolyline
 90
5
 70
0
 10
266.0476330470336
 20
197.53276217847898
 10
264.75353782152104
 20
192.70313304703362
 10
269.5831669529664
 20
191.40903782152103
 10
270.877262178479
 20
196.23866695296638
 10
266.0476330470336
 20
197.53276217847898
  0
CIRCLE
  5
11A
330
17
100
AcDbEntity
  8
LED
100
AcDbCircle
 10
265.6358120174363
 20
192.51849219775582
 30
0.0
 40
0.45
  0
TEXT
  5
11B
330
17
100
AcDbEntity
  8
LED-REF
100
AcDbText
 10
267.8154
 20
194.4709
 30
0.0
 40
1.1
  1
LED11
 50
255.0
 72
1
 11
267.8154
 21
194.4709
 31
0.0
100
AcDbText
 73
2
  0
LWPOLYLINE
  5
11C
330
17
100
AcDbEntity
  8
LED
100
AcDbPolyline
 90
5
 70
0
 10
271.3494697079605
 20
43.472130876567256
 10
266.63506912343274
 20
41.80646970796049
 10
268.30073029203953
 20
37.09206912343274
 10
273.0151308765673
 20
38.75773029203951
 10
271.3494697079605
 20
43.472130876567256
  0
CIRCLE
  5
11D
330
17
100
AcDbEntity
  8
LED
100
AcDbCircle
 10
266.9820321396273
 20
40.974534214431564
 30
0.0
 40
0.45
  0
TEXT
  5
11E
330
17
100
AcDbEntity
  8
LED-REF
100
AcDbText
 10
269.8251
 20
40.2821
 30
0.0
 40
1.1
  1
LED110
 50
199.459
 72
1
 11
269.8251
 21
40.2821
 31
0.0
100
AcDbText
 73
2
  0
LWPOLYLINE
  5
11F
330
17
100
AcDbEntity
  8
LED
100
AcDbPolyline
 90
5
 70
0
 10
242.3215241089179
 20
35.47565145679181
 10
237.3934485432082
 20
34.63062410891792
 10
238.2384758910821
 20
29.702548543208195
 10
243.1665514567918
 20
30.547575891082086
 10
242.3215241089179
 20
35.47565145679181
  0
CIRCLE
  5
120
330
17
100
AcDbEntity
  8
LED
100
AcDbCircle
 10
237.59483422148259
 20
33.752020780568905
 30
0.0
 40
0.45
  0
TEXT
  5
121
330
17
100
AcDbEntity
  8
LED-REF
100
AcDbText
 10
240.28
 20
32.5891
 30
0.0
 40
1.1
  1
LED111
 50
189.73
 72
1
 11
240.28
 21
32.5891
 31
0.0
100
AcDbText
 73
2
  0
LWPOLYLINE
  5
122
330
17
100
AcDbEntity
  8
LED
100
AcDbPolyline
 90
5
 70
0
 10
212.3599
 20
32.5
 10
207.3599
 20
32.5
 10
207.3599
 20
27.5
 10
212.3599
 20
27.5
 10
212.3599
 20
32.5
  0
CIRCLE
  5
123
330
17
100
AcDbEntity
  8
LED
100
AcDbCircle
 10
207.40990000000002
 20
31.6
 30
0.0
 40
0.45
  0
TEXT
  5
124
330
17
100
AcDbEntity
  8
LED-REF
100
AcDbText
 10
209.8599
 20
30.0
 30
0.0
 40
1.1
  1
LED112
 50
180.0
 72
1
 11
209.8599
 21
30.0
 31
0.0
100
AcDbText
 73
2
  0
LWPOLYLINE
  5
125
330
17
100
AcDbEntity
  8
LED
100
AcDbPolyline
 90
5
 70
0
 10
182.3263514567918
 20
34.63062410891792
 10
177.39827589108208
 20
35.47565145679181
 10
176.55324854320818
 20
30.547575891082086
 10
181.4813241089179
 20
29.702548543208195
 10
182.3263514567918
 20
34.63062410891792
  0
CIRCLE
  5
126
330
17
100
AcDbEntity
  8
LED
100
AcDbCircle
 10
177.29545172412188
 20
34.58014758148532
 30
0.0
 40
0.45
  0
TEXT
  5
127
330
17
100
AcDbEntity
  8
LED-REF
100
AcDbText
 10
179.4398
 20
32.5891
 30
0.0
 40
1.1
  1
LED113
 50
170.27
 72
1
 11
179.4398
 21
32.5891
 31
0.0
100
AcDbText
 73
2
  0
LWPOLYLINE
  5
128
330
17
100
AcDbEntity
  8
LED
100
AcDbPolyline
 90
5
 70
0
 10
153.08473087656725
 20
41.80646970796049
 10
148.3703302920395
 20
43.472130876567256
 10
146.70466912343275
 20
38.75773029203951
 10
151.4190697079605
 20
37.09206912343274
 10
153.08473087656725
 20
41.80646970796049
  0
CIRCLE
  5
129
330
17
100
AcDbEntity
  8
LED
100
AcDbCircle
 10
148.11765528753557
 20
42.60688215966619
 30
0.0
 40
0.45
  0
TEXT
  5
12A
330
17
100
AcDbEntity
  8
LED-REF
100
AcDbText
 10
149.8947
 20
40.2821
 30
0.0
 40
1.1
  1
LED114
 50
160.541
 72
1
 11
149.8947
 21
40.2821
 31
0.0
100
AcDbText
 73
2
  0
LWPOLYLINE
  5
12B
330
17
100
AcDbEntity
  8
LED
100
AcDbPolyline
 90
5
 70
0
 10
125.47656946163356
 20
53.82080915592934
 10
121.11149084407066
 20
56.259269461633565
 10
118.67303053836643
 20
51.894190844070664
 10
123.03810915592933
 20
49.45573053836644
 10
125.47656946163356
 20
53.82080915592934
  0
CIRCLE
  5
12C
330
17
100
AcDbEntity
  8
LED
100
AcDbCircle
 10
120.71621877521953
 20
55.4491707074152
 30
0.0
 40
0.45
  0
TEXT
  5
12D
330
17
100
AcDbEntity
  8
LED-REF
100
AcDbText
 10
122.0748
 20
52.8575
 30
0.0
 40
1.1
  1
LED115
 50
150.811
 72
1
 11
122.0748
 21
52.8575
 31
0.0
100
AcDbText
 73
2
  0
LWPOLYLINE
  5
12E
330
17
100
AcDbEntity
  8
LED
100
AcDbPolyline
 90
5
 70
0
 10
100.2959399090543
 20
70.32813441746343
 10
96.40576558253656
 20
73.4692399090543
 10
93.2646600909457
 20
69.57906558253656
 10
97.15483441746343
 20
66.4379600909457
 10
100.2959399090543
 20
70.32813441746343
  0
CIRCLE
  5
12F
330
17
100
AcDbEntity
  8
LED
100
AcDbCircle
 10
95.87926833731538
 20
72.73759747536519
 30
0.0
 40
0.45
  0
TEXT
  5
130
330
17
100
AcDbEntity
  8
LED-REF
100
AcDbText
 10
96.7803
 20
69.9536
 30
0.0
 40
1.1
  1
LED116
 50
141.081
 72
1
 11
96.7803
 21
69.9536
 31
0.0
100
AcDbText
 73
2
  0
LWPOLYLINE
  5
131
330
17
100
AcDbEntity
  8
LED
100
AcDbPolyline
 90
5
 70
0
 10
78.26726619182422
 20
90.85348440855823
 10
74.96391559144178
 20
94.60686619182422
 10
71.21053380817578
 20
91.30351559144178
 10
74.51388440855823
 20
87.55013380817579
 10
78.26726619182422
 20
90.85348440855823
  0
CIRCLE
  5
132
330
17
100
AcDbEntity
  8
LED
100
AcDbCircle
 10
74.32134037645771
 20
93.97472926592272
 30
0.0
 40
0.45
  0
TEXT
  5
133
330
17
100
AcDbEntity
  8
LED-REF
100
AcDbText
 10
74.7389
 20
91.0785
 30
0.0
 40
1.1
  1
LED117
 50
131.351
 72
1
 11
74.7389
 21
91.0785
 31
0.0
100
AcDbText
 73
2
  0
LWPOLYLINE
  5
134
330
17
100
AcDbEntity
  8
LED
100
AcDbPolyline
 90
5
 70
0
 10
60.02429645554205
 20
114.8066680794599
 10
57.402731920540106
 20
119.06429645554206
 10
53.145103544457946
 20
116.44273192054011
 10
55.76666807945989
 20
112.18510354445795
 10
60.02429645554205
 20
114.8066680794599
  0
CIRCLE
  5
135
330
17
100
AcDbEntity
  8
LED
100
AcDbCircle
 10
56.66257445819534
 20
118.54983855548089
 30
0.0
 40
0.45
  0
TEXT
  5
136
330
17
100
AcDbEntity
  8
LED-REF
100
AcDbText
 10
56.5847
 20
115.6247
 30
0.0
 40
1.1
  1
LED118
 50
121.622
 72
1
 11
56.5847
 21
115.6247
 31
0.0
100
AcDbText
 73
2
  0
LWPOLYLINE
  5
137
330
17
100
AcDbEntity
  8
LED
100
AcDbPolyline
 90
5
 70
0
 10
46.091766380833675
 20
141.4982247619665
 10
44.22747523803349
 20
146.13766638083365
 10
39.588033619166325
 20
144.27337523803348
 10
41.45232476196651
 20
139.63393361916633
 10
46.091766380833675
 20
141.4982247619665
  0
CIRCLE
  5
138
330
17
100
AcDbEntity
  8
LED
100
AcDbCircle
 10
43.4110186580654
 20
145.75569955894096
 30
0.0
 40
0.45
  0
TEXT
  5
139
330
17
100
AcDbEntity
  8
LED-REF
100
AcDbText
 10
42.8399
 20
142.8858
 30
0.0
 40
1.1
  1
LED119
 50
111.892
 72
1
 11
42.8399
 21
142.8858
 31
0.0
100
AcDbText
 73
2
  0
LWPOLYLINE
  5
13A
330
17
100
AcDbEntity
  8
LED
100
AcDbPolyline
 90
5
 70
0
 10
252.2863
 20
171.10913390593274
 10
248.75076609406727
 20
167.5736
 10
252.2863
 20
164.03806609406726
 10
255.82183390593275
 20
167.5736
 10
252.2863
 20
171.10913390593274
  0
CIRCLE
  5
13B
330
17
100
AcDbEntity
  8
LED
100
AcDbCircle
 10
249.4225175361945
 20
166.97255923599144
 30
0.0
 40
0.45
  0
TEXT
  5
13C
330
17
100
AcDbEntity
  8
LED-REF
100
AcDbText
 10
252.2863
 20
167.5736
 30
0.0
 40
1.1
  1
LED12
 50
225.0
 72
1
 11
252.2863
 21
167.5736
 31
0.0
100
AcDbText
 73
2
  0
LWPOLYLINE
  5
13D
330
17
100
AcDbEntity
  8
LED
100
AcDbPolyline
 90
5
 70
0
 10
36.87058084619368
 20
170.1605016700854
 10
35.81719832991457
 20
175.04828084619368
 10
30.929419153806315
 20
173.99489832991458
 10
31.982801670085426
 20
169.1071191538063
 10
36.87058084619368
 20
170.1605016700854
  0
CIRCLE
  5
13E
330
17
100
AcDbEntity
  8
LED
100
AcDbCircle
 10
34.94793190337788
 20
174.80979420150234
 30
0.0
 40
0.45
  0
TEXT
  5
13F
330
17
100
AcDbEntity
  8
LED-REF
100
AcDbText
 10
33.9
 20
172.0777
 30
0.0
 40
1.1
  1
LED120
 50
102.162
 72
1
 11
33.9
 21
172.0777
 31
0.0
100
AcDbText
 73
2
  0
LWPOLYLINE
  5
140
330
17
100
AcDbEntity
  8
LED
100
AcDbPolyline
 90
5
 70
0
 10
32.625932372803284
 20
199.9689359403249
 10
32.4137640596751
 20
204.9644323728033
 10
27.418267627196713
 20
204.7522640596751
 10
27.630435940324894
 20
199.75676762719672
 10
32.625932372803284
 20
199.9689359403249
  0
CIRCLE
  5
141
330
17
100
AcDbEntity
  8
LED
100
AcDbCircle
 10
31.516696384960273
 20
204.87628711211545
 30
0.0
 40
0.45
  0
TEXT
  5
142
330
17
100
AcDbEntity
  8
LED-REF
100
AcDbText
 10
30.0221
 20
202.3606
 30
0.0
 40
1.1
  1
LED121
 50
92.432
 72
1
 11
30.0221
 21
202.3606
 31
0.0
100
AcDbText
 73
2
  0
LWPOLYLINE
  5
143
330
17
100
AcDbEntity
  8
LED
100
AcDbPolyline
 90
5
 70
0
 10
33.48002105340519
 20
230.06591558181665
 10
34.11508441818334
 20
235.0254210534052
 10
29.155578946594805
 20
235.66048441818336
 10
28.520515581816653
 20
230.7009789465948
 10
33.48002105340519
 20
230.06591558181665
  0
CIRCLE
  5
144
330
17
100
AcDbEntity
  8
LED
100
AcDbCircle
 10
33.21602279964962
 20
235.09013740434938
 30
0.0
 40
0.45
  0
TEXT
  5
145
330
17
100
AcDbEntity
  8
LED-REF
100
AcDbText
 10
31.3178
 20
232.8632
 30
0.0
 40
1.1
  1
LED122
 50
82.703
 72
1
 11
31.3178
 21
232.8632
 31
0.0
100
AcDbText
 73
2
  0
LWPOLYLINE
  5
146
330
17
100
AcDbEntity
  8
LED
100
AcDbPolyline
 90
5
 70
0
 10
39.408261381560564
 20
259.5856270172268
 10
40.87237298277319
 20
264.36646138156055
 10
36.09153861843943
 20
265.8305729827732
 10
34.6274270172268
 20
261.04973861843945
 10
39.408261381560564
 20
259.5856270172268
  0
CIRCLE
  5
147
330
17
100
AcDbEntity
  8
LED
100
AcDbCircle
 10
39.99718168118099
 20
264.5821931261355
 30
0.0
 40
0.45
  0
TEXT
  5
148
330
17
100
AcDbEntity
  8
LED-REF
100
AcDbText
 10
37.7499
 20
262.7081
 30
0.0
 40
1.1
  1
LED123
 50
72.973
 72
1
 11
37.7499
 21
262.7081
 31
0.0
100
AcDbText
 73
2
  0
LWPOLYLINE
  5
149
330
17
100
AcDbEntity
  8
LED
100
AcDbPolyline
 90
5
 70
0
 10
50.23999102802891
 20
287.678871293786
 10
52.49102870621399
 20
292.1434910280289
 10
48.026408971971094
 20
294.394528706214
 10
45.775371293786016
 20
289.9299089719711
 10
50.23999102802891
 20
287.678871293786
  0
CIRCLE
  5
14A
330
17
100
AcDbEntity
  8
LED
100
AcDbCircle
 10
51.66488677726842
 20
292.5040316127598
 30
0.0
 40
0.45
  0
TEXT
  5
14B
330
17
100
AcDbEntity
  8
LED-REF
100
AcDbText
 10
49.1332
 20
291.0367
 30
0.0
 40
1.1
  1
LED124
 50
63.243
 72
1
 11
49.1332
 21
291.0367
 31
0.0
100
AcDbText
 73
2
  0
LWPOLYLINE
  5
14C
330
17
100
AcDbEntity
  8
LED
100
AcDbPolyline
 90
5
 70
0
 10
65.66383957383167
 20
313.5374286776119
 10
68.6369713223881
 20
317.55743957383163
 10
64.61696042616833
 20
320.5305713223881
 10
61.64382867761189
 20
316.51056042616835
 10
65.66383957383167
 20
313.5374286776119
  0
CIRCLE
  5
14D
330
17
100
AcDbEntity
  8
LED
100
AcDbCircle
 10
67.88363804358299
 20
318.0524031796096
 30
0.0
 40
0.45
  0
TEXT
  5
14E
330
17
100
AcDbEntity
  8
LED-REF
100
AcDbText
 10
65.1404
 20
317.034
 30
0.0
 40
1.1
  1
LED125
 50
53.514
 72
1
 11
65.1404
 21
317.034
 31
0.0
100
AcDbText
 73
2
  0
LWPOLYLINE
  5
14F
330
17
100
AcDbEntity
  8
LED
100
AcDbPolyline
 90
5
 70
0
 10
85.23587027654317
 20
336.4173623095061
 10
88.84563769049389
 20
339.8770702765431
 10
85.38592972345684
 20
343.48683769049387
 10
81.77616230950612
 20
340.0271297234568
 10
85.23587027654317
 20
336.4173623095061
  0
CIRCLE
  5
150
330
17
100
AcDbEntity
  8
LED
100
AcDbCircle
 10
88.18679258228771
 20
340.4922313313839
 30
0.0
 40
0.45
  0
TEXT
  5
151
330
17
100
AcDbEntity
  8
LED-REF
100
AcDbText
 10
85.3109
 20
339.9521
 30
0.0
 40
1.1
  1
LED126
 50
43.784
 72
1
 11
85.3109
 21
339.9521
 31
0.0
100
AcDbText
 73
2
  0
LWPOLYLINE
  5
152
330
17
100
AcDbEntity
  8
LED
100
AcDbPolyline
 90
5
 70
0
 10
108.3930595674205
 20
355.6604895449017
 10
112.53561045509834
 20
358.46035956742054
 10
109.73574043257952
 20
362.60291045509837
 10
105.59318954490168
 20
359.8030404325795
 10
108.3930595674205
 20
355.6604895449017
  0
CIRCLE
  5
153
330
17
100
AcDbEntity
  8
LED
100
AcDbCircle
 10
111.99020834216817
 20
359.1780200269773
 30
0.0
 40
0.45
  0
TEXT
  5
154
330
17
100
AcDbEntity
  8
LED-REF
100
AcDbText
 10
109.0644
 20
359.1317
 30
0.0
 40
1.1
  1
LED127
 50
34.054
 72
1
 11
109.0644
 21
359.1317
 31
0.0
100
AcDbText
 73
2
  0
LWPOLYLINE
  5
155
330
17
100
AcDbEntity
  8
LED
100
AcDbPolyline
 90
5
 70
0
 10
134.4693631706296
 20
370.71328271961136
 10
139.0255172803886
 20
372.7727631706296
 10
136.9660368293704
 20
377.3289172803886
 10
132.4098827196114
 20
375.26943682937036
 10
134.4693631706296
 20
370.71328271961136
  0
CIRCLE
  5
156
330
17
100
AcDbEntity
  8
LED
100
AcDbCircle
 10
138.60924925810775
 20
373.572276105876
 30
0.0
 40
0.45
  0
TEXT
  5
157
330
17
100
AcDbEntity
  8
LED-REF
100
AcDbText
 10
135.7177
 20
374.0211
 30
0.0
 40
1.1
  1
LED128
 50
24.324
 72
1
 11
135.7177
 21
374.0211
 31
0.0
100
AcDbText
 73
2
  0
LWPOLYLINE
  5
158
330
17
100
AcDbEntity
  8
LED
100
AcDbPolyline
 90
5
 70
0
 10
162.7144343618222
 20
381.14260981818575
 10
167.5530901818142
 20
382.4025343618222
 10
166.2931656381778
 20
387.2411901818142
 10
161.4545098181858
 20
385.9812656381778
 10
162.7144343618222
 20
381.14260981818575
  0
CIRCLE
  5
159
330
17
100
AcDbEntity
  8
LED
100
AcDbCircle
 10
167.27791720575973
 20
383.26089316398435
 30
0.0
 40
0.45
  0
TEXT
  5
15A
330
17
100
AcDbEntity
  8
LED-REF
100
AcDbText
 10
164.5038
 20
384.1919
 30
0.0
 40
1.1
  1
LED129
 50
14.595
 72
1
 11
164.5038
 21
384.1919
 31
0.0
100
AcDbText
 73
2
  0
LWPOLYLINE
  5
15B
330
17
100
AcDbEntity
  8
LED
100
AcDbPolyline
 90
5
 70
0
 10
227.1567669529664
 20
155.10636217847897
 10
222.32713782152103
 20
153.81226695296635
 10
223.62123304703363
 20
148.98263782152102
 10
228.45086217847899
 20
150.27673304703364
 10
227.1567669529664
 20
155.10636217847897
  0
CIRCLE
  5
15C
330
17
100
AcDbEntity
  8
LED
100
AcDbCircle
 10
222.60837125342775
 20
152.95587466156132
 30
0.0
 40
0.45
  0
TEXT
  5
15D
330
17
100
AcDbEntity
  8
LED-REF
100
AcDbText
 10
225.389
 20
152.0445
 30
0.0
 40
1.1
  1
LED13
 50
195.0
 72
1
 11
225.389
 21
152.0445
 31
0.0
100
AcDbText
 73
2
  0
LWPOLYLINE
  5
15E
330
17
100
AcDbEntity
  8
LED
100
AcDbPolyline
 90
5
 70
0
 10
192.31582746502778
 20
386.64848609236975
 10
197.2978139076302
 20
387.0725274650278
 10
196.8737725349722
 20
392.0545139076302
 10
191.89178609236978
 20
391.63047253497217
 10
192.31582746502778
 20
386.64848609236975
  0
CIRCLE
  5
15F
330
17
100
AcDbEntity
  8
LED
100
AcDbCircle
 10
197.17166659612573
 20
387.96504461096964
 30
0.0
 40
0.45
  0
TEXT
  5
160
330
17
100
AcDbEntity
  8
LED-REF
100
AcDbText
 10
194.5948
 20
389.3515
 30
0.0
 40
1.1
  1
LED130
 50
4.865
 72
1
 11
194.5948
 21
389.3515
 31
0.0
100
AcDbText
 73
2
  0
LWPOLYLINE
  5
161
330
17
100
AcDbEntity
  8
LED
100
AcDbPolyline
 90
5
 70
0
 10
192.220055405315
 20
416.7639828800878
 10
197.20671711991218
 20
417.12895540531497
 10
196.841744594685
 20
422.1156171199122
 10
191.85508288008782
 20
421.750644594685
 10
192.220055405315
 20
416.7639828800878
  0
CIRCLE
  5
162
330
17
100
AcDbEntity
  8
LED
100
AcDbCircle
 10
197.09115544822532
 20
418.0229047886902
 30
0.0
 40
0.45
  0
TEXT
  5
163
330
17
100
AcDbEntity
  8
LED-REF
100
AcDbText
 10
194.5309
 20
419.4398
 30
0.0
 40
1.1
  1
LED131
 50
4.186
 72
1
 11
194.5309
 21
419.4398
 31
0.0
100
AcDbText
 73
2
  0
LWPOLYLINE
  5
164
330
17
100
AcDbEntity
  8
LED
100
AcDbPolyline
 90
5
 70
0
 10
162.30297847857776
 20
411.99213948607166
 10
167.18336051392833
 20
413.07927847857775
 10
166.09622152142225
 20
417.9596605139284
 10
161.21583948607167
 20
416.8725215214223
 10
162.30297847857776
 20
411.99213948607166
  0
CIRCLE
  5
165
330
17
100
AcDbEntity
  8
LED
100
AcDbCircle
 10
166.93887167492375
 20
413.94687585501583
 30
0.0
 40
0.45
  0
TEXT
  5
166
330
17
100
AcDbEntity
  8
LED-REF
100
AcDbText
 10
164.1996
 20
414.9759
 30
0.0
 40
1.1
  1
LED132
 50
12.558
 72
1
 11
164.1996
 21
414.9759
 31
0.0
100
AcDbText
 73
2
  0
LWPOLYLINE
  5
167
330
17
100
AcDbEntity
  8
LED
100
AcDbPolyline
 90
5
 70
0
 10
133.39942385006032
 20
402.91528835648376
 10
138.06951164351625
 20
404.70142385006034
 10
136.28337614993967
 20
409.3715116435162
 10
131.61328835648374
 20
407.58537614993963
 10
133.39942385006032
 20
402.91528835648376
  0
CIRCLE
  5
168
330
17
100
AcDbEntity
  8
LED
100
AcDbCircle
 10
137.7013063767379
 20
405.5241782979466
 30
0.0
 40
0.45
  0
TEXT
  5
169
330
17
100
AcDbEntity
  8
LED-REF
100
AcDbText
 10
134.8414
 20
406.1434
 30
0.0
 40
1.1
  1
LED133
 50
20.93
 72
1
 11
134.8414
 21
406.1434
 31
0.0
100
AcDbText
 73
2
  0
LWPOLYLINE
  5
16A
330
17
100
AcDbEntity
  8
LED
100
AcDbPolyline
 90
5
 70
0
 10
106.12560175795062
 20
389.7267372958961
 10
110.48586270410392
 20
392.1738017579506
 10
108.03879824204938
 20
396.5340627041039
 10
103.67853729589608
 20
394.0869982420494
 10
106.12560175795062
 20
389.7267372958961
  0
CIRCLE
  5
16B
330
17
100
AcDbEntity
  8
LED
100
AcDbCircle
 10
110.00178849147257
 20
392.9341780836377
 30
0.0
 40
0.45
  0
TEXT
  5
16C
330
17
100
AcDbEntity
  8
LED-REF
100
AcDbText
 10
107.0822
 20
393.1304
 30
0.0
 40
1.1
  1
LED134
 50
29.302
 72
1
 11
107.0822
 21
393.1304
 31
0.0
100
AcDbText
 73
2
  0
LWPOLYLINE
  5
16D
330
17
100
AcDbEntity
  8
LED
100
AcDbPolyline
 90
5
 70
0
 10
81.06256744430908
 20
372.7076277873845
 10
85.02007221261543
 20
375.7634674443091
 10
81.96423255569093
 20
379.72097221261544
 10
78.00672778738458
 20
376.6651325556909
 10
81.06256744430908
 20
372.7076277873845
  0
CIRCLE
  5
16E
330
17
100
AcDbEntity
  8
LED
100
AcDbCircle
 10
84.43044602668596
 20
376.44525990603495
 30
0.0
 40
0.45
  0
TEXT
  5
16F
330
17
100
AcDbEntity
  8
LED-REF
100
AcDbText
 10
81.5134
 20
376.2143
 30
0.0
 40
1.1
  1
LED135
 50
37.674
 72
1
 11
81.5134
 21
376.2143
 31
0.0
100
AcDbText
 73
2
  0
LWPOLYLINE
  5
170
330
17
100
AcDbEntity
  8
LED
100
AcDbPolyline
 90
5
 70
0
 10
58.744803327148226
 20
352.22065637808447
 10
62.215143621915544
 20
355.82020332714825
 10
58.61559667285177
 20
359.29054362191556
 10
55.145256378084454
 20
355.6909966728518
 10
58.744803327148226
 20
352.22065637808447
  0
CIRCLE
  5
171
330
17
100
AcDbEntity
  8
LED
100
AcDbCircle
 10
61.53252176813639
 20
356.4088691107157
 30
0.0
 40
0.45
  0
TEXT
  5
172
330
17
100
AcDbEntity
  8
LED-REF
100
AcDbText
 10
58.6802
 20
355.7556
 30
0.0
 40
1.1
  1
LED136
 50
46.047
 72
1
 11
58.6802
 21
355.7556
 31
0.0
100
AcDbText
 73
2
  0
LWPOLYLINE
  5
173
330
17
100
AcDbEntity
  8
LED
100
AcDbPolyline
 90
5
 70
0
 10
39.64770112972906
 20
328.70253235161135
 10
42.556967648388664
 20
332.7690011297291
 10
38.49049887027094
 20
335.67826764838867
 10
35.581232351611334
 20
331.61179887027095
 10
39.64770112972906
 20
328.70253235161135
  0
CIRCLE
  5
174
330
17
100
AcDbEntity
  8
LED
100
AcDbCircle
 10
41.795910603140875
 20
333.2520044153066
 30
0.0
 40
0.45
  0
TEXT
  5
175
330
17
100
AcDbEntity
  8
LED-REF
100
AcDbText
 10
39.0691
 20
332.1904
 30
0.0
 40
1.1
  1
LED137
 50
54.419
 72
1
 11
39.0691
 21
332.1904
 31
0.0
100
AcDbText
 73
2
  0
LWPOLYLINE
  5
176
330
17
100
AcDbEntity
  8
LED
100
AcDbPolyline
 90
5
 70
0
 10
24.17826732732065
 20
302.65444451959877
 10
26.46445548040123
 20
307.10116732732064
 10
22.017732672679347
 20
309.3873554804012
 10
19.731544519598767
 20
304.9406326726793
 10
24.17826732732065
 20
302.65444451959877
  0
CIRCLE
  5
177
330
17
100
AcDbEntity
  8
LED
100
AcDbCircle
 10
25.641183493480487
 20
307.4682139667979
 30
0.0
 40
0.45
  0
TEXT
  5
178
330
17
100
AcDbEntity
  8
LED-REF
100
AcDbText
 10
23.098
 20
306.0209
 30
0.0
 40
1.1
  1
LED138
 50
62.791
 72
1
 11
23.098
 21
306.0209
 31
0.0
100
AcDbText
 73
2
  0
LWPOLYLINE
  5
179
330
17
100
AcDbEntity
  8
LED
100
AcDbPolyline
 90
5
 70
0
 10
12.666410013068221
 20
274.6316052498774
 10
14.280794750122597
 20
279.3638100130682
 10
9.548589986931779
 20
280.97819475012255
 10
7.934205249877403
 20
276.24598998693176
 10
12.666410013068221
 20
274.6316052498774
  0
CIRCLE
  5
17A
330
17
100
AcDbEntity
  8
LED
100
AcDbCircle
 10
13.412854045377706
 20
279.6070772181061
 30
0.0
 40
0.45
  0
TEXT
  5
17B
330
17
100
AcDbEntity
  8
LED-REF
100
AcDbText
 10
11.1075
 20
277.8049
 30
0.0
 40
1.1
  1
LED139
 50
71.163
 72
1
 11
11.1075
 21
277.8049
 31
0.0
100
AcDbText
 73
2
  0
LWPOLYLINE
  5
17C
330
17
100
AcDbEntity
  8
LED
100
AcDbPolyline
 90
5
 70
0
 10
197.392662178479
 20
153.81226695296635
 10
192.56303304703366
 20
155.10636217847897
 10
191.26893782152104
 20
150.27673304703364
 10
196.09856695296637
 20
148.98263782152102
 10
197.392662178479
 20
153.81226695296635
  0
CIRCLE
  5
17D
330
17
100
AcDbEntity
  8
LED
100
AcDbCircle
 10
192.37839219775583
 20
154.22408798256367
 30
0.0
 40
0.45
  0
TEXT
  5
17E
330
17
100
AcDbEntity
  8
LED-REF
100
AcDbText
 10
194.3308
 20
152.0445
 30
0.0
 40
1.1
  1
LED14
 50
165.0
 72
1
 11
194.3308
 21
152.0445
 31
0.0
100
AcDbText
 73
2
  0
LWPOLYLINE
  5
17F
330
17
100
AcDbEntity
  8
LED
100
AcDbPolyline
 90
5
 70
0
 10
5.357427975414524
 20
245.2311977481604
 10
6.265602251839596
 20
250.14802797541452
 10
1.3487720245854766
 20
251.05620225183958
 10
0.44059774816040376
 20
246.13937202458547
 10
5.357427975414524
 20
245.2311977481604
  0
CIRCLE
  5
180
330
17
100
AcDbEntity
  8
LED
100
AcDbCircle
 10
5.371491068169604
 20
250.2623310428985
 30
0.0
 40
0.45
  0
TEXT
  5
181
330
17
100
AcDbEntity
  8
LED-REF
100
AcDbText
 10
3.3531
 20
248.1437
 30
0.0
 40
1.1
  1
LED140
 50
79.535
 72
1
 11
3.3531
 21
248.1437
 31
0.0
100
AcDbText
 73
2
  0
LWPOLYLINE
  5
182
330
17
100
AcDbEntity
  8
LED
100
AcDbPolyline
 90
5
 70
0
 10
2.4070281143904433
 20
215.07996379841995
 10
2.589636201580057
 20
220.07662811439045
 10
-2.4070281143904433
 20
220.25923620158005
 10
-2.589636201580057
 20
215.26257188560956
 10
2.4070281143904433
 20
215.07996379841995
  0
CIRCLE
  5
183
330
17
100
AcDbEntity
  8
LED
100
AcDbCircle
 10
1.688410543833471
 20
220.05953092692488
 30
0.0
 40
0.45
  0
TEXT
  5
184
330
17
100
AcDbEntity
  8
LED-REF
100
AcDbText
 10
0.0
 20
217.6696
 30
0.0
 40
1.1
  1
LED141
 50
87.907
 72
1
 11
0.0
 21
217.6696
 31
0.0
100
AcDbText
 73
2
  0
LWPOLYLINE
  5
185
330
17
100
AcDbEntity
  8
LED
100
AcDbPolyline
 90
5
 70
0
 10
3.87812776607121
 20
184.8204222239841
 10
3.3312777760158907
 20
189.79042776607122
 10
-1.6387277660712103
 20
189.2435777760159
 10
-1.0918777760158909
 20
184.2735722339288
 10
3.87812776607121
 20
184.8204222239841
  0
CIRCLE
  5
186
330
17
100
AcDbEntity
  8
LED
100
AcDbCircle
 10
2.4421452783407656
 20
189.6422947124404
 30
0.0
 40
0.45
  0
TEXT
  5
187
330
17
100
AcDbEntity
  8
LED-REF
100
AcDbText
 10
1.1197
 20
187.032
 30
0.0
 40
1.1
  1
LED142
 50
96.279
 72
1
 11
1.1197
 21
187.032
 31
0.0
100
AcDbText
 73
2
  0
LWPOLYLINE
  5
188
330
17
100
AcDbEntity
  8
LED
100
AcDbPolyline
 90
5
 70
0
 10
9.739337623099425
 20
155.0976155446176
 10
8.474684455382382
 20
159.93503762309942
 10
3.637262376900575
 20
158.67038445538236
 10
4.9019155446176175
 20
153.83296237690055
 10
9.739337623099425
 20
155.0976155446176
  0
CIRCLE
  5
189
330
17
100
AcDbEntity
  8
LED
100
AcDbCircle
 10
7.616595012932828
 20
159.65902583212554
 30
0.0
 40
0.45
  0
TEXT
  5
18A
330
17
100
AcDbEntity
  8
LED-REF
100
AcDbText
 10
6.6883
 20
156.884
 30
0.0
 40
1.1
  1
LED143
 50
104.651
 72
1
 11
6.6883
 21
156.884
 31
0.0
100
AcDbText
 73
2
  0
LWPOLYLINE
  5
18B
330
17
100
AcDbEntity
  8
LED
100
AcDbPolyline
 90
5
 70
0
 10
19.865821352728005
 20
126.54488170391458
 10
17.910318296085414
 20
131.146621352728
 10
13.308578647271991
 20
129.19111829608542
 10
15.264081703914584
 20
124.58937864727199
 10
19.865821352728005
 20
126.54488170391458
  0
CIRCLE
  5
18C
330
17
100
AcDbEntity
  8
LED
100
AcDbCircle
 10
17.101560189865424
 20
130.7486134060442
 30
0.0
 40
0.45
  0
TEXT
  5
18D
330
17
100
AcDbEntity
  8
LED-REF
100
AcDbText
 10
16.5872
 20
127.868
 30
0.0
 40
1.1
  1
LED144
 50
113.023
 72
1
 11
16.5872
 21
127.868
 31
0.0
100
AcDbText
 73
2
  0
LWPOLYLINE
  5
18E
330
17
100
AcDbEntity
  8
LED
100
AcDbPolyline
 90
5
 70
0
 10
34.04162851047707
 20
99.77084720701338
 10
31.436952792986634
 20
104.03882851047707
 10
27.168971489522935
 20
101.43415279298664
 10
29.773647207013365
 20
97.16617148952294
 10
34.04162851047707
 20
99.77084720701338
  0
CIRCLE
  5
18F
330
17
100
AcDbEntity
  8
LED
100
AcDbCircle
 10
30.694762915538075
 20
103.52730706829416
 30
0.0
 40
0.45
  0
TEXT
  5
190
330
17
100
AcDbEntity
  8
LED-REF
100
AcDbText
 10
30.6053
 20
100.6025
 30
0.0
 40
1.1
  1
LED145
 50
121.395
 72
1
 11
30.6053
 21
100.6025
 31
0.0
100
AcDbText
 73
2
  0
LWPOLYLINE
  5
191
330
17
100
AcDbEntity
  8
LED
100
AcDbPolyline
 90
5
 70
0
 10
51.964797916643676
 20
75.34623755232961
 10
48.76646244767039
 20
79.18949791664367
 10
44.92320208335633
 20
75.99116244767039
 10
48.12153755232961
 20
72.14790208335633
 10
51.964797916643676
 20
75.34623755232961
  0
CIRCLE
  5
192
330
17
100
AcDbEntity
  8
LED
100
AcDbCircle
 10
48.10665893678359
 20
78.57536492858534
 30
0.0
 40
0.45
  0
TEXT
  5
193
330
17
100
AcDbEntity
  8
LED-REF
100
AcDbText
 10
48.444
 20
75.6687
 30
0.0
 40
1.1
  1
LED146
 50
129.767
 72
1
 11
48.444
 21
75.6687
 31
0.0
100
AcDbText
 73
2
  0
LWPOLYLINE
  5
194
330
17
100
AcDbEntity
  8
LED
100
AcDbPolyline
 90
5
 70
0
 10
73.25312591291926
 20
53.791462086515125
 10
69.52923791348486
 20
57.128025912919256
 10
66.19267408708073
 20
53.404137913484874
 10
69.91656208651513
 20
50.06757408708074
 10
73.25312591291926
 20
53.791462086515125
  0
CIRCLE
  5
195
330
17
100
AcDbEntity
  8
LED
100
AcDbCircle
 10
68.96589530472647
 20
56.42436043475703
 30
0.0
 40
0.45
  0
TEXT
  5
196
330
17
100
AcDbEntity
  8
LED-REF
100
AcDbText
 10
69.7229
 20
53.5978
 30
0.0
 40
1.1
  1
LED147
 50
138.14
 72
1
 11
69.7229
 21
53.5978
 31
0.0
100
AcDbText
 73
2
  0
LWPOLYLINE
  5
197
330
17
100
AcDbEntity
  8
LED
100
AcDbPolyline
 90
5
 70
0
 10
97.4531093143972
 20
35.56609769154804
 10
93.28310230845196
 20
38.3249093143972
 10
90.5242906856028
 20
34.154902308451966
 10
94.69429769154803
 20
31.3960906856028
 10
97.4531093143972
 20
35.56609769154804
  0
CIRCLE
  5
198
330
17
100
AcDbEntity
  8
LED
100
AcDbCircle
 10
92.82821628639856
 20
37.54671993709857
 30
0.0
 40
0.45
  0
TEXT
  5
199
330
17
100
AcDbEntity
  8
LED-REF
100
AcDbText
 10
93.9887
 20
34.8605
 30
0.0
 40
1.1
  1
LED148
 50
146.512
 72
1
 11
93.9887
 21
34.8605
 31
0.0
100
AcDbText
 73
2
  0
LWPOLYLINE
  5
19A
330
17
100
AcDbEntity
  8
LED
100
AcDbPolyline
 90
5
 70
0
 10
124.04875648398574
 20
21.058395040403397
 10
119.52150495959661
 20
23.18065648398574
 10
117.39924351601427
 20
18.6534049595966
 10
121.9264950404034
 20
16.531143516014257
 10
124.04875648398574
 20
21.058395040403397
  0
CIRCLE
  5
19B
330
17
100
AcDbEntity
  8
LED
100
AcDbCircle
 10
119.18477041499567
 20
22.344528595159872
 30
0.0
 40
0.45
  0
TEXT
  5
19C
330
17
100
AcDbEntity
  8
LED-REF
100
AcDbText
 10
120.724
 20
19.8559
 30
0.0
 40
1.1
  1
LED149
 50
154.884
 72
1
 11
120.724
 21
19.8559
 31
0.0
100
AcDbText
 73
2
  0
LWPOLYLINE
  5
19D
330
17
100
AcDbEntity
  8
LED
100
AcDbPolyline
 90
5
 70
0
 10
170.96903390593275
 20
167.5736
 10
167.4335
 20
171.10913390593274
 10
163.89796609406727
 20
167.5736
 10
167.4335
 20
164.03806609406726
 10
170.96903390593275
 20
167.5736
  0
CIRCLE
  5
19E
330
17
100
AcDbEntity
  8
LED
100
AcDbCircle
 10
166.83245923599145
 20
170.4373824638055
 30
0.0
 40
0.45
  0
TEXT
  5
19F
330
17
100
AcDbEntity
  8
LED-REF
100
AcDbText
 10
167.4335
 20
167.5736
 30
0.0
 40
1.1
  1
LED15
 50
135.0
 72
1
 11
167.4335
 21
167.5736
 31
0.0
100
AcDbText
 73
2
  0
LWPOLYLINE
  5
1A0
330
17
100
AcDbEntity
  8
LED
100
AcDbPolyline
 90
5
 70
0
 10
152.47334381328142
 20
10.577663863703165
 10
147.68533613629685
 20
12.018143813281398
 10
146.2448561867186
 20
7.230136136296836
 10
151.03286386370317
 20
5.789656186718603
 10
152.47334381328142
 20
10.577663863703165
  0
CIRCLE
  5
1A1
330
17
100
AcDbEntity
  8
LED
100
AcDbCircle
 10
147.47392982214262
 20
11.141897631928394
 30
0.0
 40
0.45
  0
TEXT
  5
1A2
330
17
100
AcDbEntity
  8
LED-REF
100
AcDbText
 10
149.3591
 20
8.9039
 30
0.0
 40
1.1
  1
LED150
 50
163.256
 72
1
 11
149.3591
 21
8.9039
 31
0.0
100
AcDbText
 73
2
  0
LWPOLYLINE
  5
1A3
330
17
100
AcDbEntity
  8
LED
100
AcDbPolyline
 90
5
 70
0
 10
182.12105791485192
 20
4.347260107479803
 10
177.1743398925202
 20
5.075257914851912
 10
176.4463420851481
 20
0.12853989252019682
 10
181.3930601074798
 20
-0.599457914851913
 10
182.12105791485192
 20
4.347260107479803
  0
CIRCLE
  5
1A4
330
17
100
AcDbEntity
  8
LED
100
AcDbCircle
 10
177.09276746741654
 20
4.1775686927584825
 30
0.0
 40
0.45
  0
TEXT
  5
1A5
330
17
100
AcDbEntity
  8
LED-REF
100
AcDbText
 10
179.2837
 20
2.2379
 30
0.0
 40
1.1
  1
LED151
 50
171.628
 72
1
 11
179.2837
 21
2.2379
 31
0.0
100
AcDbText
 73
2
  0
LWPOLYLINE
  5
1A6
330
17
100
AcDbEntity
  8
LED
100
AcDbPolyline
 90
5
 70
0
 10
212.3599
 20
2.4999999999999996
 10
207.3599
 20
2.5000000000000004
 10
207.3599
 20
-2.4999999999999996
 10
212.3599
 20
-2.5000000000000004
 10
212.3599
 20
2.4999999999999996
  0
CIRCLE
  5
1A7
330
17
100
AcDbEntity
  8
LED
100
AcDbCircle
 10
207.40990000000002
 20
1.6000000000000003
 30
0.0
 40
0.45
  0
TEXT
  5
1A8
330
17
100
AcDbEntity
  8
LED-REF
100
AcDbText
 10
209.8599
 20
0.0
 30
0.0
 40
1.1
  1
LED152
 50
180.0
 72
1
 11
209.8599
 21
0.0
 31
0.0
100
AcDbText
 73
2
  0
LWPOLYLINE
  5
1A9
330
17
100
AcDbEntity
  8
LED
100
AcDbPolyline
 90
5
 70
0
 10
242.5454601074798
 20
5.075257914851912
 10
237.5987420851481
 20
4.347260107479803
 10
238.3267398925202
 20
-0.5994579148519126
 10
243.27345791485192
 20
0.12853989252019637
 10
242.5454601074798
 20
5.075257914851912
  0
CIRCLE
  5
1AA
330
17
100
AcDbEntity
  8
LED
100
AcDbCircle
 10
237.77924887069838
 20
3.464130841533816
 30
0.0
 40
0.45
  0
TEXT
  5
1AB
330
17
100
AcDbEntity
  8
LED-REF
100
AcDbText
 10
240.4361
 20
2.2379
 30
0.0
 40
1.1
  1
LED153
 50
188.372
 72
1
 11
240.4361
 21
2.2379
 31
0.0
100
AcDbText
 73
2
  0
LWPOLYLINE
  5
1AC
330
17
100
AcDbEntity
  8
LED
100
AcDbPolyline
 90
5
 70
0
 10
272.0344638637032
 20
12.018143813281396
 10
267.2464561867186
 20
10.577663863703165
 10
268.6869361362968
 20
5.789656186718604
 10
273.4749438132814
 20
7.230136136296835
 10
272.0344638637032
 20
12.018143813281396
  0
CIRCLE
  5
1AD
330
17
100
AcDbEntity
  8
LED
100
AcDbCircle
 10
267.55362265441255
 20
9.730227281341726
 30
0.0
 40
0.45
  0
TEXT
  5
1AE
330
17
100
AcDbEntity
  8
LED-REF
100
AcDbText
 10
270.3607
 20
8.9039
 30
0.0
 40
1.1
  1
LED154
 50
196.744
 72
1
 11
270.3607
 21
8.9039
 31
0.0
100
AcDbText
 73
2
  0
LWPOLYLINE
  5
1AF
330
17
100
AcDbEntity
  8
LED
100
AcDbPolyline
 90
5
 70
0
 10
300.19829504040337
 20
23.18065648398574
 10
295.6710435160142
 20
21.058395040403397
 10
297.7933049595966
 20
16.531143516014257
 10
302.32055648398574
 20
18.6534049595966
 10
300.19829504040337
 20
23.18065648398574
  0
CIRCLE
  5
1B0
330
17
100
AcDbEntity
  8
LED
100
AcDbCircle
 10
296.09832309110294
 20
20.264712380449176
 30
0.0
 40
0.45
  0
TEXT
  5
1B1
330
17
100
AcDbEntity
  8
LED-REF
100
AcDbText
 10
298.9958
 20
19.8559
 30
0.0
 40
1.1
  1
LED155
 50
205.116
 72
1
 11
298.9958
 21
19.8559
 31
0.0
100
AcDbText
 73
2
  0
LWPOLYLINE
  5
1B2
330
17
100
AcDbEntity
  8
LED
100
AcDbPolyline
 90
5
 70
0
 10
326.43669769154803
 20
38.3249093143972
 10
322.26669068560284
 20
35.56609769154804
 10
325.025502308452
 20
31.3960906856028
 10
329.1955093143972
 20
34.154902308451966
 10
326.43669769154803
 20
38.3249093143972
  0
CIRCLE
  5
1B3
330
17
100
AcDbEntity
  8
LED
100
AcDbCircle
 10
322.80497684777515
 20
34.843084546706386
 30
0.0
 40
0.45
  0
TEXT
  5
1B4
330
17
100
AcDbEntity
  8
LED-REF
100
AcDbText
 10
325.7311
 20
34.8605
 30
0.0
 40
1.1
  1
LED156
 50
213.488
 72
1
 11
325.7311
 21
34.8605
 31
0.0
100
AcDbText
 73
2
  0
LWPOLYLINE
  5
1B5
330
17
100
AcDbEntity
  8
LED
100
AcDbPolyline
 90
5
 70
0
 10
350.19046208651514
 20
57.128025912919256
 10
346.46657408708074
 20
53.79146208651513
 10
349.8031379134849
 20
50.06757408708074
 10
353.52702591291927
 20
53.40413791348487
 10
350.19046208651514
 20
57.128025912919256
  0
CIRCLE
  5
1B6
330
17
100
AcDbEntity
  8
LED
100
AcDbCircle
 10
347.10439445582784
 20
53.15452788488098
 30
0.0
 40
0.45
  0
TEXT
  5
1B7
330
17
100
AcDbEntity
  8
LED-REF
100
AcDbText
 10
349.9968
 20
53.5978
 30
0.0
 40
1.1
  1
LED157
 50
221.86
 72
1
 11
349.9968
 21
53.5978
 31
0.0
100
AcDbText
 73
2
  0
LWPOLYLINE
  5
1B8
330
17
100
AcDbEntity
  8
LED
100
AcDbPolyline
 90
5
 70
0
 10
370.95333755232963
 20
79.18949791664367
 10
367.7550020833563
 20
75.34623755232961
 10
371.5982624476704
 20
72.14790208335633
 10
374.7965979166437
 20
75.99116244767039
 10
370.95333755232963
 20
79.18949791664367
  0
CIRCLE
  5
1B9
330
17
100
AcDbEntity
  8
LED
100
AcDbCircle
 10
368.4787723036226
 20
74.80896977155757
 30
0.0
 40
0.45
  0
TEXT
  5
1BA
330
17
100
AcDbEntity
  8
LED-REF
100
AcDbText
 10
371.2758
 20
75.6687
 30
0.0
 40
1.1
  1
LED158
 50
230.233
 72
1
 11
371.2758
 21
75.6687
 31
0.0
100
AcDbText
 73
2
  0
LWPOLYLINE
  5
1BB
330
17
100
AcDbEntity
  8
LED
100
AcDbPolyline
 90
5
 70
0
 10
388.28274720701336
 20
104.03882851047707
 10
385.67807148952295
 20
99.77084720701338
 10
389.9460527929866
 20
97.16617148952294
 10
392.55072851047703
 20
101.43415279298664
 10
388.28274720701336
 20
104.03882851047707
  0
CIRCLE
  5
1BC
330
17
100
AcDbEntity
  8
LED
100
AcDbCircle
 10
386.4723548813213
 20
99.34468539089973
 30
0.0
 40
0.45
  0
TEXT
  5
1BD
330
17
100
AcDbEntity
  8
LED-REF
100
AcDbText
 10
389.1144
 20
100.6025
 30
0.0
 40
1.1
  1
LED159
 50
238.605
 72
1
 11
389.1144
 21
100.6025
 31
0.0
100
AcDbText
 73
2
  0
LWPOLYLINE
  5
1BE
330
17
100
AcDbEntity
  8
LED
100
AcDbPolyline
 90
5
 70
0
 10
154.96616217847898
 20
192.70313304703365
 10
153.67206695296636
 20
197.53276217847898
 10
148.84243782152103
 20
196.23866695296635
 10
150.13653304703365
 20
191.40903782152103
 10
154.96616217847898
 20
192.70313304703365
  0
CIRCLE
  5
1BF
330
17
100
AcDbEntity
  8
LED
100
AcDbCircle
 10
152.81567466156133
 20
197.25152874657226
 30
0.0
 40
0.45
  0
TEXT
  5
1C0
330
17
100
AcDbEntity
  8
LED-REF
100
AcDbText
 10
151.9043
 20
194.4709
 30
0.0
 40
1.1
  1
LED16
 50
105.0
 72
1
 11
151.9043
 21
194.4709
 31
0.0
100
AcDbText
 73
2
  0
LWPOLYLINE
  5
1C1
330
17
100
AcDbEntity
  8
LED
100
AcDbPolyline
 90
5
 70
0
 10
401.8094817039146
 20
131.146621352728
 10
399.853978647272
 20
126.54488170391458
 10
404.4557182960854
 20
124.58937864727199
 10
406.41122135272803
 20
129.19111829608542
 10
401.8094817039146
 20
131.146621352728
  0
CIRCLE
  5
1C2
330
17
100
AcDbEntity
  8
LED
100
AcDbCircle
 10
400.70184681462484
 20
126.23890855020704
 30
0.0
 40
0.45
  0
TEXT
  5
1C3
330
17
100
AcDbEntity
  8
LED-REF
100
AcDbText
 10
403.1326
 20
127.868
 30
0.0
 40
1.1
  1
LED160
 50
246.977
 72
1
 11
403.1326
 21
127.868
 31
0.0
100
AcDbText
 73
2
  0
LWPOLYLINE
  5
1C4
330
17
100
AcDbEntity
  8
LED
100
AcDbPolyline
 90
5
 70
0
 10
411.2451155446176
 20
159.93503762309942
 10
409.98046237690056
 20
155.0976155446176
 10
414.8178844553824
 20
153.83296237690055
 10
416.0825376230994
 20
158.67038445538236
 10
411.2451155446176
 20
159.93503762309942
  0
CIRCLE
  5
1C5
330
17
100
AcDbEntity
  8
LED
100
AcDbCircle
 10
410.8638448827045
 20
154.91835219521334
 30
0.0
 40
0.45
  0
TEXT
  5
1C6
330
17
100
AcDbEntity
  8
LED-REF
100
AcDbText
 10
413.0315
 20
156.884
 30
0.0
 40
1.1
  1
LED161
 50
255.349
 72
1
 11
413.0315
 21
156.884
 31
0.0
100
AcDbText
 73
2
  0
LWPOLYLINE
  5
1C7
330
17
100
AcDbEntity
  8
LED
100
AcDbPolyline
 90
5
 70
0
 10
416.3885222239841
 20
189.79042776607122
 10
415.84167223392876
 20
184.8204222239841
 10
420.81167777601587
 20
184.2735722339288
 10
421.35852776607123
 20
189.2435777760159
 10
416.3885222239841
 20
189.79042776607122
  0
CIRCLE
  5
1C8
330
17
100
AcDbEntity
  8
LED
100
AcDbCircle
 10
416.741741731405
 20
184.77168928119502
 30
0.0
 40
0.45
  0
TEXT
  5
1C9
330
17
100
AcDbEntity
  8
LED-REF
100
AcDbText
 10
418.6001
 20
187.032
 30
0.0
 40
1.1
  1
LED162
 50
263.721
 72
1
 11
418.6001
 21
187.032
 31
0.0
100
AcDbText
 73
2
  0
LWPOLYLINE
  5
1CA
330
17
100
AcDbEntity
  8
LED
100
AcDbPolyline
 90
5
 70
0
 10
417.13016379841997
 20
220.07662811439045
 10
417.31277188560955
 20
215.07996379841995
 10
422.30943620158007
 20
215.26257188560956
 10
422.1268281143905
 20
220.25923620158005
 10
417.13016379841997
 20
220.07662811439045
  0
CIRCLE
  5
1CB
330
17
100
AcDbEntity
  8
LED
100
AcDbCircle
 10
418.2103453816124
 20
215.16279989727377
 30
0.0
 40
0.45
  0
TEXT
  5
1CC
330
17
100
AcDbEntity
  8
LED-REF
100
AcDbText
 10
419.7198
 20
217.6696
 30
0.0
 40
1.1
  1
LED163
 50
272.093
 72
1
 11
419.7198
 21
217.6696
 31
0.0
100
AcDbText
 73
2
  0
LWPOLYLINE
  5
1CD
330
17
100
AcDbEntity
  8
LED
100
AcDbPolyline
 90
5
 70
0
 10
413.45419774816037
 20
250.14802797541452
 10
414.36237202458545
 20
245.2311977481604
 10
419.2792022518396
 20
246.13937202458547
 10
418.3710279754145
 20
251.05620225183958
 10
413.45419774816037
 20
250.14802797541452
  0
CIRCLE
  5
1CE
330
17
100
AcDbEntity
  8
LED
100
AcDbCircle
 10
415.23831972272694
 20
245.44383742018945
 30
0.0
 40
0.45
  0
TEXT
  5
1CF
330
17
100
AcDbEntity
  8
LED-REF
100
AcDbText
 10
416.3667
 20
248.1437
 30
0.0
 40
1.1
  1
LED164
 50
280.465
 72
1
 11
416.3667
 21
248.1437
 31
0.0
100
AcDbText
 73
2
  0
LWPOLYLINE
  5
1D0
330
17
100
AcDbEntity
  8
LED
100
AcDbPolyline
 90
5
 70
0
 10
405.4390052498774
 20
279.3638100130682
 10
407.0533899869318
 20
274.6316052498774
 10
411.7855947501226
 20
276.24598998693176
 10
410.1712100130682
 20
280.97819475012255
 10
405.4390052498774
 20
279.3638100130682
  0
CIRCLE
  5
1D1
330
17
100
AcDbEntity
  8
LED
100
AcDbCircle
 10
407.8890429969356
 20
274.9695165501791
 30
0.0
 40
0.45
  0
TEXT
  5
1D2
330
17
100
AcDbEntity
  8
LED-REF
100
AcDbText
 10
408.6123
 20
277.8049
 30
0.0
 40
1.1
  1
LED165
 50
288.837
 72
1
 11
408.6123
 21
277.8049
 31
0.0
100
AcDbText
 73
2
  0
LWPOLYLINE
  5
1D3
330
17
100
AcDbEntity
  8
LED
100
AcDbPolyline
 90
5
 70
0
 10
393.25524451959876
 20
307.10116732732064
 10
395.5414326726793
 20
302.65444451959877
 10
399.9881554804012
 20
304.9406326726793
 10
397.70196732732063
 20
309.3873554804012
 10
393.25524451959876
 20
307.10116732732064
  0
CIRCLE
  5
1D4
330
17
100
AcDbEntity
  8
LED
100
AcDbCircle
 10
396.31898089653845
 20
303.1104256152305
 30
0.0
 40
0.45
  0
TEXT
  5
1D5
330
17
100
AcDbEntity
  8
LED-REF
100
AcDbText
 10
396.6217
 20
306.0209
 30
0.0
 40
1.1
  1
LED166
 50
297.209
 72
1
 11
396.6217
 21
306.0209
 31
0.0
100
AcDbText
 73
2
  0
LWPOLYLINE
  5
1D6
330
17
100
AcDbEntity
  8
LED
100
AcDbPolyline
 90
5
 70
0
 10
377.1628323516113
 20
332.7690011297291
 10
380.0720988702709
 20
328.70253235161135
 10
384.13856764838863
 20
331.61179887027095
 10
381.22930112972904
 20
335.67826764838867
 10
377.1628323516113
 20
332.7690011297291
  0
CIRCLE
  5
1D7
330
17
100
AcDbEntity
  8
LED
100
AcDbCircle
 10
380.7749705851455
 20
329.2668650127513
 30
0.0
 40
0.45
  0
TEXT
  5
1D8
330
17
100
AcDbEntity
  8
LED-REF
100
AcDbText
 10
380.6507
 20
332.1904
 30
0.0
 40
1.1
  1
LED167
 50
305.581
 72
1
 11
380.6507
 21
332.1904
 31
0.0
100
AcDbText
 73
2
  0
LWPOLYLINE
  5
1D9
330
17
100
AcDbEntity
  8
LED
100
AcDbPolyline
 90
5
 70
0
 10
357.50465637808446
 20
355.82020332714825
 10
360.9749966728518
 20
352.22065637808447
 10
364.57454362191555
 20
355.6909966728518
 10
361.10420332714824
 20
359.29054362191556
 10
357.50465637808446
 20
355.82020332714825
  0
CIRCLE
  5
1DA
330
17
100
AcDbEntity
  8
LED
100
AcDbCircle
 10
361.58821172073556
 20
352.88131310063324
 30
0.0
 40
0.45
  0
TEXT
  5
1DB
330
17
100
AcDbEntity
  8
LED-REF
100
AcDbText
 10
361.0396
 20
355.7556
 30
0.0
 40
1.1
  1
LED168
 50
313.953
 72
1
 11
361.0396
 21
355.7556
 31
0.0
100
AcDbText
 73
2
  0
LWPOLYLINE
  5
1DC
330
17
100
AcDbEntity
  8
LED
100
AcDbPolyline
 90
5
 70
0
 10
334.6997277873845
 20
375.7634674443091
 10
338.6572325556909
 20
372.7076277873845
 10
341.71307221261543
 20
376.6651325556909
 10
337.75556744430907
 20
379.72097221261544
 10
334.6997277873845
 20
375.7634674443091
  0
CIRCLE
  5
1DD
330
17
100
AcDbEntity
  8
LED
100
AcDbCircle
 10
339.16770864625425
 20
373.4505370422489
 30
0.0
 40
0.45
  0
TEXT
  5
1DE
330
17
100
AcDbEntity
  8
LED-REF
100
AcDbText
 10
338.2064
 20
376.2143
 30
0.0
 40
1.1
  1
LED169
 50
322.326
 72
1
 11
338.2064
 21
376.2143
 31
0.0
100
AcDbText
 73
2
  0
LWPOLYLINE
  5
1DF
330
17
100
AcDbEntity
  8
LED
100
AcDbPolyline
 90
5
 70
0
 10
153.67206695296636
 20
222.46723782152102
 10
154.96616217847898
 20
227.29686695296635
 10
150.13653304703365
 20
228.59096217847897
 10
148.84243782152103
 20
223.76133304703365
 10
153.67206695296636
 20
222.46723782152102
  0
CIRCLE
  5
1E0
330
17
100
AcDbEntity
  8
LED
100
AcDbCircle
 10
154.08388798256368
 20
227.48150780224418
 30
0.0
 40
0.45
  0
TEXT
  5
1E1
330
17
100
AcDbEntity
  8
LED-REF
100
AcDbText
 10
151.9043
 20
225.5291
 30
0.0
 40
1.1
  1
LED17
 50
75.0
 72
1
 11
151.9043
 21
225.5291
 31
0.0
100
AcDbText
 73
2
  0
LWPOLYLINE
  5
1E2
330
17
100
AcDbEntity
  8
LED
100
AcDbPolyline
 90
5
 70
0
 10
309.2339372958961
 20
392.1738017579506
 10
313.5941982420494
 20
389.7267372958961
 10
316.04126270410393
 20
394.0869982420494
 10
311.68100175795064
 20
396.5340627041039
 10
309.2339372958961
 20
392.1738017579506
  0
CIRCLE
  5
1E3
330
17
100
AcDbEntity
  8
LED
100
AcDbCircle
 10
313.99106723575767
 20
390.53605491082425
 30
0.0
 40
0.45
  0
TEXT
  5
1E4
330
17
100
AcDbEntity
  8
LED-REF
100
AcDbText
 10
312.6376
 20
393.1304
 30
0.0
 40
1.1
  1
LED170
 50
330.698
 72
1
 11
312.6376
 21
393.1304
 31
0.0
100
AcDbText
 73
2
  0
LWPOLYLINE
  5
1E5
330
17
100
AcDbEntity
  8
LED
100
AcDbPolyline
 90
5
 70
0
 10
281.65028835648377
 20
404.70142385006034
 10
286.32037614993965
 20
402.91528835648376
 10
288.1065116435162
 20
407.58537614993963
 10
283.43642385006035
 20
409.3715116435162
 10
281.65028835648377
 20
404.70142385006034
  0
CIRCLE
  5
1E6
330
17
100
AcDbEntity
  8
LED
100
AcDbCircle
 10
286.5951796608489
 20
403.7737655142416
 30
0.0
 40
0.45
  0
TEXT
  5
1E7
330
17
100
AcDbEntity
  8
LED-REF
100
AcDbText
 10
284.8784
 20
406.1434
 30
0.0
 40
1.1
  1
LED171
 50
339.07
 72
1
 11
284.8784
 21
406.1434
 31
0.0
100
AcDbText
 73
2
  0
LWPOLYLINE
  5
1E8
330
17
100
AcDbEntity
  8
LED
100
AcDbPolyline
 90
5
 70
0
 10
252.53643948607166
 20
413.07927847857775
 10
257.41682152142226
 20
411.99213948607166
 10
258.50396051392835
 20
416.8725215214223
 10
253.62357847857774
 20
417.9596605139284
 10
252.53643948607166
 20
413.07927847857775
  0
CIRCLE
  5
1E9
330
17
100
AcDbEntity
  8
LED
100
AcDbCircle
 10
257.56370271971986
 20
412.88147964235986
 30
0.0
 40
0.45
  0
TEXT
  5
1EA
330
17
100
AcDbEntity
  8
LED-REF
100
AcDbText
 10
255.5202
 20
414.9759
 30
0.0
 40
1.1
  1
LED172
 50
347.442
 72
1
 11
255.5202
 21
414.9759
 31
0.0
100
AcDbText
 73
2
  0
LWPOLYLINE
  5
1EB
330
17
100
AcDbEntity
  8
LED
100
AcDbPolyline
 90
5
 70
0
 10
222.5130828800878
 20
417.12895540531497
 10
227.49974459468498
 20
416.7639828800878
 10
227.86471711991217
 20
421.750644594685
 10
222.878055405315
 20
422.1156171199122
 10
222.5130828800878
 20
417.12895540531497
  0
CIRCLE
  5
1EC
330
17
100
AcDbEntity
  8
LED
100
AcDbCircle
 10
227.5155730320799
 20
417.66523171396756
 30
0.0
 40
0.45
  0
TEXT
  5
1ED
330
17
100
AcDbEntity
  8
LED-REF
100
AcDbText
 10
225.1889
 20
419.4398
 30
0.0
 40
1.1
  1
LED173
 50
355.814
 72
1
 11
225.1889
 21
419.4398
 31
0.0
100
AcDbText
 73
2
  0
LWPOLYLINE
  5
1EE
330
17
100
AcDbEntity
  8
LED
100
AcDbPolyline
 90
5
 70
0
 10
167.4335
 20
248.89086609406726
 10
170.96903390593275
 20
252.4264
 10
167.4335
 20
255.96193390593274
 10
163.89796609406727
 20
252.4264
 10
167.4335
 20
248.89086609406726
  0
CIRCLE
  5
1EF
330
17
100
AcDbEntity
  8
LED
100
AcDbCircle
 10
170.29728246380552
 20
253.02744076400856
 30
0.0
 40
0.45
  0
TEXT
  5
1F0
330
17
100
AcDbEntity
  8
LED-REF
100
AcDbText
 10
167.4335
 20
252.4264
 30
0.0
 40
1.1
  1
LED18
 50
45.0
 72
1
 11
167.4335
 21
252.4264
 31
0.0
100
AcDbText
 73
2
  0
LWPOLYLINE
  5
1F1
330
17
100
AcDbEntity
  8
LED
100
AcDbPolyline
 90
5
 70
0
 10
192.56303304703363
 20
264.893637821521
 10
197.392662178479
 20
266.1877330470336
 10
196.0985669529664
 20
271.01736217847895
 10
191.26893782152104
 20
269.72326695296636
 10
192.56303304703363
 20
264.893637821521
  0
CIRCLE
  5
1F2
330
17
100
AcDbEntity
  8
LED
100
AcDbCircle
 10
197.11142874657227
 20
267.0441253384386
 30
0.0
 40
0.45
  0
TEXT
  5
1F3
330
17
100
AcDbEntity
  8
LED-REF
100
AcDbText
 10
194.3308
 20
267.9555
 30
0.0
 40
1.1
  1
LED19
 50
15.0
 72
1
 11
194.3308
 21
267.9555
 31
0.0
100
AcDbText
 73
2
  0
LWPOLYLINE
  5
1F4
330
17
100
AcDbEntity
  8
LED
100
AcDbPolyline
 90
5
 70
0
 10
193.9448364905389
 20
232.56573649053888
 10
198.27496350946112
 20
235.06573649053888
 10
195.77496350946112
 20
239.3958635094611
 10
191.4448364905389
 20
236.8958635094611
 10
193.9448364905389
 20
232.56573649053888
  0
CIRCLE
  5
1F5
330
17
100
AcDbEntity
  8
LED
100
AcDbCircle
 10
197.7816622392719
 20
235.8201593539449
 30
0.0
 40
0.45
  0
TEXT
  5
1F6
330
17
100
AcDbEntity
  8
LED-REF
100
AcDbText
 10
194.8599
 20
235.9808
 30
0.0
 40
1.1
  1
LED2
 50
30.0
 72
1
 11
194.8599
 21
235.9808
 31
0.0
100
AcDbText
 73
2
  0
LWPOLYLINE
  5
1F7
330
17
100
AcDbEntity
  8
LED
100
AcDbPolyline
 90
5
 70
0
 10
192.2037010616368
 20
295.73656017330217
 10
197.12773982669782
 20
296.6048010616368
 10
196.25949893836318
 20
301.52883982669783
 10
191.33546017330215
 20
300.6605989383632
 10
192.2037010616368
 20
295.73656017330217
  0
CIRCLE
  5
1F8
330
17
100
AcDbEntity
  8
LED
100
AcDbCircle
 10
196.92221607914698
 20
297.48244563046444
 30
0.0
 40
0.45
  0
TEXT
  5
1F9
330
17
100
AcDbEntity
  8
LED-REF
100
AcDbText
 10
194.2316
 20
298.6327
 30
0.0
 40
1.1
  1
LED20
 50
10.0
 72
1
 11
194.2316
 21
298.6327
 31
0.0
100
AcDbText
 73
2
  0
LWPOLYLINE
  5
1FA
330
17
100
AcDbEntity
  8
LED
100
AcDbPolyline
 90
5
 70
0
 10
163.9448364905389
 20
284.5272364905389
 10
168.27496350946112
 20
287.0272364905389
 10
165.77496350946112
 20
291.3573635094611
 10
161.4448364905389
 20
288.8573635094611
 10
163.9448364905389
 20
284.5272364905389
  0
CIRCLE
  5
1FB
330
17
100
AcDbEntity
  8
LED
100
AcDbCircle
 10
167.7816622392719
 20
287.78165935394486
 30
0.0
 40
0.45
  0
TEXT
  5
1FC
330
17
100
AcDbEntity
  8
LED-REF
100
AcDbText
 10
164.8599
 20
287.9423
 30
0.0
 40
1.1
  1
LED21
 50
30.0
 72
1
 11
164.8599
 21
287.9423
 31
0.0
100
AcDbText
 73
2
  0
LWPOLYLINE
  5
1FD
330
17
100
AcDbEntity
  8
LED
100
AcDbPolyline
 90
5
 70
0
 10
141.22404208358108
 20
264.3288198679862
 10
144.4379801320138
 20
268.15904208358114
 10
140.6077579164189
 20
271.3729801320138
 10
137.3938198679862
 20
267.5427579164189
 10
141.22404208358108
 20
264.3288198679862
  0
CIRCLE
  5
1FE
330
17
100
AcDbEntity
  8
LED
100
AcDbCircle
 10
143.7164007527224
 20
268.6992487101431
 30
0.0
 40
0.45
  0
TEXT
  5
1FF
330
17
100
AcDbEntity
  8
LED-REF
100
AcDbText
 10
140.9159
 20
267.8509
 30
0.0
 40
1.1
  1
LED22
 50
50.0
 72
1
 11
140.9159
 21
267.8509
 31
0.0
100
AcDbText
 73
2
  0
LWPOLYLINE
  5
200
330
17
100
AcDbEntity
  8
LED
100
AcDbPolyline
 90
5
 70
0
 10
126.7817811936506
 20
237.57751808972105
 10
128.49188191027895
 20
242.2759811936506
 10
123.7934188063494
 20
243.98608191027895
 10
122.08331808972106
 20
239.2876188063494
 10
126.7817811936506
 20
237.57751808972105
  0
CIRCLE
  5
201
330
17
100
AcDbEntity
  8
LED
100
AcDbCircle
 10
127.62905754440534
 20
242.5368146916044
 30
0.0
 40
0.45
  0
TEXT
  5
202
330
17
100
AcDbEntity
  8
LED-REF
100
AcDbText
 10
125.2876
 20
240.7818
 30
0.0
 40
1.1
  1
LED23
 50
70.0
 72
1
 11
125.2876
 21
240.7818
 31
0.0
100
AcDbText
 73
2
  0
LWPOLYLINE
  5
203
330
17
100
AcDbEntity
  8
LED
100
AcDbPolyline
 90
5
 70
0
 10
122.3599
 20
207.5
 10
122.3599
 20
212.5
 10
117.3599
 20
212.5
 10
117.3599
 20
207.5
 10
122.3599
 20
207.5
  0
CIRCLE
  5
204
330
17
100
AcDbEntity
  8
LED
100
AcDbCircle
 10
121.45989999999999
 20
212.45
 30
0.0
 40
0.45
  0
TEXT
  5
205
330
17
100
AcDbEntity
  8
LED-REF
100
AcDbText
 10
119.8599
 20
210.0
 30
0.0
 40
1.1
  1
LED24
 50
90.0
 72
1
 11
119.8599
 21
210.0
 31
0.0
100
AcDbText
 73
2
  0
LWPOLYLINE
  5
206
330
17
100
AcDbEntity
  8
LED
100
AcDbPolyline
 90
5
 70
0
 10
128.49188191027895
 20
177.7240188063494
 10
126.7817811936506
 20
182.42248191027895
 10
122.08331808972106
 20
180.7123811936506
 10
123.7934188063494
 20
176.01391808972105
 10
128.49188191027895
 20
177.7240188063494
  0
CIRCLE
  5
207
330
17
100
AcDbEntity
  8
LED
100
AcDbCircle
 10
125.95315884210956
 20
182.06767915024653
 30
0.0
 40
0.45
  0
TEXT
  5
208
330
17
100
AcDbEntity
  8
LED-REF
100
AcDbText
 10
125.2876
 20
179.2182
 30
0.0
 40
1.1
  1
LED25
 50
110.0
 72
1
 11
125.2876
 21
179.2182
 31
0.0
100
AcDbText
 73
2
  0
LWPOLYLINE
  5
209
330
17
100
AcDbEntity
  8
LED
100
AcDbPolyline
 90
5
 70
0
 10
144.4379801320138
 20
151.84095791641892
 10
141.22404208358108
 20
155.6711801320138
 10
137.3938198679862
 20
152.4572420835811
 10
140.6077579164189
 20
148.6270198679862
 10
144.4379801320138
 20
151.84095791641892
  0
CIRCLE
  5
20A
330
17
100
AcDbEntity
  8
LED
100
AcDbCircle
 10
140.56674146525833
 20
155.05436906113997
 30
0.0
 40
0.45
  0
TEXT
  5
20B
330
17
100
AcDbEntity
  8
LED-REF
100
AcDbText
 10
140.9159
 20
152.1491
 30
0.0
 40
1.1
  1
LED26
 50
130.0
 72
1
 11
140.9159
 21
152.1491
 31
0.0
100
AcDbText
 73
2
  0
LWPOLYLINE
  5
20C
330
17
100
AcDbEntity
  8
LED
100
AcDbPolyline
 90
5
 70
0
 10
168.27496350946112
 20
132.97276350946112
 10
163.9448364905389
 20
135.47276350946112
 10
161.4448364905389
 20
131.1426364905389
 10
165.77496350946112
 20
128.6426364905389
 10
168.27496350946112
 20
132.97276350946112
  0
CIRCLE
  5
20D
330
17
100
AcDbEntity
  8
LED
100
AcDbCircle
 10
163.53813776072815
 20
134.6683406460551
 30
0.0
 40
0.45
  0
TEXT
  5
20E
330
17
100
AcDbEntity
  8
LED-REF
100
AcDbText
 10
164.8599
 20
132.0577
 30
0.0
 40
1.1
  1
LED27
 50
150.0
 72
1
 11
164.8599
 21
132.0577
 31
0.0
100
AcDbText
 73
2
  0
LWPOLYLINE
  5
20F
330
17
100
AcDbEntity
  8
LED
100
AcDbPolyline
 90
5
 70
0
 10
197.12773982669782
 20
123.3951989383632
 10
192.2037010616368
 20
124.26343982669785
 10
191.33546017330215
 20
119.3394010616368
 10
196.25949893836318
 20
118.47116017330215
 10
197.12773982669782
 20
123.3951989383632
  0
CIRCLE
  5
210
330
17
100
AcDbEntity
  8
LED
100
AcDbCircle
 10
192.09665808938718
 20
123.36843044010351
 30
0.0
 40
0.45
  0
TEXT
  5
211
330
17
100
AcDbEntity
  8
LED-REF
100
AcDbText
 10
194.2316
 20
121.3673
 30
0.0
 40
1.1
  1
LED28
 50
170.0
 72
1
 11
194.2316
 21
121.3673
 31
0.0
100
AcDbText
 73
2
  0
LWPOLYLINE
  5
212
330
17
100
AcDbEntity
  8
LED
100
AcDbPolyline
 90
5
 70
0
 10
227.5160989383632
 20
124.26343982669785
 10
222.59206017330217
 20
123.3951989383632
 10
223.4603010616368
 20
118.47116017330215
 10
228.38433982669784
 20
119.3394010616368
 10
227.5160989383632
 20
124.26343982669785
  0
CIRCLE
  5
213
330
17
100
AcDbEntity
  8
LED
100
AcDbCircle
 10
222.79758392085301
 20
122.51755436953556
 30
0.0
 40
0.45
  0
TEXT
  5
214
330
17
100
AcDbEntity
  8
LED-REF
100
AcDbText
 10
225.4882
 20
121.3673
 30
0.0
 40
1.1
  1
LED29
 50
190.0
 72
1
 11
225.4882
 21
121.3673
 31
0.0
100
AcDbText
 73
2
  0
LWPOLYLINE
  5
215
330
17
100
AcDbEntity
  8
LED
100
AcDbPolyline
 90
5
 70
0
 10
182.3599
 20
207.5
 10
182.3599
 20
212.5
 10
177.3599
 20
212.5
 10
177.3599
 20
207.5
 10
182.3599
 20
207.5
  0
CIRCLE
  5
216
330
17
100
AcDbEntity
  8
LED
100
AcDbCircle
 10
181.4599
 20
212.45
 30
0.0
 40
0.45
  0
TEXT
  5
217
330
17
100
AcDbEntity
  8
LED-REF
100
AcDbText
 10
179.8599
 20
210.0
 30
0.0
 40
1.1
  1
LED3
 50
90.0
 72
1
 11
179.8599
 21
210.0
 31
0.0
100
AcDbText
 73
2
  0
LWPOLYLINE
  5
218
330
17
100
AcDbEntity
  8
LED
100
AcDbPolyline
 90
5
 70
0
 10
255.77496350946112
 20
135.47276350946112
 10
251.4448364905389
 20
132.97276350946112
 10
253.9448364905389
 20
128.6426364905389
 10
258.2749635094611
 20
131.1426364905389
 10
255.77496350946112
 20
135.47276350946112
  0
CIRCLE
  5
219
330
17
100
AcDbEntity
  8
LED
100
AcDbCircle
 10
251.93813776072813
 20
132.2183406460551
 30
0.0
 40
0.45
  0
TEXT
  5
21A
330
17
100
AcDbEntity
  8
LED-REF
100
AcDbText
 10
254.8599
 20
132.0577
 30
0.0
 40
1.1
  1
LED30
 50
210.0
 72
1
 11
254.8599
 21
132.0577
 31
0.0
100
AcDbText
 73
2
  0
LWPOLYLINE
  5
21B
330
17
100
AcDbEntity
  8
LED
100
AcDbPolyline
 90
5
 70
0
 10
278.4957579164189
 20
155.6711801320138
 10
275.2818198679862
 20
151.84095791641892
 10
279.1120420835811
 20
148.6270198679862
 10
282.3259801320138
 20
152.4572420835811
 10
278.4957579164189
 20
155.6711801320138
  0
CIRCLE
  5
21C
330
17
100
AcDbEntity
  8
LED
100
AcDbCircle
 10
276.0033992472776
 20
151.30075128985698
 30
0.0
 40
0.45
  0
TEXT
  5
21D
330
17
100
AcDbEntity
  8
LED-REF
100
AcDbText
 10
278.8039
 20
152.1491
 30
0.0
 40
1.1
  1
LED31
 50
230.0
 72
1
 11
278.8039
 21
152.1491
 31
0.0
100
AcDbText
 73
2
  0
LWPOLYLINE
  5
21E
330
17
100
AcDbEntity
  8
LED
100
AcDbPolyline
 90
5
 70
0
 10
292.9380188063494
 20
182.42248191027895
 10
291.2279180897211
 20
177.7240188063494
 10
295.9263811936506
 20
176.01391808972105
 10
297.636481910279
 20
180.7123811936506
 10
292.9380188063494
 20
182.42248191027895
  0
CIRCLE
  5
21F
330
17
100
AcDbEntity
  8
LED
100
AcDbCircle
 10
292.0907424555947
 20
177.4631853083956
 30
0.0
 40
0.45
  0
TEXT
  5
220
330
17
100
AcDbEntity
  8
LED-REF
100
AcDbText
 10
294.4322
 20
179.2182
 30
0.0
 40
1.1
  1
LED32
 50
250.0
 72
1
 11
294.4322
 21
179.2182
 31
0.0
100
AcDbText
 73
2
  0
LWPOLYLINE
  5
221
330
17
100
AcDbEntity
  8
LED
100
AcDbPolyline
 90
5
 70
0
 10
297.3599
 20
212.5
 10
297.3599
 20
207.5
 10
302.3599
 20
207.5
 10
302.3599
 20
212.5
 10
297.3599
 20
212.5
  0
CIRCLE
  5
222
330
17
100
AcDbEntity
  8
LED
100
AcDbCircle
 10
298.25989999999996
 20
207.55
 30
0.0
 40
0.45
  0
TEXT
  5
223
330
17
100
AcDbEntity
  8
LED-REF
100
AcDbText
 10
299.8599
 20
210.0
 30
0.0
 40
1.1
  1
LED33
 50
270.0
 72
1
 11
299.8599
 21
210.0
 31
0.0
100
AcDbText
 73
2
  0
LWPOLYLINE
  5
224
330
17
100
AcDbEntity
  8
LED
100
AcDbPolyline
 90
5
 70
0
 10
291.2279180897211
 20
242.2759811936506
 10
292.9380188063494
 20
237.57751808972105
 10
297.636481910279
 20
239.2876188063494
 10
295.9263811936506
 20
243.98608191027895
 10
291.2279180897211
 20
242.2759811936506
  0
CIRCLE
  5
225
330
17
100
AcDbEntity
  8
LED
100
AcDbCircle
 10
293.76664115789043
 20
237.93232084975347
 30
0.0
 40
0.45
  0
TEXT
  5
226
330
17
100
AcDbEntity
  8
LED-REF
100
AcDbText
 10
294.4322
 20
240.7818
 30
0.0
 40
1.1
  1
LED34
 50
290.0
 72
1
 11
294.4322
 21
240.7818
 31
0.0
100
AcDbText
 73
2
  0
LWPOLYLINE
  5
227
330
17
100
AcDbEntity
  8
LED
100
AcDbPolyline
 90
5
 70
0
 10
275.2818198679862
 20
268.15904208358114
 10
278.4957579164189
 20
264.3288198679862
 10
282.3259801320138
 20
267.5427579164189
 10
279.1120420835811
 20
271.3729801320138
 10
275.2818198679862
 20
268.15904208358114
  0
CIRCLE
  5
228
330
17
100
AcDbEntity
  8
LED
100
AcDbCircle
 10
279.15305853474166
 20
264.94563093886006
 30
0.0
 40
0.45
  0
TEXT
  5
229
330
17
100
AcDbEntity
  8
LED-REF
100
AcDbText
 10
278.8039
 20
267.8509
 30
0.0
 40
1.1
  1
LED35
 50
310.0
 72
1
 11
278.8039
 21
267.8509
 31
0.0
100
AcDbText
 73
2
  0
LWPOLYLINE
  5
22A
330
17
100
AcDbEntity
  8
LED
100
AcDbPolyline
 90
5
 70
0
 10
251.4448364905389
 20
287.0272364905389
 10
255.77496350946112
 20
284.5272364905389
 10
258.2749635094611
 20
288.8573635094611
 10
253.9448364905389
 20
291.3573635094611
 10
251.4448364905389
 20
287.0272364905389
  0
CIRCLE
  5
22B
330
17
100
AcDbEntity
  8
LED
100
AcDbCircle
 10
256.1816622392719
 20
285.3316593539449
 30
0.0
 40
0.45
  0
TEXT
  5
22C
330
17
100
AcDbEntity
  8
LED-REF
100
AcDbText
 10
254.8599
 20
287.9423
 30
0.0
 40
1.1
  1
LED36
 50
330.0
 72
1
 11
254.8599
 21
287.9423
 31
0.0
100
AcDbText
 73
2
  0
LWPOLYLINE
  5
22D
330
17
100
AcDbEntity
  8
LED
100
AcDbPolyline
 90
5
 70
0
 10
222.59206017330217
 20
296.6048010616368
 10
227.5160989383632
 20
295.73656017330217
 10
228.38433982669784
 20
300.6605989383632
 10
223.4603010616368
 20
301.52883982669783
 10
222.59206017330217
 20
296.6048010616368
  0
CIRCLE
  5
22E
330
17
100
AcDbEntity
  8
LED
100
AcDbCircle
 10
227.62314191061282
 20
296.6315695598965
 30
0.0
 40
0.45
  0
TEXT
  5
22F
330
17
100
AcDbEntity
  8
LED-REF
100
AcDbText
 10
225.4882
 20
298.6327
 30
0.0
 40
1.1
  1
LED37
 50
350.0
 72
1
 11
225.4882
 21
298.6327
 31
0.0
100
AcDbText
 73
2
  0
LWPOLYLINE
  5
230
330
17
100
AcDbEntity
  8
LED
100
AcDbPolyline
 90
5
 70
0
 10
222.10628016280305
 20
326.88684633062456
 10
227.06685366937543
 20
326.26018016280307
 10
227.69351983719696
 20
331.2207536693755
 10
222.73294633062457
 20
331.847419837197
 10
222.10628016280305
 20
326.88684633062456
  0
CIRCLE
  5
231
330
17
100
AcDbEntity
  8
LED
100
AcDbCircle
 10
227.13004784451758
 20
327.15935005566433
 30
0.0
 40
0.45
  0
TEXT
  5
232
330
17
100
AcDbEntity
  8
LED-REF
100
AcDbText
 10
224.8999
 20
329.0538
 30
0.0
 40
1.1
  1
LED38
 50
352.8
 72
1
 11
224.8999
 21
329.0538
 31
0.0
100
AcDbText
 73
2
  0
LWPOLYLINE
  5
233
330
17
100
AcDbEntity
  8
LED
100
AcDbPolyline
 90
5
 70
0
 10
250.79004740356766
 20
320.16907016699105
 10
255.43892983300893
 20
318.3284474035677
 10
257.2795525964323
 20
322.9773298330089
 10
252.63067016699105
 20
324.8179525964323
 10
250.79004740356766
 20
320.16907016699105
  0
CIRCLE
  5
234
330
17
100
AcDbEntity
  8
LED
100
AcDbCircle
 10
255.72375310613072
 20
319.1836524685013
 30
0.0
 40
0.45
  0
TEXT
  5
235
330
17
100
AcDbEntity
  8
LED-REF
100
AcDbText
 10
254.0348
 20
321.5732
 30
0.0
 40
1.1
  1
LED39
 50
338.4
 72
1
 11
254.0348
 21
321.5732
 31
0.0
100
AcDbText
 73
2
  0
LWPOLYLINE
  5
236
330
17
100
AcDbEntity
  8
LED
100
AcDbPolyline
 90
5
 70
0
 10
198.27496350946112
 20
184.93426350946112
 10
193.9448364905389
 20
187.43426350946112
 10
191.4448364905389
 20
183.1041364905389
 10
195.77496350946112
 20
180.6041364905389
 10
198.27496350946112
 20
184.93426350946112
  0
CIRCLE
  5
237
330
17
100
AcDbEntity
  8
LED
100
AcDbCircle
 10
193.53813776072815
 20
186.6298406460551
 30
0.0
 40
0.45
  0
TEXT
  5
238
330
17
100
AcDbEntity
  8
LED-REF
100
AcDbText
 10
194.8599
 20
184.0192
 30
0.0
 40
1.1
  1
LED4
 50
150.0
 72
1
 11
194.8599
 21
184.0192
 31
0.0
100
AcDbText
 73
2
  0
LWPOLYLINE
  5
239
330
17
100
AcDbEntity
  8
LED
100
AcDbPolyline
 90
5
 70
0
 10
276.9020943833314
 20
306.5289206447938
 10
280.9471793552062
 20
303.58999438333143
 10
283.88610561666854
 20
307.6350793552062
 10
279.8410206447938
 20
310.57400561666856
 10
276.9020943833314
 20
306.5289206447938
  0
CIRCLE
  5
23A
330
17
100
AcDbEntity
  8
LED
100
AcDbCircle
 10
281.43573523255066
 20
304.3474989408835
 30
0.0
 40
0.45
  0
TEXT
  5
23B
330
17
100
AcDbEntity
  8
LED-REF
100
AcDbText
 10
280.3941
 20
307.082
 30
0.0
 40
1.1
  1
LED40
 50
324.0
 72
1
 11
280.3941
 21
307.082
 31
0.0
100
AcDbText
 73
2
  0
LWPOLYLINE
  5
23C
330
17
100
AcDbEntity
  8
LED
100
AcDbPolyline
 90
5
 70
0
 10
298.8016569186888
 20
286.8236231325678
 10
301.98877686743225
 20
282.9710569186888
 10
305.8413430813112
 20
286.15817686743225
 10
302.6542231325678
 20
290.0107430813112
 10
298.8016569186888
 20
286.8236231325678
  0
CIRCLE
  5
23D
330
17
100
AcDbEntity
  8
LED
100
AcDbCircle
 10
302.65036758644305
 20
283.5832641716014
 30
0.0
 40
0.45
  0
TEXT
  5
23E
330
17
100
AcDbEntity
  8
LED-REF
100
AcDbText
 10
302.3215
 20
286.4909
 30
0.0
 40
1.1
  1
LED41
 50
309.6
 72
1
 11
302.3215
 21
286.4909
 31
0.0
100
AcDbText
 73
2
  0
LWPOLYLINE
  5
23F
330
17
100
AcDbEntity
  8
LED
100
AcDbPolyline
 90
5
 70
0
 10
315.11258413992226
 20
262.2911194022524
 10
317.2414805977476
 20
257.7669841399223
 10
321.76561586007773
 20
259.89588059774763
 10
319.63671940225237
 20
264.42001586007774
 10
315.11258413992226
 20
262.2911194022524
  0
CIRCLE
  5
240
330
17
100
AcDbEntity
  8
LED
100
AcDbCircle
 10
318.0345359803888
 20
258.1954268549541
 30
0.0
 40
0.45
  0
TEXT
  5
241
330
17
100
AcDbEntity
  8
LED-REF
100
AcDbText
 10
318.4391
 20
261.0935
 30
0.0
 40
1.1
  1
LED42
 50
295.2
 72
1
 11
318.4391
 21
261.0935
 31
0.0
100
AcDbText
 73
2
  0
LWPOLYLINE
  5
242
330
17
100
AcDbEntity
  8
LED
100
AcDbPolyline
 90
5
 70
0
 10
324.81022858671395
 20
234.4730648403574
 10
325.7471351596426
 20
229.56162858671397
 10
330.65857141328604
 20
230.4985351596426
 10
329.7216648403574
 20
235.40997141328606
 10
324.81022858671395
 20
234.4730648403574
  0
CIRCLE
  5
243
330
17
100
AcDbEntity
  8
LED
100
AcDbCircle
 10
326.6218246195691
 20
229.77938613237757
 30
0.0
 40
0.45
  0
TEXT
  5
244
330
17
100
AcDbEntity
  8
LED-REF
100
AcDbText
 10
327.7344
 20
232.4858
 30
0.0
 40
1.1
  1
LED43
 50
280.8
 72
1
 11
327.7344
 21
232.4858
 31
0.0
100
AcDbText
 73
2
  0
LWPOLYLINE
  5
245
330
17
100
AcDbEntity
  8
LED
100
AcDbPolyline
 90
5
 70
0
 10
327.2850094777526
 20
205.11714311989397
 10
326.97105688010606
 20
200.1270094777526
 10
331.9611905222474
 20
199.81305688010605
 10
332.275143119894
 20
204.8031905222474
 10
327.2850094777526
 20
205.11714311989397
  0
CIRCLE
  5
246
330
17
100
AcDbEntity
  8
LED
100
AcDbCircle
 10
327.87242046166796
 20
200.12039934659765
 30
0.0
 40
0.45
  0
TEXT
  5
247
330
17
100
AcDbEntity
  8
LED-REF
100
AcDbText
 10
329.6231
 20
202.4651
 30
0.0
 40
1.1
  1
LED44
 50
266.4
 72
1
 11
329.6231
 21
202.4651
 31
0.0
100
AcDbText
 73
2
  0
LWPOLYLINE
  5
248
330
17
100
AcDbEntity
  8
LED
100
AcDbPolyline
 90
5
 70
0
 10
322.3816011951995
 20
176.06818377667526
 10
320.83651622332474
 20
171.3129011951995
 10
325.5917988048005
 20
169.76781622332476
 10
327.13688377667523
 20
174.52309880480053
 10
322.3816011951995
 20
176.06818377667526
  0
CIRCLE
  5
249
330
17
100
AcDbEntity
  8
LED
100
AcDbCircle
 10
321.7079179377091
 20
171.08233872607678
 30
0.0
 40
0.45
  0
TEXT
  5
24A
330
17
100
AcDbEntity
  8
LED-REF
100
AcDbText
 10
323.9867
 20
172.918
 30
0.0
 40
1.1
  1
LED45
 50
252.0
 72
1
 11
323.9867
 21
172.918
 31
0.0
100
AcDbText
 73
2
  0
LWPOLYLINE
  5
24B
330
17
100
AcDbEntity
  8
LED
100
AcDbPolyline
 90
5
 70
0
 10
310.40794717369243
 20
149.15118680120253
 10
307.72881319879747
 20
144.92954717369244
 10
311.9504528263075
 20
142.25041319879745
 10
314.6295868012025
 20
146.47205282630753
 10
310.40794717369243
 20
149.15118680120253
  0
CIRCLE
  5
24C
330
17
100
AcDbEntity
  8
LED
100
AcDbCircle
 10
308.5154996714982
 20
144.48951945448644
 30
0.0
 40
0.45
  0
TEXT
  5
24D
330
17
100
AcDbEntity
  8
LED-REF
100
AcDbText
 10
311.1792
 20
145.7008
 30
0.0
 40
1.1
  1
LED46
 50
237.6
 72
1
 11
311.1792
 21
145.7008
 31
0.0
100
AcDbText
 73
2
  0
LWPOLYLINE
  5
24E
330
17
100
AcDbEntity
  8
LED
100
AcDbPolyline
 90
5
 70
0
 10
292.1166538037318
 20
126.05758933337525
 10
288.4718106666248
 20
122.6348538037318
 10
291.8945461962682
 20
118.99001066662474
 10
295.53938933337525
 20
122.41274619626819
 10
292.1166538037318
 20
126.05758933337525
  0
CIRCLE
  5
24F
330
17
100
AcDbEntity
  8
LED
100
AcDbCircle
 10
289.12435149333163
 20
122.01300939434897
 30
0.0
 40
0.45
  0
TEXT
  5
250
330
17
100
AcDbEntity
  8
LED-REF
100
AcDbText
 10
292.0056
 20
122.5238
 30
0.0
 40
1.1
  1
LED47
 50
223.2
 72
1
 11
292.0056
 21
122.5238
 31
0.0
100
AcDbText
 73
2
  0
LWPOLYLINE
  5
251
330
17
100
AcDbEntity
  8
LED
100
AcDbPolyline
 90
5
 70
0
 10
268.6566825148554
 20
108.23835088536394
 10
264.27514911463606
 20
105.82958251485536
 10
266.6839174851446
 20
101.44804911463605
 10
271.06545088536393
 20
103.85681748514463
 10
268.6566825148554
 20
108.23835088536394
  0
CIRCLE
  5
252
330
17
100
AcDbEntity
  8
LED
100
AcDbCircle
 10
264.7525427553298
 20
105.06499418652098
 30
0.0
 40
0.45
  0
TEXT
  5
253
330
17
100
AcDbEntity
  8
LED-REF
100
AcDbText
 10
267.6703
 20
104.8432
 30
0.0
 40
1.1
  1
LED48
 50
208.8
 72
1
 11
267.6703
 21
104.8432
 31
0.0
100
AcDbText
 73
2
  0
LWPOLYLINE
  5
254
330
17
100
AcDbEntity
  8
LED
100
AcDbPolyline
 90
5
 70
0
 10
241.50243318490942
 20
96.81318262073371
 10
236.65951737926628
 20
95.56973318490944
 10
237.90296681509056
 20
90.72681737926628
 10
242.7458826207337
 20
91.97026681509055
 10
241.50243318490942
 20
96.81318262073371
  0
CIRCLE
  5
255
330
17
100
AcDbEntity
  8
LED
100
AcDbCircle
 10
236.93176743577106
 20
94.71044283425191
 30
0.0
 40
0.45
  0
TEXT
  5
256
330
17
100
AcDbEntity
  8
LED-REF
100
AcDbText
 10
239.7027
 20
93.77
 30
0.0
 40
1.1
  1
LED49
 50
194.4
 72
1
 11
239.7027
 21
93.77
 31
0.0
100
AcDbText
 73
2
  0
LWPOLYLINE
  5
257
330
17
100
AcDbEntity
  8
LED
100
AcDbPolyline
 90
5
 70
0
 10
225.77496350946112
 20
187.43426350946112
 10
221.4448364905389
 20
184.93426350946112
 10
223.9448364905389
 20
180.6041364905389
 10
228.27496350946112
 20
183.1041364905389
 10
225.77496350946112
 20
187.43426350946112
  0
CIRCLE
  5
258
330
17
100
AcDbEntity
  8
LED
100
AcDbCircle
 10
221.93813776072813
 20
184.1798406460551
 30
0.0
 40
0.45
  0
TEXT
  5
259
330
17
100
AcDbEntity
  8
LED-REF
100
AcDbText
 10
224.8599
 20
184.0192
 30
0.0
 40
1.1
  1
LED5
 50
210.0
 72
1
 11
224.8599
 21
184.0192
 31
0.0
100
AcDbText
 73
2
  0
LWPOLYLINE
  5
25A
330
17
100
AcDbEntity
  8
LED
100
AcDbPolyline
 90
5
 70
0
 10
212.3599
 20
92.5
 10
207.3599
 20
92.5
 10
207.3599
 20
87.5
 10
212.3599
 20
87.5
 10
212.3599
 20
92.5
  0
CIRCLE
  5
25B
330
17
100
AcDbEntity
  8
LED
100
AcDbCircle
 10
207.40990000000002
 20
91.6
 30
0.0
 40
0.45
  0
TEXT
  5
25C
330
17
100
AcDbEntity
  8
LED-REF
100
AcDbText
 10
209.8599
 20
90.0
 30
0.0
 40
1.1
  1
LED50
 50
180.0
 72
1
 11
209.8599
 21
90.0
 31
0.0
100
AcDbText
 73
2
  0
LWPOLYLINE
  5
25D
330
17
100
AcDbEntity
  8
LED
100
AcDbPolyline
 90
5
 70
0
 10
183.06028262073372
 20
95.56973318490944
 10
178.21736681509057
 20
96.81318262073371
 10
176.97391737926628
 20
91.97026681509055
 10
181.81683318490943
 20
90.72681737926628
 10
183.06028262073372
 20
95.56973318490944
  0
CIRCLE
  5
25E
330
17
100
AcDbEntity
  8
LED
100
AcDbCircle
 10
178.04197507469863
 20
95.9290232813597
 30
0.0
 40
0.45
  0
TEXT
  5
25F
330
17
100
AcDbEntity
  8
LED-REF
100
AcDbText
 10
180.0171
 20
93.77
 30
0.0
 40
1.1
  1
LED51
 50
165.6
 72
1
 11
180.0171
 21
93.77
 31
0.0
100
AcDbText
 73
2
  0
LWPOLYLINE
  5
260
330
17
100
AcDbEntity
  8
LED
100
AcDbPolyline
 90
5
 70
0
 10
155.44465088536396
 20
105.82958251485536
 10
151.06311748514463
 20
108.23835088536394
 10
148.65434911463603
 20
103.85681748514463
 10
153.03588251485536
 20
101.44804911463605
 10
155.44465088536396
 20
105.82958251485536
  0
CIRCLE
  5
261
330
17
100
AcDbEntity
  8
LED
100
AcDbCircle
 10
150.67335451245526
 20
107.42558718961938
 30
0.0
 40
0.45
  0
TEXT
  5
262
330
17
100
AcDbEntity
  8
LED-REF
100
AcDbText
 10
152.0495
 20
104.8432
 30
0.0
 40
1.1
  1
LED52
 50
151.2
 72
1
 11
152.0495
 21
104.8432
 31
0.0
100
AcDbText
 73
2
  0
LWPOLYLINE
  5
263
330
17
100
AcDbEntity
  8
LED
100
AcDbPolyline
 90
5
 70
0
 10
131.24798933337524
 20
122.6348538037318
 10
127.6031461962682
 20
126.05758933337525
 10
124.18041066662475
 20
122.41274619626819
 10
127.82525380373181
 20
118.99001066662474
 10
131.24798933337524
 20
122.6348538037318
  0
CIRCLE
  5
264
330
17
100
AcDbEntity
  8
LED
100
AcDbCircle
 10
127.02350223230344
 20
125.36729021339954
 30
0.0
 40
0.45
  0
TEXT
  5
265
330
17
100
AcDbEntity
  8
LED-REF
100
AcDbText
 10
127.7142
 20
122.5238
 30
0.0
 40
1.1
  1
LED53
 50
136.8
 72
1
 11
127.7142
 21
122.5238
 31
0.0
100
AcDbText
 73
2
  0
LWPOLYLINE
  5
266
330
17
100
AcDbEntity
  8
LED
100
AcDbPolyline
 90
5
 70
0
 10
111.99088680120252
 20
144.92954717369244
 10
109.31175282630754
 20
149.15118680120253
 10
105.09011319879747
 20
146.47205282630753
 10
107.76924717369245
 20
142.25041319879745
 10
111.99088680120252
 20
144.92954717369244
  0
CIRCLE
  5
267
330
17
100
AcDbEntity
  8
LED
100
AcDbCircle
 10
108.57864903310468
 20
148.6267262894463
 30
0.0
 40
0.45
  0
TEXT
  5
268
330
17
100
AcDbEntity
  8
LED-REF
100
AcDbText
 10
108.5405
 20
145.7008
 30
0.0
 40
1.1
  1
LED54
 50
122.4
 72
1
 11
108.5405
 21
145.7008
 31
0.0
100
AcDbText
 73
2
  0
LWPOLYLINE
  5
269
330
17
100
AcDbEntity
  8
LED
100
AcDbPolyline
 90
5
 70
0
 10
98.88328377667524
 20
171.3129011951995
 10
97.33819880480051
 20
176.06818377667526
 10
92.58291622332474
 20
174.52309880480053
 10
94.12800119519947
 20
169.76781622332476
 10
98.88328377667524
 20
171.3129011951995
  0
CIRCLE
  5
26A
330
17
100
AcDbEntity
  8
LED
100
AcDbCircle
 10
96.49769878985362
 20
175.74251565592306
 30
0.0
 40
0.45
  0
TEXT
  5
26B
330
17
100
AcDbEntity
  8
LED-REF
100
AcDbText
 10
95.7331
 20
172.918
 30
0.0
 40
1.1
  1
LED55
 50
108.0
 72
1
 11
95.7331
 21
172.918
 31
0.0
100
AcDbText
 73
2
  0
LWPOLYLINE
  5
26C
330
17
100
AcDbEntity
  8
LED
100
AcDbPolyline
 90
5
 70
0
 10
92.74874311989396
 20
200.1270094777526
 10
92.4347905222474
 20
205.11714311989397
 10
87.44465688010604
 20
204.8031905222474
 10
87.7586094777526
 20
199.81305688010605
 10
92.74874311989396
 20
200.1270094777526
  0
CIRCLE
  5
26D
330
17
100
AcDbEntity
  8
LED
100
AcDbCircle
 10
91.53970599263842
 20
205.01073031589618
 30
0.0
 40
0.45
  0
TEXT
  5
26E
330
17
100
AcDbEntity
  8
LED-REF
100
AcDbText
 10
90.0967
 20
202.4651
 30
0.0
 40
1.1
  1
LED56
 50
93.6
 72
1
 11
90.0967
 21
202.4651
 31
0.0
100
AcDbText
 73
2
  0
LWPOLYLINE
  5
26F
330
17
100
AcDbEntity
  8
LED
100
AcDbPolyline
 90
5
 70
0
 10
93.97266484035741
 20
229.56162858671397
 10
94.90957141328603
 20
234.4730648403574
 10
89.99813515964259
 20
235.40997141328606
 10
89.06122858671397
 20
230.4985351596426
 10
93.97266484035741
 20
229.56162858671397
  0
CIRCLE
  5
270
330
17
100
AcDbEntity
  8
LED
100
AcDbCircle
 10
94.01614382190093
 20
234.59259366094815
 30
0.0
 40
0.45
  0
TEXT
  5
271
330
17
100
AcDbEntity
  8
LED-REF
100
AcDbText
 10
91.9854
 20
232.4858
 30
0.0
 40
1.1
  1
LED57
 50
79.2
 72
1
 11
91.9854
 21
232.4858
 31
0.0
100
AcDbText
 73
2
  0
LWPOLYLINE
  5
272
330
17
100
AcDbEntity
  8
LED
100
AcDbPolyline
 90
5
 70
0
 10
102.47831940225237
 20
257.7669841399223
 10
104.60721586007773
 20
262.2911194022524
 10
100.08308059774762
 20
264.42001586007774
 10
97.95418413992226
 20
259.89588059774763
 10
102.47831940225237
 20
257.7669841399223
  0
CIRCLE
  5
273
330
17
100
AcDbEntity
  8
LED
100
AcDbCircle
 10
103.77158254828005
 20
262.62907941203764
 30
0.0
 40
0.45
  0
TEXT
  5
274
330
17
100
AcDbEntity
  8
LED-REF
100
AcDbText
 10
101.2807
 20
261.0935
 30
0.0
 40
1.1
  1
LED58
 50
64.8
 72
1
 11
101.2807
 21
261.0935
 31
0.0
100
AcDbText
 73
2
  0
LWPOLYLINE
  5
275
330
17
100
AcDbEntity
  8
LED
100
AcDbPolyline
 90
5
 70
0
 10
117.73102313256776
 20
282.9710569186888
 10
120.9181430813112
 20
286.8236231325678
 10
117.06557686743226
 20
290.0107430813112
 10
113.87845691868881
 20
286.15817686743225
 10
117.73102313256776
 20
282.9710569186888
  0
CIRCLE
  5
276
330
17
100
AcDbEntity
  8
LED
100
AcDbCircle
 10
120.19280996332556
 20
287.35877906120277
 30
0.0
 40
0.45
  0
TEXT
  5
277
330
17
100
AcDbEntity
  8
LED-REF
100
AcDbText
 10
117.3983
 20
286.4909
 30
0.0
 40
1.1
  1
LED59
 50
50.4
 72
1
 11
117.3983
 21
286.4909
 31
0.0
100
AcDbText
 73
2
  0
LWPOLYLINE
  5
278
330
17
100
AcDbEntity
  8
LED
100
AcDbPolyline
 90
5
 70
0
 10
237.3599
 20
212.5
 10
237.3599
 20
207.5
 10
242.3599
 20
207.5
 10
242.3599
 20
212.5
 10
237.3599
 20
212.5
  0
CIRCLE
  5
279
330
17
100
AcDbEntity
  8
LED
100
AcDbCircle
 10
238.25990000000002
 20
207.55
 30
0.0
 40
0.45
  0
TEXT
  5
27A
330
17
100
AcDbEntity
  8
LED-REF
100
AcDbText
 10
239.8599
 20
210.0
 30
0.0
 40
1.1
  1
LED6
 50
270.0
 72
1
 11
239.8599
 21
210.0
 31
0.0
100
AcDbText
 73
2
  0
LWPOLYLINE
  5
27B
330
17
100
AcDbEntity
  8
LED
100
AcDbPolyline
 90
5
 70
0
 10
138.77262064479382
 20
303.58999438333143
 10
142.81770561666858
 20
306.5289206447938
 10
139.8787793552062
 20
310.57400561666856
 10
135.83369438333145
 20
307.6350793552062
 10
138.77262064479382
 20
303.58999438333143
  0
CIRCLE
  5
27C
330
17
100
AcDbEntity
  8
LED
100
AcDbCircle
 10
142.2482480398866
 20
307.22764667711664
 30
0.0
 40
0.45
  0
TEXT
  5
27D
330
17
100
AcDbEntity
  8
LED-REF
100
AcDbText
 10
139.3257
 20
307.082
 30
0.0
 40
1.1
  1
LED60
 50
36.0
 72
1
 11
139.3257
 21
307.082
 31
0.0
100
AcDbText
 73
2
  0
LWPOLYLINE
  5
27E
330
17
100
AcDbEntity
  8
LED
100
AcDbPolyline
 90
5
 70
0
 10
164.28087016699106
 20
318.3284474035677
 10
168.92975259643234
 20
320.16907016699105
 10
167.08912983300894
 20
324.8179525964323
 10
162.44024740356767
 20
322.9773298330089
 10
164.28087016699106
 20
318.3284474035677
  0
CIRCLE
  5
27F
330
17
100
AcDbEntity
  8
LED
100
AcDbCircle
 10
168.5519516747217
 20
320.98746277665623
 30
0.0
 40
0.45
  0
TEXT
  5
280
330
17
100
AcDbEntity
  8
LED-REF
100
AcDbText
 10
165.685
 20
321.5732
 30
0.0
 40
1.1
  1
LED61
 50
21.6
 72
1
 11
165.685
 21
321.5732
 31
0.0
100
AcDbText
 73
2
  0
LWPOLYLINE
  5
281
330
17
100
AcDbEntity
  8
LED
100
AcDbPolyline
 90
5
 70
0
 10
192.65294633062456
 20
326.26018016280307
 10
197.61351983719695
 20
326.88684633062456
 10
196.98685366937542
 20
331.847419837197
 10
192.02628016280303
 20
331.2207536693755
 10
192.65294633062456
 20
326.26018016280307
  0
CIRCLE
  5
282
330
17
100
AcDbEntity
  8
LED
100
AcDbCircle
 10
197.45111419192335
 20
327.7734829001294
 30
0.0
 40
0.45
  0
TEXT
  5
283
330
17
100
AcDbEntity
  8
LED-REF
100
AcDbText
 10
194.8199
 20
329.0538
 30
0.0
 40
1.1
  1
LED62
 50
7.2
 72
1
 11
194.8199
 21
329.0538
 31
0.0
100
AcDbText
 73
2
  0
LWPOLYLINE
  5
284
330
17
100
AcDbEntity
  8
LED
100
AcDbPolyline
 90
5
 70
0
 10
192.45032589877445
 20
356.49032349731016
 10
197.4246765026898
 20
356.99612589877444
 10
196.91887410122553
 20
361.9704765026898
 10
191.94452349731017
 20
361.4646741012255
 10
192.45032589877445
 20
356.49032349731016
  0
CIRCLE
  5
285
330
17
100
AcDbEntity
  8
LED
100
AcDbCircle
 10
197.28388856438707
 20
357.88645098346456
 30
0.0
 40
0.45
  0
TEXT
  5
286
330
17
100
AcDbEntity
  8
LED-REF
100
AcDbText
 10
194.6846
 20
359.2304
 30
0.0
 40
1.1
  1
LED63
 50
5.806
 72
1
 11
194.6846
 21
359.2304
 31
0.0
100
AcDbText
 73
2
  0
LWPOLYLINE
  5
287
330
17
100
AcDbEntity
  8
LED
100
AcDbPolyline
 90
5
 70
0
 10
163.3184402587888
 20
349.98715418936797
 10
168.08914581063203
 20
351.48394025878883
 10
166.5923597412112
 20
356.25464581063204
 10
161.82165418936796
 20
354.7578597412112
 10
163.3184402587888
 20
349.98715418936797
  0
CIRCLE
  5
288
330
17
100
AcDbEntity
  8
LED
100
AcDbCircle
 10
167.77201726261785
 20
352.3276993974264
 30
0.0
 40
0.45
  0
TEXT
  5
289
330
17
100
AcDbEntity
  8
LED-REF
100
AcDbText
 10
164.9554
 20
353.1209
 30
0.0
 40
1.1
  1
LED64
 50
17.419
 72
1
 11
164.9554
 21
353.1209
 31
0.0
100
AcDbText
 73
2
  0
LWPOLYLINE
  5
28A
330
17
100
AcDbEntity
  8
LED
100
AcDbPolyline
 90
5
 70
0
 10
136.09197305607654
 20
337.7528829340615
 10
140.46371706593848
 20
340.1793730560765
 10
138.03722694392349
 20
344.55111706593846
 10
133.66548293406154
 20
342.1246269439235
 10
136.09197305607654
 20
337.7528829340615
  0
CIRCLE
  5
28B
330
17
100
AcDbEntity
  8
LED
100
AcDbCircle
 10
139.98323140387714
 20
340.94202207663153
 30
0.0
 40
0.45
  0
TEXT
  5
28C
330
17
100
AcDbEntity
  8
LED-REF
100
AcDbText
 10
137.0646
 20
341.152
 30
0.0
 40
1.1
  1
LED65
 50
29.032
 72
1
 11
137.0646
 21
341.152
 31
0.0
100
AcDbText
 73
2
  0
LWPOLYLINE
  5
28D
330
17
100
AcDbEntity
  8
LED
100
AcDbPolyline
 90
5
 70
0
 10
111.88552597611418
 20
320.2883742422155
 10
115.67932575778445
 20
323.5452259761142
 10
112.42247402388581
 20
327.33902575778444
 10
108.62867424221554
 20
324.0821740238858
 10
111.88552597611418
 20
320.2883742422155
  0
CIRCLE
  5
28E
330
17
100
AcDbEntity
  8
LED
100
AcDbCircle
 10
115.055154447866
 20
324.19554141947583
 30
0.0
 40
0.45
  0
TEXT
  5
28F
330
17
100
AcDbEntity
  8
LED-REF
100
AcDbText
 10
112.154
 20
323.8137
 30
0.0
 40
1.1
  1
LED66
 50
40.645
 72
1
 11
112.154
 21
323.8137
 31
0.0
100
AcDbText
 73
2
  0
LWPOLYLINE
  5
290
330
17
100
AcDbEntity
  8
LED
100
AcDbPolyline
 90
5
 70
0
 10
91.69017043679658
 20
298.30869519832504
 10
94.75070480167497
 20
302.2625704367966
 10
90.79682956320342
 20
305.32310480167496
 10
87.73629519832502
 20
301.3692295632034
 10
91.69017043679658
 20
298.30869519832504
  0
CIRCLE
  5
291
330
17
100
AcDbEntity
  8
LED
100
AcDbCircle
 10
94.0084019151013
 20
302.77392787008995
 30
0.0
 40
0.45
  0
TEXT
  5
292
330
17
100
AcDbEntity
  8
LED-REF
100
AcDbText
 10
91.2435
 20
301.8159
 30
0.0
 40
1.1
  1
LED67
 50
52.258
 72
1
 11
91.2435
 21
301.8159
 31
0.0
100
AcDbText
 73
2
  0
LWPOLYLINE
  5
293
330
17
100
AcDbEntity
  8
LED
100
AcDbPolyline
 90
5
 70
0
 10
76.33272785357882
 20
272.7136039159955
 10
78.5346960840045
 20
277.2026278535788
 10
74.04567214642118
 20
279.4045960840045
 10
71.8437039159955
 20
274.9155721464212
 10
76.33272785357882
 20
272.7136039159955
  0
CIRCLE
  5
294
330
17
100
AcDbEntity
  8
LED
100
AcDbCircle
 10
77.70465209293525
 20
277.5540918956796
 30
0.0
 40
0.45
  0
TEXT
  5
295
330
17
100
AcDbEntity
  8
LED-REF
100
AcDbText
 10
75.1892
 20
276.0591
 30
0.0
 40
1.1
  1
LED68
 50
63.871
 72
1
 11
75.1892
 21
276.0591
 31
0.0
100
AcDbText
 73
2
  0
LWPOLYLINE
  5
296
330
17
100
AcDbEntity
  8
LED
100
AcDbPolyline
 90
5
 70
0
 10
66.4418683280771
 20
244.55107991136353
 10
67.69512008863647
 20
249.3914683280771
 10
62.854731671922906
 20
250.6447200886365
 10
61.60147991136354
 20
245.8043316719229
 10
66.4418683280771
 20
244.55107991136353
  0
CIRCLE
  5
297
330
17
100
AcDbEntity
  8
LED
100
AcDbCircle
 10
66.81131765602244
 20
249.56864976081067
 30
0.0
 40
0.45
  0
TEXT
  5
298
330
17
100
AcDbEntity
  8
LED-REF
100
AcDbText
 10
64.6483
 20
247.5979
 30
0.0
 40
1.1
  1
LED69
 50
75.484
 72
1
 11
64.6483
 21
247.5979
 31
0.0
100
AcDbText
 73
2
  0
LWPOLYLINE
  5
299
330
17
100
AcDbEntity
  8
LED
100
AcDbPolyline
 90
5
 70
0
 10
221.4448364905389
 20
235.06573649053888
 10
225.77496350946112
 20
232.56573649053888
 10
228.27496350946112
 20
236.8958635094611
 10
223.9448364905389
 20
239.3958635094611
 10
221.4448364905389
 20
235.06573649053888
  0
CIRCLE
  5
29A
330
17
100
AcDbEntity
  8
LED
100
AcDbCircle
 10
226.18166223927187
 20
233.37015935394487
 30
0.0
 40
0.45
  0
TEXT
  5
29B
330
17
100
AcDbEntity
  8
LED-REF
100
AcDbText
 10
224.8599
 20
235.9808
 30
0.0
 40
1.1
  1
LED7
 50
330.0
 72
1
 11
224.8599
 21
235.9808
 31
0.0
100
AcDbText
 73
2
  0
LWPOLYLINE
  5
29C
330
17
100
AcDbEntity
  8
LED
100
AcDbPolyline
 90
5
 70
0
 10
62.42257868486105
 20
214.97399515098596
 10
62.675804849014035
 20
219.96757868486105
 10
57.682221315138946
 20
220.22080484901403
 10
57.42899515098596
 20
215.22722131513893
 10
62.42257868486105
 20
214.97399515098596
  0
CIRCLE
  5
29D
330
17
100
AcDbEntity
  8
LED
100
AcDbCircle
 10
61.77442755127499
 20
219.96322355906983
 30
0.0
 40
0.45
  0
TEXT
  5
29E
330
17
100
AcDbEntity
  8
LED-REF
100
AcDbText
 10
60.0524
 20
217.5974
 30
0.0
 40
1.1
  1
LED70
 50
87.097
 72
1
 11
60.0524
 21
217.5974
 31
0.0
100
AcDbText
 73
2
  0
LWPOLYLINE
  5
29F
330
17
100
AcDbEntity
  8
LED
100
AcDbPolyline
 90
5
 70
0
 10
64.43935203607971
 20
185.19321467728085
 10
63.68218532271913
 20
190.1355520360797
 10
58.73984796392028
 20
189.37838532271914
 10
59.497014677280866
 20
184.4360479639203
 10
64.43935203607971
 20
185.19321467728085
  0
CIRCLE
  5
2A0
330
17
100
AcDbEntity
  8
LED
100
AcDbCircle
 10
62.80013626526895
 20
189.94983865408682
 30
0.0
 40
0.45
  0
TEXT
  5
2A1
330
17
100
AcDbEntity
  8
LED-REF
100
AcDbText
 10
61.5896
 20
187.2858
 30
0.0
 40
1.1
  1
LED71
 50
98.71
 72
1
 11
61.5896
 21
187.2858
 31
0.0
100
AcDbText
 73
2
  0
LWPOLYLINE
  5
2A2
330
17
100
AcDbEntity
  8
LED
100
AcDbPolyline
 90
5
 70
0
 10
72.40975426627655
 20
156.4281063155155
 10
70.67319368448452
 20
161.11685426627656
 10
65.98444573372346
 20
159.3802936844845
 10
67.7210063155155
 20
154.69154573372344
 10
72.40975426627655
 20
156.4281063155155
  0
CIRCLE
  5
2A3
330
17
100
AcDbEntity
  8
LED
100
AcDbCircle
 10
69.84658465916546
 20
160.75738588204638
 30
0.0
 40
0.45
  0
TEXT
  5
2A4
330
17
100
AcDbEntity
  8
LED-REF
100
AcDbText
 10
69.1971
 20
157.9042
 30
0.0
 40
1.1
  1
LED72
 50
110.323
 72
1
 11
69.1971
 21
157.9042
 31
0.0
100
AcDbText
 73
2
  0
LWPOLYLINE
  5
2A5
330
17
100
AcDbEntity
  8
LED
100
AcDbPolyline
 90
5
 70
0
 10
86.00731392006912
 20
129.856170296867
 10
83.36252970313299
 20
134.0994139200691
 10
79.11928607993087
 20
131.45462970313298
 10
81.764070296867
 20
127.21138607993086
 10
86.00731392006912
 20
129.856170296867
  0
CIRCLE
  5
2A6
330
17
100
AcDbEntity
  8
LED
100
AcDbCircle
 10
82.62519369312598
 20
133.5809203247886
 30
0.0
 40
0.45
  0
TEXT
  5
2A7
330
17
100
AcDbEntity
  8
LED-REF
100
AcDbText
 10
82.5633
 20
130.6554
 30
0.0
 40
1.1
  1
LED73
 50
121.935
 72
1
 11
82.5633
 21
130.6554
 31
0.0
100
AcDbText
 73
2
  0
LWPOLYLINE
  5
2A8
330
17
100
AcDbEntity
  8
LED
100
AcDbPolyline
 90
5
 70
0
 10
104.6753986605723
 20
106.56541145081681
 10
101.2305885491832
 20
110.1893986605723
 10
97.60660133942771
 20
106.74458854918319
 10
101.05141145081681
 20
103.12060133942771
 10
104.6753986605723
 20
106.56541145081681
  0
CIRCLE
  5
2A9
330
17
100
AcDbEntity
  8
LED
100
AcDbCircle
 10
100.6127189525411
 20
109.53309296842471
 30
0.0
 40
0.45
  0
TEXT
  5
2AA
330
17
100
AcDbEntity
  8
LED-REF
100
AcDbText
 10
101.141
 20
106.655
 30
0.0
 40
1.1
  1
LED74
 50
133.548
 72
1
 11
101.141
 21
106.655
 31
0.0
100
AcDbText
 73
2
  0
LWPOLYLINE
  5
2AB
330
17
100
AcDbEntity
  8
LED
100
AcDbPolyline
 90
5
 70
0
 10
127.64978230124424
 20
87.50922043141665
 10
123.54597956858335
 20
90.36558230124423
 10
120.68961769875577
 20
86.26177956858334
 10
124.79342043141666
 20
83.40541769875576
 10
127.64978230124424
 20
87.50922043141665
  0
CIRCLE
  5
2AC
330
17
100
AcDbEntity
  8
LED
100
AcDbCircle
 10
123.072872459341
 20
89.598334190667
 30
0.0
 40
0.45
  0
TEXT
  5
2AD
330
17
100
AcDbEntity
  8
LED-REF
100
AcDbText
 10
124.1697
 20
86.8855
 30
0.0
 40
1.1
  1
LED75
 50
145.161
 72
1
 11
124.1697
 21
86.8855
 31
0.0
100
AcDbText
 73
2
  0
LWPOLYLINE
  5
2AE
330
17
100
AcDbEntity
  8
LED
100
AcDbPolyline
 90
5
 70
0
 10
153.9897885971529
 20
73.46779380014
 10
149.39500619986
 20
75.43958859715292
 10
147.4232114028471
 20
70.84480619986
 10
152.01799380014
 20
68.87301140284708
 10
153.9897885971529
 20
73.46779380014
  0
CIRCLE
  5
2AF
330
17
100
AcDbEntity
  8
LED
100
AcDbCircle
 10
149.0860309603706
 20
74.59280981767006
 30
0.0
 40
0.45
  0
TEXT
  5
2B0
330
17
100
AcDbEntity
  8
LED-REF
100
AcDbText
 10
150.7065
 20
72.1563
 30
0.0
 40
1.1
  1
LED76
 50
156.774
 72
1
 11
150.7065
 21
72.1563
 31
0.0
100
AcDbText
 73
2
  0
LWPOLYLINE
  5
2B1
330
17
100
AcDbEntity
  8
LED
100
AcDbPolyline
 90
5
 70
0
 10
182.61717443948592
 20
65.01607356677506
 10
177.71952643322493
 20
66.02257443948594
 10
176.71302556051407
 20
61.124926433224935
 10
181.61067356677506
 20
60.118425560514076
 10
182.61717443948592
 20
65.01607356677506
  0
CIRCLE
  5
2B2
330
17
100
AcDbEntity
  8
LED
100
AcDbCircle
 10
177.58733275619957
 20
65.13093278963184
 30
0.0
 40
0.45
  0
TEXT
  5
2B3
330
17
100
AcDbEntity
  8
LED-REF
100
AcDbText
 10
179.6651
 20
63.0705
 30
0.0
 40
1.1
  1
LED77
 50
168.387
 72
1
 11
179.6651
 21
63.0705
 31
0.0
100
AcDbText
 73
2
  0
LWPOLYLINE
  5
2B4
330
17
100
AcDbEntity
  8
LED
100
AcDbPolyline
 90
5
 70
0
 10
212.3599
 20
62.5
 10
207.3599
 20
62.5
 10
207.3599
 20
57.5
 10
212.3599
 20
57.5
 10
212.3599
 20
62.5
  0
CIRCLE
  5
2B5
330
17
100
AcDbEntity
  8
LED
100
AcDbCircle
 10
207.40990000000002
 20
61.6
 30
0.0
 40
0.45
  0
TEXT
  5
2B6
330
17
100
AcDbEntity
  8
LED-REF
100
AcDbText
 10
209.8599
 20
60.0
 30
0.0
 40
1.1
  1
LED78
 50
180.0
 72
1
 11
209.8599
 21
60.0
 31
0.0
100
AcDbText
 73
2
  0
LWPOLYLINE
  5
2B7
330
17
100
AcDbEntity
  8
LED
100
AcDbPolyline
 90
5
 70
0
 10
242.00027356677506
 20
66.02257443948594
 10
237.10262556051407
 20
65.01607356677506
 10
238.10912643322493
 20
60.118425560514076
 10
243.00677443948592
 20
61.124926433224935
 10
242.00027356677506
 20
66.02257443948594
  0
CIRCLE
  5
2B8
330
17
100
AcDbEntity
  8
LED
100
AcDbCircle
 10
237.33277219766464
 20
64.1445619343752
 30
0.0
 40
0.45
  0
TEXT
  5
2B9
330
17
100
AcDbEntity
  8
LED-REF
100
AcDbText
 10
240.0547
 20
63.0705
 30
0.0
 40
1.1
  1
LED79
 50
191.613
 72
1
 11
240.0547
 21
63.0705
 31
0.0
100
AcDbText
 73
2
  0
LWPOLYLINE
  5
2BA
330
17
100
AcDbEntity
  8
LED
100
AcDbPolyline
 90
5
 70
0
 10
222.32713782152103
 20
266.1877330470336
 10
227.1567669529664
 20
264.893637821521
 10
228.45086217847899
 20
269.72326695296636
 10
223.62123304703363
 20
271.01736217847895
 10
222.32713782152103
 20
266.1877330470336
  0
CIRCLE
  5
2BB
330
17
100
AcDbEntity
  8
LED
100
AcDbCircle
 10
227.3414078022442
 20
265.77591201743627
 30
0.0
 40
0.45
  0
TEXT
  5
2BC
330
17
100
AcDbEntity
  8
LED-REF
100
AcDbText
 10
225.389
 20
267.9555
 30
0.0
 40
1.1
  1
LED8
 50
345.0
 72
1
 11
225.389
 21
267.9555
 31
0.0
100
AcDbText
 73
2
  0
LWPOLYLINE
  5
2BD
330
17
100
AcDbEntity
  8
LED
100
AcDbPolyline
 90
5
 70
0
 10
270.32479380014
 20
75.43958859715292
 10
265.7300114028471
 20
73.46779380014
 10
267.70180619986
 20
68.87301140284708
 10
272.29658859715295
 20
70.84480619986
 10
270.32479380014
 20
75.43958859715292
  0
CIRCLE
  5
2BE
330
17
100
AcDbEntity
  8
LED
100
AcDbCircle
 10
266.13088229028233
 20
72.6604509165974
 30
0.0
 40
0.45
  0
TEXT
  5
2BF
330
17
100
AcDbEntity
  8
LED-REF
100
AcDbText
 10
269.0133
 20
72.1563
 30
0.0
 40
1.1
  1
LED80
 50
203.226
 72
1
 11
269.0133
 21
72.1563
 31
0.0
100
AcDbText
 73
2
  0
LWPOLYLINE
  5
2C0
330
17
100
AcDbEntity
  8
LED
100
AcDbPolyline
 90
5
 70
0
 10
296.17382043141663
 20
90.36558230124423
 10
292.07001769875575
 20
87.50922043141665
 10
294.92637956858334
 20
83.40541769875576
 10
299.0301823012442
 20
86.26177956858334
 10
296.17382043141663
 20
90.36558230124423
  0
CIRCLE
  5
2C1
330
17
100
AcDbEntity
  8
LED
100
AcDbCircle
 10
292.6252008626513
 20
86.79909955823595
 30
0.0
 40
0.45
  0
TEXT
  5
2C2
330
17
100
AcDbEntity
  8
LED-REF
100
AcDbText
 10
295.5501
 20
86.8855
 30
0.0
 40
1.1
  1
LED81
 50
214.839
 72
1
 11
295.5501
 21
86.8855
 31
0.0
100
AcDbText
 73
2
  0
LWPOLYLINE
  5
2C3
330
17
100
AcDbEntity
  8
LED
100
AcDbPolyline
 90
5
 70
0
 10
318.4892114508168
 20
110.1893986605723
 10
315.0444013394277
 20
106.56541145081681
 10
318.6683885491832
 20
103.12060133942771
 10
322.1131986605723
 20
106.74458854918319
 10
318.4892114508168
 20
110.1893986605723
  0
CIRCLE
  5
2C4
330
17
100
AcDbEntity
  8
LED
100
AcDbCircle
 10
315.73116713829756
 20
105.98158550286432
 30
0.0
 40
0.45
  0
TEXT
  5
2C5
330
17
100
AcDbEntity
  8
LED-REF
100
AcDbText
 10
318.5788
 20
106.655
 30
0.0
 40
1.1
  1
LED82
 50
226.452
 72
1
 11
318.5788
 21
106.655
 31
0.0
100
AcDbText
 73
2
  0
LWPOLYLINE
  5
2C6
330
17
100
AcDbEntity
  8
LED
100
AcDbPolyline
 90
5
 70
0
 10
336.357270296867
 20
134.0994139200691
 10
333.71248607993084
 20
129.856170296867
 10
337.955729703133
 20
127.21138607993086
 10
340.60051392006915
 20
131.45462970313298
 10
336.357270296867
 20
134.0994139200691
  0
CIRCLE
  5
2C7
330
17
100
AcDbEntity
  8
LED
100
AcDbCircle
 10
334.5027177742766
 20
129.4225415740505
 30
0.0
 40
0.45
  0
TEXT
  5
2C8
330
17
100
AcDbEntity
  8
LED-REF
100
AcDbText
 10
337.1565
 20
130.6554
 30
0.0
 40
1.1
  1
LED83
 50
238.065
 72
1
 11
337.1565
 21
130.6554
 31
0.0
100
AcDbText
 73
2
  0
LWPOLYLINE
  5
2C9
330
17
100
AcDbEntity
  8
LED
100
AcDbPolyline
 90
5
 70
0
 10
349.0466063155155
 20
161.11685426627656
 10
347.3100457337234
 20
156.4281063155155
 10
351.9987936844845
 20
154.69154573372344
 10
353.73535426627654
 20
159.3802936844845
 10
349.0466063155155
 20
161.11685426627656
  0
CIRCLE
  5
2CA
330
17
100
AcDbEntity
  8
LED
100
AcDbCircle
 10
348.17138597067833
 20
156.16241289030054
 30
0.0
 40
0.45
  0
TEXT
  5
2CB
330
17
100
AcDbEntity
  8
LED-REF
100
AcDbText
 10
350.5227
 20
157.9042
 30
0.0
 40
1.1
  1
LED84
 50
249.677
 72
1
 11
350.5227
 21
157.9042
 31
0.0
100
AcDbText
 73
2
  0
LWPOLYLINE
  5
2CC
330
17
100
AcDbEntity
  8
LED
100
AcDbPolyline
 90
5
 70
0
 10
356.0375146772809
 20
190.1355520360797
 10
355.2803479639203
 20
185.19321467728085
 10
360.22268532271914
 20
184.4360479639203
 10
360.97985203607976
 20
189.37838532271914
 10
356.0375146772809
 20
190.1355520360797
  0
CIRCLE
  5
2CD
330
17
100
AcDbEntity
  8
LED
100
AcDbCircle
 10
356.1775403556377
 20
185.10634804246394
 30
0.0
 40
0.45
  0
TEXT
  5
2CE
330
17
100
AcDbEntity
  8
LED-REF
100
AcDbText
 10
358.1301
 20
187.2858
 30
0.0
 40
1.1
  1
LED85
 50
261.29
 72
1
 11
358.1301
 21
187.2858
 31
0.0
100
AcDbText
 73
2
  0
LWPOLYLINE
  5
2CF
330
17
100
AcDbEntity
  8
LED
100
AcDbPolyline
 90
5
 70
0
 10
357.04399515098595
 20
219.96757868486105
 10
357.2972213151389
 20
214.97399515098596
 10
362.290804849014
 20
215.22722131513893
 10
362.03757868486105
 20
220.22080484901403
 10
357.04399515098595
 20
219.96757868486105
  0
CIRCLE
  5
2D0
330
17
100
AcDbEntity
  8
LED
100
AcDbCircle
 10
358.19353408959495
 20
215.06951169587225
 30
0.0
 40
0.45
  0
TEXT
  5
2D1
330
17
100
AcDbEntity
  8
LED-REF
100
AcDbText
 10
359.6674
 20
217.5974
 30
0.0
 40
1.1
  1
LED86
 50
272.903
 72
1
 11
359.6674
 21
217.5974
 31
0.0
100
AcDbText
 73
2
  0
LWPOLYLINE
  5
2D2
330
17
100
AcDbEntity
  8
LED
100
AcDbPolyline
 90
5
 70
0
 10
352.02467991136353
 20
249.3914683280771
 10
353.27793167192294
 20
244.55107991136353
 10
358.1183200886365
 20
245.8043316719229
 10
356.8650683280771
 20
250.6447200886365
 10
352.02467991136353
 20
249.3914683280771
  0
CIRCLE
  5
2D3
330
17
100
AcDbEntity
  8
LED
100
AcDbCircle
 10
354.13666906932576
 20
244.82506911243138
 30
0.0
 40
0.45
  0
TEXT
  5
2D4
330
17
100
AcDbEntity
  8
LED-REF
100
AcDbText
 10
355.0715
 20
247.5979
 30
0.0
 40
1.1
  1
LED87
 50
284.516
 72
1
 11
355.0715
 21
247.5979
 31
0.0
100
AcDbText
 73
2
  0
LWPOLYLINE
  5
2D5
330
17
100
AcDbEntity
  8
LED
100
AcDbPolyline
 90
5
 70
0
 10
341.1851039159955
 20
277.2026278535788
 10
343.3870721464212
 20
272.7136039159955
 10
347.8760960840045
 20
274.9155721464212
 10
345.6741278535788
 20
279.4045960840045
 10
341.1851039159955
 20
277.2026278535788
  0
CIRCLE
  5
2D6
330
17
100
AcDbEntity
  8
LED
100
AcDbCircle
 10
344.1730767728819
 20
273.15484843684794
 30
0.0
 40
0.45
  0
TEXT
  5
2D7
330
17
100
AcDbEntity
  8
LED-REF
100
AcDbText
 10
344.5306
 20
276.0591
 30
0.0
 40
1.1
  1
LED88
 50
296.129
 72
1
 11
344.5306
 21
276.0591
 31
0.0
100
AcDbText
 73
2
  0
LWPOLYLINE
  5
2D8
330
17
100
AcDbEntity
  8
LED
100
AcDbPolyline
 90
5
 70
0
 10
324.969095198325
 20
302.2625704367966
 10
328.0296295632034
 20
298.30869519832504
 10
331.98350480167494
 20
301.3692295632034
 10
328.92297043679656
 20
305.32310480167496
 10
324.969095198325
 20
302.2625704367966
  0
CIRCLE
  5
2D9
330
17
100
AcDbEntity
  8
LED
100
AcDbCircle
 10
328.7107217624795
 20
298.89913013638784
 30
0.0
 40
0.45
  0
TEXT
  5
2DA
330
17
100
AcDbEntity
  8
LED-REF
100
AcDbText
 10
328.4763
 20
301.8159
 30
0.0
 40
1.1
  1
LED89
 50
307.742
 72
1
 11
328.4763
 21
301.8159
 31
0.0
100
AcDbText
 73
2
  0
LWPOLYLINE
  5
2DB
330
17
100
AcDbEntity
  8
LED
100
AcDbPolyline
 90
5
 70
0
 10
248.75076609406727
 20
252.4264
 10
252.2863
 20
248.89086609406726
 10
255.82183390593275
 20
252.4264
 10
252.2863
 20
255.96193390593274
 10
248.75076609406727
 20
252.4264
  0
CIRCLE
  5
2DC
330
17
100
AcDbEntity
  8
LED
100
AcDbCircle
 10
252.88734076400857
 20
249.5626175361945
 30
0.0
 40
0.45
  0
TEXT
  5
2DD
330
17
100
AcDbEntity
  8
LED-REF
100
AcDbText
 10
252.2863
 20
252.4264
 30
0.0
 40
1.1
  1
LED9
 50
315.0
 72
1
 11
252.2863
 21
252.4264
 31
0.0
100
AcDbText
 73
2
  0
LWPOLYLINE
  5
2DE
330
17
100
AcDbEntity
  8
LED
100
AcDbPolyline
 90
5
 70
0
 10
304.04047424221557
 20
323.5452259761142
 10
307.8342740238858
 20
320.2883742422155
 10
311.0911257577845
 20
324.0821740238858
 10
307.2973259761142
 20
327.33902575778444
 10
304.04047424221557
 20
323.5452259761142
  0
CIRCLE
  5
2DF
330
17
100
AcDbEntity
  8
LED
100
AcDbCircle
 10
308.3825693381709
 20
321.0038267202552
 30
0.0
 40
0.45
  0
TEXT
  5
2E0
330
17
100
AcDbEntity
  8
LED-REF
100
AcDbText
 10
307.5658
 20
323.8137
 30
0.0
 40
1.1
  1
LED90
 50
319.355
 72
1
 11
307.5658
 21
323.8137
 31
0.0
100
AcDbText
 73
2
  0
LWPOLYLINE
  5
2E1
330
17
100
AcDbEntity
  8
LED
100
AcDbPolyline
 90
5
 70
0
 10
279.2560829340615
 20
340.1793730560765
 10
283.6278269439235
 20
337.7528829340615
 10
286.05431706593845
 20
342.1246269439235
 10
281.6825730560765
 20
344.55111706593846
 10
279.2560829340615
 20
340.1793730560765
  0
CIRCLE
  5
2E2
330
17
100
AcDbEntity
  8
LED
100
AcDbCircle
 10
284.02087772578756
 20
338.56406175705683
 30
0.0
 40
0.45
  0
TEXT
  5
2E3
330
17
100
AcDbEntity
  8
LED-REF
100
AcDbText
 10
282.6552
 20
341.152
 30
0.0
 40
1.1
  1
LED91
 50
330.968
 72
1
 11
282.6552
 21
341.152
 31
0.0
100
AcDbText
 73
2
  0
LWPOLYLINE
  5
2E4
330
17
100
AcDbEntity
  8
LED
100
AcDbPolyline
 90
5
 70
0
 10
251.63065418936796
 20
351.48394025878883
 10
256.4013597412112
 20
349.98715418936797
 10
257.898145810632
 20
354.7578597412112
 10
253.1274402587888
 20
356.25464581063204
 10
251.63065418936796
 20
351.48394025878883
  0
CIRCLE
  5
2E5
330
17
100
AcDbEntity
  8
LED
100
AcDbCircle
 10
256.6230741781885
 20
350.86084904939395
 30
0.0
 40
0.45
  0
TEXT
  5
2E6
330
17
100
AcDbEntity
  8
LED-REF
100
AcDbText
 10
254.7644
 20
353.1209
 30
0.0
 40
1.1
  1
LED92
 50
342.581
 72
1
 11
254.7644
 21
353.1209
 31
0.0
100
AcDbText
 73
2
  0
LWPOLYLINE
  5
2E7
330
17
100
AcDbEntity
  8
LED
100
AcDbPolyline
 90
5
 70
0
 10
222.29502349731018
 20
356.99612589877444
 10
227.26937410122554
 20
356.49032349731016
 10
227.77517650268982
 20
361.4646741012255
 10
222.80082589877446
 20
361.9704765026898
 10
222.29502349731018
 20
356.99612589877444
  0
CIRCLE
  5
2E8
330
17
100
AcDbEntity
  8
LED
100
AcDbCircle
 10
227.31067502744995
 20
357.3907646300296
 30
0.0
 40
0.45
  0
TEXT
  5
2E9
330
17
100
AcDbEntity
  8
LED-REF
100
AcDbText
 10
225.0351
 20
359.2304
 30
0.0
 40
1.1
  1
LED93
 50
354.194
 72
1
 11
225.0351
 21
359.2304
 31
0.0
100
AcDbText
 73
2
  0
LWPOLYLINE
  5
2EA
330
17
100
AcDbEntity
  8
LED
100
AcDbPolyline
 90
5
 70
0
 10
222.4219860923698
 20
387.0725274650278
 10
227.4039725349722
 20
386.64848609236975
 10
227.8280139076302
 20
391.63047253497217
 10
222.8460274650278
 20
392.0545139076302
 10
222.4219860923698
 20
387.0725274650278
  0
CIRCLE
  5
2EB
330
17
100
AcDbEntity
  8
LED
100
AcDbCircle
 10
227.43048011762463
 20
387.5494840657648
 30
0.0
 40
0.45
  0
TEXT
  5
2EC
330
17
100
AcDbEntity
  8
LED-REF
100
AcDbText
 10
225.125
 20
389.3515
 30
0.0
 40
1.1
  1
LED94
 50
355.135
 72
1
 11
225.125
 21
389.3515
 31
0.0
100
AcDbText
 73
2
  0
LWPOLYLINE
  5
2ED
330
17
100
AcDbEntity
  8
LED
100
AcDbPolyline
 90
5
 70
0
 10
252.1666098181858
 20
382.4025343618222
 10
257.00526563817783
 20
381.14260981818575
 10
258.2651901818142
 20
385.9812656381778
 10
253.4265343618222
 20
387.2411901818142
 10
252.1666098181858
 20
382.4025343618222
  0
CIRCLE
  5
2EE
330
17
100
AcDbEntity
  8
LED
100
AcDbCircle
 10
257.18366549783246
 20
382.0261671112207
 30
0.0
 40
0.45
  0
TEXT
  5
2EF
330
17
100
AcDbEntity
  8
LED-REF
100
AcDbText
 10
255.2159
 20
384.1919
 30
0.0
 40
1.1
  1
LED95
 50
345.405
 72
1
 11
255.2159
 21
384.1919
 31
0.0
100
AcDbText
 73
2
  0
LWPOLYLINE
  5
2F0
330
17
100
AcDbEntity
  8
LED
100
AcDbPolyline
 90
5
 70
0
 10
280.69428271961135
 20
372.7727631706296
 10
285.25043682937036
 20
370.71328271961136
 10
287.3099172803886
 20
375.26943682937036
 10
282.7537631706296
 20
377.3289172803886
 10
280.69428271961135
 20
372.7727631706296
  0
CIRCLE
  5
2F1
330
17
100
AcDbEntity
  8
LED
100
AcDbCircle
 10
285.57558176945605
 20
371.5539852638782
 30
0.0
 40
0.45
  0
TEXT
  5
2F2
330
17
100
AcDbEntity
  8
LED-REF
100
AcDbText
 10
284.0021
 20
374.0211
 30
0.0
 40
1.1
  1
LED96
 50
335.676
 72
1
 11
284.0021
 21
374.0211
 31
0.0
100
AcDbText
 73
2
  0
LWPOLYLINE
  5
2F3
330
17
100
AcDbEntity
  8
LED
100
AcDbPolyline
 90
5
 70
0
 10
307.18418954490164
 20
358.46035956742054
 10
311.32674043257947
 20
355.6604895449017
 10
314.12661045509833
 20
359.8030404325795
 10
309.9840595674205
 20
362.60291045509837
 10
307.18418954490164
 20
358.46035956742054
  0
CIRCLE
  5
2F4
330
17
100
AcDbEntity
  8
LED
100
AcDbCircle
 10
311.7892915277561
 20
356.4341474049089
 30
0.0
 40
0.45
  0
TEXT
  5
2F5
330
17
100
AcDbEntity
  8
LED-REF
100
AcDbText
 10
310.6554
 20
359.1317
 30
0.0
 40
1.1
  1
LED97
 50
325.946
 72
1
 11
310.6554
 21
359.1317
 31
0.0
100
AcDbText
 73
2
  0
LWPOLYLINE
  5
2F6
330
17
100
AcDbEntity
  8
LED
100
AcDbPolyline
 90
5
 70
0
 10
330.8741623095061
 20
339.8770702765431
 10
334.48392972345687
 20
336.4173623095061
 10
337.9436376904939
 20
340.0271297234568
 10
334.33387027654317
 20
343.48683769049387
 10
330.8741623095061
 20
339.8770702765431
  0
CIRCLE
  5
2F7
330
17
100
AcDbEntity
  8
LED
100
AcDbCircle
 10
335.070579483384
 20
337.10171752368757
 30
0.0
 40
0.45
  0
TEXT
  5
2F8
330
17
100
AcDbEntity
  8
LED-REF
100
AcDbText
 10
334.4089
 20
339.9521
 30
0.0
 40
1.1
  1
LED98
 50
316.216
 72
1
 11
334.4089
 21
339.9521
 31
0.0
100
AcDbText
 73
2
  0
LWPOLYLINE
  5
2F9
330
17
100
AcDbEntity
  8
LED
100
AcDbPolyline
 90
5
 70
0
 10
351.08282867761193
 20
317.55743957383163
 10
354.0559604261684
 20
313.5374286776119
 10
358.0759713223881
 20
316.51056042616835
 10
355.10283957383166
 20
320.5305713223881
 10
351.08282867761193
 20
317.55743957383163
  0
CIRCLE
  5
2FA
330
17
100
AcDbEntity
  8
LED
100
AcDbCircle
 10
354.74983107000236
 20
314.11279250131423
 30
0.0
 40
0.45
  0
TEXT
  5
2FB
330
17
100
AcDbEntity
  8
LED-REF
100
AcDbText
 10
354.5794
 20
317.034
 30
0.0
 40
1.1
  1
LED99
 50
306.486
 72
1
 11
354.5794
 21
317.034
 31
0.0
100
AcDbText
 73
2
  0
CIRCLE
  5
2FC
330
17
100
AcDbEntity
  8
WAGO
100
AcDbCircle
 10
39.36
 20
215.25
 30
0.0
 40
0.6
  0
CIRCLE
  5
2FD
330
17
100
AcDbEntity
  8
WAGO
100
AcDbCircle
 10
39.36
 20
215.25
 30
0.0
 40
0.95
  0
CIRCLE
  5
2FE
330
17
100
AcDbEntity
  8
WAGO
100
AcDbCircle
 10
39.36
 20
211.75
 30
0.0
 40
0.6
  0
CIRCLE
  5
2FF
330
17
100
AcDbEntity
  8
WAGO
100
AcDbCircle
 10
39.36
 20
211.75
 30
0.0
 40
0.95
  0
CIRCLE
  5
300
330
17
100
AcDbEntity
  8
WAGO
100
AcDbCircle
 10
39.36
 20
208.25
 30
0.0
 40
0.6
  0
CIRCLE
  5
301
330
17
100
AcDbEntity
  8
WAGO
100
AcDbCircle
 10
39.36
 20
208.25
 30
0.0
 40
0.95
  0
CIRCLE
  5
302
330
17
100
AcDbEntity
  8
WAGO
100
AcDbCircle
 10
39.36
 20
204.75
 30
0.0
 40
0.6
  0
CIRCLE
  5
303
330
17
100
AcDbEntity
  8
WAGO
100
AcDbCircle
 10
39.36
 20
204.75
 30
0.0
 40
0.95
  0
CIRCLE
  5
304
330
17
100
AcDbEntity
  8
WAGO
100
AcDbCircle
 10
44.36
 20
215.25
 30
0.0
 40
0.6
  0
CIRCLE
  5
305
330
17
100
AcDbEntity
  8
WAGO
100
AcDbCircle
 10
44.36
 20
215.25
 30
0.0
 40
0.95
  0
CIRCLE
  5
306
330
17
100
AcDbEntity
  8
WAGO
100
AcDbCircle
 10
44.36
 20
211.75
 30
0.0
 40
0.6
  0
CIRCLE
  5
307
330
17
100
AcDbEntity
  8
WAGO
100
AcDbCircle
 10
44.36
 20
211.75
 30
0.0
 40
0.95
  0
CIRCLE
  5
308
330
17
100
AcDbEntity
  8
WAGO
100
AcDbCircle
 10
44.36
 20
208.25
 30
0.0
 40
0.6
  0
CIRCLE
  5
309
330
17
100
AcDbEntity
  8
WAGO
100
AcDbCircle
 10
44.36
 20
208.25
 30
0.0
 40
0.95
  0
CIRCLE
  5
30A
330
17
100
AcDbEntity
  8
WAGO
100
AcDbCircle
 10
44.36
 20
204.75
 30
0.0
 40
0.6
  0
CIRCLE
  5
30B
330
17
100
AcDbEntity
  8
WAGO
100
AcDbCircle
 10
44.36
 20
204.75
 30
0.0
 40
0.95
  0
LWPOLYLINE
  5
30C
330
17
100
AcDbEntity
  8
WAGO
100
AcDbPolyline
 90
5
 70
0
 10
39.56000000000001
 20
202.25
 10
39.56000000000001
 20
217.75
 10
52.260000000000005
 20
217.75
 10
52.260000000000005
 20
202.25
 10
39.56000000000001
 20
202.25
  0
LINE
  5
30D
330
17
100
AcDbEntity
  8
WAGO
100
AcDbLine
 10
52.260000000000005
 20
207.0
 30
0.0
 11
52.260000000000005
 21
213.0
 31
0.0
  0
CIRCLE
  5
30E
330
17
100
AcDbEntity
  8
WAGO
100
AcDbCircle
 10
375.36
 20
215.25
 30
0.0
 40
0.6
  0
CIRCLE
  5
30F
330
17
100
AcDbEntity
  8
WAGO
100
AcDbCircle
 10
375.36
 20
215.25
 30
0.0
 40
0.95
  0
CIRCLE
  5
310
330
17
100
AcDbEntity
  8
WAGO
100
AcDbCircle
 10
375.36
 20
211.75
 30
0.0
 40
0.6
  0
CIRCLE
  5
311
330
17
100
AcDbEntity
  8
WAGO
100
AcDbCircle
 10
375.36
 20
211.75
 30
0.0
 40
0.95
  0
CIRCLE
  5
312
330
17
100
AcDbEntity
  8
WAGO
100
AcDbCircle
 10
375.36
 20
208.25
 30
0.0
 40
0.6
  0
CIRCLE
  5
313
330
17
100
AcDbEntity
  8
WAGO
100
AcDbCircle
 10
375.36
 20
208.25
 30
0.0
 40
0.95
  0
CIRCLE
  5
314
330
17
100
AcDbEntity
  8
WAGO
100
AcDbCircle
 10
375.36
 20
204.75
 30
0.0
 40
0.6
  0
CIRCLE
  5
315
330
17
100
AcDbEntity
  8
WAGO
100
AcDbCircle
 10
375.36
 20
204.75
 30
0.0
 40
0.95
  0
CIRCLE
  5
316
330
17
100
AcDbEntity
  8
WAGO
100
AcDbCircle
 10
380.36
 20
215.25
 30
0.0
 40
0.6
  0
CIRCLE
  5
317
330
17
100
AcDbEntity
  8
WAGO
100
AcDbCircle
 10
380.36
 20
215.25
 30
0.0
 40
0.95
  0
CIRCLE
  5
318
330
17
100
AcDbEntity
  8
WAGO
100
AcDbCircle
 10
380.36
 20
211.75
 30
0.0
 40
0.6
  0
CIRCLE
  5
319
330
17
100
AcDbEntity
  8
WAGO
100
AcDbCircle
 10
380.36
 20
211.75
 30
0.0
 40
0.95
  0
CIRCLE
  5
31A
330
17
100
AcDbEntity
  8
WAGO
100
AcDbCircle
 10
380.36
 20
208.25
 30
0.0
 40
0.6
  0
CIRCLE
  5
31B
330
17
100
AcDbEntity
  8
WAGO
100
AcDbCircle
 10
380.36
 20
208.25
 30
0.0
 40
0.95
  0
CIRCLE
  5
31C
330
17
100
AcDbEntity
  8
WAGO
100
AcDbCircle
 10
380.36
 20
204.75
 30
0.0
 40
0.6
  0
CIRCLE
  5
31D
330
17
100
AcDbEntity
  8
WAGO
100
AcDbCircle
 10
380.36
 20
204.75
 30
0.0
 40
0.95
  0
LWPOLYLINE
  5
31E
330
17
100
AcDbEntity
  8
WAGO
100
AcDbPolyline
 90
5
 70
0
 10
380.1600000000001
 20
202.25
 10
380.1600000000001
 20
217.75
 10
367.4600000000001
 20
217.75
 10
367.4600000000001
 20
202.25
 10
380.1600000000001
 20
202.25
  0
LINE
  5
31F
330
17
100
AcDbEntity
  8
WAGO
100
AcDbLine
 10
367.4600000000001
 20
207.0
 30
0.0
 11
367.4600000000001
 21
213.0
 31
0.0
  0
ENDSEC
  0
SECTION
  2
OBJECTS
  0
DICTIONARY
  5
A
330
0
100
AcDbDictionary
281
1
  3
ACAD_COLOR
350
B
  3
ACAD_GROUP
350
C
  3
ACAD_LAYOUT
350
D
  3
ACAD_MATERIAL
350
E
  3
ACAD_MLEADERSTYLE
350
F
  3
ACAD_MLINESTYLE
350
10
  3
ACAD_PLOTSETTINGS
350
11
  3
ACAD_PLOTSTYLENAME
350
12
  3
ACAD_SCALELIST
350
14
  3
ACAD_TABLESTYLE
350
15
  3
ACAD_VISUALSTYLE
350
16
  3
EZDXF_META
350
2D
  0
DICTIONARY
  5
B
330
A
100
AcDbDictionary
281
1
  0
DICTIONARY
  5
C
330
A
100
AcDbDictionary
281
1
  0
DICTIONARY
  5
D
330
A
100
AcDbDictionary
281
1
  3
Model
350
1A
  3
Layout1
350
1E
  0
DICTIONARY
  5
E
330
A
100
AcDbDictionary
281
1
  3
ByBlock
350
1F
  3
ByLayer
350
20
  3
Global
350
21
  0
DICTIONARY
  5
F
330
A
100
AcDbDictionary
281
1
  3
Standard
350
2C
  0
DICTIONARY
  5
10
330
A
100
AcDbDictionary
281
1
  3
Standard
350
22
  0
DICTIONARY
  5
11
330
A
100
AcDbDictionary
281
1
  0
ACDBDICTIONARYWDFLT
  5
12
330
A
100
AcDbDictionary
281
1
  3
Normal
350
13
100
AcDbDictionaryWithDefault
340
13
  0
ACDBPLACEHOLDER
  5
13
330
12
  0
DICTIONARY
  5
14
330
A
100
AcDbDictionary
281
1
  0
DICTIONARY
  5
15
330
A
100
AcDbDictionary
281
1
  0
DICTIONARY
  5
16
330
A
100
AcDbDictionary
281
1
  0
LAYOUT
  5
1A
330
D
100
AcDbPlotSettings
  1

  4
A3
  6

 40
7.5
 41
20.0
 42
7.5
 43
20.0
 44
420.0
 45
297.0
 46
0.0
 47
0.0
 48
0.0
 49
0.0
140
0.0
141
0.0
142
1.0
143
1.0
 70
1024
 72
1
 73
0
 74
5
  7

 75
16
 76
0
 77
2
 78
300
147
1.0
148
0.0
149
0.0
100
AcDbLayout
  1
Model
 70
1
 71
0
 10
0.0
 20
0.0
 11
420.0
 21
297.0
 12
0.0
 22
0.0
 32
0.0
 14
1e+20
 24
1e+20
 34
1e+20
 15
-1e+20
 25
-1e+20
 35
-1e+20
146
0.0
 13
0.0
 23
0.0
 33
0.0
 16
1.0
 26
0.0
 36
0.0
 17
0.0
 27
1.0
 37
0.0
 76
1
330
17
  0
LAYOUT
  5
1E
330
D
100
AcDbPlotSettings
  1

  4
A3
  6

 40
7.5
 41
20.0
 42
7.5
 43
20.0
 44
420.0
 45
297.0
 46
0.0
 47
0.0
 48
0.0
 49
0.0
140
0.0
141
0.0
142
1.0
143
1.0
 70
0
 72
1
 73
0
 74
5
  7

 75
16
 76
0
 77
2
 78
300
147
1.0
148
0.0
149
0.0
100
AcDbLayout
  1
Layout1
 70
1
 71
1
 10
0.0
 20
0.0
 11
420.0
 21
297.0
 12
0.0
 22
0.0
 32
0.0
 14
1e+20
 24
1e+20
 34
1e+20
 15
-1e+20
 25
-1e+20
 35
-1e+20
146
0.0
 13
0.0
 23
0.0
 33
0.0
 16
1.0
 26
0.0
 36
0.0
 17
0.0
 27
1.0
 37
0.0
 76
1
330
1B
  0
MATERIAL
  5
1F
102
{ACAD_REACTORS
330
E
102
}
330
E
100
AcDbMaterial
  1
ByBlock
  2

 70
0
 40
1.0
 71
1
 41
1.0
 91
-1023410177
 42
1.0
 72
1
  3

 73
1
 74
1
 75
1
 44
0.5
 73
0
 45
1.0
 46
1.0
 77
1
  4

 78
1
 79
1
170
1
 48
1.0
171
1
  6

172
1
173
1
174
1
140
1.0
141
1.0
175
1
  7

176
1
177
1
178
1
143
1.0
179
1
  8

270
1
271
1
272
1
145
1.0
146
1.0
273
1
  9

274
1
275
1
276
1
 42
1.0
 72
1
  3

 73
1
 74
1
 75
1
 94
63
  0
MATERIAL
  5
20
102
{ACAD_REACTORS
330
E
102
}
330
E
100
AcDbMaterial
  1
ByLayer
  2

 70
0
 40
1.0
 71
1
 41
1.0
 91
-1023410177
 42
1.0
 72
1
  3

 73
1
 74
1
 75
1
 44
0.5
 73
0
 45
1.0
 46
1.0
 77
1
  4

 78
1
 79
1
170
1
 48
1.0
171
1
  6

172
1
173
1
174
1
140
1.0
141
1.0
175
1
  7

176
1
177
1
178
1
143
1.0
179
1
  8

270
1
271
1
272
1
145
1.0
146
1.0
273
1
  9

274
1
275
1
276
1
 42
1.0
 72
1
  3

 73
1
 74
1
 75
1
 94
63
  0
MATERIAL
  5
21
102
{ACAD_REACTORS
330
E
102
}
330
E
100
AcDbMaterial
  1
Global
  2

 70
0
 40
1.0
 71
1
 41
1.0
 91
-1023410177
 42
1.0
 72
1
  3

 73
1
 74
1
 75
1
 44
0.5
 73
0
 45
1.0
 46
1.0
 77
1
  4

 78
1
 79
1
170
1
 48
1.0
171
1
  6

172
1
173
1
174
1
140
1.0
141
1.0
175
1
  7

176
1
177
1
178
1
143
1.0
179
1
  8

270
1
271
1
272
1
145
1.0
146
1.0
273
1
  9

274
1
275
1
276
1
 42
1.0
 72
1
  3

 73
1
 74
1
 75
1
 94
63
  0
MLINESTYLE
  5
22
102
{ACAD_REACTORS
330
10
102
}
330
10
100
AcDbMlineStyle
  2
Standard
 70
0
  3

 62
256
 51
90.0
 52
90.0
 71
2
 49
0.5
 62
256
  6
BYLAYER
 49
-0.5
 62
256
  6
BYLAYER
  0
MLEADERSTYLE
  5
2C
102
{ACAD_REACTORS
330
F
102
}
330
F
100
AcDbMLeaderStyle
179
2
170
2
171
1
172
0
 90
2
 40
0.0
 41
0.0
173
1
 91
-1056964608
 92
-2
290
1
 42
2.0
291
1
 43
8.0
  3
Standard
 44
4.0
300

342
29
174
1
175
1
176
0
178
1
 93
-1056964608
 45
4.0
292
0
297
0
 46
4.0
 94
-1056964608
 47
1.0
 49
1.0
140
1.0
294
1
141
0.0
177
0
142
1.0
295
0
296
0
143
3.75
271
0
272
9
273
9
  0
DICTIONARY
  5
2D
330
A
100
AcDbDictionary
280
1
281
1
  3
CREATED_BY_EZDXF
350
2E
  3
WRITTEN_BY_EZDXF
350
322
  0
DICTIONARYVAR
  5
2E
330
2D
100
DictionaryVariables
280
0
  1
1.4.4 @ 2026-09-03T17:02:07.689330+00:00
  0
DICTIONARYVAR
  5
322
330
2D
100
DictionaryVariables
280
0
  1
1.4.4 @ 2026-09-03T17:02:07.716153+00:00
  0
ENDSEC
  0
EOF
