  0
SECTION
  2
HEADER
  9
$ACADVER
  1
AC1024
  9
$ACADMAINTVER
 70
6
  9
$DWGCODEPAGE
  3
ANSI_1252
  9
$LASTSAVEDBY
  1
ezdxf
  9
$INSBASE
 10
0.0
 20
0.0
 30
0.0
  9
$EXTMIN
 10
1e+20
 20
1e+20
 30
1e+20
  9
$EXTMAX
 10
-1e+20
 20
-1e+20
 30
-1e+20
  9
$LIMMIN
 10
0.0
 20
0.0
  9
$LIMMAX
 10
420.0
 20
297.0
  9
$ORTHOMODE
 70
0
  9
$REGENMODE
 70
1
  9
$FILLMODE
 70
1
  9
$QTEXTMODE
 70
0
  9
$MIRRTEXT
 70
1
  9
$LTSCALE
 40
1.0
  9
$ATTMODE
 70
1
  9
$TEXTSIZE
 40
2.5
  9
$TRACEWID
 40
1.0
  9
$TEXTSTYLE
  7
Standard
  9
$CLAYER
  8
0
  9
$CELTYPE
  6
ByLayer
  9
$CECOLOR
 62
256
  9
$CELTSCALE
 40
1.0
  9
$DISPSILH
 70
0
  9
$DIMSCALE
 40
1.0
  9
$DIMASZ
 40
2.5
  9
$DIMEXO
 40
0.625
  9
$DIMDLI
 40
3.75
  9
$DIMRND
 40
0.0
  9
$DIMDLE
 40
0.0
  9
$DIMEXE
 40
1.25
  9
$DIMTP
 40
0.0
  9
$DIMTM
 40
0.0
  9
$DIMTXT
 40
2.5
  9
$DIMCEN
 40
2.5
  9
$DIMTSZ
 40
0.0
  9
$DIMTOL
 70
0
  9
$DIMLIM
 70
0
  9
$DIMTIH
 70
0
  9
$DIMTOH
 70
0
  9
$DIMSE1
 70
0
  9
$DIMSE2
 70
0
  9
$DIMTAD
 70
1
  9
$DIMZIN
 70
8
  9
$DIMBLK
  1

  9
$DIMASO
 70
1
  9
$DIMSHO
 70
1
  9
$DIMPOST
  1

  9
$DIMAPOST
  1

  9
$DIMALT
 70
0
  9
$DIMALTD
 70
3
  9
$DIMALTF
 40
0.03937007874
  9
$DIMLFAC
 40
1.0
  9
$DIMTOFL
 70
1
  9
$DIMTVP
 40
0.0
  9
$DIMTIX
 70
0
  9
$DIMSOXD
 70
0
  9
$DIMSAH
 70
0
  9
$DIMBLK1
  1

  9
$DIMBLK2
  1

  9
$DIMSTYLE
  2
ISO-25
  9
$DIMCLRD
 70
0
  9
$DIMCLRE
 70
0
  9
$DIMCLRT
 70
0
  9
$DIMTFAC
 40
1.0
  9
$DIMGAP
 40
0.625
  9
$DIMJUST
 70
0
  9
$DIMSD1
 70
0
  9
$DIMSD2
 70
0
  9
$DIMTOLJ
 70
0
  9
$DIMTZIN
 70
8
  9
$DIMALTZ
 70
0
  9
$DIMALTTZ
 70
0
  9
$DIMUPT
 70
0
  9
$DIMDEC
 70
2
  9
$DIMTDEC
 70
2
  9
$DIMALTU
 70
2
  9
$DIMALTTD
 70
3
  9
$DIMTXSTY
  7
Standard
  9
$DIMAUNIT
 70
0
  9
$DIMADEC
 70
0
  9
$DIMALTRND
 40
0.0
  9
$DIMAZIN
 70
0
  9
$DIMDSEP
 70
44
  9
$DIMATFIT
 70
3
  9
$DIMFRAC
 70
0
  9
$DIMLDRBLK
  1

  9
$DIMLUNIT
 70
2
  9
$DIMLWD
 70
-2
  9
$DIMLWE
 70
-2
  9
$DIMTMOVE
 70
0
  9
$DIMFXL
 40
1.0
  9
$DIMFXLON
 70
0
  9
$DIMJOGANG
 40
0.785398163397
  9
$DIMTFILL
 70
0
  9
$DIMTFILLCLR
 70
0
  9
$DIMARCSYM
 70
0
  9
$DIMLTYPE
  6

  9
$DIMLTEX1
  6

  9
$DIMLTEX2
  6

  9
$DIMTXTDIRECTION
 70
0
  9
$LUNITS
 70
2
  9
$LUPREC
 70
4
  9
$SKETCHINC
 40
1.0
  9
$FILLETRAD
 40
10.0
  9
$AUNITS
 70
0
  9
$AUPREC
 70
2
  9
$MENU
  1
.
  9
$ELEVATION
 40
0.0
  9
$PELEVATION
 40
0.0
  9
$THICKNESS
 40
0.0
  9
$LIMCHECK
 70
0
  9
$CHAMFERA
 40
0.0
  9
$CHAMFERB
 40
0.0
  9
$CHAMFERC
 40
0.0
  9
$CHAMFERD
 40
0.0
  9
$SKPOLY
 70
0
  9
$TDCREATE
 40
2461283.6974768518
  9
$TDUCREATE
 40
2458532.153996898
  9
$TDUPDATE
 40
2461283.6974768518
  9
$TDUUPDATE
 40
2458532.1544311
  9
$TDINDWG
 40
0.0
  9
$TDUSRTIMER
 40
0.0
  9
$USRTIMER
 70
1
  9
$ANGBASE
 50
0.0
  9
$ANGDIR
 70
0
  9
$PDMODE
 70
0
  9
$PDSIZE
 40
0.0
  9
$PLINEWID
 40
0.0
  9
$SPLFRAME
 70
0
  9
$SPLINETYPE
 70
6
  9
$SPLINESEGS
 70
8
  9
$HANDSEED
  5
22C
  9
$SURFTAB1
 70
6
  9
$SURFTAB2
 70
6
  9
$SURFTYPE
 70
6
  9
$SURFU
 70
6
  9
$SURFV
 70
6
  9
$UCSBASE
  2

  9
$UCSNAME
  2

  9
$UCSORG
 10
0.0
 20
0.0
 30
0.0
  9
$UCSXDIR
 10
1.0
 20
0.0
 30
0.0
  9
$UCSYDIR
 10
0.0
 20
1.0
 30
0.0
  9
$UCSORTHOREF
  2

  9
$UCSORTHOVIEW
 70
0
  9
$UCSORGTOP
 10
0.0
 20
0.0
 30
0.0
  9
$UCSORGBOTTOM
 10
0.0
 20
0.0
 30
0.0
  9
$UCSORGLEFT
 10
0.0
 20
0.0
 30
0.0
  9
$UCSORGRIGHT
 10
0.0
 20
0.0
 30
0.0
  9
$UCSORGFRONT
 10
0.0
 20
0.0
 30
0.0
  9
$UCSORGBACK
 10
0.0
 20
0.0
 30
0.0
  9
$PUCSBASE
  2

  9
$PUCSNAME
  2

  9
$PUCSORG
 10
0.0
 20
0.0
 30
0.0
  9
$PUCSXDIR
 10
1.0
 20
0.0
 30
0.0
  9
$PUCSYDIR
 10
0.0
 20
1.0
 30
0.0
  9
$PUCSORTHOREF
  2

  9
$PUCSORTHOVIEW
 70
0
  9
$PUCSORGTOP
 10
0.0
 20
0.0
 30
0.0
  9
$PUCSORGBOTTOM
 10
0.0
 20
0.0
 30
0.0
  9
$PUCSORGLEFT
 10
0.0
 20
0.0
 30
0.0
  9
$PUCSORGRIGHT
 10
0.0
 20
0.0
 30
0.0
  9
$PUCSORGFRONT
 10
0.0
 20
0.0
 30
0.0
  9
$PUCSORGBACK
 10
0.0
 20
0.0
 30
0.0
  9
$USERI1
 70
0
  9
$USERI2
 70
0
  9
$USERI3
 70
0
  9
$USERI4
 70
0
  9
$USERI5
 70
0
  9
$USERR1
 40
0.0
  9
$USERR2
 40
0.0
  9
$USERR3
 40
0.0
  9
$USERR4
 40
0.0
  9
$USERR5
 40
0.0
  9
$WORLDVIEW
 70
1
  9
$SHADEDGE
 70
3
  9
$SHADEDIF
 70
70
  9
$TILEMODE
 70
1
  9
$MAXACTVP
 70
64
  9
$PINSBASE
 10
0.0
 20
0.0
 30
0.0
  9
$PLIMCHECK
 70
0
  9
$PEXTMIN
 10
1e+20
 20
1e+20
 30
1e+20
  9
$PEXTMAX
 10
-1e+20
 20
-1e+20
 30
-1e+20
  9
$PLIMMIN
 10
0.0
 20
0.0
  9
$PLIMMAX
 10
420.0
 20
297.0
  9
$UNITMODE
 70
0
  9
$VISRETAIN
 70
1
  9
$PLINEGEN
 70
0
  9
$PSLTSCALE
 70
1
  9
$TREEDEPTH
 70
3020
  9
$CMLSTYLE
  2
Standard
  9
$CMLJUST
 70
0
  9
$CMLSCALE
 40
20.0
  9
$PROXYGRAPHICS
 70
1
  9
$MEASUREMENT
 70
1
  9
$CELWEIGHT
370
-1
  9
$ENDCAPS
280
0
  9
$JOINSTYLE
280
0
  9
$LWDISPLAY
290
0
  9
$INSUNITS
 70
4
  9
$HYPERLINKBASE
  1

  9
$STYLESHEET
  1

  9
$XEDIT
290
1
  9
$CEPSNTYPE
380
0
  9
$PSTYLEMODE
290
1
  9
$FINGERPRINTGUID
  2
{984C6429-C7E6-4233-A3B1-BDC2397964D4}
  9
$VERSIONGUID
  2
{03FA0121-B6A4-4E02-A79F-B5D85B98C557}
  9
$EXTNAMES
290
1
  9
$PSVPSCALE
 40
0.0
  9
$OLESTARTUP
290
0
  9
$SORTENTS
280
127
  9
$INDEXCTL
280
0
  9
$HIDETEXT
280
1
  9
$XCLIPFRAME
280
1
  9
$HALOGAP
280
0
  9
$OBSCOLOR
 70
257
  9
$OBSLTYPE
280
0
  9
$INTERSECTIONDISPLAY
280
0
  9
$INTERSECTIONCOLOR
 70
257
  9
$DIMASSOC
280
2
  9
$PROJECTNAME
  1

  9
$CAMERADISPLAY
290
0
  9
$LENSLENGTH
 40
50.0
  9
$CAMERAHEIGHT
 40
0.0
  9
$STEPSPERSEC
 40
24.0
  9
$STEPSIZE
 40
100.0
  9
$3DDWFPREC
 40
2.0
  9
$PSOLWIDTH
 40
0.005
  9
$PSOLHEIGHT
 40
0.08
  9
$LOFTANG1
 40
1.570796326795
  9
$LOFTANG2
 40
1.570796326795
  9
$LOFTMAG1
 40
0.0
  9
$LOFTMAG2
 40
0.0
  9
$LOFTPARAM
 70
7
  9
$LOFTNORMALS
280
1
  9
$LATITUDE
 40
37.795
  9
$LONGITUDE
 40
-122.394
  9
$NORTHDIRECTION
 40
0.0
  9
$TIMEZONE
 70
-8000
  9
$LIGHTGLYPHDISPLAY
280
1
  9
$TILEMODELIGHTSYNCH
280
1
  9
$CMATERIAL
347
20
  9
$SOLIDHIST
280
0
  9
$SHOWHIST
280
1
  9
$DWFFRAME
280
2
  9
$DGNFRAME
280
2
  9
$REALWORLDSCALE
290
1
  9
$INTERFERECOLOR
 62
256
  9
$CSHADOW
280
0
  9
$SHADOWPLANELOCATION
 40
0.0
  0
ENDSEC
  0
SECTION
  2
CLASSES
  0
CLASS
  1
ACDBDICTIONARYWDFLT
  2
AcDbDictionaryWithDefault
  3
ObjectDBX Classes
 90
0
 91
0
280
0
281
0
  0
CLASS
  1
SUN
  2
AcDbSun
  3
SCENEOE
 90
1153
 91
0
280
0
281
0
  0
CLASS
  1
VISUALSTYLE
  2
AcDbVisualStyle
  3
ObjectDBX Classes
 90
4095
 91
0
280
0
281
0
  0
CLASS
  1
MATERIAL
  2
AcDbMaterial
  3
ObjectDBX Classes
 90
1153
 91
0
280
0
281
0
  0
CLASS
  1
SCALE
  2
AcDbScale
  3
ObjectDBX Classes
 90
1153
 91
0
280
0
281
0
  0
CLASS
  1
TABLESTYLE
  2
AcDbTableStyle
  3
ObjectDBX Classes
 90
4095
 91
0
280
0
281
0
  0
CLASS
  1
MLEADERSTYLE
  2
AcDbMLeaderStyle
  3
ACDB_MLEADERSTYLE_CLASS
 90
4095
 91
0
280
0
281
0
  0
CLASS
  1
DICTIONARYVAR
  2
AcDbDictionaryVar
  3
ObjectDBX Classes
 90
0
 91
0
280
0
281
0
  0
CLASS
  1
CELLSTYLEMAP
  2
AcDbCellStyleMap
  3
ObjectDBX Classes
 90
1152
 91
0
280
0
281
0
  0
CLASS
  1
MENTALRAYRENDERSETTINGS
  2
AcDbMentalRayRenderSettings
  3
SCENEOE
 90
1024
 91
0
280
0
281
0
  0
CLASS
  1
ACDBDETAILVIEWSTYLE
  2
AcDbDetailViewStyle
  3
ObjectDBX Classes
 90
1025
 91
0
280
0
281
0
  0
CLASS
  1
ACDBSECTIONVIEWSTYLE
  2
AcDbSectionViewStyle
  3
ObjectDBX Classes
 90
1025
 91
0
280
0
281
0
  0
CLASS
  1
RASTERVARIABLES
  2
AcDbRasterVariables
  3
ISM
 90
0
 91
0
280
0
281
0
  0
CLASS
  1
LAYOUT
  2
AcDbLayout
  3
ObjectDBX Classes
 90
0
 91
0
280
0
281
0
  0
CLASS
  1
ACDBPLACEHOLDER
  2
AcDbPlaceHolder
  3
ObjectDBX Classes
 90
0
 91
0
280
0
281
0
  0
ENDSEC
  0
SECTION
  2
TABLES
  0
TABLE
  2
VPORT
  5
8
330
0
100
AcDbSymbolTable
 70
1
  0
VPORT
  5
23
330
8
100
AcDbSymbolTableRecord
100
AcDbViewportTableRecord
  2
*Active
 70
0
 10
0.0
 20
0.0
 11
1.0
 21
1.0
 12
0.0
 22
0.0
 13
0.0
 23
0.0
 14
0.5
 24
0.5
 15
0.5
 25
0.5
 16
0.0
 26
0.0
 36
1.0
 17
0.0
 27
0.0
 37
0.0
 40
1000.0
 41
1.34
 42
50.0
 43
0.0
 44
0.0
 50
0.0
 51
0.0
 71
0
 72
1000
 73
1
 74
3
 75
0
 76
0
 77
0
 78
0
281
0
 65
0
146
0.0
  0
ENDTAB
  0
TABLE
  2
LTYPE
  5
2
330
0
100
AcDbSymbolTable
 70
3
  0
LTYPE
  5
24
330
2
100
AcDbSymbolTableRecord
100
AcDbLinetypeTableRecord
  2
ByBlock
 70
0
  3

 72
65
 73
0
 40
0.0
  0
LTYPE
  5
25
330
2
100
AcDbSymbolTableRecord
100
AcDbLinetypeTableRecord
  2
ByLayer
 70
0
  3

 72
65
 73
0
 40
0.0
  0
LTYPE
  5
26
330
2
100
AcDbSymbolTableRecord
100
AcDbLinetypeTableRecord
  2
Continuous
 70
0
  3

 72
65
 73
0
 40
0.0
  0
ENDTAB
  0
TABLE
  2
LAYER
  5
1
330
0
100
AcDbSymbolTable
 70
8
  0
LAYER
  5
27
330
1
100
AcDbSymbolTableRecord
100
AcDbLayerTableRecord
  2
0
 70
0
 62
7
  6
Continuous
370
-3
390
13
347
21
  0
LAYER
  5
28
330
1
100
AcDbSymbolTableRecord
100
AcDbLayerTableRecord
  2
Defpoints
 70
0
 62
7
  6
Continuous
290
0
370
-3
390
13
347
21
  0
LAYER
  5
2F
330
1
100
AcDbSymbolTableRecord
100
AcDbLayerTableRecord
  2
OUTLINE
 70
0
 62
2
  6
Continuous
370
-3
390
13
347
21
  0
LAYER
  5
30
330
1
100
AcDbSymbolTableRecord
100
AcDbLayerTableRecord
  2
LED
 70
0
 62
7
  6
Continuous
370
-3
390
13
347
21
  0
LAYER
  5
31
330
1
100
AcDbSymbolTableRecord
100
AcDbLayerTableRecord
  2
LED-REF
 70
0
 62
8
  6
Continuous
370
-3
390
13
347
21
  0
LAYER
  5
32
330
1
100
AcDbSymbolTableRecord
100
AcDbLayerTableRecord
  2
CAP
 70
0
 62
30
  6
Continuous
370
-3
390
13
347
21
  0
LAYER
  5
33
330
1
100
AcDbSymbolTableRecord
100
AcDbLayerTableRecord
  2
WAGO
 70
0
 62
3
  6
Continuous
370
-3
390
13
347
21
  0
LAYER
  5
34
330
1
100
AcDbSymbolTableRecord
100
AcDbLayerTableRecord
  2
MOUNT
 70
0
 62
1
  6
Continuous
370
-3
390
13
347
21
  0
ENDTAB
  0
TABLE
  2
STYLE
  5
5
330
0
100
AcDbSymbolTable
 70
1
  0
STYLE
  5
29
330
5
100
AcDbSymbolTableRecord
100
AcDbTextStyleTableRecord
  2
Standard
 70
0
 40
0.0
 41
1.0
 50
0.0
 71
0
 42
2.5
  3
txt
  4

  0
ENDTAB
  0
TABLE
  2
VIEW
  5
7
330
0
100
AcDbSymbolTable
 70
0
  0
ENDTAB
  0
TABLE
  2
UCS
  5
6
330
0
100
AcDbSymbolTable
 70
0
  0
ENDTAB
  0
TABLE
  2
APPID
  5
3
330
0
100
AcDbSymbolTable
 70
3
  0
APPID
  5
2A
330
3
100
AcDbSymbolTableRecord
100
AcDbRegAppTableRecord
  2
ACAD
 70
0
  0
APPID
  5
229
330
3
100
AcDbSymbolTableRecord
100
AcDbRegAppTableRecord
  2
HATCHBACKGROUNDCOLOR
 70
0
  0
APPID
  5
22A
330
3
100
AcDbSymbolTableRecord
100
AcDbRegAppTableRecord
  2
EZDXF
 70
0
  0
ENDTAB
  0
TABLE
  2
DIMSTYLE
  5
4
330
0
100
AcDbSymbolTable
 70
1
100
AcDbDimStyleTable
  0
DIMSTYLE
105
2B
330
4
100
AcDbSymbolTableRecord
100
AcDbDimStyleTableRecord
  2
Standard
 70
0
 40
1.0
 41
2.5
 42
0.625
 43
3.75
 44
1.25
 45
0.0
 46
0.0
 47
0.0
 48
0.0
 49
2.5
140
2.5
141
2.5
142
0.0
143
0.03937007874
144
1.0
145
0.0
146
1.0
147
0.625
148
0.0
 69
0
 70
0
 71
0
 72
0
 73
0
 74
0
 75
0
 76
0
 77
1
 78
8
 79
3
170
0
171
3
172
1
173
0
174
0
175
0
176
0
177
0
178
0
179
2
271
2
272
2
273
2
274
3
275
0
276
0
277
2
278
44
279
0
280
0
281
0
282
0
283
0
284
8
285
0
286
0
288
0
289
3
290
0
371
-2
372
-2
  0
ENDTAB
  0
TABLE
  2
BLOCK_RECORD
  5
9
330
0
100
AcDbSymbolTable
 70
2
  0
BLOCK_RECORD
  5
17
330
9
100
AcDbSymbolTableRecord
100
AcDbBlockTableRecord
  2
*Model_Space
340
1A
 70
0
280
1
281
0
  0
BLOCK_RECORD
  5
1B
330
9
100
AcDbSymbolTableRecord
100
AcDbBlockTableRecord
  2
*Paper_Space
340
1E
 70
0
280
1
281
0
  0
ENDTAB
  0
ENDSEC
  0
SECTION
  2
BLOCKS
  0
BLOCK
  5
18
330
17
100
AcDbEntity
  8
0
100
AcDbBlockBegin
  2
*Model_Space
 70
0
 10
0.0
 20
0.0
 30
0.0
  3
*Model_Space
  1

  0
ENDBLK
  5
19
330
17
100
AcDbEntity
  8
0
100
AcDbBlockEnd
  0
BLOCK
  5
1C
330
1B
100
AcDbEntity
  8
0
100
AcDbBlockBegin
  2
*Paper_Space
 70
0
 10
0.0
 20
0.0
 30
0.0
  3
*Paper_Space
  1

  0
ENDBLK
  5
1D
330
1B
100
AcDbEntity
  8
0
100
AcDbBlockEnd
  0
ENDSEC
  0
SECTION
  2
ENTITIES
  0
ARC
  5
35
330
17
100
AcDbEntity
  8
OUTLINE
100
AcDbCircle
 10
-15.6968
 20
-215.2495
 30
0.0
 40
674.0
100
AcDbArc
 50
60.085
 51
89.915
  0
ARC
  5
36
330
17
100
AcDbEntity
  8
OUTLINE
100
AcDbCircle
 10
-15.6968
 20
-215.2495
 30
0.0
 40
226.0
100
AcDbArc
 50
60.2535
 51
89.7465
  0
LINE
  5
37
330
17
100
AcDbEntity
  8
OUTLINE
100
AcDbLine
 10
320.4369
 20
368.951
 30
0.0
 11
96.4361
 21
-19.0296
 31
0.0
  0
LINE
  5
38
330
17
100
AcDbEntity
  8
OUTLINE
100
AcDbLine
 10
-14.6968
 20
10.7483
 30
0.0
 11
-14.6968
 21
458.7498
 31
0.0
  0
CIRCLE
  5
39
330
17
100
AcDbEntity
  8
MOUNT
100
AcDbCircle
 10
-9.4468
 20
16.7505
 30
0.0
 40
2.11
  0
CIRCLE
  5
3A
330
17
100
AcDbEntity
  8
MOUNT
100
AcDbCircle
 10
-9.4468
 20
16.7505
 30
0.0
 40
3.1
  0
CIRCLE
  5
3B
330
17
100
AcDbEntity
  8
MOUNT
100
AcDbCircle
 10
-9.4468
 20
16.7505
 30
0.0
 40
5.5
  0
CIRCLE
  5
3C
330
17
100
AcDbEntity
  8
MOUNT
100
AcDbCircle
 10
-9.4468
 20
452.7505
 30
0.0
 40
2.11
  0
CIRCLE
  5
3D
330
17
100
AcDbEntity
  8
MOUNT
100
AcDbCircle
 10
-9.4468
 20
452.7505
 30
0.0
 40
3.1
  0
CIRCLE
  5
3E
330
17
100
AcDbEntity
  8
MOUNT
100
AcDbCircle
 10
-9.4468
 20
452.7505
 30
0.0
 40
5.5
  0
CIRCLE
  5
3F
330
17
100
AcDbEntity
  8
MOUNT
100
AcDbCircle
 10
-7.6968
 20
158.5905
 30
0.0
 40
2.11
  0
CIRCLE
  5
40
330
17
100
AcDbEntity
  8
MOUNT
100
AcDbCircle
 10
-7.6968
 20
158.5905
 30
0.0
 40
3.1
  0
CIRCLE
  5
41
330
17
100
AcDbEntity
  8
MOUNT
100
AcDbCircle
 10
-7.6968
 20
158.5905
 30
0.0
 40
5.5
  0
CIRCLE
  5
42
330
17
100
AcDbEntity
  8
MOUNT
100
AcDbCircle
 10
-7.6968
 20
306.4305
 30
0.0
 40
2.11
  0
CIRCLE
  5
43
330
17
100
AcDbEntity
  8
MOUNT
100
AcDbCircle
 10
-7.6968
 20
306.4305
 30
0.0
 40
3.1
  0
CIRCLE
  5
44
330
17
100
AcDbEntity
  8
MOUNT
100
AcDbCircle
 10
-7.6968
 20
306.4305
 30
0.0
 40
5.5
  0
CIRCLE
  5
45
330
17
100
AcDbEntity
  8
MOUNT
100
AcDbCircle
 10
94.8906
 20
-11.2066
 30
0.0
 40
2.11
  0
CIRCLE
  5
46
330
17
100
AcDbEntity
  8
MOUNT
100
AcDbCircle
 10
94.8906
 20
-11.2066
 30
0.0
 40
3.1
  0
CIRCLE
  5
47
330
17
100
AcDbEntity
  8
MOUNT
100
AcDbCircle
 10
94.8906
 20
-11.2066
 30
0.0
 40
5.5
  0
CIRCLE
  5
48
330
17
100
AcDbEntity
  8
MOUNT
100
AcDbCircle
 10
164.295
 20
112.5055
 30
0.0
 40
2.11
  0
CIRCLE
  5
49
330
17
100
AcDbEntity
  8
MOUNT
100
AcDbCircle
 10
164.295
 20
112.5055
 30
0.0
 40
3.1
  0
CIRCLE
  5
4A
330
17
100
AcDbEntity
  8
MOUNT
100
AcDbCircle
 10
164.295
 20
112.5055
 30
0.0
 40
5.5
  0
CIRCLE
  5
4B
330
17
100
AcDbEntity
  8
MOUNT
100
AcDbCircle
 10
238.215
 20
240.5387
 30
0.0
 40
2.11
  0
CIRCLE
  5
4C
330
17
100
AcDbEntity
  8
MOUNT
100
AcDbCircle
 10
238.215
 20
240.5387
 30
0.0
 40
3.1
  0
CIRCLE
  5
4D
330
17
100
AcDbEntity
  8
MOUNT
100
AcDbCircle
 10
238.215
 20
240.5387
 30
0.0
 40
5.5
  0
CIRCLE
  5
4E
330
17
100
AcDbEntity
  8
MOUNT
100
AcDbCircle
 10
312.8906
 20
366.3805
 30
0.0
 40
2.11
  0
CIRCLE
  5
4F
330
17
100
AcDbEntity
  8
MOUNT
100
AcDbCircle
 10
312.8906
 20
366.3805
 30
0.0
 40
3.1
  0
CIRCLE
  5
50
330
17
100
AcDbEntity
  8
MOUNT
100
AcDbCircle
 10
312.8906
 20
366.3805
 30
0.0
 40
5.5
  0
LWPOLYLINE
  5
51
330
17
100
AcDbEntity
  8
CAP
100
AcDbPolyline
 90
5
 70
0
 10
-1.8101789340886731
 20
27.963051609717063
 10
-1.7055339273204442
 20
29.55962588689883
 10
-2.503821065911327
 20
29.61194839028294
 10
-2.6084660726795557
 20
28.015374113101174
 10
-1.8101789340886731
 20
27.963051609717063
  0
LWPOLYLINE
  5
52
330
17
100
AcDbEntity
  8
CAP
100
AcDbPolyline
 90
5
 70
0
 10
29.77202776420587
 20
84.9333755415078
 10
30.02232290827024
 20
86.51367688646002
 10
29.232172235794128
 20
86.63882445849221
 10
28.981877091729757
 20
85.05852311353999
 10
29.77202776420587
 20
84.9333755415078
  0
LWPOLYLINE
  5
53
330
17
100
AcDbEntity
  8
CAP
100
AcDbPolyline
 90
5
 70
0
 10
29.599108187911533
 20
446.806002092538
 10
29.713253413222674
 20
448.4019252948064
 10
28.91529181208847
 20
448.458997907462
 10
28.801146586777328
 20
446.8630747051936
 10
29.599108187911533
 20
446.806002092538
  0
LWPOLYLINE
  5
54
330
17
100
AcDbEntity
  8
CAP
100
AcDbPolyline
 90
5
 70
0
 10
61.04969857514269
 20
443.90077102616874
 10
61.23964403397937
 20
445.48945624441285
 10
60.44530142485731
 20
445.5844289738312
 10
60.25535596602064
 20
443.9957437555871
 10
61.04969857514269
 20
443.90077102616874
  0
LWPOLYLINE
  5
55
330
17
100
AcDbEntity
  8
CAP
100
AcDbPolyline
 90
5
 70
0
 10
92.32640452228652
 20
439.5024465918745
 10
92.59172001312851
 20
441.08029566270454
 10
91.80279547771347
 20
441.21295340812554
 10
91.53747998687149
 20
439.6351043372955
 10
92.32640452228652
 20
439.5024465918745
  0
LWPOLYLINE
  5
56
330
17
100
AcDbEntity
  8
CAP
100
AcDbPolyline
 90
5
 70
0
 10
123.35840238905365
 20
433.6209553403752
 10
123.6985142942677
 20
435.18438870701783
 10
122.91679761094636
 20
435.35444465962485
 10
122.57668570573232
 20
433.7910112929822
 10
123.35840238905365
 20
433.6209553403752
  0
LWPOLYLINE
  5
57
330
17
100
AcDbEntity
  8
CAP
100
AcDbPolyline
 90
5
 70
0
 10
154.0754150944336
 20
426.2695317209278
 10
154.48952556659762
 20
427.81501304299024
 10
153.71678490556639
 20
428.02206827907224
 10
153.30267443340236
 20
426.4765869570098
 10
154.0754150944336
 20
426.2695317209278
  0
LWPOLYLINE
  5
58
330
17
100
AcDbEntity
  8
CAP
100
AcDbPolyline
 90
5
 70
0
 10
184.40782167467273
 20
417.46479273405896
 10
184.89499280794917
 20
418.9888216993028
 10
184.13297832532726
 20
419.232407265941
 10
183.64580719205082
 20
417.7083783006972
 10
184.40782167467273
 20
417.46479273405896
  0
LWPOLYLINE
  5
59
330
17
100
AcDbEntity
  8
CAP
100
AcDbPolyline
 90
5
 70
0
 10
214.2870014908602
 20
407.2268537928692
 10
214.84615607118855
 20
408.7259689169667
 10
214.0965985091398
 20
409.0055462071308
 10
213.53744392881146
 20
407.5064310830333
 10
214.2870014908602
 20
407.2268537928692
  0
LWPOLYLINE
  5
5A
330
17
100
AcDbEntity
  8
CAP
100
AcDbPolyline
 90
5
 70
0
 10
243.64508111354064
 20
395.5786315023737
 10
244.27492612997665
 20
397.0494459894083
 10
243.53951888645935
 20
397.3643684976263
 10
242.90967387002334
 20
395.8935540105917
 10
243.64508111354064
 20
395.5786315023737
  0
LWPOLYLINE
  5
5B
330
17
100
AcDbEntity
  8
CAP
100
AcDbPolyline
 90
5
 70
0
 10
272.4156411939302
 20
382.54683144177193
 10
273.11475013022425
 20
383.98601409008097
 10
272.3951588060698
 20
384.33556855822803
 10
271.6960498697757
 20
382.896385909919
 10
272.4156411939302
 20
382.54683144177193
  0
LWPOLYLINE
  5
5C
330
17
100
AcDbEntity
  8
CAP
100
AcDbPolyline
 90
5
 70
0
 10
300.5336780793604
 20
368.16075700850416
 10
301.3004675455803
 20
369.56504825838584
 10
300.59832192063953
 20
369.9484429914958
 10
299.83153245441963
 20
368.54415174161414
 10
300.5336780793604
 20
368.16075700850416
  0
LWPOLYLINE
  5
5D
330
17
100
AcDbEntity
  8
CAP
100
AcDbPolyline
 90
5
 70
0
 10
60.90061509443361
 20
78.53623172092773
 10
61.314725566597645
 20
80.08171304299024
 10
60.54198490556639
 20
80.28876827907226
 10
60.127874433402354
 20
78.74328695700974
 10
60.90061509443361
 20
78.53623172092773
  0
LWPOLYLINE
  5
5E
330
17
100
AcDbEntity
  8
CAP
100
AcDbPolyline
 90
5
 70
0
 10
91.18983781096264
 20
68.92028847898412
 10
91.76322653023512
 20
70.41401716137965
 10
91.01636218903735
 20
70.70071152101589
 10
90.44297346976488
 20
69.20698283862036
 10
91.18983781096264
 20
68.92028847898412
  0
LWPOLYLINE
  5
5F
330
17
100
AcDbEntity
  8
CAP
100
AcDbPolyline
 90
5
 70
0
 10
120.30821020988371
 20
56.19079858075349
 10
121.03459500946698
 20
57.61640901945488
 10
120.32178979011628
 20
57.979601419246514
 10
119.59540499053301
 20
56.55399098054512
 10
120.30821020988371
 20
56.19079858075349
  0
LWPOLYLINE
  5
60
330
17
100
AcDbEntity
  8
CAP
100
AcDbPolyline
 90
5
 70
0
 10
133.9279102098837
 20
82.92099858075349
 10
134.65429500946698
 20
84.34660901945487
 10
133.9414897901163
 20
84.7098014192465
 10
133.215104990533
 20
83.28419098054512
 10
133.9279102098837
 20
82.92099858075349
  0
LWPOLYLINE
  5
61
330
17
100
AcDbEntity
  8
CAP
100
AcDbPolyline
 90
5
 70
0
 10
101.94093781096265
 20
96.92768847898411
 10
102.51432653023512
 20
98.42141716137964
 10
101.76746218903736
 20
98.70811152101588
 10
101.19407346976489
 20
97.21438283862035
 10
101.94093781096265
 20
96.92768847898411
  0
LWPOLYLINE
  5
62
330
17
100
AcDbEntity
  8
CAP
100
AcDbPolyline
 90
5
 70
0
 10
68.6651150944336
 20
107.51403172092773
 10
69.07922556659764
 20
109.05951304299025
 10
68.30648490556639
 20
109.26656827907226
 10
67.89237443340235
 20
107.72108695700975
 10
68.6651150944336
 20
107.51403172092773
  0
LWPOLYLINE
  5
63
330
17
100
AcDbEntity
  8
CAP
100
AcDbPolyline
 90
5
 70
0
 10
34.465027764205864
 20
114.56407554150779
 10
34.71532290827024
 20
116.14437688646001
 10
33.92517223579413
 20
116.2695244584922
 10
33.674877091729755
 20
114.68922311353998
 10
34.465027764205864
 20
114.56407554150779
  0
LWPOLYLINE
  5
64
330
17
100
AcDbEntity
  8
CAP
100
AcDbPolyline
 90
5
 70
0
 10
-0.2847169510925256
 20
118.00066198969915
 10
-0.20097942110381528
 20
119.59846924530648
 10
-0.9998830489074744
 20
119.64033801030084
 10
-1.0836205788961846
 20
118.04253075469352
 10
-0.2847169510925256
 20
118.00066198969915
  0
LWPOLYLINE
  5
65
330
17
100
AcDbEntity
  8
CAP
100
AcDbPolyline
 90
5
 70
0
 10
-1.8847762212595254
 20
148.09391366778837
 10
-1.8149852014749879
 20
149.69239082231934
 10
-2.6142237787404743
 20
149.7272863322116
 10
-2.684014798525012
 20
148.12880917768064
 10
-1.8847762212595254
 20
148.09391366778837
  0
LWPOLYLINE
  5
66
330
17
100
AcDbEntity
  8
CAP
100
AcDbPolyline
 90
5
 70
0
 10
29.81664185454839
 20
24.069735646870967
 10
30.128786369774197
 20
25.638992095516134
 10
29.344158145451612
 20
25.795064353129035
 10
29.032013630225805
 20
24.22580790448387
 10
29.81664185454839
 20
24.069735646870967
  0
LWPOLYLINE
  5
67
330
17
100
AcDbEntity
  8
CAP
100
AcDbPolyline
 90
5
 70
0
 10
29.73015699077348
 20
145.50743363401293
 10
29.938998898325565
 20
147.09374541221104
 10
29.145843009226517
 20
147.19816636598708
 10
28.937001101674433
 20
145.61185458778897
 10
29.73015699077348
 20
145.50743363401293
  0
LWPOLYLINE
  5
68
330
17
100
AcDbEntity
  8
CAP
100
AcDbPolyline
 90
5
 70
0
 10
60.999266711697494
 20
140.1754873487288
 10
61.345570093998454
 20
141.7375609601207
 10
60.564533288302506
 20
141.9107126512712
 10
60.21822990600155
 20
140.34863903987932
 10
60.999266711697494
 20
140.1754873487288
  0
LWPOLYLINE
  5
69
330
17
100
AcDbEntity
  8
CAP
100
AcDbPolyline
 90
5
 70
0
 10
91.68472214069588
 20
132.1384441195997
 10
92.16585141990271
 20
133.66439124079687
 10
91.40287785930413
 20
133.9049558804003
 10
90.9217485800973
 20
132.37900875920315
 10
91.68472214069588
 20
132.1384441195997
  0
LWPOLYLINE
  5
6A
330
17
100
AcDbEntity
  8
CAP
100
AcDbPolyline
 90
5
 70
0
 10
121.55300506711244
 20
121.45762300104494
 10
122.16529855889658
 20
122.93583025306299
 10
121.42619493288755
 20
123.24197699895507
 10
120.81390144110341
 20
121.76376974693702
 10
121.55300506711244
 20
121.45762300104494
  0
LWPOLYLINE
  5
6B
330
17
100
AcDbEntity
  8
CAP
100
AcDbPolyline
 90
5
 70
0
 10
150.37660544268326
 20
108.21419188816341
 10
151.11540322385932
 20
109.63340922124857
 10
150.40579455731674
 20
110.0028081118366
 10
149.66699677614068
 20
108.58359077875144
 10
150.37660544268326
 20
108.21419188816341
  0
LWPOLYLINE
  5
6C
330
17
100
AcDbEntity
  8
CAP
100
AcDbPolyline
 90
5
 70
0
 10
164.22910544268325
 20
134.8245918881634
 10
164.9679032238593
 20
136.24380922124857
 10
164.25829455731673
 20
136.61320811183657
 10
163.51949677614067
 20
135.1939907787514
 10
164.22910544268325
 20
134.8245918881634
  0
LWPOLYLINE
  5
6D
330
17
100
AcDbEntity
  8
CAP
100
AcDbPolyline
 90
5
 70
0
 10
133.03350506711246
 20
149.17402300104493
 10
133.6457985588966
 20
150.652230253063
 10
132.90669493288755
 20
150.9583769989551
 10
132.29440144110342
 20
149.480169746937
 10
133.03350506711246
 20
149.17402300104493
  0
LWPOLYLINE
  5
6E
330
17
100
AcDbEntity
  8
CAP
100
AcDbPolyline
 90
5
 70
0
 10
100.70592214069588
 20
160.7500441195997
 10
101.1870514199027
 20
162.27599124079686
 10
100.42407785930412
 20
162.5165558804003
 10
99.9429485800973
 20
160.99060875920313
 10
100.70592214069588
 20
160.7500441195997
  0
LWPOLYLINE
  5
6F
330
17
100
AcDbEntity
  8
CAP
100
AcDbPolyline
 90
5
 70
0
 10
67.49246671169749
 20
169.4643873487288
 10
67.83877009399845
 20
171.0264609601207
 10
67.0577332883025
 20
171.1996126512712
 10
66.71142990600154
 20
169.6375390398793
 10
67.49246671169749
 20
169.4643873487288
  0
LWPOLYLINE
  5
70
330
17
100
AcDbEntity
  8
CAP
100
AcDbPolyline
 90
5
 70
0
 10
33.645956990773485
 20
175.25073363401293
 10
33.85479889832556
 20
176.83704541221104
 10
33.061643009226515
 20
176.94146636598708
 10
32.85280110167444
 20
175.35515458778897
 10
33.645956990773485
 20
175.25073363401293
  0
LWPOLYLINE
  5
71
330
17
100
AcDbEntity
  8
CAP
100
AcDbPolyline
 90
5
 70
0
 10
60.66472047955551
 20
16.08168011028265
 10
61.179023624040575
 20
17.59676831747482
 10
60.42147952044449
 20
17.85391988971735
 10
59.90717637595943
 20
16.338831682525182
 10
60.66472047955551
 20
16.08168011028265
  0
LWPOLYLINE
  5
72
330
17
100
AcDbEntity
  8
CAP
100
AcDbPolyline
 90
5
 70
0
 10
-0.5761762212595256
 20
178.0653136677884
 10
-0.506385201474988
 20
179.66379082231936
 10
-1.3056237787404743
 20
179.69868633221162
 10
-1.375414798525012
 20
178.10020917768065
 10
-0.5761762212595256
 20
178.0653136677884
  0
LWPOLYLINE
  5
73
330
17
100
AcDbEntity
  8
CAP
100
AcDbPolyline
 90
5
 70
0
 10
-1.9063947040653924
 20
208.1309020364105
 10
-1.8465648066891678
 20
209.7297830149014
 10
-2.646005295934607
 20
209.7596979635895
 10
-2.7058351933108318
 20
208.16081698509862
 10
-1.9063947040653924
 20
208.1309020364105
  0
LWPOLYLINE
  5
74
330
17
100
AcDbEntity
  8
CAP
100
AcDbPolyline
 90
5
 70
0
 10
29.694307021709147
 20
205.91664213848148
 10
29.873462076189345
 20
207.50658033427845
 10
29.07849297829085
 20
207.59615786151855
 10
28.899337923810652
 20
206.00621966572157
 10
29.694307021709147
 20
205.91664213848148
  0
LWPOLYLINE
  5
75
330
17
100
AcDbEntity
  8
CAP
100
AcDbPolyline
 90
5
 70
0
 10
61.04110159416678
 20
201.34688339678527
 10
61.33855232607171
 20
202.91899123726228
 10
60.55249840583321
 20
203.06771660321473
 10
60.25504767392829
 20
201.49560876273773
 10
61.04110159416678
 20
201.34688339678527
  0
LWPOLYLINE
  5
76
330
17
100
AcDbEntity
  8
CAP
100
AcDbPolyline
 90
5
 70
0
 10
91.9588150944336
 20
194.44733172092774
 10
92.37292556659764
 20
195.99281304299024
 10
91.6001849055664
 20
196.19986827907226
 10
91.18607443340235
 20
194.65438695700976
 10
91.9588150944336
 20
194.44733172092774
  0
LWPOLYLINE
  5
77
330
17
100
AcDbEntity
  8
CAP
100
AcDbPolyline
 90
5
 70
0
 10
122.27452565830627
 20
185.25658114584425
 10
122.80297968834083
 20
186.76679183913848
 10
122.04787434169371
 20
187.03101885415575
 10
121.51942031165916
 20
185.52080816086152
 10
122.27452565830627
 20
185.25658114584425
  0
LWPOLYLINE
  5
78
330
17
100
AcDbEntity
  8
CAP
100
AcDbPolyline
 90
5
 70
0
 10
151.81851796406076
 20
173.82609373500068
 10
152.45833423356302
 20
175.2925981302482
 10
151.72508203593927
 20
175.61250626499933
 10
151.085265766437
 20
174.1460018697518
 10
151.81851796406076
 20
173.82609373500068
  0
LWPOLYLINE
  5
79
330
17
100
AcDbEntity
  8
CAP
100
AcDbPolyline
 90
5
 70
0
 10
180.4258334843163
 20
160.21970018360258
 10
181.17345976252813
 20
161.63428667729153
 10
180.46616651568368
 20
162.00809981639742
 10
179.71854023747187
 20
160.59351332270847
 10
180.4258334843163
 20
160.21970018360258
  0
LWPOLYLINE
  5
7A
330
17
100
AcDbEntity
  8
CAP
100
AcDbPolyline
 90
5
 70
0
 10
194.44383348431631
 20
186.7432001836026
 10
195.19145976252813
 20
188.15778667729154
 10
194.48416651568368
 20
188.53159981639743
 10
193.73654023747187
 20
187.1170133227085
 10
194.44383348431631
 20
186.7432001836026
  0
LWPOLYLINE
  5
7B
330
17
100
AcDbEntity
  8
CAP
100
AcDbPolyline
 90
5
 70
0
 10
163.81531796406074
 20
201.32299373500067
 10
164.455134233563
 20
202.78949813024818
 10
163.72188203593925
 20
203.1094062649993
 10
163.08206576643698
 20
201.6429018697518
 10
163.81531796406074
 20
201.32299373500067
  0
LWPOLYLINE
  5
7C
330
17
100
AcDbEntity
  8
CAP
100
AcDbPolyline
 90
5
 70
0
 10
90.20611814443788
 20
4.135386330686249
 10
90.91378004878828
 20
5.57038271713855
 10
90.19628185556212
 20
5.924213669313751
 10
89.48861995121172
 20
4.48921728286145
 10
90.20611814443788
 20
4.135386330686249
  0
LWPOLYLINE
  5
7D
330
17
100
AcDbEntity
  8
CAP
100
AcDbPolyline
 90
5
 70
0
 10
132.18282565830629
 20
213.57308114584424
 10
132.71127968834085
 20
215.08329183913847
 10
131.95617434169372
 20
215.34751885415574
 10
131.42772031165916
 20
213.8373081608615
 10
132.18282565830629
 20
213.57308114584424
  0
LWPOLYLINE
  5
7E
330
17
100
AcDbEntity
  8
CAP
100
AcDbPolyline
 90
5
 70
0
 10
99.7234150944336
 20
223.42513172092774
 10
100.13752556659765
 20
224.97061304299024
 10
99.3647849055664
 20
225.17766827907226
 10
98.95067443340236
 20
223.63218695700976
 10
99.7234150944336
 20
223.42513172092774
  0
LWPOLYLINE
  5
7F
330
17
100
AcDbEntity
  8
CAP
100
AcDbPolyline
 90
5
 70
0
 10
66.61850159416679
 20
230.82388339678528
 10
66.91595232607172
 20
232.39599123726228
 10
66.12989840583322
 20
232.54471660321474
 10
65.83244767392829
 20
230.97260876273774
 10
66.61850159416679
 20
230.82388339678528
  0
LWPOLYLINE
  5
80
330
17
100
AcDbEntity
  8
CAP
100
AcDbPolyline
 90
5
 70
0
 10
33.053307021709145
 20
235.72794213848147
 10
33.23246207618934
 20
237.31788033427844
 10
32.43749297829085
 20
237.40745786151854
 10
32.25833792381065
 20
235.81751966572156
 10
33.053307021709145
 20
235.72794213848147
  0
LWPOLYLINE
  5
81
330
17
100
AcDbEntity
  8
CAP
100
AcDbPolyline
 90
5
 70
0
 10
-0.7846947040653927
 20
238.1100020364105
 10
-0.7248648066891681
 20
239.70888301490137
 10
-1.5243052959346075
 20
239.7387979635895
 10
-1.584135193310832
 20
238.1399169850986
 10
-0.7846947040653927
 20
238.1100020364105
  0
LWPOLYLINE
  5
82
330
17
100
AcDbEntity
  8
CAP
100
AcDbPolyline
 90
5
 70
0
 10
-1.9226894312668747
 20
268.1586406968902
 10
-1.8703388987520326
 20
269.75778403685234
 10
-2.6699105687331253
 20
269.7839593031098
 10
-2.7222611012479674
 20
268.1848159631476
 10
-1.9226894312668747
 20
268.1586406968902
  0
LWPOLYLINE
  5
83
330
17
100
AcDbEntity
  8
CAP
100
AcDbPolyline
 90
5
 70
0
 10
29.66426017840523
 20
266.2228453625304
 10
29.821087602932526
 20
267.8151409252059
 10
29.02493982159477
 20
267.8935546374696
 10
28.868112397067474
 20
266.3012590747941
 10
29.66426017840523
 20
266.2228453625304
  0
LWPOLYLINE
  5
84
330
17
100
AcDbEntity
  8
CAP
100
AcDbPolyline
 90
5
 70
0
 10
61.05694095411828
 20
262.2251271449743
 10
61.31757371154962
 20
263.80375647631007
 10
60.52825904588172
 20
263.93407285502576
 10
60.26762628845038
 20
262.35544352369
 10
61.05694095411828
 20
262.2251271449743
  0
LWPOLYLINE
  5
85
330
17
100
AcDbEntity
  8
CAP
100
AcDbPolyline
 90
5
 70
0
 10
92.12088978128344
 20
256.1829679113644
 10
92.48421180213843
 20
257.74117107820814
 10
91.70511021871656
 20
257.92283208863563
 10
91.34178819786156
 20
256.3646289217919
 10
92.12088978128344
 20
256.1829679113644
  0
LWPOLYLINE
  5
86
330
17
100
AcDbEntity
  8
CAP
100
AcDbPolyline
 90
5
 70
0
 10
122.7231483924893
 20
248.12193386051246
 10
123.18760387609645
 20
249.65303839768399
 10
122.42205160751068
 20
249.88526613948756
 10
121.95759612390354
 20
248.35416160231603
 10
122.7231483924893
 20
248.12193386051246
  0
LWPOLYLINE
  5
87
330
17
100
AcDbEntity
  8
CAP
100
AcDbPolyline
 90
5
 70
0
 10
103.47481814443788
 20
31.04158633068625
 10
104.18248004878828
 20
32.47658271713855
 10
103.46498185556212
 20
32.83041366931375
 10
102.75731995121171
 20
31.395417282861448
 10
103.47481814443788
 20
31.04158633068625
  0
LWPOLYLINE
  5
88
330
17
100
AcDbEntity
  8
CAP
100
AcDbPolyline
 90
5
 70
0
 10
152.73276233236592
 20
238.07677523942564
 10
153.29636240903992
 20
239.57422472223735
 10
152.54763766763406
 20
239.85602476057434
 10
151.98403759096007
 20
238.35857527776264
 10
152.73276233236592
 20
238.07677523942564
  0
LWPOLYLINE
  5
89
330
17
100
AcDbEntity
  8
CAP
100
AcDbPolyline
 90
5
 70
0
 10
182.02107990612495
 20
226.0903261281413
 10
182.68141115381198
 20
227.5477082480152
 10
181.95272009387503
 20
227.87787387185872
 10
181.292388846188
 20
226.42049175198483
 10
182.02107990612495
 20
226.0903261281413
  0
LWPOLYLINE
  5
8A
330
17
100
AcDbEntity
  8
CAP
100
AcDbPolyline
 90
5
 70
0
 10
210.46275111627855
 20
212.21400429379094
 10
211.21698589520014
 20
213.6250783167483
 10
210.51144888372144
 20
214.00219570620908
 10
209.75721410479986
 20
212.5911216832517
 10
210.46275111627855
 20
212.21400429379094
  0
LWPOLYLINE
  5
8B
330
17
100
AcDbEntity
  8
CAP
100
AcDbPolyline
 90
5
 70
0
 10
224.60465111627855
 20
238.67170429379092
 10
225.35888589520013
 20
240.0827783167483
 10
224.65334888372143
 20
240.45989570620907
 10
223.89911410479985
 20
239.0488216832517
 10
224.60465111627855
 20
238.67170429379092
  0
LWPOLYLINE
  5
8C
330
17
100
AcDbEntity
  8
CAP
100
AcDbPolyline
 90
5
 70
0
 10
194.40227990612496
 20
253.4162261281413
 10
195.06261115381199
 20
254.8736082480152
 10
194.33392009387504
 20
255.20377387185871
 10
193.673588846188
 20
253.74639175198482
 10
194.40227990612496
 20
253.4162261281413
  0
LWPOLYLINE
  5
8D
330
17
100
AcDbEntity
  8
CAP
100
AcDbPolyline
 90
5
 70
0
 10
163.30026233236592
 20
266.1539752394257
 10
163.8638624090399
 20
267.6514247222374
 10
163.11513766763406
 20
267.9332247605744
 10
162.55153759096007
 20
266.4357752777627
 10
163.30026233236592
 20
266.1539752394257
  0
LWPOLYLINE
  5
8E
330
17
100
AcDbEntity
  8
CAP
100
AcDbPolyline
 90
5
 70
0
 10
131.43164839248934
 20
276.83013386051243
 10
131.89610387609648
 20
278.36123839768396
 10
131.13055160751068
 20
278.59346613948753
 10
130.66609612390354
 20
277.062361602316
 10
131.43164839248934
 20
276.83013386051243
  0
LWPOLYLINE
  5
8F
330
17
100
AcDbEntity
  8
CAP
100
AcDbPolyline
 90
5
 70
0
 10
98.93308978128344
 20
285.3992679113644
 10
99.29641180213844
 20
286.95747107820813
 10
98.51731021871656
 20
287.1391320886356
 10
98.15398819786157
 20
285.5809289217919
 10
98.93308978128344
 20
285.3992679113644
  0
LWPOLYLINE
  5
90
330
17
100
AcDbEntity
  8
CAP
100
AcDbPolyline
 90
5
 70
0
 10
65.94374095411828
 20
291.82442714497427
 10
66.20437371154962
 20
293.40305647631004
 10
65.41505904588172
 20
293.53337285502573
 10
65.15442628845038
 20
291.95474352368996
 10
65.94374095411828
 20
291.82442714497427
  0
LWPOLYLINE
  5
91
330
17
100
AcDbEntity
  8
CAP
100
AcDbPolyline
 90
5
 70
0
 10
32.60476017840523
 20
296.0784453625304
 10
32.76158760293253
 20
297.6707409252059
 10
31.96543982159477
 20
297.7491546374696
 10
31.808612397067474
 20
296.15685907479406
 10
32.60476017840523
 20
296.0784453625304
  0
LWPOLYLINE
  5
92
330
17
100
AcDbEntity
  8
CAP
100
AcDbPolyline
 90
5
 70
0
 10
70.30792047955552
 20
44.48958011028265
 10
70.82222362404057
 20
46.004668317474824
 10
70.06467952044449
 20
46.26181988971735
 10
69.55037637595943
 20
44.74673168252518
 10
70.30792047955552
 20
44.48958011028265
  0
LWPOLYLINE
  5
93
330
17
100
AcDbEntity
  8
CAP
100
AcDbPolyline
 90
5
 70
0
 10
-0.9410894312668746
 20
298.1426406968902
 10
-0.8887388987520327
 20
299.7417840368524
 10
-1.6883105687331255
 20
299.7679593031098
 10
-1.7406611012479671
 20
298.16881596314767
 10
-0.9410894312668746
 20
298.1426406968902
  0
LWPOLYLINE
  5
94
330
17
100
AcDbEntity
  8
CAP
100
AcDbPolyline
 90
5
 70
0
 10
-1.9354417148935703
 20
328.18020236169593
 10
-1.8888968604206295
 20
329.77952521106755
 10
-2.6885582851064296
 20
329.802797638304
 10
-2.7351031395793703
 20
328.2034747889324
 10
-1.9354417148935703
 20
328.18020236169593
  0
LWPOLYLINE
  5
95
330
17
100
AcDbEntity
  8
CAP
100
AcDbPolyline
 90
5
 70
0
 10
29.63895328503857
 20
326.46068194442756
 10
29.778402473434824
 20
328.05459346137434
 10
28.981446714961425
 20
328.1243180555725
 10
28.841997526565173
 20
326.5304065386257
 10
29.63895328503857
 20
326.46068194442756
  0
LWPOLYLINE
  5
96
330
17
100
AcDbEntity
  8
CAP
100
AcDbPolyline
 90
5
 70
0
 10
61.05983611032409
 20
322.9080755734185
 10
61.29171787507077
 20
324.49118354420824
 10
60.50016388967591
 20
324.60712442658155
 10
60.26828212492923
 20
323.0240164557918
 10
61.05983611032409
 20
322.9080755734185
  0
LWPOLYLINE
  5
97
330
17
100
AcDbEntity
  8
CAP
100
AcDbPolyline
 90
5
 70
0
 10
92.22105716219681
 20
317.53463913580356
 10
92.54461439403906
 20
319.1015822482753
 10
91.76114283780319
 20
319.26336086419644
 10
91.43758560596095
 20
317.6964177517247
 10
92.22105716219681
 20
317.53463913580356
  0
LWPOLYLINE
  5
98
330
17
100
AcDbEntity
  8
CAP
100
AcDbPolyline
 90
5
 70
0
 10
123.0171150944336
 20
310.35843172092774
 10
123.43122556659765
 20
311.9039130429902
 10
122.6584849055664
 20
312.1109682790722
 10
122.24437443340236
 20
310.56548695700974
 10
123.0171150944336
 20
310.35843172092774
  0
LWPOLYLINE
  5
99
330
17
100
AcDbEntity
  8
CAP
100
AcDbPolyline
 90
5
 70
0
 10
153.34376640246052
 20
301.4036887277261
 10
153.84702917634283
 20
302.9224798853328
 10
153.08763359753948
 20
303.17411127227393
 10
152.58437082365717
 20
301.65532011466723
 10
153.34376640246052
 20
301.4036887277261
  0
LWPOLYLINE
  5
9A
330
17
100
AcDbEntity
  8
CAP
100
AcDbPolyline
 90
5
 70
0
 10
183.09856890727778
 20
290.7007390773821
 10
183.68930739372766
 20
292.18769167939297
 10
182.94583109272222
 20
292.48306092261794
 10
182.35509260627234
 20
290.99610832060705
 10
183.09856890727778
 20
290.7007390773821
  0
LWPOLYLINE
  5
9B
330
17
100
AcDbEntity
  8
CAP
100
AcDbPolyline
 90
5
 70
0
 10
212.1806285054221
 20
278.2858064656744
 10
212.85681772420722
 20
279.735898924933
 10
212.13177149457792
 20
280.07399353432555
 10
211.4555822757928
 20
278.62390107506695
 10
212.1806285054221
 20
278.2858064656744
  0
LWPOLYLINE
  5
9C
330
17
100
AcDbEntity
  8
CAP
100
AcDbPolyline
 90
5
 70
0
 10
240.49150546176293
 20
264.2009985786032
 10
241.2508578600597
 20
265.6093252222484
 10
240.5466945382371
 20
265.98900142139684
 10
239.7873421399403
 20
264.58067477775165
 10
240.49150546176293
 20
264.2009985786032
  0
LWPOLYLINE
  5
9D
330
17
100
AcDbEntity
  8
CAP
100
AcDbPolyline
 90
5
 70
0
 10
35.66934185454839
 20
53.49333564687097
 10
35.981486369774196
 20
55.06259209551614
 10
35.196858145451614
 20
55.218664353129036
 10
34.88471363022581
 20
53.649407904483866
 10
35.66934185454839
 20
53.49333564687097
  0
LWPOLYLINE
  5
9E
330
17
100
AcDbEntity
  8
CAP
100
AcDbPolyline
 90
5
 70
0
 10
254.72960546176293
 20
290.60699857860317
 10
255.4889578600597
 20
292.01532522224835
 10
254.7847945382371
 20
292.3950014213968
 10
254.0254421399403
 20
290.9866747777516
 10
254.72960546176293
 20
290.60699857860317
  0
LWPOLYLINE
  5
9F
330
17
100
AcDbEntity
  8
CAP
100
AcDbPolyline
 90
5
 70
0
 10
224.8592285054221
 20
305.4751064656744
 10
225.5354177242072
 20
306.925198924933
 10
224.8103714945779
 20
307.26329353432556
 10
224.1341822757928
 20
305.81320107506696
 10
224.8592285054221
 20
305.4751064656744
  0
LWPOLYLINE
  5
A0
330
17
100
AcDbEntity
  8
CAP
100
AcDbPolyline
 90
5
 70
0
 10
194.17476890727778
 20
318.5811390773821
 10
194.76550739372766
 20
320.068091679393
 10
194.02203109272222
 20
320.36346092261795
 10
193.43129260627234
 20
318.87650832060706
 10
194.17476890727778
 20
318.5811390773821
  0
LWPOLYLINE
  5
A1
330
17
100
AcDbEntity
  8
CAP
100
AcDbPolyline
 90
5
 70
0
 10
162.7801664024605
 20
329.8808887277261
 10
163.28342917634282
 20
331.3996798853328
 10
162.52403359753947
 20
331.6513112722739
 10
162.02077082365716
 20
330.1325201146672
 10
162.7801664024605
 20
329.8808887277261
  0
LWPOLYLINE
  5
A2
330
17
100
AcDbEntity
  8
CAP
100
AcDbPolyline
 90
5
 70
0
 10
130.7817150944336
 20
339.33623172092774
 10
131.19582556659762
 20
340.8817130429902
 10
130.42308490556638
 20
341.0887682790722
 10
130.00897443340236
 20
339.54328695700974
 10
130.7817150944336
 20
339.33623172092774
  0
LWPOLYLINE
  5
A3
330
17
100
AcDbEntity
  8
CAP
100
AcDbPolyline
 90
5
 70
0
 10
98.28765716219681
 20
346.91483913580356
 10
98.61121439403905
 20
348.4817822482753
 10
97.82774283780319
 20
348.64356086419644
 10
97.50418560596094
 20
347.0766177517247
 10
98.28765716219681
 20
346.91483913580356
  0
LWPOLYLINE
  5
A4
330
17
100
AcDbEntity
  8
CAP
100
AcDbPolyline
 90
5
 70
0
 10
65.40773611032408
 20
352.5913755734185
 10
65.63961787507077
 20
354.1744835442082
 10
64.84806388967591
 20
354.2904244265815
 10
64.61618212492922
 20
352.7073164557918
 10
65.40773611032408
 20
352.5913755734185
  0
LWPOLYLINE
  5
A5
330
17
100
AcDbEntity
  8
CAP
100
AcDbPolyline
 90
5
 70
0
 10
32.25355328503857
 20
356.3464819444275
 10
32.39300247343483
 20
357.9403934613743
 10
31.596046714961428
 20
358.01011805557243
 10
31.456597526565176
 20
356.41620653862566
 10
32.25355328503857
 20
356.3464819444275
  0
LWPOLYLINE
  5
A6
330
17
100
AcDbEntity
  8
CAP
100
AcDbPolyline
 90
5
 70
0
 10
-1.0629417148935705
 20
358.16750236169594
 10
-1.0163968604206297
 20
359.76682521106756
 10
-1.8160582851064295
 20
359.790097638304
 10
-1.8626031395793703
 20
358.1907747889324
 10
-1.0629417148935705
 20
358.16750236169594
  0
LWPOLYLINE
  5
A7
330
17
100
AcDbEntity
  8
CAP
100
AcDbPolyline
 90
5
 70
0
 10
-1.9456786286560757
 20
388.1973033606964
 10
-1.9037955113634788
 20
389.7967550806573
 10
-2.703521371343925
 20
389.81769663930356
 10
-2.7454044886365216
 20
388.2182449193427
 10
-1.9456786286560757
 20
388.1973033606964
  0
LWPOLYLINE
  5
A8
330
17
100
AcDbEntity
  8
CAP
100
AcDbPolyline
 90
5
 70
0
 10
0.151921065911327
 20
57.89885160971706
 10
0.2565660726795559
 20
59.49542588689883
 10
-0.541721065911327
 20
59.54774839028294
 10
-0.6463660726795558
 20
57.951174113101175
 10
0.151921065911327
 20
57.89885160971706
  0
LWPOLYLINE
  5
A9
330
17
100
AcDbEntity
  8
CAP
100
AcDbPolyline
 90
5
 70
0
 10
29.617499656910976
 20
386.6506824947224
 10
29.74303421007553
 20
388.2457502286954
 10
28.945500343089027
 20
388.3085175052776
 10
28.819965789924474
 20
386.7134497713046
 10
29.617499656910976
 20
386.6506824947224
  0
LWPOLYLINE
  5
AA
330
17
100
AcDbEntity
  8
CAP
100
AcDbPolyline
 90
5
 70
0
 10
61.05645699077348
 20
383.45423363401295
 10
61.26529889832556
 20
385.04054541221103
 10
60.472143009226514
 20
385.14496636598705
 10
60.263301101674436
 20
383.55865458778896
 10
61.05645699077348
 20
383.45423363401295
  0
LWPOLYLINE
  5
AB
330
17
100
AcDbEntity
  8
CAP
100
AcDbPolyline
 90
5
 70
0
 10
92.28501354263186
 20
378.61680186375196
 10
92.5765903834193
 20
380.1900097158543
 10
91.78998645736813
 20
380.335798136248
 10
91.49840961658069
 20
378.7625902841457
 10
92.28501354263186
 20
378.61680186375196
  0
LWPOLYLINE
  5
AC
330
17
100
AcDbEntity
  8
CAP
100
AcDbPolyline
 90
5
 70
0
 10
123.21759167707435
 20
372.1516259181395
 10
123.59110425924379
 20
373.70741779077576
 10
122.81320832292565
 20
373.8941740818605
 10
122.4396957407562
 20
372.3383822092242
 10
123.21759167707435
 20
372.1516259181395
  0
LWPOLYLINE
  5
AD
330
17
100
AcDbEntity
  8
CAP
100
AcDbPolyline
 90
5
 70
0
 10
153.76941561818415
 20
364.0763380742239
 10
154.22384016971043
 20
365.610449650013
 10
153.45678438181585
 20
365.8376619257761
 10
153.00235983028958
 20
364.303550349987
 10
153.76941561818415
 20
364.0763380742239
  0
LWPOLYLINE
  5
AE
330
17
100
AcDbEntity
  8
CAP
100
AcDbPolyline
 90
5
 70
0
 10
183.85671110904985
 20
354.4131640634327
 10
184.3908020838239
 20
355.9213904491802
 10
183.63668889095015
 20
356.18843593656726
 10
183.1025979161761
 20
354.68020955081977
 10
183.85671110904985
 20
354.4131640634327
  0
LWPOLYLINE
  5
AF
330
17
100
AcDbEntity
  8
CAP
100
AcDbPolyline
 90
5
 70
0
 10
213.39700506711245
 20
343.18872300104493
 10
214.00929855889657
 20
344.66693025306296
 10
213.27019493288753
 20
344.97307699895504
 10
212.6579014411034
 20
343.494869746937
 10
213.39700506711245
 20
343.18872300104493
  0
LWPOLYLINE
  5
B0
330
17
100
AcDbEntity
  8
CAP
100
AcDbPolyline
 90
5
 70
0
 10
242.30942523629332
 20
330.4335273337968
 10
242.99824299118657
 20
331.8776637887566
 10
242.27617476370668
 20
332.22207266620325
 10
241.58735700881343
 20
330.77793621124346
 10
242.30942523629332
 20
330.4335273337968
  0
LWPOLYLINE
  5
B1
330
17
100
AcDbEntity
  8
CAP
100
AcDbPolyline
 90
5
 70
0
 10
270.51469983685706
 20
316.18268280576655
 10
271.27815385327244
 20
317.58879018602573
 10
270.5751001631429
 20
317.9705171942334
 10
269.8116461467275
 20
316.56440981397424
 10
270.51469983685706
 20
316.18268280576655
  0
LWPOLYLINE
  5
B2
330
17
100
AcDbEntity
  8
CAP
100
AcDbPolyline
 90
5
 70
0
 10
284.82949983685705
 20
342.54718280576657
 10
285.59295385327243
 20
343.95329018602575
 10
284.8899001631429
 20
344.33501719423344
 10
284.1264461467275
 20
342.92890981397426
 10
284.82949983685705
 20
342.54718280576657
  0
LWPOLYLINE
  5
B3
330
17
100
AcDbEntity
  8
CAP
100
AcDbPolyline
 90
5
 70
0
 10
-1.8548169510925256
 20
88.04176198969915
 10
-1.7710794211038154
 20
89.63956924530648
 10
-2.5699830489074746
 20
89.68143801030084
 10
-2.653720578896185
 20
88.08363075469352
 10
-1.8548169510925256
 20
88.04176198969915
  0
LWPOLYLINE
  5
B4
330
17
100
AcDbEntity
  8
CAP
100
AcDbPolyline
 90
5
 70
0
 10
255.22472523629332
 20
357.51112733379676
 10
255.91354299118657
 20
358.95526378875655
 10
255.19147476370668
 20
359.2996726662032
 10
254.50265700881343
 20
357.8555362112434
 10
255.22472523629332
 20
357.51112733379676
  0
LWPOLYLINE
  5
B5
330
17
100
AcDbEntity
  8
CAP
100
AcDbPolyline
 90
5
 70
0
 10
224.87750506711245
 20
370.9050230010449
 10
225.48979855889658
 20
372.38323025306295
 10
224.75069493288754
 20
372.689376998955
 10
224.1384014411034
 20
371.211169746937
 10
224.87750506711245
 20
370.9050230010449
  0
LWPOLYLINE
  5
B6
330
17
100
AcDbEntity
  8
CAP
100
AcDbPolyline
 90
5
 70
0
 10
193.87091110904984
 20
382.69246406343274
 10
194.4050020838239
 20
384.20069044918023
 10
193.65088889095014
 20
384.4677359365673
 10
193.1167979161761
 20
382.9595095508198
 10
193.87091110904984
 20
382.69246406343274
  0
LWPOLYLINE
  5
B7
330
17
100
AcDbEntity
  8
CAP
100
AcDbPolyline
 90
5
 70
0
 10
162.28981561818415
 20
392.8409380742239
 10
162.74424016971042
 20
394.375049650013
 10
161.97718438181585
 20
394.60226192577613
 10
161.52275983028957
 20
393.06815034998704
 10
162.28981561818415
 20
392.8409380742239
  0
LWPOLYLINE
  5
B8
330
17
100
AcDbEntity
  8
CAP
100
AcDbPolyline
 90
5
 70
0
 10
130.22089167707435
 20
401.3227259181395
 10
130.5944042592438
 20
402.8785177907758
 10
129.81650832292564
 20
403.06527408186054
 10
129.4429957407562
 20
401.50948220922425
 10
130.22089167707435
 20
401.3227259181395
  0
LWPOLYLINE
  5
B9
330
17
100
AcDbEntity
  8
CAP
100
AcDbPolyline
 90
5
 70
0
 10
97.75201354263186
 20
408.114401863752
 10
98.0435903834193
 20
409.6876097158543
 10
97.25698645736813
 20
409.83339813624804
 10
96.96540961658069
 20
408.2601902841457
 10
97.75201354263186
 20
408.114401863752
  0
LWPOLYLINE
  5
BA
330
17
100
AcDbEntity
  8
CAP
100
AcDbPolyline
 90
5
 70
0
 10
64.97225699077347
 20
413.1975336340129
 10
65.18109889832556
 20
414.783845412211
 10
64.38794300922652
 20
414.888266365987
 10
64.17910110167443
 20
413.30195458778894
 10
64.97225699077347
 20
413.1975336340129
  0
LWPOLYLINE
  5
BB
330
17
100
AcDbEntity
  8
CAP
100
AcDbPolyline
 90
5
 70
0
 10
31.971299656910976
 20
416.5582824947224
 10
32.09683421007553
 20
418.1533502286954
 10
31.299300343089026
 20
418.2161175052776
 10
31.173765789924474
 20
416.6210497713046
 10
31.971299656910976
 20
416.5582824947224
  0
LWPOLYLINE
  5
BC
330
17
100
AcDbEntity
  8
CAP
100
AcDbPolyline
 90
5
 70
0
 10
-1.1603786286560753
 20
418.1871033606964
 10
-1.1184955113634785
 20
419.7865550806573
 10
-1.9182213713439245
 20
419.80749663930357
 10
-1.9601044886365213
 20
418.2080449193427
 10
-1.1603786286560753
 20
418.1871033606964
  0
LWPOLYLINE
  5
BD
330
17
100
AcDbEntity
  8
CAP
100
AcDbPolyline
 90
5
 70
0
 10
-1.9540565764651212
 20
448.21140506813015
 10
-1.9159701086250438
 20
449.8109516979498
 10
-2.7157434235348794
 20
449.8299949318698
 10
-2.7538298913749566
 20
448.23044830205015
 10
-1.9540565764651212
 20
448.21140506813015
  0
LWPOLYLINE
  5
BE
330
17
100
AcDbEntity
  8
LED
100
AcDbPolyline
 90
5
 70
0
 10
-2.6581551311718656
 20
21.90556051497885
 10
2.331139485021152
 20
21.578544868828132
 10
2.6581551311718656
 20
26.56783948502115
 10
-2.331139485021152
 20
26.894855131171866
 10
-2.6581551311718656
 20
21.90556051497885
  0
CIRCLE
  5
BF
330
17
100
AcDbEntity
  8
LED
100
AcDbCircle
 10
2.3401093551663505
 20
22.479888056204384
 30
0.0
 40
0.45
  0
TEXT
  5
C0
330
17
100
AcDbEntity
  8
LED-REF
100
AcDbText
 10
0.0
 20
24.2367
 30
0.0
 40
1.1
  1
LED1
 50
356.25
 72
1
 11
0.0
 21
24.2367
 31
0.0
100
AcDbText
 73
2
  0
LWPOLYLINE
  5
C1
330
17
100
AcDbEntity
  8
LED
100
AcDbPolyline
 90
5
 70
0
 10
28.373292985911576
 20
78.97886531111274
 10
33.31173468888726
 20
78.19669298591158
 10
34.09390701408842
 20
83.13513468888726
 10
29.15546531111273
 20
83.91730701408842
 10
28.373292985911576
 20
78.97886531111274
  0
CIRCLE
  5
C2
330
17
100
AcDbEntity
  8
LED
100
AcDbCircle
 10
33.40314129039372
 20
79.09343421569922
 30
0.0
 40
0.45
  0
TEXT
  5
C3
330
17
100
AcDbEntity
  8
LED-REF
100
AcDbText
 10
31.2336
 20
81.057
 30
0.0
 40
1.1
  1
LED10
 50
351.0
 72
1
 11
31.2336
 21
81.057
 31
0.0
100
AcDbText
 73
2
  0
LWPOLYLINE
  5
C4
330
17
100
AcDbEntity
  8
LED
100
AcDbPolyline
 90
5
 70
0
 10
28.715118081906944
 20
440.75362191100425
 10
33.70237808899574
 20
440.3969180819069
 10
34.05908191809306
 20
445.3841780889957
 10
29.071821911004264
 20
445.74088191809307
 10
28.715118081906944
 20
440.75362191100425
  0
CIRCLE
  5
C5
330
17
100
AcDbEntity
  8
LED
100
AcDbCircle
 10
33.71671217816237
 20
441.29819192147386
 30
0.0
 40
0.45
  0
TEXT
  5
C6
330
17
100
AcDbEntity
  8
LED-REF
100
AcDbText
 10
31.3871
 20
443.0689
 30
0.0
 40
1.1
  1
LED100
 50
355.909
 72
1
 11
31.3871
 21
443.0689
 31
0.0
100
AcDbText
 73
2
  0
LWPOLYLINE
  5
C7
330
17
100
AcDbEntity
  8
LED
100
AcDbPolyline
 90
5
 70
0
 10
59.87868956706128
 20
437.8973691259259
 10
64.84333087407411
 20
437.3037895670613
 10
65.43691043293872
 20
442.2684308740741
 10
60.47226912592589
 20
442.8620104329387
 10
59.87868956706128
 20
437.8973691259259
  0
CIRCLE
  5
C8
330
17
100
AcDbEntity
  8
LED
100
AcDbCircle
 10
64.90052878159962
 20
438.20336079791224
 30
0.0
 40
0.45
  0
TEXT
  5
C9
330
17
100
AcDbEntity
  8
LED-REF
100
AcDbText
 10
62.6578
 20
440.0829
 30
0.0
 40
1.1
  1
LED101
 50
353.182
 72
1
 11
62.6578
 21
440.0829
 31
0.0
100
AcDbText
 73
2
  0
LWPOLYLINE
  5
CA
330
17
100
AcDbEntity
  8
LED
100
AcDbPolyline
 90
5
 70
0
 10
90.87115537238742
 20
433.56156628126865
 10
95.80193371873135
 20
432.7324553723874
 10
96.63104462761257
 20
437.6632337187313
 10
91.70026628126864
 20
438.49234462761257
 10
90.87115537238742
 20
433.56156628126865
  0
CIRCLE
  5
CB
330
17
100
AcDbEntity
  8
LED
100
AcDbCircle
 10
95.90186589886653
 20
433.6282865838181
 30
0.0
 40
0.45
  0
TEXT
  5
CC
330
17
100
AcDbEntity
  8
LED-REF
100
AcDbText
 10
93.7511
 20
435.6124
 30
0.0
 40
1.1
  1
LED102
 50
350.455
 72
1
 11
93.7511
 21
435.6124
 31
0.0
100
AcDbText
 73
2
  0
LWPOLYLINE
  5
CD
330
17
100
AcDbEntity
  8
LED
100
AcDbPolyline
 90
5
 70
0
 10
121.62201051272388
 20
427.75606021651777
 10
126.50773978348225
 20
426.6932105127239
 10
127.57058948727612
 20
431.57893978348227
 10
122.68486021651775
 20
432.6417894872761
 10
121.62201051272388
 20
427.75606021651777
  0
CIRCLE
  5
CE
330
17
100
AcDbEntity
  8
LED
100
AcDbCircle
 10
126.65019543745757
 20
427.58327027849833
 30
0.0
 40
0.45
  0
TEXT
  5
CF
330
17
100
AcDbEntity
  8
LED-REF
100
AcDbText
 10
124.5963
 20
429.6675
 30
0.0
 40
1.1
  1
LED103
 50
347.727
 72
1
 11
124.5963
 21
429.6675
 31
0.0
100
AcDbText
 73
2
  0
LWPOLYLINE
  5
D0
330
17
100
AcDbEntity
  8
LED
100
AcDbPolyline
 90
5
 70
0
 10
152.061937821521
 20
420.4938330470336
 10
156.89156695296634
 20
419.199737821521
 10
158.18566217847896
 20
424.02936695296637
 10
153.35603304703363
 20
425.32346217847896
 10
152.061937821521
 20
420.4938330470336
  0
CIRCLE
  5
D1
330
17
100
AcDbEntity
  8
LED
100
AcDbCircle
 10
157.07620780224417
 20
420.0820120174363
 30
0.0
 40
0.45
  0
TEXT
  5
D2
330
17
100
AcDbEntity
  8
LED-REF
100
AcDbText
 10
155.1238
 20
422.2616
 30
0.0
 40
1.1
  1
LED104
 50
345.0
 72
1
 11
155.1238
 21
422.2616
 31
0.0
100
AcDbText
 73
2
  0
LWPOLYLINE
  5
D3
330
17
100
AcDbEntity
  8
LED
100
AcDbPolyline
 90
5
 70
0
 10
182.12179984606206
 20
411.791409637551
 10
186.88439036244898
 20
410.26899984606206
 10
188.40680015393792
 20
415.031590362449
 10
183.644209637551
 20
416.5540001539379
 10
182.12179984606206
 20
411.791409637551
  0
CIRCLE
  5
D4
330
17
100
AcDbEntity
  8
LED
100
AcDbCircle
 10
187.11079821975312
 20
411.1414902369266
 30
0.0
 40
0.45
  0
TEXT
  5
D5
330
17
100
AcDbEntity
  8
LED-REF
100
AcDbText
 10
185.2643
 20
413.4115
 30
0.0
 40
1.1
  1
LED105
 50
342.273
 72
1
 11
185.2643
 21
413.4115
 31
0.0
100
AcDbText
 73
2
  0
LWPOLYLINE
  5
D6
330
17
100
AcDbEntity
  8
LED
100
AcDbPolyline
 90
5
 70
0
 10
211.73355358683466
 20
401.6687116503607
 10
216.41828834963934
 20
399.92135358683464
 10
218.16564641316535
 20
404.6060883496393
 10
213.48091165036067
 20
406.3534464131654
 10
211.73355358683466
 20
401.6687116503607
  0
CIRCLE
  5
D7
330
17
100
AcDbEntity
  8
LED
100
AcDbCircle
 10
216.68596545344596
 20
400.7820794247748
 30
0.0
 40
0.45
  0
TEXT
  5
D8
330
17
100
AcDbEntity
  8
LED-REF
100
AcDbText
 10
214.9496
 20
403.1374
 30
0.0
 40
1.1
  1
LED106
 50
339.545
 72
1
 11
214.9496
 21
403.1374
 31
0.0
100
AcDbText
 73
2
  0
LWPOLYLINE
  5
D9
330
17
100
AcDbEntity
  8
LED
100
AcDbPolyline
 90
5
 70
0
 10
240.83011952582726
 20
390.1482852021898
 10
245.42641479781025
 20
388.1800195258273
 10
247.39468047417276
 20
392.77631479781024
 10
242.79838520218976
 20
394.7445804741728
 10
240.83011952582726
 20
390.1482852021898
  0
CIRCLE
  5
DA
330
17
100
AcDbEntity
  8
LED
100
AcDbCircle
 10
245.73473966683568
 20
389.02703533154784
 30
0.0
 40
0.45
  0
TEXT
  5
DB
330
17
100
AcDbEntity
  8
LED-REF
100
AcDbText
 10
244.1124
 20
391.4623
 30
0.0
 40
1.1
  1
LED107
 50
336.818
 72
1
 11
244.1124
 21
391.4623
 31
0.0
100
AcDbText
 73
2
  0
LWPOLYLINE
  5
DC
330
17
100
AcDbEntity
  8
LED
100
AcDbPolyline
 90
5
 70
0
 10
269.34551939905765
 20
377.2565348249766
 10
273.8429651750234
 20
375.07181939905763
 10
276.02768060094235
 20
379.56926517502336
 10
271.5302348249766
 20
381.7539806009423
 10
269.34551939905765
 20
377.2565348249766
  0
CIRCLE
  5
DD
330
17
100
AcDbEntity
  8
LED
100
AcDbCircle
 10
274.1912394939291
 20
375.90320679299066
 30
0.0
 40
0.45
  0
TEXT
  5
DE
330
17
100
AcDbEntity
  8
LED-REF
100
AcDbText
 10
272.6866
 20
378.4129
 30
0.0
 40
1.1
  1
LED108
 50
334.091
 72
1
 11
272.6866
 21
378.4129
 31
0.0
100
AcDbText
 73
2
  0
LWPOLYLINE
  5
DF
330
17
100
AcDbEntity
  8
LED
100
AcDbPolyline
 90
5
 70
0
 10
297.2152863810913
 20
363.02260346302853
 10
301.6036965369715
 20
360.6263863810913
 10
303.9999136189087
 20
365.0147965369715
 10
299.6115034630285
 20
367.4110136189087
 10
297.2152863810913
 20
363.02260346302853
  0
CIRCLE
  5
E0
330
17
100
AcDbEntity
  8
LED
100
AcDbCircle
 10
301.9911315101614
 20
361.4402623799691
 30
0.0
 40
0.45
  0
TEXT
  5
E1
330
17
100
AcDbEntity
  8
LED-REF
100
AcDbText
 10
300.6076
 20
364.0187
 30
0.0
 40
1.1
  1
LED109
 50
331.364
 72
1
 11
300.6076
 21
364.0187
 31
0.0
100
AcDbText
 73
2
  0
LWPOLYLINE
  5
E2
330
17
100
AcDbEntity
  8
LED
100
AcDbPolyline
 90
5
 70
0
 10
58.88713782152102
 20
72.76053304703363
 10
63.71676695296637
 20
71.46643782152103
 10
65.01086217847897
 20
76.29606695296637
 10
60.18123304703363
 20
77.59016217847898
 10
58.88713782152102
 20
72.76053304703363
  0
CIRCLE
  5
E3
330
17
100
AcDbEntity
  8
LED
100
AcDbCircle
 10
63.90140780224418
 20
72.34871201743631
 30
0.0
 40
0.45
  0
TEXT
  5
E4
330
17
100
AcDbEntity
  8
LED-REF
100
AcDbText
 10
61.949
 20
74.5283
 30
0.0
 40
1.1
  1
LED11
 50
345.0
 72
1
 11
61.949
 21
74.5283
 31
0.0
100
AcDbText
 73
2
  0
LWPOLYLINE
  5
E5
330
17
100
AcDbEntity
  8
LED
100
AcDbPolyline
 90
5
 70
0
 10
88.58372905989374
 20
63.386668807620254
 10
93.25163119237975
 20
61.594829059893755
 10
95.04347094010625
 20
66.26273119237976
 10
90.37556880762024
 20
68.05457094010626
 10
88.58372905989374
 20
63.386668807620254
  0
CIRCLE
  5
E6
330
17
100
AcDbEntity
  8
LED
100
AcDbCircle
 10
93.52748332564566
 20
62.4529698412185
 30
0.0
 40
0.45
  0
TEXT
  5
E7
330
17
100
AcDbEntity
  8
LED-REF
100
AcDbText
 10
91.8136
 20
64.8247
 30
0.0
 40
1.1
  1
LED12
 50
339.0
 72
1
 11
91.8136
 21
64.8247
 31
0.0
100
AcDbText
 73
2
  0
LWPOLYLINE
  5
E8
330
17
100
AcDbEntity
  8
LED
100
AcDbPolyline
 90
5
 70
0
 10
117.13790744018021
 20
50.95995993887795
 10
121.59294006112205
 20
48.69000744018022
 10
123.86289255981978
 20
53.14504006112205
 10
119.40785993887795
 20
55.41499255981979
 10
117.13790744018021
 20
50.95995993887795
  0
CIRCLE
  5
E9
330
17
100
AcDbEntity
  8
LED
100
AcDbCircle
 10
121.95698118467823
 20
49.51461283693672
 30
0.0
 40
0.45
  0
TEXT
  5
EA
330
17
100
AcDbEntity
  8
LED-REF
100
AcDbText
 10
120.5004
 20
52.0525
 30
0.0
 40
1.1
  1
LED13
 50
333.0
 72
1
 11
120.5004
 21
52.0525
 31
0.0
100
AcDbText
 73
2
  0
LWPOLYLINE
  5
EB
330
17
100
AcDbEntity
  8
LED
100
AcDbPolyline
 90
5
 70
0
 10
130.7576074401802
 20
77.69015993887795
 10
135.21264006112207
 20
75.42020744018022
 10
137.4825925598198
 20
79.87524006112206
 10
133.02755993887794
 20
82.14519255981979
 10
130.7576074401802
 20
77.69015993887795
  0
CIRCLE
  5
EC
330
17
100
AcDbEntity
  8
LED
100
AcDbCircle
 10
135.57668118467822
 20
76.24481283693673
 30
0.0
 40
0.45
  0
TEXT
  5
ED
330
17
100
AcDbEntity
  8
LED-REF
100
AcDbText
 10
134.1201
 20
78.7827
 30
0.0
 40
1.1
  1
LED14
 50
333.0
 72
1
 11
134.1201
 21
78.7827
 31
0.0
100
AcDbText
 73
2
  0
LWPOLYLINE
  5
EE
330
17
100
AcDbEntity
  8
LED
100
AcDbPolyline
 90
5
 70
0
 10
99.33482905989375
 20
91.39406880762024
 10
104.00273119237976
 20
89.60222905989374
 10
105.79457094010625
 20
94.27013119237975
 10
101.12666880762025
 20
96.06197094010625
 10
99.33482905989375
 20
91.39406880762024
  0
CIRCLE
  5
EF
330
17
100
AcDbEntity
  8
LED
100
AcDbCircle
 10
104.27858332564567
 20
90.4603698412185
 30
0.0
 40
0.45
  0
TEXT
  5
F0
330
17
100
AcDbEntity
  8
LED-REF
100
AcDbText
 10
102.5647
 20
92.8321
 30
0.0
 40
1.1
  1
LED15
 50
339.0
 72
1
 11
102.5647
 21
92.8321
 31
0.0
100
AcDbText
 73
2
  0
LWPOLYLINE
  5
F1
330
17
100
AcDbEntity
  8
LED
100
AcDbPolyline
 90
5
 70
0
 10
66.65163782152102
 20
101.73833304703363
 10
71.48126695296637
 20
100.44423782152103
 10
72.77536217847897
 20
105.27386695296637
 10
67.94573304703363
 20
106.56796217847898
 10
66.65163782152102
 20
101.73833304703363
  0
CIRCLE
  5
F2
330
17
100
AcDbEntity
  8
LED
100
AcDbCircle
 10
71.66590780224418
 20
101.32651201743631
 30
0.0
 40
0.45
  0
TEXT
  5
F3
330
17
100
AcDbEntity
  8
LED-REF
100
AcDbText
 10
69.7135
 20
103.5061
 30
0.0
 40
1.1
  1
LED16
 50
345.0
 72
1
 11
69.7135
 21
103.5061
 31
0.0
100
AcDbText
 73
2
  0
LWPOLYLINE
  5
F4
330
17
100
AcDbEntity
  8
LED
100
AcDbPolyline
 90
5
 70
0
 10
33.06629298591158
 20
108.60956531111275
 10
38.00473468888727
 20
107.82739298591159
 10
38.78690701408842
 20
112.76583468888727
 10
33.84846531111273
 20
113.54800701408843
 10
33.06629298591158
 20
108.60956531111275
  0
CIRCLE
  5
F5
330
17
100
AcDbEntity
  8
LED
100
AcDbCircle
 10
38.09614129039372
 20
108.72413421569922
 30
0.0
 40
0.45
  0
TEXT
  5
F6
330
17
100
AcDbEntity
  8
LED-REF
100
AcDbText
 10
35.9266
 20
110.6877
 30
0.0
 40
1.1
  1
LED17
 50
351.0
 72
1
 11
35.9266
 21
110.6877
 31
0.0
100
AcDbText
 73
2
  0
LWPOLYLINE
  5
F7
330
17
100
AcDbEntity
  8
LED
100
AcDbPolyline
 90
5
 70
0
 10
-1.0533137274937956
 20
111.93256605372092
 10
3.9398339462790735
 20
111.67088627250621
 10
4.201513727493795
 20
116.66403394627908
 10
-0.7916339462790734
 20
116.92571372749379
 10
-1.0533137274937956
 20
111.93256605372092
  0
CIRCLE
  5
F8
330
17
100
AcDbEntity
  8
LED
100
AcDbCircle
 10
3.9370048301599954
 20
112.57226965159747
 30
0.0
 40
0.45
  0
TEXT
  5
F9
330
17
100
AcDbEntity
  8
LED-REF
100
AcDbText
 10
1.5741
 20
114.2983
 30
0.0
 40
1.1
  1
LED18
 50
357.0
 72
1
 11
1.5741
 21
114.2983
 31
0.0
100
AcDbText
 73
2
  0
LWPOLYLINE
  5
FA
330
17
100
AcDbEntity
  8
LED
100
AcDbPolyline
 90
5
 70
0
 10
-2.6004690223679847
 20
142.0193279144587
 10
2.394772085541304
 20
141.80123097763203
 10
2.612869022367985
 20
146.79647208554132
 10
-2.3823720855413035
 20
147.014569022368
 10
-2.6004690223679847
 20
142.0193279144587
  0
CIRCLE
  5
FB
330
17
100
AcDbEntity
  8
LED
100
AcDbCircle
 10
2.384077123091014
 20
142.70255534642396
 30
0.0
 40
0.45
  0
TEXT
  5
FC
330
17
100
AcDbEntity
  8
LED-REF
100
AcDbText
 10
0.0062
 20
144.4079
 30
0.0
 40
1.1
  1
LED19
 50
357.5
 72
1
 11
0.0062
 21
144.4079
 31
0.0
100
AcDbText
 73
2
  0
LWPOLYLINE
  5
FD
330
17
100
AcDbEntity
  8
LED
100
AcDbPolyline
 90
5
 70
0
 10
28.185210993951603
 20
18.174762604032246
 10
33.089137395967754
 20
17.199310993951602
 10
34.0645890060484
 20
22.103237395967753
 10
29.160662604032247
 20
23.078689006048396
 10
28.185210993951603
 20
18.174762604032246
  0
CIRCLE
  5
FE
330
17
100
AcDbEntity
  8
LED
100
AcDbCircle
 10
33.21567942176211
 20
18.091772262415315
 30
0.0
 40
0.45
  0
TEXT
  5
FF
330
17
100
AcDbEntity
  8
LED-REF
100
AcDbText
 10
31.1249
 20
20.139
 30
0.0
 40
1.1
  1
LED2
 50
348.75
 72
1
 11
31.1249
 21
20.139
 31
0.0
100
AcDbText
 73
2
  0
LWPOLYLINE
  5
100
330
17
100
AcDbEntity
  8
LED
100
AcDbPolyline
 90
5
 70
0
 10
28.487772366015346
 20
139.5184033271156
 10
33.4449966728844
 20
138.86577236601536
 10
34.09762763398466
 20
143.82299667288441
 10
29.140403327115603
 20
144.47562763398466
 10
28.487772366015346
 20
139.5184033271156
  0
CIRCLE
  5
101
330
17
100
AcDbEntity
  8
LED
100
AcDbCircle
 10
33.512898002813756
 20
139.76459905086278
 30
0.0
 40
0.45
  0
TEXT
  5
102
330
17
100
AcDbEntity
  8
LED-REF
100
AcDbText
 10
31.2927
 20
141.6707
 30
0.0
 40
1.1
  1
LED20
 50
352.5
 72
1
 11
31.2927
 21
141.6707
 31
0.0
100
AcDbText
 73
2
  0
LWPOLYLINE
  5
103
330
17
100
AcDbEntity
  8
LED
100
AcDbPolyline
 90
5
 70
0
 10
59.239660947354906
 20
134.31745901704542
 10
64.12114098295457
 20
133.2352609473549
 10
65.20333905264509
 20
138.11674098295455
 10
60.321859017045426
 20
139.19893905264507
 10
59.239660947354906
 20
134.31745901704542
  0
CIRCLE
  5
104
330
17
100
AcDbEntity
  8
LED
100
AcDbCircle
 10
64.26712183514287
 20
134.12474933445975
 30
0.0
 40
0.45
  0
TEXT
  5
105
330
17
100
AcDbEntity
  8
LED-REF
100
AcDbText
 10
62.2215
 20
136.2171
 30
0.0
 40
1.1
  1
LED21
 50
347.5
 72
1
 11
62.2215
 21
136.2171
 31
0.0
100
AcDbText
 73
2
  0
LWPOLYLINE
  5
106
330
17
100
AcDbEntity
  8
LED
100
AcDbPolyline
 90
5
 70
0
 10
89.42124312436874
 20
126.45607212189013
 10
94.18982787810988
 20
124.95254312436876
 10
95.69335687563125
 20
129.7211278781099
 10
90.92477212189011
 20
131.22465687563127
 10
89.42124312436874
 20
126.45607212189013
  0
CIRCLE
  5
107
330
17
100
AcDbEntity
  8
LED
100
AcDbCircle
 10
94.41277725012631
 20
125.82592367001737
 30
0.0
 40
0.45
  0
TEXT
  5
108
330
17
100
AcDbEntity
  8
LED-REF
100
AcDbText
 10
92.5573
 20
128.0886
 30
0.0
 40
1.1
  1
LED22
 50
342.5
 72
1
 11
92.5573
 21
128.0886
 31
0.0
100
AcDbText
 73
2
  0
LWPOLYLINE
  5
109
330
17
100
AcDbEntity
  8
LED
100
AcDbPolyline
 90
5
 70
0
 10
118.80289258780905
 20
115.9942097496345
 10
123.42229025036549
 20
114.08079258780906
 10
125.33570741219094
 20
118.7001902503655
 10
120.7163097496345
 20
120.61360741219094
 10
118.80289258780905
 20
115.9942097496345
  0
CIRCLE
  5
10A
330
17
100
AcDbEntity
  8
LED
100
AcDbCircle
 10
123.7205113628685
 20
114.93141833868748
 30
0.0
 40
0.45
  0
TEXT
  5
10B
330
17
100
AcDbEntity
  8
LED-REF
100
AcDbText
 10
122.0693
 20
117.3472
 30
0.0
 40
1.1
  1
LED23
 50
337.5
 72
1
 11
122.0693
 21
117.3472
 31
0.0
100
AcDbText
 73
2
  0
LWPOLYLINE
  5
10C
330
17
100
AcDbEntity
  8
LED
100
AcDbPolyline
 90
5
 70
0
 10
147.16080138396686
 20
103.01124445014203
 10
151.595855549858
 20
100.70250138396686
 10
153.90459861603316
 20
105.13755554985796
 10
149.46954445014202
 20
107.44629861603313
 10
147.16080138396686
 20
103.01124445014203
  0
CIRCLE
  5
10D
330
17
100
AcDbEntity
  8
LED
100
AcDbCircle
 10
151.96707876011058
 20
101.52389856448902
 30
0.0
 40
0.45
  0
TEXT
  5
10E
330
17
100
AcDbEntity
  8
LED-REF
100
AcDbText
 10
150.5327
 20
104.0744
 30
0.0
 40
1.1
  1
LED24
 50
332.5
 72
1
 11
150.5327
 21
104.0744
 31
0.0
100
AcDbText
 73
2
  0
LWPOLYLINE
  5
10F
330
17
100
AcDbEntity
  8
LED
100
AcDbPolyline
 90
5
 70
0
 10
161.01330138396685
 20
129.621644450142
 10
165.44835554985798
 20
127.31290138396686
 10
167.75709861603315
 20
131.74795554985798
 10
163.32204445014202
 20
134.05669861603315
 10
161.01330138396685
 20
129.621644450142
  0
CIRCLE
  5
110
330
17
100
AcDbEntity
  8
LED
100
AcDbCircle
 10
165.81957876011057
 20
128.134298564489
 30
0.0
 40
0.45
  0
TEXT
  5
111
330
17
100
AcDbEntity
  8
LED-REF
100
AcDbText
 10
164.3852
 20
130.6848
 30
0.0
 40
1.1
  1
LED25
 50
332.5
 72
1
 11
164.3852
 21
130.6848
 31
0.0
100
AcDbText
 73
2
  0
LWPOLYLINE
  5
112
330
17
100
AcDbEntity
  8
LED
100
AcDbPolyline
 90
5
 70
0
 10
130.28339258780906
 20
143.71060974963453
 10
134.90279025036548
 20
141.79719258780906
 10
136.81620741219095
 20
146.4165902503655
 10
132.19680974963453
 20
148.33000741219095
 10
130.28339258780906
 20
143.71060974963453
  0
CIRCLE
  5
113
330
17
100
AcDbEntity
  8
LED
100
AcDbCircle
 10
135.2010113628685
 20
142.64781833868747
 30
0.0
 40
0.45
  0
TEXT
  5
114
330
17
100
AcDbEntity
  8
LED-REF
100
AcDbText
 10
133.5498
 20
145.0636
 30
0.0
 40
1.1
  1
LED26
 50
337.5
 72
1
 11
133.5498
 21
145.0636
 31
0.0
100
AcDbText
 73
2
  0
LWPOLYLINE
  5
115
330
17
100
AcDbEntity
  8
LED
100
AcDbPolyline
 90
5
 70
0
 10
98.44244312436875
 20
155.0676721218901
 10
103.21102787810989
 20
153.56414312436874
 10
104.71455687563126
 20
158.3327278781099
 10
99.94597212189012
 20
159.83625687563125
 10
98.44244312436875
 20
155.0676721218901
  0
CIRCLE
  5
116
330
17
100
AcDbEntity
  8
LED
100
AcDbCircle
 10
103.43397725012632
 20
154.43752367001736
 30
0.0
 40
0.45
  0
TEXT
  5
117
330
17
100
AcDbEntity
  8
LED-REF
100
AcDbText
 10
101.5785
 20
156.7002
 30
0.0
 40
1.1
  1
LED27
 50
342.5
 72
1
 11
101.5785
 21
156.7002
 31
0.0
100
AcDbText
 73
2
  0
LWPOLYLINE
  5
118
330
17
100
AcDbEntity
  8
LED
100
AcDbPolyline
 90
5
 70
0
 10
65.73286094735491
 20
163.60635901704543
 10
70.61434098295457
 20
162.52416094735491
 10
71.69653905264508
 20
167.40564098295457
 10
66.81505901704541
 20
168.48783905264509
 10
65.73286094735491
 20
163.60635901704543
  0
CIRCLE
  5
119
330
17
100
AcDbEntity
  8
LED
100
AcDbCircle
 10
70.76032183514286
 20
163.41364933445976
 30
0.0
 40
0.45
  0
TEXT
  5
11A
330
17
100
AcDbEntity
  8
LED-REF
100
AcDbText
 10
68.7147
 20
165.506
 30
0.0
 40
1.1
  1
LED28
 50
347.5
 72
1
 11
68.7147
 21
165.506
 31
0.0
100
AcDbText
 73
2
  0
LWPOLYLINE
  5
11B
330
17
100
AcDbEntity
  8
LED
100
AcDbPolyline
 90
5
 70
0
 10
32.40357236601535
 20
169.26170332711558
 10
37.3607966728844
 20
168.60907236601534
 10
38.013427633984655
 20
173.5662966728844
 10
33.056203327115604
 20
174.21892763398463
 10
32.40357236601535
 20
169.26170332711558
  0
CIRCLE
  5
11C
330
17
100
AcDbEntity
  8
LED
100
AcDbCircle
 10
37.42869800281375
 20
169.50789905086276
 30
0.0
 40
0.45
  0
TEXT
  5
11D
330
17
100
AcDbEntity
  8
LED-REF
100
AcDbText
 10
35.2085
 20
171.414
 30
0.0
 40
1.1
  1
LED29
 50
352.5
 72
1
 11
35.2085
 21
171.414
 31
0.0
100
AcDbText
 73
2
  0
LWPOLYLINE
  5
11E
330
17
100
AcDbEntity
  8
LED
100
AcDbPolyline
 90
5
 70
0
 10
58.277776013004335
 20
10.450073339520142
 10
63.01242666047986
 20
8.842876013004332
 10
64.61962398699568
 20
13.577526660479858
 10
59.884973339520144
 20
15.184723986995667
 10
58.277776013004335
 20
10.450073339520142
  0
CIRCLE
  5
11F
330
17
100
AcDbEntity
  8
LED
100
AcDbCircle
 10
63.254375672777954
 20
9.711185102815083
 30
0.0
 40
0.45
  0
TEXT
  5
120
330
17
100
AcDbEntity
  8
LED-REF
100
AcDbText
 10
61.4487
 20
12.0138
 30
0.0
 40
1.1
  1
LED3
 50
341.25
 72
1
 11
61.4487
 21
12.0138
 31
0.0
100
AcDbText
 73
2
  0
LWPOLYLINE
  5
121
330
17
100
AcDbEntity
  8
LED
100
AcDbPolyline
 90
5
 70
0
 10
-1.291869022367985
 20
171.9907279144587
 10
3.7033720855413037
 20
171.77263097763202
 10
3.921469022367985
 20
176.7678720855413
 10
-1.0737720855413038
 20
176.98596902236798
 10
-1.291869022367985
 20
171.9907279144587
  0
CIRCLE
  5
122
330
17
100
AcDbEntity
  8
LED
100
AcDbCircle
 10
3.6926771230910136
 20
172.67395534642395
 30
0.0
 40
0.45
  0
TEXT
  5
123
330
17
100
AcDbEntity
  8
LED-REF
100
AcDbText
 10
1.3148
 20
174.3793
 30
0.0
 40
1.1
  1
LED30
 50
357.5
 72
1
 11
1.3148
 21
174.3793
 31
0.0
100
AcDbText
 73
2
  0
LWPOLYLINE
  5
124
330
17
100
AcDbEntity
  8
LED
100
AcDbPolyline
 90
5
 70
0
 10
-2.5841357435423484
 20
202.05203268575835
 10
2.4123673142416484
 20
201.86506425645763
 10
2.5993357435423485
 20
206.86156731424163
 10
-2.3971673142416483
 20
207.04853574354235
 10
-2.5841357435423484
 20
202.05203268575835
  0
CIRCLE
  5
125
330
17
100
AcDbEntity
  8
LED
100
AcDbCircle
 10
2.3960566009379347
 20
202.76630449115177
 30
0.0
 40
0.45
  0
TEXT
  5
126
330
17
100
AcDbEntity
  8
LED-REF
100
AcDbText
 10
0.0076
 20
204.4568
 30
0.0
 40
1.1
  1
LED31
 50
357.857
 72
1
 11
0.0076
 21
204.4568
 31
0.0
100
AcDbText
 73
2
  0
LWPOLYLINE
  5
127
330
17
100
AcDbEntity
  8
LED
100
AcDbPolyline
 90
5
 70
0
 10
28.564091796441886
 20
199.90535134169252
 10
33.532648658307494
 20
199.3454917964419
 10
34.09250820355811
 20
204.31404865830748
 10
29.123951341692507
 20
204.8739082035581
 10
28.564091796441886
 20
199.90535134169252
  0
CIRCLE
  5
128
330
17
100
AcDbEntity
  8
LED
100
AcDbCircle
 10
33.58373780783395
 20
200.2454306270302
 30
0.0
 40
0.45
  0
TEXT
  5
129
330
17
100
AcDbEntity
  8
LED-REF
100
AcDbText
 10
31.3283
 20
202.1097
 30
0.0
 40
1.1
  1
LED32
 50
353.571
 72
1
 11
31.3283
 21
202.1097
 31
0.0
100
AcDbText
 73
2
  0
LWPOLYLINE
  5
12A
330
17
100
AcDbEntity
  8
LED
100
AcDbPolyline
 90
5
 70
0
 10
59.46491473065325
 20
195.43684826785616
 10
64.37775173214384
 20
194.50731473065326
 10
65.30728526934675
 20
199.42015173214386
 10
60.394448267856156
 20
200.34968526934676
 10
59.46491473065325
 20
195.43684826785616
  0
CIRCLE
  5
12B
330
17
100
AcDbEntity
  8
LED
100
AcDbCircle
 10
64.49593939882546
 20
195.4009207262936
 30
0.0
 40
0.45
  0
TEXT
  5
12C
330
17
100
AcDbEntity
  8
LED-REF
100
AcDbText
 10
62.3861
 20
197.4285
 30
0.0
 40
1.1
  1
LED33
 50
349.286
 72
1
 11
62.3861
 21
197.4285
 31
0.0
100
AcDbText
 73
2
  0
LWPOLYLINE
  5
12D
330
17
100
AcDbEntity
  8
LED
100
AcDbPolyline
 90
5
 70
0
 10
89.94533782152102
 20
188.67163304703365
 10
94.77496695296637
 20
187.37753782152103
 10
96.06906217847897
 20
192.20716695296636
 10
91.23943304703363
 20
193.50126217847898
 10
89.94533782152102
 20
188.67163304703365
  0
CIRCLE
  5
12E
330
17
100
AcDbEntity
  8
LED
100
AcDbCircle
 10
94.95960780224418
 20
188.25981201743633
 30
0.0
 40
0.45
  0
TEXT
  5
12F
330
17
100
AcDbEntity
  8
LED-REF
100
AcDbText
 10
93.0072
 20
190.4394
 30
0.0
 40
1.1
  1
LED34
 50
345.0
 72
1
 11
93.0072
 21
190.4394
 31
0.0
100
AcDbText
 73
2
  0
LWPOLYLINE
  5
130
330
17
100
AcDbEntity
  8
LED
100
AcDbPolyline
 90
5
 70
0
 10
119.83508636979877
 20
179.64750521365676
 10
124.55449478634324
 20
177.99608636979877
 10
126.20591363020122
 20
182.71549478634324
 10
121.48650521365676
 20
184.36691363020122
 10
119.83508636979877
 20
179.64750521365676
  0
CIRCLE
  5
131
330
17
100
AcDbEntity
  8
LED
100
AcDbCircle
 10
124.80455609407224
 20
178.86209407321536
 30
0.0
 40
0.45
  0
TEXT
  5
132
330
17
100
AcDbEntity
  8
LED-REF
100
AcDbText
 10
123.0205
 20
181.1815
 30
0.0
 40
1.1
  1
LED35
 50
340.714
 72
1
 11
123.0205
 21
181.1815
 31
0.0
100
AcDbText
 73
2
  0
LWPOLYLINE
  5
133
330
17
100
AcDbEntity
  8
LED
100
AcDbPolyline
 90
5
 70
0
 10
148.96677396132853
 20
168.41499980352307
 10
153.54960019647694
 20
166.41557396132853
 10
155.54902603867149
 20
170.99840019647695
 10
150.96619980352307
 20
172.9978260386715
 10
148.96677396132853
 20
168.41499980352307
  0
CIRCLE
  5
134
330
17
100
AcDbEntity
  8
LED
100
AcDbCircle
 10
153.86366858572046
 20
167.2604769420772
 30
0.0
 40
0.45
  0
TEXT
  5
135
330
17
100
AcDbEntity
  8
LED-REF
100
AcDbText
 10
152.2579
 20
169.7067
 30
0.0
 40
1.1
  1
LED36
 50
336.429
 72
1
 11
152.2579
 21
169.7067
 31
0.0
100
AcDbText
 73
2
  0
LWPOLYLINE
  5
136
330
17
100
AcDbEntity
  8
LED
100
AcDbPolyline
 90
5
 70
0
 10
177.17764254390508
 20
155.036874663317
 10
181.598225336683
 20
152.7005425439051
 10
183.9345574560949
 20
157.121125336683
 10
179.513974663317
 20
159.45745745609491
 10
177.17764254390508
 20
155.036874663317
  0
CIRCLE
  5
137
330
17
100
AcDbEntity
  8
LED
100
AcDbCircle
 10
181.97455929024935
 20
153.51961076779924
 30
0.0
 40
0.45
  0
TEXT
  5
138
330
17
100
AcDbEntity
  8
LED-REF
100
AcDbText
 10
180.5561
 20
156.079
 30
0.0
 40
1.1
  1
LED37
 50
332.14300000000003
 72
1
 11
180.5561
 21
156.079
 31
0.0
100
AcDbText
 73
2
  0
LWPOLYLINE
  5
139
330
17
100
AcDbEntity
  8
LED
100
AcDbPolyline
 90
5
 70
0
 10
191.19564254390508
 20
181.560374663317
 10
195.616225336683
 20
179.22404254390509
 10
197.9525574560949
 20
183.644625336683
 10
193.531974663317
 20
185.9809574560949
 10
191.19564254390508
 20
181.560374663317
  0
CIRCLE
  5
13A
330
17
100
AcDbEntity
  8
LED
100
AcDbCircle
 10
195.99255929024935
 20
180.04311076779922
 30
0.0
 40
0.45
  0
TEXT
  5
13B
330
17
100
AcDbEntity
  8
LED-REF
100
AcDbText
 10
194.5741
 20
182.6025
 30
0.0
 40
1.1
  1
LED38
 50
332.14300000000003
 72
1
 11
194.5741
 21
182.6025
 31
0.0
100
AcDbText
 73
2
  0
LWPOLYLINE
  5
13C
330
17
100
AcDbEntity
  8
LED
100
AcDbPolyline
 90
5
 70
0
 10
160.96357396132854
 20
195.91189980352306
 10
165.54640019647695
 20
193.91247396132852
 10
167.5458260386715
 20
198.49530019647693
 10
162.96299980352308
 20
200.49472603867147
 10
160.96357396132854
 20
195.91189980352306
  0
CIRCLE
  5
13D
330
17
100
AcDbEntity
  8
LED
100
AcDbCircle
 10
165.86046858572047
 20
194.75737694207717
 30
0.0
 40
0.45
  0
TEXT
  5
13E
330
17
100
AcDbEntity
  8
LED-REF
100
AcDbText
 10
164.2547
 20
197.2036
 30
0.0
 40
1.1
  1
LED39
 50
336.429
 72
1
 11
164.2547
 21
197.2036
 31
0.0
100
AcDbText
 73
2
  0
LWPOLYLINE
  5
13F
330
17
100
AcDbEntity
  8
LED
100
AcDbPolyline
 90
5
 70
0
 10
87.10459642062078
 20
-1.1364601282842168
 10
91.58896012828421
 20
-3.3479035793792242
 10
93.80040357937922
 20
1.1364601282842168
 10
89.31603987171579
 20
3.3479035793792242
 10
87.10459642062078
 20
-1.1364601282842168
  0
CIRCLE
  5
140
330
17
100
AcDbEntity
  8
LED
100
AcDbCircle
 10
91.94217631240468
 20
-2.518603677488855
 30
0.0
 40
0.45
  0
TEXT
  5
141
330
17
100
AcDbEntity
  8
LED-REF
100
AcDbText
 10
90.4525
 20
0.0
 30
0.0
 40
1.1
  1
LED4
 50
333.75
 72
1
 11
90.4525
 21
0.0
 31
0.0
100
AcDbText
 73
2
  0
LWPOLYLINE
  5
142
330
17
100
AcDbEntity
  8
LED
100
AcDbPolyline
 90
5
 70
0
 10
129.74338636979877
 20
207.96400521365675
 10
134.46279478634324
 20
206.31258636979877
 10
136.11421363020122
 20
211.03199478634323
 10
131.39480521365675
 20
212.68341363020122
 10
129.74338636979877
 20
207.96400521365675
  0
CIRCLE
  5
143
330
17
100
AcDbEntity
  8
LED
100
AcDbCircle
 10
134.71285609407224
 20
207.17859407321535
 30
0.0
 40
0.45
  0
TEXT
  5
144
330
17
100
AcDbEntity
  8
LED-REF
100
AcDbText
 10
132.9288
 20
209.498
 30
0.0
 40
1.1
  1
LED40
 50
340.714
 72
1
 11
132.9288
 21
209.498
 31
0.0
100
AcDbText
 73
2
  0
LWPOLYLINE
  5
145
330
17
100
AcDbEntity
  8
LED
100
AcDbPolyline
 90
5
 70
0
 10
97.70993782152102
 20
217.64943304703365
 10
102.53956695296637
 20
216.35533782152103
 10
103.83366217847897
 20
221.18496695296636
 10
99.00403304703363
 20
222.47906217847898
 10
97.70993782152102
 20
217.64943304703365
  0
CIRCLE
  5
146
330
17
100
AcDbEntity
  8
LED
100
AcDbCircle
 10
102.72420780224418
 20
217.23761201743633
 30
0.0
 40
0.45
  0
TEXT
  5
147
330
17
100
AcDbEntity
  8
LED-REF
100
AcDbText
 10
100.7718
 20
219.4172
 30
0.0
 40
1.1
  1
LED41
 50
345.0
 72
1
 11
100.7718
 21
219.4172
 31
0.0
100
AcDbText
 73
2
  0
LWPOLYLINE
  5
148
330
17
100
AcDbEntity
  8
LED
100
AcDbPolyline
 90
5
 70
0
 10
65.04231473065325
 20
224.91384826785614
 10
69.95515173214383
 20
223.98431473065324
 10
70.88468526934675
 20
228.89715173214384
 10
65.97184826785616
 20
229.82668526934674
 10
65.04231473065325
 20
224.91384826785614
  0
CIRCLE
  5
149
330
17
100
AcDbEntity
  8
LED
100
AcDbCircle
 10
70.07333939882545
 20
224.87792072629358
 30
0.0
 40
0.45
  0
TEXT
  5
14A
330
17
100
AcDbEntity
  8
LED-REF
100
AcDbText
 10
67.9635
 20
226.9055
 30
0.0
 40
1.1
  1
LED42
 50
349.286
 72
1
 11
67.9635
 21
226.9055
 31
0.0
100
AcDbText
 73
2
  0
LWPOLYLINE
  5
14B
330
17
100
AcDbEntity
  8
LED
100
AcDbPolyline
 90
5
 70
0
 10
31.923091796441888
 20
229.7166513416925
 10
36.89164865830749
 20
229.1567917964419
 10
37.45150820355811
 20
234.12534865830747
 10
32.48295134169251
 20
234.6852082035581
 10
31.923091796441888
 20
229.7166513416925
  0
CIRCLE
  5
14C
330
17
100
AcDbEntity
  8
LED
100
AcDbCircle
 10
36.94273780783395
 20
230.0567306270302
 30
0.0
 40
0.45
  0
TEXT
  5
14D
330
17
100
AcDbEntity
  8
LED-REF
100
AcDbText
 10
34.6873
 20
231.921
 30
0.0
 40
1.1
  1
LED43
 50
353.571
 72
1
 11
34.6873
 21
231.921
 31
0.0
100
AcDbText
 73
2
  0
LWPOLYLINE
  5
14E
330
17
100
AcDbEntity
  8
LED
100
AcDbPolyline
 90
5
 70
0
 10
-1.4624357435423485
 20
232.03113268575837
 10
3.534067314241648
 20
231.84416425645765
 10
3.7210357435423482
 20
236.84066731424164
 10
-1.2754673142416484
 20
237.02763574354236
 10
-1.4624357435423485
 20
232.03113268575837
  0
CIRCLE
  5
14F
330
17
100
AcDbEntity
  8
LED
100
AcDbCircle
 10
3.5177566009379344
 20
232.7454044911518
 30
0.0
 40
0.45
  0
TEXT
  5
150
330
17
100
AcDbEntity
  8
LED-REF
100
AcDbText
 10
1.1293
 20
234.4359
 30
0.0
 40
1.1
  1
LED44
 50
357.857
 72
1
 11
1.1293
 21
234.4359
 31
0.0
100
AcDbText
 73
2
  0
LWPOLYLINE
  5
151
330
17
100
AcDbEntity
  8
LED
100
AcDbPolyline
 90
5
 70
0
 10
-2.572059175745356
 20
262.0766362383635
 10
2.4252637616364727
 20
261.9130408242546
 10
2.588859175745356
 20
266.91036376163646
 10
-2.408463761636473
 20
267.07395917574536
 10
-2.572059175745356
 20
262.0766362383635
  0
CIRCLE
  5
152
330
17
100
AcDbEntity
  8
LED
100
AcDbCircle
 10
2.4047377068022535
 20
262.81419490712443
 30
0.0
 40
0.45
  0
TEXT
  5
153
330
17
100
AcDbEntity
  8
LED-REF
100
AcDbText
 10
0.0084
 20
264.4935
 30
0.0
 40
1.1
  1
LED45
 50
358.125
 72
1
 11
0.0084
 21
264.4935
 31
0.0
100
AcDbText
 73
2
  0
LWPOLYLINE
  5
154
330
17
100
AcDbEntity
  8
LED
100
AcDbPolyline
 90
5
 70
0
 10
28.61849533249561
 20
260.19628103414345
 10
33.59441896585659
 20
259.7061953324956
 10
34.0845046675044
 20
264.6821189658566
 10
29.10858103414341
 20
265.17220466750445
 10
28.61849533249561
 20
260.19628103414345
  0
CIRCLE
  5
155
330
17
100
AcDbEntity
  8
LED
100
AcDbCircle
 10
33.63287515581959
 20
260.6067624435171
 30
0.0
 40
0.45
  0
TEXT
  5
156
330
17
100
AcDbEntity
  8
LED-REF
100
AcDbText
 10
31.3515
 20
262.4392
 30
0.0
 40
1.1
  1
LED46
 50
354.375
 72
1
 11
31.3515
 21
262.4392
 31
0.0
100
AcDbText
 73
2
  0
LWPOLYLINE
  5
157
330
17
100
AcDbEntity
  8
LED
100
AcDbPolyline
 90
5
 70
0
 10
59.619252986301326
 20
256.27993035327427
 10
64.55246964672573
 20
255.4654529863013
 10
65.36694701369866
 20
260.3986696467257
 10
60.43373035327427
 20
261.21314701369863
 10
59.619252986301326
 20
256.27993035327427
  0
CIRCLE
  5
158
330
17
100
AcDbEntity
  8
LED
100
AcDbCircle
 10
64.64974340617661
 20
256.36157675884743
 30
0.0
 40
0.45
  0
TEXT
  5
159
330
17
100
AcDbEntity
  8
LED-REF
100
AcDbText
 10
62.4931
 20
258.3393
 30
0.0
 40
1.1
  1
LED47
 50
350.625
 72
1
 11
62.4931
 21
258.3393
 31
0.0
100
AcDbText
 73
2
  0
LWPOLYLINE
  5
15A
330
17
100
AcDbEntity
  8
LED
100
AcDbPolyline
 90
5
 70
0
 10
90.29751689422072
 20
250.3444982093926
 10
95.1669017906074
 20
249.20911689422073
 10
96.30228310577927
 20
254.0785017906074
 10
91.43289820939259
 20
255.21388310577927
 10
90.29751689422072
 20
250.3444982093926
  0
CIRCLE
  5
15B
330
17
100
AcDbEntity
  8
LED
100
AcDbCircle
 10
95.32257657837447
 20
250.09695998872206
 30
0.0
 40
0.45
  0
TEXT
  5
15C
330
17
100
AcDbEntity
  8
LED-REF
100
AcDbText
 10
93.2999
 20
252.2115
 30
0.0
 40
1.1
  1
LED48
 50
346.875
 72
1
 11
93.2999
 21
252.2115
 31
0.0
100
AcDbText
 73
2
  0
LWPOLYLINE
  5
15D
330
17
100
AcDbEntity
  8
LED
100
AcDbPolyline
 90
5
 70
0
 10
120.52183746753332
 20
242.41526085380562
 10
125.30653914619437
 20
240.96383746753332
 10
126.75796253246668
 20
245.74853914619436
 10
121.97326085380563
 20
247.19996253246666
 10
120.52183746753332
 20
242.41526085380562
  0
CIRCLE
  5
15E
330
17
100
AcDbEntity
  8
LED
100
AcDbCircle
 10
125.51994833893677
 20
241.839598003555
 30
0.0
 40
0.45
  0
TEXT
  5
15F
330
17
100
AcDbEntity
  8
LED-REF
100
AcDbText
 10
123.6399
 20
244.0819
 30
0.0
 40
1.1
  1
LED49
 50
343.125
 72
1
 11
123.6399
 21
244.0819
 31
0.0
100
AcDbText
 73
2
  0
LWPOLYLINE
  5
160
330
17
100
AcDbEntity
  8
LED
100
AcDbPolyline
 90
5
 70
0
 10
100.37329642062078
 20
25.76973987171578
 10
104.85766012828421
 20
23.558296420620774
 10
107.06910357937922
 20
28.042660128284215
 10
102.58473987171578
 20
30.254103579379223
 10
100.37329642062078
 20
25.76973987171578
  0
CIRCLE
  5
161
330
17
100
AcDbEntity
  8
LED
100
AcDbCircle
 10
105.21087631240468
 20
24.387596322511143
 30
0.0
 40
0.45
  0
TEXT
  5
162
330
17
100
AcDbEntity
  8
LED-REF
100
AcDbText
 10
103.7212
 20
26.9062
 30
0.0
 40
1.1
  1
LED5
 50
333.75
 72
1
 11
103.7212
 21
26.9062
 31
0.0
100
AcDbText
 73
2
  0
LWPOLYLINE
  5
163
330
17
100
AcDbEntity
  8
LED
100
AcDbPolyline
 90
5
 70
0
 10
150.1629100633036
 20
232.52626030290978
 10
154.8424396970902
 20
230.7650100633036
 10
156.60368993669638
 20
235.44453969709022
 10
151.92416030290977
 20
237.2057899366964
 10
150.1629100633036
 20
232.52626030290978
  0
CIRCLE
  5
164
330
17
100
AcDbEntity
  8
LED
100
AcDbCircle
 10
155.11266944388146
 20
231.62493789978126
 30
0.0
 40
0.45
  0
TEXT
  5
165
330
17
100
AcDbEntity
  8
LED-REF
100
AcDbText
 10
153.3833
 20
233.9854
 30
0.0
 40
1.1
  1
LED50
 50
339.375
 72
1
 11
153.3833
 21
233.9854
 31
0.0
100
AcDbText
 73
2
  0
LWPOLYLINE
  5
166
330
17
100
AcDbEntity
  8
LED
100
AcDbPolyline
 90
5
 70
0
 10
179.09367286318607
 20
220.71980801220806
 10
183.64799198779195
 20
218.65627286318608
 10
185.71152713681394
 20
223.21059198779196
 10
181.15720801220806
 20
225.27412713681395
 10
179.09367286318607
 20
220.71980801220806
  0
CIRCLE
  5
167
330
17
100
AcDbEntity
  8
LED
100
AcDbCircle
 10
183.97388512336985
 20
219.49668565710536
 30
0.0
 40
0.45
  0
TEXT
  5
168
330
17
100
AcDbEntity
  8
LED-REF
100
AcDbText
 10
182.4026
 20
221.9652
 30
0.0
 40
1.1
  1
LED51
 50
335.625
 72
1
 11
182.4026
 21
221.9652
 31
0.0
100
AcDbText
 73
2
  0
LWPOLYLINE
  5
169
330
17
100
AcDbEntity
  8
LED
100
AcDbPolyline
 90
5
 70
0
 10
207.19040499706412
 20
207.04638868119412
 10
211.60001131880588
 20
204.68940499706412
 10
213.95699500293588
 20
209.09901131880588
 10
209.54738868119412
 20
211.45599500293588
 10
207.19040499706412
 20
207.04638868119412
  0
CIRCLE
  5
16A
330
17
100
AcDbEntity
  8
LED
100
AcDbCircle
 10
211.9801723187319
 20
205.50670397181892
 30
0.0
 40
0.45
  0
TEXT
  5
16B
330
17
100
AcDbEntity
  8
LED-REF
100
AcDbText
 10
210.5737
 20
208.0727
 30
0.0
 40
1.1
  1
LED52
 50
331.875
 72
1
 11
210.5737
 21
208.0727
 31
0.0
100
AcDbText
 73
2
  0
LWPOLYLINE
  5
16C
330
17
100
AcDbEntity
  8
LED
100
AcDbPolyline
 90
5
 70
0
 10
221.3323049970641
 20
233.5040886811941
 10
225.74191131880588
 20
231.1471049970641
 10
228.09889500293588
 20
235.55671131880587
 10
223.6892886811941
 20
237.91369500293587
 10
221.3323049970641
 20
233.5040886811941
  0
CIRCLE
  5
16D
330
17
100
AcDbEntity
  8
LED
100
AcDbCircle
 10
226.12207231873188
 20
231.9644039718189
 30
0.0
 40
0.45
  0
TEXT
  5
16E
330
17
100
AcDbEntity
  8
LED-REF
100
AcDbText
 10
224.7156
 20
234.5304
 30
0.0
 40
1.1
  1
LED53
 50
331.875
 72
1
 11
224.7156
 21
234.5304
 31
0.0
100
AcDbText
 73
2
  0
LWPOLYLINE
  5
16F
330
17
100
AcDbEntity
  8
LED
100
AcDbPolyline
 90
5
 70
0
 10
191.47487286318608
 20
248.04570801220805
 10
196.02919198779196
 20
245.98217286318607
 10
198.09272713681395
 20
250.53649198779195
 10
193.53840801220807
 20
252.60002713681394
 10
191.47487286318608
 20
248.04570801220805
  0
CIRCLE
  5
170
330
17
100
AcDbEntity
  8
LED
100
AcDbCircle
 10
196.35508512336986
 20
246.82258565710535
 30
0.0
 40
0.45
  0
TEXT
  5
171
330
17
100
AcDbEntity
  8
LED-REF
100
AcDbText
 10
194.7838
 20
249.2911
 30
0.0
 40
1.1
  1
LED54
 50
335.625
 72
1
 11
194.7838
 21
249.2911
 31
0.0
100
AcDbText
 73
2
  0
LWPOLYLINE
  5
172
330
17
100
AcDbEntity
  8
LED
100
AcDbPolyline
 90
5
 70
0
 10
160.7304100633036
 20
260.60346030290975
 10
165.4099396970902
 20
258.8422100633036
 10
167.17118993669638
 20
263.5217396970902
 10
162.49166030290976
 20
265.28298993669637
 10
160.7304100633036
 20
260.60346030290975
  0
CIRCLE
  5
173
330
17
100
AcDbEntity
  8
LED
100
AcDbCircle
 10
165.68016944388145
 20
259.70213789978123
 30
0.0
 40
0.45
  0
TEXT
  5
174
330
17
100
AcDbEntity
  8
LED-REF
100
AcDbText
 10
163.9508
 20
262.0626
 30
0.0
 40
1.1
  1
LED55
 50
339.375
 72
1
 11
163.9508
 21
262.0626
 31
0.0
100
AcDbText
 73
2
  0
LWPOLYLINE
  5
175
330
17
100
AcDbEntity
  8
LED
100
AcDbPolyline
 90
5
 70
0
 10
129.23033746753333
 20
271.1234608538056
 10
134.01503914619437
 20
269.6720374675333
 10
135.46646253246666
 20
274.45673914619437
 10
130.68176085380563
 20
275.9081625324667
 10
129.23033746753333
 20
271.1234608538056
  0
CIRCLE
  5
176
330
17
100
AcDbEntity
  8
LED
100
AcDbCircle
 10
134.22844833893677
 20
270.54779800355504
 30
0.0
 40
0.45
  0
TEXT
  5
177
330
17
100
AcDbEntity
  8
LED-REF
100
AcDbText
 10
132.3484
 20
272.7901
 30
0.0
 40
1.1
  1
LED56
 50
343.125
 72
1
 11
132.3484
 21
272.7901
 31
0.0
100
AcDbText
 73
2
  0
LWPOLYLINE
  5
178
330
17
100
AcDbEntity
  8
LED
100
AcDbPolyline
 90
5
 70
0
 10
97.10971689422072
 20
279.5607982093926
 10
101.9791017906074
 20
278.42541689422075
 10
103.11448310577927
 20
283.2948017906074
 10
98.2450982093926
 20
284.43018310577924
 10
97.10971689422072
 20
279.5607982093926
  0
CIRCLE
  5
179
330
17
100
AcDbEntity
  8
LED
100
AcDbCircle
 10
102.13477657837447
 20
279.31325998872205
 30
0.0
 40
0.45
  0
TEXT
  5
17A
330
17
100
AcDbEntity
  8
LED-REF
100
AcDbText
 10
100.1121
 20
281.4278
 30
0.0
 40
1.1
  1
LED57
 50
346.875
 72
1
 11
100.1121
 21
281.4278
 31
0.0
100
AcDbText
 73
2
  0
LWPOLYLINE
  5
17B
330
17
100
AcDbEntity
  8
LED
100
AcDbPolyline
 90
5
 70
0
 10
64.50605298630134
 20
285.8792303532743
 10
69.43926964672573
 20
285.06475298630136
 10
70.25374701369867
 20
289.9979696467257
 10
65.32053035327428
 20
290.81244701369866
 10
64.50605298630134
 20
285.8792303532743
  0
CIRCLE
  5
17C
330
17
100
AcDbEntity
  8
LED
100
AcDbCircle
 10
69.53654340617662
 20
285.96087675884746
 30
0.0
 40
0.45
  0
TEXT
  5
17D
330
17
100
AcDbEntity
  8
LED-REF
100
AcDbText
 10
67.3799
 20
287.9386
 30
0.0
 40
1.1
  1
LED58
 50
350.625
 72
1
 11
67.3799
 21
287.9386
 31
0.0
100
AcDbText
 73
2
  0
LWPOLYLINE
  5
17E
330
17
100
AcDbEntity
  8
LED
100
AcDbPolyline
 90
5
 70
0
 10
31.55899533249561
 20
290.05188103414343
 10
36.53491896585659
 20
289.5617953324956
 10
37.0250046675044
 20
294.5377189658566
 10
32.04908103414341
 20
295.0278046675044
 10
31.55899533249561
 20
290.05188103414343
  0
CIRCLE
  5
17F
330
17
100
AcDbEntity
  8
LED
100
AcDbCircle
 10
36.57337515581959
 20
290.46236244351707
 30
0.0
 40
0.45
  0
TEXT
  5
180
330
17
100
AcDbEntity
  8
LED-REF
100
AcDbText
 10
34.292
 20
292.2948
 30
0.0
 40
1.1
  1
LED59
 50
354.375
 72
1
 11
34.292
 21
292.2948
 31
0.0
100
AcDbText
 73
2
  0
LWPOLYLINE
  5
181
330
17
100
AcDbEntity
  8
LED
100
AcDbPolyline
 90
5
 70
0
 10
67.92097601300432
 20
38.85797333952014
 10
72.65562666047985
 20
37.250776013004334
 10
74.26282398699567
 20
41.98542666047986
 10
69.52817333952014
 20
43.59262398699567
 10
67.92097601300432
 20
38.85797333952014
  0
CIRCLE
  5
182
330
17
100
AcDbEntity
  8
LED
100
AcDbCircle
 10
72.89757567277795
 20
38.119085102815085
 30
0.0
 40
0.45
  0
TEXT
  5
183
330
17
100
AcDbEntity
  8
LED-REF
100
AcDbText
 10
71.0919
 20
40.4217
 30
0.0
 40
1.1
  1
LED6
 50
341.25
 72
1
 11
71.0919
 21
40.4217
 31
0.0
100
AcDbText
 73
2
  0
LWPOLYLINE
  5
184
330
17
100
AcDbEntity
  8
LED
100
AcDbPolyline
 90
5
 70
0
 10
-1.590459175745356
 20
292.06063623836354
 10
3.4068637616364725
 20
291.89704082425465
 10
3.5704591757453557
 20
296.8943637616365
 10
-1.4268637616364728
 20
297.0579591757454
 10
-1.590459175745356
 20
292.06063623836354
  0
CIRCLE
  5
185
330
17
100
AcDbEntity
  8
LED
100
AcDbCircle
 10
3.3863377068022533
 20
292.79819490712447
 30
0.0
 40
0.45
  0
TEXT
  5
186
330
17
100
AcDbEntity
  8
LED-REF
100
AcDbText
 10
0.99
 20
294.4775
 30
0.0
 40
1.1
  1
LED60
 50
358.125
 72
1
 11
0.99
 21
294.4775
 31
0.0
100
AcDbText
 73
2
  0
LWPOLYLINE
  5
187
330
17
100
AcDbEntity
  8
LED
100
AcDbPolyline
 90
5
 70
0
 10
-2.5626682872570923
 20
322.0958843829709
 10
2.435215617029157
 20
321.95043171274295
 10
2.580668287257092
 20
326.94831561702915
 10
-2.417215617029157
 20
327.0937682872571
 10
-2.5626682872570923
 20
322.0958843829709
  0
CIRCLE
  5
188
330
17
100
AcDbEntity
  8
LED
100
AcDbCircle
 10
2.411418258627323
 20
322.85150534221674
 30
0.0
 40
0.45
  0
TEXT
  5
189
330
17
100
AcDbEntity
  8
LED-REF
100
AcDbText
 10
0.009
 20
324.5221
 30
0.0
 40
1.1
  1
LED61
 50
358.333
 72
1
 11
0.009
 21
324.5221
 31
0.0
100
AcDbText
 73
2
  0
LWPOLYLINE
  5
18A
330
17
100
AcDbEntity
  8
LED
100
AcDbPolyline
 90
5
 70
0
 10
28.65902389790149
 20
320.42310261163976
 10
33.639997388360214
 20
319.9873238979015
 10
34.07577610209851
 20
324.9682973883602
 10
29.094802611639782
 20
325.4040761020985
 10
28.65902389790149
 20
320.42310261163976
  0
CIRCLE
  5
18B
330
17
100
AcDbEntity
  8
LED
100
AcDbCircle
 10
33.668627821928524
 20
320.8882569133214
 30
0.0
 40
0.45
  0
TEXT
  5
18C
330
17
100
AcDbEntity
  8
LED-REF
100
AcDbText
 10
31.3674
 20
322.6957
 30
0.0
 40
1.1
  1
LED62
 50
355.0
 72
1
 11
31.3674
 21
322.6957
 31
0.0
100
AcDbText
 73
2
  0
LWPOLYLINE
  5
18D
330
17
100
AcDbEntity
  8
LED
100
AcDbPolyline
 90
5
 70
0
 10
59.73057853822436
 20
316.93770905305774
 10
64.67779094694225
 20
316.21307853822435
 10
65.40242146177565
 20
321.1602909469422
 10
60.45520905305774
 20
321.8849214617756
 10
59.73057853822436
 20
316.93770905305774
  0
CIRCLE
  5
18E
330
17
100
AcDbEntity
  8
LED
100
AcDbCircle
 10
64.75875231552509
 20
317.11082307694187
 30
0.0
 40
0.45
  0
TEXT
  5
18F
330
17
100
AcDbEntity
  8
LED-REF
100
AcDbText
 10
62.5665
 20
319.049
 30
0.0
 40
1.1
  1
LED63
 50
351.667
 72
1
 11
62.5665
 21
319.049
 31
0.0
100
AcDbText
 73
2
  0
LWPOLYLINE
  5
190
330
17
100
AcDbEntity
  8
LED
100
AcDbPolyline
 90
5
 70
0
 10
90.54679321200942
 20
311.6517095615164
 10
95.44349043848358
 20
310.64059321200943
 10
96.45460678799057
 20
315.5372904384836
 10
91.55790956151641
 20
316.54840678799053
 10
90.54679321200942
 20
311.6517095615164
  0
CIRCLE
  5
191
330
17
100
AcDbEntity
  8
LED
100
AcDbCircle
 10
95.57652440913009
 20
311.5321098762698
 30
0.0
 40
0.45
  0
TEXT
  5
192
330
17
100
AcDbEntity
  8
LED-REF
100
AcDbText
 10
93.5007
 20
313.5945
 30
0.0
 40
1.1
  1
LED64
 50
348.333
 72
1
 11
93.5007
 21
313.5945
 31
0.0
100
AcDbText
 73
2
  0
LWPOLYLINE
  5
193
330
17
100
AcDbEntity
  8
LED
100
AcDbPolyline
 90
5
 70
0
 10
121.00363782152102
 20
304.5827330470336
 10
125.83326695296637
 20
303.28863782152104
 10
127.12736217847898
 20
308.1182669529664
 10
122.29773304703363
 20
309.412362178479
 10
121.00363782152102
 20
304.5827330470336
  0
CIRCLE
  5
194
330
17
100
AcDbEntity
  8
LED
100
AcDbCircle
 10
126.01790780224418
 20
304.1709120174363
 30
0.0
 40
0.45
  0
TEXT
  5
195
330
17
100
AcDbEntity
  8
LED-REF
100
AcDbText
 10
124.0655
 20
306.3505
 30
0.0
 40
1.1
  1
LED65
 50
345.0
 72
1
 11
124.0655
 21
306.3505
 31
0.0
100
AcDbText
 73
2
  0
LWPOLYLINE
  5
196
330
17
100
AcDbEntity
  8
LED
100
AcDbPolyline
 90
5
 70
0
 10
150.99794073204842
 20
295.7548369004307
 10
155.74416309956933
 20
294.1821407320485
 10
157.31685926795157
 20
298.92836309956937
 10
152.57063690043066
 20
300.5010592679516
 10
150.99794073204842
 20
295.7548369004307
  0
CIRCLE
  5
197
330
17
100
AcDbEntity
  8
LED
100
AcDbCircle
 10
155.97978618620292
 20
295.05218771988604
 30
0.0
 40
0.45
  0
TEXT
  5
198
330
17
100
AcDbEntity
  8
LED-REF
100
AcDbText
 10
154.1574
 20
297.3416
 30
0.0
 40
1.1
  1
LED66
 50
341.66700000000003
 72
1
 11
154.1574
 21
297.3416
 31
0.0
100
AcDbText
 73
2
  0
LWPOLYLINE
  5
199
330
17
100
AcDbEntity
  8
LED
100
AcDbPolyline
 90
5
 70
0
 10
180.4282076742801
 20
285.19786544443593
 10
185.07493455556408
 20
283.3518076742801
 10
186.9209923257199
 20
287.9985345555641
 10
182.2742654444359
 20
289.84459232571993
 10
180.4282076742801
 20
285.19786544443593
  0
CIRCLE
  5
19A
330
17
100
AcDbEntity
  8
LED
100
AcDbCircle
 10
185.3607576853793
 20
284.2066790906128
 30
0.0
 40
0.45
  0
TEXT
  5
19B
330
17
100
AcDbEntity
  8
LED-REF
100
AcDbText
 10
183.6746
 20
286.5982
 30
0.0
 40
1.1
  1
LED67
 50
338.33299999999997
 72
1
 11
183.6746
 21
286.5982
 31
0.0
100
AcDbText
 73
2
  0
LWPOLYLINE
  5
19C
330
17
100
AcDbEntity
  8
LED
100
AcDbPolyline
 90
5
 70
0
 10
209.19478487805662
 20
272.9474761867601
 10
213.72632381323987
 20
270.83438487805665
 10
215.83941512194338
 20
275.3659238132399
 10
211.30787618676013
 20
277.47901512194335
 10
209.19478487805662
 20
272.9474761867601
  0
CIRCLE
  5
19D
330
17
100
AcDbEntity
  8
LED
100
AcDbCircle
 10
214.06136485945467
 20
271.67119279947667
 30
0.0
 40
0.45
  0
TEXT
  5
19E
330
17
100
AcDbEntity
  8
LED-REF
100
AcDbText
 10
212.5171
 20
274.1567
 30
0.0
 40
1.1
  1
LED68
 50
335.0
 72
1
 11
212.5171
 21
274.1567
 31
0.0
100
AcDbText
 73
2
  0
LWPOLYLINE
  5
19F
330
17
100
AcDbEntity
  8
LED
100
AcDbPolyline
 90
5
 70
0
 10
237.20040149696567
 20
259.04527774164313
 10
241.60142225835688
 20
256.6723014969657
 10
243.97439850303434
 20
261.0733222583569
 10
239.57337774164313
 20
263.4462985030343
 10
237.20040149696567
 20
259.04527774164313
  0
CIRCLE
  5
1A0
330
17
100
AcDbEntity
  8
LED
100
AcDbCircle
 10
241.98454777478491
 20
257.4882149964629
 30
0.0
 40
0.45
  0
TEXT
  5
1A1
330
17
100
AcDbEntity
  8
LED-REF
100
AcDbText
 10
240.5874
 20
260.0593
 30
0.0
 40
1.1
  1
LED69
 50
331.66700000000003
 72
1
 11
240.5874
 21
260.0593
 31
0.0
100
AcDbText
 73
2
  0
LWPOLYLINE
  5
1A2
330
17
100
AcDbEntity
  8
LED
100
AcDbPolyline
 90
5
 70
0
 10
34.037910993951606
 20
47.598362604032246
 10
38.94183739596776
 20
46.622910993951606
 10
39.9172890060484
 20
51.52683739596776
 10
35.013362604032245
 20
52.5022890060484
 10
34.037910993951606
 20
47.598362604032246
  0
CIRCLE
  5
1A3
330
17
100
AcDbEntity
  8
LED
100
AcDbCircle
 10
39.06837942176211
 20
47.51537226241532
 30
0.0
 40
0.45
  0
TEXT
  5
1A4
330
17
100
AcDbEntity
  8
LED-REF
100
AcDbText
 10
36.9776
 20
49.5626
 30
0.0
 40
1.1
  1
LED7
 50
348.75
 72
1
 11
36.9776
 21
49.5626
 31
0.0
100
AcDbText
 73
2
  0
LWPOLYLINE
  5
1A5
330
17
100
AcDbEntity
  8
LED
100
AcDbPolyline
 90
5
 70
0
 10
251.43850149696567
 20
285.45127774164314
 10
255.83952225835688
 20
283.0783014969657
 10
258.21249850303434
 20
287.4793222583569
 10
253.81147774164313
 20
289.8522985030343
 10
251.43850149696567
 20
285.45127774164314
  0
CIRCLE
  5
1A6
330
17
100
AcDbEntity
  8
LED
100
AcDbCircle
 10
256.22264777478495
 20
283.8942149964629
 30
0.0
 40
0.45
  0
TEXT
  5
1A7
330
17
100
AcDbEntity
  8
LED-REF
100
AcDbText
 10
254.8255
 20
286.4653
 30
0.0
 40
1.1
  1
LED70
 50
331.66700000000003
 72
1
 11
254.8255
 21
286.4653
 31
0.0
100
AcDbText
 73
2
  0
LWPOLYLINE
  5
1A8
330
17
100
AcDbEntity
  8
LED
100
AcDbPolyline
 90
5
 70
0
 10
221.8733848780566
 20
300.13677618676013
 10
226.40492381323986
 20
298.02368487805666
 10
228.51801512194336
 20
302.5552238132399
 10
223.98647618676011
 20
304.66831512194335
 10
221.8733848780566
 20
300.13677618676013
  0
CIRCLE
  5
1A9
330
17
100
AcDbEntity
  8
LED
100
AcDbCircle
 10
226.73996485945466
 20
298.8604927994767
 30
0.0
 40
0.45
  0
TEXT
  5
1AA
330
17
100
AcDbEntity
  8
LED-REF
100
AcDbText
 10
225.1957
 20
301.346
 30
0.0
 40
1.1
  1
LED71
 50
335.0
 72
1
 11
225.1957
 21
301.346
 31
0.0
100
AcDbText
 73
2
  0
LWPOLYLINE
  5
1AB
330
17
100
AcDbEntity
  8
LED
100
AcDbPolyline
 90
5
 70
0
 10
191.5044076742801
 20
313.0782654444359
 10
196.15113455556408
 20
311.23220767428006
 10
197.9971923257199
 20
315.87893455556406
 10
193.3504654444359
 20
317.7249923257199
 10
191.5044076742801
 20
313.0782654444359
  0
CIRCLE
  5
1AC
330
17
100
AcDbEntity
  8
LED
100
AcDbCircle
 10
196.4369576853793
 20
312.08707909061275
 30
0.0
 40
0.45
  0
TEXT
  5
1AD
330
17
100
AcDbEntity
  8
LED-REF
100
AcDbText
 10
194.7508
 20
314.4786
 30
0.0
 40
1.1
  1
LED72
 50
338.33299999999997
 72
1
 11
194.7508
 21
314.4786
 31
0.0
100
AcDbText
 73
2
  0
LWPOLYLINE
  5
1AE
330
17
100
AcDbEntity
  8
LED
100
AcDbPolyline
 90
5
 70
0
 10
160.4343407320484
 20
324.23203690043067
 10
165.18056309956933
 20
322.65934073204846
 10
166.75325926795156
 20
327.40556309956935
 10
162.00703690043065
 20
328.97825926795156
 10
160.4343407320484
 20
324.23203690043067
  0
CIRCLE
  5
1AF
330
17
100
AcDbEntity
  8
LED
100
AcDbCircle
 10
165.4161861862029
 20
323.529387719886
 30
0.0
 40
0.45
  0
TEXT
  5
1B0
330
17
100
AcDbEntity
  8
LED-REF
100
AcDbText
 10
163.5938
 20
325.8188
 30
0.0
 40
1.1
  1
LED73
 50
341.66700000000003
 72
1
 11
163.5938
 21
325.8188
 31
0.0
100
AcDbText
 73
2
  0
LWPOLYLINE
  5
1B1
330
17
100
AcDbEntity
  8
LED
100
AcDbPolyline
 90
5
 70
0
 10
128.768237821521
 20
333.56053304703363
 10
133.59786695296634
 20
332.26643782152104
 10
134.89196217847896
 20
337.0960669529664
 10
130.06233304703363
 20
338.390162178479
 10
128.768237821521
 20
333.56053304703363
  0
CIRCLE
  5
1B2
330
17
100
AcDbEntity
  8
LED
100
AcDbCircle
 10
133.78250780224417
 20
333.1487120174363
 30
0.0
 40
0.45
  0
TEXT
  5
1B3
330
17
100
AcDbEntity
  8
LED-REF
100
AcDbText
 10
131.8301
 20
335.3283
 30
0.0
 40
1.1
  1
LED74
 50
345.0
 72
1
 11
131.8301
 21
335.3283
 31
0.0
100
AcDbText
 73
2
  0
LWPOLYLINE
  5
1B4
330
17
100
AcDbEntity
  8
LED
100
AcDbPolyline
 90
5
 70
0
 10
96.61339321200943
 20
341.0319095615164
 10
101.51009043848359
 20
340.02079321200944
 10
102.52120678799058
 20
344.9174904384836
 10
97.62450956151642
 20
345.92860678799053
 10
96.61339321200943
 20
341.0319095615164
  0
CIRCLE
  5
1B5
330
17
100
AcDbEntity
  8
LED
100
AcDbCircle
 10
101.6431244091301
 20
340.91230987626983
 30
0.0
 40
0.45
  0
TEXT
  5
1B6
330
17
100
AcDbEntity
  8
LED-REF
100
AcDbText
 10
99.5673
 20
342.9747
 30
0.0
 40
1.1
  1
LED75
 50
348.333
 72
1
 11
99.5673
 21
342.9747
 31
0.0
100
AcDbText
 73
2
  0
LWPOLYLINE
  5
1B7
330
17
100
AcDbEntity
  8
LED
100
AcDbPolyline
 90
5
 70
0
 10
64.07847853822436
 20
346.6210090530578
 10
69.02569094694225
 20
345.8963785382244
 10
69.75032146177564
 20
350.84359094694224
 10
64.80310905305775
 20
351.56822146177564
 10
64.07847853822436
 20
346.6210090530578
  0
CIRCLE
  5
1B8
330
17
100
AcDbEntity
  8
LED
100
AcDbCircle
 10
69.10665231552508
 20
346.7941230769419
 30
0.0
 40
0.45
  0
TEXT
  5
1B9
330
17
100
AcDbEntity
  8
LED-REF
100
AcDbText
 10
66.9144
 20
348.7323
 30
0.0
 40
1.1
  1
LED76
 50
351.667
 72
1
 11
66.9144
 21
348.7323
 31
0.0
100
AcDbText
 73
2
  0
LWPOLYLINE
  5
1BA
330
17
100
AcDbEntity
  8
LED
100
AcDbPolyline
 90
5
 70
0
 10
31.27362389790149
 20
350.3089026116398
 10
36.25459738836022
 20
349.8731238979015
 10
36.69037610209851
 20
354.85409738836023
 10
31.70940261163978
 20
355.2898761020985
 10
31.27362389790149
 20
350.3089026116398
  0
CIRCLE
  5
1BB
330
17
100
AcDbEntity
  8
LED
100
AcDbCircle
 10
36.28322782192852
 20
350.77405691332143
 30
0.0
 40
0.45
  0
TEXT
  5
1BC
330
17
100
AcDbEntity
  8
LED-REF
100
AcDbText
 10
33.982
 20
352.5815
 30
0.0
 40
1.1
  1
LED77
 50
355.0
 72
1
 11
33.982
 21
352.5815
 31
0.0
100
AcDbText
 73
2
  0
LWPOLYLINE
  5
1BD
330
17
100
AcDbEntity
  8
LED
100
AcDbPolyline
 90
5
 70
0
 10
-1.6901682872570922
 20
352.0831843829709
 10
3.307715617029157
 20
351.93773171274296
 10
3.453168287257092
 20
356.93561561702916
 10
-1.5447156170291572
 20
357.0810682872571
 10
-1.6901682872570922
 20
352.0831843829709
  0
CIRCLE
  5
1BE
330
17
100
AcDbEntity
  8
LED
100
AcDbCircle
 10
3.283918258627323
 20
352.83880534221674
 30
0.0
 40
0.45
  0
TEXT
  5
1BF
330
17
100
AcDbEntity
  8
LED-REF
100
AcDbText
 10
0.8815
 20
354.5094
 30
0.0
 40
1.1
  1
LED78
 50
358.333
 72
1
 11
0.8815
 21
354.5094
 31
0.0
100
AcDbText
 73
2
  0
LWPOLYLINE
  5
1C0
330
17
100
AcDbEntity
  8
LED
100
AcDbPolyline
 90
5
 70
0
 10
-2.555185683208577
 20
382.1111990583308
 10
2.443100941669209
 20
381.9803143167914
 10
2.573985683208577
 20
386.9786009416692
 10
-2.4243009416692094
 20
387.10948568320856
 10
-2.555185683208577
 20
382.1111990583308
  0
CIRCLE
  5
1C1
330
17
100
AcDbEntity
  8
LED
100
AcDbCircle
 10
2.4166773288975176
 20
382.8813147566848
 30
0.0
 40
0.45
  0
TEXT
  5
1C2
330
17
100
AcDbEntity
  8
LED-REF
100
AcDbText
 10
0.0094
 20
384.5449
 30
0.0
 40
1.1
  1
LED79
 50
358.5
 72
1
 11
0.0094
 21
384.5449
 31
0.0
100
AcDbText
 73
2
  0
LWPOLYLINE
  5
1C3
330
17
100
AcDbEntity
  8
LED
100
AcDbPolyline
 90
5
 70
0
 10
-0.6960551311718657
 20
51.841360514978845
 10
4.293239485021152
 20
51.51434486882813
 10
4.620255131171866
 20
56.503639485021154
 10
-0.369039485021152
 20
56.830655131171866
 10
-0.6960551311718657
 20
51.841360514978845
  0
CIRCLE
  5
1C4
330
17
100
AcDbEntity
  8
LED
100
AcDbCircle
 10
4.302209355166351
 20
52.41568805620438
 30
0.0
 40
0.45
  0
TEXT
  5
1C5
330
17
100
AcDbEntity
  8
LED-REF
100
AcDbText
 10
1.9621
 20
54.1725
 30
0.0
 40
1.1
  1
LED8
 50
356.25
 72
1
 11
1.9621
 21
54.1725
 31
0.0
100
AcDbText
 73
2
  0
LWPOLYLINE
  5
1C6
330
17
100
AcDbEntity
  8
LED
100
AcDbPolyline
 90
5
 70
0
 10
28.690258926347568
 20
380.60475440498675
 10
33.67484559501321
 20
380.21245892634755
 10
34.06714107365243
 20
385.1970455950132
 10
29.08255440498679
 20
385.5893410736524
 10
28.690258926347568
 20
380.60475440498675
  0
CIRCLE
  5
1C7
330
17
100
AcDbEntity
  8
LED
100
AcDbCircle
 10
33.69561291448161
 20
381.1136074814938
 30
0.0
 40
0.45
  0
TEXT
  5
1C8
330
17
100
AcDbEntity
  8
LED-REF
100
AcDbText
 10
31.3787
 20
382.9009
 30
0.0
 40
1.1
  1
LED80
 50
355.5
 72
1
 11
31.3787
 21
382.9009
 31
0.0
100
AcDbText
 73
2
  0
LWPOLYLINE
  5
1C9
330
17
100
AcDbEntity
  8
LED
100
AcDbPolyline
 90
5
 70
0
 10
59.814072366015345
 20
377.4652033271156
 10
64.7712966728844
 20
376.81257236601533
 10
65.42392763398466
 20
381.7697966728844
 10
60.4667033271156
 20
382.4224276339847
 10
59.814072366015345
 20
377.4652033271156
  0
CIRCLE
  5
1CA
330
17
100
AcDbEntity
  8
LED
100
AcDbCircle
 10
64.83919800281376
 20
377.7113990508628
 30
0.0
 40
0.45
  0
TEXT
  5
1CB
330
17
100
AcDbEntity
  8
LED-REF
100
AcDbText
 10
62.619
 20
379.6175
 30
0.0
 40
1.1
  1
LED81
 50
352.5
 72
1
 11
62.619
 21
379.6175
 31
0.0
100
AcDbText
 73
2
  0
LWPOLYLINE
  5
1CC
330
17
100
AcDbEntity
  8
LED
100
AcDbPolyline
 90
5
 70
0
 10
90.73087391735974
 20
372.7009515448205
 10
95.64714845517952
 20
371.78977391735975
 10
96.55832608264025
 20
376.70604845517954
 10
91.64205154482048
 20
377.6172260826403
 10
90.73087391735974
 20
372.7009515448205
  0
CIRCLE
  5
1CD
330
17
100
AcDbEntity
  8
LED
100
AcDbCircle
 10
95.76199768274425
 20
372.6838151104419
 30
0.0
 40
0.45
  0
TEXT
  5
1CE
330
17
100
AcDbEntity
  8
LED-REF
100
AcDbText
 10
93.6446
 20
374.7035
 30
0.0
 40
1.1
  1
LED82
 50
349.5
 72
1
 11
93.6446
 21
374.7035
 31
0.0
100
AcDbText
 73
2
  0
LWPOLYLINE
  5
1CF
330
17
100
AcDbEntity
  8
LED
100
AcDbPolyline
 90
5
 70
0
 10
121.35596178936605
 20
366.3251886086456
 10
126.21781139135443
 20
365.1579617893661
 10
127.38503821063397
 20
370.01981139135444
 10
122.52318860864558
 20
371.18703821063394
 10
121.35596178936605
 20
366.3251886086456
  0
CIRCLE
  5
1D0
330
17
100
AcDbEntity
  8
LED
100
AcDbCircle
 10
126.37929372280486
 20
366.04476698591674
 30
0.0
 40
0.45
  0
TEXT
  5
1D1
330
17
100
AcDbEntity
  8
LED-REF
100
AcDbText
 10
124.3705
 20
368.1725
 30
0.0
 40
1.1
  1
LED83
 50
346.5
 72
1
 11
124.3705
 21
368.1725
 31
0.0
100
AcDbText
 73
2
  0
LWPOLYLINE
  5
1D2
330
17
100
AcDbEntity
  8
LED
100
AcDbPolyline
 90
5
 70
0
 10
151.60541230106972
 20
358.35538902458933
 10
156.3995109754107
 20
356.9353123010697
 10
157.8195876989303
 20
361.72941097541064
 10
153.02548902458932
 20
363.1494876989303
 10
151.60541230106972
 20
358.35538902458933
  0
CIRCLE
  5
1D3
330
17
100
AcDbEntity
  8
LED
100
AcDbCircle
 10
156.6071837989008
 20
357.81245082968627
 30
0.0
 40
0.45
  0
TEXT
  5
1D4
330
17
100
AcDbEntity
  8
LED-REF
100
AcDbText
 10
154.7125
 20
360.0424
 30
0.0
 40
1.1
  1
LED84
 50
343.5
 72
1
 11
154.7125
 21
360.0424
 31
0.0
100
AcDbText
 73
2
  0
LWPOLYLINE
  5
1D5
330
17
100
AcDbEntity
  8
LED
100
AcDbPolyline
 90
5
 70
0
 10
181.39627912418513
 20
348.81331342035395
 10
186.10948657964602
 20
347.1442791241851
 10
187.77852087581488
 20
351.85748657964604
 10
183.065313420354
 20
353.52652087581487
 10
181.39627912418513
 20
348.81331342035395
  0
CIRCLE
  5
1D6
330
17
100
AcDbEntity
  8
LED
100
AcDbCircle
 10
186.3627806784018
 20
348.0093468091298
 30
0.0
 40
0.45
  0
TEXT
  5
1D7
330
17
100
AcDbEntity
  8
LED-REF
100
AcDbText
 10
184.5874
 20
350.3354
 30
0.0
 40
1.1
  1
LED85
 50
340.5
 72
1
 11
184.5874
 21
350.3354
 31
0.0
100
AcDbText
 73
2
  0
LWPOLYLINE
  5
1D8
330
17
100
AcDbEntity
  8
LED
100
AcDbPolyline
 90
5
 70
0
 10
210.64689258780905
 20
337.7253097496345
 10
215.26629025036547
 20
335.8118925878091
 10
217.17970741219094
 20
340.4312902503655
 10
212.5603097496345
 20
342.3447074121909
 10
210.64689258780905
 20
337.7253097496345
  0
CIRCLE
  5
1D9
330
17
100
AcDbEntity
  8
LED
100
AcDbCircle
 10
215.5645113628685
 20
336.6625183386875
 30
0.0
 40
0.45
  0
TEXT
  5
1DA
330
17
100
AcDbEntity
  8
LED-REF
100
AcDbText
 10
213.9133
 20
339.0783
 30
0.0
 40
1.1
  1
LED86
 50
337.5
 72
1
 11
213.9133
 21
339.0783
 31
0.0
100
AcDbText
 73
2
  0
LWPOLYLINE
  5
1DB
330
17
100
AcDbEntity
  8
LED
100
AcDbPolyline
 90
5
 70
0
 10
239.27715904710462
 20
325.1215145311461
 10
243.79008546885393
 20
322.9689590471046
 10
245.9426409528954
 20
327.4818854688539
 10
241.4297145311461
 20
329.6344409528954
 10
239.27715904710462
 20
325.1215145311461
  0
CIRCLE
  5
1DC
330
17
100
AcDbEntity
  8
LED
100
AcDbCircle
 10
244.1324161917639
 20
323.80281135785987
 30
0.0
 40
0.45
  0
TEXT
  5
1DD
330
17
100
AcDbEntity
  8
LED-REF
100
AcDbText
 10
242.6099
 20
326.3017
 30
0.0
 40
1.1
  1
LED87
 50
334.5
 72
1
 11
242.6099
 21
326.3017
 31
0.0
100
AcDbText
 73
2
  0
LWPOLYLINE
  5
1DE
330
17
100
AcDbEntity
  8
LED
100
AcDbPolyline
 90
5
 70
0
 10
267.2085603176961
 20
311.0366541189941
 10
271.6026458810059
 20
308.6508603176961
 10
273.9884396823039
 20
313.0449458810059
 10
269.5943541189941
 20
315.4307396823039
 10
267.2085603176961
 20
311.0366541189941
  0
CIRCLE
  5
1DF
330
17
100
AcDbEntity
  8
LED
100
AcDbCircle
 10
271.9881479096064
 20
309.4656536571048
 30
0.0
 40
0.45
  0
TEXT
  5
1E0
330
17
100
AcDbEntity
  8
LED-REF
100
AcDbText
 10
270.5985
 20
312.0408
 30
0.0
 40
1.1
  1
LED88
 50
331.5
 72
1
 11
270.5985
 21
312.0408
 31
0.0
100
AcDbText
 73
2
  0
LWPOLYLINE
  5
1E1
330
17
100
AcDbEntity
  8
LED
100
AcDbPolyline
 90
5
 70
0
 10
281.5233603176961
 20
337.4011541189941
 10
285.9174458810059
 20
335.0153603176961
 10
288.3032396823039
 20
339.4094458810059
 10
283.9091541189941
 20
341.79523968230393
 10
281.5233603176961
 20
337.4011541189941
  0
CIRCLE
  5
1E2
330
17
100
AcDbEntity
  8
LED
100
AcDbCircle
 10
286.3029479096064
 20
335.8301536571048
 30
0.0
 40
0.45
  0
TEXT
  5
1E3
330
17
100
AcDbEntity
  8
LED-REF
100
AcDbText
 10
284.9133
 20
338.4053
 30
0.0
 40
1.1
  1
LED89
 50
331.5
 72
1
 11
284.9133
 21
338.4053
 31
0.0
100
AcDbText
 73
2
  0
LWPOLYLINE
  5
1E4
330
17
100
AcDbEntity
  8
LED
100
AcDbPolyline
 90
5
 70
0
 10
-2.6234137274937956
 20
81.97366605372092
 10
2.3697339462790734
 20
81.71198627250621
 10
2.6314137274937957
 20
86.70513394627908
 10
-2.3617339462790734
 20
86.96681372749379
 10
-2.6234137274937956
 20
81.97366605372092
  0
CIRCLE
  5
1E5
330
17
100
AcDbEntity
  8
LED
100
AcDbCircle
 10
2.3669048301599953
 20
82.61336965159747
 30
0.0
 40
0.45
  0
TEXT
  5
1E6
330
17
100
AcDbEntity
  8
LED-REF
100
AcDbText
 10
0.004
 20
84.3394
 30
0.0
 40
1.1
  1
LED9
 50
357.0
 72
1
 11
0.004
 21
84.3394
 31
0.0
100
AcDbText
 73
2
  0
LWPOLYLINE
  5
1E7
330
17
100
AcDbEntity
  8
LED
100
AcDbPolyline
 90
5
 70
0
 10
252.19245904710462
 20
352.1991145311461
 10
256.70538546885393
 20
350.0465590471046
 10
258.8579409528954
 20
354.5594854688539
 10
254.3450145311461
 20
356.7120409528954
 10
252.19245904710462
 20
352.1991145311461
  0
CIRCLE
  5
1E8
330
17
100
AcDbEntity
  8
LED
100
AcDbCircle
 10
257.0477161917639
 20
350.8804113578599
 30
0.0
 40
0.45
  0
TEXT
  5
1E9
330
17
100
AcDbEntity
  8
LED-REF
100
AcDbText
 10
255.5252
 20
353.3793
 30
0.0
 40
1.1
  1
LED90
 50
334.5
 72
1
 11
255.5252
 21
353.3793
 31
0.0
100
AcDbText
 73
2
  0
LWPOLYLINE
  5
1EA
330
17
100
AcDbEntity
  8
LED
100
AcDbPolyline
 90
5
 70
0
 10
222.12739258780906
 20
365.4416097496345
 10
226.74679025036548
 20
363.5281925878091
 10
228.66020741219094
 20
368.1475902503655
 10
224.04080974963452
 20
370.0610074121909
 10
222.12739258780906
 20
365.4416097496345
  0
CIRCLE
  5
1EB
330
17
100
AcDbEntity
  8
LED
100
AcDbCircle
 10
227.0450113628685
 20
364.3788183386875
 30
0.0
 40
0.45
  0
TEXT
  5
1EC
330
17
100
AcDbEntity
  8
LED-REF
100
AcDbText
 10
225.3938
 20
366.7946
 30
0.0
 40
1.1
  1
LED91
 50
337.5
 72
1
 11
225.3938
 21
366.7946
 31
0.0
100
AcDbText
 73
2
  0
LWPOLYLINE
  5
1ED
330
17
100
AcDbEntity
  8
LED
100
AcDbPolyline
 90
5
 70
0
 10
191.41047912418512
 20
377.092613420354
 10
196.123686579646
 20
375.42357912418515
 10
197.79272087581487
 20
380.13678657964607
 10
193.07951342035398
 20
381.8058208758149
 10
191.41047912418512
 20
377.092613420354
  0
CIRCLE
  5
1EE
330
17
100
AcDbEntity
  8
LED
100
AcDbCircle
 10
196.3769806784018
 20
376.28864680912983
 30
0.0
 40
0.45
  0
TEXT
  5
1EF
330
17
100
AcDbEntity
  8
LED-REF
100
AcDbText
 10
194.6016
 20
378.6147
 30
0.0
 40
1.1
  1
LED92
 50
340.5
 72
1
 11
194.6016
 21
378.6147
 31
0.0
100
AcDbText
 73
2
  0
LWPOLYLINE
  5
1F0
330
17
100
AcDbEntity
  8
LED
100
AcDbPolyline
 90
5
 70
0
 10
160.12581230106971
 20
387.11998902458936
 10
164.9199109754107
 20
385.69991230106973
 10
166.3399876989303
 20
390.4940109754107
 10
161.54588902458931
 20
391.9140876989303
 10
160.12581230106971
 20
387.11998902458936
  0
CIRCLE
  5
1F1
330
17
100
AcDbEntity
  8
LED
100
AcDbCircle
 10
165.1275837989008
 20
386.5770508296863
 30
0.0
 40
0.45
  0
TEXT
  5
1F2
330
17
100
AcDbEntity
  8
LED-REF
100
AcDbText
 10
163.2329
 20
388.807
 30
0.0
 40
1.1
  1
LED93
 50
343.5
 72
1
 11
163.2329
 21
388.807
 31
0.0
100
AcDbText
 73
2
  0
LWPOLYLINE
  5
1F3
330
17
100
AcDbEntity
  8
LED
100
AcDbPolyline
 90
5
 70
0
 10
128.35926178936603
 20
395.49628860864556
 10
133.2211113913544
 20
394.32906178936605
 10
134.38833821063395
 20
399.1909113913544
 10
129.52648860864556
 20
400.3581382106339
 10
128.35926178936603
 20
395.49628860864556
  0
CIRCLE
  5
1F4
330
17
100
AcDbEntity
  8
LED
100
AcDbCircle
 10
133.38259372280484
 20
395.2158669859167
 30
0.0
 40
0.45
  0
TEXT
  5
1F5
330
17
100
AcDbEntity
  8
LED-REF
100
AcDbText
 10
131.3738
 20
397.3436
 30
0.0
 40
1.1
  1
LED94
 50
346.5
 72
1
 11
131.3738
 21
397.3436
 31
0.0
100
AcDbText
 73
2
  0
LWPOLYLINE
  5
1F6
330
17
100
AcDbEntity
  8
LED
100
AcDbPolyline
 90
5
 70
0
 10
96.19787391735974
 20
402.1985515448205
 10
101.11414845517952
 20
401.28737391735973
 10
102.02532608264025
 20
406.2036484551795
 10
97.10905154482047
 20
407.11482608264026
 10
96.19787391735974
 20
402.1985515448205
  0
CIRCLE
  5
1F7
330
17
100
AcDbEntity
  8
LED
100
AcDbCircle
 10
101.22899768274425
 20
402.1814151104419
 30
0.0
 40
0.45
  0
TEXT
  5
1F8
330
17
100
AcDbEntity
  8
LED-REF
100
AcDbText
 10
99.1116
 20
404.2011
 30
0.0
 40
1.1
  1
LED95
 50
349.5
 72
1
 11
99.1116
 21
404.2011
 31
0.0
100
AcDbText
 73
2
  0
LWPOLYLINE
  5
1F9
330
17
100
AcDbEntity
  8
LED
100
AcDbPolyline
 90
5
 70
0
 10
63.72987236601535
 20
407.2085033271156
 10
68.6870966728844
 20
406.5558723660153
 10
69.33972763398467
 20
411.5130966728844
 10
64.38250332711561
 20
412.16572763398466
 10
63.72987236601535
 20
407.2085033271156
  0
CIRCLE
  5
1FA
330
17
100
AcDbEntity
  8
LED
100
AcDbCircle
 10
68.75499800281375
 20
407.45469905086276
 30
0.0
 40
0.45
  0
TEXT
  5
1FB
330
17
100
AcDbEntity
  8
LED-REF
100
AcDbText
 10
66.5348
 20
409.3608
 30
0.0
 40
1.1
  1
LED96
 50
352.5
 72
1
 11
66.5348
 21
409.3608
 31
0.0
100
AcDbText
 73
2
  0
LWPOLYLINE
  5
1FC
330
17
100
AcDbEntity
  8
LED
100
AcDbPolyline
 90
5
 70
0
 10
31.04405892634757
 20
410.51235440498675
 10
36.02864559501321
 20
410.12005892634755
 10
36.420941073652436
 20
415.1046455950132
 10
31.436354404986794
 20
415.4969410736524
 10
31.04405892634757
 20
410.51235440498675
  0
CIRCLE
  5
1FD
330
17
100
AcDbEntity
  8
LED
100
AcDbCircle
 10
36.049412914481614
 20
411.0212074814938
 30
0.0
 40
0.45
  0
TEXT
  5
1FE
330
17
100
AcDbEntity
  8
LED-REF
100
AcDbText
 10
33.7325
 20
412.8085
 30
0.0
 40
1.1
  1
LED97
 50
355.5
 72
1
 11
33.7325
 21
412.8085
 31
0.0
100
AcDbText
 73
2
  0
LWPOLYLINE
  5
1FF
330
17
100
AcDbEntity
  8
LED
100
AcDbPolyline
 90
5
 70
0
 10
-1.769885683208577
 20
412.1009990583308
 10
3.228400941669209
 20
411.9701143167914
 10
3.3592856832085767
 20
416.9684009416692
 10
-1.6390009416692093
 20
417.09928568320856
 10
-1.769885683208577
 20
412.1009990583308
  0
CIRCLE
  5
200
330
17
100
AcDbEntity
  8
LED
100
AcDbCircle
 10
3.2019773288975175
 20
412.8711147566848
 30
0.0
 40
0.45
  0
TEXT
  5
201
330
17
100
AcDbEntity
  8
LED-REF
100
AcDbText
 10
0.7947
 20
414.5347
 30
0.0
 40
1.1
  1
LED98
 50
358.5
 72
1
 11
0.7947
 21
414.5347
 31
0.0
100
AcDbText
 73
2
  0
LWPOLYLINE
  5
202
330
17
100
AcDbEntity
  8
LED
100
AcDbPolyline
 90
5
 70
0
 10
-2.549101715093354
 20
442.1238184969069
 10
2.4494815030931165
 20
442.00479828490666
 10
2.5685017150933542
 20
447.0033815030931
 10
-2.4300815030931164
 20
447.12240171509336
 10
-2.549101715093354
 20
442.1238184969069
  0
CIRCLE
  5
203
330
17
100
AcDbEntity
  8
LED
100
AcDbCircle
 10
2.420919309071295
 20
442.9057334663002
 30
0.0
 40
0.45
  0
TEXT
  5
204
330
17
100
AcDbEntity
  8
LED-REF
100
AcDbText
 10
0.0097
 20
444.5636
 30
0.0
 40
1.1
  1
LED99
 50
358.636
 72
1
 11
0.0097
 21
444.5636
 31
0.0
100
AcDbText
 73
2
  0
CIRCLE
  5
205
330
17
100
AcDbEntity
  8
WAGO
100
AcDbCircle
 10
4.303
 20
44.455
 30
0.0
 40
0.6
  0
CIRCLE
  5
206
330
17
100
AcDbEntity
  8
WAGO
100
AcDbCircle
 10
4.303
 20
44.455
 30
0.0
 40
0.95
  0
CIRCLE
  5
207
330
17
100
AcDbEntity
  8
WAGO
100
AcDbCircle
 10
4.303
 20
40.955
 30
0.0
 40
0.6
  0
CIRCLE
  5
208
330
17
100
AcDbEntity
  8
WAGO
100
AcDbCircle
 10
4.303
 20
40.955
 30
0.0
 40
0.95
  0
CIRCLE
  5
209
330
17
100
AcDbEntity
  8
WAGO
100
AcDbCircle
 10
4.303
 20
37.455
 30
0.0
 40
0.6
  0
CIRCLE
  5
20A
330
17
100
AcDbEntity
  8
WAGO
100
AcDbCircle
 10
4.303
 20
37.455
 30
0.0
 40
0.95
  0
CIRCLE
  5
20B
330
17
100
AcDbEntity
  8
WAGO
100
AcDbCircle
 10
4.303
 20
33.955
 30
0.0
 40
0.6
  0
CIRCLE
  5
20C
330
17
100
AcDbEntity
  8
WAGO
100
AcDbCircle
 10
4.303
 20
33.955
 30
0.0
 40
0.95
  0
CIRCLE
  5
20D
330
17
100
AcDbEntity
  8
WAGO
100
AcDbCircle
 10
9.303
 20
44.455
 30
0.0
 40
0.6
  0
CIRCLE
  5
20E
330
17
100
AcDbEntity
  8
WAGO
100
AcDbCircle
 10
9.303
 20
44.455
 30
0.0
 40
0.95
  0
CIRCLE
  5
20F
330
17
100
AcDbEntity
  8
WAGO
100
AcDbCircle
 10
9.303
 20
40.955
 30
0.0
 40
0.6
  0
CIRCLE
  5
210
330
17
100
AcDbEntity
  8
WAGO
100
AcDbCircle
 10
9.303
 20
40.955
 30
0.0
 40
0.95
  0
CIRCLE
  5
211
330
17
100
AcDbEntity
  8
WAGO
100
AcDbCircle
 10
9.303
 20
37.455
 30
0.0
 40
0.6
  0
CIRCLE
  5
212
330
17
100
AcDbEntity
  8
WAGO
100
AcDbCircle
 10
9.303
 20
37.455
 30
0.0
 40
0.95
  0
CIRCLE
  5
213
330
17
100
AcDbEntity
  8
WAGO
100
AcDbCircle
 10
9.303
 20
33.955
 30
0.0
 40
0.6
  0
CIRCLE
  5
214
330
17
100
AcDbEntity
  8
WAGO
100
AcDbCircle
 10
9.303
 20
33.955
 30
0.0
 40
0.95
  0
LWPOLYLINE
  5
215
330
17
100
AcDbEntity
  8
WAGO
100
AcDbPolyline
 90
5
 70
0
 10
9.102999999999998
 20
31.45499999999999
 10
9.103
 20
46.95499999999999
 10
-3.5970000000000004
 20
46.95499999999999
 10
-3.597000000000002
 20
31.45499999999999
 10
9.102999999999998
 20
31.45499999999999
  0
LINE
  5
216
330
17
100
AcDbEntity
  8
WAGO
100
AcDbLine
 10
-3.5970000000000013
 20
36.20499999999999
 30
0.0
 11
-3.5970000000000013
 21
42.20499999999999
 31
0.0
  0
CIRCLE
  5
217
330
17
100
AcDbEntity
  8
WAGO
100
AcDbCircle
 10
282.436
 20
351.132
 30
0.0
 40
0.6
  0
CIRCLE
  5
218
330
17
100
AcDbEntity
  8
WAGO
100
AcDbCircle
 10
282.436
 20
351.132
 30
0.0
 40
0.95
  0
CIRCLE
  5
219
330
17
100
AcDbEntity
  8
WAGO
100
AcDbCircle
 10
284.186
 20
354.163
 30
0.0
 40
0.6
  0
CIRCLE
  5
21A
330
17
100
AcDbEntity
  8
WAGO
100
AcDbCircle
 10
284.186
 20
354.163
 30
0.0
 40
0.95
  0
CIRCLE
  5
21B
330
17
100
AcDbEntity
  8
WAGO
100
AcDbCircle
 10
285.936
 20
357.194
 30
0.0
 40
0.6
  0
CIRCLE
  5
21C
330
17
100
AcDbEntity
  8
WAGO
100
AcDbCircle
 10
285.936
 20
357.194
 30
0.0
 40
0.95
  0
CIRCLE
  5
21D
330
17
100
AcDbEntity
  8
WAGO
100
AcDbCircle
 10
286.766
 20
348.632
 30
0.0
 40
0.6
  0
CIRCLE
  5
21E
330
17
100
AcDbEntity
  8
WAGO
100
AcDbCircle
 10
286.766
 20
348.632
 30
0.0
 40
0.95
  0
CIRCLE
  5
21F
330
17
100
AcDbEntity
  8
WAGO
100
AcDbCircle
 10
287.686
 20
360.225
 30
0.0
 40
0.6
  0
CIRCLE
  5
220
330
17
100
AcDbEntity
  8
WAGO
100
AcDbCircle
 10
287.686
 20
360.225
 30
0.0
 40
0.95
  0
CIRCLE
  5
221
330
17
100
AcDbEntity
  8
WAGO
100
AcDbCircle
 10
288.516
 20
351.663
 30
0.0
 40
0.6
  0
CIRCLE
  5
222
330
17
100
AcDbEntity
  8
WAGO
100
AcDbCircle
 10
288.516
 20
351.663
 30
0.0
 40
0.95
  0
CIRCLE
  5
223
330
17
100
AcDbEntity
  8
WAGO
100
AcDbCircle
 10
290.266
 20
354.694
 30
0.0
 40
0.6
  0
CIRCLE
  5
224
330
17
100
AcDbEntity
  8
WAGO
100
AcDbCircle
 10
290.266
 20
354.694
 30
0.0
 40
0.95
  0
CIRCLE
  5
225
330
17
100
AcDbEntity
  8
WAGO
100
AcDbCircle
 10
292.016
 20
357.725
 30
0.0
 40
0.6
  0
CIRCLE
  5
226
330
17
100
AcDbEntity
  8
WAGO
100
AcDbCircle
 10
292.016
 20
357.725
 30
0.0
 40
0.95
  0
LWPOLYLINE
  5
227
330
17
100
AcDbEntity
  8
WAGO
100
AcDbPolyline
 90
5
 70
0
 10
281.3590709261406
 20
348.8668776429622
 10
289.10924143176726
 20
362.29017295870767
 10
300.1076834001522
 20
355.9400332540974
 10
292.35751289452554
 20
342.5167379383519
 10
281.3590709261406
 20
348.8668776429622
  0
LINE
  5
228
330
17
100
AcDbEntity
  8
WAGO
100
AcDbLine
 10
294.73256514624984
 20
346.63032843833844
 30
0.0
 11
297.7326311484279
 21
351.8264427541109
 31
0.0
  0
ENDSEC
  0
SECTION
  2
OBJECTS
  0
DICTIONARY
  5
A
330
0
100
AcDbDictionary
281
1
  3
ACAD_COLOR
350
B
  3
ACAD_GROUP
350
C
  3
ACAD_LAYOUT
350
D
  3
ACAD_MATERIAL
350
E
  3
ACAD_MLEADERSTYLE
350
F
  3
ACAD_MLINESTYLE
350
10
  3
ACAD_PLOTSETTINGS
350
11
  3
ACAD_PLOTSTYLENAME
350
12
  3
ACAD_SCALELIST
350
14
  3
ACAD_TABLESTYLE
350
15
  3
ACAD_VISUALSTYLE
350
16
  3
EZDXF_META
350
2D
  0
DICTIONARY
  5
B
330
A
100
AcDbDictionary
281
1
  0
DICTIONARY
  5
C
330
A
100
AcDbDictionary
281
1
  0
DICTIONARY
  5
D
330
A
100
AcDbDictionary
281
1
  3
Model
350
1A
  3
Layout1
350
1E
  0
DICTIONARY
  5
E
330
A
100
AcDbDictionary
281
1
  3
ByBlock
350
1F
  3
ByLayer
350
20
  3
Global
350
21
  0
DICTIONARY
  5
F
330
A
100
AcDbDictionary
281
1
  3
Standard
350
2C
  0
DICTIONARY
  5
10
330
A
100
AcDbDictionary
281
1
  3
Standard
350
22
  0
DICTIONARY
  5
11
330
A
100
AcDbDictionary
281
1
  0
ACDBDICTIONARYWDFLT
  5
12
330
A
100
AcDbDictionary
281
1
  3
Normal
350
13
100
AcDbDictionaryWithDefault
340
13
  0
ACDBPLACEHOLDER
  5
13
330
12
  0
DICTIONARY
  5
14
330
A
100
AcDbDictionary
281
1
  0
DICTIONARY
  5
15
330
A
100
AcDbDictionary
281
1
  0
DICTIONARY
  5
16
330
A
100
AcDbDictionary
281
1
  0
LAYOUT
  5
1A
330
D
100
AcDbPlotSettings
  1

  4
A3
  6

 40
7.5
 41
20.0
 42
7.5
 43
20.0
 44
420.0
 45
297.0
 46
0.0
 47
0.0
 48
0.0
 49
0.0
140
0.0
141
0.0
142
1.0
143
1.0
 70
1024
 72
1
 73
0
 74
5
  7

 75
16
 76
0
 77
2
 78
300
147
1.0
148
0.0
149
0.0
100
AcDbLayout
  1
Model
 70
1
 71
0
 10
0.0
 20
0.0
 11
420.0
 21
297.0
 12
0.0
 22
0.0
 32
0.0
 14
1e+20
 24
1e+20
 34
1e+20
 15
-1e+20
 25
-1e+20
 35
-1e+20
146
0.0
 13
0.0
 23
0.0
 33
0.0
 16
1.0
 26
0.0
 36
0.0
 17
0.0
 27
1.0
 37
0.0
 76
1
330
17
  0
LAYOUT
  5
1E
330
D
100
AcDbPlotSettings
  1

  4
A3
  6

 40
7.5
 41
20.0
 42
7.5
 43
20.0
 44
420.0
 45
297.0
 46
0.0
 47
0.0
 48
0.0
 49
0.0
140
0.0
141
0.0
142
1.0
143
1.0
 70
0
 72
1
 73
0
 74
5
  7

 75
16
 76
0
 77
2
 78
300
147
1.0
148
0.0
149
0.0
100
AcDbLayout
  1
Layout1
 70
1
 71
1
 10
0.0
 20
0.0
 11
420.0
 21
297.0
 12
0.0
 22
0.0
 32
0.0
 14
1e+20
 24
1e+20
 34
1e+20
 15
-1e+20
 25
-1e+20
 35
-1e+20
146
0.0
 13
0.0
 23
0.0
 33
0.0
 16
1.0
 26
0.0
 36
0.0
 17
0.0
 27
1.0
 37
0.0
 76
1
330
1B
  0
MATERIAL
  5
1F
102
{ACAD_REACTORS
330
E
102
}
330
E
100
AcDbMaterial
  1
ByBlock
  2

 70
0
 40
1.0
 71
1
 41
1.0
 91
-1023410177
 42
1.0
 72
1
  3

 73
1
 74
1
 75
1
 44
0.5
 73
0
 45
1.0
 46
1.0
 77
1
  4

 78
1
 79
1
170
1
 48
1.0
171
1
  6

172
1
173
1
174
1
140
1.0
141
1.0
175
1
  7

176
1
177
1
178
1
143
1.0
179
1
  8

270
1
271
1
272
1
145
1.0
146
1.0
273
1
  9

274
1
275
1
276
1
 42
1.0
 72
1
  3

 73
1
 74
1
 75
1
 94
63
  0
MATERIAL
  5
20
102
{ACAD_REACTORS
330
E
102
}
330
E
100
AcDbMaterial
  1
ByLayer
  2

 70
0
 40
1.0
 71
1
 41
1.0
 91
-1023410177
 42
1.0
 72
1
  3

 73
1
 74
1
 75
1
 44
0.5
 73
0
 45
1.0
 46
1.0
 77
1
  4

 78
1
 79
1
170
1
 48
1.0
171
1
  6

172
1
173
1
174
1
140
1.0
141
1.0
175
1
  7

176
1
177
1
178
1
143
1.0
179
1
  8

270
1
271
1
272
1
145
1.0
146
1.0
273
1
  9

274
1
275
1
276
1
 42
1.0
 72
1
  3

 73
1
 74
1
 75
1
 94
63
  0
MATERIAL
  5
21
102
{ACAD_REACTORS
330
E
102
}
330
E
100
AcDbMaterial
  1
Global
  2

 70
0
 40
1.0
 71
1
 41
1.0
 91
-1023410177
 42
1.0
 72
1
  3

 73
1
 74
1
 75
1
 44
0.5
 73
0
 45
1.0
 46
1.0
 77
1
  4

 78
1
 79
1
170
1
 48
1.0
171
1
  6

172
1
173
1
174
1
140
1.0
141
1.0
175
1
  7

176
1
177
1
178
1
143
1.0
179
1
  8

270
1
271
1
272
1
145
1.0
146
1.0
273
1
  9

274
1
275
1
276
1
 42
1.0
 72
1
  3

 73
1
 74
1
 75
1
 94
63
  0
MLINESTYLE
  5
22
102
{ACAD_REACTORS
330
10
102
}
330
10
100
AcDbMlineStyle
  2
Standard
 70
0
  3

 62
256
 51
90.0
 52
90.0
 71
2
 49
0.5
 62
256
  6
BYLAYER
 49
-0.5
 62
256
  6
BYLAYER
  0
MLEADERSTYLE
  5
2C
102
{ACAD_REACTORS
330
F
102
}
330
F
100
AcDbMLeaderStyle
179
2
170
2
171
1
172
0
 90
2
 40
0.0
 41
0.0
173
1
 91
-1056964608
 92
-2
290
1
 42
2.0
291
1
 43
8.0
  3
Standard
 44
4.0
300

342
29
174
1
175
1
176
0
178
1
 93
-1056964608
 45
4.0
292
0
297
0
 46
4.0
 94
-1056964608
 47
1.0
 49
1.0
140
1.0
294
1
141
0.0
177
0
142
1.0
295
0
296
0
143
3.75
271
0
272
9
273
9
  0
DICTIONARY
  5
2D
330
A
100
AcDbDictionary
280
1
281
1
  3
CREATED_BY_EZDXF
350
2E
  3
WRITTEN_BY_EZDXF
350
22B
  0
DICTIONARYVAR
  5
2E
330
2D
100
DictionaryVariables
280
0
  1
1.4.4 @ 2026-08-30T16:44:22.641539+00:00
  0
DICTIONARYVAR
  5
22B
330
2D
100
DictionaryVariables
280
0
  1
1.4.4 @ 2026-08-30T16:44:22.666606+00:00
  0
ENDSEC
  0
EOF
